<svg id="Laag_1" data-name="Laag 1" xmlns="http://www.w3.org/2000/svg" xmlns:xlink="http://www.w3.org/1999/xlink" viewBox="0 0 500 500"><defs><style>.cls-1{fill:url(#Naamloos_verloop_45);}.cls-2{fill:#fff;}</style><radialGradient id="Naamloos_verloop_45" cx="247.57" cy="611.81" r="672.27" gradientTransform="translate(5.8)" gradientUnits="userSpaceOnUse"><stop offset="0" stop-color="#146ef2"/><stop offset="0.3" stop-color="#1d79f2"/><stop offset="1" stop-color="#1da1f2"/></radialGradient></defs><title>App Icon</title><path class="cls-1" d="M500,397A102.6,102.6,0,0,1,397.31,499.57H102.71A102.61,102.61,0,0,1,0,397V103A102.62,102.62,0,0,1,102.71.43h294.6A102.61,102.61,0,0,1,500,103Z"/><path class="cls-2" d="M264.79,95.12a9.41,9.41,0,0,0-.73-1l-.16-.19A9,9,0,0,0,263,93h0a9.42,9.42,0,0,0-1-.76l-.07,0a9.71,9.71,0,0,0-1.15-.61h0a9.23,9.23,0,0,0-8.24.38l-17.73,9.92a8.48,8.48,0,0,0-3.24,11.82l98.72,163.56,33.24-18.61Z"/><path class="cls-2" d="M368.46,267.09,335.22,285.7l21.14,34.91L389.6,302Z"/><polygon class="cls-2" points="228.41 201.73 194.69 183.93 110.15 327.51 143.59 345.77 144.42 344.37 144.42 344.37 228.41 201.73"/><path class="cls-2" d="M247.11,169.84a8.48,8.48,0,0,0-3.38-11.78l-17.84-9.74a9.23,9.23,0,0,0-9.37.33l-.09,0a9.19,9.19,0,0,0-1,.75l0,0a10,10,0,0,0-.85.87l-.17.22a8,8,0,0,0-.71,1l-14.14,24.16,33.63,17.94Z"/><path class="cls-2" d="M87.73,401.84l52.59-50.52-33.44-18.26Z"/><polygon class="cls-2" points="147.32 247.08 147.32 247.08 147.54 246.7 76.16 246.7 76.16 282.52 126.6 282.52 147.32 247.08"/><polygon class="cls-2" points="301.99 247.32 301.62 246.7 210.9 246.7 210.63 247.18 210.63 247.18 190.12 282.52 323.36 282.52 301.99 247.32 301.99 247.32"/><polygon class="cls-2" points="366.97 246.7 388.84 282.52 436.48 282.52 436.48 246.7 366.97 246.7"/><path class="cls-2" d="M410.66,326A24.65,24.65,0,0,0,364.1,337.3s0,.07,0,.11a11,11,0,0,0,0,1.62,39.87,39.87,0,0,0,12,24.7C384.3,372,407,378.63,407,396.91c0,0-.22,3-.34,3.81,14.19-17.23,14.73-24.64,14.73-39.89C421.37,342,410.72,326.08,410.66,326Z"/></svg>