<svg id="Laag_1" data-name="Laag 1" xmlns="http://www.w3.org/2000/svg" xmlns:xlink="http://www.w3.org/1999/xlink" viewBox="0 0 500 500"><defs><style>.cls-1{fill:url(#Naamloos_verloop_18);}.cls-2{fill:url(#Naamloos_verloop_95);}.cls-3{fill:url(#Naamloos_verloop_95-2);}.cls-4{fill:#b3b3b3;}.cls-5{fill:#fcee21;}</style><linearGradient id="Naamloos_verloop_18" x1="250" y1="-0.44" x2="250" y2="500.44" gradientUnits="userSpaceOnUse"><stop offset="0" stop-color="#d7d9da"/><stop offset="0.12" stop-color="#c2c4c7"/><stop offset="0.3" stop-color="#acaeb3"/><stop offset="0.49" stop-color="#9c9ea4"/><stop offset="0.7" stop-color="#93959c"/><stop offset="1" stop-color="#909299"/></linearGradient><radialGradient id="Naamloos_verloop_95" cx="252.59" cy="458.77" r="448.15" gradientTransform="translate(0 -9.45) scale(1 1.02)" gradientUnits="userSpaceOnUse"><stop offset="0"/><stop offset="0.3" stop-color="#1a1a1a"/><stop offset="1" stop-color="#4d4d4d"/></radialGradient><radialGradient id="Naamloos_verloop_95-2" cx="252.59" cy="458.77" r="448.15" xlink:href="#Naamloos_verloop_95"/></defs><title>App Icon</title><path class="cls-1" d="M102.71,500.44A102.79,102.79,0,0,1,0,397.56V102.45A102.79,102.79,0,0,1,102.71-.44H397.3A102.79,102.79,0,0,1,500,102.45V397.56A102.78,102.78,0,0,1,397.3,500.44Z"/><path class="cls-2" d="M79.33,376.75A17.25,17.25,0,0,0,96.59,394H403.41a17.25,17.25,0,0,0,17.26-17.25V180.67H79.33Z"/><path class="cls-3" d="M420.67,165.92a17.25,17.25,0,0,0-17.26-17.25H335.33v-1.12c-10.66,0-18.6-41.55-41.54-41.55H206.22c-22.95,0-30.89,41.55-41.55,41.55v1.12h-32v-6A4.68,4.68,0,0,0,128,138H116a4.68,4.68,0,0,0-4.68,4.68v6H96.59a17.25,17.25,0,0,0-17.26,17.25V170H420.67Z"/><rect class="cls-4" x="79.33" y="170" width="341.33" height="10.67"/><rect class="cls-4" x="79.33" y="362" width="341.33" height="10.67"/><path class="cls-4" d="M255.33,350A78.67,78.67,0,1,1,334,271.33,78.76,78.76,0,0,1,255.33,350Zm0-149.33A70.67,70.67,0,1,0,326,271.33,70.74,70.74,0,0,0,255.33,200.67Z"/><circle class="cls-5" cx="330" cy="196.67" r="5.33"/></svg>