<svg id="Laag_1" data-name="Laag 1" xmlns="http://www.w3.org/2000/svg" xmlns:xlink="http://www.w3.org/1999/xlink" viewBox="0 0 500 500"><defs><style>.cls-1{fill:url(#radial-gradient);}.cls-2{fill:#fff;}</style><radialGradient id="radial-gradient" cx="251.99" cy="611.38" r="672.27" gradientTransform="translate(1.38)" gradientUnits="userSpaceOnUse"><stop offset="0" stop-color="#3b5998"/><stop offset="0.3" stop-color="#3b5998"/><stop offset="1" stop-color="#5f83cf"/></radialGradient></defs><title>Social Icon</title><path class="cls-1" d="M500,396.6A102.6,102.6,0,0,1,397.31,499.13H102.71A102.61,102.61,0,0,1,0,396.6V102.52A102.61,102.61,0,0,1,102.71,0h294.6A102.6,102.6,0,0,1,500,102.52Z"/><path class="cls-2" d="M384.43,137.21h46.13V64.83H361.44S318,63.76,290.27,99.7c0,0-18.87,17.76-19.16,69.77h0v54.28H202.78V300.6H271.1V499.13h78.8V300.6h67.79l9.44-76.85H349.9V169.47h0C350.07,163.41,352.77,136.66,384.43,137.21Z"/></svg>