<svg id="Laag_1" data-name="Laag 1" xmlns="http://www.w3.org/2000/svg" viewBox="0 0 266.03 11.58"><defs><style>.cls-1{fill:#fff;}</style></defs><title>Meropedia Logo</title><path class="cls-1" d="M1.56,2.64a1.08,1.08,0,0,1,.09-.46,1.24,1.24,0,0,1,.25-.35,2.8,2.8,0,0,1,.37-.29l.42-.27C3,1.08,3.28.92,3.53.8A2,2,0,0,1,4.47.61h.62a.9.9,0,0,1,.56.23,1,1,0,0,1,.33.4,1.27,1.27,0,0,1,.1.54A1.13,1.13,0,0,1,6,2.15a1.35,1.35,0,0,1-.17.34,1,1,0,0,1-.27.24.64.64,0,0,1-.35.1.44.44,0,0,1-.3-.1,1.8,1.8,0,0,1-.2-.19l-.2-.2a.45.45,0,0,0-.28-.09,3.42,3.42,0,0,0-.45,0,1.5,1.5,0,0,0-.42.15,1.05,1.05,0,0,0-.3.25A.59.59,0,0,0,3,3.06a.31.31,0,0,0,.14.29.81.81,0,0,0,.33.12l.41.07a1.4,1.4,0,0,1,.41.13c.3.16.57.3.79.43s.47.28.75.47a1.76,1.76,0,0,0,.27.14l.23.11.23.12.27.19a4.21,4.21,0,0,1,.79.79,1.73,1.73,0,0,1,.29,1v.39a.86.86,0,0,0,.07.36A1.12,1.12,0,0,1,8,8.09a1,1,0,0,1-.15.58,3.9,3.9,0,0,0-.28.51.41.41,0,0,0,0,.22.18.18,0,0,1,0,.2.43.43,0,0,1-.22.29.84.84,0,0,0-.29.23l-.28.24-.27.19a2.2,2.2,0,0,1-.28.18l-.35.19a3.09,3.09,0,0,1-.58.26c-.17.05-.36.11-.59.16a.49.49,0,0,0-.2.11.33.33,0,0,1-.22.08.78.78,0,0,1-.24,0l-.18,0a1.08,1.08,0,0,0-.4,0,1.27,1.27,0,0,1-.37.05.33.33,0,0,1-.21-.06.51.51,0,0,0-.21-.09.68.68,0,0,0-.33-.06l-.33,0a.39.39,0,0,1-.3-.11A2.27,2.27,0,0,0,1.37,11,2,2,0,0,0,1,10.86a.81.81,0,0,1-.36-.23.34.34,0,0,1-.2-.26A.91.91,0,0,0,.34,10,4.28,4.28,0,0,0,.1,9.57a.91.91,0,0,1-.1-.5,1.15,1.15,0,0,1,.37-.85,1.26,1.26,0,0,1,.9-.37A1.31,1.31,0,0,1,1.88,8a.46.46,0,0,1,.29.43.28.28,0,0,1,0,.15.25.25,0,0,0,0,.12.29.29,0,0,0,0,.19A.25.25,0,0,1,2.22,9a.23.23,0,0,1,0,.09.2.2,0,0,0,0,.1.69.69,0,0,0,.13.43,1.14,1.14,0,0,0,.35.3,1.46,1.46,0,0,0,.48.19,2.48,2.48,0,0,0,.54.06,2,2,0,0,0,1-.26,3,3,0,0,0,.81-.67,2.87,2.87,0,0,0,.34-.46,1.2,1.2,0,0,0,.13-.59.7.7,0,0,0-.1-.38.71.71,0,0,1-.1-.37.14.14,0,0,1,0-.09s0,0,0,0a.73.73,0,0,0-.14-.45,1.67,1.67,0,0,0-.37-.32L4.8,6.33l-.52-.25A.32.32,0,0,1,4.17,6a.23.23,0,0,0-.12-.12.75.75,0,0,0-.34-.09.58.58,0,0,1-.33-.15.43.43,0,0,1-.18-.17A.58.58,0,0,0,3,5.23a.75.75,0,0,0-.33-.09A.77.77,0,0,1,2.35,5l-.18-.2A1.4,1.4,0,0,1,2,4.57,1.09,1.09,0,0,0,1.7,4.3a.37.37,0,0,1-.19-.36V3.52a1.36,1.36,0,0,0,0-.2,1.5,1.5,0,0,1,0-.22.31.31,0,0,1,0-.11.36.36,0,0,0,0-.11.34.34,0,0,1,0-.15A.23.23,0,0,0,1.56,2.64Z"/><path class="cls-1" d="M11.66,1.13l.17,0,.25.05.27,0,.19,0s.06,0,.12.07a.66.66,0,0,1,.16.17,1,1,0,0,1,.14.23A.53.53,0,0,1,13,2s-.07.09-.21.12l-.45.1a2.56,2.56,0,0,0-.46.12c-.14,0-.2.1-.2.17V3.67a2,2,0,0,0,.08.26c0,.07.05.13.07.2a.64.64,0,0,1,0,.15l-.18.8a.77.77,0,0,0,0,.18c0,.09,0,.19.07.29s.05.2.07.29,0,.15,0,.19l.15.84a2.73,2.73,0,0,1-.07.66,2.38,2.38,0,0,0-.08.43v.47a.23.23,0,0,1-.09.18c-.06.05-.09.19-.09.43a.29.29,0,0,0,.05.16.66.66,0,0,0,.12.17L12,9.5a.39.39,0,0,0,.14.05l.37.1a.74.74,0,0,1,.48.71c0,.14-.1.25-.28.33a1.47,1.47,0,0,1-.57.13h-.93l-.63-.19a1.28,1.28,0,0,0-.28,0l-.39.12-.38.12L9.34,11a.68.68,0,0,1-.28-.11.3.3,0,0,1-.17-.23.41.41,0,0,1,.19-.33L9.5,10a1.57,1.57,0,0,0,.39-.31A.42.42,0,0,0,10,9.28c-.09-.17-.11-.3-.06-.38A.61.61,0,0,0,10,8.65V4.6l-.18-.45a3.21,3.21,0,0,1,.08-.36c0-.09,0-.18.07-.26a1,1,0,0,0,0-.2A1.94,1.94,0,0,0,10,2.8a1,1,0,0,0-.13-.31.41.41,0,0,0-.19-.11l-.21,0-.23,0A.57.57,0,0,1,9,2.25.5.5,0,0,1,8.8,2a1.33,1.33,0,0,1-.07-.47.68.68,0,0,1,0-.14l0-.1a.11.11,0,0,1,.1-.05h.93l.16,0a.61.61,0,0,1,.18.05l.18.07.26,0,.28,0,.36-.07h.18a.27.27,0,0,0,.17-.07Z"/><path class="cls-1" d="M16.15,1.17a2.06,2.06,0,0,1,.37,0,.51.51,0,0,1,.29.13.7.7,0,0,1,.28.25.75.75,0,0,0,.19.22.6.6,0,0,0,.36.42,1.36,1.36,0,0,1,.44.24,4.06,4.06,0,0,1,.4.42c.13.16.26.34.39.52l.39.52a2.65,2.65,0,0,0,.38.42,5.59,5.59,0,0,1,.43.6,1.29,1.29,0,0,0,.56.52q.11.09.39.39l.64.65c.23.23.45.44.67.62a.91.91,0,0,0,.5.27.25.25,0,0,0,.17,0,.25.25,0,0,0,0-.13.4.4,0,0,0,0-.15.69.69,0,0,1,0-.13V5.65a.86.86,0,0,1,.09-.35,1.22,1.22,0,0,0,.09-.49V3.39L23,3.22,22.75,3l-.23-.23a.29.29,0,0,0-.16-.1H22a.6.6,0,0,1-.24-.06,2,2,0,0,1-.25-.14,2,2,0,0,1-.2-.16.2.2,0,0,1-.07-.11V1.64a.45.45,0,0,1,.07-.27.41.41,0,0,1,.2-.14.7.7,0,0,1,.25-.05h.56l.31,0,.41.05.41.06.34,0h2.36a1.39,1.39,0,0,1,.63.15.52.52,0,0,1,.3.51,1.4,1.4,0,0,1,0,.23.66.66,0,0,1-.12.24,1.32,1.32,0,0,1-.75.22l-.7,0-.48.14h-.29c-.09,0-.16.06-.22.19a.87.87,0,0,0-.1.42V6a1.33,1.33,0,0,0,.07.3,1,1,0,0,1,.07.3v1l-.29,1.65a1.16,1.16,0,0,0,0,.27c0,.11.06.22.1.34s.08.23.11.34a1.86,1.86,0,0,1,0,.26s0,.13,0,.24l0,.34a1.32,1.32,0,0,1-.09.3.18.18,0,0,1-.16.12h-.56a1.84,1.84,0,0,1-.29-.06c-.09,0-.13-.05-.13-.08a2.06,2.06,0,0,1-.4-.58,1.73,1.73,0,0,0-.4-.54,3.23,3.23,0,0,0-.35-.42l-.33-.32c-.11-.1-.21-.21-.31-.32a1.64,1.64,0,0,1-.24-.41,2.84,2.84,0,0,0-.58-.81c-.26-.26-.53-.52-.82-.78L19,6.27a4.1,4.1,0,0,1-.66-.82.54.54,0,0,0-.05-.16,1.28,1.28,0,0,0-.14-.21A1.7,1.7,0,0,0,18,4.89a.46.46,0,0,0-.23-.08q-.33,0-.33.51V7.25l.14.94a2.44,2.44,0,0,1,0,.47,3.18,3.18,0,0,0,0,.38.58.58,0,0,0,.19.48,1.33,1.33,0,0,0,.49.25,3.66,3.66,0,0,0,.61.12l.62.11a1.38,1.38,0,0,1,.49.22.49.49,0,0,1,.19.41c0,.09,0,.14-.09.16a.56.56,0,0,1-.2,0H17.89L16.81,11a.62.62,0,0,0-.34-.14h-.64a1,1,0,0,1-.53-.1.87.87,0,0,0-.42-.09h-.61l-.14.19h-.34v-.23c0-.11,0-.21,0-.31s0-.26,0-.39a.3.3,0,0,1,.15-.24.53.53,0,0,1,.27-.1h1.65a.29.29,0,0,0,.2-.07.62.62,0,0,0,.14-.18.83.83,0,0,0,.06-.21c0-.08,0-.13,0-.16a.78.78,0,0,1-.05-.14.57.57,0,0,1-.05-.24,2.37,2.37,0,0,0,0-.41,1,1,0,0,0-.07-.28c0-.08-.05-.15-.06-.21a.75.75,0,0,1,0-.23,1.78,1.78,0,0,1,0-.29,1.33,1.33,0,0,1,.06-.3c0-.11.06-.23.1-.34V5.32a1.12,1.12,0,0,0,0-.24A.49.49,0,0,0,16,4.81c0-.14,0-.22.09-.26a.17.17,0,0,1,.1,0s0-.11-.07-.19A2.4,2.4,0,0,0,16,4.1l-.1-.22a.41.41,0,0,1,0-.16.63.63,0,0,0-.27-.54,6.77,6.77,0,0,0-.6-.35,4,4,0,0,1-.61-.39.79.79,0,0,1-.27-.65c.05-.11.09-.21.14-.3a1.64,1.64,0,0,1,.14-.22.23.23,0,0,1,.2-.1Z"/><path class="cls-1" d="M38.15.8s.07,0,.11.12a2.09,2.09,0,0,1,.11.3,1.89,1.89,0,0,1,.09.34,1.58,1.58,0,0,1,0,.23V3c0,.05,0,.13,0,.26a1.73,1.73,0,0,1,0,.38.89.89,0,0,1-.14.35.32.32,0,0,1-.27.15A.62.62,0,0,1,37.6,4a.77.77,0,0,1-.18-.32c0-.13-.07-.27-.1-.42a1.8,1.8,0,0,0-.11-.43.83.83,0,0,0-.27-.32.91.91,0,0,0-.53-.13h-.93l-.19,0-.18.05-.21.07a.7.7,0,0,0-.55.23.83.83,0,0,0-.19.56v.82a1.77,1.77,0,0,1,0,.24.25.25,0,0,0,.09.21l-.08.66V8a2.72,2.72,0,0,0,.05.55,1,1,0,0,0,.14.34.84.84,0,0,0,.18.23l.19.18.45.16a1.46,1.46,0,0,0,.5.08,1.48,1.48,0,0,1,.76.31.7.7,0,0,1,.27.47.58.58,0,0,1-.19.46,1,1,0,0,1-.61.26.71.71,0,0,1-.29-.05l-.28-.08-.34,0h-.38a2.1,2.1,0,0,1-.37,0,.82.82,0,0,1-.32-.12H32.31a1.68,1.68,0,0,0-.41.1,2.53,2.53,0,0,1-.7.09l-.49,0-.38,0h-.27a.15.15,0,0,0-.13.07s-.15.06-.34.06a.19.19,0,0,1-.07-.06.35.35,0,0,1-.05-.08.39.39,0,0,1,0-.13,3,3,0,0,1,.17-.37c.06-.1.12-.21.2-.32a1.83,1.83,0,0,1,.24-.31l.44-.15.33-.12L31,9.41l.82-.18c.08,0,.14-.06.18-.17a1.22,1.22,0,0,0,.1-.34,2.72,2.72,0,0,0,0-.53V6.4a.64.64,0,0,1,.07-.24L32.31,6V3.86a1.24,1.24,0,0,1,0-.27,1.22,1.22,0,0,0,0-.26.37.37,0,0,0-.06-.15.76.76,0,0,0-.13-.2A.86.86,0,0,0,32,2.8a.38.38,0,0,0-.22-.07H29.88a1,1,0,0,0-.55.12.91.91,0,0,0-.3.32,1.46,1.46,0,0,0-.15.43,4.17,4.17,0,0,1-.13.42.81.81,0,0,1-.21.32.56.56,0,0,1-.41.13.38.38,0,0,1-.36-.2.81.81,0,0,1-.11-.41.9.9,0,0,1,0-.21c0-.1,0-.2,0-.3s0-.2.05-.29a.77.77,0,0,0,0-.18L28,2.07s0-.11,0-.23a3,3,0,0,1,.09-.38,1.5,1.5,0,0,1,.14-.36c.06-.1.13-.15.2-.15A.67.67,0,0,1,28.8,1l.28.19a.8.8,0,0,0,.21.13.64.64,0,0,0,.3.06,1.53,1.53,0,0,0,.3,0,1.52,1.52,0,0,1,.31,0h.34a.21.21,0,0,0,.12,0l.15,0,.18,0h2.56L34,1.32l.47.09a6.42,6.42,0,0,0,.74,0,6,6,0,0,1,.72,0h.81a1.8,1.8,0,0,0,.54-.08l.42-.18A1.7,1.7,0,0,0,38,.88.32.32,0,0,1,38.15.8Z"/><path class="cls-1" d="M45.14,2.64a1.12,1.12,0,0,1,.35-.81,2.8,2.8,0,0,1,.37-.29l.42-.27A7.42,7.42,0,0,1,47.12.8a2,2,0,0,1,.94-.19h.62a.92.92,0,0,1,.56.23,1,1,0,0,1,.33.4,1.44,1.44,0,0,1,.1.54,1.51,1.51,0,0,1-.06.36,1.35,1.35,0,0,1-.17.34,1,1,0,0,1-.27.24.64.64,0,0,1-.35.1.42.42,0,0,1-.3-.1,1.8,1.8,0,0,1-.2-.19l-.2-.2a.45.45,0,0,0-.28-.09,3.42,3.42,0,0,0-.45,0,1.5,1.5,0,0,0-.42.15,1.05,1.05,0,0,0-.3.25.59.59,0,0,0-.12.37.29.29,0,0,0,.14.29.81.81,0,0,0,.33.12l.41.07a1.4,1.4,0,0,1,.41.13l.78.43c.22.12.47.28.76.47a1.76,1.76,0,0,0,.27.14l.23.11.22.12.28.19a4.45,4.45,0,0,1,.78.79,1.67,1.67,0,0,1,.3,1v.39a.86.86,0,0,0,.07.36,1.12,1.12,0,0,1,.06.38,1,1,0,0,1-.14.58,3,3,0,0,0-.28.51.41.41,0,0,0,0,.22.2.2,0,0,1-.05.2.43.43,0,0,1-.22.29.76.76,0,0,0-.29.23l-.28.24-.28.19a1.67,1.67,0,0,1-.28.18l-.34.19a3.09,3.09,0,0,1-.58.26c-.17.05-.36.11-.59.16a.43.43,0,0,0-.2.11.33.33,0,0,1-.22.08.78.78,0,0,1-.24,0l-.19,0a1,1,0,0,0-.39,0,1.27,1.27,0,0,1-.37.05.33.33,0,0,1-.21-.06.51.51,0,0,0-.21-.09.72.72,0,0,0-.33-.06l-.33,0a.41.41,0,0,1-.31-.11A2.89,2.89,0,0,0,45,11a2,2,0,0,0-.36-.14.84.84,0,0,1-.35-.23.35.35,0,0,1-.21-.26,1.08,1.08,0,0,0-.11-.35,4.28,4.28,0,0,0-.24-.45.91.91,0,0,1-.1-.5A1.15,1.15,0,0,1,44,8.22a1.26,1.26,0,0,1,.9-.37,1.34,1.34,0,0,1,.61.15.45.45,0,0,1,.28.43.3.3,0,0,1,0,.15.27.27,0,0,0,0,.12.36.36,0,0,0,0,.19.2.2,0,0,1,0,.15.18.18,0,0,1,0,.09.22.22,0,0,0,0,.1.69.69,0,0,0,.14.43,1.14,1.14,0,0,0,.35.3,1.46,1.46,0,0,0,.48.19,2.48,2.48,0,0,0,.54.06,2,2,0,0,0,1-.26,3,3,0,0,0,.81-.67,2.79,2.79,0,0,0,.33-.46,1.2,1.2,0,0,0,.14-.59.7.7,0,0,0-.1-.38.71.71,0,0,1-.1-.37c0-.05,0-.08,0-.09s0,0,0,0a.68.68,0,0,0-.15-.45,1.42,1.42,0,0,0-.36-.32l-.48-.25-.52-.25A.32.32,0,0,1,47.76,6a.22.22,0,0,0-.13-.12.69.69,0,0,0-.34-.09A.56.56,0,0,1,47,5.6a.43.43,0,0,1-.18-.17.7.7,0,0,0-.19-.2.75.75,0,0,0-.33-.09A.68.68,0,0,1,45.94,5l-.18-.2a.93.93,0,0,1-.14-.22,1.09,1.09,0,0,0-.33-.27.38.38,0,0,1-.2-.36V3.52a1.34,1.34,0,0,0,0-.2,1.5,1.5,0,0,1,0-.22.31.31,0,0,1,0-.11.37.37,0,0,0,0-.11.33.33,0,0,1,0-.15A.18.18,0,0,0,45.14,2.64Z"/><path class="cls-1" d="M55.94,1.32l.2,0,.22,0,.3,0,.47,0,.56-.14.25-.07.2-.05.16,0a.67.67,0,0,1,.29.09,1.93,1.93,0,0,1,.32.19,1.32,1.32,0,0,1,.15.52,1.8,1.8,0,0,0,.13.52.58.58,0,0,1,.12.2c0,.1.09.19.14.28a2,2,0,0,0,.17.37c0,.22-.14.32-.43.32a.61.61,0,0,1-.3-.16,5.79,5.79,0,0,0-.52-.35,4.63,4.63,0,0,0-.77-.36,3,3,0,0,0-1.05-.16l-.32.08a2.21,2.21,0,0,1-.19.26c-.06.07-.1.12-.1.17v.15c0,.09,0,.18-.06.25a.8.8,0,0,0-.05.21.47.47,0,0,0,0,.15V5.08a1.12,1.12,0,0,0,.1.48.34.34,0,0,0,.32.23l.17,0,.26,0L57,5.65h.34a.48.48,0,0,0,.24-.06l.21-.15L58,5.3a.28.28,0,0,1,.19-.07.15.15,0,0,1,.12.07,1,1,0,0,1,.14.15l.16.2V6.77q0,.48-.42.48a.66.66,0,0,1-.32-.08A2.5,2.5,0,0,1,57.6,7l-.31-.15A.52.52,0,0,0,57,6.77h-.61q-.43,0-.54.15a1.09,1.09,0,0,0-.12.61V8c0,.15,0,.31.07.47s0,.3,0,.44a.82.82,0,0,0,.17.35.59.59,0,0,0,.37.19h1a1.66,1.66,0,0,0,.51-.09,2.83,2.83,0,0,0,.57-.25l.53-.18a1.38,1.38,0,0,1,.45-.09l.14.12a.47.47,0,0,0,.1.1.19.19,0,0,1,.05.1.31.31,0,0,1-.09.22,1.29,1.29,0,0,1-.2.21A1.28,1.28,0,0,0,59,10l-.19.42a1,1,0,0,1-.23.32.56.56,0,0,1-.41.13.48.48,0,0,1-.18,0,.67.67,0,0,1-.18-.07,1.16,1.16,0,0,0-.22-.06,1.42,1.42,0,0,0-.31,0l-1.65.05-.57.14H53.69l-.34.1-.5,0a.38.38,0,0,1-.19-.06,1,1,0,0,1-.19-.17l-.14-.18a.29.29,0,0,1-.06-.15q0-.42.63-.42a1.59,1.59,0,0,0,.27-.12c.17-.08.31-.13.42-.17a.72.72,0,0,0,.48-.22,1.19,1.19,0,0,0,.13-.71.38.38,0,0,1,.06-.18c0-.06,0-.12-.06-.19a1.1,1.1,0,0,0,0-.18.61.61,0,0,0,0-.18c0-.06,0-.14-.06-.22V6.5l.13-1.18V5a.24.24,0,0,1,0-.14.35.35,0,0,0,0-.13V2.88a.29.29,0,0,0-.17-.25.63.63,0,0,0-.25-.09h-.48a.48.48,0,0,1-.46-.27,1.27,1.27,0,0,1-.14-.63.23.23,0,0,1,.09-.18A.26.26,0,0,1,53,1.37h.9l.31,0a4,4,0,0,1,.54,0Z"/><path class="cls-1" d="M67.08,1a1,1,0,0,1,.64.26l.53.48a1.16,1.16,0,0,0,.42.61l.21.26a.66.66,0,0,1,.13.32s.09.05.14.14.08.21.12.34.06.25.08.36a1.94,1.94,0,0,1,0,.22,1.75,1.75,0,0,1-.08.53q-.09.29-.21.57c-.09.2-.18.38-.27.55L68.57,6a.39.39,0,0,1-.18.18l-.21.13A.64.64,0,0,0,68,6.5a.46.46,0,0,0-.08.27,1.51,1.51,0,0,0,.1.49,3.61,3.61,0,0,0,.26.61,3.85,3.85,0,0,0,.31.54.85.85,0,0,0,.26.29,1.29,1.29,0,0,1,.36.34l.34.41a4.27,4.27,0,0,0,.38.36,1,1,0,0,0,.48.21l.32.13a1,1,0,0,1,.34.21.59.59,0,0,1,.11.14,1.05,1.05,0,0,1,0,.18.36.36,0,0,1-.24.27,1.18,1.18,0,0,1-.43.11,3,3,0,0,1-.41,0l-.22,0a.5.5,0,0,0-.31-.1,1.39,1.39,0,0,1-.32,0,4.4,4.4,0,0,1-.64-.44,3.12,3.12,0,0,0-.44-.32A2.09,2.09,0,0,1,67.9,10a3,3,0,0,1-.33-.3l-.36-.35L66.88,9a4.52,4.52,0,0,1-.35-.49c-.09-.16-.18-.31-.25-.45l-.21-.39a1.09,1.09,0,0,0-.22-.28,1.38,1.38,0,0,1-.35-.25A.45.45,0,0,0,65.15,7a.37.37,0,0,0-.31.13.92.92,0,0,0-.17.29,1.9,1.9,0,0,0-.08.36c0,.12,0,.22,0,.3l.18.8v.34a.72.72,0,0,0,.27.61,2.84,2.84,0,0,0,.56.33l.57.27a.41.41,0,0,1,.26.38.24.24,0,0,1-.12.2.33.33,0,0,1-.22.08h-.61L64.53,11H62.41l-.33,0a4.37,4.37,0,0,1-.59-.08,2.94,2.94,0,0,1-.57-.17c-.17-.07-.25-.17-.25-.3a.14.14,0,0,1,0-.1.63.63,0,0,1,.12-.1.83.83,0,0,1,.17-.12l.15,0,.2,0,.26,0H62a.84.84,0,0,0,.57-.2.56.56,0,0,0,.23-.41V5l.13-1.22a2.11,2.11,0,0,1-.06-.41A3.25,3.25,0,0,0,62.76,3a1.26,1.26,0,0,0-.15-.38.59.59,0,0,0-.33-.22h-.66a2.43,2.43,0,0,1-.38,0,1,1,0,0,1-.34-.12A.69.69,0,0,1,60.63,2a.76.76,0,0,1-.1-.4s0-.07.08-.11a.91.91,0,0,1,.16-.11A.9.9,0,0,1,61,1.22l2.86-.14H65.8L66.07,1,66.42,1ZM65.47,2.67l-.15,0-.18.06a.5.5,0,0,0-.22.11.3.3,0,0,0-.23.11.44.44,0,0,0-.11.34V4.57a.55.55,0,0,1-.07.25.35.35,0,0,0-.07.21l.07,0,0,.06a.23.23,0,0,1,0,.11.34.34,0,0,0,0,.31,1,1,0,0,0,.24.26,1.29,1.29,0,0,0,.33.17,1,1,0,0,0,.29.06l.31-.14.25-.1a.49.49,0,0,1,.19,0l.34.13a.48.48,0,0,0,.37-.17,1.87,1.87,0,0,0,.25-.41,2.78,2.78,0,0,0,.14-.44,1.77,1.77,0,0,1,.08-.28l-.1-.47a1.64,1.64,0,0,0,0-.23.55.55,0,0,0-.16-.25,2.27,2.27,0,0,0,0-.3A.45.45,0,0,0,66.93,3a.88.88,0,0,1-.24,0l-.43-.12-.46-.11A1.45,1.45,0,0,0,65.47,2.67Z"/><path class="cls-1" d="M74.6,1.13a1.53,1.53,0,0,1,.35,0q.12,0,.12.24a.54.54,0,0,1-.2.47,1.83,1.83,0,0,1-.46.24,3.28,3.28,0,0,0-.45.17.27.27,0,0,0-.21.25,1.17,1.17,0,0,0,0,.3l.11.33a1.17,1.17,0,0,0,.14.25c0,.07.09.1.13.1l.2.25a1.65,1.65,0,0,1,.15.25.48.48,0,0,1,.07.26.9.9,0,0,0,.08.27c0,.14.11.31.19.5l.26.64c.1.22.2.43.31.62a3.05,3.05,0,0,0,.31.46c.1.13.19.19.27.19s.14-.06.21-.17a2.18,2.18,0,0,0,.2-.37c.07-.16.13-.34.2-.55A5.77,5.77,0,0,0,77,5.26c.17-.3.33-.63.49-1s.3-.68.42-1a2.48,2.48,0,0,0,.19-.74A.27.27,0,0,0,78,2.29l-.22-.12a1.19,1.19,0,0,1-.22-.12.29.29,0,0,1-.11-.26.36.36,0,0,1,.1-.27.72.72,0,0,1,.24-.14,1,1,0,0,1,.27,0h1l.11,0,.08,0a.2.2,0,0,1,.08,0l.56,0,.28,0,.22-.05a1.64,1.64,0,0,1,.37,0l.32.05.34-.05a.55.55,0,0,1,.35.12.48.48,0,0,1,.16.4.6.6,0,0,1-.07.3.43.43,0,0,1-.17.16,1.34,1.34,0,0,1-.24.09l-.27.06-.8.16a.82.82,0,0,0-.57.45l-.09.38-.12.18a2.79,2.79,0,0,0-.2.31,3,3,0,0,0-.19.36q-.09.2-.15.36a1.18,1.18,0,0,1-.11.19L78.81,5l-.11.13c-.07.17-.15.36-.25.57a3,3,0,0,1-.36.56c-.29.67-.53,1.28-.73,1.85-.09.23-.18.48-.27.73s-.17.47-.24.68-.12.4-.16.56a1.64,1.64,0,0,0-.06.36v.48a1.35,1.35,0,0,1-.06.43c0,.12-.18.18-.41.18l-.28,0a.53.53,0,0,1-.28-.12c-.15-.07-.23-.15-.25-.24a.43.43,0,0,0-.12-.23.61.61,0,0,1-.16-.37q0-.2-.06-.33a1.39,1.39,0,0,0-.12-.28.72.72,0,0,0-.1-.32.81.81,0,0,1-.09-.29,5.79,5.79,0,0,1-.3-.62l-.22-.6c-.08-.21-.17-.42-.27-.64a4.59,4.59,0,0,0-.39-.7l-.09-.34c0-.09,0-.18-.07-.28s0-.17-.06-.23l-.16-.42A1.1,1.1,0,0,0,73,5.16l-.26-.37-.37-.46a5.55,5.55,0,0,0-.3-1.2,1.44,1.44,0,0,0-.6-.78c-.56-.29-.85-.54-.85-.76s.16-.27.48-.27h.32A2.84,2.84,0,0,0,72,1.24l.37-.11H73l.42.09.3,0,.23,0,.18,0Z"/><path class="cls-1" d="M87.19.71a.81.81,0,0,1,.56.16.84.84,0,0,1,.26.42,3,3,0,0,1,.11.55c0,.19,0,.38,0,.56V3l.27.5a1.48,1.48,0,0,1,.16.64v.42a1.3,1.3,0,0,0,.08.31c.06.16.12.35.2.55l.19.59a1.46,1.46,0,0,1,.09.38,5.14,5.14,0,0,0,.08.85,10.6,10.6,0,0,0,.22,1,6.09,6.09,0,0,0,.31.89c.12.24.25.37.38.37a1,1,0,0,1,.38,0,.8.8,0,0,0,.23.05.69.69,0,0,1,.18,0,1.31,1.31,0,0,1,.27.06.87.87,0,0,1,.25.15.3.3,0,0,1,.1.24.5.5,0,0,1-.24.48,1.1,1.1,0,0,1-.56.13l-1.13-.05H87.94l-.48.05h-.33c-.15,0-.23-.06-.23-.14a.45.45,0,0,1,.22-.39,1.67,1.67,0,0,1,.5-.25A2,2,0,0,0,88,9.75a.37.37,0,0,0,.16-.34,1.4,1.4,0,0,0,0-.25c0-.14-.06-.28-.1-.43a2,2,0,0,0-.14-.41c0-.12-.09-.18-.14-.18a3,3,0,0,1-.08-.37,2.69,2.69,0,0,0-.06-.36.55.55,0,0,0-.14-.25.31.31,0,0,0-.28,0h-.77l-.29,0-.3,0a.38.38,0,0,0-.2.08.24.24,0,0,0-.17.29,1.87,1.87,0,0,1,0,.42,2.74,2.74,0,0,0-.15.26c-.07.13-.14.27-.2.41L85,9a1.21,1.21,0,0,0-.07.24.33.33,0,0,0,.11.28l.25.17a1,1,0,0,1,.25.21.75.75,0,0,1,.1.45.2.2,0,0,1-.06.16.51.51,0,0,1-.16.09l-.19,0h-.14s0,.06,0,.07l-.09,0a.29.29,0,0,1-.16-.09h-.18a.93.93,0,0,1-.23,0l-.3,0a1.15,1.15,0,0,0-.36,0,.89.89,0,0,1-.35.05,1.35,1.35,0,0,0-.34,0,.37.37,0,0,0-.15.05l0,0-.07,0-.3,0L82,10.79a1.7,1.7,0,0,1-.38-.12c-.11-.05-.16-.11-.16-.17a.8.8,0,0,1,.19-.55.68.68,0,0,1,.52-.22l.32-.08.13-.06.19-.14.21-.18.18-.15a4.34,4.34,0,0,1,.36-.92c.18-.33.34-.65.49-.95a4.46,4.46,0,0,1,.26-.61l.3-.53a5.78,5.78,0,0,0,.28-.63,6.32,6.32,0,0,0,.22-.61c.07-.21.15-.42.22-.64s.17-.43.27-.66A2.38,2.38,0,0,0,85.82,3c.05-.2.09-.4.13-.61S86,2,86.1,1.78a3.47,3.47,0,0,1,.25-.65l.22-.2A1.11,1.11,0,0,1,86.9.71ZM87,3.81a.26.26,0,0,0-.21.1.94.94,0,0,0-.16.23.87.87,0,0,0-.1.25.65.65,0,0,0,0,.18V4.8a.25.25,0,0,1,0,.13s0,.1,0,.17,0,.17-.07.32v.13c0,.07.05.14.15.2a.54.54,0,0,0,.27.09h.16l.22,0a.53.53,0,0,0,.19-.06.18.18,0,0,0,.09-.16.47.47,0,0,0-.12-.34A.31.31,0,0,1,87.19,5V4.28A1,1,0,0,0,87.13,4C87.09,3.87,87.05,3.81,87,3.81Z"/><path class="cls-1" d="M97.72.71a.81.81,0,0,1,.56.16.91.91,0,0,1,.26.42,2.34,2.34,0,0,1,.1.55l.06.56V3l.27.5a1.48,1.48,0,0,1,.16.64v.42a1.3,1.3,0,0,0,.08.31c.06.16.12.35.2.55L99.6,6a1.46,1.46,0,0,1,.09.38,5.14,5.14,0,0,0,.08.85,10.6,10.6,0,0,0,.22,1,5.1,5.1,0,0,0,.31.89c.12.24.25.37.38.37a1,1,0,0,1,.38,0,.8.8,0,0,0,.23.05.69.69,0,0,1,.18,0,1.31,1.31,0,0,1,.27.06.87.87,0,0,1,.25.15.33.33,0,0,1,.1.24.5.5,0,0,1-.24.48,1.1,1.1,0,0,1-.56.13l-1.13-.05H98.47l-.48.05h-.33c-.15,0-.23-.06-.23-.14a.45.45,0,0,1,.22-.39,1.74,1.74,0,0,1,.49-.25,1.87,1.87,0,0,0,.4-.19.37.37,0,0,0,.16-.34,1.4,1.4,0,0,0,0-.25c0-.14-.06-.28-.1-.43a2.79,2.79,0,0,0-.14-.41c0-.12-.09-.18-.14-.18a3,3,0,0,1-.08-.37,2.69,2.69,0,0,0-.06-.36A.55.55,0,0,0,98,7.16a.31.31,0,0,0-.28,0H97l-.29,0-.3,0a.38.38,0,0,0-.2.08.24.24,0,0,0-.17.29A2.72,2.72,0,0,1,96,8a1.5,1.5,0,0,0-.15.26c-.07.13-.14.27-.2.41L95.52,9a1.21,1.21,0,0,0-.07.24.33.33,0,0,0,.11.28l.25.17a.79.79,0,0,1,.24.21.68.68,0,0,1,.11.45.2.2,0,0,1-.06.16.51.51,0,0,1-.16.09l-.19,0h-.14a.07.07,0,0,1,0,.07l-.09,0a.29.29,0,0,1-.16-.09h-.18a.93.93,0,0,1-.23,0l-.3,0a1.15,1.15,0,0,0-.36,0,.89.89,0,0,1-.35.05,1.3,1.3,0,0,0-.34,0,.37.37,0,0,0-.15.05l-.06,0-.06,0-.3,0-.43-.06a1.7,1.7,0,0,1-.38-.12c-.11-.05-.16-.11-.16-.17a.8.8,0,0,1,.19-.55.68.68,0,0,1,.52-.22l.32-.08.13-.06.19-.14.21-.18.18-.15a4.34,4.34,0,0,1,.36-.92c.18-.33.34-.65.49-.95a3.49,3.49,0,0,1,.26-.61l.3-.53a5.78,5.78,0,0,0,.28-.63,6.32,6.32,0,0,0,.22-.61c.07-.21.14-.42.22-.64s.17-.43.27-.66A2.38,2.38,0,0,0,96.35,3c.05-.2.09-.4.13-.61s.09-.42.15-.63a3.47,3.47,0,0,1,.25-.65l.22-.2a1.11,1.11,0,0,1,.33-.22Zm-.2,3.1a.26.26,0,0,0-.21.1.94.94,0,0,0-.16.23,1.36,1.36,0,0,0-.11.25,1.05,1.05,0,0,0,0,.18V4.8a.44.44,0,0,1,0,.13s0,.1,0,.17,0,.17-.07.32v.13c0,.07.05.14.15.2a.54.54,0,0,0,.27.09h.16l.22,0a.53.53,0,0,0,.19-.06A.18.18,0,0,0,98,5.6a.47.47,0,0,0-.12-.34A.31.31,0,0,1,97.72,5V4.28A1,1,0,0,0,97.66,4C97.62,3.87,97.58,3.81,97.52,3.81Z"/><path class="cls-1" d="M103.87,2.64a1.08,1.08,0,0,1,.09-.46,1.24,1.24,0,0,1,.25-.35,2.8,2.8,0,0,1,.37-.29l.42-.27a8.4,8.4,0,0,1,.84-.47,2,2,0,0,1,.94-.19h.62a.92.92,0,0,1,.56.23,1,1,0,0,1,.33.4,1.27,1.27,0,0,1,.1.54,1.13,1.13,0,0,1-.06.36,1.35,1.35,0,0,1-.17.34,1,1,0,0,1-.27.24.64.64,0,0,1-.35.1.44.44,0,0,1-.3-.1,1.8,1.8,0,0,1-.2-.19l-.2-.2a.45.45,0,0,0-.28-.09,3.42,3.42,0,0,0-.45,0,1.5,1.5,0,0,0-.42.15,1.05,1.05,0,0,0-.3.25.59.59,0,0,0-.12.37.31.31,0,0,0,.14.29.81.81,0,0,0,.33.12l.41.07a1.4,1.4,0,0,1,.41.13l.79.43c.22.12.47.28.75.47a1.76,1.76,0,0,0,.27.14l.23.11.23.12.27.19a4.13,4.13,0,0,1,.78.79,1.67,1.67,0,0,1,.3,1v.39a.86.86,0,0,0,.07.36,1.12,1.12,0,0,1,.07.38,1,1,0,0,1-.15.58,3.9,3.9,0,0,0-.28.51.41.41,0,0,0,0,.22.18.18,0,0,1,0,.2.43.43,0,0,1-.22.29.76.76,0,0,0-.29.23l-.28.24-.27.19a2.2,2.2,0,0,1-.28.18l-.35.19a3.09,3.09,0,0,1-.58.26c-.17.05-.36.11-.59.16a.43.43,0,0,0-.2.11.33.33,0,0,1-.22.08.78.78,0,0,1-.24,0l-.19,0a1.05,1.05,0,0,0-.39,0,1.27,1.27,0,0,1-.37.05.33.33,0,0,1-.21-.06.51.51,0,0,0-.21-.09.68.68,0,0,0-.33-.06l-.33,0a.39.39,0,0,1-.3-.11,3.13,3.13,0,0,0-.31-.23,2,2,0,0,0-.35-.14.81.81,0,0,1-.36-.23.32.32,0,0,1-.2-.26,1.12,1.12,0,0,0-.12-.35,4.28,4.28,0,0,0-.24-.45.91.91,0,0,1-.1-.5,1.15,1.15,0,0,1,.37-.85,1.26,1.26,0,0,1,.9-.37,1.31,1.31,0,0,1,.61.15.46.46,0,0,1,.29.43.28.28,0,0,1,0,.15.27.27,0,0,0,0,.12.29.29,0,0,0,.06.19.25.25,0,0,1,0,.15.23.23,0,0,1,0,.09.2.2,0,0,0,0,.1.69.69,0,0,0,.13.43,1.14,1.14,0,0,0,.35.3,1.46,1.46,0,0,0,.48.19,2.48,2.48,0,0,0,.54.06,2,2,0,0,0,1-.26,3,3,0,0,0,.81-.67,2.87,2.87,0,0,0,.34-.46,1.2,1.2,0,0,0,.13-.59.7.7,0,0,0-.1-.38.71.71,0,0,1-.1-.37.14.14,0,0,1,0-.09s0,0,0,0A.73.73,0,0,0,108,6.9a1.67,1.67,0,0,0-.37-.32l-.48-.25-.52-.25a.32.32,0,0,1-.11-.12.23.23,0,0,0-.12-.12.75.75,0,0,0-.34-.09.58.58,0,0,1-.33-.15.43.43,0,0,1-.18-.17.7.7,0,0,0-.19-.2.75.75,0,0,0-.33-.09.77.77,0,0,1-.33-.15l-.18-.2a1.4,1.4,0,0,1-.14-.22A1.09,1.09,0,0,0,104,4.3a.37.37,0,0,1-.19-.36V3.52a1.36,1.36,0,0,0,0-.2,1.5,1.5,0,0,1,0-.22.31.31,0,0,1,0-.11.36.36,0,0,0,0-.11.34.34,0,0,1,0-.15A.23.23,0,0,0,103.87,2.64Z"/><path class="cls-1" d="M121.64,0h.61a1,1,0,0,1,.43.11,1,1,0,0,1,.36.3,1.27,1.27,0,0,1,.25.42,1.37,1.37,0,0,1,.09.49.44.44,0,0,1-.13.32,1.24,1.24,0,0,1-.32.23,1.49,1.49,0,0,1-.37.14,1.1,1.1,0,0,1-.31.06,1.54,1.54,0,0,1-.63-.12c-.18-.08-.34-.17-.5-.26l-.41-.25a.71.71,0,0,0-.39-.12,1.57,1.57,0,0,0-.53.11,2.23,2.23,0,0,0-.57.3,1.92,1.92,0,0,0-.46.44.94.94,0,0,0-.18.56,1.14,1.14,0,0,0,0,.26,1.34,1.34,0,0,0,.17.31,1.28,1.28,0,0,0,.26.26.45.45,0,0,0,.31.11h.34l.25.05.44.14a2.13,2.13,0,0,1,.4.2.33.33,0,0,1,.18.27.68.68,0,0,1,0,.23,1.15,1.15,0,0,1-.12.25.74.74,0,0,1-.15.19.28.28,0,0,1-.15.08h-.66a3.9,3.9,0,0,0-.69.19,3.41,3.41,0,0,0-.6.32,1.47,1.47,0,0,0-.43.47,1.18,1.18,0,0,0-.16.63A2.09,2.09,0,0,0,118.42,8a3.72,3.72,0,0,0,1.07.94,5.08,5.08,0,0,0,1.3.55,4.63,4.63,0,0,0,1.14.18l.23,0,.31,0,.39-.08.3-.15.27-.12a.66.66,0,0,1,.28,0,.92.92,0,0,0,.54-.18,2.53,2.53,0,0,0,.5-.43c.16-.16.31-.33.45-.5s.27-.33.38-.45.41-.44.51-.56a.66.66,0,0,0,.15-.42.78.78,0,0,0-.15-.53,1.2,1.2,0,0,0-.51-.29.55.55,0,0,0-.33,0,.33.33,0,0,0-.12,0,.78.78,0,0,0-.32.1,2.57,2.57,0,0,0-.38.23,1.18,1.18,0,0,0-.31.32.66.66,0,0,0-.13.35V7a.56.56,0,0,1-.1.33,1.09,1.09,0,0,1-.24.24,1,1,0,0,1-.32.16.88.88,0,0,1-.29.06.35.35,0,0,1-.21-.07.65.65,0,0,1-.15-.18.6.6,0,0,1-.08-.21.67.67,0,0,1,0-.18,2.33,2.33,0,0,1,.3-1.18,2.91,2.91,0,0,1,.76-.88,3.35,3.35,0,0,1,1-.57,3.43,3.43,0,0,1,1.11-.2h.76a1.62,1.62,0,0,0,.59.12l.73,0h.48a1.54,1.54,0,0,0,.87-.27,8.43,8.43,0,0,0,.77-.6c.25-.22.49-.42.74-.6a1.24,1.24,0,0,1,.76-.27.38.38,0,0,1,.28.11.92.92,0,0,1,.14.28,1.92,1.92,0,0,1,.05.32c0,.11,0,.19,0,.23a1.67,1.67,0,0,1-.13.6,3,3,0,0,1-.33.68,2.57,2.57,0,0,1-.45.56.78.78,0,0,1-.51.23.26.26,0,0,1-.19-.09.39.39,0,0,1-.08-.1h-.39a1.23,1.23,0,0,1-.43.18,1,1,0,0,0-.37.14h-.4a1.64,1.64,0,0,0-.39,0A.57.57,0,0,0,128,6a.43.43,0,0,0-.13.36,2.24,2.24,0,0,1-.17.89,2.93,2.93,0,0,1-.43.75,3.87,3.87,0,0,1-1.19,1,1.12,1.12,0,0,0-.38.34c-.11.15-.23.31-.37.48A.68.68,0,0,1,125,10a2.14,2.14,0,0,1-.32,0,15.39,15.39,0,0,1-1.44.64c-.48.18-1,.35-1.43.5H120a2.05,2.05,0,0,1-.69-.28c-.34-.19-.69-.4-1.06-.64s-.71-.47-1-.69a3,3,0,0,1-.56-.48,1.87,1.87,0,0,1-.41-.72c-.08-.25-.16-.54-.25-.87V6.21a1.24,1.24,0,0,1,.17-.6,5.58,5.58,0,0,1,.39-.56,5.28,5.28,0,0,0,.39-.5.69.69,0,0,0,.18-.4.62.62,0,0,0-.08-.33,2.11,2.11,0,0,0-.16-.3l-.16-.26A.5.5,0,0,1,116.7,3a3.25,3.25,0,0,1,.14-.84,3.86,3.86,0,0,1,.43-.95,2.88,2.88,0,0,1,.7-.77,1.48,1.48,0,0,1,.94-.31h1.6a1.22,1.22,0,0,0,.33-.07.93.93,0,0,1,.33-.07h.47Z"/><path class="cls-1" d="M143.21,1.32a5.29,5.29,0,0,1,1.71.29,4.76,4.76,0,0,1,1.48.82,4,4,0,0,1,1,1.3,3.78,3.78,0,0,1,.39,1.72l-.14.81V7.38a.72.72,0,0,1-.1.32.78.78,0,0,0-.1.34c-.07.15-.13.29-.19.44s-.12.26-.18.4a3.26,3.26,0,0,1-.24.4,1.34,1.34,0,0,1-.23.3,2.94,2.94,0,0,1-.37.32,3.28,3.28,0,0,1-.43.26,1.17,1.17,0,0,1-.43.1h-.32a1.57,1.57,0,0,0-.37.05l-.36.11-.32.11-.18.05h-.46a1.5,1.5,0,0,0-.5.08,1.08,1.08,0,0,1-.36.07h-2.36l-.18.1a.71.71,0,0,1-.33.09l-.47-.19h-.47l-.46.19a.72.72,0,0,1-.31-.11,1.77,1.77,0,0,1-.32-.23h-.2a.75.75,0,0,1-.26-.05.65.65,0,0,1-.23-.13.36.36,0,0,1,0-.52,1.05,1.05,0,0,1,.27-.2l.4-.21h.48l.79-.18.26.1a1.18,1.18,0,0,0,.37.08.3.3,0,0,0,.26-.11.72.72,0,0,0,.14-.26,1.67,1.67,0,0,0,.05-.31c0-.11,0-.2,0-.27v-1a.68.68,0,0,0-.07-.2.63.63,0,0,0-.07-.12v-1a1,1,0,0,1,.07-.34,1.57,1.57,0,0,0,.07-.45V3.86a1.65,1.65,0,0,0-.16-.77.63.63,0,0,0-.64-.31.44.44,0,0,0-.17,0l-.12.05-.13,0h-.19l-.47-.13h-.32a.65.65,0,0,1-.3-.11c-.12-.08-.18-.15-.18-.22a.54.54,0,0,1,.28-.44,3.46,3.46,0,0,1,.64-.31,3.51,3.51,0,0,1,.69-.18,3.33,3.33,0,0,1,.46-.06h.28a.41.41,0,0,1,.26.09.4.4,0,0,0,.25.09l.26-.08.21-.07.19,0h1l.63-.07.46,0ZM142.41,3a1,1,0,0,0-.2.07,2.23,2.23,0,0,0-.32.19,2.26,2.26,0,0,0-.28.25.38.38,0,0,0-.13.25l.07.09a.48.48,0,0,1,.07.24V8.33a.89.89,0,0,1,.08.29,2.36,2.36,0,0,0,0,.28.85.85,0,0,0,.09.24.4.4,0,0,0,.26.14h.19l.17,0,.27,0,.28,0h.21a2.53,2.53,0,0,0,1.22-.33,2.69,2.69,0,0,0,.82-.79,3.4,3.4,0,0,0,.48-1,4.35,4.35,0,0,0,.17-1,2.56,2.56,0,0,0-.17-.9,5.78,5.78,0,0,0-.46-1,3,3,0,0,0-.56-.7c-.19-.16-.34-.19-.45-.07l-.19-.14-.16-.1a.2.2,0,0,0-.13,0h-.15Z"/><path class="cls-1" d="M152.11,1.32l.19,0,.23,0,.3,0,.46,0,.56-.14.26-.07.2-.05.15,0a.71.71,0,0,1,.3.09,1.82,1.82,0,0,1,.31.19,1.32,1.32,0,0,1,.15.52,1.79,1.79,0,0,0,.14.52,1.27,1.27,0,0,1,.12.2c0,.1.09.19.13.28s.11.25.17.37-.14.32-.42.32a.54.54,0,0,1-.3-.16,4.87,4.87,0,0,0-.53-.35,4.5,4.5,0,0,0-.76-.36,3,3,0,0,0-1.05-.16l-.32.08a1.47,1.47,0,0,1-.2.26.28.28,0,0,0-.09.17v.15a1.49,1.49,0,0,1-.07.25,1.6,1.6,0,0,0,0,.21,1.25,1.25,0,0,0,0,.15V5.08a1.13,1.13,0,0,0,.11.48.33.33,0,0,0,.32.23l.17,0,.25,0,.32-.07h.34a.54.54,0,0,0,.25-.06l.21-.15.19-.14a.32.32,0,0,1,.2-.07.19.19,0,0,1,.12.07,1,1,0,0,1,.13.15l.17.2V6.77q0,.48-.42.48a.63.63,0,0,1-.32-.08,2.5,2.5,0,0,1-.24-.16,1.8,1.8,0,0,1-.31-.15.55.55,0,0,0-.32-.09h-.61q-.42,0-.54.15a1.09,1.09,0,0,0-.12.61V8a2.42,2.42,0,0,1,.07.47,2.92,2.92,0,0,0,.06.44.81.81,0,0,0,.16.35.62.62,0,0,0,.37.19h.95a1.72,1.72,0,0,0,.52-.09,3,3,0,0,0,.56-.25l.54-.18a1.29,1.29,0,0,1,.45-.09l.13.12.1.1a.14.14,0,0,1,.05.1.3.3,0,0,1-.08.22l-.2.21a1.28,1.28,0,0,0-.34.45c-.07.15-.13.29-.2.42a1,1,0,0,1-.22.32.68.68,0,0,1-.6.1l-.18-.07a1,1,0,0,0-.22-.06,1.3,1.3,0,0,0-.31,0l-1.64.05-.58.14h-1.4l-.34.1L149,11a.35.35,0,0,1-.18-.06,1,1,0,0,1-.19-.17,1.1,1.1,0,0,1-.14-.18.29.29,0,0,1-.06-.15c0-.28.21-.42.62-.42l.27-.12a3.75,3.75,0,0,1,.43-.17.74.74,0,0,0,.48-.22,1.27,1.27,0,0,0,.13-.71.38.38,0,0,1,.06-.18c0-.06,0-.12-.06-.19a1.1,1.1,0,0,0,0-.18,1.21,1.21,0,0,0,0-.18c0-.06-.05-.14-.07-.22V6.5l.14-1.18V5a.41.41,0,0,1,0-.14.21.21,0,0,0,0-.13V2.88a.29.29,0,0,0-.17-.25.66.66,0,0,0-.26-.09h-.47a.5.5,0,0,1-.47-.27,1.39,1.39,0,0,1-.14-.63.23.23,0,0,1,.09-.18.3.3,0,0,1,.2-.09h.9l.31,0a3.89,3.89,0,0,1,.53,0Z"/><path class="cls-1" d="M173.62.8a.81.81,0,0,1,.77.32,1.35,1.35,0,0,1,.18.67.3.3,0,0,1-.07.16l-.19.2a1.74,1.74,0,0,1-.22.18.32.32,0,0,1-.18.07h-.29l-.2,0a.49.49,0,0,0-.3.12.57.57,0,0,0-.38.11.72.72,0,0,0-.2.28,1.43,1.43,0,0,0-.08.37V6a.54.54,0,0,0,0,.28c0,.07.06.13.08.19a.42.42,0,0,1,.1.2v.22l-.05.56a1.84,1.84,0,0,0,.07.47,1.13,1.13,0,0,1,.07.33l.2.47v.48a.43.43,0,0,0,.3.42,4,4,0,0,0,.64.19c.23.05.45.11.64.17s.3.18.3.35c0,.34-.16.51-.47.51h-.87a.48.48,0,0,0-.27.09l-1.4-.1h-1l-.39,0-.4,0-.24,0a1.48,1.48,0,0,1-.36,0c-.08,0-.11-.11-.11-.26a1.13,1.13,0,0,1,.13-.51.47.47,0,0,1,.48-.28h1a.26.26,0,0,0,.19-.08.4.4,0,0,0,.11-.19l0-.22a1.16,1.16,0,0,0,0-.17,1.63,1.63,0,0,0-.1-.53,1.75,1.75,0,0,1-.09-.42V6.69c0-.05,0-.12,0-.23a3,3,0,0,0-.08-.32,1.49,1.49,0,0,0-.11-.28c0-.08-.08-.12-.13-.12s-.07,0-.14.14-.16.22-.25.37l-.33.51c-.11.19-.23.37-.33.55l-.3.49c-.09.15-.16.26-.2.34a.87.87,0,0,0-.23.27,2.72,2.72,0,0,0-.16.35,2.53,2.53,0,0,0-.12.36l-.1.29a3.84,3.84,0,0,1-.27.42l-.21.29a1.44,1.44,0,0,1-.18.33.31.31,0,0,1-.19.05.25.25,0,0,1-.26-.14,4.27,4.27,0,0,0-.21-.39l-.14-1c-.08-.21-.17-.41-.27-.63s-.2-.43-.28-.65-.15-.44-.21-.65a2.31,2.31,0,0,1-.09-.61V6.21a.72.72,0,0,0-.05-.23c0-.1-.07-.21-.11-.32a1.87,1.87,0,0,0-.16-.28q-.07-.12-.15-.12s-.08.06-.14.16l-.16.35a3.31,3.31,0,0,0-.12.42,1.13,1.13,0,0,0,0,.31V7.67c-.05.29-.09.56-.14.79l-.09.6a2.9,2.9,0,0,0,0,.35.91.91,0,0,0,.17.65.83.83,0,0,0,.37.22,3.29,3.29,0,0,1,.37.1c.11,0,.17.13.17.3A.43.43,0,0,1,166,11a.55.55,0,0,1-.17.14l-.21.05h-.81l-1.61-.29h-.61a.33.33,0,0,1-.12.05.51.51,0,0,1-.22.05H162l-.15,0a.66.66,0,0,1-.2-.06l-.18-.09a.14.14,0,0,1-.08-.12.37.37,0,0,1,.13-.29,1.06,1.06,0,0,1,.29-.22,1.28,1.28,0,0,1,.31-.11l.2,0h.34l.21,0a2.09,2.09,0,0,0,.32-.05l.42-.06a1.29,1.29,0,0,0,.24-.42,6.21,6.21,0,0,0,.2-.61c.06-.21.1-.4.14-.57a2.35,2.35,0,0,0,.06-.33v-.8A.31.31,0,0,0,164.3,7a1.55,1.55,0,0,0,0-.23,2.45,2.45,0,0,0,0-.27V5.74a.83.83,0,0,1,0-.2l.06-.28c0-.1.07-.2.1-.32V4.47c0-.07,0-.14.07-.2a1.05,1.05,0,0,0,0-.19,1.5,1.5,0,0,0,0-.22V3.49a1.39,1.39,0,0,0-.05-.23l-.12-.36c-.05-.15-.1-.32-.15-.5a1.31,1.31,0,0,0-.24-.22l-.29-.2a1.2,1.2,0,0,0-.25-.16.54.54,0,0,1-.22-.23V1.41a.17.17,0,0,1,.08-.16l.2-.08a1.19,1.19,0,0,1,.29,0h.43a.76.76,0,0,0,.24,0,.23.23,0,0,0,.11-.07l.05-.07.07,0H166l.47.18c.11.3.24.66.36,1.08s.27.87.4,1.35.27.94.4,1.41.25.89.37,1.26.23.67.32.91.16.34.22.34a1.09,1.09,0,0,1,.08-.15.8.8,0,0,1,.09-.14l.11-.13a13.16,13.16,0,0,1,.69-1.8c.29-.62.54-1.21.77-1.77a1,1,0,0,1,.21-.62c.14-.18.29-.38.45-.62a1.1,1.1,0,0,0,.07-.31,2.63,2.63,0,0,1,.06-.39.93.93,0,0,1,.14-.36.51.51,0,0,1,.34-.24h.66l.24.13a2.12,2.12,0,0,0,.44,0l.39-.09Z"/><path class="cls-1" d="M179.26,1.32l.2,0,.22,0,.3,0,.47,0,.55-.14.26-.07.2-.05.15,0a.71.71,0,0,1,.3.09,1.82,1.82,0,0,1,.31.19,1.52,1.52,0,0,1,.16.52,1.52,1.52,0,0,0,.13.52.79.79,0,0,1,.12.2,2.44,2.44,0,0,0,.14.28,3,3,0,0,0,.16.37c0,.22-.14.32-.42.32a.54.54,0,0,1-.3-.16,4.87,4.87,0,0,0-.53-.35,4.5,4.5,0,0,0-.76-.36,3,3,0,0,0-1-.16l-.32.08a1.47,1.47,0,0,1-.2.26.28.28,0,0,0-.09.17v.15a1.49,1.49,0,0,1-.07.25,1.6,1.6,0,0,0-.05.21.92.92,0,0,0,0,.15V5.08a1.12,1.12,0,0,0,.1.48.34.34,0,0,0,.32.23l.17,0,.25,0,.32-.07h.34a.54.54,0,0,0,.25-.06l.21-.15.19-.14a.32.32,0,0,1,.2-.07.19.19,0,0,1,.12.07,1,1,0,0,1,.13.15l.17.2V6.77q0,.48-.42.48a.63.63,0,0,1-.32-.08,2.5,2.5,0,0,1-.24-.16,2.26,2.26,0,0,1-.31-.15.55.55,0,0,0-.32-.09h-.61q-.42,0-.54.15a1.09,1.09,0,0,0-.12.61V8a2.42,2.42,0,0,1,.07.47,2.92,2.92,0,0,0,.06.44.81.81,0,0,0,.16.35.65.65,0,0,0,.37.19h.95a1.72,1.72,0,0,0,.52-.09,3.42,3.42,0,0,0,.57-.25l.53-.18a1.29,1.29,0,0,1,.45-.09l.13.12.1.1s.06.07.06.1a.31.31,0,0,1-.09.22,1.94,1.94,0,0,1-.2.21,1.28,1.28,0,0,0-.34.45l-.19.42a1.14,1.14,0,0,1-.23.32.56.56,0,0,1-.41.13.58.58,0,0,1-.19,0,.77.77,0,0,1-.17-.07,1.41,1.41,0,0,0-.22-.06,1.45,1.45,0,0,0-.32,0l-1.64.05-.57.14H177l-.34.1-.51,0a.35.35,0,0,1-.18-.06,1,1,0,0,1-.19-.17,1.1,1.1,0,0,1-.14-.18.29.29,0,0,1-.06-.15c0-.28.21-.42.62-.42l.28-.12a3.7,3.7,0,0,1,.42-.17.72.72,0,0,0,.48-.22,1.19,1.19,0,0,0,.13-.71.38.38,0,0,1,.06-.18c0-.06,0-.12-.06-.19a1.1,1.1,0,0,0,0-.18,1.21,1.21,0,0,0-.05-.18c0-.06,0-.14-.07-.22V6.5l.14-1.18V5a.41.41,0,0,1,0-.14.21.21,0,0,0,0-.13V2.88a.29.29,0,0,0-.17-.25.63.63,0,0,0-.25-.09h-.48a.48.48,0,0,1-.46-.27,1.28,1.28,0,0,1-.15-.63.21.21,0,0,1,.1-.18.26.26,0,0,1,.19-.09h.9l.31,0a3.89,3.89,0,0,1,.53,0Z"/><path class="cls-1" d="M190.4,1a1,1,0,0,1,.63.26l.54.48a1.16,1.16,0,0,0,.42.61,2.56,2.56,0,0,1,.2.26.67.67,0,0,1,.14.32s.09.05.13.14a1.5,1.5,0,0,1,.12.34c0,.13.06.25.09.36a1.94,1.94,0,0,1,0,.22,2.13,2.13,0,0,1-.08.53q-.09.29-.21.57a5.64,5.64,0,0,1-.28.55c-.09.18-.17.32-.24.44a.52.52,0,0,1-.18.18l-.21.13a.55.55,0,0,0-.18.16.45.45,0,0,0-.07.27,1.51,1.51,0,0,0,.1.49,4.6,4.6,0,0,0,.25.61,5.18,5.18,0,0,0,.31.54.85.85,0,0,0,.27.29,1.64,1.64,0,0,1,.36.34l.34.41a3.24,3.24,0,0,0,.38.36,1,1,0,0,0,.47.21l.33.13a.94.94,0,0,1,.33.21c.07.07.11.12.11.14a.44.44,0,0,1,0,.18.38.38,0,0,1-.25.27,1.19,1.19,0,0,1-.42.11,3,3,0,0,1-.41,0l-.22,0a.53.53,0,0,0-.32-.1,1.3,1.3,0,0,1-.31,0,3.89,3.89,0,0,1-.64-.44,3.84,3.84,0,0,0-.44-.32,2.08,2.08,0,0,1-.26-.18c-.1-.09-.21-.18-.33-.3s-.24-.23-.35-.35L190.2,9a4.52,4.52,0,0,1-.35-.49c-.1-.16-.18-.31-.25-.45l-.22-.39a.91.91,0,0,0-.22-.28,1.49,1.49,0,0,1-.34-.25.46.46,0,0,0-.35-.12.36.36,0,0,0-.31.13.77.77,0,0,0-.17.29,1.35,1.35,0,0,0-.08.36c0,.12,0,.22,0,.3l.19.8v.34a.74.74,0,0,0,.26.61,3.25,3.25,0,0,0,.57.33l.57.27a.41.41,0,0,1,.26.38.24.24,0,0,1-.12.2.35.35,0,0,1-.22.08h-.61l-.95-.13h-2.11l-.33,0a4.51,4.51,0,0,1-.6-.08,3.06,3.06,0,0,1-.56-.17c-.17-.07-.26-.17-.26-.3a.19.19,0,0,1,.05-.1l.12-.1.17-.12.15,0,.21,0,.25,0h.34a.86.86,0,0,0,.57-.2.56.56,0,0,0,.23-.41V5l.13-1.22a2,2,0,0,1-.07-.41,3.25,3.25,0,0,0-.06-.45.89.89,0,0,0-.15-.38.53.53,0,0,0-.33-.22h-.66a2.31,2.31,0,0,1-.37,0,1,1,0,0,1-.35-.12A.67.67,0,0,1,184,2a.68.68,0,0,1-.1-.4s0-.07.07-.11l.16-.11a.9.9,0,0,1,.24-.12l2.86-.14h1.93l.27-.05.36-.07Zm-1.61,1.72-.15,0-.19.06a.5.5,0,0,0-.22.11A.31.31,0,0,0,188,3a.48.48,0,0,0-.11.34V4.57a.54.54,0,0,1-.06.25.35.35,0,0,0-.07.21l.07,0,0,.06a.28.28,0,0,1,0,.11.37.37,0,0,0,0,.31.73.73,0,0,0,.24.26,1.29,1.29,0,0,0,.33.17.88.88,0,0,0,.29.06l.31-.14.24-.1a.58.58,0,0,1,.2,0l.34.13a.5.5,0,0,0,.37-.17,1.52,1.52,0,0,0,.24-.41,4.59,4.59,0,0,0,.15-.44,1.77,1.77,0,0,1,.08-.28l-.1-.47a.85.85,0,0,0,0-.23.48.48,0,0,0-.16-.25c0-.06,0-.17,0-.3a.45.45,0,0,0-.16-.31A.93.93,0,0,1,190,3l-.42-.12-.46-.11A1.45,1.45,0,0,0,188.79,2.67Z"/><path class="cls-1" d="M199.54,1.17l.61.15h.34l.41.14.32.12a.67.67,0,0,1,.2.11,2.81,2.81,0,0,0,.58.23,1.1,1.1,0,0,1,.55.33,1.31,1.31,0,0,1,.28.41,1.29,1.29,0,0,0,.28.4,2.37,2.37,0,0,1,.74.94,2.37,2.37,0,0,1,.16.81l0,1.11V6.4a1.93,1.93,0,0,1-.14.56c-.1.25-.21.51-.34.78s-.25.52-.37.75-.18.38-.22.45a1.21,1.21,0,0,1-.41.58,3.19,3.19,0,0,1-.59.37l-.85.64a1.5,1.5,0,0,1-.89.29,1.75,1.75,0,0,1-.4-.05,3.37,3.37,0,0,0-.53,0h-.17l-.22,0h-.56a1.32,1.32,0,0,1-.35,0,2.23,2.23,0,0,1-.39-.13l-.48-.21c-.3-.13-.61-.28-.93-.44a1.82,1.82,0,0,1-.76-.83c-.24-.56-.45-1.15-.65-1.76a5.61,5.61,0,0,1-.3-1.76,1,1,0,0,1,0-.3c0-.09.05-.18.08-.28a1.88,1.88,0,0,1,.12-.3,2.94,2.94,0,0,0,.13-.39,1.45,1.45,0,0,1,.08-.47,3.11,3.11,0,0,1,.21-.47,1.17,1.17,0,0,1,.15-.33c.11-.18.23-.37.38-.57a4.19,4.19,0,0,1,.46-.55.66.66,0,0,1,.42-.25l.47-.18.4,0a.85.85,0,0,0,.36-.12l.36-.14a1,1,0,0,1,.34-.06h1.13Zm-1.46,1.32a.76.76,0,0,0-.57.39,5.35,5.35,0,0,0-.52.89,9.7,9.7,0,0,0-.37.95,2.46,2.46,0,0,0-.14.6V6.64a1.77,1.77,0,0,0,.29.72,7.19,7.19,0,0,0,1.68,1.82,1.6,1.6,0,0,0,.9.37h.33a1.85,1.85,0,0,0,.77-.19,2.67,2.67,0,0,0,.76-.51,2.89,2.89,0,0,0,.58-.75,1.85,1.85,0,0,0,.24-.91V5.6a1.46,1.46,0,0,0-.09-.56,2.5,2.5,0,0,0-.25-.41c-.1-.13-.22-.28-.36-.44a4.41,4.41,0,0,1-.42-.67,3,3,0,0,1-.29-.25c-.11-.1-.22-.2-.34-.29a3.87,3.87,0,0,0-.37-.24.79.79,0,0,0-.37-.1h-.32a1.89,1.89,0,0,1-.32,0,2.2,2.2,0,0,1-.37-.05Z"/><path class="cls-1" d="M208.41,1.13a1.53,1.53,0,0,1,.35,0q.12,0,.12.24a.54.54,0,0,1-.2.47,1.67,1.67,0,0,1-.46.24,3.86,3.86,0,0,0-.45.17.27.27,0,0,0-.21.25.89.89,0,0,0,.06.3c0,.12.07.22.1.33a1.17,1.17,0,0,0,.14.25c0,.07.09.1.13.1a2.19,2.19,0,0,1,.2.25,1.65,1.65,0,0,1,.15.25.48.48,0,0,1,.07.26,1.43,1.43,0,0,0,.08.27c0,.14.11.31.19.5l.26.64c.1.22.2.43.31.62a4,4,0,0,0,.31.46c.1.13.19.19.27.19s.14-.06.21-.17a2.18,2.18,0,0,0,.2-.37c.07-.16.13-.34.2-.55s.2-.31.37-.61.32-.63.48-1,.3-.68.42-1a2.2,2.2,0,0,0,.19-.74.27.27,0,0,0-.11-.25l-.21-.12a1,1,0,0,1-.23-.12.29.29,0,0,1-.11-.26.36.36,0,0,1,.1-.27.72.72,0,0,1,.24-.14,1,1,0,0,1,.28,0h1l.1,0,.08,0,.09,0,.55,0,.28,0,.22-.05a1.64,1.64,0,0,1,.37,0l.32.05.34-.05a.55.55,0,0,1,.35.12.46.46,0,0,1,.16.4.6.6,0,0,1-.07.3.43.43,0,0,1-.17.16,1.34,1.34,0,0,1-.24.09L215,2.4l-.79.16a.84.84,0,0,0-.58.45l-.08.38a1.45,1.45,0,0,0-.13.18c-.06.09-.13.19-.2.31s-.13.23-.19.36a2.4,2.4,0,0,0-.14.36l-.12.19-.11.16-.11.13c-.07.17-.15.36-.25.57a2.55,2.55,0,0,1-.36.56c-.28.67-.53,1.28-.73,1.85-.09.23-.18.48-.27.73s-.17.47-.24.68-.12.4-.16.56a1.64,1.64,0,0,0-.06.36v.48a1.35,1.35,0,0,1-.06.43c0,.12-.17.18-.41.18l-.28,0a.53.53,0,0,1-.28-.12c-.15-.07-.23-.15-.25-.24a.43.43,0,0,0-.12-.23.68.68,0,0,1-.16-.37q0-.2-.06-.33a1.39,1.39,0,0,0-.12-.28.82.82,0,0,0-.09-.32.7.7,0,0,1-.1-.29,4.24,4.24,0,0,1-.29-.62l-.23-.6c-.08-.21-.17-.42-.27-.64a3.87,3.87,0,0,0-.39-.7c0-.11-.05-.22-.09-.34s0-.18-.07-.28,0-.17-.06-.23L207,5.45a1.7,1.7,0,0,0-.17-.29l-.26-.37-.37-.46a5.55,5.55,0,0,0-.3-1.2,1.44,1.44,0,0,0-.6-.78c-.56-.29-.84-.54-.84-.76s.15-.27.47-.27h.32a2.84,2.84,0,0,0,.58-.08l.37-.11h.61l.42.09.31,0,.22,0,.18,0Z"/><path class="cls-1" d="M219.28,1.13l.17,0,.25.05.26,0,.2,0a.26.26,0,0,1,.12.07.88.88,0,0,1,.16.17,1,1,0,0,1,.13.23.53.53,0,0,1,.06.24s-.06.09-.2.12l-.46.1a2.44,2.44,0,0,0-.45.12c-.14,0-.21.1-.21.17V3.67a1.14,1.14,0,0,0,.09.26l.06.2a.41.41,0,0,1,0,.15l-.19.8a1.05,1.05,0,0,0,0,.18,1.74,1.74,0,0,0,.07.29c0,.1.05.2.06.29a1,1,0,0,1,0,.19l.15.84a2.71,2.71,0,0,1-.08.66,2.11,2.11,0,0,0-.07.43v.47a.23.23,0,0,1-.09.18c-.07.05-.1.19-.1.43a.41.41,0,0,0,.05.16,1.09,1.09,0,0,0,.13.17l.16.13a.34.34,0,0,0,.14.05l.37.1a.74.74,0,0,1,.47.71c0,.14-.09.25-.28.33a1.39,1.39,0,0,1-.56.13h-.93l-.63-.19a1.45,1.45,0,0,0-.29,0l-.39.12-.37.12L217,11a.63.63,0,0,1-.28-.11c-.12-.07-.18-.15-.18-.23a.43.43,0,0,1,.2-.33l.42-.29a2,2,0,0,0,.39-.31.44.44,0,0,0,.11-.42.45.45,0,0,1-.07-.38.5.5,0,0,0,.07-.25V4.6l-.19-.45a3.15,3.15,0,0,1,.09-.36,2,2,0,0,1,.07-.26,1,1,0,0,0,0-.2,2.44,2.44,0,0,0-.05-.53.81.81,0,0,0-.14-.31.38.38,0,0,0-.18-.11l-.21,0-.23,0a.52.52,0,0,1-.22-.07.44.44,0,0,1-.17-.22,1.13,1.13,0,0,1-.07-.47.68.68,0,0,1,0-.14.42.42,0,0,1,0-.1.11.11,0,0,1,.09-.05h.93l.16,0a.53.53,0,0,1,.18.05l.19.07.25,0,.29,0,.36-.07H219a.29.29,0,0,0,.17-.07Z"/><path class="cls-1" d="M223.76,1.17a2.18,2.18,0,0,1,.38,0,.48.48,0,0,1,.28.13.7.7,0,0,1,.28.25.8.8,0,0,0,.2.22.59.59,0,0,0,.35.42,1.26,1.26,0,0,1,.44.24,3.22,3.22,0,0,1,.4.42l.4.52.39.52a2.63,2.63,0,0,0,.37.42,4.47,4.47,0,0,1,.43.6,1.32,1.32,0,0,0,.57.52l.39.39.63.65c.23.23.46.44.67.62a1,1,0,0,0,.51.27.22.22,0,0,0,.16,0,.18.18,0,0,0,0-.13.77.77,0,0,0,0-.15.35.35,0,0,1,0-.13V5.65a.75.75,0,0,1,.1-.35,1.22,1.22,0,0,0,.09-.49V3.39l-.19-.17a2.73,2.73,0,0,1-.23-.25l-.23-.23c-.08-.07-.13-.1-.16-.1h-.33a.6.6,0,0,1-.23-.06l-.26-.14L229,2.28c-.05,0-.08-.09-.08-.11V1.64a.46.46,0,0,1,.08-.27.38.38,0,0,1,.19-.14.75.75,0,0,1,.26-.05H230l.31,0,.41.05.4.06.35,0h2.35a1.4,1.4,0,0,1,.64.15.53.53,0,0,1,.29.51,1.55,1.55,0,0,1,0,.23.88.88,0,0,1-.12.24,1.33,1.33,0,0,1-.76.22l-.7,0-.47.14h-.29c-.09,0-.17.06-.23.19a1,1,0,0,0-.09.42V6a.94.94,0,0,0,.07.3,1.27,1.27,0,0,1,.06.3v1l-.28,1.65a1.16,1.16,0,0,0,0,.27c0,.11.06.22.1.34s.07.23.1.34a1,1,0,0,1,0,.26s0,.13,0,.24a2,2,0,0,1,0,.34,1.32,1.32,0,0,1-.08.3.19.19,0,0,1-.16.12h-.56a2,2,0,0,1-.3-.06c-.08,0-.13-.05-.13-.08a2,2,0,0,1-.39-.58,1.73,1.73,0,0,0-.4-.54,3.23,3.23,0,0,0-.36-.42l-.33-.32a3,3,0,0,1-.3-.32,1.66,1.66,0,0,1-.25-.41,2.61,2.61,0,0,0-.57-.81c-.26-.26-.54-.52-.82-.78l-.85-.79a3.83,3.83,0,0,1-.67-.82.54.54,0,0,0,0-.16.85.85,0,0,0-.14-.21,1.14,1.14,0,0,0-.19-.19.4.4,0,0,0-.23-.08c-.21,0-.32.17-.32.51V7.25l.14.94a2.44,2.44,0,0,1,0,.47,1.74,1.74,0,0,0,0,.38.58.58,0,0,0,.2.48,1.37,1.37,0,0,0,.48.25,3.79,3.79,0,0,0,.62.12l.62.11a1.33,1.33,0,0,1,.48.22.47.47,0,0,1,.19.41c0,.09,0,.14-.08.16a.6.6,0,0,1-.2,0h-1.93l-1.09.15a.62.62,0,0,0-.34-.14h-.64a1,1,0,0,1-.52-.1.94.94,0,0,0-.43-.09h-.61l-.13.19h-.34a2.3,2.3,0,0,0,0-.23c0-.11,0-.21,0-.31s0-.26,0-.39a.3.3,0,0,1,.15-.24.48.48,0,0,1,.27-.1h1.64a.27.27,0,0,0,.2-.07.49.49,0,0,0,.14-.18.86.86,0,0,0,.07-.21c0-.08,0-.13,0-.16a.84.84,0,0,1-.06-.14.57.57,0,0,1-.05-.24c0-.16,0-.3,0-.41a1.63,1.63,0,0,0-.07-.28c0-.08,0-.15-.07-.21a1.4,1.4,0,0,1,0-.23c0-.08,0-.17,0-.29s0-.21.06-.3.07-.23.1-.34V5.32a2.32,2.32,0,0,0,0-.24.55.55,0,0,0-.16-.27.32.32,0,0,1,.08-.26l.1,0a1.83,1.83,0,0,0-.06-.19,2.4,2.4,0,0,1-.11-.23l-.11-.22a.73.73,0,0,1,0-.16.63.63,0,0,0-.27-.54,5.59,5.59,0,0,0-.6-.35,4.43,4.43,0,0,1-.6-.39.79.79,0,0,1-.27-.65c0-.11.09-.21.13-.3l.15-.22a.22.22,0,0,1,.19-.1Z"/><path class="cls-1" d="M241.62,1.13h.8a.77.77,0,0,1,.6.3,2.62,2.62,0,0,1,.39.67,6,6,0,0,1,.21.7c0,.22.07.35.07.4a1.22,1.22,0,0,0,0,.21.88.88,0,0,0,.05.15l.07.11a.49.49,0,0,1,0,.12.72.72,0,0,1-.12.21,1.64,1.64,0,0,1,0,.22.11.11,0,0,1-.12.11c-.05,0-.14-.06-.27-.19l-.39-.43c-.16-.19-.33-.41-.52-.65-.13-.06-.29-.14-.5-.22l-.6-.22-.73-.22a3,3,0,0,0-1.08.21,3,3,0,0,0-1,.59,3.34,3.34,0,0,0-.73,1,3.18,3.18,0,0,0-.35,1.27,2,2,0,0,1-.06.54,1.23,1.23,0,0,0-.07.44,2.36,2.36,0,0,0,0,.4,1.57,1.57,0,0,0,.11.39,5.52,5.52,0,0,0,.34.77,4.36,4.36,0,0,0,.52.75,3.07,3.07,0,0,0,.67.58,1.5,1.5,0,0,0,.79.22l.61-.2a1,1,0,0,0,.52-.18.59.59,0,0,0,.28-.51V8.28c0-.14-.05-.28-.09-.42a2,2,0,0,0-.15-.43,3.43,3.43,0,0,0-.33-.48,1.11,1.11,0,0,0-.33-.31Q240,6.55,240,6.4c0-.05,0-.08.08-.11a.48.48,0,0,1,.18-.06l.27,0h2.07l.16,0L243,6.1l.38,0,.22.08a.7.7,0,0,1,.16.1.19.19,0,0,1,.07.14,1.25,1.25,0,0,1-.08.33c-.06.15-.12.23-.19.23h-.18a.74.74,0,0,0-.59.27.8.8,0,0,0-.23.49v1a.77.77,0,0,1-.06.34.71.71,0,0,0-.07.37,2.56,2.56,0,0,1,.05.27,2.26,2.26,0,0,1,0,.27,1.1,1.1,0,0,1-.06.26.26.26,0,0,1-.08.19l-.16.15-.24.13-1.13.19h-.27l-.21,0a2,2,0,0,1-.31-.07,3,3,0,0,0-.34-.06,1.84,1.84,0,0,0-.33,0h-.45l-.24,0a1.42,1.42,0,0,1-.29-.1,2.36,2.36,0,0,0-.51-.12l-.39,0a.34.34,0,0,0-.16-.11l-.23-.09a.9.9,0,0,1-.24-.12.35.35,0,0,1-.16-.18,1,1,0,0,1-.35-.35,5.94,5.94,0,0,1-.41-.67,6.4,6.4,0,0,1-.36-.75,1.86,1.86,0,0,1-.15-.64V7.19a.82.82,0,0,0-.09-.33.71.71,0,0,1-.1-.33V5.42l.19-.51c0-.14.09-.27.13-.42a1.28,1.28,0,0,0,.06-.34l.13-.29a1.48,1.48,0,0,1,.29-.8,5,5,0,0,1,.68-.79,4.59,4.59,0,0,1,.83-.62,1.62,1.62,0,0,1,.74-.24l.25,0,.21,0,.17,0h.18l.37,0,.21-.07.24-.07a2.49,2.49,0,0,1,.45,0h1.27Z"/><path class="cls-1" d="M248,1.32l.19,0,.22,0,.31,0,.46,0,.56-.14L250,1.2l.21-.05.15,0a.71.71,0,0,1,.3.09,2.32,2.32,0,0,1,.31.19,1.32,1.32,0,0,1,.15.52,1.52,1.52,0,0,0,.14.52,1.27,1.27,0,0,1,.12.2c0,.1.09.19.13.28a3,3,0,0,0,.17.37c0,.22-.14.32-.42.32a.6.6,0,0,1-.31-.16,4.63,4.63,0,0,0-.52-.35,4.9,4.9,0,0,0-.76-.36,3.05,3.05,0,0,0-1.05-.16l-.32.08a2.17,2.17,0,0,1-.2.26.28.28,0,0,0-.09.17v.15c0,.09-.05.18-.07.25a1.6,1.6,0,0,0,0,.21,1.25,1.25,0,0,0,0,.15V5.08a1.29,1.29,0,0,0,.1.48.35.35,0,0,0,.33.23l.16,0,.26,0,.32-.07h.34a.48.48,0,0,0,.24-.06l.22-.15L250,5.3a.31.31,0,0,1,.2-.07.16.16,0,0,1,.11.07,1,1,0,0,1,.14.15l.17.2V6.77q0,.48-.42.48a.67.67,0,0,1-.33-.08,1.52,1.52,0,0,1-.23-.16,2.44,2.44,0,0,1-.32-.15.52.52,0,0,0-.31-.09h-.61q-.42,0-.54.15a1.09,1.09,0,0,0-.12.61V8a3.54,3.54,0,0,1,.07.47,2.92,2.92,0,0,0,.06.44.81.81,0,0,0,.16.35.62.62,0,0,0,.37.19h1a1.72,1.72,0,0,0,.52-.09,3,3,0,0,0,.56-.25l.53-.18a1.38,1.38,0,0,1,.45-.09l.14.12.1.1a.19.19,0,0,1,.05.1.35.35,0,0,1-.08.22,2.08,2.08,0,0,1-.21.21,1.41,1.41,0,0,0-.34.45c-.06.15-.13.29-.19.42a1,1,0,0,1-.23.32.54.54,0,0,1-.4.13.58.58,0,0,1-.19,0,.67.67,0,0,1-.18-.07,1,1,0,0,0-.22-.06,1.35,1.35,0,0,0-.31,0l-1.64.05-.58.14h-1.4l-.34.1-.51,0a.38.38,0,0,1-.19-.06,1,1,0,0,1-.18-.17,1.19,1.19,0,0,1-.15-.18.29.29,0,0,1-.06-.15q0-.42.63-.42l.27-.12c.17-.08.31-.13.42-.17a.77.77,0,0,0,.49-.22,1.3,1.3,0,0,0,.12-.71.38.38,0,0,1,.06-.18c0-.06,0-.12-.06-.19a1.09,1.09,0,0,0,0-.18c0-.06,0-.12,0-.18a1.14,1.14,0,0,1-.07-.22V6.5l.13-1.18V5a.24.24,0,0,1,0-.14s0-.07,0-.13V2.88a.27.27,0,0,0-.17-.25.58.58,0,0,0-.25-.09h-.47a.49.49,0,0,1-.47-.27,1.39,1.39,0,0,1-.14-.63.23.23,0,0,1,.09-.18.28.28,0,0,1,.2-.09H246l.32,0a3.79,3.79,0,0,1,.53,0Z"/><path class="cls-1" d="M255.06,1.17a2,2,0,0,1,.37,0,.48.48,0,0,1,.29.13.7.7,0,0,1,.28.25.8.8,0,0,0,.2.22.59.59,0,0,0,.35.42,1.26,1.26,0,0,1,.44.24,3.22,3.22,0,0,1,.4.42l.4.52.39.52a2.22,2.22,0,0,0,.37.42,4.47,4.47,0,0,1,.43.6,1.32,1.32,0,0,0,.57.52l.39.39.63.65c.23.23.46.44.67.62a.93.93,0,0,0,.51.27.22.22,0,0,0,.16,0,.18.18,0,0,0,0-.13.77.77,0,0,0,0-.15.35.35,0,0,1,0-.13V5.65A.86.86,0,0,1,262,5.3a1.07,1.07,0,0,0,.1-.49V3.39l-.19-.17L261.66,3l-.22-.23c-.08-.07-.13-.1-.17-.1H261a.6.6,0,0,1-.23-.06l-.26-.14-.19-.16s-.08-.09-.08-.11V1.64a.46.46,0,0,1,.08-.27.38.38,0,0,1,.19-.14.75.75,0,0,1,.26-.05h.55l.32,0,.4.05.41.06.35,0h2.35a1.4,1.4,0,0,1,.64.15A.53.53,0,0,1,266,2a.79.79,0,0,1,0,.23.79.79,0,0,1-.11.24,1.33,1.33,0,0,1-.76.22l-.7,0-.47.14h-.29c-.09,0-.17.06-.23.19a1,1,0,0,0-.09.42V6a1.19,1.19,0,0,0,.06.3,1,1,0,0,1,.07.3v1l-.29,1.65a1.31,1.31,0,0,0,.05.27c0,.11.06.22.1.34s.07.23.1.34a1,1,0,0,1,0,.26s0,.13,0,.24a2,2,0,0,1,0,.34,1.32,1.32,0,0,1-.08.3.19.19,0,0,1-.17.12h-.55a1.76,1.76,0,0,1-.3-.06c-.09,0-.13-.05-.13-.08a1.85,1.85,0,0,1-.39-.58,1.9,1.9,0,0,0-.4-.54,4.25,4.25,0,0,0-.36-.42l-.33-.32a3,3,0,0,1-.3-.32,1.66,1.66,0,0,1-.25-.41,2.61,2.61,0,0,0-.57-.81c-.26-.26-.54-.52-.83-.78s-.57-.52-.84-.79a3.83,3.83,0,0,1-.67-.82.54.54,0,0,0,0-.16.85.85,0,0,0-.14-.21,1.14,1.14,0,0,0-.19-.19.4.4,0,0,0-.23-.08c-.21,0-.32.17-.32.51V7.25l.13.94a2.71,2.71,0,0,1,0,.47,1.74,1.74,0,0,0,0,.38.58.58,0,0,0,.2.48,1.37,1.37,0,0,0,.48.25,3.79,3.79,0,0,0,.62.12l.62.11a1.33,1.33,0,0,1,.48.22.47.47,0,0,1,.19.41c0,.09,0,.14-.08.16a.64.64,0,0,1-.2,0h-1.93l-1.09.15a.62.62,0,0,0-.34-.14h-.64a1,1,0,0,1-.52-.1.94.94,0,0,0-.43-.09h-.61l-.13.19h-.34a2.3,2.3,0,0,0,0-.23c0-.11,0-.21,0-.31s0-.26,0-.39a.3.3,0,0,1,.15-.24.48.48,0,0,1,.27-.1h1.64a.27.27,0,0,0,.2-.07.62.62,0,0,0,.14-.18.86.86,0,0,0,.07-.21,1.18,1.18,0,0,0,0-.16.78.78,0,0,1,0-.14.57.57,0,0,1-.05-.24c0-.16,0-.3,0-.41a1.63,1.63,0,0,0-.07-.28c0-.08-.05-.15-.07-.21a.79.79,0,0,1,0-.23,1.62,1.62,0,0,1,0-.29q0-.16.06-.3l.1-.34V5.32a2.32,2.32,0,0,0,0-.24.55.55,0,0,0-.16-.27c0-.14,0-.22.08-.26a.19.19,0,0,1,.1,0,.93.93,0,0,0-.07-.19,2.4,2.4,0,0,0-.11-.23l-.1-.22a.41.41,0,0,1,0-.16.63.63,0,0,0-.27-.54,5.59,5.59,0,0,0-.6-.35,4.43,4.43,0,0,1-.6-.39.79.79,0,0,1-.27-.65c0-.11.09-.21.13-.3l.15-.22a.22.22,0,0,1,.19-.1Z"/></svg>