<svg id="Laag_1" data-name="Laag 1" xmlns="http://www.w3.org/2000/svg" xmlns:xlink="http://www.w3.org/1999/xlink" viewBox="0 0 500 500"><defs><style>.cls-1{fill:url(#radial-gradient);}.cls-2{fill:#fff;}</style><radialGradient id="radial-gradient" cx="144.98" cy="538.66" r="661.45" gradientTransform="translate(1.24)" gradientUnits="userSpaceOnUse"><stop offset="0.1" stop-color="#ffd879"/><stop offset="0.15" stop-color="#fccb76"/><stop offset="0.26" stop-color="#f5aa6c"/><stop offset="0.4" stop-color="#e9755e"/><stop offset="0.45" stop-color="#e45f58"/><stop offset="0.68" stop-color="#d22a9c"/><stop offset="1" stop-color="#6968df"/></radialGradient></defs><title>Social Icon</title><path class="cls-1" d="M500,397.48A102.63,102.63,0,0,1,397.3,500H102.7A102.62,102.62,0,0,1,0,397.48V103.39A102.62,102.62,0,0,1,102.7.84H397.3A102.64,102.64,0,0,1,500,103.39Z"/><path class="cls-2" d="M322.36,62.2H177.64a116.09,116.09,0,0,0-116.19,116V322.66a116.09,116.09,0,0,0,116.19,116H322.36a116.08,116.08,0,0,0,116.18-116V178.2A116.08,116.08,0,0,0,322.36,62.2Zm80,246.6a93.79,93.79,0,0,1-93.87,93.71h-117A93.79,93.79,0,0,1,97.64,308.8V192a93.81,93.81,0,0,1,93.89-93.72h117A93.82,93.82,0,0,1,402.35,192Z"/><path class="cls-2" d="M255.06,151.93a99.15,99.15,0,1,0,99.32,99.15A99.23,99.23,0,0,0,255.06,151.93Zm0,158.8a59.66,59.66,0,1,1,59.75-59.65A59.71,59.71,0,0,1,255.06,310.73Z"/><path class="cls-2" d="M372.76,150.38a25.26,25.26,0,1,1-25.26-25.23A25.25,25.25,0,0,1,372.76,150.38Z"/></svg>