<svg id="Layer_1" data-name="Layer 1" xmlns="http://www.w3.org/2000/svg" viewBox="0 0 198.5 44.77"><defs><style>.cls-1{fill:#ed2024;}</style></defs><path class="cls-1" d="M66.06,31.39c3.82,0,6-1.94,6-4.93a4.39,4.39,0,0,0-3.48-4.37A4.11,4.11,0,0,0,71.66,18c0-2.87-2.19-4.7-5.89-4.7H57.61V31.39ZM62,16.8h2.89c1.45,0,2.25.67,2.25,1.91s-.8,1.88-2.25,1.88H62Zm0,7h3.2c1.47,0,2.38.75,2.38,2s-.86,2-2.33,2H62Z"/><path class="cls-1" d="M80.08,31.6a5.1,5.1,0,0,0,4.47-2.25v2H89V17H84.55v2a5,5,0,0,0-4.44-2.25c-3.54,0-6.36,2.84-6.36,7.39S76.57,31.6,80.08,31.6Zm1.32-11c1.68,0,3.15,1.27,3.15,3.56s-1.47,3.57-3.15,3.57-3.15-1.29-3.15-3.59A3.2,3.2,0,0,1,81.4,20.62Z"/><path class="cls-1" d="M98,28.34a2,2,0,0,1-2.22-1.68H91.39c.21,2.79,2.79,4.94,6.64,4.94,3.62,0,5.84-1.89,5.84-4.39-.08-5.38-7.88-3.75-7.88-6.05,0-.7.57-1.11,1.6-1.11a1.91,1.91,0,0,1,2.12,1.63h4.08c-.28-2.84-2.35-4.91-6.07-4.91s-5.86,2-5.86,4.47c0,5.3,7.85,3.62,7.85,5.94C99.71,27.83,99.12,28.34,98,28.34Z"/><polygon class="cls-1" points="116.47 23.93 123.34 23.93 123.34 31.39 127.76 31.39 127.76 13.26 123.34 13.26 123.34 20.36 116.47 20.36 116.47 13.26 112.06 13.26 112.06 31.39 116.47 31.39 116.47 23.93"/><path class="cls-1" d="M137.34,31.6a6.74,6.74,0,0,0,6.85-5h-4.7a2.35,2.35,0,0,1-2.3,1.4,2.67,2.67,0,0,1-2.74-2.77h10a11.4,11.4,0,0,0,.07-1.29,6.79,6.79,0,0,0-7.18-7.18c-4.29,0-7.28,2.84-7.28,7.41S133.11,31.6,137.34,31.6Zm-.05-11.29A2.49,2.49,0,0,1,140,22.79h-5.53A2.74,2.74,0,0,1,137.29,20.31Z"/><path class="cls-1" d="M149.07,18.05a2.4,2.4,0,1,0-2.64-2.38A2.43,2.43,0,0,0,149.07,18.05Z"/><rect class="cls-1" x="146.85" y="19.55" width="4.42" height="11.84"/><rect class="cls-1" x="154.47" y="13.27" width="4.42" height="18.12"/><path class="cls-1" d="M0,0V44.77H198.5V0ZM35.15,31.35H31.62v-7.5H21V20.51h.21A2,2,0,0,0,22.36,20a1.77,1.77,0,0,0,.58-1.45,1.82,1.82,0,0,0-.58-1.47,2.21,2.21,0,0,0-1.53-.5H16.9V19h0v5.47h0V28H27.49v3.35H13.54V13.27h7.37a5.08,5.08,0,0,1,3.8,1.13A4.74,4.74,0,0,1,26.48,18a4.15,4.15,0,0,1-1.17,2.5h6.31V13.27h3.53Zm159,9.12H48.66V4.3H194.2Z"/><polygon class="cls-1" points="185.05 13.17 180.48 13.17 167.81 31.5 172.39 31.5 185.05 13.17"/></svg>