<svg xmlns="http://www.w3.org/2000/svg" xmlns:xlink="http://www.w3.org/1999/xlink" viewBox="0 0 500 500"><defs><style>.cls-1{fill:none;}.cls-2{isolation:isolate;}.cls-3{fill:url(#Naamloos_verloop_8);}.cls-4{fill:#010101;}.cls-5{clip-path:url(#clip-path);}.cls-6{opacity:0.42;}.cls-7{fill:#fff;}.cls-8{opacity:0.65;mix-blend-mode:multiply;fill:url(#Motivo_nuevo_2);}</style><radialGradient id="Naamloos_verloop_8" cx="251.1" cy="611.81" r="672.27" gradientTransform="translate(2.27)" gradientUnits="userSpaceOnUse"><stop offset="0" stop-color="#e6e6e6"/><stop offset="0.3" stop-color="#ccc"/><stop offset="1" stop-color="#f2f2f2"/></radialGradient><clipPath id="clip-path"><path class="cls-1" d="M500-123A102.6,102.6,0,0,1,397.31-20.43H102.71A102.61,102.61,0,0,1,0-123V-417A102.62,102.62,0,0,1,102.71-519.57h294.6A102.61,102.61,0,0,1,500-417Z"/></clipPath><pattern id="Motivo_nuevo_2" data-name="Motivo nuevo 2" width="490.25" height="490.25" patternTransform="translate(3242.57 393.13) rotate(-90) scale(1.22 0.73)" patternUnits="userSpaceOnUse" viewBox="0 0 490.25 490.25"><rect class="cls-1" width="490.25" height="490.25"/><path d="M180.66,0a10.52,10.52,0,0,1,.88,1.56c.16.41.23,1.25.09,1.31a5.54,5.54,0,0,1-2.15.46,1.32,1.32,0,0,1-.87-.92A13,13,0,0,1,178.7,0Z"/><path d="M490.25,387.54c-.34-.13-.81-.16-1-.41a8.56,8.56,0,0,1-.68-1.64l1.65-.4Z"/><path d="M0,384.85c.85-.12,1.33.22,1.28,1.1s-.34,1.33-1.28,1.1Z"/><path d="M122.81,326.87c.86.5,1.72,1,2.57,1.51a.61.61,0,0,1,.23.42,28,28,0,0,1,.14,2.89c0,1-1.82,2.1-2.86,1.89-1.75-.34-2.34-1.19-2.09-2.92a2,2,0,0,0-.15-.78c-.14-.57-.6-1.34-.38-1.66a4.35,4.35,0,0,1,1.74-1,1.49,1.49,0,0,1,.6,0C122.68,327.07,122.74,327,122.81,326.87Z"/><path d="M167.35,227.32c-1-.63-1.72-1.08-2.43-1.61-.35-.25-.54-.73-.89-1a1.37,1.37,0,0,1-.35-2.12,2.75,2.75,0,0,1,2-.37,3,3,0,0,1,1.75.93,9,9,0,0,1,1.56,2.76C169.11,226.16,168.06,226.75,167.35,227.32Z"/><path d="M410.51,467.64c1.12,0,2.19,0,2.25,1.56,0,.17.28.37.48.49,1,.63,1.1,1.12.43,2.15a1.55,1.55,0,0,1-2.16.33,31.76,31.76,0,0,1-2.58-2.73c-.27-.32-.54-1-.39-1.24s.8-.41,1.24-.55A2.55,2.55,0,0,1,410.51,467.64Z"/><path d="M27.67,403.09c.29-.69.41-1.74.91-2,1.08-.51,1.63.48,2.1,1.32a3.82,3.82,0,0,0,.59.62.94.94,0,0,1-.07,1.56,1.86,1.86,0,0,0-.52.48c-.27.49-.2,1.41-1.13,1s-1.79-.71-1.63-2a7.81,7.81,0,0,0,0-1Z"/><path d="M104.57,297.66c1.42-.17,2.06.93,2.74,1.69a1.39,1.39,0,0,1-1.08,2.21c-1.15.06-2.5.36-2.56-1.5a.32.32,0,0,0-.1-.22c-.49-.43-1.15-.93-.6-1.59C103.29,297.87,104,297.84,104.57,297.66Z"/><path d="M424,246a1.68,1.68,0,0,1,2.81.68c.5,1.14-.79,1.34-1.21,2-.11.17-.92.16-1.14-.05a15.67,15.67,0,0,1-1.87-2.19c-.11-.15,0-.5.07-.76Z"/><path d="M276.11,159.12a6.11,6.11,0,0,1-1.52,1.55c-.68.37-1-.37-1-1,0-.76.08-1.54-.81-2-.15-.08-.22-.67-.09-.88a1.25,1.25,0,0,1,.84-.52C274.5,156.21,276.08,157.69,276.11,159.12Z"/><path d="M40.78,49.52c1,.76,2,1.38,2.85,2.12.16.13,0,1-.15,1a4.45,4.45,0,0,1-1.85,0,5.22,5.22,0,0,1-1.77-.83c-.33-.24-.76-.92-.66-1.06A9,9,0,0,1,40.78,49.52Z"/><path d="M80.26,60c.48.42,1.31.8,1.36,1.27.11,1-.94,1.76-1.91,1.73s-1.3-.67-1.27-1.55C78.48,60.44,79.16,60.23,80.26,60Z"/><path d="M211.65,109.65a3.78,3.78,0,0,1,3.33-.75c.31.09.57.81.57,1.24,0,.25-.61.76-.87.71a29.2,29.2,0,0,1-3-.83C211.66,109.9,211.66,109.77,211.65,109.65Z"/><path d="M262.65,251.94a12.14,12.14,0,0,1,1.29,1.22,17.12,17.12,0,0,1-1.59,1.82l-1.46-1.74Z"/><path d="M115.78,381.29c.6.62,1.19.95,1.3,1.4a1.67,1.67,0,0,1-1.39,1.72,1.32,1.32,0,0,1-1.23-1.64C114.5,382.32,115.17,381.94,115.78,381.29Z"/><path d="M6.3,4.35a3.84,3.84,0,0,1,.75-1.46c.24-.21,1.07,0,1.46.29.57.39,1.3.94.81,1.79-.15.24-.84.32-1.23.23A9.35,9.35,0,0,1,6.3,4.35Z"/><path d="M253.24,248.29c.33,0,.72-.12,1,0s.77.57.77.86a1.22,1.22,0,0,1-.78.85,3.45,3.45,0,0,1-1.69,0c-.42-.11-1-.48-1.08-.83-.17-.72.44-.94,1.08-1h.73Z"/><path d="M246.36,141.66c-.35.39-.63,1-1.06,1.12-.82.22-1.08-.48-1.17-1.17a1.46,1.46,0,0,1,0-.83,11.63,11.63,0,0,1,1-1.37c.32.44.66.86.93,1.32a1.85,1.85,0,0,1,.11.72Z"/><path d="M49.4,59c0,.71-2.19,2.2-2.75,1.92-.2-.11-.51-.43-.49-.47a9.36,9.36,0,0,1,1.55-2.05c.26-.22,1,.13,1.52.26C49.33,58.7,49.37,58.94,49.4,59Z"/><path d="M49.86,63.8c-.15,1.08-.22,1.82-.37,2.55a.63.63,0,0,1-.55.31c-.16,0-.32-.29-.41-.49A10.22,10.22,0,0,1,48,64.75a3.15,3.15,0,0,1-.2-1.46c.06-.21.82-.47,1.12-.35C49.34,63.12,49.66,63.62,49.86,63.8Z"/><path d="M164.09,230c-.17.14-.75.74-.83.68a19.83,19.83,0,0,1-1.84-1.72c.4-.29.79-.79,1.22-.83C163.62,228,164.12,228.6,164.09,230Z"/><path d="M136,94.4c-1.22,0-2-.79-1.88-1.68.05-.34.46-.63.71-.94.64.59,1.3,1.16,1.88,1.8A6.42,6.42,0,0,1,136,94.4Z"/><path d="M285.33,294.61a25.29,25.29,0,0,1,2,1.86c.11.12-.11.8-.33.89a1.43,1.43,0,0,1-1.08-.12,4.44,4.44,0,0,1-1.06-.88c-.23-.23-.59-.61-.53-.81S284.87,295,285.33,294.61Z"/><path d="M18.76,7.07c-.09,2.19-.92,2.9-2.26,2.28-.65-.29-.95-.88-.32-1.29A13.1,13.1,0,0,1,18.76,7.07Z"/><path d="M408.54,475.73c-1.06-.22-1.64-.61-1.51-1.46.08-.44.57-.81.87-1.21l1.73,1.53Z"/><path d="M397.07,279.62c.17.18.65.46.79.86s-1.05,1.58-1.89,1.56a1,1,0,0,1-.76-.64C395.08,280.69,396.05,279.66,397.07,279.62Z"/><path d="M115.83,263.47a15,15,0,0,1,1.39,1.7,1.47,1.47,0,0,1,0,1.13,1,1,0,0,1-.92.08,4.57,4.57,0,0,1-1.13-1.51c-.15-.36.09-.88.16-1.32Z"/><path d="M459.27,356.6l-1.75-1.44c.36-.32.72-.89,1.08-.89.66,0,1.62,0,1.62,1C460.22,355.64,459.72,356,459.27,356.6Z"/><path d="M117.32,204.31c.56.63,1.16,1,1.21,1.4.08.88-.69.93-1.36.93s-1.34-.21-1.17-1C116.09,205.23,116.7,204.91,117.32,204.31Z"/><path d="M203.85,112.71a20,20,0,0,1,1.58,2,3.4,3.4,0,0,1-.94.83,5.91,5.91,0,0,1-1.37-1.45C203,113.89,203.45,113.41,203.85,112.71Z"/><path d="M385.13,158.6l-1.5,1.31c-.31-.43-.85-.85-.87-1.31s.54-.79.84-1.19Z"/><path d="M383.8,188.8l-1-1.28c.39-.31.78-.88,1.15-.86s.8.58,1.19.9Z"/><path d="M381.86,338.62l-1.3,1.21c-.29-.41-.8-.83-.8-1.24s.53-.8.82-1.2Z"/><path d="M287.8,180.87l-1.21,1.19c-.29-.4-.78-.79-.8-1.22s.49-.74.76-1.12Z"/><path d="M362.64,138.23l-1.28,1.11a4.94,4.94,0,0,1-.81-1.39c-.05-.2.62-.81.87-.76S362.11,137.75,362.64,138.23Z"/><path d="M73.53,390.5c-.55.45-.94,1-1.24,1s-.9-.67-.86-1,.58-.8.9-1.19Z"/><path d="M361.34,21l-1.29-1.29c.36-.3.75-.87,1.08-.84s.85.53,1.07.94C362.28,20,361.76,20.45,361.34,21Z"/><path d="M123.26,299.88c-.48-.52-.79-.86-1.11-1.19.39-.28.77-.77,1.15-.76s.76.5,1.14.78Z"/><path d="M222.62,75.55c-.48-.56-.78-.92-1.09-1.27.42-.29.82-.77,1.25-.8s.9.58.89.89S223.11,75,222.62,75.55Z"/><path d="M177.56,97.76l-.92-1.25c.42-.28.84-.77,1.26-.77s.7.56,1,.88Z"/><path d="M111.82,365.71c-.45-.62-.92-1-.92-1.35a1.18,1.18,0,0,1,.9-.78c.4,0,.76.51,1.13.8Z"/><path d="M226.35,166.39l-1.45,1.74c-.27-.23-.77-.46-.78-.71-.07-1.34,1.21-.92,1.83-1.39Z"/><path d="M337.27,7.76c-.4-.55-.9-1-.84-1.21a1.27,1.27,0,0,1,1-.75c.4,0,.76.52,1.13.81Z"/><path d="M368.74,250.22c-.61.52-.94,1-1.31,1s-.85-.59-.82-.88a1.43,1.43,0,0,1,.84-1C367.69,249.3,368.12,249.8,368.74,250.22Z"/><path d="M224,17l-1.15,1.17c-.27-.35-.75-.71-.73-1s.48-.75.74-1.13Z"/><path d="M230.19,455.06c.22.41.63.82.62,1.22s-.53.63-.83,1c-.29-.3-.81-.6-.83-.92s.35-.83.56-1.24Z"/><path d="M482,195.34c-.6.51-.92,1-1.3,1s-.61-.52-.92-.81a4.86,4.86,0,0,1,1.08-.87C481,194.63,481.4,195,482,195.34Z"/><path d="M210.06,380.6c-.67.4-1.08.84-1.37.77a.89.89,0,0,1,.11-1.77C209.11,379.58,209.45,380.08,210.06,380.6Z"/><path d="M255,84.4c-.23-.35-.65-.72-.62-1.05s.51-.64.79-1c.31.31.8.59.85.93s-.36.72-.57,1.08Z"/><path d="M225.82,244.44c-.44-.67-.9-1.06-.85-1.35a1.22,1.22,0,0,1,.91-.81c.3,0,.8.51.84.85S226.29,243.8,225.82,244.44Z"/><path d="M240,53.39c-.38-.69-.76-1.07-.72-1.41s.54-.53.84-.79c.28.32.73.61.78,1S240.46,52.77,240,53.39Z"/><path d="M468.53,264c.42.67.83,1,.81,1.37s-.58.83-.78.77a1.39,1.39,0,0,1-.86-.86C467.64,265,468.09,264.66,468.53,264Z"/><path d="M193.82,241.17c-.63.37-1,.76-1.29.71s-.57-.52-.85-.8c.32-.28.61-.73,1-.79S193.25,240.72,193.82,241.17Z"/><path d="M422.33,265.48c-.7.35-1.09.72-1.43.67s-.77-.66-.7-.85a1.36,1.36,0,0,1,.93-.76C421.4,264.5,421.73,265,422.33,265.48Z"/><path d="M197.62,129.07c-.35.23-.7.63-1,.62a1.12,1.12,0,0,1-.78-.78,1.15,1.15,0,0,1,.72-.86c.34,0,.73.35,1.09.56C197.62,128.76,197.62,128.92,197.62,129.07Z"/><path d="M146.33,335.14c-.6.39-1,.83-1.24.77s-.62-.55-.92-.85c.33-.28.62-.72,1-.78S145.76,334.7,146.33,335.14Z"/><path d="M109.7,302.93c-.35.23-.7.64-1,.63a.81.81,0,0,1-.08-1.62c.34,0,.74.32,1.11.51C109.68,302.61,109.69,302.77,109.7,302.93Z"/><path d="M202,373.61c-.68.38-1.09.78-1.35.7a1.34,1.34,0,0,1-.77-.93c0-.2.55-.72.84-.7S201.35,373.13,202,373.61Z"/><path d="M247.48,376.6c-.69.39-1.07.78-1.42.75s-.79-.61-.73-.82a1.36,1.36,0,0,1,.9-.8C246.49,375.68,246.84,376.13,247.48,376.6Z"/><path d="M372.83,379.5c-.69.46-1,.86-1.39.86s-.54-.52-.81-.8c.31-.29.59-.71.95-.81S372.18,379.09,372.83,379.5Z"/><path d="M36.12,385.64c-.59.41-1,.85-1.23.79s-.63-.52-1-.81c.32-.28.62-.72,1-.78S35.54,385.23,36.12,385.64Z"/><path d="M289.61,456.64c-.42-.57-.87-.93-.82-1.19s.52-.64.8-1c.29.31.75.59.82.95S290,456.06,289.61,456.64Z"/><path d="M318.21,145.16c-.68.38-1.09.79-1.34.71s-.57-.59-.85-.92c.3-.26.61-.73.91-.72S317.59,144.68,318.21,145.16Z"/><path d="M154.15,146.82c.41.58.85.94.8,1.2s-.52.63-.81.94c-.29-.31-.74-.59-.81-1S153.73,147.4,154.15,146.82Z"/><path d="M48,170.65c-.4-.69-.79-1.07-.76-1.4s.53-.55.82-.82c.29.32.73.6.8,1S48.42,170,48,170.65Z"/><path d="M114.64,268.1c.44.61.86.94.87,1.29s-.5.55-.79.82c-.28-.32-.68-.6-.81-1C113.85,269,114.25,268.68,114.64,268.1Z"/><path d="M412.85,137.21c-.38-.62-.8-1-.73-1.26s.59-.57.91-.84c.24.3.67.61.68.92S413.29,136.64,412.85,137.21Z"/><path d="M423.05,342.48c-.44-.66-.86-1-.84-1.35s.5-.57.78-.86c.3.3.76.57.85.92S423.47,341.82,423.05,342.48Z"/><path d="M140,404.09c-.36.2-.74.58-1.08.55a.82.82,0,0,1,0-1.63c.34,0,.71.38,1.06.6C140,403.77,140,403.93,140,404.09Z"/><path d="M363.41,451.5c-.35.24-.69.66-1,.66a.82.82,0,0,1-.1-1.63c.34,0,.74.32,1.11.51Z"/><path d="M482,185.6c-.68.38-1.1.78-1.35.7s-.56-.6-.84-.92c.31-.26.62-.73.92-.72S481.34,185.12,482,185.6Z"/><path d="M484.62,281.76c-.37-.61-.76-1-.72-1.26s.5-.56.78-.84c.29.31.74.58.81.93S485.06,281.19,484.62,281.76Z"/><path d="M284.54,307c-.41-.59-.86-1-.79-1.21s.55-.6.86-.89c.26.3.7.57.73.88S285,306.44,284.54,307Z"/><path d="M246.14,57.36l1.52,1.8c-.17.12-.45.39-.5.36a17.16,17.16,0,0,1-1.54-1.41A4.82,4.82,0,0,1,246.14,57.36Z"/><path d="M73.5,49.38c-.31.13-.67.43-.93.37s-.63-.47-.93-.72c.27-.24.55-.68.8-.66s.74.38,1.11.6C73.53,49.11,73.51,49.24,73.5,49.38Z"/><path d="M345.29,236.8c.37.64.76,1,.7,1.3a1.12,1.12,0,0,1-.84.73,1.14,1.14,0,0,1-.73-.84C344.4,237.7,344.84,237.38,345.29,236.8Z"/><path d="M83.48,73.05c.37.62.8,1,.72,1.25s-.59.56-.92.83c-.24-.3-.66-.61-.67-.92S83,73.61,83.48,73.05Z"/><path d="M476.86,210.86c-.67.38-1.07.77-1.33.7a1.19,1.19,0,0,1-.68-.9c0-.2.5-.67.76-.66S476.24,210.41,476.86,210.86Z"/><path d="M214.05,102.66c-.64.38-1,.78-1.29.72s-.77-.54-.75-.81a1.13,1.13,0,0,1,.82-.76C213.12,101.78,213.45,102.21,214.05,102.66Z"/><path d="M53.06,475.86c-.4-.66-.81-1-.76-1.3a1.21,1.21,0,0,1,.85-.74c.19,0,.69.47.69.74S53.48,475.21,53.06,475.86Z"/><path d="M293.91,326c-.66.42-1,.82-1.3.77a1.18,1.18,0,0,1-.73-.84c0-.19.46-.68.73-.69S293.25,325.58,293.91,326Z"/><path d="M41.65,35.09c-.12-.37-.41-.78-.34-1.12s.49-.78.76-.79.6.45.9.7l-.69.83Z"/><path d="M412,119.84c-.51.34-.83.71-1.1.68s-.52-.46-.78-.71c.28-.27.53-.69.86-.76S411.53,119.45,412,119.84Z"/><path d="M438.34,485.77c-.57.33-.91.69-1.22.67s-.49-.48-.73-.74c.28-.27.54-.68.87-.74S437.8,485.35,438.34,485.77Z"/><path d="M365.48,228.92c-.47.37-.8.8-1,.75s-.56-.49-.83-.76c.26-.25.5-.66.79-.68S365,228.58,365.48,228.92Z"/><path d="M243.05,22.56c-.24-.48-.48-.85-.43-.9a17.11,17.11,0,0,1,1.53-1.29,1.7,1.7,0,0,1,.35.36C244.09,21.29,243.64,21.83,243.05,22.56Z"/><path d="M239.13,92.55c-.5.33-.86.73-1.07.66s-.52-.53-.77-.82c.27-.22.55-.61.83-.62S238.66,92.17,239.13,92.55Z"/><path d="M43,67.12c.32.55.68.89.63,1.16s-.5.48-.77.72c-.24-.28-.64-.55-.65-.83S42.64,67.61,43,67.12Z"/><path d="M127.79,134.31l-1,.82c-.21-.34-.58-.66-.6-1s.46-.49.72-.73Z"/><path d="M51,401.87c-.34-.52-.71-.84-.67-1.1s.47-.49.73-.73c.24.26.65.5.67.78S51.37,401.38,51,401.87Z"/><path d="M322.92,24c.34.6.64.9.61,1.16s-.36.61-.55.92c-.21-.25-.57-.49-.59-.76S322.63,24.69,322.92,24Z"/><path d="M410,213.86c-.38-.51-.74-.78-.75-1.07s.41-.72.58-.7a1.11,1.11,0,0,1,.8.63C410.63,213,410.27,213.31,410,213.86Z"/><path d="M78.4,271.58c-.38-.54-.75-.85-.73-1.12s.45-.51.7-.76c.23.23.64.45.65.69S78.72,271,78.4,271.58Z"/><path d="M80.34,285.57c.34.44.73.75.68.94s-.45.52-.71.77c-.21-.24-.59-.47-.61-.73S80,286,80.34,285.57Z"/><path d="M238.08,48c.32.5.65.8.64,1.09s-.51.66-.66.61a1.19,1.19,0,0,1-.69-.75C237.33,48.75,237.72,48.46,238.08,48Z"/><path d="M370.48,163.22c-.46.36-.76.75-1,.71a1.17,1.17,0,0,1-.74-.7c0-.14.39-.65.61-.66S370,162.9,370.48,163.22Z"/><path d="M90.47,253.7l1.09-1.11a4.84,4.84,0,0,1,.51.54c-.34.38-.72.74-1.09,1.09Z"/><path d="M221.22,3.46l-1-1,.7-.65L221.77,3Z"/><path d="M436.14,336.07c-.41.34-.69.74-.89.71s-.54-.42-.81-.66c.25-.24.47-.63.76-.7S435.71,335.75,436.14,336.07Z"/><path d="M235.1,274.52c-.58.32-.91.63-1.2.6a.93.93,0,0,1-.56-.72.9.9,0,0,1,.66-.63C234.29,273.79,234.57,274.14,235.1,274.52Z"/><path d="M325.54,306.87c-.61.24-.94.5-1.21.45s-.46-.42-.68-.64c.29-.15.58-.41.89-.42S325,306.54,325.54,306.87Z"/><path d="M160.24,184.49c.32.46.66.74.64,1s-.4.49-.62.73c-.25-.25-.63-.47-.7-.77S159.9,184.93,160.24,184.49Z"/><path d="M244.11,14.67c-.46.32-.78.71-1,.65s-.5-.47-.74-.73c.25-.21.49-.58.75-.59S243.66,14.34,244.11,14.67Z"/><path d="M61.14,470.56c.33.44.69.7.68.95s-.38.5-.59.75c-.26-.24-.65-.45-.74-.74S60.82,471,61.14,470.56Z"/><path d="M231.9,8.6c.37.43.78.71.74.91s-.43.54-.67.8c-.23-.23-.61-.44-.65-.69S231.61,9.07,231.9,8.6Z"/><path d="M37.88,463.4c-.42.36-.7.77-.9.73s-.53-.44-.8-.68c.24-.23.45-.62.7-.66S37.42,463.1,37.88,463.4Z"/><path d="M444.33,300.74c.29.47.65.81.58,1s-.5.47-.77.69c-.2-.26-.55-.52-.55-.78S444,301.16,444.33,300.74Z"/><path d="M256.17,206.7c-.29-.5-.61-.8-.57-1s.44-.44.69-.65c.21.24.58.48.59.74S256.53,206.25,256.17,206.7Z"/><path d="M219.85,414.88c-.3-.43-.63-.72-.6-.95s.49-.67.63-.62a1.19,1.19,0,0,1,.71.71C220.63,414.2,220.21,414.49,219.85,414.88Z"/><path d="M474.5,434.34c-.36.24-.65.53-.75.47a4.17,4.17,0,0,1-.8-.72c.22-.19.5-.56.67-.51S474.12,434,474.5,434.34Z"/><path d="M47.29,440a7.63,7.63,0,0,1-.83,1.46c-.16.17-.59.07-.9.09.06-.28,0-.67.2-.81A8.79,8.79,0,0,1,47.29,440Z"/><path d="M24.71,444.21c-.29-.45-.62-.74-.59-1s.42-.45.65-.68c.24.26.61.49.67.78S25.07,443.8,24.71,444.21Z"/><path d="M158.17,295.59c-.45.36-.71.73-.95.72a1,1,0,0,1-.68-.61.93.93,0,0,1,.61-.68C157.39,295,157.69,295.3,158.17,295.59Z"/><path d="M398.75,488.77c-.5.31-.77.6-1,.6s-.6-.42-.57-.58a1,1,0,0,1,.62-.68C398,488.08,398.27,488.43,398.75,488.77Z"/><path d="M176.61,3.68l.68.93c-.27.18-.53.48-.81.5s-.6-.39-.58-.55S176.27,4.08,176.61,3.68Z"/><path d="M56.09,202.69c-.5.31-.81.65-1,.6s-.53-.42-.59-.7.39-.55.61-.54S55.6,202.36,56.09,202.69Z"/><path d="M25.75,154.2c-.5.29-.82.62-1,.57a1,1,0,0,1-.57-.73c0-.14.41-.53.62-.52S25.28,153.85,25.75,154.2Z"/><path d="M2.45,277.49c.36.47.68.71.7,1s-.36.66-.51.64a1,1,0,0,1-.74-.55C1.84,278.32,2.17,278,2.45,277.49Z"/><path d="M484.65,277.39c-.45.36-.71.72-.94.7a1,1,0,0,1-.65-.64c-.05-.15.33-.59.54-.6S484.15,277.11,484.65,277.39Z"/><path d="M394.66,37.87c-.29-.48-.62-.78-.58-1a.94.94,0,0,1,.68-.59.89.89,0,0,1,.6.67C395.37,37.17,395,37.43,394.66,37.87Z"/><path d="M294.64,414.92c-.49.34-.77.68-1,.65a1,1,0,0,1-.62-.68c0-.15.37-.57.58-.57S294.14,414.61,294.64,414.92Z"/><path d="M52,14.82c-.28-.54-.58-.84-.54-1.09s.42-.46.64-.68c.2.24.54.49.56.74S52.34,14.32,52,14.82Z"/><path d="M456.29,148.15c.36.4.73.65.7.83a1.11,1.11,0,0,1-.57.72c-.13.06-.62-.3-.63-.5S456,148.64,456.29,148.15Z"/><path d="M436.1,181.49c-.48.28-.75.57-1,.55s-.59-.47-.54-.59a1.09,1.09,0,0,1,.69-.61C435.42,180.8,435.68,181.15,436.1,181.49Z"/><path d="M214.73,92.53c-.45.29-.74.61-.92.56s-.44-.42-.66-.64c.21-.2.42-.56.62-.55S214.28,92.22,214.73,92.53Z"/><path d="M388.67,207.69c-.32-.48-.66-.76-.62-1a1,1,0,0,1,.67-.6c.15,0,.56.37.56.57S389,207.21,388.67,207.69Z"/><path d="M381.47,272.36c-.28-.5-.61-.81-.55-1a1,1,0,0,1,.74-.53c.16,0,.53.42.51.62S381.82,271.91,381.47,272.36Z"/></pattern></defs><title>App Icon Meropedia</title><g class="cls-2"><g id="Laag_1" data-name="Laag 1"><path class="cls-3" d="M500,397A102.6,102.6,0,0,1,397.31,499.57H102.71A102.61,102.61,0,0,1,0,397V103A102.62,102.62,0,0,1,102.71.43h294.6A102.61,102.61,0,0,1,500,103Z"/><path class="cls-4" d="M395,126.44a66.8,66.8,0,0,1,26.07-3.14H431v-9.17H349L250.48,337.85,151.29,114.13H69v9.17h7.48A62,62,0,0,1,103,126.92a17.63,17.63,0,0,1,8,14,282.71,282.71,0,0,1,1.93,41.75v117a274.67,274.67,0,0,1-2.41,45.86,34.28,34.28,0,0,1-13.27,20.75A48.21,48.21,0,0,1,69,375.73v9.42h96.53v-9.42a48.27,48.27,0,0,1-29-10.37,33.52,33.52,0,0,1-12.3-20.76,298.85,298.85,0,0,1-1.94-44.16V141.88L230.21,384.66h9.41L346.77,141.88v172.8a313.26,313.26,0,0,1-1.68,43.2,20.55,20.55,0,0,1-8.69,13.51,46.3,46.3,0,0,1-24.14,4.34h-9.41v10.14H431v-9.41H419.42a45.87,45.87,0,0,1-24.14-4.59,24.09,24.09,0,0,1-8.2-14.72,366,366,0,0,1-1.45-41.75V182.67a287.51,287.51,0,0,1,1-43.92A17.64,17.64,0,0,1,395,126.44Z"/><g class="cls-5"><image width="6783" height="4361" transform="translate(-343 -870) scale(0.18 0.28)" xlink:href="../../../../Downloads/Brown-papyrus-paper/14519.jpg"/><g class="cls-6"><rect class="cls-7" x="-343" y="-870" width="1200" height="1200"/></g><rect class="cls-8" x="-343" y="-870" width="1200" height="1200"/></g></g></g></svg>