<svg xmlns="http://www.w3.org/2000/svg" xmlns:xlink="http://www.w3.org/1999/xlink" viewBox="0 0 500 500"><defs><style>.cls-1{fill:none;}.cls-2{isolation:isolate;}.cls-3{fill:url(#Naamloos_verloop_10);}.cls-4{fill:#00db4d;}.cls-5{fill:#202020;}.cls-6{fill:#010101;}.cls-7{clip-path:url(#clip-path);}.cls-8{opacity:0.65;mix-blend-mode:multiply;fill:url(#Motivo_nuevo_2);}</style><radialGradient id="Naamloos_verloop_10" cx="251.1" cy="611.81" r="672.27" gradientTransform="translate(2.27)" gradientUnits="userSpaceOnUse"><stop offset="0" stop-color="#333"/><stop offset="0.3"/><stop offset="1" stop-color="#333"/></radialGradient><clipPath id="clip-path"><path class="cls-1" d="M500,397A102.6,102.6,0,0,1,397.31,499.57H102.71A102.61,102.61,0,0,1,0,397V103A102.62,102.62,0,0,1,102.71.43h294.6A102.61,102.61,0,0,1,500,103Z"/></clipPath><pattern id="Motivo_nuevo_2" data-name="Motivo nuevo 2" width="490.25" height="490.25" patternTransform="translate(1514.88 922.78) rotate(-90) scale(0.42 0.43)" patternUnits="userSpaceOnUse" viewBox="0 0 490.25 490.25"><rect class="cls-1" width="490.25" height="490.25"/><path d="M180.66,0a10.52,10.52,0,0,1,.88,1.56c.16.41.23,1.25.09,1.31a5.54,5.54,0,0,1-2.15.46,1.32,1.32,0,0,1-.87-.92A13,13,0,0,1,178.7,0Z"/><path d="M490.25,387.54c-.34-.13-.81-.16-1-.41a8.56,8.56,0,0,1-.68-1.64l1.65-.4Z"/><path d="M0,384.85c.85-.12,1.33.22,1.28,1.1s-.34,1.33-1.28,1.1Z"/><path d="M122.81,326.87c.86.5,1.72,1,2.57,1.51a.61.61,0,0,1,.23.42,28,28,0,0,1,.14,2.89c0,1-1.82,2.1-2.86,1.89-1.75-.34-2.34-1.19-2.09-2.92a2,2,0,0,0-.15-.78c-.14-.57-.6-1.34-.38-1.66a4.35,4.35,0,0,1,1.74-1,1.49,1.49,0,0,1,.6,0C122.68,327.07,122.74,327,122.81,326.87Z"/><path d="M167.35,227.32c-1-.63-1.72-1.08-2.43-1.61-.35-.25-.54-.73-.89-1a1.37,1.37,0,0,1-.35-2.12,2.75,2.75,0,0,1,2-.37,3,3,0,0,1,1.75.93,9,9,0,0,1,1.56,2.76C169.11,226.16,168.06,226.75,167.35,227.32Z"/><path d="M410.51,467.64c1.12,0,2.19,0,2.25,1.56,0,.17.28.37.48.49,1,.63,1.1,1.12.43,2.15a1.55,1.55,0,0,1-2.16.33,31.76,31.76,0,0,1-2.58-2.73c-.27-.32-.54-1-.39-1.24s.8-.41,1.24-.55A2.55,2.55,0,0,1,410.51,467.64Z"/><path d="M27.67,403.09c.29-.69.41-1.74.91-2,1.08-.51,1.63.48,2.1,1.32a3.82,3.82,0,0,0,.59.62.94.94,0,0,1-.07,1.56,1.86,1.86,0,0,0-.52.48c-.27.49-.2,1.41-1.13,1s-1.79-.71-1.63-2a7.81,7.81,0,0,0,0-1Z"/><path d="M104.57,297.66c1.42-.17,2.06.93,2.74,1.69a1.39,1.39,0,0,1-1.08,2.21c-1.15.06-2.5.36-2.56-1.5a.32.32,0,0,0-.1-.22c-.49-.43-1.15-.93-.6-1.59C103.29,297.87,104,297.84,104.57,297.66Z"/><path d="M424,246a1.68,1.68,0,0,1,2.81.68c.5,1.14-.79,1.34-1.21,2-.11.17-.92.16-1.14-.05a15.67,15.67,0,0,1-1.87-2.19c-.11-.15,0-.5.07-.76Z"/><path d="M276.11,159.12a6.11,6.11,0,0,1-1.52,1.55c-.68.37-1-.37-1-1,0-.76.08-1.54-.81-2-.15-.08-.22-.67-.09-.88a1.25,1.25,0,0,1,.84-.52C274.5,156.21,276.08,157.69,276.11,159.12Z"/><path d="M40.78,49.52c1,.76,2,1.38,2.85,2.12.16.13,0,1-.15,1a4.45,4.45,0,0,1-1.85,0,5.22,5.22,0,0,1-1.77-.83c-.33-.24-.76-.92-.66-1.06A9,9,0,0,1,40.78,49.52Z"/><path d="M80.26,60c.48.42,1.31.8,1.36,1.27.11,1-.94,1.76-1.91,1.73s-1.3-.67-1.27-1.55C78.48,60.44,79.16,60.23,80.26,60Z"/><path d="M211.65,109.65a3.78,3.78,0,0,1,3.33-.75c.31.09.57.81.57,1.24,0,.25-.61.76-.87.71a29.2,29.2,0,0,1-3-.83C211.66,109.9,211.66,109.77,211.65,109.65Z"/><path d="M262.65,251.94a12.14,12.14,0,0,1,1.29,1.22,17.12,17.12,0,0,1-1.59,1.82l-1.46-1.74Z"/><path d="M115.78,381.29c.6.62,1.19.95,1.3,1.4a1.67,1.67,0,0,1-1.39,1.72,1.32,1.32,0,0,1-1.23-1.64C114.5,382.32,115.17,381.94,115.78,381.29Z"/><path d="M6.3,4.35a3.84,3.84,0,0,1,.75-1.46c.24-.21,1.07,0,1.46.29.57.39,1.3.94.81,1.79-.15.24-.84.32-1.23.23A9.35,9.35,0,0,1,6.3,4.35Z"/><path d="M253.24,248.29c.33,0,.72-.12,1,0s.77.57.77.86a1.22,1.22,0,0,1-.78.85,3.45,3.45,0,0,1-1.69,0c-.42-.11-1-.48-1.08-.83-.17-.72.44-.94,1.08-1h.73Z"/><path d="M246.36,141.66c-.35.39-.63,1-1.06,1.12-.82.22-1.08-.48-1.17-1.17a1.46,1.46,0,0,1,0-.83,11.63,11.63,0,0,1,1-1.37c.32.44.66.86.93,1.32a1.85,1.85,0,0,1,.11.72Z"/><path d="M49.4,59c0,.71-2.19,2.2-2.75,1.92-.2-.11-.51-.43-.49-.47a9.36,9.36,0,0,1,1.55-2.05c.26-.22,1,.13,1.52.26C49.33,58.7,49.37,58.94,49.4,59Z"/><path d="M49.86,63.8c-.15,1.08-.22,1.82-.37,2.55a.63.63,0,0,1-.55.31c-.16,0-.32-.29-.41-.49A10.22,10.22,0,0,1,48,64.75a3.15,3.15,0,0,1-.2-1.46c.06-.21.82-.47,1.12-.35C49.34,63.12,49.66,63.62,49.86,63.8Z"/><path d="M164.09,230c-.17.14-.75.74-.83.68a19.83,19.83,0,0,1-1.84-1.72c.4-.29.79-.79,1.22-.83C163.62,228,164.12,228.6,164.09,230Z"/><path d="M136,94.4c-1.22,0-2-.79-1.88-1.68.05-.34.46-.63.71-.94.64.59,1.3,1.16,1.88,1.8A6.42,6.42,0,0,1,136,94.4Z"/><path d="M285.33,294.61a25.29,25.29,0,0,1,2,1.86c.11.12-.11.8-.33.89a1.43,1.43,0,0,1-1.08-.12,4.44,4.44,0,0,1-1.06-.88c-.23-.23-.59-.61-.53-.81S284.87,295,285.33,294.61Z"/><path d="M18.76,7.07c-.09,2.19-.92,2.9-2.26,2.28-.65-.29-.95-.88-.32-1.29A13.1,13.1,0,0,1,18.76,7.07Z"/><path d="M408.54,475.73c-1.06-.22-1.64-.61-1.51-1.46.08-.44.57-.81.87-1.21l1.73,1.53Z"/><path d="M397.07,279.62c.17.18.65.46.79.86s-1.05,1.58-1.89,1.56a1,1,0,0,1-.76-.64C395.08,280.69,396.05,279.66,397.07,279.62Z"/><path d="M115.83,263.47a15,15,0,0,1,1.39,1.7,1.47,1.47,0,0,1,0,1.13,1,1,0,0,1-.92.08,4.57,4.57,0,0,1-1.13-1.51c-.15-.36.09-.88.16-1.32Z"/><path d="M459.27,356.6l-1.75-1.44c.36-.32.72-.89,1.08-.89.66,0,1.62,0,1.62,1C460.22,355.64,459.72,356,459.27,356.6Z"/><path d="M117.32,204.31c.56.63,1.16,1,1.21,1.4.08.88-.69.93-1.36.93s-1.34-.21-1.17-1C116.09,205.23,116.7,204.91,117.32,204.31Z"/><path d="M203.85,112.71a20,20,0,0,1,1.58,2,3.4,3.4,0,0,1-.94.83,5.91,5.91,0,0,1-1.37-1.45C203,113.89,203.45,113.41,203.85,112.71Z"/><path d="M385.13,158.6l-1.5,1.31c-.31-.43-.85-.85-.87-1.31s.54-.79.84-1.19Z"/><path d="M383.8,188.8l-1-1.28c.39-.31.78-.88,1.15-.86s.8.58,1.19.9Z"/><path d="M381.86,338.62l-1.3,1.21c-.29-.41-.8-.83-.8-1.24s.53-.8.82-1.2Z"/><path d="M287.8,180.87l-1.21,1.19c-.29-.4-.78-.79-.8-1.22s.49-.74.76-1.12Z"/><path d="M362.64,138.23l-1.28,1.11a4.94,4.94,0,0,1-.81-1.39c-.05-.2.62-.81.87-.76S362.11,137.75,362.64,138.23Z"/><path d="M73.53,390.5c-.55.45-.94,1-1.24,1s-.9-.67-.86-1,.58-.8.9-1.19Z"/><path d="M361.34,21l-1.29-1.29c.36-.3.75-.87,1.08-.84s.85.53,1.07.94C362.28,20,361.76,20.45,361.34,21Z"/><path d="M123.26,299.88c-.48-.52-.79-.86-1.11-1.19.39-.28.77-.77,1.15-.76s.76.5,1.14.78Z"/><path d="M222.62,75.55c-.48-.56-.78-.92-1.09-1.27.42-.29.82-.77,1.25-.8s.9.58.89.89S223.11,75,222.62,75.55Z"/><path d="M177.56,97.76l-.92-1.25c.42-.28.84-.77,1.26-.77s.7.56,1,.88Z"/><path d="M111.82,365.71c-.45-.62-.92-1-.92-1.35a1.18,1.18,0,0,1,.9-.78c.4,0,.76.51,1.13.8Z"/><path d="M226.35,166.39l-1.45,1.74c-.27-.23-.77-.46-.78-.71-.07-1.34,1.21-.92,1.83-1.39Z"/><path d="M337.27,7.76c-.4-.55-.9-1-.84-1.21a1.27,1.27,0,0,1,1-.75c.4,0,.76.52,1.13.81Z"/><path d="M368.74,250.22c-.61.52-.94,1-1.31,1s-.85-.59-.82-.88a1.43,1.43,0,0,1,.84-1C367.69,249.3,368.12,249.8,368.74,250.22Z"/><path d="M224,17l-1.15,1.17c-.27-.35-.75-.71-.73-1s.48-.75.74-1.13Z"/><path d="M230.19,455.06c.22.41.63.82.62,1.22s-.53.63-.83,1c-.29-.3-.81-.6-.83-.92s.35-.83.56-1.24Z"/><path d="M482,195.34c-.6.51-.92,1-1.3,1s-.61-.52-.92-.81a4.86,4.86,0,0,1,1.08-.87C481,194.63,481.4,195,482,195.34Z"/><path d="M210.06,380.6c-.67.4-1.08.84-1.37.77a.89.89,0,0,1,.11-1.77C209.11,379.58,209.45,380.08,210.06,380.6Z"/><path d="M255,84.4c-.23-.35-.65-.72-.62-1.05s.51-.64.79-1c.31.31.8.59.85.93s-.36.72-.57,1.08Z"/><path d="M225.82,244.44c-.44-.67-.9-1.06-.85-1.35a1.22,1.22,0,0,1,.91-.81c.3,0,.8.51.84.85S226.29,243.8,225.82,244.44Z"/><path d="M240,53.39c-.38-.69-.76-1.07-.72-1.41s.54-.53.84-.79c.28.32.73.61.78,1S240.46,52.77,240,53.39Z"/><path d="M468.53,264c.42.67.83,1,.81,1.37s-.58.83-.78.77a1.39,1.39,0,0,1-.86-.86C467.64,265,468.09,264.66,468.53,264Z"/><path d="M193.82,241.17c-.63.37-1,.76-1.29.71s-.57-.52-.85-.8c.32-.28.61-.73,1-.79S193.25,240.72,193.82,241.17Z"/><path d="M422.33,265.48c-.7.35-1.09.72-1.43.67s-.77-.66-.7-.85a1.36,1.36,0,0,1,.93-.76C421.4,264.5,421.73,265,422.33,265.48Z"/><path d="M197.62,129.07c-.35.23-.7.63-1,.62a1.12,1.12,0,0,1-.78-.78,1.15,1.15,0,0,1,.72-.86c.34,0,.73.35,1.09.56C197.62,128.76,197.62,128.92,197.62,129.07Z"/><path d="M146.33,335.14c-.6.39-1,.83-1.24.77s-.62-.55-.92-.85c.33-.28.62-.72,1-.78S145.76,334.7,146.33,335.14Z"/><path d="M109.7,302.93c-.35.23-.7.64-1,.63a.81.81,0,0,1-.08-1.62c.34,0,.74.32,1.11.51C109.68,302.61,109.69,302.77,109.7,302.93Z"/><path d="M202,373.61c-.68.38-1.09.78-1.35.7a1.34,1.34,0,0,1-.77-.93c0-.2.55-.72.84-.7S201.35,373.13,202,373.61Z"/><path d="M247.48,376.6c-.69.39-1.07.78-1.42.75s-.79-.61-.73-.82a1.36,1.36,0,0,1,.9-.8C246.49,375.68,246.84,376.13,247.48,376.6Z"/><path d="M372.83,379.5c-.69.46-1,.86-1.39.86s-.54-.52-.81-.8c.31-.29.59-.71.95-.81S372.18,379.09,372.83,379.5Z"/><path d="M36.12,385.64c-.59.41-1,.85-1.23.79s-.63-.52-1-.81c.32-.28.62-.72,1-.78S35.54,385.23,36.12,385.64Z"/><path d="M289.61,456.64c-.42-.57-.87-.93-.82-1.19s.52-.64.8-1c.29.31.75.59.82.95S290,456.06,289.61,456.64Z"/><path d="M318.21,145.16c-.68.38-1.09.79-1.34.71s-.57-.59-.85-.92c.3-.26.61-.73.91-.72S317.59,144.68,318.21,145.16Z"/><path d="M154.15,146.82c.41.58.85.94.8,1.2s-.52.63-.81.94c-.29-.31-.74-.59-.81-1S153.73,147.4,154.15,146.82Z"/><path d="M48,170.65c-.4-.69-.79-1.07-.76-1.4s.53-.55.82-.82c.29.32.73.6.8,1S48.42,170,48,170.65Z"/><path d="M114.64,268.1c.44.61.86.94.87,1.29s-.5.55-.79.82c-.28-.32-.68-.6-.81-1C113.85,269,114.25,268.68,114.64,268.1Z"/><path d="M412.85,137.21c-.38-.62-.8-1-.73-1.26s.59-.57.91-.84c.24.3.67.61.68.92S413.29,136.64,412.85,137.21Z"/><path d="M423.05,342.48c-.44-.66-.86-1-.84-1.35s.5-.57.78-.86c.3.3.76.57.85.92S423.47,341.82,423.05,342.48Z"/><path d="M140,404.09c-.36.2-.74.58-1.08.55a.82.82,0,0,1,0-1.63c.34,0,.71.38,1.06.6C140,403.77,140,403.93,140,404.09Z"/><path d="M363.41,451.5c-.35.24-.69.66-1,.66a.82.82,0,0,1-.1-1.63c.34,0,.74.32,1.11.51Z"/><path d="M482,185.6c-.68.38-1.1.78-1.35.7s-.56-.6-.84-.92c.31-.26.62-.73.92-.72S481.34,185.12,482,185.6Z"/><path d="M484.62,281.76c-.37-.61-.76-1-.72-1.26s.5-.56.78-.84c.29.31.74.58.81.93S485.06,281.19,484.62,281.76Z"/><path d="M284.54,307c-.41-.59-.86-1-.79-1.21s.55-.6.86-.89c.26.3.7.57.73.88S285,306.44,284.54,307Z"/><path d="M246.14,57.36l1.52,1.8c-.17.12-.45.39-.5.36a17.16,17.16,0,0,1-1.54-1.41A4.82,4.82,0,0,1,246.14,57.36Z"/><path d="M73.5,49.38c-.31.13-.67.43-.93.37s-.63-.47-.93-.72c.27-.24.55-.68.8-.66s.74.38,1.11.6C73.53,49.11,73.51,49.24,73.5,49.38Z"/><path d="M345.29,236.8c.37.64.76,1,.7,1.3a1.12,1.12,0,0,1-.84.73,1.14,1.14,0,0,1-.73-.84C344.4,237.7,344.84,237.38,345.29,236.8Z"/><path d="M83.48,73.05c.37.62.8,1,.72,1.25s-.59.56-.92.83c-.24-.3-.66-.61-.67-.92S83,73.61,83.48,73.05Z"/><path d="M476.86,210.86c-.67.38-1.07.77-1.33.7a1.19,1.19,0,0,1-.68-.9c0-.2.5-.67.76-.66S476.24,210.41,476.86,210.86Z"/><path d="M214.05,102.66c-.64.38-1,.78-1.29.72s-.77-.54-.75-.81a1.13,1.13,0,0,1,.82-.76C213.12,101.78,213.45,102.21,214.05,102.66Z"/><path d="M53.06,475.86c-.4-.66-.81-1-.76-1.3a1.21,1.21,0,0,1,.85-.74c.19,0,.69.47.69.74S53.48,475.21,53.06,475.86Z"/><path d="M293.91,326c-.66.42-1,.82-1.3.77a1.18,1.18,0,0,1-.73-.84c0-.19.46-.68.73-.69S293.25,325.58,293.91,326Z"/><path d="M41.65,35.09c-.12-.37-.41-.78-.34-1.12s.49-.78.76-.79.6.45.9.7l-.69.83Z"/><path d="M412,119.84c-.51.34-.83.71-1.1.68s-.52-.46-.78-.71c.28-.27.53-.69.86-.76S411.53,119.45,412,119.84Z"/><path d="M438.34,485.77c-.57.33-.91.69-1.22.67s-.49-.48-.73-.74c.28-.27.54-.68.87-.74S437.8,485.35,438.34,485.77Z"/><path d="M365.48,228.92c-.47.37-.8.8-1,.75s-.56-.49-.83-.76c.26-.25.5-.66.79-.68S365,228.58,365.48,228.92Z"/><path d="M243.05,22.56c-.24-.48-.48-.85-.43-.9a17.11,17.11,0,0,1,1.53-1.29,1.7,1.7,0,0,1,.35.36C244.09,21.29,243.64,21.83,243.05,22.56Z"/><path d="M239.13,92.55c-.5.33-.86.73-1.07.66s-.52-.53-.77-.82c.27-.22.55-.61.83-.62S238.66,92.17,239.13,92.55Z"/><path d="M43,67.12c.32.55.68.89.63,1.16s-.5.48-.77.72c-.24-.28-.64-.55-.65-.83S42.64,67.61,43,67.12Z"/><path d="M127.79,134.31l-1,.82c-.21-.34-.58-.66-.6-1s.46-.49.72-.73Z"/><path d="M51,401.87c-.34-.52-.71-.84-.67-1.1s.47-.49.73-.73c.24.26.65.5.67.78S51.37,401.38,51,401.87Z"/><path d="M322.92,24c.34.6.64.9.61,1.16s-.36.61-.55.92c-.21-.25-.57-.49-.59-.76S322.63,24.69,322.92,24Z"/><path d="M410,213.86c-.38-.51-.74-.78-.75-1.07s.41-.72.58-.7a1.11,1.11,0,0,1,.8.63C410.63,213,410.27,213.31,410,213.86Z"/><path d="M78.4,271.58c-.38-.54-.75-.85-.73-1.12s.45-.51.7-.76c.23.23.64.45.65.69S78.72,271,78.4,271.58Z"/><path d="M80.34,285.57c.34.44.73.75.68.94s-.45.52-.71.77c-.21-.24-.59-.47-.61-.73S80,286,80.34,285.57Z"/><path d="M238.08,48c.32.5.65.8.64,1.09s-.51.66-.66.61a1.19,1.19,0,0,1-.69-.75C237.33,48.75,237.72,48.46,238.08,48Z"/><path d="M370.48,163.22c-.46.36-.76.75-1,.71a1.17,1.17,0,0,1-.74-.7c0-.14.39-.65.61-.66S370,162.9,370.48,163.22Z"/><path d="M90.47,253.7l1.09-1.11a4.84,4.84,0,0,1,.51.54c-.34.38-.72.74-1.09,1.09Z"/><path d="M221.22,3.46l-1-1,.7-.65L221.77,3Z"/><path d="M436.14,336.07c-.41.34-.69.74-.89.71s-.54-.42-.81-.66c.25-.24.47-.63.76-.7S435.71,335.75,436.14,336.07Z"/><path d="M235.1,274.52c-.58.32-.91.63-1.2.6a.93.93,0,0,1-.56-.72.9.9,0,0,1,.66-.63C234.29,273.79,234.57,274.14,235.1,274.52Z"/><path d="M325.54,306.87c-.61.24-.94.5-1.21.45s-.46-.42-.68-.64c.29-.15.58-.41.89-.42S325,306.54,325.54,306.87Z"/><path d="M160.24,184.49c.32.46.66.74.64,1s-.4.49-.62.73c-.25-.25-.63-.47-.7-.77S159.9,184.93,160.24,184.49Z"/><path d="M244.11,14.67c-.46.32-.78.71-1,.65s-.5-.47-.74-.73c.25-.21.49-.58.75-.59S243.66,14.34,244.11,14.67Z"/><path d="M61.14,470.56c.33.44.69.7.68.95s-.38.5-.59.75c-.26-.24-.65-.45-.74-.74S60.82,471,61.14,470.56Z"/><path d="M231.9,8.6c.37.43.78.71.74.91s-.43.54-.67.8c-.23-.23-.61-.44-.65-.69S231.61,9.07,231.9,8.6Z"/><path d="M37.88,463.4c-.42.36-.7.77-.9.73s-.53-.44-.8-.68c.24-.23.45-.62.7-.66S37.42,463.1,37.88,463.4Z"/><path d="M444.33,300.74c.29.47.65.81.58,1s-.5.47-.77.69c-.2-.26-.55-.52-.55-.78S444,301.16,444.33,300.74Z"/><path d="M256.17,206.7c-.29-.5-.61-.8-.57-1s.44-.44.69-.65c.21.24.58.48.59.74S256.53,206.25,256.17,206.7Z"/><path d="M219.85,414.88c-.3-.43-.63-.72-.6-.95s.49-.67.63-.62a1.19,1.19,0,0,1,.71.71C220.63,414.2,220.21,414.49,219.85,414.88Z"/><path d="M474.5,434.34c-.36.24-.65.53-.75.47a4.17,4.17,0,0,1-.8-.72c.22-.19.5-.56.67-.51S474.12,434,474.5,434.34Z"/><path d="M47.29,440a7.63,7.63,0,0,1-.83,1.46c-.16.17-.59.07-.9.09.06-.28,0-.67.2-.81A8.79,8.79,0,0,1,47.29,440Z"/><path d="M24.71,444.21c-.29-.45-.62-.74-.59-1s.42-.45.65-.68c.24.26.61.49.67.78S25.07,443.8,24.71,444.21Z"/><path d="M158.17,295.59c-.45.36-.71.73-.95.72a1,1,0,0,1-.68-.61.93.93,0,0,1,.61-.68C157.39,295,157.69,295.3,158.17,295.59Z"/><path d="M398.75,488.77c-.5.31-.77.6-1,.6s-.6-.42-.57-.58a1,1,0,0,1,.62-.68C398,488.08,398.27,488.43,398.75,488.77Z"/><path d="M176.61,3.68l.68.93c-.27.18-.53.48-.81.5s-.6-.39-.58-.55S176.27,4.08,176.61,3.68Z"/><path d="M56.09,202.69c-.5.31-.81.65-1,.6s-.53-.42-.59-.7.39-.55.61-.54S55.6,202.36,56.09,202.69Z"/><path d="M25.75,154.2c-.5.29-.82.62-1,.57a1,1,0,0,1-.57-.73c0-.14.41-.53.62-.52S25.28,153.85,25.75,154.2Z"/><path d="M2.45,277.49c.36.47.68.71.7,1s-.36.66-.51.64a1,1,0,0,1-.74-.55C1.84,278.32,2.17,278,2.45,277.49Z"/><path d="M484.65,277.39c-.45.36-.71.72-.94.7a1,1,0,0,1-.65-.64c-.05-.15.33-.59.54-.6S484.15,277.11,484.65,277.39Z"/><path d="M394.66,37.87c-.29-.48-.62-.78-.58-1a.94.94,0,0,1,.68-.59.89.89,0,0,1,.6.67C395.37,37.17,395,37.43,394.66,37.87Z"/><path d="M294.64,414.92c-.49.34-.77.68-1,.65a1,1,0,0,1-.62-.68c0-.15.37-.57.58-.57S294.14,414.61,294.64,414.92Z"/><path d="M52,14.82c-.28-.54-.58-.84-.54-1.09s.42-.46.64-.68c.2.24.54.49.56.74S52.34,14.32,52,14.82Z"/><path d="M456.29,148.15c.36.4.73.65.7.83a1.11,1.11,0,0,1-.57.72c-.13.06-.62-.3-.63-.5S456,148.64,456.29,148.15Z"/><path d="M436.1,181.49c-.48.28-.75.57-1,.55s-.59-.47-.54-.59a1.09,1.09,0,0,1,.69-.61C435.42,180.8,435.68,181.15,436.1,181.49Z"/><path d="M214.73,92.53c-.45.29-.74.61-.92.56s-.44-.42-.66-.64c.21-.2.42-.56.62-.55S214.28,92.22,214.73,92.53Z"/><path d="M388.67,207.69c-.32-.48-.66-.76-.62-1a1,1,0,0,1,.67-.6c.15,0,.56.37.56.57S389,207.21,388.67,207.69Z"/><path d="M381.47,272.36c-.28-.5-.61-.81-.55-1a1,1,0,0,1,.74-.53c.16,0,.53.42.51.62S381.82,271.91,381.47,272.36Z"/></pattern></defs><title>App Icon Merofy</title><g class="cls-2"><g id="Laag_1" data-name="Laag 1"><path class="cls-3" d="M500,397A102.6,102.6,0,0,1,397.31,499.57H102.71A102.61,102.61,0,0,1,0,397V103A102.62,102.62,0,0,1,102.71.43h294.6A102.61,102.61,0,0,1,500,103Z"/><circle class="cls-4" cx="250" cy="250" r="194.5"/><path class="cls-5" d="M440.51,250c.51.64,1.7.27,1.42-1.47l-2-1.22Z"/><path class="cls-5" d="M443.79,238.1c-1.12-2-3-4.24-4.7-2.78,2.05,1.88,1.29,2.41,3.73,4.48.3,1.75-.55,3.1-1.28,2.83.52.6-.37,2.72.9,3.64a7.21,7.21,0,0,0,1.12-3.87,9.45,9.45,0,0,0-.24-2.15,10.76,10.76,0,0,0-.86-2.2C442.85,237.38,443.41,238,443.79,238.1Z"/><path class="cls-5" d="M364.35,89.29l.79.85A3.63,3.63,0,0,0,364.35,89.29Z"/><path class="cls-5" d="M263.15,52.11c.83,0,1.2-.16,1.25-.33C263.62,51.85,263,51.92,263.15,52.11Z"/><path class="cls-5" d="M244.41,49.58l1.12.11A1.35,1.35,0,0,0,244.41,49.58Z"/><path class="cls-5" d="M364.35,89.29l-2-2.2C361.8,87.51,363.28,88.35,364.35,89.29Z"/><path class="cls-5" d="M436.17,215.31a4.71,4.71,0,0,0,.78,1.4c-.17-.46-.32-.9-.46-1.37A1.82,1.82,0,0,1,436.17,215.31Z"/><path class="cls-5" d="M400.93,120.54l.58.67a4.45,4.45,0,0,0,1.1,0Z"/><path class="cls-5" d="M422.63,150.65c-.36-.76-2-.17-2.76-.07a2.55,2.55,0,0,1,1.91,1A2.3,2.3,0,0,0,422.63,150.65Z"/><path class="cls-5" d="M441.22,206l.46,1C441.55,206.73,441.38,206.3,441.22,206Z"/><path class="cls-5" d="M382.58,101.3a1.26,1.26,0,0,0,.14-.68A.87.87,0,0,0,382.58,101.3Z"/><path class="cls-5" d="M432.22,290.09a1.67,1.67,0,0,0,.29.06C432.39,289.92,432.29,289.83,432.22,290.09Z"/><path class="cls-5" d="M444.94,250l.07.58a4.43,4.43,0,0,0,.94.13Z"/><path class="cls-5" d="M209.65,51.31h.16C210.67,51,210.17,51.09,209.65,51.31Z"/><path class="cls-5" d="M53.08,292.63c.67-3.81,3.2,5.26,3.63-.34C56.18,292.94,53,288.05,53.08,292.63Z"/><path class="cls-5" d="M436.22,214.36c-.1-.46-.2-.94-.27-1.42A6,6,0,0,0,436.22,214.36Z"/><path class="cls-5" d="M56.71,292.29h0l0-.57C56.74,292,56.72,292.09,56.71,292.29Z"/><path class="cls-5" d="M136.46,83.28a2.22,2.22,0,0,0,1.08.14C137.42,83.29,137.15,83.23,136.46,83.28Z"/><path class="cls-5" d="M190.75,59.65l-1.45.25A7.09,7.09,0,0,0,190.75,59.65Z"/><path class="cls-5" d="M113.93,104.41a4.11,4.11,0,0,0-1.65,1.38,1.36,1.36,0,0,0,.38-.08A2.13,2.13,0,0,1,113.93,104.41Z"/><path class="cls-5" d="M92.47,128a5.5,5.5,0,0,0,.63-.25l.56-.85Z"/><path class="cls-5" d="M393,371.1A5.27,5.27,0,0,1,395,371C393.81,370.6,396.36,367,393,371.1Z"/><path class="cls-5" d="M437.1,215.12a1.1,1.1,0,0,1-.88-.76c.08.34.18.67.27,1C436.75,215.38,437,215.36,437.1,215.12Z"/><path class="cls-5" d="M122.14,115l-3.6,3.09A40.89,40.89,0,0,0,122.14,115Z"/><path class="cls-5" d="M198.14,430.32l1.1.1A1.65,1.65,0,0,0,198.14,430.32Z"/><path class="cls-5" d="M109.18,128.53a7.77,7.77,0,0,0-2.64,1.26,1.84,1.84,0,0,0,0,.7Z"/><path class="cls-5" d="M395.05,371h0Z"/><path class="cls-5" d="M409.73,343.13c-2.27,3.86.82,2.95,1.43,4.44-2.4,4.92-2.75,1.25-4.69,2.19a21.62,21.62,0,0,0-1.18,4.67,9.39,9.39,0,0,1-1.44,3.78c-.41,0-.8.27-.84-.46a9.76,9.76,0,0,1-1.23,3.1c-.31.54-.65,1.08-1,1.64l-1.2,1.63c-1.64,2.2-3.24,4.51-3.73,6.84a1.5,1.5,0,0,1-.78.07,4.44,4.44,0,0,1,2.76,1.45c-1.33,1.59-1.47,3.84-3.08,3.49.87-.94.49-1.4.54-2.15l-.95,2.06c-2.85.1,1.4-2.72.22-3.71-1.11,1.8-2.15,3.92-3.25,5.86a16.13,16.13,0,0,1-3.7,4.53c-1.93-.93,4.71-5.94.42-4.07l2-1.54,1.92-1.62c-4.88.73,2.13-2.12-2.71-1.78-.59.56-1.08,1.08-1.52,1.56s-.85.89-1.2,1.3c-.7.82-1.23,1.56-1.76,2.31a20.46,20.46,0,0,1-4.64,5c-.27,1.82,1.52.86,1.24,2.69a10.73,10.73,0,0,1-3.67,3.65,7.49,7.49,0,0,1-3.17.69c-1.94.1-3.54,0-5.22,3.27-.47,2.15.56,4.58-4.11,6.53l-.11-2.85a7,7,0,0,0-3.12,4.14c-.37,1.07-.89,2-4,3.34.44-1.42,3.6-3.5,2.66-3.16-4.53,1-1.7,2.81-4.41,4.74l-1.7-1.31c-1.37,1-2.72,2-4.1,3.12s-2.73,2.3-4.2,3.36a78,78,0,0,1-9.17,6.33c.09-.72.93-1.87-.9-1.63-1,.65-2,1.27-3.05,1.87l-1.59.89-1.66.78c-2.23,1-4.54,2-6.87,2.81s-4.75,1.43-7.08,2.05c-.58.16-1.16.32-1.74.46l-1.74.35-3.39.67-2.71,2.78c-.77.24-1.66-.34-.93-.9-3.56.32.15,1.12-1.28,2.24-1.9.67-2.82-.25-1.75-1.1-5.42,3.37-16.54,7.37-23.33,6.58l1.18-.75a8,8,0,0,0-3.05.71,11.89,11.89,0,0,0-2.1,1.37,5.53,5.53,0,0,1-5,1.28l.87-.43c-5.58.17-11.41.85-16.95.87-1.39,0-2.75.06-4.08,0s-2.64-.19-3.9-.34-2.47-.34-3.63-.58a17.18,17.18,0,0,1-3.29-1c-.87,1.2-3.61.71-6.22.36-.65-.09-1.3-.17-1.91-.22a11.11,11.11,0,0,0-1.69-.07,2.06,2.06,0,0,0-2.07,1.26,49.51,49.51,0,0,1-5.46-2.7,37,37,0,0,0-7.26-2.88c-2.29-.53-3.88,1.46-6.86,1.17l.34-1.82-4.34,1c-.52-.86-1-1.78-1.5-2.69l-2.77-.29c1,.4,2,1.44,1.73,1.91a16.63,16.63,0,0,1-6.51-2.32c-1.85-1.15-3.08-2.41-3-2.87l-5.05-.88c-1.69-.29-3.34-.73-5-1.1.48-.61,2.16-.22,3.57-.17-5.71-.23-.21-2.18-5.43-2.38.45.63-.75.89-1,1.19a20.35,20.35,0,0,0-4.69-3c-1-.5-2.07-1-3.14-1.41l-3.11-1.2,1.27-.78c-1.63-.93-3.34-1.8-5.1-2.66l-2.68-1.28-2.68-1.39c-1.8-.94-3.65-1.85-5.47-2.85s-3.59-2.15-5.36-3.29c2.22,2.13.46,3.62-1.78,2.44l.24-2.16c-2,.13,1.79,2-1.82,1.46-2.51-2-.5-3.06,1.33-2.54L142,403.45c.16-.61,1.07-.34,1.68-.82-2,.06-4.23-5.32-7.21-5.1l.18-.6c-1.64-1.29-3.08-2.38-4.41-3.34l-3.6-2.78-3.39-2.59c-1.14-.9-2.26-1.94-3.52-3.1-1.26,1.14-3-1-5.41-1.45-1.57-2-3.09-4.31-4.74-6.59a65,65,0,0,0-5.34-7,10.34,10.34,0,0,0-1.76-1.19c-.36-.15-.55-.1-.7,0-.31.22-.44.7-1.43.25,1-1.23-2.89-5.93-.07-4.12-1.16-1.41-2.18-2.52-3-3.61s-1.61-2-2.44-3-1.72-2-2.81-3.23-2.23-2.7-3.75-4.49c0,1.18.41,2.3-.36,2.08-1.13-1.3-1.54-3.6-.78-3.78l.38.29c-3.73-3.86-5.8-9.72-7.42-15.3-.92-2.76-1.57-5.53-2.51-7.94A22.76,22.76,0,0,0,78,322.64a13,13,0,0,0-1.94-2.8l.32.38-2.35-3.69-1.18-1.87-1.08-1.9c-1-3.84,1.85,1.87,1.81-1.22a30.13,30.13,0,0,1-3-5.64,45.44,45.44,0,0,1-1.42-5.25c-.19-.84-.38-1.67-.56-2.51l-.3-1.24-.27-1.25a24.26,24.26,0,0,0-1.77-5.13,8.17,8.17,0,0,0,.68-2.81,17.52,17.52,0,0,0,0-3.33,34.4,34.4,0,0,0-.52-3.69c-.25-1.28-.55-2.59-.77-3.94-.47-2.69-1-5.43-1.31-8a21.24,21.24,0,0,1,.45-7.05l-1,.52c-1.2-2,.39-2.51.62-4-.82.25-.9,2.27-1.51,1-.22-2.17-.37-4.37-.47-6.58,0-1.11-.13-2.22-.08-3.33s.09-2.23.13-3.35c.14-2.23.2-4.48.49-6.72s.62-4.48.95-6.71l.26-1.68.35-1.66.71-3.32c.47-2.21.91-4.42,1.54-6.59s1.15-4.34,1.72-6.5,1.31-4.26,1.91-6.37c.83-3.11-.17-4.32-.94-5.71s-1.15-2.94,1.19-6.54L71.94,197c.09-.83.17-1.66.31-2.48s.33-1.63.51-2.44c.38-1.61.81-3.23,1.28-4.83a50.1,50.1,0,0,1,1.67-4.73l1.87-4.66c1.36-3.05,2.79-6.06,4.08-9.1a97,97,0,0,0,3.8-9.09c0,.89.5,1.18-.07,2.29a12.27,12.27,0,0,0,3.35-5c.81-2,1.18-4,.7-4.29,1.2-1.62,1.16.16,2.33-.56,1.1-.92,1.63-2.59,2.14-4.11s1-2.88,2-3.05c.34-.07-.07.88-.24,1.36.43-1.85,4.92-6.62,2.58-6.21a40.66,40.66,0,0,0,4.23-5.5c.61-.92,1.22-1.8,1.86-2.61a12.4,12.4,0,0,1,1-1.15,11.72,11.72,0,0,1,1.16-1c.27-3.1,6-5.71,4.74-8,1.79,2.1,7.36-4.69,8.82-7.64-.18,1.3,2.51-1.22,2.42.44,2.44-2.47,4.57-4.87,3.18-5.53,3.52-.89,5.47-3.53,7.45-5.69a16.65,16.65,0,0,1,2.91-2.82,4.09,4.09,0,0,1,3.48-.7q2.84-2.69,5.64-5.25t5.8-4.72l1.44-1.14,1.49-1,3-2.08,3-2,3-1.85c.23.64-.22,1.27-1,1.9a13.76,13.76,0,0,1-1.38.92l-1.57,1c-2.12,1.32-4.16,2.6-3.26,3.73,1.77-1.34,3.31-2.64,4.75-3.89s2.86-2.3,4.27-3.39c.71-.54,1.42-1.07,2.16-1.59A18.25,18.25,0,0,1,169.19,79a41.08,41.08,0,0,1,5.54-2.51c2.23-.61-.72,1.62-1.23,2.35.95-.58,1.91-1.13,2.88-1.64s2-.92,3-1.35c2-.84,3.95-1.6,5.9-2.36s3.92-1.32,5.81-2.06c.94-.37,1.88-.77,2.79-1.19s1.85-.78,2.75-1.23c0,.24-.69.74-1.4,1.16,1.47-.51,3.59-.61,3.08-1.74l-1.37.73c-2.94-1,5-5.31,5.08-6.28-1.74,4,8-.93,4.84,4.36.94-.45,2.07-1.31,1.66-2.06,1.55-.11,2.11.25.81,1.51a17.36,17.36,0,0,0,2.8-1.25,10.37,10.37,0,0,0,1.38-.9c.75-.55,1.45-1,4-1.43.08.59-.89,1-1.28,1.77,2.31-1.58,4.7-3.27,9.07-3.25-.21.39.34.79-.93.94a35.38,35.38,0,0,0,5.11-1.19c.8-.26,1.6-.49,2.4-.7L234.2,60a41.71,41.71,0,0,1,5-1.07,22.94,22.94,0,0,1,5.68,0c-2.33,2.65,2.8.78,3.25,3,.72-.12,1.45-.28,2.17-.38l2.18-.27-1.75-1.14a28.52,28.52,0,0,0,5.48-.55,11.16,11.16,0,0,1,5.08,0l-1.45.36-1.45.42c1.2-.07,2.4,0,3.6,0l3.6.06-4-1.16c4-.85-.24-2.86,4.88-1.84-1.07.16,3.91.27,5.75,1.92h0A11.4,11.4,0,0,1,279,59.3c.63.81-1,2.38-.55,2.91,1.06-.81,3.3-.5,5.61-.25s4.69.49,6.06-.17a1.47,1.47,0,0,0-.95,1.71L291,62.37c1.64.88,1.84,1.17,1.35,2,5.16,1.47-1-3.16,4.93-.53-.52,0-.35.28-1.42.27,6,2.17,12.24,2.34,17.58,5,.9,2.68-5-1.12-3.77,1.32,8.1,2.12,17.34,3.64,24.56,7.69L333,77.24c1.2-1.18,2.41-.12,3.84,1.29s3.1,3.13,5.27,3.5c-1-.31-2,.9-1.6.72a43.89,43.89,0,0,0,7.86,4.14l4.72,2.18,2.61,1.21c.91.42,1.85.88,2.78,1.41l-1.33.06a35.8,35.8,0,0,0,4.62,3.94c.88.67,1.8,1.3,2.61,2s1.57,1.35,2.21,2c1.34,0,2.87,1.38,2.63-.32a21.38,21.38,0,0,0,2.44,3.51,23.25,23.25,0,0,0,2.76,2.92c2,1.76,4.16,3.17,6.22,4.71,1.05.75,2.1,1.49,3.12,2.26a23.34,23.34,0,0,1,2.88,2.44,18.56,18.56,0,0,1,4.24,6.18c-.81-.84-2.44-1.52-1.8-.85l1.57,1.37c.52.47,1,1,1.51,1.44l3,2.9c.62-1.4-.07-1.37-.42-3.42a10.45,10.45,0,0,1,4.74,3.24c-3.21-2.27-1.64,1.43-1.26,3.2.16-.48.87-.34,1.12-.72.78,5,2.63-1.16,5,4.61l-.78.19c.42.39.87.74,1.32,1.09l1.29,1.09a10.73,10.73,0,0,1,2.28,2.62c-.72,1.74-2-1.52-3.15-.87,2,2.69,6.44,3.7,6.73,7.24-1.15-1-2.27-2.73-3.51-3.64a14.35,14.35,0,0,0,.73,3.64c.31.78.73,1.35,1.27,2.47l-.09-.22c.78,1.76,1.59,3.48,2.32,5.25-.08-.51-.2-1-.32-1.5,2.91.69,4.11,2.52,5.3,4.54.59,1,1.18,2.09,1.92,3.15a11.92,11.92,0,0,0,2.85,3.12c-4.85-3.77-1.75-.12-3.56.33.21,1.53.71,3.73,0,3.4a5,5,0,0,1,1.88,3.19,6.18,6.18,0,0,0,2.54,3.8c-.46.39,1.12,2.62-.47,2.66,1.84,3,.6-1.14,1.39-1.18,2.08,2,2.61,5.25,3.41,8.62.19.85.4,1.71.64,2.57s.44,1.75.74,2.62a16.57,16.57,0,0,0,2.7,5.08,36.22,36.22,0,0,0,4,6.37c.63.83,1.26,1.65,1.89,2.63a26.35,26.35,0,0,1,1.76,3.63c-.43,2.28-2.46-1.19-2.46-1.19a17.36,17.36,0,0,0,.47,4.66,35.35,35.35,0,0,0,1.48,4.29c-.62-.54-.92.2-1.4,1.28.6,2.48,2.4,1.3,2.14,4.78a9.39,9.39,0,0,1-2.76-2.11c.53,1.42,1.19,2.82,1.86,4.24s1.18,2.89,1.64,4.41c-.91.95-1.77-1.67-2.57-2.65.89,3.38,2.1,8.82,3.69,9.78l.4-2.31c.18,1.28-1.31.79-1.71-.11-1.63-2.83,0-4.36.57-4.61l.66,2.17c1.56-1.33,1.13-3.58.28-6s-2.38-5-2.65-7.24l2.79,1.41-2.85-4.19a1.89,1.89,0,0,1,1.1-1.16c.46-.11,1,.18,1.37,1.25.57-3.46-1.49-2.63-.76-5.68.14-.35.29-.24.45,0l-1.44-3c.65.49,1.59-.94,1.68,1.07a11.38,11.38,0,0,0-.57-3.91,22.3,22.3,0,0,0-1.35-2.92c-.91-1.69-1.64-3-1-4.27l.28.42a10.67,10.67,0,0,0-1.7-3.24c-.41-.44-.68-.39-1-.27-.57.25-1.23.76-3.2-1.69,1-1.74,2-3.5,3-5.29l-2-.12c-.22-.8-.7-2.36.1-2.34-2.3-2.4-.56.77-2.32-.46,0-2.13-1.09-4.62-2.05-6.75s-1.7-3.94-.55-5c-1.86-.71.57,3.89-2,.45,1.18-1.2.54-2.27-.4-3.51s-2.32-2.57-2.5-4.51c1.94.25,2.76,3.72,2.39-.18-1.73-.36-2.4-2-2.88-3.87s-.93-3.93-1.91-5.14c-1,.47-2-.86-3.19-2.82a54,54,0,0,0-4.39-6.42c.87-.17-4.41-8.7-6.79-13l.38-.11c-1.16.3-2.42-.58-3.71-1.86-.65-.63-1.3-1.37-2-2.1a25.91,25.91,0,0,0-2-2c1.09-.74,1.94-.61,3.65.53-.72-.88-1.49-1.72-2.23-2.59-1.06-.15-2-.71-3.67-2.2l1.8-.45a28.25,28.25,0,0,0-2.5-2.38L394.28,114a31.61,31.61,0,0,1-2.86-2.53c-.46-.47-.92-1-1.35-1.51a19.06,19.06,0,0,1-1.35-1.68c-1.29.9.29,6.19-4.78,2.77.41-.75,1.23-1.94,2.62-1.08-.45-.29-1.82-.79-2.34-1.77l2.73.68c-1.48-2.27-1.8-.11-3.23-1.65.84-.84-.55-1.69.31-2.18.47.29,1,1.63,1.9,1.85a22.12,22.12,0,0,1-2.2-3,7.46,7.46,0,0,1-1.15-2.58c-.29.64-1.07,1.18-2.49.16-3.47-2.9-.23-2.09-1.85-4.3-1.33-.12-3.08-2.57-4.25-1.23-1-.83-.71-1.63-.82-2.32-1.18-.41-3.34-2.11-5.17-3.19s-3.24-1.66-2.72-.14l.41.45c-.11,0-.22-.11-.36-.16h0a25.85,25.85,0,0,1-5.07-2.87c-1.61-1.11-3.21-2.27-4.77-3.51a45.55,45.55,0,0,0-9.77-6.43l.3-.51-6.6-2.81a18.54,18.54,0,0,0-6-1.77c-1.21-.55-2.42-2.28-1.61-2.69-1.67-.51-2.66-.65-3.75-1a22.79,22.79,0,0,1-4.45-2.33c3.64.32-.78-1.3,3.62.61-4-2.12-4.64-3.44-9.75-3.64,2.09-.89-2.61-2.9-4.81-3.16l2.67,2A44.66,44.66,0,0,1,309,60.29l1.71-1.54a17.35,17.35,0,0,0-6.31-2.31,37.09,37.09,0,0,0-6.22-.54,28.54,28.54,0,0,1-5.73-.52,12.1,12.1,0,0,1-2.6-.89A9.73,9.73,0,0,1,287.44,53c-2.68.93,4.8,1.85,2.3,3.07-4.1-1-8-4.64-9.39-4.86a7.35,7.35,0,0,0-5.82.22,10.68,10.68,0,0,1-2.43.74,11.44,11.44,0,0,1-3.57-.19c.72.77,1.24,2.71-3.3,3-4.15-.58-5-3.37-2.27-3.74,1,0,1.5.28,1.44.52,1.39-.16,3.23-.32,1.6-1.22l-.61.67a31.9,31.9,0,0,0-4.58-1.1c-1.56-.3-2.68-.57-2-1.15-3.29.6-1.43,1.13.95,1.57a32.54,32.54,0,0,0-7.06-.67c-1.09,0-2.18,0-3.36,0a38.15,38.15,0,0,1-3.85-.16c.91.36,1.75,1.18.85,1.2-4.15-.34-5.06,0-5.61.52s-.77,1.12-3.53,1.5c-3.24-.84,1-2.67-4.61-1.33-3.51-.47-.91-1.83.44-2.51a14.2,14.2,0,0,1-3.72.72,18.89,18.89,0,0,1-3.44,0c-2.19-.15-4.15-.54-5.65-.48l2.66-.92a22.52,22.52,0,0,1-4.31.91c.59.36,1.19.79,1.78,1.18-1.64-.07-3,.24-3-.37-1.48,1.21,1.62,2.12-1.38,4-2.22-.32-6.22,1.85-7.3.23,6.72-.66-1.13-1.76,4.45-3.09a11.92,11.92,0,0,1-4,.69c-.28-.15.14-.43.56-.61-6.71-.24-2.48,2.75-9,4.19.28-.61-.22-1-.92-1.2a3.3,3.3,0,0,0-2.09.15c2.62-.72,1.68,1.37-.46,2.83-4.33.36-4.29,1.85-6.45,2.37l2.56-.32a3.26,3.26,0,0,1-1.84,1.46c-.92.42-2.09.89-3.43,1.52-.5-.71,2.36-1.4,1.25-1.41-1.27,1.41-3.16,1.54-5.25,1.66a17.72,17.72,0,0,0-3.22.35,8,8,0,0,0-3.06,1.38c-2.24.11-.92-1.79-2.85-1.55a10.14,10.14,0,0,1-5.07,2,10.34,10.34,0,0,0-5.26,2.1c2,.64,2.12.23-.75,3.06l7.71-4.59-4.36,4.25c2.44-1.06,4.76-3.2,6.36-3.53-2.06,2.09-1.9,1.71-.29,2.26-2.08-.24-3.61.8-5.15,1.93a11.6,11.6,0,0,1-5.28,2.66l-1.45-3.23a19.73,19.73,0,0,0-8,4.4c-1.21,1-2.46,2.06-3.88,3.07a40.68,40.68,0,0,1-4.87,2.91c.86-.3,1.69-.64,2.58-.89C146.94,80.91,143,82.07,141,84c-.44-1.12-2.09-.58-3.47-.56.61.64-5,3.48-4.25,5.83-1.3.3-2.64.56-3.92.93-5.68,3.67-4,7.28-9,11.16.61-2.23-2.15-1,.51-4.48-1.63,1.4-3.24,2.51-2.73,3.15-.71.14-1.59,1.4-2.52,2.72s-1.9,2.71-3,3c-.3,1,.35,2.1-1.44,3.68-.36,0-.41-.43-.41-.43.21.22-.34,1-.6,1.68s-.27,1.25.91,1a14.07,14.07,0,0,0-5.05,3c-.81.7-1.59,1.47-2.36,2.27s-1.45,1.7-2.16,2.57c-1.41,1.73-2.8,3.45-4.2,4.89a12.58,12.58,0,0,1-4.25,3.34c-.64,1-1.32,2-2,3s-1.32,2.16-2,3.22c-1.32,2.15-2.69,4.19-3.81,6-.15-.42-.49-.34,0-.94-4.07,4.33.89,4.85-3.64,9.75-1.66,1-1.45.08-1-.88s1.13-1.92.25-1.23c-1.94-.65-2.82,1.19-3.76,3.49s-2,5-3.94,6.54l.3-1.08c-2.73,2.48-2.62,8.1-5.07,13.1,0,0-.2-.39-.52-.27a18.22,18.22,0,0,1-.26,3.63c-.23,1.31-.44,2.77-.77,4.22-.6,2.93-1.57,5.9-2.09,8.53-.91-2.08,0-2.57-1.77-2.13-.56,2.35,2.56.19,1.45,4.82-1.27,1.2-3.11,4.22-4.77,4.2.37-1.47.89-2.89,1.33-4.34A4.52,4.52,0,0,0,59,191a15.73,15.73,0,0,1-.65,4.17l-.82-.55c-1.67,6.82.75,7.51-1.12,14.71l.87-.6c.66,2.21.26,3-.31,3.73a3.68,3.68,0,0,0-.66,3.65l-2.55.81c0,.69.07,1.63.12,2.74s.22,2.39.34,3.73.21,2.72.27,4.08.08,2.68.12,3.88a17.53,17.53,0,0,1-1.47-5.81c-.28-2.25-.5-4.6-.75-6.42-.4,2.66-1,9.1,0,10.59-.1-1.09-.5-2.5,0-3.52a28.78,28.78,0,0,1,1.58,13c-2.31-.61-2.7,2.85-3,6.92s-.13,8.75-1.9,10.76c.25,1.18.42,2.36.56,3.54s.32,2.37.42,3.55c.21,2.38.21,4.79.29,7.26s.22,5,.39,7.57c.05.65.08,1.3.15,2l.27,2c.2,1.33.44,2.68.71,4,2.83-4.51.67,3.17,4.15,1.8.32,1.23.58,2.07.7,2.65s.11.88,0,1c-.13,2.66-.28,5.35-.37,8.06-.26,1-.63.49-1-.26s-.71-1.71-1.09-1.5a16.67,16.67,0,0,1,.32,2.84,1.71,1.71,0,0,1-.34,1.09c-.36.47-.88.73-.83,2.69,1.06-1.1,2.35,1.4,2.77,4.67l.37-4.87a11.84,11.84,0,0,1,1.6,4.25,11.45,11.45,0,0,1,0,3c-.18,1.87-.35,3.79,1.85,7.27l-1.9-2c.92,1.87,2.36,5.4,4,8.84.41.85.84,1.7,1.29,2.51s1,1.55,1.49,2.24A10.75,10.75,0,0,0,68,334.17c-.09.83-.6,2.14-1.58.6A31.82,31.82,0,0,0,68,338.2c.64,1.12,1.32,2.24,2,3.36,1.43,2.22,2.89,4.46,4.49,6.52s3,4.14,4.28,6.12a25,25,0,0,1,3,5.66l-1.15-.14c1.22,1.39,3.07,1.78,3.67,4.12-.37.12-1.16-.09-.72.63.83.63,4.1,3,5.08,5.32l-2-1.09a22.38,22.38,0,0,0,3.82,5.22,35.86,35.86,0,0,0,4.14,3.7,74.48,74.48,0,0,1,8.67,6.62c-1,.88-.34,2.82.85,4.94a38,38,0,0,0,4.15,5.83l-.36.17a61.51,61.51,0,0,0,5.87,5.26c2,1.47,4,2.77,6,4s4.05,2.33,6.12,3.5,4.14,2.41,6.41,3.64a20.93,20.93,0,0,0,4.25,4.76,74.37,74.37,0,0,0,6.7,4.89c.61.42,1.23.83,1.86,1.25s1.28.78,1.93,1.18L151,426c2.5,1.64,5,3.09,7.13,4.63-1.19-1.15,1.17-1.71,2.9-1.13,1.88,1.66,6.78,1.16,5.4,3.22l-.76-.39c.67,2.88,5.46,4.48,9.09,5.88l1.76-2.71a19.11,19.11,0,0,0,7.32,4.59c1.43.55,2.91,1,4.4,1.45.75.21,1.5.43,2.25.6l2.25.47c3,.57,5.8,1.17,8.18,1.81s4.29,1.45,5.42,2.77a34.2,34.2,0,0,1,4,.07,23.23,23.23,0,0,0,4-.08l-.43,1.65,4.47,1.08c1.38.33,2.69.5,4.05.72s2.78.38,4.38.55l2.55.25,2.94.1-1.82,1.08c2.37.24,4-.87,5.5-2a17.61,17.61,0,0,1,2.33-1.57,6.18,6.18,0,0,1,2.79-.69l1.19,2.57c2.06,0,4.11.22,6.18.44l1.55.17,1.55.09,3.11.16a44.06,44.06,0,0,0,6.19-.1,28.57,28.57,0,0,0,6.06-1.44c-.1.38-.29,1.13-1.61,1.33,3.87,0,15.21,0,13.31-3.2.43,2.34,8.44-1.14,12.53-3l-.33,1.79c3.21-2.93,3.18-3.52,8.07-5.26,1.24-.07,1.38,1.06-.32,1,4.2-.16,2.66-2.37,7.66-2.83l-1.48,1.53c4.09-1,3.63-1.44,5.43-3.38,2.28-1.48,7.64-2.12,8.76-.94a5.84,5.84,0,0,1,4.36-3.56c.52.4-.18,1.06-.54,1.39a19.89,19.89,0,0,0,4.43-1.53,31.61,31.61,0,0,0,3.25-2,13.08,13.08,0,0,1,6.21-2.81,1.22,1.22,0,0,0,1.17.53c-1.24.65-2.48,1.16-3.58,1.65l-2.91,1.26a11,11,0,0,1-2.43.92c.6,1.42,4.9-.23,2.43,3.23,1.45-1.3,3.35-3.17,5.4-4.85a19.66,19.66,0,0,1,6.32-4.07,2,2,0,0,1,.77.2l-.33.36a6,6,0,0,0,2.38-1.51,20.49,20.49,0,0,0,3.42-1.43c.54.43,1.77-.08,3.11-.83s2.8-1.73,3.76-2.35c-1-1.33,1.59-2.7-1.48-2.38.36-.1-.24.41-1.49,1.26a4.09,4.09,0,0,0-.74.63.83.83,0,0,1,.06-.21c-1.26.78-2.92,1.78-4.81,2.9,1.13-1.64,2.36-3.18,5-3.62.45-1.5.9-3.16,1.22-4a24.38,24.38,0,0,0,6.39-.68c2.11-.38,3.85-.88,4.62-.51,1.28-1.2,2.73-2.42,4.21-3.66s2.89-2.62,4.25-3.93a34.35,34.35,0,0,0,3.55-4,12,12,0,0,0,1.9-4c1.2-1.57,2.29-.77,3.17-.88-.64,1-1.69,1.82-1.86,2.57a28.88,28.88,0,0,1,2.35-2.6l1.39-1.4,1.29-1.46c1.66-1.93,2.91-3.72,2.47-4.83,2.12-1.33,2-.49,1.89.07-.05.28-.09.49.18.32a11.7,11.7,0,0,0,1.94-2l-.15,1.14a24.91,24.91,0,0,0,6.88-6.25,64.84,64.84,0,0,0,4.32-7.45,58.8,58.8,0,0,1,4.26-7.66,43.46,43.46,0,0,1,2.93-3.74,29,29,0,0,1,3.93-3.62c-.82.67-1.22,1-1.64,1,.7-.79,1.41-1.57,2.07-2.4s1.26-1.7,1.87-2.57c1.22-1.73,2.41-3.51,3.53-5.34s2.08-3.75,3.08-5.65c.5-1,1-1.9,1.49-2.87l1.36-2.93q1.38-2.91,2.74-5.82t2.65-5.82c.48-1,.95-1.9,1.42-2.85s.9-1.9,1.38-2.84q1.44-2.82,3.12-5.52c2.12-4.26,1-5.22.84-8.25l2.05-.42c-.17-1.77-.42-3.55-.64-5.3a12.13,12.13,0,0,1,1.35-4.74c.69-1.45,1.51-2.85,2.34-4.32a24.91,24.91,0,0,0,2.16-4.79,15,15,0,0,0,.32-6.06l-1.4.9c.38-1.53.69-4,.94-6s.53-3.57,1.2-3.22c-.18-.35-1.13-1.18-.35-2.32l1,0c-.12-1.32-.2-2.63-.34-3.94l-.52-3.92c.57-2.95,1.49-2.67,2.38-2.72a1.37,1.37,0,0,0,1.25-.8,9.3,9.3,0,0,0,.81-4.09c-.28-3.34-2.53-9.41-3.19-8.17-.08,1.32-.68,3.35-1.63,3.42l-.42-2.95c-2.78-.57-5.59-2.68-7.71,4.24l1.58,4.92-1.47,1.49c.1-1.36.09-2.72.1-4.08a4,4,0,0,0-.55,2.94,14.19,14.19,0,0,0,.89,2.51,3.18,3.18,0,0,0-1.64,1.92c.76,1.64,1.54,3.31,2.29,5-1.16.46-1.93-2.33-2.89.76.94,2.35,2.7-1.87,3,1.91-1.55,2.18-2.49,1.35-1.76,4.21-.76.28-1.14-.36-1.32-1.47a18.69,18.69,0,0,1,.12,4.33c-.09,1.46-.08,2.79.54,3.54-1,1.06-1.25,3.09-1.58,4.78s-.88,3-2.14,2.58a15.92,15.92,0,0,1,.67,6.83c-1.09-2.38-1.54-.33-2.32,2s-1.61,5-3.09,4a5.9,5.9,0,0,1,.5,3.31,26.38,26.38,0,0,1-.89,4.09l-1.26,4.43a20.63,20.63,0,0,0-.94,4.31c-.1-.36-.31-1.08,0-1.46-1.33,2.7-2.44,3.19-3.63,4.76,2,1.25.57,5.74.83,8.68-3.57,2.4-1.57-3.22-4-3.07.9.31.7,2,.46,3.47s-.53,2.86.47,2.65c-2.54,1.89-1.72,1.87-4.11,2.25,2.37,1.8-.69,2.57-.32,5.44-3.29,2.83-2.91-.46-4.35,3.86C408.68,347.07,409.73,343.13,409.73,343.13Zm-72.5,75.65v0l1.93-1.09Zm-8.11,4c1-.4,2.3-.93,3.6-1.57.53.37.5,1.1-.35,1.44C332.65,422.08,330.56,422.66,329.12,422.77ZM352,424c-1.19,1-1.8.93-2.15.73.6-.38,1.3-.84,2.19-1.49a2.16,2.16,0,0,0,.05-.27A2,2,0,0,1,352,424Z"/><path class="cls-5" d="M353.2,420.77c.17-.14.24-.26.47-.43-.33,0-.66.07-1,.13-.06.25-.13.5-.18.72Z"/><path class="cls-5" d="M365.28,90.28l-.14-.14a1.07,1.07,0,0,1,.19.43A2,2,0,0,1,365.28,90.28Z"/><polygon class="cls-5" points="207.94 431.99 207.85 432.41 208.69 432.22 207.94 431.99"/><path class="cls-5" d="M398.23,129.22a1.21,1.21,0,0,0,.07.79C398.37,129.92,398.31,129.6,398.23,129.22Z"/><path class="cls-5" d="M410.58,146.94l1.14,2.89A22.23,22.23,0,0,0,410.58,146.94Z"/><path class="cls-5" d="M418.21,161.66a1.9,1.9,0,0,0,.79,0s0,0,0,0Z"/><path class="cls-5" d="M195.19,70.12a4,4,0,0,0-.59.24C193.28,71.1,194.2,70.67,195.19,70.12Z"/><path class="cls-5" d="M272.18,59.35a19.44,19.44,0,0,1-2.6.47C271,60.13,272,60.3,272.18,59.35Z"/><path class="cls-5" d="M122.53,114.62s0,0,0,0l-.38.36Z"/><path class="cls-5" d="M265.93,59.52a8,8,0,0,0,3.65.3A12.09,12.09,0,0,0,265.93,59.52Z"/><path class="cls-5" d="M438.16,229.85l0,.79a.37.37,0,0,1,.28.07Z"/><path class="cls-5" d="M438.47,230.71l.26.86C438.7,231.17,438.66,230.82,438.47,230.71Z"/><path class="cls-5" d="M439.3,233.39l-.57-1.82C438.78,232.21,438.79,233,439.3,233.39Z"/><path class="cls-5" d="M435.35,208.2l-.65-.11A.91.91,0,0,0,435.35,208.2Z"/><path class="cls-5" d="M433.65,201.78c.3,1.56-.36,4.17.53,6.22l.52.09C433.56,207.3,435.06,203,433.65,201.78Z"/><path class="cls-5" d="M431.64,172.6c.61,1.84,1.13,3.71,1.69,5.55.24-1.17.56-2.75,1.68-.34C434.1,170.26,434.23,179.74,431.64,172.6Z"/><path class="cls-5" d="M424.68,156c1.69,2.64.82-.48,1.22-.51-.71-.75-1.21-1.18-1.4-1.16S424.4,154.81,424.68,156Z"/><path class="cls-5" d="M330.89,68.9l.91-1.27C329.5,66.83,331.54,68.16,330.89,68.9Z"/><path class="cls-5" d="M305.27,67.76c.63.5,1.26,1,1.87,1.56l1.44-1C307.48,68.1,306.39,67.89,305.27,67.76Z"/><polygon class="cls-5" points="293.99 53.52 295.08 53.55 290.98 53.18 293.99 53.52"/><path class="cls-5" d="M94.83,122.55l1.92.63C97.56,121.74,96.15,120.09,94.83,122.55Z"/><path class="cls-5" d="M55.53,208.3a5.07,5.07,0,0,0-1.63,5.12C54.39,211.34,55.49,209.39,55.53,208.3Z"/><path class="cls-5" d="M180.08,439.52l-2-.12c1.2.28,2.38.59,3.6.79C181.13,440,180.6,439.77,180.08,439.52Z"/><path class="cls-6" d="M367.63,184.43l.87,1.4A14.49,14.49,0,0,0,367.63,184.43Z"/><path class="cls-6" d="M222,154.05c1.14-.5,1.59-.77,1.59-.85C222.56,153.7,221.73,154.11,222,154.05Z"/><path class="cls-6" d="M197,164.81a7.67,7.67,0,0,0-1.54.74Z"/><path class="cls-6" d="M365.3,180.84c-.47-.19,1.18,1.85,2.33,3.59C366.89,183.23,366.12,182,365.3,180.84Z"/><path class="cls-6" d="M376.45,234.29c-.15.21-.29.46-.44.69a4.22,4.22,0,0,0,0,.87C376.15,235.32,376.3,234.8,376.45,234.29Z"/><path class="cls-6" d="M360.77,267c.36-.74-.25-1.49-.44-2a4.11,4.11,0,0,1-.22,2A.67.67,0,0,0,360.77,267Z"/><path class="cls-6" d="M345.2,322.39c.16.4.3.8.44,1.21C345.53,323.28,345.35,322.75,345.2,322.39Z"/><path class="cls-6" d="M384.46,211c-.1,0-.11.16-.07.42A.5.5,0,0,0,384.46,211Z"/><path class="cls-6" d="M308.57,324.81l-.28-.6a.71.71,0,0,0-.37,0C308.13,324.39,308.36,324.6,308.57,324.81Z"/><path class="cls-6" d="M160.2,154.6l.25,0C162,154.73,161.15,154.64,160.2,154.6Z"/><path class="cls-6" d="M195.29,239.71c-.4,3.7-1.51-5.65-1.82-.12C193.74,239,195.26,244.24,195.29,239.71Z"/><path class="cls-6" d="M141.94,220.24a3.1,3.1,0,0,0,.22-.94C142.08,219.36,142,219.58,141.94,220.24Z"/><path class="cls-6" d="M130.5,174.51l-1.69,1.61C129.5,175.49,130,175,130.5,174.51Z"/><path class="cls-6" d="M149.69,250a5.35,5.35,0,0,0,.33,1.45,2.06,2.06,0,0,0,0-.36A3.22,3.22,0,0,1,149.69,250Z"/><path class="cls-6" d="M149.69,250c0-.19,0-.39-.07-.65A5.4,5.4,0,0,0,149.69,250Z"/><path class="cls-6" d="M156.6,280.05c0-.18,0-.41,0-.62s-.18-.64-.27-.95C156.43,279,156.51,279.53,156.6,280.05Z"/><path class="cls-6" d="M284,219.78a.15.15,0,0,0,0,.07Z"/><path class="cls-6" d="M335.12,207.78l-.62.5Z"/><path class="cls-6" d="M274.84,280.59c0,.11,0,.22-.07.33C274.8,280.8,274.82,280.69,274.84,280.59Z"/><path class="cls-6" d="M279.37,249h0S279.36,249,279.37,249Z"/><path class="cls-6" d="M151.32,254.38l.09.05S151.35,254.37,151.32,254.38Z"/><path class="cls-6" d="M165.2,155.64l-1.35-.23-.6-.08.66.11C164.36,155.52,164.79,155.58,165.2,155.64Z"/><path class="cls-6" d="M345.59,325.53a11.12,11.12,0,0,0-.22-1.33c-.11-.52-.23-1.1-.37-1.93,0-.37.05-.21.2.12q-.37-.93-.78-1.83c-.28-.61-.55-1.17-.8-1.76.21.33.32.15.45.17s.26.19.63,1.32c-.26-.84-.48-1.55-.69-2.26s-.39-1.36-.54-2a23.08,23.08,0,0,1-.63-3.36,11.34,11.34,0,0,1-.07-1.39,10.13,10.13,0,0,1,.11-1.17,7.89,7.89,0,0,1,.26-1,3.29,3.29,0,0,1,.4-.77l-.06.51c.1-.5.2-.95.28-1.34s.16-.73.22-1c.12-.59.2-1,.23-1.29.07-.58,0-.67-.15-.72s-.29,0-.36-.4c.35-1.1.74-2.3,1.19-3.6.7-.65,1.41-1.28,2.14-1.9l-.45-1.2c.3-.77.94-2.27,1.12-1.8.58-3.22-.5.29-.34-1.69,2.05-3.33,3.67-10.47,5.19-10.53,0-1.7-1.86,3.25-.66-.95,1.73-.29,1.63-4.7,3.63-7.66.24,1.48-1.45,4.41.56,1.46-.3-2.78,3-6.32,4-9.27-.43-.38.12-2,1-4.08s2.14-4.71,3-7.15c.17.5,4.52-8.4,7-12.36l.11.24c-.59-1.51,1.74-5.78,3.31-8.93.54.57.44,1.27-.2,3.13.53-1,1.07-1.92,1.63-2.83a3.57,3.57,0,0,1,.12-.69,5.52,5.52,0,0,1,.27-.77,7.59,7.59,0,0,1,1.34-1.92c0,.4.09.79.15,1.19A15,15,0,0,1,383,229a12.59,12.59,0,0,1,1.73-.62l.47-.13.5-.11.49-.12.33,0,.37-.06a6.09,6.09,0,0,0,1.36-.39,2.73,2.73,0,0,0,1.09-.75,1.08,1.08,0,0,0,.21-.66c0-.13,0-.26,0-.39l0-.41a5.69,5.69,0,0,0-.14-.86c0-.3-.14-.61-.21-.93-.25-.19-.32.19-.44.59a1.76,1.76,0,0,1-.51,1c-.17.09-.32,0-.5-.19a20,20,0,0,0-1.26-4l0,0a3.45,3.45,0,0,1,1.14,1.7c-.29-.73-1.23-2.46-1.65-3.8.67,1.06,1.32,2.13,1.93,3.23a6,6,0,0,0-1.15-2.54,6,6,0,0,1-1.18-2c.59.09-.5-2,.12-1.57.37.7.83,2.35,1.48,3.42a73.18,73.18,0,0,1-2.8-8c-.19.26-.74,0-1.93-2.24-3-5.71-.33-2-1.8-5.29-1.11-1.38-2.73-5-3.64-5.08a5.39,5.39,0,0,1-.88-2.62c-1-1.46-3.12-4.85-4.93-7.45s-3.25-4.38-2.56-2.71c.14.25.29.49.44.74-.11-.13-.22-.3-.36-.46-1.81-2.31-3.59-4.65-5.49-7-.95-1.17-1.93-2.34-3-3.51-.53-.58-1.08-1.16-1.68-1.74-.3-.29-.61-.58-.93-.86l-.54-.46-.59-.45-.61-.42c-.22-.13-.43-.27-.66-.39l-.33-.18-.35-.14a5.78,5.78,0,0,0-.7-.24c-.23-.07-.47-.15-.7-.2l-.71-.16-1.2-.24c-1.57-.28-3.09-.48-4.59-.64a79,79,0,0,0-8.67-.47,1.86,1.86,0,0,0-.1-.25c-6.6.07-14.76.27-19.15,1.14-1.94.12-4.81-.11-4.15-.46-4.89.63-5.3.91-12.69,1.4,4.74-1-1.95-.17,4.93-.92-3.29.26-5.35.38-7.4.62-1,.13-2.06.28-3.23.52l-.44.09-.23,0-.12,0-.07,0-.53.16-1.39.43c.6-.35.28-.47-.21-.51a8,8,0,0,0-.93-1.21l-1-1c-.41-.41-.82-.78-1.13-1.07.37.51.78,1,1.17,1.57l.3.39.07.09,0,.06.06.11c.1.16.19.32.29.47l-.49-.46-.33-.32-.4-.41L290,169l-.38-.39-.33-.38c-1-1.14-2-2.18-3.1-3.2l2.1.75a42.12,42.12,0,0,0-6.84-6.21c-2.44-1.78-4.92-3.39-7.32-4.91s-4.7-3-6.87-4.44c-1.1-.73-2.17-1.46-3.22-2.21s-2.06-1.51-3.21-2.33a3.39,3.39,0,0,0-1-.25c-.1,0,0,.11.23.26.46.3,1.33.81,2.13,1.34,1.61,1.05,3.08,2.16,1.39,1.53l-2.51-1.61c-.43-.27-.86-.54-1.32-.8-.28-.16-.56-.33-.89-.49a3.59,3.59,0,0,0-.74-.44,3.12,3.12,0,0,0-.44-.17,13.13,13.13,0,0,0-3.95-1.21,19.75,19.75,0,0,0-3.73-.17,22.31,22.31,0,0,0-2.7.3c-.34.05-.64.11-.9.17l-.63.15a35.32,35.32,0,0,0-5.2,1.59,29.85,29.85,0,0,0-3.06,1.45,47.92,47.92,0,0,1-8.14,3.51c1.35-.19,2.94,0-3.33,2.77-6.11,2.38-8.21,2.13-4.68.36,1.39-.62,2.18-.84,2.19-.74,1.86-.89,4.35-2,1.71-1.29l-.57.54c-.8.25-1.94.66-3.12,1.11l-1.79.69-.45.18-.42.15-.91.35c-1.24.47-2.29.88-2.91,1.13l-.42.15-.15,0s0,0,0,0-.15,0,.12-.24l-.23.13,0,0,0,0h0l-.07,0-.57.31a7.86,7.86,0,0,0-.71.42c-.3.19-.25.23,0,.16s.82-.26,1.49-.51l.2-.07.12,0,.06,0,.16-.08.07,0-.16.08-.05,0h0l0,0-.15,0-.65.26c-.89.36-1.74.72-2.55,1.07-1.62.71-3.11,1.4-4.6,2.11-3,1.43-6,2.92-9.89,4.8,1.34-.52,2.73-.85,1.52-.23-1.44.69-2.6,1.26-3.5,1.74l-1.21.64-.49.27-.22.12-.17.1a3.88,3.88,0,0,0-.94.75,4.72,4.72,0,0,1-.75.74,7.13,7.13,0,0,1-.9.61,6.53,6.53,0,0,1-.72.39c-.16.11-.26,0-.37,0a1.27,1.27,0,0,1-.27-.25,1.37,1.37,0,0,1,0-1.07.83.83,0,0,1,.26-.36.38.38,0,0,0,.16-.27c0-.12-.06-.29-.36-.55l0,0h0l-.17-.15c-.13-.1-.26-.22-.4-.34-.3-.22-.63-.48-1-.73-1.59-1.38-1.63-1.59-.95-1.47a7.64,7.64,0,0,1,1.35.49,12.75,12.75,0,0,1,1.48.78c-1.5-1-2.92-1.79-4.26-2.55s-2.58-1.44-3.77-2.08a57.33,57.33,0,0,0-6.18-3.1c1.22.33,2.41.69,3.6,1.06-2.14-.67-3.79-1.27-5.53-1.86.48.4,1,.8,1.4,1.21-1.89-.81-3.66-1.35-3.39-1.56-1.25-.15-1.07.2-1.17.48s-.46.5-2.85.15a29.13,29.13,0,0,0-5.69-1.28c-2.12-.32-4.2-.45-4.69-.82,1.51,0,2.44.16,3.17.22s1.13.12,1.41.13c.56,0,.46-.13.31-.28s-.34-.33.06-.4a4.65,4.65,0,0,1,1.11,0l.42,0-.79-.13-1.63-.25c-.61-.08-1.2-.17-1.91-.23-.18-.06-.06-.09.22-.11a9.11,9.11,0,0,1,1.06,0,19.25,19.25,0,0,0-3.64-.29c-.41,0-.8,0-1.15.05l-1,.13a12.17,12.17,0,0,0-1.72.34,10.52,10.52,0,0,0-1.36.42l-.29.1-.07,0h0s0,0,0,0h0l-.14.06-.49.24a8.89,8.89,0,0,0-1.5,1,33.66,33.66,0,0,0-2.51,2.35c-.84.82-2.06,1.93-4.09,3.68.59-1.08-2.7,1.28-3.87,2.48,3.2-2.85,2.23-1.06-.29,1.68-5.25,4.46-5,5.12-7.5,7.56,1-.92,2-1.84,3-2.75-.5,1.1-2.94,3.4-5.93,6.79-.2.06,0-.22.27-.59-1.3,1.55-3,3.16-4.78,4.91-1.15,1.14-2.35,2.33-3.49,3.61-.57.64-1.13,1.29-1.66,2-.13.18-.27.35-.4.52l-.55.75c-.38.51-.71,1-1,1.52s-.69.85-.92,1.13a6.29,6.29,0,0,1-.56.65,1.72,1.72,0,0,1-.61.46,1.1,1.1,0,0,0-.53.37,4.34,4.34,0,0,0-.82,1.53,2.7,2.7,0,0,0,.11,1.26,1.72,1.72,0,0,0,.83.75,6.16,6.16,0,0,0,2.27.52,40.55,40.55,0,0,0,5-.12l.55,0h.37l.66,0,1.44,0c1,0,2.29-.06,3.9-.08-.69-.38-1.18-.51-.85-.62a18.27,18.27,0,0,1,3.86-.2,30.65,30.65,0,0,0-5.44-.12c-.93.06-1.88.16-2.83.3l-.74.12-.22,0-.29,0-.63.09c-.85.12-1.69.21-2.51.28,1.09-.14,2.23-.33,3.28-.54.52-.1.76-.17,1.1-.25s.64-.14,1-.21a36.5,36.5,0,0,1,3.83-.57,25.19,25.19,0,0,0-5.27.47l-.41.07-.47.07-1,.13q-.95.12-1.77.18a9.46,9.46,0,0,1-2.59-.06,16.74,16.74,0,0,0,3-.24,8.58,8.58,0,0,0,1.21-.24c.29-.12-.44-.13-1.28-.35a12.66,12.66,0,0,0,2.26.06l1.21-.09.92-.1c1.22-.12,2.46-.26,3.72-.35a16.19,16.19,0,0,1,7.21.83l-1.39,1.46.74.28.8.31c.54.21,1.08.4,1.62.58s1.09.36,1.64.53l.11,0h.13l.14,0,.29,0,.09.2.06.11,0,.05h0l0,.05,0,.08c.15.47.29,1,.44,1.42.3,1,.61,1.94.91,3a48.83,48.83,0,0,1,1.56,7.09c-.06-.9-.13-1.81-.19-2.72,1,.79,1.12,4.93,2,7.41-.68,0-.57,1.73-.72,3,.43-.32,1.21,5.88,2.58,6.13l0,3.9c1.08,6.58,3.29,6.7,4.43,13-1-1.62-.83,1.36-2.21-2.62.46,2.08.77,4,1.18,3.85-.09,1.35,2,5.43,1.93,7.55.45.77,1.1.83,1.56,3.17,0,.18-.12.18-.19.15.34.42,1.1,3.25,1.26,1.17-.34,7,4.09,17.78,4,23.83,1.2,4.42,2.53,9.79,3.33,13.89-.2-.21-.25.08-.35-.72.3,2.92.79,3.67,1.3,4.53a6.25,6.25,0,0,1,.71,1.67,14,14,0,0,1,.37,3.54c-.14.89-.27,1.11-.35,1a3.81,3.81,0,0,1-.22-1.08c-.12-1-.25-2.18-.29-1.11a2.79,2.79,0,0,0-.51,2c0,.47,0,1,0,1.53,0,.27,0,.54,0,.79v.31a2.42,2.42,0,0,1,0,.25,1.84,1.84,0,0,1-.43.86l-.24.26-.3.29c-.21.19-.44.38-.68.57a15.19,15.19,0,0,1-1.56,1.05l-.4.22-.43.23-1,.56c.19-.17.4-.33.6-.49l.57-.43-.16.08-.2.11-.41.24c-.27.17-.55.37-.83.58a10.91,10.91,0,0,0-1.62,1.58,9.74,9.74,0,0,0-1.35,2.11,9.56,9.56,0,0,0-.76,2.4,7.82,7.82,0,0,0-.06,2.51,6.64,6.64,0,0,0,.79,2.32,8,8,0,0,0,1.42,1.81,7.41,7.41,0,0,0,2,1.45.62.62,0,0,0-.18,0c-.07,0-.12.07,0,.19a5.41,5.41,0,0,0,1.27.19,4.06,4.06,0,0,0,.82-.08l.43-.12a3.18,3.18,0,0,0,.37-.14,11.56,11.56,0,0,0,1.07-.57l1-.59,2-1.26c.67-.43,1.36-.89,2-1.29a64.08,64.08,0,0,1,8.52-4.22c-1.53,1.19-2.36,1.25-1.19,1.4,1.19-.52,1-.66,1-.94s.41-.71,2.84-1.64c.83-.13,2.14-.4,3.32-.58a5,5,0,0,1,2.53,0c-1.54.46-3.07.94-4.6,1.46,2.52,0,5.95-1.87,8.44-2.35-.08.14-.17.28-.25.43,3.54-1,5.33-1.57,7.18-2.18a39.12,39.12,0,0,1,7.7-1.72l-.83-.15a8.61,8.61,0,0,1,3.89-.68,12.4,12.4,0,0,0,1.51,0,9.06,9.06,0,0,0,2.5-.56,10.87,10.87,0,0,0,1.64.48c.2-.09.42-.18.66-.3a9.39,9.39,0,0,0,.84-.47,5.29,5.29,0,0,0,1.58-1.52,4.64,4.64,0,0,0,.77-2.3c0-.21,0-.42,0-.64a4,4,0,0,0-.06-.62,7.8,7.8,0,0,0-.25-1.11c-.11-.36-.24-.71-.38-1.05,0-.09-.08-.19-.11-.28a3,3,0,0,0-.16-.3c-.1-.19-.22-.35-.33-.53a6.13,6.13,0,0,0-1.83-1.65,10.89,10.89,0,0,0-4.27-1.28h.62c.22,0,.46,0,.71,0a9.18,9.18,0,0,1,1.62.28,8.18,8.18,0,0,1,1.76.74,6.08,6.08,0,0,1,1.62,1.36c.11.14.23.28.33.43l.15.23.14.25a1.22,1.22,0,0,1,.14.28l.11.24.18.44a8.88,8.88,0,0,1,.52,1.92c0,.16,0,.38.05.57s0,.4,0,.6a5.5,5.5,0,0,1-.17,1.15,5.29,5.29,0,0,1-1,2,5.16,5.16,0,0,0,1-1.56,5.84,5.84,0,0,0,.41-2.18,5.15,5.15,0,0,0,0-.57c0-.17,0-.34,0-.51a9.79,9.79,0,0,0-.2-1,8.75,8.75,0,0,0-.28-.91l-.08-.23a2.49,2.49,0,0,0-.11-.29l-.15-.29c0-.08-.08-.16-.13-.24a6.33,6.33,0,0,0-1.4-1.66,7.16,7.16,0,0,0-1.6-1,6.07,6.07,0,0,0-2.31-.6,10.66,10.66,0,0,1,2.15.63,5,5,0,0,1,1.89,1.38,8.91,8.91,0,0,0-3.17-1.42,12.94,12.94,0,0,0-1.76-.3l-.45-.05-.22,0h-.2l-.77-.09a7.16,7.16,0,0,1-1.54-.41,5.93,5.93,0,0,1-1.46-.75,5.62,5.62,0,0,1-1.21-1.1.92.92,0,0,1-.19-.33c0-.12-.08-.25-.11-.38s-.07-.28-.11-.44-.07-.31-.1-.47c.52.11.63-.66.56-2s-.32-3.17-.58-5.19c-.54-4-1.16-8.67-.57-10.74-1.87-9.24-1.82-18.68-3.08-29.61-1.32,4.18-.39-3.2-2.11-2.21a14.71,14.71,0,0,1-.37-3.75c0,.18,0,.36,0,.55,0-.24,0-.37,0-.57h0c.11-2.65.24-5.3.37-8,.38-1.93.63,2.37,1,2.06-.35-5.64.58-2.49.76-6.29-.6.88-1.13-1.79-1.13-5-.17,1.55-.33,3.11-.49,4.66-1.69-7.68,1-7.06-.62-14.82l.81,2.41c-.69-4-1.1-15-3-18.74.18-.76.67-1.81,1,0-.06-1.3-.16-2.63-.29-4l-.21-2v-.14a.56.56,0,0,0,0-.12l-.07-.25.36-.29.1-.08,0,0h0l.05,0,.11-.07.85-.56c1.15-.75,2.29-1.48,3.44-2.21,2.28-1.45,4.56-2.85,6.8-4.16l3.32-1.89c1.09-.61,2.16-1.2,3.2-1.75,2.1-1.1,4.12-2.06,6-2.86l-.66.74c1.13-.62,2-1.25,3-1.87.51-.31,1-.62,1.65-.92.31-.15.63-.3,1-.45l.26-.11.11,0,.22,0c0,.16,0,.41.26.31a3.69,3.69,0,0,1,.6-.54,5.37,5.37,0,0,1,1.12.27l.86.37.43.2.35.16.26.11a9.44,9.44,0,0,1,1.35.66c-.43-.12-.86-.24-1.29-.34-.24-.07-.34-.07-.84-.24a3.37,3.37,0,0,0-.43-.14l-.35-.11.52.28.48.22.25.11.89.43c.57.29,1.12.57,1.65.87,1,.59,2,1.2,2.89,1.81.44.3.87.61,1.28.92l.62.47.41.32a8.3,8.3,0,0,1,1.46,1.79,14.65,14.65,0,0,1,1.17,2.18,20,20,0,0,1,.92,2.39,26.1,26.1,0,0,1,1.09,5.39c-.74,0-1.12,1.86-1.44,4.18s-.53,5.12-.68,7l-.2-.13c-.2,5.54-.07,10.26.13,14.88s.47,9.15.51,14.31c-.85,3.18-1.21,8.6-1.5,14.49s-.55,12.28-1.07,17.41c.27-1.57.93.28,1,2.11-.32,2.4.61,6.68-.46,6.27,0-.29,0-.57,0-.86-1.11,1.79-.95,6.75-1.06,10.61l1.35.68a38.77,38.77,0,0,0-.73,5.17c-.08.91-.13,1.86-.17,2.81,0,.21,0,.41,0,.62v.21c0,.14,0,.28,0,.43l-.76.33-.38.18-.19.09-.1,0-.16.08-.77.4-.72.36-1.43.7c-.95.46-1.91.9-2.85,1.31-.08,0-.33.14-.51.24l-.38.2-.68.37-.17.09-.12.06-.16.09q-.31.19-.57.39a7.62,7.62,0,0,0-.88.82,4.87,4.87,0,0,0-1.19,1.9,5.68,5.68,0,0,0-.21,1.06l-.09.71-.09.67c0,.28-.05.55-.06.8s0,.48,0,.71,0,.55,0,.82a57.72,57.72,0,0,1-.17,6.22c0,.18,0,.37.08.6,2-.34,4.13-.58,6.18-.78l1.52-.15.35,0,.24,0,.46-.05,1.82-.22c0,.21-.07.43-.11.65,3.44,0,6,.14,8.77.3s5.75.33,10,.72l-1.74.28c4.75.55,6.12-1.19,10.51-.54l1.23,1.19a100.16,100.16,0,0,1,10.08,2.35c1.65.46,3.29.95,4.92,1.45l1.24.39,2.1.65,4.29,1.38c.45-2.32.86-4.63,1.19-6.82.09.25.28.74-.16,2.87l.41-1.73c.08-.32.16-.66.24-1,.05-.17.09-.35.13-.52l.1-.34c.06-.25.13-.51.2-.77l.09-.42.06-.25.06-.34a8.55,8.55,0,0,0,.13-2.9,6.31,6.31,0,0,0-.18-.72l-.06-.18a1.3,1.3,0,0,1-.08-.17,3.78,3.78,0,0,0-.17-.35,6.13,6.13,0,0,0-.92-1.24,11.91,11.91,0,0,0-1.19-1.05c-.21-.16-.43-.31-.65-.46l-.32-.22-.26-.16c-.27-.18-.54-.34-.79-.49l-.39-.21-.34-.19-.64-.33-.31-.16h-.05l0,0-.35-.21a3.26,3.26,0,0,0-.47-.25,3.64,3.64,0,0,0-.86-.31l.7.26a3.3,3.3,0,0,0-1-.26.26.26,0,0,0-.29.18,2.56,2.56,0,0,0-.5-.73,4.41,4.41,0,0,1-.45-.63,2.84,2.84,0,0,1-.2-.39,3.48,3.48,0,0,1-.17-.54l-.06-.36a1.16,1.16,0,0,1,0-.18,2,2,0,0,1,0-.23c0-.32-.08-.61-.1-1s-.05-.68-.07-1,0-.7-.05-1.05c-.06-1.4-.09-2.77-.11-3.89l.64.81c-.15-1-.27-1.71-.37-2.35s-.18-1.2-.22-1.79a38.21,38.21,0,0,1,.06-5.17c.22-1.13.63-1,.4.3.71-3.67-.37-3.15.6-7.92l.24,1.95a15.83,15.83,0,0,0,.05-6.37c0-2.72,1.28-8,2.07-8.44a10.78,10.78,0,0,1,0-5.53c.31-.28.34.66.35,1.14,1.61-6.93.69-10.68,2.23-15.35.28,0,.47-.33.61-.71-.83,5.09-1.52,9.27-1.63,9.65.72.09,1.56-4.31,2-.51,0-3.75-.19-10.22.89-14.54a2,2,0,0,1,.35-.53c0,.16,0,.32,0,.48a12,12,0,0,0,.34-2.81c.36-1.38.6-2.25.84-3.59.73-.38,1.22-5.1,1.64-7.34-.88,0-.26-2.86-1.4-.39a9.43,9.43,0,0,1-.22,2c0,.34-.08.74-.07,1a1.22,1.22,0,0,1-.05-.17l-.87,5.61a13.48,13.48,0,0,1,.69-6.19c-.36-1.28-.72-2.67-.87-3.45,1.71-2.82,3.41-8.61,4.32-9.26.35-3.48,1-7.53,1.43-11.29.21-1.89.38-3.7.43-5.33,0-.41,0-.81,0-1.19,0-.2,0-.39,0-.57a2.72,2.72,0,0,1,0-.28.62.62,0,0,1,0-.13l0-.08c-.09-.43-.2-.9-.34-1.39h0a4.24,4.24,0,0,1,1.86-.23c.62,0,1.08.12,1.63.12l-1.08.3-.25.06-.14,0-.26.08a1.92,1.92,0,0,0-.71.31s0,0,0,.05v0l.93-.3.14,0,.2-.05.6-.14,1.24-.27c1.68-.38,3.46-.75,5.12-1.08,3.3-.69,6.08-1.28,6.44-1.81,6.86-.6-3.23,1.35,5.78-.12l-1.07.44,2.95-.19c.95-.08,1.88-.14,2.79-.2l2.64-.16,1.27,0,1.07,0c.36,0,.73,0,1.12,0a.62.62,0,0,1,.27.13,1.88,1.88,0,0,1,.23.16c.16.11.31.23.47.36l.24.19,0,0,.12.11.23.21.92.86c.62.59,1.23,1.17,1.83,1.76,1.22,1.19,2.41,2.4,3.59,3.64s2.33,2.53,3.5,3.86,2.31,2.7,3.45,4.14l.84,1.09.8,1.06c.41.55.8,1.11,1.17,1.66l-.76.67-.39.31-.09.08-.12.09-.27.24c-.55.47-1.13.94-1.72,1.41a2.18,2.18,0,0,1,.94-.54c-.79.73-1.56,1.48-2.32,2.25l-1.15,1.15c-.39.39-.77.81-1.13,1.23a26.23,26.23,0,0,0-3.61,5.52,38.85,38.85,0,0,0-2.37,6.15c-.63,2.09-1.21,4.19-1.78,6.3-2.27,8.42-4.45,16.82-7.28,24.63-1.49,4.49-1,5.24-1.22,8.24l-1.06.67c-.11,1.72-.23,3.45-.34,5.17-1.15,7.06-4.94,11-5.85,20.19l.78-.92c-.88,3.07-2.1,10-2.53,9.25a3.89,3.89,0,0,1-.27,2.35l-.39-.05a56.2,56.2,0,0,0-.7,8.2,13.36,13.36,0,0,1-.43,2.66c-.15.35-.32.29-.49.33s-.33.17-.41.94a9.63,9.63,0,0,0,0,1.75c0,.2,0,.41.07.64s0,.22.05.34,0,.23,0,.35c.07.47.16,1,.28,1.63a34.85,34.85,0,0,0,2.24,6.33,19.12,19.12,0,0,0,1.21,2.19c.32.45.47.56.38.22a14.32,14.32,0,0,1-.75-2.41c-.17-.77-.2-1.38-.05-1.46.38,1.06.79,2.1,1.27,3.13l.22.06.21.49c.6,1.07,1.28,2.15,2,3.23a6.51,6.51,0,0,0,2.07,2.14c.91.48,3.7.41,8.44.08s9.47-.68,14.18-1.09c1.93-.16,3.53-.31,4.81-.48l-.27.24.93-.34a7.09,7.09,0,0,0,2.78-.78,5.46,5.46,0,0,0,.94-.91.62.62,0,0,1,0,.28,2.56,2.56,0,0,1-.66.88l-.09.08.11,0a4.61,4.61,0,0,0,.46-.29,3,3,0,0,0,.38-.31,2.83,2.83,0,0,0,.51-.65A2.31,2.31,0,0,0,345.59,325.53ZM284.48,224.74c-.13,1.53-.39,2-.59,2.16.1-.71.21-1.55.34-2.64,0,0-.05-.15-.08-.2A1.49,1.49,0,0,1,284.48,224.74Zm59.09,94.89c.19.39.37.81.56,1.26a4,4,0,0,1,.09.51l-.41-1.11c-.15-.35-.28-.71-.41-1.06C343.46,319.36,343.51,319.49,343.57,319.63ZM215.41,156.27l.06,0-.2.08Z"/><path class="cls-6" d="M127.81,178l.2-.24Z"/><path class="cls-6" d="M128.88,176.59c-.26.38-.56.75-.87,1.13C128.7,176.9,129.69,175.88,128.88,176.59Z"/><path class="cls-6" d="M283.81,221.81c0-.22,0-.35,0-.64-.12.29-.24.57-.34.86.06.2.12.4.18.58C283.73,222.34,283.78,222.06,283.81,221.81Z"/><path class="cls-6" d="M368.73,186.35a.48.48,0,0,0-.05-.14S368.71,186.28,368.73,186.35Z"/><path class="cls-6" d="M368.5,185.83a4.11,4.11,0,0,1,.18.38.89.89,0,0,0,0-.14Z"/><path class="cls-6" d="M350.94,288.08q-1.17,2.63-2.29,5.26c.62-.78,1.44-1.79.56.7C352.61,287.75,348.07,295.06,350.94,288.08Z"/><path class="cls-6" d="M358.68,272.33c.54-2,.66-2.44-.5-.49C357.09,274.77,358.59,272.08,358.68,272.33Z"/><path class="cls-6" d="M312.57,169.56v.05S312.58,169.58,312.57,169.56Z"/><path class="cls-6" d="M312.57,169.56c0-.2.07-.41.1-.62C309.38,169.34,312.52,169.2,312.57,169.56Z"/><path class="cls-6" d="M270.78,151.32q-2.41-1.59-5-3.1c1.28.75,2.55,1.51,3.74,2.29Z"/><path class="cls-6" d="M155.35,273.85c-.51-1.51-1.55-1.46-.68,1Z"/><path class="cls-6" d="M199,310.87a15.45,15.45,0,0,0,5.55-.47C202.31,310.59,200.08,310.61,199,310.87Z"/><path class="cls-6" d="M232.58,284.36l.15,3.64c0-.57.05-1.14.08-1.71S232.66,285,232.58,284.36Z"/><g class="cls-7"><rect class="cls-8" width="500" height="500"/></g></g></g></svg>