<svg id="Laag_1" data-name="Laag 1" xmlns="http://www.w3.org/2000/svg" viewBox="0 0 70.99 10.32"><title>De Merovinger Logo</title><path d="M.81,7.87.44,7.72a.58.58,0,0,1-.17-.1s0-.13.15-.22l.17-.15V4.87A19.58,19.58,0,0,1,.65,2.44a5.26,5.26,0,0,1,.71-.34c.19-.07.36-.15.51-.22l.29-.14.12-.06a.2.2,0,0,1,.1,0l.09,0,.07.09,0,.07a.06.06,0,0,1,0,0,.09.09,0,0,1,0,.05L2.51,2a.57.57,0,0,1-.16.07s0,.8,0,2.41l0,2.42.44.16a3.12,3.12,0,0,1,.41.16l.37.16c.21.1.34.14.39.11s.16-.19.19-.49.05-.89.05-1.77v-1c0-.12,0-.24,0-.34s0-.2,0-.28,0-.15,0-.21,0-.13,0-.19a.94.94,0,0,0,0-.16,3,3,0,0,0-.14-.45,1.33,1.33,0,0,0-.2-.35,1.42,1.42,0,0,0-.26-.29,1.46,1.46,0,0,0-.33-.22,2.41,2.41,0,0,0-.43-.17,3.86,3.86,0,0,0-1.06-.1,7.52,7.52,0,0,0-1.21.1l-.32.08L0,1.66c-.11,0,0-.31.26-.92a0,0,0,0,0,0,0L.29.59.42.3A.69.69,0,0,1,.54.12.54.54,0,0,1,.68,0L.89,0a1.11,1.11,0,0,1,.29,0h.64A6.16,6.16,0,0,1,3.05,0,4.43,4.43,0,0,1,4,.33a3.47,3.47,0,0,1,.68.44,2.46,2.46,0,0,1,.51.6,3.24,3.24,0,0,1,.37.77,6.59,6.59,0,0,1,.22,1c0,.37.08.79.1,1.25a7.79,7.79,0,0,1-.12,1.87,2.27,2.27,0,0,1-.62,1.08A11.1,11.1,0,0,1,3.54,8.47,3.18,3.18,0,0,1,3,8.76a1.48,1.48,0,0,1-.6-.19l-.81-.38A5.08,5.08,0,0,0,.81,7.87Z"/><path d="M7.17,8.68a1.17,1.17,0,0,1-.79-.86,2.77,2.77,0,0,1-.1-.64c0-.25,0-.83,0-1.74v-1c0-.22,0-.44,0-.68s0-.4,0-.47A1.68,1.68,0,0,1,6.42,3a.73.73,0,0,1,.13-.24l.2-.2a4.27,4.27,0,0,1,1-.72,3.47,3.47,0,0,1,1.07-.36,1.36,1.36,0,0,1,.46,0,.85.85,0,0,1,.35.23,1.6,1.6,0,0,1,.3.45,1.45,1.45,0,0,0,.17.26,1.07,1.07,0,0,0,.16.18l.06,0,0,.05s0,0,0,0a.07.07,0,0,1,0,0,.08.08,0,0,1,0,.07q0,.1-.24.24c-.15.09-.5.27-1.05.56l-1.28.66V5.74c0,.72,0,1.19,0,1.38a.92.92,0,0,0,.21.49c.29.31.76.21,1.43-.28A1.44,1.44,0,0,1,10,7a.25.25,0,0,1,.26.14.93.93,0,0,1,.05.1.23.23,0,0,1,0,.11.26.26,0,0,1-.08.13l-.2.17-.29.21-.43.29a3.73,3.73,0,0,1-1.13.53A2,2,0,0,1,7.17,8.68ZM8.24,3.49l.27-.16a.39.39,0,0,0,.13-.11,1,1,0,0,0-.07-.41,1.59,1.59,0,0,0-.2-.43.41.41,0,0,0-.11-.07.17.17,0,0,0-.12,0,.24.24,0,0,0-.13,0,.2.2,0,0,0-.09.09.23.23,0,0,0-.06.13.65.65,0,0,0,0,.22,3.33,3.33,0,0,0,0,.34c0,.37,0,.55,0,.55A3.59,3.59,0,0,0,8.24,3.49Z"/><path d="M23,8.76a1.82,1.82,0,0,1-.3-.47,1.59,1.59,0,0,1-.12-.6q0-.37,0-2.28c0-1.27,0-2,0-2.29a2.56,2.56,0,0,1,.13-.71L22.77,2l-.41-.38c-.11-.1-.2-.19-.29-.26a.5.5,0,0,0-.16-.11l-.11,0-.23.14-.28.19L20.71,2V5.54A18.24,18.24,0,0,0,20.79,8a.32.32,0,0,0,.25.21l0,0,.08,0q.16,0,.18.09a.48.48,0,0,1,0,.21l0,.26H18.27V8.53s0-.06,0-.09V8.37s0,0,0,0l0,0,.05,0,.07,0,.33-.15L18.94,8l0-2.44c0-1.51,0-2.5,0-3a1.74,1.74,0,0,0-.19-.91,1.1,1.1,0,0,0-.31-.3l-.17-.13-.64.42L17,2.07V5c0,.82,0,1.52,0,2.1s0,.89,0,.92l.06.09a.24.24,0,0,0,.09.08l.12.06a.35.35,0,0,1,.26.22.27.27,0,0,1,0,.27.42.42,0,0,1-.31.07,15.21,15.21,0,0,0-2.2,0,1.51,1.51,0,0,1-.33,0s-.08,0-.11-.11a.38.38,0,0,1,0-.33.44.44,0,0,1,.27-.18c.17,0,.26-.07.29-.13a5.3,5.3,0,0,0,.14-1.74c0-.14,0-.61,0-1.42v-3l-.19-.23a1.5,1.5,0,0,0-.43-.34l-.16-.09s-.06-.06-.05-.07.13-.16.35-.35.44-.37.67-.54A1.79,1.79,0,0,1,15.94,0c.13,0,.35.16.68.48s.48.53.48.65a.2.2,0,0,0,0,.08L17.45,1l.67-.39.16-.1c.51-.31.82-.49.92-.54a.28.28,0,0,1,.25,0h0a2.11,2.11,0,0,1,.32.23l.48.41a2.81,2.81,0,0,1,.35.35l.19.2,1-.6A5.66,5.66,0,0,1,22.88,0c.15,0,.55.33,1.19,1a3.22,3.22,0,0,1,.58.66.25.25,0,0,1,0,.11.11.11,0,0,0,0,.05,1.13,1.13,0,0,0-.24.59c0,.2,0,.84-.06,1.9v.27a17.11,17.11,0,0,0,.09,2.59.84.84,0,0,0,.25.39.63.63,0,0,1,.17.19.21.21,0,0,1,0,.16,1.45,1.45,0,0,1-.36.34c-.22.17-.45.33-.68.49a1.33,1.33,0,0,1-.44.22.24.24,0,0,1-.14-.05A.58.58,0,0,1,23,8.76Z"/><path d="M26.08,8.68a1.19,1.19,0,0,1-.79-.86,3.45,3.45,0,0,1-.1-.64c0-.25,0-.83,0-1.74v-1c0-.22,0-.44,0-.68a3.85,3.85,0,0,1,0-.47A1,1,0,0,1,25.33,3a1,1,0,0,1,.13-.24l.21-.2a4.21,4.21,0,0,1,1-.72,3.55,3.55,0,0,1,1.07-.36,1.36,1.36,0,0,1,.46,0,.79.79,0,0,1,.35.23,1.6,1.6,0,0,1,.3.45,2.33,2.33,0,0,0,.17.26,1.07,1.07,0,0,0,.16.18l.07,0,0,.05,0,0a.11.11,0,0,0,0,0,.2.2,0,0,1,0,.07c0,.07-.08.15-.23.24s-.5.27-1.06.56l-1.27.66V5.74a12.86,12.86,0,0,0,0,1.38.84.84,0,0,0,.2.49c.29.31.77.21,1.43-.28a1.53,1.53,0,0,1,.5-.29.25.25,0,0,1,.26.14.31.31,0,0,1,0,.1.22.22,0,0,1,0,.11.38.38,0,0,1-.09.13,1.81,1.81,0,0,1-.19.17l-.3.21-.43.29a3.63,3.63,0,0,1-1.13.53A2,2,0,0,1,26.08,8.68Zm1.08-5.19.27-.16a.56.56,0,0,0,.13-.11,1.11,1.11,0,0,0-.08-.41,1.64,1.64,0,0,0-.19-.43l-.12-.07a.17.17,0,0,0-.12,0,.19.19,0,0,0-.12,0,.22.22,0,0,0-.1.09.53.53,0,0,0-.06.13,1.06,1.06,0,0,0,0,.22v.34a1.9,1.9,0,0,0,0,.55Z"/><path d="M30.78,8.76a.68.68,0,0,1-.34-.58c0-.3-.05-1.2-.05-2.7a22.57,22.57,0,0,0-.07-2.81.17.17,0,0,0-.12-.1.82.82,0,0,0-.31,0l-.35,0,0-.22a.42.42,0,0,1,.06-.3L29.81,2l.52-.19.59-.2.53-.17.27-.06c.05,0,.1.06.14.19a1.09,1.09,0,0,1,.07.42,1.48,1.48,0,0,0,0,.22c0,.06,0,.09,0,.09a1,1,0,0,0,.21-.14l.45-.32a2.29,2.29,0,0,1,.71-.46c.07,0,.19.16.38.43s.33.41.41.42.28.12.28.26-.06.11-.19.22l-.44.35-.48.33a.7.7,0,0,1-.3.14.25.25,0,0,1-.15-.09,1.82,1.82,0,0,1-.22-.28,1,1,0,0,0-.28-.31c-.05,0-.13,0-.24.11a.17.17,0,0,0-.06.11,2.86,2.86,0,0,0,0,.34c0,.19,0,.41,0,.67V5.34C32,6,32,6.51,32,7a5.56,5.56,0,0,0,0,.74.12.12,0,0,0,.15.08,1.64,1.64,0,0,0,.44-.18A1.73,1.73,0,0,1,33,7.46a.19.19,0,0,1,.16.07.29.29,0,0,1,.12.22c0,.07-.1.18-.29.31a4.79,4.79,0,0,1-.79.45A1.77,1.77,0,0,1,30.78,8.76Z"/><path d="M35.63,8.53A3.9,3.9,0,0,1,34.8,8a1.57,1.57,0,0,1-.46-.62,13.66,13.66,0,0,1-.12-1.95V3.94a1.46,1.46,0,0,1,.09-.51,2.05,2.05,0,0,1,.67-.9,6.55,6.55,0,0,1,1.45-.81l.81-.35.39.21a3.63,3.63,0,0,1,.8.54,2.11,2.11,0,0,1,.49.58l.16.31V6.67L38.9,7a2.37,2.37,0,0,1-.59.68,6.63,6.63,0,0,1-1.13.66,10.62,10.62,0,0,1-1,.44A2.83,2.83,0,0,1,35.63,8.53Zm1.73-1.11a1.38,1.38,0,0,0,.12-.65c0-.21,0-.65,0-1.34V5.36a10.17,10.17,0,0,0-.09-1.89A1.2,1.2,0,0,0,37,3l0,0a2.26,2.26,0,0,0-.53-.36c-.18-.07-.3-.09-.37,0a.38.38,0,0,0-.19.25,2.18,2.18,0,0,0-.07.58c0,.27,0,.73,0,1.38V5.6a3.74,3.74,0,0,0,0,.46c0,.19,0,.32,0,.37a.84.84,0,0,0,.06.26.54.54,0,0,0,.09.2l.14.15a1.06,1.06,0,0,0,.19.16l.25.17a.15.15,0,0,1,.06,0,1,1,0,0,0,.43.19A.36.36,0,0,0,37.36,7.42Z"/><path d="M40.72,8.74a1.05,1.05,0,0,1-.57-.53,2.33,2.33,0,0,1-.07-.65c0-.33,0-1.07,0-2.21q0-1.41,0-2A2.36,2.36,0,0,0,40,2.63s-.16-.07-.36-.06a.8.8,0,0,1-.26,0s-.07-.05-.09-.11a.32.32,0,0,1,0-.23.15.15,0,0,1,.11-.12l1-.31.66-.19.34-.08c.14,0,.22.15.25.44s0,1.22.06,2.78,0,2.3,0,2.58a1,1,0,0,0,.11.54.45.45,0,0,0,.36.2.63.63,0,0,0,.43-.21,2.29,2.29,0,0,0,.7-1.1,5.71,5.71,0,0,0,.12-1.13,11.56,11.56,0,0,0,0-1.56,2.43,2.43,0,0,0-.23-1.15c-.11-.14-.35-.14-.72,0a.79.79,0,0,1-.45.08c-.08,0-.11-.1-.1-.24A.34.34,0,0,1,42,2.53a9.24,9.24,0,0,1,.82-.46c.27-.15.52-.28.74-.38A1.78,1.78,0,0,1,44,1.54l.11,0,.12.09.14.14.14.19a1.93,1.93,0,0,1,.13.21l.13.23.18.4V6.25l-.18.39a4,4,0,0,1-2,1.77,3.44,3.44,0,0,1-.76.27,2.94,2.94,0,0,1-.73.11A2,2,0,0,1,40.72,8.74Z"/><path d="M46.53,8.69a.86.86,0,0,1-.34-.38L46.05,8V5.34c0-1.26,0-2,0-2.3a1.19,1.19,0,0,0-.09-.48.37.37,0,0,0-.15-.08.72.72,0,0,0-.23,0c-.16,0-.26.05-.29,0a.39.39,0,0,1-.08-.25c0-.13,0-.2,0-.23a1.52,1.52,0,0,1,.37-.14l.76-.24c.47-.13.77-.21.9-.23s.21,0,.24,0a.21.21,0,0,1,.06.15q0,.12,0,.48c0,.24,0,.54,0,.91s0,.9,0,1.59a30,30,0,0,0,.1,3c0,.16.11.22.23.19l.2-.07a.81.81,0,0,1,.28-.08.27.27,0,0,1,.16,0,.38.38,0,0,1,.08.17.31.31,0,0,1-.14.31,2.82,2.82,0,0,1-.68.33A1.91,1.91,0,0,1,46.53,8.69ZM45.9.92s-.06-.12,0-.27,0-.24.08-.27a3.68,3.68,0,0,1,.75-.25,5.06,5.06,0,0,1,.81-.19s.08,0,.09,0a1.06,1.06,0,0,1,0,.26l0,.32-.72.19-.73.18C46,1,45.93,1,45.9.92Z"/><path d="M49.84,8.76v-3c0-1.94,0-2.95-.05-3s-.29-.16-.61,0a.33.33,0,0,1-.18,0,.13.13,0,0,1-.1-.07,1,1,0,0,1-.06-.2.26.26,0,0,1,0-.18.73.73,0,0,1,.2-.13l.24-.11.44-.17.51-.18,0,0a3,3,0,0,1,1-.24c.09,0,.14.2.16.52,0,0,0,0,0,0a3.39,3.39,0,0,0,0,.46l.31-.16.71-.37c.42-.21.72-.35.89-.42a1.71,1.71,0,0,1,.49-.13,1.22,1.22,0,0,1,.27,0,.65.65,0,0,1,.2.05.61.61,0,0,1,.16.12.7.7,0,0,1,.13.19,1.62,1.62,0,0,1,.09.61c0,.32,0,1.1,0,2.35v.36a16.23,16.23,0,0,0,.11,2.42c0,.11.12.12.25,0l.05,0,.06,0a.68.68,0,0,1,.35-.11q.12,0,.18.18a.26.26,0,0,1-.06.28,4.92,4.92,0,0,1-.68.46,3,3,0,0,1-1.14.49.54.54,0,0,1-.57-.34,1.71,1.71,0,0,1-.09-.61c0-.3,0-1.06,0-2.27,0-1.78,0-2.73-.06-2.84S53,2.61,53,2.6a.41.41,0,0,0-.23,0,2.66,2.66,0,0,0-.81.32l-.53.31V5.38l0,2.16.17,0a.51.51,0,0,0,.17,0l.19-.07c.25-.11.38,0,.38.25v.2l-1.16.49-.67.29-.4.15c-.11,0-.17.05-.19,0Z"/><path d="M57.3,10.24a2,2,0,0,1-.81-.58c-.28-.31-.39-.53-.32-.67a3.57,3.57,0,0,1,.52-.47l.52-.42S57.16,8,57,7.77a1.86,1.86,0,0,1-.46-.59,1.31,1.31,0,0,1-.12-.49c0-.17,0-.67,0-1.49s0-1.52,0-1.82a1.94,1.94,0,0,1,.27-.81A2,2,0,0,1,57.2,2,2.59,2.59,0,0,1,58,1.58a3,3,0,0,1,.9-.13,6.57,6.57,0,0,1,1.25.17,5.37,5.37,0,0,0,1.33.16l.24,0a.25.25,0,0,1,.12,0l.07,0,0,.08a.31.31,0,0,1,0,.27.77.77,0,0,1-.28.2.05.05,0,0,1,0,0,.62.62,0,0,0-.35.51c0,.25,0,1.07,0,2.46v3L61,8.75a3.14,3.14,0,0,1-.53.61,4.91,4.91,0,0,1-.81.5,5,5,0,0,1-.92.38,3.36,3.36,0,0,1-.74.08A2.64,2.64,0,0,1,57.3,10.24Zm2-.85a1,1,0,0,0,.31-.75c0-.35,0-1.35,0-3,0-1.4,0-2.25,0-2.56a1.64,1.64,0,0,0-.1-.64A.78.78,0,0,0,58.89,2a.8.8,0,0,0-.74.17,1,1,0,0,0-.21.67,16.9,16.9,0,0,0,0,1.92c0,.74,0,1.19,0,1.37a1.34,1.34,0,0,0,.12.44.82.82,0,0,0,.39.41A.68.68,0,0,0,59,6.91l.23-.12.1.14a.68.68,0,0,1,.1.2c0,.08-.36.37-1.08.88l-.74.53.11.18a1.46,1.46,0,0,0,.3.47,1.07,1.07,0,0,0,.37.27,1,1,0,0,0,.43.08,1.06,1.06,0,0,0,.27,0A.48.48,0,0,0,59.28,9.39Z"/><path d="M62.67,8.68a1.17,1.17,0,0,1-.79-.86,2.77,2.77,0,0,1-.1-.64c0-.25,0-.83,0-1.74v-1c0-.22,0-.44,0-.68s0-.4,0-.47a1.68,1.68,0,0,1,.1-.29.73.73,0,0,1,.13-.24,1.85,1.85,0,0,1,.2-.2,4.27,4.27,0,0,1,1-.72,3.47,3.47,0,0,1,1.07-.36,1.36,1.36,0,0,1,.46,0,.85.85,0,0,1,.35.23,1.6,1.6,0,0,1,.3.45,1.45,1.45,0,0,0,.17.26,1.07,1.07,0,0,0,.16.18l.06,0,0,.05s0,0,0,0a.07.07,0,0,1,0,0,.08.08,0,0,1,0,.07q0,.1-.24.24l-1.05.56-1.28.66V5.74c0,.72,0,1.19,0,1.38a.92.92,0,0,0,.21.49c.29.31.76.21,1.43-.28A1.44,1.44,0,0,1,65.5,7a.25.25,0,0,1,.26.14l0,.1a.23.23,0,0,1,0,.11.26.26,0,0,1-.08.13l-.2.17-.29.21-.43.29a3.73,3.73,0,0,1-1.13.53A2,2,0,0,1,62.67,8.68Zm1.07-5.19L64,3.33a.39.39,0,0,0,.13-.11,1,1,0,0,0-.07-.41,1.59,1.59,0,0,0-.2-.43.41.41,0,0,0-.11-.07.17.17,0,0,0-.12,0,.24.24,0,0,0-.13,0,.2.2,0,0,0-.09.09.23.23,0,0,0-.06.13.65.65,0,0,0,0,.22,3.33,3.33,0,0,0,0,.34c0,.37,0,.55,0,.55A3.59,3.59,0,0,0,63.74,3.49Z"/><path d="M67.36,8.76A.69.69,0,0,1,67,8.18c0-.3,0-1.2,0-2.7a25.29,25.29,0,0,0-.07-2.81.17.17,0,0,0-.12-.1.87.87,0,0,0-.32,0l-.35,0,0-.22a.34.34,0,0,1,.06-.3L66.4,2l.51-.19.6-.2L68,1.45l.26-.06c.06,0,.11.06.15.19a1.33,1.33,0,0,1,.06.42c0,.08,0,.16,0,.22s0,.09,0,.09l.2-.14.45-.32a2.4,2.4,0,0,1,.72-.46,1.42,1.42,0,0,1,.38.43c.19.27.33.41.4.42s.29.12.29.26-.07.11-.2.22-.27.23-.44.35l-.47.33a.7.7,0,0,1-.3.14.29.29,0,0,1-.16-.09,1.82,1.82,0,0,1-.22-.28,1,1,0,0,0-.27-.31c-.05,0-.13,0-.24.11a.23.23,0,0,0-.07.11,2.86,2.86,0,0,0,0,.34c0,.19,0,.41,0,.67s0,.68,0,1.25,0,1.17,0,1.63a4.61,4.61,0,0,0,0,.74c0,.07.07.09.15.08a1.62,1.62,0,0,0,.43-.18l.33-.15s.1,0,.17.07a.31.31,0,0,1,.11.22c0,.07-.09.18-.28.31a5.25,5.25,0,0,1-.79.45A1.8,1.8,0,0,1,67.36,8.76Z"/></svg>