<svg id="Laag_1" data-name="Laag 1" xmlns="http://www.w3.org/2000/svg" viewBox="0 0 79.02 11.51"><defs><style>.cls-1{fill:#010101;}</style></defs><title>Meropedia Logo</title><path class="cls-1" d="M7.52,9.43,11.6.16H15V.54h-.41a2.77,2.77,0,0,0-1.08.13.73.73,0,0,0-.35.51A11.93,11.93,0,0,0,13.12,3v5.5a15.22,15.22,0,0,0,.06,1.73,1,1,0,0,0,.34.61,1.9,1.9,0,0,0,1,.19H15v.39H9.69V11h.39a1.92,1.92,0,0,0,1-.18.85.85,0,0,0,.36-.56,13,13,0,0,0,.07-1.79V1.31L7.07,11.37H6.68L2.21,1.31V7.88a12.4,12.4,0,0,0,.08,1.83,1.39,1.39,0,0,0,.51.86A2,2,0,0,0,4,11v.39H0V11a2,2,0,0,0,1.17-.39,1.42,1.42,0,0,0,.55-.86,11.42,11.42,0,0,0,.1-1.9V3a11.73,11.73,0,0,0-.08-1.73A.73.73,0,0,0,1.41.69,2.57,2.57,0,0,0,.31.54H0V.16H3.41Z"/><path class="cls-1" d="M22.13,8.92h.28l-.17,2.45h-6.5V11.1h.16a1.2,1.2,0,0,0,.76-.16.76.76,0,0,0,.22-.39,9.92,9.92,0,0,0,0-1.23V5.48a7.74,7.74,0,0,0-.05-1.19.56.56,0,0,0-.22-.39,1.57,1.57,0,0,0-.75-.11V3.52h5.61l.19,2h-.28A3,3,0,0,0,21,4.31a1.13,1.13,0,0,0-.64-.43,5.58,5.58,0,0,0-1.19-.09H18.05V7.08h.83a2.14,2.14,0,0,0,.8-.1.54.54,0,0,0,.31-.3,3.06,3.06,0,0,0,.07-.78h.27V8.59h-.27A2.37,2.37,0,0,0,20,7.71a.56.56,0,0,0-.32-.29,3,3,0,0,0-.72-.06h-.86V9.21a4,4,0,0,0,.18,1.64c.12.17.44.25,1,.25h.58a2.73,2.73,0,0,0,1-.16,1.87,1.87,0,0,0,.76-.65A3.9,3.9,0,0,0,22.13,8.92Z"/><path class="cls-1" d="M31.39,11.37H29.27a9.83,9.83,0,0,1-1.71-2.06c-.25-.36-.51-.7-.77-1a4.35,4.35,0,0,0-.55-.59.83.83,0,0,0-.47-.11h-.31V9.32a10.61,10.61,0,0,0,0,1.22.62.62,0,0,0,.23.42,1.35,1.35,0,0,0,.72.14h.38v.27H23.07V11.1h.26A1.29,1.29,0,0,0,24,11a.56.56,0,0,0,.25-.39,10,10,0,0,0,.05-1.26V5.48a9.3,9.3,0,0,0-.05-1.21A.49.49,0,0,0,24,3.89a1.86,1.86,0,0,0-.78-.1h-.13V3.52l1.12-.06c.75,0,1.34,0,1.79,0a6.54,6.54,0,0,1,1.82.21A2.42,2.42,0,0,1,29,4.3a1.63,1.63,0,0,1,.43,1.13,1.75,1.75,0,0,1-.57,1.32,2.82,2.82,0,0,1-1.66.68,6.07,6.07,0,0,1,1.58,1.71,8.24,8.24,0,0,0,1.4,1.57,2.21,2.21,0,0,0,1.21.39ZM25.46,7.31l.89,0a3.12,3.12,0,0,0,.81-.13,1.45,1.45,0,0,0,.55-.3A1.37,1.37,0,0,0,28,6.33a2.36,2.36,0,0,0,.12-.8,2,2,0,0,0-.41-1.33A2.37,2.37,0,0,0,26,3.7l-.49,0Z"/><path class="cls-1" d="M31,7.39a3.77,3.77,0,0,1,1.22-2.92,4.35,4.35,0,0,1,3-1.09,4.47,4.47,0,0,1,3.06,1.08,3.78,3.78,0,0,1,1.23,3,3.9,3.9,0,0,1-1.17,3,4.78,4.78,0,0,1-6.17,0A3.91,3.91,0,0,1,31,7.39Zm1.33,0a4.52,4.52,0,0,0,.75,2.84,2.74,2.74,0,0,0,2.27,1,2.55,2.55,0,0,0,2.09-1,4.36,4.36,0,0,0,.77-2.83,4.45,4.45,0,0,0-.76-2.8,2.95,2.95,0,0,0-4.37,0A4.46,4.46,0,0,0,32.36,7.43Z"/><path class="cls-1" d="M42.9,7.67V9.32a10.61,10.61,0,0,0,0,1.22.6.6,0,0,0,.24.42,1.3,1.3,0,0,0,.72.14h.26v.27h-3.6V11.1h.21a1.3,1.3,0,0,0,.7-.13.55.55,0,0,0,.24-.39,7.78,7.78,0,0,0,.06-1.26V5.48a7.27,7.27,0,0,0-.06-1.21.49.49,0,0,0-.23-.38,1.83,1.83,0,0,0-.77-.1h-.15V3.52l1,0,1.84,0a6.89,6.89,0,0,1,1.87.2,2.14,2.14,0,0,1,1.07.67,1.82,1.82,0,0,1,.42,1.23,2.18,2.18,0,0,1-.28,1.13,1.86,1.86,0,0,1-.82.75,4.9,4.9,0,0,1-1.89.25Zm0-.29h.56a3.6,3.6,0,0,0,1.09-.13,1.32,1.32,0,0,0,.7-.57,2,2,0,0,0,.28-1.07,1.88,1.88,0,0,0-.48-1.43,2.23,2.23,0,0,0-1.55-.45l-.6,0Z"/><path class="cls-1" d="M53.6,8.92h.28l-.17,2.45H47.22V11.1h.16a1.14,1.14,0,0,0,.75-.16.64.64,0,0,0,.22-.39,9.13,9.13,0,0,0,0-1.23V5.48a9.37,9.37,0,0,0,0-1.19.57.57,0,0,0-.23-.39,1.52,1.52,0,0,0-.74-.11V3.52H53l.19,2H52.9a3.16,3.16,0,0,0-.46-1.17,1.13,1.13,0,0,0-.64-.43,5.51,5.51,0,0,0-1.19-.09H49.52V7.08h.84a2.14,2.14,0,0,0,.8-.1.55.55,0,0,0,.3-.3,2.65,2.65,0,0,0,.07-.78h.27V8.59h-.27a2.17,2.17,0,0,0-.11-.88.54.54,0,0,0-.32-.29,2.92,2.92,0,0,0-.71-.06h-.87V9.21a4,4,0,0,0,.18,1.64c.12.17.45.25,1,.25h.58a2.66,2.66,0,0,0,1-.16,1.81,1.81,0,0,0,.76-.65A3.9,3.9,0,0,0,53.6,8.92Z"/><path class="cls-1" d="M54.52,3.58l1.29-.06c1.08,0,1.81-.08,2.18-.08A5.81,5.81,0,0,1,60.71,4a3.5,3.5,0,0,1,1.46,1.44,4.47,4.47,0,0,1,.48,2.11,4.62,4.62,0,0,1-.26,1.57,3.41,3.41,0,0,1-.72,1.19,3.17,3.17,0,0,1-1.05.72,4.39,4.39,0,0,1-1.14.3,11.79,11.79,0,0,1-1.51.07H54.49V11.1h.32a1.3,1.3,0,0,0,.7-.13.6.6,0,0,0,.25-.39,8.27,8.27,0,0,0,.05-1.26V5.54a7.72,7.72,0,0,0-.05-1.21A.52.52,0,0,0,55.53,4a1.86,1.86,0,0,0-.78-.1h-.23Zm2.42.17V9a14.53,14.53,0,0,0,.05,1.5.57.57,0,0,0,.26.47,2,2,0,0,0,.91.13,4.29,4.29,0,0,0,1.69-.28A2.29,2.29,0,0,0,61,9.71a4.49,4.49,0,0,0,.44-2.11,5.4,5.4,0,0,0-.26-1.77,3.15,3.15,0,0,0-.73-1.27,2.51,2.51,0,0,0-1.07-.67,5.63,5.63,0,0,0-1.5-.17Z"/><path class="cls-1" d="M63.56,3.79V3.52h3.59v.27H67a2.05,2.05,0,0,0-.76.09.49.49,0,0,0-.24.36,7.39,7.39,0,0,0-.06,1.24V9.32a9.85,9.85,0,0,0,0,1.22.55.55,0,0,0,.23.42,1.3,1.3,0,0,0,.72.14h.23v.27H63.56V11.1h.23a1.3,1.3,0,0,0,.7-.13.6.6,0,0,0,.25-.39,10,10,0,0,0,.05-1.26V5.48a9.3,9.3,0,0,0-.05-1.21.53.53,0,0,0-.24-.38,1.8,1.8,0,0,0-.77-.1Z"/><path class="cls-1" d="M74.76,7.23H70.5l-.29.71a7.17,7.17,0,0,0-.64,2,.88.88,0,0,0,.34.76,1.37,1.37,0,0,0,.88.26v.39H67.46V11a1.81,1.81,0,0,0,1.11-.52,6.51,6.51,0,0,0,.87-1.72c0-.09.16-.41.4-1L73.09,0h.33l3.74,8.9.51,1.18A1.41,1.41,0,0,0,79,11v.39h-4.4V11a3.32,3.32,0,0,0,1.09-.11.47.47,0,0,0,.29-.48,5,5,0,0,0-.38-1.08Zm-.14-.37-2-4.78-2,4.78Z"/></svg>