<svg xmlns="http://www.w3.org/2000/svg" xmlns:xlink="http://www.w3.org/1999/xlink" viewBox="0 0 500 500"><defs><style>.cls-1{isolation:isolate;}.cls-2{fill:url(#Naamloos_verloop_70);}.cls-3{fill:#ffab39;}.cls-10,.cls-3,.cls-4,.cls-5,.cls-6,.cls-7,.cls-8,.cls-9{opacity:0.7;mix-blend-mode:multiply;}.cls-4{fill:#fae232;}.cls-5{fill:#b5d651;}.cls-6{fill:#21c292;}.cls-7{fill:#59b2dd;}.cls-8{fill:#b28dc2;}.cls-9{fill:#ea87ad;}.cls-10{fill:#ff7464;}</style><linearGradient id="Naamloos_verloop_70" x1="-4.03" y1="250" x2="495.12" y2="250" gradientTransform="translate(0 495.96) rotate(-90)" gradientUnits="userSpaceOnUse"><stop offset="0" stop-color="#e6e6e6"/><stop offset="1" stop-color="#fff"/></linearGradient></defs><title>App Icon</title><g class="cls-1"><g id="Laag_1" data-name="Laag 1"><path class="cls-2" d="M397,0A102.6,102.6,0,0,1,499.57,102.69v294.6A102.61,102.61,0,0,1,397,500H103A102.62,102.62,0,0,1,.43,397.29V102.69A102.61,102.61,0,0,1,103,0Z"/><path class="cls-3" d="M313.81,194.41a58.21,58.21,0,0,1-58.21,58.21H242.87a58.22,58.22,0,0,1-58.21-58.21V90.73a58.21,58.21,0,0,1,58.21-58.21H255.6a58.21,58.21,0,0,1,58.21,58.21Z"/><path class="cls-4" d="M334.77,256.58a58.2,58.2,0,0,1-82.32,0l-9-9a58.23,58.23,0,0,1,0-82.34L316.76,92a58.22,58.22,0,0,1,82.32,0l9,9a58.21,58.21,0,0,1,0,82.31Z"/><path class="cls-5" d="M305.62,315.37a58.18,58.18,0,0,1-58.2-58.2V244.43a58.21,58.21,0,0,1,58.21-58.21H409.3a58.21,58.21,0,0,1,58.21,58.21v12.74a58.21,58.21,0,0,1-58.21,58.2Z"/><path class="cls-6" d="M243.45,336.32a58.17,58.17,0,0,1,0-82.31l9-9a58.18,58.18,0,0,1,82.31,0l73.32,73.31a58.2,58.2,0,0,1,0,82.31l-9,9a58.23,58.23,0,0,1-82.32,0Z"/><path class="cls-7" d="M184.66,307.17A58.21,58.21,0,0,1,242.87,249H255.6a58.21,58.21,0,0,1,58.21,58.21V410.86a58.21,58.21,0,0,1-58.2,58.21H242.87a58.23,58.23,0,0,1-58.21-58.21Z"/><path class="cls-8" d="M163.72,245A58.18,58.18,0,0,1,246,245l9,9a58.2,58.2,0,0,1,0,82.33l-73.31,73.31a58.21,58.21,0,0,1-82.32,0l-9-9a58.24,58.24,0,0,1,0-82.33Z"/><path class="cls-9" d="M192.85,186.22a58.2,58.2,0,0,1,58.22,58.21v12.72a58.21,58.21,0,0,1-58.21,58.21H89.17A58.18,58.18,0,0,1,31,257.17l0-12.74a58.25,58.25,0,0,1,58.22-58.21Z"/><path class="cls-10" d="M255,165.26a58.22,58.22,0,0,1,0,82.33l-9,9a58.19,58.19,0,0,1-82.32,0L90.4,183.27a58.19,58.19,0,0,1,0-82.31l9-9a58.22,58.22,0,0,1,82.31,0Z"/></g></g></svg>