<svg id="Laag_1" data-name="Laag 1" xmlns="http://www.w3.org/2000/svg" xmlns:xlink="http://www.w3.org/1999/xlink" viewBox="0 0 500 500"><defs><style>.cls-1{fill:none;}.cls-2{fill:url(#Naamloos_verloop_8);}.cls-3{clip-path:url(#clip-path);}.cls-4{isolation:isolate;}.cls-5{clip-path:url(#clip-path-2);}.cls-6{fill:#ff9500;}.cls-7{fill:#1badf8;}.cls-8{fill:#63da38;}.cls-9{fill:#cc73e1;}.cls-10{fill:#b7b7b7;}</style><radialGradient id="Naamloos_verloop_8" cx="248.45" cy="611.81" r="672.27" gradientTransform="translate(4.92)" gradientUnits="userSpaceOnUse"><stop offset="0" stop-color="#e6e6e6"/><stop offset="0.3" stop-color="#ccc"/><stop offset="1" stop-color="#f2f2f2"/></radialGradient><clipPath id="clip-path"><path class="cls-1" d="M500,397A102.6,102.6,0,0,1,397.31,499.57H102.71A102.61,102.61,0,0,1,0,397V103A102.62,102.62,0,0,1,102.71.43h294.6A102.61,102.61,0,0,1,500,103Z"/></clipPath><clipPath id="clip-path-2"><rect class="cls-1" width="500" height="500"/></clipPath></defs><title>App Icon</title><path class="cls-2" d="M500,397A102.6,102.6,0,0,1,397.31,499.57H102.71A102.61,102.61,0,0,1,0,397V103A102.62,102.62,0,0,1,102.71.43h294.6A102.61,102.61,0,0,1,500,103Z"/><g class="cls-3"><g class="cls-4"><g class="cls-5"><path class="cls-6" d="M57.38,105.83c0-14.16,12.29-26.66,26.23-26.66s26.23,12.5,26.23,26.66-11.48,27.5-26.23,27.5S57.38,120.83,57.38,105.83Zm-4.1,0A31.39,31.39,0,0,1,84.43,74.17c17.21,0,30.32,15,30.32,31.66S100.82,137.5,83.61,137.5,53.28,123.33,53.28,105.83Zm65.57,0a35.1,35.1,0,0,0-35.24-35c-19.68,0-34.43,15.84-34.43,35s15.57,35,34.43,35A35.08,35.08,0,0,0,118.85,105.83Z"/><path class="cls-7" d="M57.38,202.5a26.63,26.63,0,0,1,26.23-26.67c13.93,0,26.23,12.5,26.23,26.67s-11.48,26.67-26.23,26.67S57.38,216.67,57.38,202.5Zm-4.1,0c0-17.5,13.93-31.67,31.15-31.67S114.75,185,114.75,202.5s-13.93,31.67-31.14,31.67S53.28,219.17,53.28,202.5Zm65.57,0c0-19.17-15.57-35-34.42-35a35.08,35.08,0,0,0-35.25,35c0,20,15.57,35,34.43,35S118.85,221.67,118.85,202.5Z"/><path class="cls-8" d="M57.38,297.5c0-14.17,12.29-26.67,26.23-26.67s26.23,12.5,26.23,26.67S98.36,325,83.61,325,57.38,312.5,57.38,297.5Zm-4.1,0c0-17.5,13.93-31.67,31.15-31.67s30.32,15,30.32,31.67-13.93,31.67-31.14,31.67S53.28,315,53.28,297.5Zm65.57,0c0-19.17-15.57-35-34.42-35s-35.25,15.83-35.25,35,15.57,35,34.43,35A35.08,35.08,0,0,0,118.85,297.5Z"/><path class="cls-9" d="M57.38,394.17A26.63,26.63,0,0,1,83.61,367.5c13.93,0,26.23,12.5,26.23,26.67s-11.48,26.66-26.23,26.66S57.38,408.33,57.38,394.17Zm-4.1,0c0-17.5,13.93-31.67,31.15-31.67s30.32,14.17,30.32,31.67-13.93,31.66-31.14,31.66S53.28,410.83,53.28,394.17Zm65.57,0c0-19.17-15.57-35-34.42-35a35.08,35.08,0,0,0-35.25,35c0,20,15.57,35,34.43,35S118.85,413.33,118.85,394.17Z"/><polygon class="cls-10" points="505.74 441.67 508.2 441.67 508.2 437.5 505.74 437.5 161.47 437.5 159.84 437.5 159.84 441.67 161.47 441.67 505.74 441.67"/><polygon class="cls-10" points="505.74 345.83 508.2 345.83 508.2 341.67 505.74 341.67 161.47 341.67 159.84 341.67 159.84 345.83 161.47 345.83 505.74 345.83"/><polygon class="cls-10" points="505.74 254.17 508.2 254.17 508.2 250 505.74 250 161.47 250 159.84 250 159.84 254.17 161.47 254.17 505.74 254.17"/><polygon class="cls-10" points="505.74 158.33 508.2 158.33 508.2 154.17 505.74 154.17 161.47 154.17 159.84 154.17 159.84 158.33 161.47 158.33 505.74 158.33"/><polygon class="cls-10" points="505.74 62.5 508.2 62.5 508.2 58.33 505.74 58.33 161.47 58.33 159.84 58.33 159.84 62.5 161.47 62.5 505.74 62.5"/></g></g></g></svg>