<svg id="Laag_1" data-name="Laag 1" xmlns="http://www.w3.org/2000/svg" xmlns:xlink="http://www.w3.org/1999/xlink" viewBox="0 0 500 500"><defs><style>.cls-1{fill:url(#Naamloos_verloop_45);}.cls-2{fill:#fff;}</style><radialGradient id="Naamloos_verloop_45" cx="252.87" cy="612.24" r="672.27" gradientTransform="translate(0.5)" gradientUnits="userSpaceOnUse"><stop offset="0" stop-color="#146ef2"/><stop offset="0.3" stop-color="#1d79f2"/><stop offset="1" stop-color="#1da1f2"/></radialGradient></defs><title>Social Icon</title><path class="cls-1" d="M500,397.47A102.6,102.6,0,0,1,397.31,500H102.71A102.61,102.61,0,0,1,0,397.47V103.39A102.61,102.61,0,0,1,102.71.87h294.6A102.6,102.6,0,0,1,500,103.39Z"/><path class="cls-2" d="M192.83,395.14c131.19,0,202.92-108.71,202.92-202.94,0-3.09,0-6.16-.21-9.22a144.39,144.39,0,0,0,35.57-36.93,142.68,142.68,0,0,1-40.94,11.23,71.76,71.76,0,0,0,31.37-39.45,143.68,143.68,0,0,1-45.3,17.33,71.33,71.33,0,0,0-123.36,48.75,73,73,0,0,0,1.83,16.29,202.62,202.62,0,0,1-147-74.52,71.35,71.35,0,0,0,22.09,95.2A70.91,70.91,0,0,1,97.48,212c0,.32,0,.6,0,.91a71.34,71.34,0,0,0,57.2,69.92,71.57,71.57,0,0,1-18.77,2.52A70.33,70.33,0,0,1,122.48,284a71.39,71.39,0,0,0,66.61,49.56,143,143,0,0,1-88.58,30.53,145.21,145.21,0,0,1-17-1,201.73,201.73,0,0,0,109.33,32.06"/></svg>