<svg id="Laag_1" data-name="Laag 1" xmlns="http://www.w3.org/2000/svg" xmlns:xlink="http://www.w3.org/1999/xlink" viewBox="0 0 500 500"><defs><style>.cls-1{fill:url(#Naamloos_verloop_62);}.cls-2{fill:url(#radial-gradient);}.cls-3{fill:url(#radial-gradient-2);}</style><radialGradient id="Naamloos_verloop_62" cx="-1625.36" cy="-1046.33" fx="-2185.0019014130094" fy="-1418.8195409197997" r="672.27" gradientTransform="translate(-1158.58 1881.92) rotate(90)" gradientUnits="userSpaceOnUse"><stop offset="0" stop-color="#66fd7f"/><stop offset="0.41" stop-color="#3de058"/><stop offset="0.42" stop-color="#3dde58"/><stop offset="0.61" stop-color="#3fcb55"/><stop offset="0.8" stop-color="#41c053"/><stop offset="1" stop-color="#41bc52"/></radialGradient><radialGradient id="radial-gradient" cx="179.34" cy="444.24" r="393.92" gradientUnits="userSpaceOnUse"><stop offset="0.22" stop-color="#e7e7e7"/><stop offset="0.88" stop-color="#fcfcfc"/></radialGradient><radialGradient id="radial-gradient-2" cx="183.51" cy="361.72" r="176.22" gradientUnits="userSpaceOnUse"><stop offset="0.22" stop-color="#e7e7e7"/><stop offset="0.88" stop-color="#fff"/></radialGradient></defs><title>Social Icon</title><path class="cls-1" d="M102.53,500A102.6,102.6,0,0,1,0,397.31V102.71A102.61,102.61,0,0,1,102.53,0H396.61A102.61,102.61,0,0,1,499.13,102.71v294.6A102.6,102.6,0,0,1,396.61,500Z"/><path class="cls-2" d="M251.57,65.92A182.28,182.28,0,0,0,94.84,341.28L71.86,434l91.35-26.3A182.29,182.29,0,1,0,251.57,65.92Zm2.06,334.31a150.55,150.55,0,0,1-85.73-26.67l-52,15L129.17,335a151.33,151.33,0,1,1,124.46,65.27Z"/><path class="cls-3" d="M205.49,233.77l6.33-7.29c3.55-4.13,8.87-8.1,9.14-14,.27-5.7-1.76-11.37-3.78-16.54-1.29-3.32-2.62-6.63-3.9-10-2.3-6.06-5.28-14.55-8.62-18.11-4.53-4.8-12.3-5.82-18.44-2.87,0,0-35.77,17.19-24.76,51.59,0,0,21.32,97,128.64,116.94,0,0,38.52,5.51,48.83-17.89A41.2,41.2,0,0,0,342.3,298c-.37-5.33-4.12-8.86-8.51-11.39-5.66-3.24-10.68-6.27-17.13-9.45-5.59-2.75-12-6.82-18.45-5.05-4.71,1.31-8.1,5.62-11.29,9-4.17,4.42-8.43,8.78-12.65,13.17C274.27,294.29,219.93,274.33,205.49,233.77Z"/></svg>