<svg id="Laag_1" data-name="Laag 1" xmlns="http://www.w3.org/2000/svg" xmlns:xlink="http://www.w3.org/1999/xlink" viewBox="0 0 500 500"><defs><style>.cls-1{fill:url(#Naamloos_verloop_45);}.cls-2{fill:#ffd800;}.cls-3{opacity:0.9;isolation:isolate;}.cls-4{fill:#fff;}</style><radialGradient id="Naamloos_verloop_45" cx="247.57" cy="611.81" r="672.27" gradientTransform="translate(5.8)" gradientUnits="userSpaceOnUse"><stop offset="0" stop-color="#146ef2"/><stop offset="0.3" stop-color="#1d79f2"/><stop offset="1" stop-color="#1da1f2"/></radialGradient></defs><title>App Icon</title><path class="cls-1" d="M500,397A102.6,102.6,0,0,1,397.31,499.57H102.71A102.61,102.61,0,0,1,0,397V103A102.62,102.62,0,0,1,102.71.43h294.6A102.61,102.61,0,0,1,500,103Z"/><path class="cls-2" d="M165.93,107.52a93.32,93.32,0,1,1-35.72,7.1A92.35,92.35,0,0,1,165.93,107.52Z"/><g class="cls-3"><path class="cls-4" d="M421.76,289.18a76.46,76.46,0,0,0-76.67-76.66h-5c-14.16-34.17-47.5-58.34-86.66-58.34a93.19,93.19,0,0,0-93.34,93.34V255c-25.83,5-45.83,27.5-45.83,55,0,30,24.17,55,54.17,55.83H347.59C388.43,365,421.76,330.85,421.76,289.18Z"/></g></svg>