<svg id="Laag_1" data-name="Laag 1" xmlns="http://www.w3.org/2000/svg" viewBox="0 0 600 600"><defs><style>.cls-1{fill:#1d1d1b;}</style></defs><title>Rebus 1 Sint</title><path class="cls-1" d="M372,512.86H142.27V171.34H372Zm-227.73-2H370V173.34H144.27Z"/><path class="cls-1" d="M312.14,367H284.93c-11.38,0-12.36-11.81-12.36-11.93l2-.14c0,.41.86,10.07,10.37,10.07h26.84A10.66,10.66,0,0,0,318,355h2a12.86,12.86,0,0,1-7.7,11.94Z"/><polygon class="cls-1" points="330.59 387 307.44 387 307.44 369.7 309.44 369.7 309.44 385 328.59 385 328.59 344.73 309.44 344.73 309.44 361.39 307.44 361.39 307.44 342.73 330.59 342.73 330.59 387"/><rect class="cls-1" x="88.27" y="510.86" width="339.31" height="2"/><path class="cls-1" d="M144.59,516.73c-1.67-.07-1.07.77-1.32.92C146.07,517.46,144.52,516.51,144.59,516.73Z"/><polygon class="cls-1" points="172.24 514.83 171.75 515.17 175.83 514.33 172.24 514.83"/><path class="cls-1" d="M198.1,514.85c-2.45-1.43-9.37.23-14-.28l-.76-.33-2.07,1.15C186.88,515.21,194.16,514.45,198.1,514.85Z"/><path class="cls-1" d="M211.88,517.93c-.85-.55,3-.48-3.21-.17.31.06.4.1.58.14C209.81,517.89,210.58,517.89,211.88,517.93Z"/><path class="cls-1" d="M209.25,517.9c-2.72,0,1.78.47,0,0Z"/><path class="cls-1" d="M221.83,517.58l-3.59.5c.75.33,3.94.4,2.76.64C224.68,518.45,223.92,518.12,221.83,517.58Z"/><path class="cls-1" d="M225.23,516.54l-1.86.21A2.42,2.42,0,0,0,225.23,516.54Z"/><path class="cls-1" d="M219.43,517.19l3.94-.44c-.52-.23-.58-.69-1.81.16C221.88,516.49,221.1,516.89,219.43,517.19Z"/><path class="cls-1" d="M217.2,517c-2-.32-4.62-.51-1-1C209.32,516.17,210.33,517.18,217.2,517Z"/><path class="cls-1" d="M199.42,513.37l-2.69-.42-2.33.48C195.56,513.19,199.59,513.82,199.42,513.37Z"/><path class="cls-1" d="M244.17,518.32c.22-.3-1.21-.81-1.47-1.2l-2.65.35C241.41,517.68,244,517.87,244.17,518.32Z"/><path class="cls-1" d="M242.7,517.12l4-.52C243.12,516.54,242.47,516.79,242.7,517.12Z"/><polygon class="cls-1" points="225.87 514.96 219.35 516.05 227.12 514.94 225.87 514.96"/><polygon class="cls-1" points="259.31 518.36 257.06 519.06 261.06 518 259.31 518.36"/><path class="cls-1" d="M269.35,518.24c-1.66.58,2.28,1,.52,1.34a39.82,39.82,0,0,0,7.16-1.05A28.55,28.55,0,0,1,269.35,518.24Z"/><path class="cls-1" d="M280.55,517.87c-1.11.14-2.27.39-3.52.66A22.93,22.93,0,0,0,280.55,517.87Z"/><path class="cls-1" d="M253.41,516.75a5.82,5.82,0,0,0,3.12.87l-1.56-.86Z"/><path class="cls-1" d="M254.92,516.74l.05,0,3.37,0Z"/><path class="cls-1" d="M253,516.75h.39C253.26,516.67,253.17,516.64,253,516.75Z"/><path class="cls-1" d="M236.26,515.73c2.33-.48,7.18-1,2.48-1.72C237.07,514.59,239.76,515,236.26,515.73Z"/><path class="cls-1" d="M251.08,515.68l-4.21-.2c.09.23.85.56-.31.8Z"/><polygon class="cls-1" points="253.15 515.41 251.08 515.68 252.65 515.75 253.15 515.41"/><path class="cls-1" d="M273.34,517.07a35.8,35.8,0,0,1,6.05-.46c-2.41-.17-4.9-.26-7.26-.26C271.79,516.62,270.75,517.1,273.34,517.07Z"/><path class="cls-1" d="M264.39,516.83l.4-.05C264.54,516.71,264.34,516.69,264.39,516.83Z"/><path class="cls-1" d="M301.52,516.61l-.36-.15-.08.15Z"/><path class="cls-1" d="M271.72,516.19a10.61,10.61,0,0,0-3.92.31c1.35-.09,2.79-.14,4.33-.15C272.28,516.23,272.31,516.15,271.72,516.19Z"/><path class="cls-1" d="M286.72,517.47c-.94-.18-2-.33-3.14-.47C284.51,517.27,286.39,517.69,286.72,517.47Z"/><path class="cls-1" d="M265.4,517l-.27,0C265.72,517.24,265.65,517.15,265.4,517Z"/><path class="cls-1" d="M265.4,517a18.47,18.47,0,0,0,2.4-.52c-1.1.07-2.12.16-3,.28A4.57,4.57,0,0,1,265.4,517Z"/><path class="cls-1" d="M308.22,511.13c-.32.79-5.08,1.52-9.19.67-4,.6-1.4,3.2,2.13,4.66.13-.35.13-.67,4.29-1.13-1.46-.44-9.24-1-5.72-1.73,5.51-.41,4.51.28,7.19.7-2.28-1,7-1.44,5.81-2.89l-4.83.51C307.81,511.69,309.56,511.33,308.22,511.13Z"/><path class="cls-1" d="M293.23,516.38l-1.71.1a32.26,32.26,0,0,1,5.92,1.07c2.85-.39,3.44-.68,3.64-.94l-8.43-.11Z"/><path class="cls-1" d="M283.83,516.48c1.34-.86,5.45-1.23,2.93-2.16-5,.06-3.52.72-6.52,1.09,8.11-.21-2.33.48,3.53,1-1.59.15-3,.19-4.38.23,1.46.1,2.87.23,4.19.39l-.18,0h0c-.35-.11-.47-.18-.07-.11l.17,0a.9.9,0,0,1,.36-.33c2.35.18.37.23-.36.33,0,0-.09.08-.1.13h0l8.12-.47C289.8,516.36,287.65,516.38,283.83,516.48Z"/><path class="cls-1" d="M243.08,512.16c.25.07.24.13.26.2C243.86,512.25,244.06,512.18,243.08,512.16Z"/><path class="cls-1" d="M246.42,512.68a7.48,7.48,0,0,1-3,.37c-1.67-.26,0-.41-.08-.69-1.16.22-4.05.61-.42,1l.57-.11c3.27.29,7.47,1.37,6.9,1.49A11.2,11.2,0,0,0,246.42,512.68Z"/><path class="cls-1" d="M265.36,514.36l6.76-.42-3.44-.75.17.45C265,513.46,265.84,514,265.36,514.36Z"/><polygon class="cls-1" points="302.29 517.04 301.39 517.95 305.3 516.67 302.29 517.04"/><polygon class="cls-1" points="311.08 516.93 310.75 517.73 313.07 517.25 311.08 516.93"/><path class="cls-1" d="M274.47,177.09l-2,.23A19.55,19.55,0,0,0,274.47,177.09Z"/><path class="cls-1" d="M288.85,177.15l.36-.39C288.54,177,288.27,177.13,288.85,177.15Z"/><path class="cls-1" d="M376,355.93c.74-2.9,1.89-6.13,1-5.78l-.86.89A22.07,22.07,0,0,1,376,355.93Z"/><path class="cls-1" d="M370.8,208.09c-.09.28-.18.57-.26.85.29.7.57,1.37.83,2C371.19,210.05,371,209.1,370.8,208.09Z"/><path class="cls-1" d="M367.21,206.05l.56-3.81A32.53,32.53,0,0,0,367.21,206.05Z"/><path class="cls-1" d="M195.89,178l-2.32.89C197.2,178.89,195.6,178.45,195.89,178Z"/><path class="cls-1" d="M375.75,481.77a54.79,54.79,0,0,0,.52-6.24C375.77,478.54,375,481,375.75,481.77Z"/><path class="cls-1" d="M280.13,167.88c-1.22.16-1.74.34-1.7.53C279.68,168.26,280.39,168.1,280.13,167.88Z"/><path class="cls-1" d="M376.27,468.32c-.09.44-.13.87-.2,1.32a54.14,54.14,0,0,1,.2,5.89A18,18,0,0,0,376.27,468.32Z"/><path class="cls-1" d="M148.22,404.7c0,.21-.06.46-.11.65C148.23,405.41,148.24,405.12,148.22,404.7Z"/><path class="cls-1" d="M139.46,487.72c-.05-.81-.05-2.15-.06-3.4A22.61,22.61,0,0,0,139.46,487.72Z"/><path class="cls-1" d="M346.44,517.31c-1.86.06-.29.1,0,0Z"/><path class="cls-1" d="M337.38,513.88c.39-.1.69-.22.74-.42A1.23,1.23,0,0,1,337.38,513.88Z"/><path class="cls-1" d="M370.87,449.75v-.16C370.7,450.14,370.73,450.05,370.87,449.75Z"/><path class="cls-1" d="M343.64,516.92c.7.1,1.5.19,2.38.26C345.64,517.11,344.91,517,343.64,516.92Z"/><path class="cls-1" d="M344,517.33l-1.63-.09C342.15,517.39,342.36,517.48,344,517.33Z"/><path class="cls-1" d="M349,517.27c-1.07,0-2.06,0-3-.09.37.05.52.1.42.13Z"/><path class="cls-1" d="M145.9,252c0,.12-.05.26-.09.4C146.17,254.29,146.12,253.46,145.9,252Z"/><path class="cls-1" d="M367,307.41c0,.09,0,.13,0,.21,0-.08,0-.19,0-.27Z"/><path class="cls-1" d="M366.32,300.72a12.2,12.2,0,0,1,.72,6.63l2.5-2.22Z"/><path class="cls-1" d="M240,177.34l4.7.78c-5.68,1.28-9.78.84-5.37,1.94.67-2.72,18.28-.28,18.93-3l3.1.57c-.89,0-1,.13-1.91.1,6,1.31,4.48-2,12.25-1.57,2.7.21,4.59.6,2.75.92l6-.67c1.75.05,1.32.52-.42.47l9.19-.21-.06.08c1.31-.43,4.28-1.09,5.74-1.37,2.33.39-1.18.29-.58.63l5.09-.66c2.08.7-2.14,1.39-5.66,1.29,4.76,2.71,4.23-.69,14.49.9l-4.81.34c3.1,1.54,6.86,1,12.29,1.94-1.29-.5-10.88-2.42-5.35-3.09a20.42,20.42,0,0,0,6.59-.25c0,1,2.94.73,6.58.68l-.25,1.28c3.94-.37,3.63-1,6-1.6,4.39.12,5.3,1.12,6.33,2,7,.2-4.85-1.59,3.47-1.83,5.85.49,10,0,17-.8,4.09.44-.72.78.75,1.15l3.63-1c.89,0,.6.34.45.5,1.53-.2,1.6-.52,1.88-.83a1.16,1.16,0,0,1,.28-.24l.22-.11c.07,0,.11-.07.19-.1a4.66,4.66,0,0,1,1.52-.35c.56-.62,2-.3,3.09.12-.27,1.28-.58,2.51-.71,3.52,0,.25,0,.5-.06.74v.36l0,.55a13.13,13.13,0,0,0,.4,2.63c-.36,1.47-.78-.71-1.28-.26,1.05,8.16.76,7,2.18,13.7l-.84,5.71c1-4.2,2.1,1.16,3,5.85.46-1.48.87-2.75,1.06-3.61l.69,7.49c-.21.91-.65.15-1.18-1.07.1.51.21,1,.3,1.37-.47,2.68-1.21,1.29-1.92-.63.25-.91.52-1.82.79-2.7-.78-1.85-1.64-3.58-2.39-3.19a12.86,12.86,0,0,1,.34,2.45c-.21-.48-.4-.79-.52-.57s.15,1,.47,2.26L367,211.6l.56.41-.89,9.8c1.43,7,3.55,13.11,4.14,24.24-1.05-2.76-1.71-.59-2.95-.74,1.31-3-.56-8.62-.29-14.39-.14,3-.73,2.35-.94,1.58l1.2,10.29c-1-.23-.76,2.18-1.18,4.87,2-2,1.33,7.67,1.95,11.85-.68.26-1.36-.74-1.2-5.85-1.51,5.64,2.35,7.28,1.07,12.81,0-1.24.09-1.92-.25-2.41.59,2.91.12,10-.47,8.36v-1.25c-.24,8.28,0,25.2,1.69,26.44a6.71,6.71,0,0,1-2.4-1.59l5.73,14.77c-1.46-1.3-4.94,3.7-5.77-3.17a33.26,33.26,0,0,0,.07,8.57c.2-1.35,2.11-3.35,2.24-1.52-1.63,5.05-.87,3.51-2.26,9.72.32-2,2.61.23,2.54,3.41-.35-.5-2.27.27-2.5-.9l2.24,7.93c-.4-2-1.9-.35-2.54,1.42.44-.82,0,6.86.18,9l.53-3.36c-.34,8.95,3.16,8.84,3,17.72-.46-1.07-2.86-2.65-3.14,1.86,1.15,2.07,5.54,9.17,6.43,17l-.66,1.51.75,6a157.94,157.94,0,0,1-6.8-20c-.52,3.35-.78.93-.72,6-.62,1.77-.94-2.74-1-4.21l-.4,11.68c1.35-.52,1.35,8.93,2.47,8.48l-1.39-12.68c1.34-.52,3.81,7.33,3.57,15.61-.53,2.1-2.39-1.58-2.84-1.4.47,1.07.89,7.85.56,8.61l-.72-3.51c-.51,4.61,1.78,7.52.5,13.05-.09,1.91-1.73,5.71-.94,6,1.54-3.12,6.28-3.73,7.44-1.65-.11.67-1.47,10-2.23,12.21-1.2,3.15-2.87-4.72-3.9-2,.37.11.82,1.85,1,2.58-.32,2-1.14-.83-1,3.53,1.37.72-.11,8.86,1.16,2.06.39,4.26-.28,4.53-.22,9.54.88-1.6,3,4.5,3.38,8.77-.34-.25-.79.71-1,1.17-.12,8.74-.74,13.44-.75,21.59-.33.75-.73,4.69-1.32,3a18.48,18.48,0,0,1,.74,4.76c-1.18,4.87-.19-5.6-1.6-1.89.79.31,1.09,6.5,1.58,10.08,1.23-1.1.24-8.27-.26-11.86,1.69,0,3.46,6.23,4.24,14.75.42,6.77-1.09,2.93-.85,4.11a47.49,47.49,0,0,0,.22,6.43c.09.82.2,1.55.32,2.21s.26,1.16.4,2a49.32,49.32,0,0,1,1.06,10.59c-1.58,0-3.52-.1-5.79-.28-3.26-.53-3.27-1.07-3-1.57s1-.95.34-1.34a36.76,36.76,0,0,1,5.26,0c.21-2.63.66-4.83.63-7.66l-.51,4.92a31,31,0,0,1-.31-7.83,20.47,20.47,0,0,0-.41,3.78c-.08,1.7-.11,3.77-.14,6.05L360,511.5c-3.73-.06-7.33-.17-10.22-.44-1.75.36-4.76.74-3.33,1.17l3.1-.15c2.86.87-5.84,1.2-1.91,1.6-4.17.61-8.83,1.57-14.7,1.08l-1.1-1.23c.12.36,3.83.74,5.48.36-2.44.55-9-1.66-11.67,0l4.11.85c-4.18.61-9.35,1.92-14.55,1.53,2.37,1.21,1.2-.14,4.89,1.28-3.2-1.77,13.3.07,8.16-1.78,3.78,1.64,6.55.7,11.51,2.1-.16-.41-1.76-.78,2.6-.58a7,7,0,0,1,1-.35l.3,0-.24,0c.19-.06.2-.07-.09,0a7.44,7.44,0,0,1-2.23-.61c2.17-.93,9.11-.9,11.45-1.38,2.59.19-1.08.46.33.89l3.51-.72c.35.9,6.88,1.5.78,2l5.49,0c.42.1,1.8.19,3,.26s2.48.13,3.76.18c2.56.09,5.15.11,7.35.06,0-1.36-.08-2.61-.17-3.71a52.61,52.61,0,0,0-.33-6.88c-.19-1.75-.31-2.47,0-.54l-.07-1.81,0-.74,0-.54-.13-2.15-.28-4.31.22-.08c.11-8.49-1.49-17.48.14-27.19a68.86,68.86,0,0,1-.25-10.6l.77-.93c-.27-3.67.78-11,0-12.6,2.09-4,.46-17.82.83-24.28l-1-.24c.06-4.45-.23-8.71-.63-14.23l-.9.34c-.74-4.75.64-12.23.55-19.75.34.51.25,2.42,0,3.77,2-9-1.47-19,0-27.12a14.88,14.88,0,0,1,0-4.92,3.37,3.37,0,0,0,.05.5c0-.21,0-.52,0-.83.16-.9.34-1.82.48-2.82a17.79,17.79,0,0,0-.48,2.37c0-1.57-.13-3.94-.36-6.27l1-1c0-.19,0-.35,0-.54.36-2.29-.46-1.84-1.18-.62a24.74,24.74,0,0,0-.58-3.08c1.55-1.86-.53-6.11,1.13-8.65-.81-1.57-.61-11.7-2.31-12.95.23-.07.33-.76.34.5a27.71,27.71,0,0,0-.09-7.52l1.23-1.11L373,311.41c.75-3.45,1.18-4.88,2.12-1.46-1.45-8.26-.54-6.7-2-13.72l.79.34c0-2.51-1.09-6.52-.43-8,1.5-5.61.2-27.78,1.6-42.2-2.33,2.8,1.05-6.7-.76-7.27.55-.84.86-2.85,1.34-.51-.54-7.36.88-11.06-.65-16.13.56-.85.81,1.57,1.14.82a7.09,7.09,0,0,1-.15-3.1c.33-.75.46,1.08.7,2.24-.09-7.51-1.79-8.27-3.39-8.82.76-3.81.65-5.71-.39-8.46.52-1.33,1.06-3.54,1.25,1.13.08-2.62.77-16-.51-16.31a13.88,13.88,0,0,0,0-4.37c0-3.05.08-4.71.11-6.36,0-2.15,0-4.31,0-8.16l-.21,2.3a4.27,4.27,0,0,1-.79-2.66,33.93,33.93,0,0,1-3.5-.14,47,47,0,0,0-4.82-.12l.19-.16L361,170c-.88-.07-1.56-.1-2.11-.11a17.81,17.81,0,0,0-2.24.09c-1.14.12-2.26.21-7.54-.42l.58,1c-1,2.06-9.35-1.22-15.48-.43l2.21.55c-3.34.7-9.35-2.81-12.71-3.07-.73-.18,1.16-.28,2.18-.42-8.8-1.21-1.14,1.26-7.7,1.55-1.21-.68,1.56-1.72-2.85-1.85-2.2-.55-12.8,2.2-18.82.9,1.33.52,2.65,1-.4,1.44-4.66.19-12.62-2-16.83-.33-.59-.14-.82-.28-.84-.41-3.57.43-11.6.71-13.74,1.6-3.3-3.31-22.18,1.61-22.1-1.44l-11,.16.29-.31c-7-.2-9.5.53-12,1.26-1.62-.21-.44-.49-.3-.65-10.25-.62-11.27-.49-19.87,1l-.89-1c-2.33.58-14.82-1.55-24.87-.4.1-.11.31-.3,1.11-.44-5.66.58-12.43-.11-18.3-.49-1.47-.09-2.88-.17-4.21-.2l-1,0h-1.12c-1,0-2,0-2.85.08-3.58.16-6.13.59-6.76,1.49l-.82.08.81,9.73c.14-6.3.54-5.39,1-3.9s.9,3.49,1.2,1.55c.21,3.95-1.09,9.89-1.27,5.24l.18-.73c-1.88-1.71-.67,12-1.95,11.74.09,19-.95,37.52-1,55.31l1.46-2.05-.08,6.21c-.34,1.63-1.15,2.19-1.09-2.24-.83,2.33.7,7.43,1,7.55-.6,8.68-1.71-3.38-1.74-.72l.11,3.61.17-.82c.59,2.93,1.23,3.19,1.15,8.51-.29,3.37-.9,1.73-.95,3.06-.11,0-.16.44-.05,2l-.12,7.82,1.15-3.13c.57,3.47-.06,7.36,1.25,3.75-2,5.3-.72,29.17-1.35,32.43.84,4.85.83,9.65.73,15.58.24-1.47,1.54-2.36,1.38,2.76-2.68-1.87-1.17,9.38-3.09,13.52,1.28-3.7.31,14.56,2.13,8.75-.22,4.28-1,.26-1.64,3.5,1,10.17-.67,22.42-.32,35,.35.19.89-1.91,1.41.78l-1.76,6.64c.18,2.48,2,2.29.81,6.82.3-.64.75-1.6.86.07-1.72,24.63,1.4,50.32-1.82,75.33.68-3.39.75-1.13.78,1.46.16-1.69.86,0,1.34-.3l-1.32,10.47c1.32,1.91.09,11.23,1.35,12.32l-.23-3.31c1.5,4.4,3.32-6.17,5.24-5.53-1.7-4.94,2.51-13,.08-21.12.39-1.79.62,1.53,1.06.57-.82-2.05-1-4.53-.62-9.13l.2.52c-.2-12.91.61-18.44,1.15-32.94l-1,1.07a27.46,27.46,0,0,1,.67-5.23c-1.44-3.58-.09,8.75-1.67,5.49,1.93-4.13,0-22,2.22-24.77,0-4.79-1.1,1.41-1.08-3.39l.59-1.27-.76-1.21c.12-3.14.86-4.73,1.36-4.84-.05.76.15,2.16.19,3,.7-4.08-.24-11.49,0-12.89l-.37,4.6c-.55-13.08.23-29.06-1-41.7l-.45,1c-.82-9.65.49-7.73.11-18.33l.11.39a36.94,36.94,0,0,1-.62-7.86c.52,2.68,1-5,1.6-1.52-.89-10.47-.7-5.18-2.36-12.09l.74-1.6c-.67-2.35-1-2.55-1.22-7.84.64,4.34,1.13-3.38,2,1.48,1.63-11.1-1.63-16.49.74-21.59-2-5.1-1.14,9.62-1.58,6.76-.67,2.39-1.54-4.21-1.33-7.7.05-3.54,2.63-6,2.59-14.95,0,.88.14.94.13,1.83.53-3.34-.7-6.55.15-10.64-1.25-2.3.07-5.32-1.52-6l.37,8.18c-.41-4.64-2.27-9-1.37-16.64a23.49,23.49,0,0,1,1,4.44c.46-2.24-.31-4.31.17-6.63,1.58.66.34,10,1.55,14.93.67-2.4-1.15-9.41.57-6.91-2.19-3.59.27-8.8-1.39-14.84l.95.4a27.66,27.66,0,0,1-.58-4.7l1.23,3.19c-1.05-4.9.92-9.44.35-14.13,0,9.83-1.14,2.2-1.84,6.36-1.27-12.12,2.49-7,2-20.54.13,1.84-.57,6.9-1,4a44.67,44.67,0,0,1,1.06-7.58c-.2-9-1,1.38-1.56-2.44,1.16-3.07-.47-4.42-.84-8.36l1,0c.62-10.24-2-2.72-1.26-11.94l1.34,3.9-.35-4.81,1.1,1q-.12-.87-.24-1.62c0-.25-.06-.5-.09-.73A4.23,4.23,0,0,0,148,180a5.42,5.42,0,0,1-.16-1,7.81,7.81,0,0,1,.17-1.91l.63.1c-.5-.34-.88-.78-.68-1.13s1-.64,2.39-.65c.94.28.75.51.68.65s.38.2,3.6.13a10.42,10.42,0,0,1-2.42.79,5.43,5.43,0,0,1-.73.08h-.39l-.21,0a3,3,0,0,1-.86-.39c-.05.31-.38.61-.3.92a3.88,3.88,0,0,0,.94.3l.22,0h1.91c2-.05,3.81-.18,5-.18a16.1,16.1,0,0,1-2.52-.23l9.32-1.33c1.47.36.31.65-.85.93,1.89-.1,3.2-.54,6-.63-.72.79-.55,1.6-4.48,2l8.88-.87c.6.34,4.56.93,3.41,1.22,4.93.46,12.08-1.52,18.61-.91a8.37,8.37,0,0,1,2.41-.41c6.14.18,11.58,1.14,18.85.06l4.13,1.41c5.7-.32-5.59-1.77,3.9-2.3,6.71-.45,2.5,1.2,4.86,1.59,3.34-.71,9.15-2.15,15.32-1C243.53,177.45,241.92,177.24,240,177.34Zm70.26-.62c-1.36.2-4.07.83-5.07.26C306.76,175.87,308,176.4,310.28,176.72Zm58.66,41.72a9.63,9.63,0,0,1,.21-4.35A20.11,20.11,0,0,1,368.94,218.44Zm.1,298.09.22,0,3.13.23Zm-8.47-.42c-.64.13-.59.27-.33.4a3.47,3.47,0,0,1,1.3-.21c.31,0,.65,0,1,0l1.41,0a5,5,0,0,0-.65-.17,3.41,3.41,0,0,0-.63-.11A10,10,0,0,0,360.57,516.11ZM139.4,271.92l.25-1.23C139.93,273.46,139.68,272.69,139.4,271.92Z"/><path class="cls-1" d="M367.62,206.33a1,1,0,0,1,.53-.58C368,205.21,367.8,205.2,367.62,206.33Z"/><path class="cls-1" d="M196.32,177.85h-.22a.48.48,0,0,0-.21.17Z"/><path class="cls-1" d="M367.06,424.6a10.39,10.39,0,0,1,.5-2.5C367.32,422,367.12,422.62,367.06,424.6Z"/><path class="cls-1" d="M327.15,517.75l4-.25a15.67,15.67,0,0,1-3.64-.32C327.64,517.41,328.41,517.73,327.15,517.75Z"/><path class="cls-1" d="M292.08,511.78c-.59.12-1.25,0-1.83.13l.16.45C292.93,512.33,294.68,512,292.08,511.78Z"/><path class="cls-1" d="M323.41,514.54c-.32-.81-2.86-.53-5.69-.38h.5C317.39,515.29,320.41,514.92,323.41,514.54Z"/><path class="cls-1" d="M317.07,514.18c-.87,0-1.76.06-2.62,0C314.12,514.66,315.51,514.3,317.07,514.18Z"/><path class="cls-1" d="M352.57,516.65c-1.34-.21-.84,1-1.6.7C349.47,518.39,359.91,516.1,352.57,516.65Z"/><polygon class="cls-1" points="321.12 511.87 322.13 512.87 323.72 512.06 321.12 511.87"/><path class="cls-1" d="M343.46,512.6l-4.52-.27c.07.16-.51.26-1.21.34C340.51,512.7,343.57,512.9,343.46,512.6Z"/><path class="cls-1" d="M337.73,512.67a20.91,20.91,0,0,0-3.64.16C334.87,512.82,336.56,512.79,337.73,512.67Z"/><polygon class="cls-1" points="327.3 511.57 328.63 511.78 331.83 511.85 327.3 511.57"/><path class="cls-1" d="M371.93,490.8l-.29-4.94c-.34-.5-.55.84-.41,2.68C371.47,489.72,371.6,491.55,371.93,490.8Z"/><path class="cls-1" d="M369.19,505.35a6.57,6.57,0,0,1,.76-1.81l-1.24-.15C368.87,504.26,369,504.69,369.19,505.35Z"/><path class="cls-1" d="M368.9,491.33c-.35-.49-1-7.16-.91-.91C368.33,490.92,368.61,495.86,368.9,491.33Z"/><polygon class="cls-1" points="370.47 416.97 370.48 418.23 372.52 418.05 370.47 416.97"/><path class="cls-1" d="M365.6,351.44c-.49,5.85,1.25,1.39.64,6.67.48,1.37.5-4.32.92-2.91C366.65,351.67,366.94,349.82,365.6,351.44Z"/><path class="cls-1" d="M367.16,355.2c.08.56.17,1.16.31,1.8A13.94,13.94,0,0,0,367.16,355.2Z"/><polygon class="cls-1" points="138.37 501.5 137.94 505.26 138.63 502.83 138.37 501.5"/><path class="cls-1" d="M139.88,508.72l-1.3.88,1.18,2.26A9.25,9.25,0,0,1,139.88,508.72Z"/><path class="cls-1" d="M320.73,179.33,321,179c-.58-.34-1.46-.36-3.22-.41Z"/><polygon class="cls-1" points="269.73 178.36 270.61 178.39 268.97 177.22 269.73 178.36"/><path class="cls-1" d="M226.93,179.86c1.74,0,3.8-.21,5.55-.16C228.67,179.91,226.45,178.4,226.93,179.86Z"/><path class="cls-1" d="M314.14,355.05c.08-.06-.76,0-.91-.05A3.64,3.64,0,0,0,314.14,355.05Z"/><polygon class="cls-1" points="315.99 356.17 315.65 356.12 316.46 356.37 315.99 356.17"/><path class="cls-1" d="M315.81,357.17c1.41.19-.17-.41.36-.49h.32l-1.12-.25C315.52,356.66,316.22,357.1,315.81,357.17Z"/><path class="cls-1" d="M312.69,356.86c.54.12.44.2.19,0l-.14,0S312.74,356.84,312.69,356.86Z"/><path class="cls-1" d="M312.74,356.8c0-.07-.46-.08,0,0Z"/><path class="cls-1" d="M313,357.21l-.45-.24a3.34,3.34,0,0,1-.63-.14A3,3,0,0,0,313,357.21Z"/><path class="cls-1" d="M313.93,357.63l-.18-.12C313.61,357.47,313.57,357.47,313.93,357.63Z"/><path class="cls-1" d="M313.35,357.26l.4.25c.22.06.66.2-.14-.1C314,357.55,313.63,357.4,313.35,357.26Z"/><path class="cls-1" d="M313.58,357.26a2,2,0,0,1,1,.26C314.41,357.24,313.43,357,313.58,357.26Z"/><path class="cls-1" d="M317.24,357.55l.43,0-.45-.2C317.44,357.41,316.8,357.46,317.24,357.55Z"/><path class="cls-1" d="M312.08,357.44c.28.13.75.3,1.11.45l-.29-.21A3.55,3.55,0,0,1,312.08,357.44Z"/><path class="cls-1" d="M313.19,357.89l.44.31C313.72,358.13,313.5,358,313.19,357.89Z"/><path class="cls-1" d="M315.42,358.17c-.31-.2-.65-.39-1-.57.33.19.67.4,1,.61Z"/><polygon class="cls-1" points="311.9 357.71 311.3 357.35 312.2 357.92 311.9 357.71"/><path class="cls-1" d="M311.91,358c-.49-.32-.86-.46-1.16-.67.07.08.47.38.82.66C311.39,357.78,311.47,357.79,311.91,358Z"/><path class="cls-1" d="M312.08,358.38a6,6,0,0,0-.51-.42C311.67,358.05,311.82,358.18,312.08,358.38Z"/><path class="cls-1" d="M313.4,358.32a4.56,4.56,0,0,0-.81-.32l.78.35Z"/><path class="cls-1" d="M313.4,358.36h0l-.09.06Z"/><path class="cls-1" d="M313.41,358.31h0C313.48,358.35,313.51,358.36,313.41,358.31Z"/><path class="cls-1" d="M314.55,358.24a3.78,3.78,0,0,0,1.56.73C315.59,358.69,315.17,358.62,314.55,358.24Z"/><path class="cls-1" d="M314.4,358.72l.25,0a5.23,5.23,0,0,1-.72-.34Z"/><polygon class="cls-1" points="314.61 358.9 314.4 358.72 314.31 358.74 314.61 358.9"/><path class="cls-1" d="M312.86,358.66c.28.23.28.3.29.39.18,0,.3,0,.34-.05C313.27,358.85,312.87,358.58,312.86,358.66Z"/><path class="cls-1" d="M313.18,358.56l0,0C313.29,358.62,313.31,358.63,313.18,358.56Z"/><path class="cls-1" d="M312.76,359.58l.12.09-.11-.1Z"/><path class="cls-1" d="M313.64,359.07c.17,0,0-.1-.21-.26.06.08.09.15.06.19S313.66,359.11,313.64,359.07Z"/><path class="cls-1" d="M312.32,358.73a2.76,2.76,0,0,0,.44.2C312.52,358.8,312.15,358.6,312.32,358.73Z"/><path class="cls-1" d="M313,358.49l0,0C312.81,358.39,312.89,358.43,313,358.49Z"/><path class="cls-1" d="M313,358.49c.09.08.27.21.42.32a1.33,1.33,0,0,0-.21-.22Z"/><path class="cls-1" d="M316.8,363.31c-.59-.54-1-1.18-.22-.81a25.16,25.16,0,0,0-3.7-2.83,3.17,3.17,0,0,1,.79.83,4.85,4.85,0,0,1,1.48.91c.17.45-.34,0-.73-.2.83.55.9,1.17,2,2.1-.06-.17-.14-.35-.22-.53C316.38,362.92,316.59,363.23,316.8,363.31Z"/><path class="cls-1" d="M313.1,359.53l0-.1a5.07,5.07,0,0,1-1-.52,5.76,5.76,0,0,0,.68.66l.25-.13Z"/><path class="cls-1" d="M313.18,359.23a13.69,13.69,0,0,0,1.72,1.32c.07-.21-.51-.53-.77-.82,0,.35-.35-.33-.86-.45a.44.44,0,0,1-.12-.23,2.08,2.08,0,0,1-.39-.12l0,0h0c.1.05.15.09.09.06h0c.09.08.18.14.26.2-.19,0-.19-.12-.26-.2l-.11-.07h0c.09.15.18.31.26.47S313.2,359.38,313.18,359.23Z"/><path class="cls-1" d="M317.74,359.88a1.06,1.06,0,0,1-.19-.06C317.64,359.88,317.7,359.92,317.74,359.88Z"/><path class="cls-1" d="M317.21,359.82c-.1-.07-.41-.23-.3-.28.27,0,.38.17.64.28a1.56,1.56,0,0,0-.94-.44l.1.07a5.12,5.12,0,0,1-1.47-.35A16.69,16.69,0,0,0,317.21,359.82Z"/><path class="cls-1" d="M315.33,359.8c.08.15.16.31.23.46l.71.25-.39-.22C316.11,360.23,315.62,360,315.33,359.8Z"/><polygon class="cls-1" points="312.41 359.33 311.71 358.74 312.64 359.63 312.41 359.33"/><polygon class="cls-1" points="312.34 359.6 311.75 359.07 312.06 359.43 312.34 359.6"/><path class="cls-1" d="M291.66,370.76l-.11.22A.91.91,0,0,0,291.66,370.76Z"/><path class="cls-1" d="M292.4,370.81l0-.39C292.38,370.63,292.37,370.79,292.4,370.81Z"/><path class="cls-1" d="M306.07,361c-.14-.74-.31-1.88-.29-1l0,.87C305.93,360.74,306,360.84,306.07,361Z"/><path class="cls-1" d="M298.47,366.2a2.51,2.51,0,0,0,0,.27c0-.3.07-.57.1-.83C298.56,365.81,298.52,366,298.47,366.2Z"/><path class="cls-1" d="M298.36,369.8l-.2-.56A2.88,2.88,0,0,0,298.36,369.8Z"/><path class="cls-1" d="M287.61,371.68l-.12.88C287.68,372.55,287.6,372.11,287.61,371.68Z"/><path class="cls-1" d="M310.9,361.16a2,2,0,0,0-.27-.46C310.82,361.17,311.13,361.87,310.9,361.16Z"/><path class="cls-1" d="M292,361.55a1.42,1.42,0,0,0-.09.52A1.16,1.16,0,0,0,292,361.55Z"/><path class="cls-1" d="M310.52,360.73l.08.21c0-.15,0-.28,0-.24C310.48,360.34,310.41,360.14,310.52,360.73Z"/><path class="cls-1" d="M270.77,362.55s0-.06.07-.09S270.74,362.53,270.77,362.55Z"/><path class="cls-1" d="M277.48,355.49c.06,0,.07.07.09.12S277.61,355.54,277.48,355.49Z"/><path class="cls-1" d="M311.35,360c0-.08-.05-.08,0,0Z"/><path class="cls-1" d="M313.83,362.41c.06.08.13.18.26.33Z"/><path class="cls-1" d="M310.92,366.13h0C311,366.3,311,366.27,310.92,366.13Z"/><path class="cls-1" d="M311.66,360.28a1.05,1.05,0,0,0-.21-.15Z"/><path class="cls-1" d="M311.39,360l.08,0C311.38,359.9,311.32,359.83,311.39,360Z"/><path class="cls-1" d="M311.35,360.09s0,0,.1,0a.91.91,0,0,1-.1-.1A.06.06,0,0,1,311.35,360.09Z"/><path class="cls-1" d="M280,367.82v-.09C279.77,368,279.84,368,280,367.82Z"/><path class="cls-1" d="M303.58,370v0l0,0Z"/><path class="cls-1" d="M303.23,370.68c.15-1.08.23-.95.34-.72l-.11-2.5Z"/><path class="cls-1" d="M289.88,371l.24.77c-.29,1.29-.5.85-.27,1.94,0-2.71.94-.28,1-3l.16.57s-.05.13-.1.11c.31,1.3.24-2,.63-1.58a1.24,1.24,0,0,1,.15.93l.31-.68c.09.06.07.53,0,.48l.47-.22v.08c.06-.43.22-1.09.29-1.37.12.39-.06.29,0,.63l.26-.66c.11.71-.11,1.39-.29,1.29.25,2.71.22-.68.75.9l-.25.34c.16,1.54.35,1,.63,1.95-.06-.5-.56-2.42-.27-3.1.08.2.18.3.34-.24,0,1,.15.72.34.67l0,1.28a7.44,7.44,0,0,0,.31-1.6c.22.13.27,1.12.32,1.95.37.21-.25-1.58.18-1.83.3.49.52,0,.87-.79.22.44,0,.78,0,1.14l.19-1c.05,0,0,.34,0,.5.16-.4,0-1.28.26-1.63.07-1.41.51,2.06.82.46.07.37,0,.79,0,1.28a9.71,9.71,0,0,0,.7-2.17l.29.84a6.84,6.84,0,0,1,.31-3c-.08-.46-.15-.87-.19-1.06l.39-.69a5.45,5.45,0,0,1-.06,1.19c0-.11.05-.21.07-.31a5.25,5.25,0,0,1,0,1.93c0-.26-.09-.53-.14-.79a16.26,16.26,0,0,0-.17,2.38,1,1,0,0,1,.13-.34,3.65,3.65,0,0,0,0,.53c0,.13.06-.15.12-.48l.09,1.43,0-.57.5.89c.36-1.43.68-3.55,1.25-4.13a21.68,21.68,0,0,0,0,2.94c-.16-1.31-.44.56-.74.29.16.14.12.73.08.94l.53-1.19c0,1,.11.76.25,1.17-.1-2,.4-1.33.61-1.94,0,.67,0,1.36-.3,1.19.29,1.51.38-2.35.66-1.07-.06,0-.1-.08-.12.26.15-.6.51-.13.43.46h-.07c.43.24,1.3,0,1.36-1.68,0,.22-.05,2.05-.08,2.39l.76-5.72c-.07,1.46.19,4.94-.16,5.76.1.21.23.45.44-.06a10.76,10.76,0,0,1-.08-2.25,16.11,16.11,0,0,0,.5,2.26,7.19,7.19,0,0,1,.18-2.53c0,.34,0,2.26-.05,2.5l.41-2.25a11.71,11.71,0,0,0,.07,2.54c0-.44.36,0,.46-.18l-.17-.52c.46.34.46-3.17.91-3.05a11.54,11.54,0,0,0,.1,3.14c.11-1.15.47-5.54.87-6.42l.08.66.31-.75c-.19,1.73-.73,5.38-1,6.8.17.52.05.77.31.71.09.62-.14.94-.22,1l.6.4c0-1.34.46-1.35.44-2.47l-.65,1.4c0-1.34.37-3.82.8-3.58a26.4,26.4,0,0,1-.07,2.84c.05-.46.4-.88.44-.56l-.18.72c.24.51.39-1.78.67-.5.1.09.3,1.74.31.94a69.16,69.16,0,0,1-.08-7.43,18.11,18.11,0,0,1,.63,2.22c.16,1.21-.25,2.87-.11,3.9a6.17,6.17,0,0,1,.13-1c.11.31,0,1.13.19,1,0-1.36.59.11.1-1.15.28-.39.31.28.65.22a13.77,13.77,0,0,1,.19-3.39,7.36,7.36,0,0,0,.18,1c.46.12.86.75,1.33.71a3.48,3.48,0,0,1,.53,1.2c0-.26-.07-.73.05-.82.66,1-.27.32.38,1.58a4.68,4.68,0,0,1,.08-1.79c-.5-1.11-.5,0-.58.56a23.79,23.79,0,0,1-.79-4.37c0-.5.53,1,.47.72.61,0-1-2.84-.19-1.94a26.64,26.64,0,0,1,1.59,2.46c0,.5-.68-.36-.79-.25l.42.34c.12.36.08.71-.15.48.62.77,1-.43,1.94-.06a2.55,2.55,0,0,0-.6-1l0,.22c-.64-.61-.55-1.09-.94-1.3-.25-.59-.77-1.42-.27-1.21l.88.86c-.25-.25-.62-.42-.42-.1-.31-.46,1.45.93.4-.31l-.71-.48c-.31-.57-1.14-1.59-.74-1.44-.94-.77.07.12-1-.77,1.34,1.15-.31.23,1.1,1.43-1.23-1.09-.66-.35-1.7-1.3.28.3.55.55.33.48l.22.29,0,0,0,0c0,.05,0,.06,0,0q.21.18.45.42c.56.76.37.88.61,1.29-.17-.1-.25-.38-.55-.7l.35.64a8.86,8.86,0,0,1-1.19-1.63l-.1,0c-.32-.39-.46-.54-.3-.18-.12-.16.38.94.08.29a5.13,5.13,0,0,1,.12.59l-.1-.21c-.08,0,0,.37,0,.6s-.14.28-.44-.51c0,.22,0,.5-.14.25l-.17-.78c0,.27-.24-.78-.17,0-.14-1-.16-1.16-.19-1.06l0,.11s-.11.08-.16.12-.22.1-.3,0l0,1c-.23-.06-.44.23-.73.64l0,.89c-.25.74-.63-.63-1-.54,0-.35.13-.26.2-.05-.47-2-1,1.48-1.4,0-.1.33-.18.21-.25,0,0,0,0,0,0-.05h0c-.05-.15-.09-.33-.15-.48a2.93,2.93,0,0,0,.13.48c-.08,0-.21.13-.33.36l-.05-1,0,0c-.12-.35-.1.46,0,1.18a4.25,4.25,0,0,0-.16.58c-.09-1.55-.31.53-.44-1.13-.08.81-.6.61-.67,2.31,0-.22,0-.33,0-.34-.13-.2-.27-.39-.39.09l-.05-1.22-.3,1.64a4.26,4.26,0,0,1-.07-2.12c-.43,1.45-.35.55-.71,2l0-.79c-.13,0-.34,1.09-.41.44-.29-1.51-1.43-.21-2.18-1.61.15,2.33-.34-1-.37.76a3.8,3.8,0,0,1,0-1.34c-.38.54-.57-.87-.83.65,0-.55.08-.81.05-1.14,0,.12-.13.48-.16.15a1.52,1.52,0,0,1,.11-.7c-.39.09-.43,1.79-.45,3.39-.2-.76-.3-.65-.44.4-.07-.53-.18-1.07.06-1.26-.14-.08-.83-.76-.84.51,0-.32-.19-.09-.22.06-.31-.08-.33-.19-.63-.07l.08.21c-.12,1.54-.25.34-.49.53v-.16c-.55-1.12-.24.53-.78-.74l0,1c0,2.06-.48-1.22-.8-.43l.11.55c-.17.71-.48-2.81-.65-3.06s.06-.29.11-.42c-.45-1.22-.06,1.25-.39,1.54-.07-.67.08-1.72-.15-1.85-.11-.54-.66,2.21-1,.91a3,3,0,0,1,0,1.43c-.24.19-.65-2-.87-.33a2,2,0,0,1,0-.41,4,4,0,0,0-.71,1.6c-.17-3.31-1.14,1.61-1.13-1.44l-.57.16,0-.31c-.37-.2-.49.53-.62,1.26a1.8,1.8,0,0,1,0-.65c-.52-.62-.58-.49-1,1l0-1c-.12.57-.77-1.56-1.28-.4a1.82,1.82,0,0,1,.05-.45c-.58,1.17-1.39-2.75-1.6.86l-.32.87c.41.31-.1,1.56.07,2.17-.21.2-.45-1.12-.22-1.29l0,.18c.14-1.87-.5-.7-.39-2a1.1,1.1,0,0,1-.55-.14,2.25,2.25,0,0,1-.43-.44,4.73,4.73,0,0,0-.73-.78l-.39,1.42-.18-.16c.05-.35.32-1.11.42-1,.21-.81-.45.57-.58.86-.06-.65.72-1.55.64-1.62l-.13.07-.05.17c-.3.52-.55,1.1-.7,1a5.28,5.28,0,0,1,.3-.91c0-.09,0-.14,0-.07l-.14-.22-.45,1.07c-.36.45-.2-.18-.69,1,.37-1,.26-1.22,0-1.34s-.47-.17-.32-.45c-.65.56-.83.45-.91.2-.12.22-1,1.22-1,.93,1.9-1.89.53-1.12,1.84-2.53-.42.48-.56.45-.76.47s-.42,0-1,.71c.06-.27.76-.65,1.17-1.15-.5.19-.5-.08-.42-.38s.28-.68,0-.77a7.53,7.53,0,0,1-1.24.69c.47-.37.93-.72,1.41-1.07-.18,0-1.83.87-.82.16a2.64,2.64,0,0,1-.76.38c.53-.81.05-1.09-.29-1.53s-.46-1,1-1.8c-.64.27-.72.2-.77.11a9.8,9.8,0,0,1-1.31.29c.4-.24.8-.47,1.22-.67-1.32.14-.16-.39-1.41-.26l.24.09a10.69,10.69,0,0,0-2.43.4,23.7,23.7,0,0,1-2.7.64c.86,0,.26.3-.22.62s-.86.69.38.65c-.35.2-.62.05-1,.21.83-.06,1,0,.74.4l-.2,0c.4.72-.28,1.26-.44,2.37l.86-.41c-.05.23-.31.38-.49.56,1.42-.33-.13-.56,1.42-.93-.85.46-.73.79-.64,1.12s.19.65-.76,1.22c.14.3.95-.57,1.07-.28l-.49.35.72-.28c0,.24-.63.68-1.07.93,0-.08-.19-.07-.25-.1-.5.59.61.61.46.8l.14-.47a3.16,3.16,0,0,1,1,1.13,1.64,1.64,0,0,0,1.47.69l.3-.33c1-.06,0,.71.76,1l-.09.06c.42-.21.7-.25.8-.08-.49.26-.44,1-1,1.26,1.15-.18.76-.27,2.16-1.28l-.38.65c.54-.44.76-.71,1.12-.68-.59.35-.48,1.05-1.23,1.54-.16.9.33.76.7.59s.63-.26.2.86c1.32-1.61,0-1.3.4-1.59.23-.64,1-1.18,1.09-.91s-.93,2.5-.32,2.77c0,0-.12.1-.17.07,0,.58.71-.48.65.42.61-1.1.33.2.93-1.27l-.64.15c.48-.26,1.35-1.91,1.47-.91a3.78,3.78,0,0,1-.57.83c0,.49.36-.2.35.31-.53,1.49-.73.1-1.49,1.1-.07.69,1-.84.28.71.49-1,.61-.86.74-.67s.27.46.7-.31l-.29.91c.11-.13.36-.53.47-.48l-.53,1.14c.6-.94.46,1,.95.56-.73-.12.08-1.15-.05-1.89,1.05-1.07,0,2.54,1.08,2.29-.16.11-.42-.66-.14-1.05a2.72,2.72,0,0,1,.4,1.13c.66-.15,0-1,.35-1.54.08,1.17.36-.44.64-.79l-.08,1c.64.66.32-2,.85-1.21l-.32,1.32.34-.33-.11,1.1c.39-.8.5-.58.83-.26-.06-.68,0-1.75.27-1.78.15.57-.09.92.24.78-.08.6-.16,1.36-.3.47,0,.32-.08.61-.09.92.17.66.43.15.55.14a.34.34,0,0,1-.13-.22l.48-1.34a2.42,2.42,0,0,1,0,.94c.09-.11.16-.55.3-.63a5.91,5.91,0,0,1-.23,2l.46-.87a6.26,6.26,0,0,1,.17,1.22c.26.47.63-1.52,1-.91a1,1,0,0,1,.13-.41c.31.18.59,1.14,1,.07l.21,1.4c.29-.32-.29-1.77.2-2.3s.13,1.2.25,1.59c.17-.71.47-2.15.79-1C290.06,371.11,290,370.9,289.88,371Zm3.62-.63c-.07.2-.21.83-.26.26C293.32,369.53,293.38,370.06,293.5,370.38Zm5.5-2.32c-.05.32-.13.16-.23-.21C298.84,367.78,298.92,367.81,299,368.06Zm12.53-7.17,0,0C311.3,360.64,311.39,360.76,311.53,360.89Zm.34.27a4,4,0,0,0-.23-.34c.14.21.12.24.05.2C311.84,361.23,312,361.36,311.87,361.16Zm-30.31.31-.07.25C281.29,361.93,281.42,361.71,281.56,361.47Z"/><path class="cls-1" d="M298.37,369.38c0-.16,0-.34,0-.53A1.37,1.37,0,0,0,298.37,369.38Z"/><path class="cls-1" d="M287.63,371.51h0v.18Z"/><path class="cls-1" d="M309.61,369.94a1.74,1.74,0,0,1-.13-.5C309.48,369.68,309.51,369.88,309.61,369.94Z"/><path class="cls-1" d="M311.44,359.36c0,.09.07.17.1.26,0-.07.16.06.29.15C311.67,359.61,311.43,359.4,311.44,359.36Z"/><path class="cls-1" d="M316.83,362.24c-.08-.1,0-.06-.05-.16l-.37-.26C316.36,361.94,316.59,362.23,316.83,362.24Z"/><path class="cls-1" d="M313.79,361.53c.59.56.47.29.44.1,0,0,0,0,0,0C313.41,360.85,313.61,361.18,313.79,361.53Z"/><path class="cls-1" d="M314.23,361.59s0-.09.06-.09C314,361.19,314.19,361.47,314.23,361.59Z"/><path class="cls-1" d="M311.69,360.62c.14.14-.63-.83-.42-.58C310.67,359.2,311.91,361.13,311.69,360.62Z"/><polygon class="cls-1" points="315.79 363.32 315.03 362.66 315.55 363.28 315.79 363.32"/><path class="cls-1" d="M314.47,363.55l.35.06a.69.69,0,0,1-.18-.29C314.51,363.39,314.28,363.33,314.47,363.55Z"/><path class="cls-1" d="M314.64,363.32c.06,0,.1-.09,0-.24A.29.29,0,0,0,314.64,363.32Z"/><path class="cls-1" d="M315.78,363.76l-.2-.1a.85.85,0,0,1-.17.06Z"/><path class="cls-1" d="M312.55,364.67l-.1.38c.11.34.24.51.27.33A1.67,1.67,0,0,0,312.55,364.67Z"/><path class="cls-1" d="M314.43,366.75a2.75,2.75,0,0,1-.47-.61l.56,1.11Z"/><path class="cls-1" d="M313.75,367.48c.11.33-.07,1.14.29.87C314,368,314.13,367.6,313.75,367.48Z"/><polygon class="cls-1" points="309.22 366.53 309.28 366.52 309.27 364.48 309.22 366.53"/><path class="cls-1" d="M305.84,371.41c.3.49.08-1.26.35-.65.07-.48-.23-.5-.15-.91C305.86,370.35,305.76,370.07,305.84,371.41Z"/><path class="cls-1" d="M306,369.85a2.46,2.46,0,0,0,.09-.31A1.15,1.15,0,0,0,306,369.85Z"/><path class="cls-1" d="M278.48,354.83l.4-.16-.67.15Z"/><path class="cls-1" d="M277,354.8l1.29-.16c-.39.05-.78.09-1.17.11C277.13,354.76,277.23,354.73,277,354.8Z"/><path class="cls-1" d="M294,373v-.32c0-.33-.07-.36-.16-.41Z"/><polygon class="cls-1" points="291.41 372.03 291.46 372.05 291.37 370.88 291.41 372.03"/><path class="cls-1" d="M289.21,373.52c.09.05.19-.21.29-.16C289.3,373.57,289.19,372.06,289.21,373.52Z"/><path class="cls-1" d="M303.57,369.84c.08-.18-.76-.12-.91-.14C302.84,370,303.79,369.83,303.57,369.84Z"/><polygon class="cls-1" points="305.48 372.73 305.13 372.68 305.97 373.1 305.48 372.73"/><path class="cls-1" d="M305.46,375.43c1.43-.26-.23-1,.28-1.46l.32-.08-1.15-.22C305.09,374.26,305.86,375,305.46,375.43Z"/><path class="cls-1" d="M302.37,376.87c.56-.09.48.31.17-.34l-.14.06A.62.62,0,0,1,302.37,376.87Z"/><path class="cls-1" d="M302.4,376.59c0-.28-.46.19,0,0Z"/><path class="cls-1" d="M302.72,377.91l-.49-.38c-.33.08-.41.41-.64.29C301.86,378.2,302.18,378.13,302.72,377.91Z"/><path class="cls-1" d="M303.76,378.26l-.21-.19C303.42,378.1,303.37,378.15,303.76,378.26Z"/><path class="cls-1" d="M303.11,377.66l.44.41c.24-.06.7-.06-.16-.19C303.82,377.91,303.41,377.83,303.11,377.66Z"/><path class="cls-1" d="M303.33,377.42c.31-.21.5-.48,1-.1C304.13,376.6,303.13,376.71,303.33,377.42Z"/><path class="cls-1" d="M306.94,375.57l.41-.29-.48-.24C307.11,375.16,306.49,375.58,306.94,375.57Z"/><path class="cls-1" d="M302,381.88a10.47,10.47,0,0,0,1.2-.57l-.35-.39C302.62,381.2,302.43,381.73,302,381.88Z"/><path class="cls-1" d="M303.18,381.31l.52.55C303.76,381.25,303.52,381.2,303.18,381.31Z"/><path class="cls-1" d="M305.35,378.35c-.37-.26-.73-.47-1.1-.7l.56.4a3,3,0,0,1,.55.48Z"/><path class="cls-1" d="M302,384.8l-.71-.13c.36.12.71.22,1.06.3Z"/><path class="cls-1" d="M302.07,386.66c-.58,0-1,1-1.35.91.11.51.61.67,1.06.76C301.53,388.07,301.59,387.53,302.07,386.66Z"/><path class="cls-1" d="M302.43,388.52a2.11,2.11,0,0,0-.65-.19A.76.76,0,0,0,302.43,388.52Z"/><path class="cls-1" d="M303.55,383.06a2.09,2.09,0,0,0-.86.89l.85-.62C303.54,383.25,303.55,383.15,303.55,383.06Z"/><path class="cls-1" d="M303.57,383.31l0,0c0,.3,0,.51-.05.6C303.5,383.85,303.52,383.66,303.57,383.31Z"/><path class="cls-1" d="M303.56,383v.07C303.64,383,303.66,383,303.56,383Z"/><path class="cls-1" d="M304.58,380c.47.32,1,.87,1.71.08C305.71,379.92,305.29,380.4,304.58,380Z"/><path class="cls-1" d="M304.62,382.29l.2-.72c-.23.08-.55.3-.79.18Z"/><polygon class="cls-1" points="304.9 382.51 304.63 382.29 304.55 382.56 304.9 382.51"/><path class="cls-1" d="M303.23,386.67c.37.07.41.38.47.72A5,5,0,0,0,304,386C303.68,386.12,303.2,386.23,303.23,386.67Z"/><path class="cls-1" d="M303.47,385l0,0C303.59,384.94,303.61,384.89,303.47,385Z"/><path class="cls-1" d="M304.06,390.76l.09-.16-.16.15Z"/><path class="cls-1" d="M304.11,385.83c.17-.39,0-.44-.31-.46a1.36,1.36,0,0,1,.15.63C304.07,386,304.15,385.9,304.11,385.83Z"/><path class="cls-1" d="M302.83,389.34c.18-.32.33-.63.47-.94C303,388.77,302.61,389.46,302.83,389.34Z"/><path class="cls-1" d="M303.28,385.25l0,0C303.06,385.43,303.15,385.36,303.28,385.25Z"/><path class="cls-1" d="M303.28,385.25a1.08,1.08,0,0,0,.52.12.7.7,0,0,0-.28-.35A1.77,1.77,0,0,1,303.28,385.25Z"/><path class="cls-1" d="M310,385.27c-.68.77-1.89,1.49-1.57.73l.05-.09a17.7,17.7,0,0,0-3.73,3.76c-.25.34-.46.66-.62.93a4.83,4.83,0,0,1,1.76-1.13c.11-.3-.11-.66.15-1.08a1.43,1.43,0,0,1,.52-.52.93.93,0,0,1,.18-.13c1.09-.41.3.28.29.7.62-1,2.15-1.44,3.16-2.89l-.92.51C309.48,385.84,310,385.48,310,385.27Z"/><path class="cls-1" d="M303.93,389.51l-.1-.19a12.48,12.48,0,0,1-1.08,2,.38.38,0,0,0,.36,0,3.37,3.37,0,0,0,.88-.58l-.27,0,.09-1.2Z"/><path class="cls-1" d="M303.83,388c.86-.44,1.22-.16,2.16-1.3-.06-.64-.72.09-1.1-.09.22,1.09-.48,0-1,1.31a1,1,0,0,1-.22-.56c-.11.32-.24.66-.4,1l.06-.07h0c.1-.15.17-.22.11-.1s0,0,0,0a2.23,2.23,0,0,1,.32-.19c-.18.53-.22.24-.32.19l-.13.09h0c.15.35.31.67.47,1A2.66,2.66,0,0,0,303.83,388Z"/><path class="cls-1" d="M308.15,380.2a.69.69,0,0,1-.2.07C308.05,380.31,308.13,380.31,308.15,380.2Z"/><path class="cls-1" d="M307.63,380.71c-.12,0-.47,0-.38-.26.26-.26.41-.09.7-.18-.23-.06-.62-.34-1,.2l.12,0a5.62,5.62,0,0,1-1.49,1.35C306.31,381.48,306.87,381.18,307.63,380.71Z"/><path class="cls-1" d="M306,383.8c.14.24.28.46.42.67l.74-.89-.44.28C306.84,383.27,306.29,383.68,306,383.8Z"/><path class="cls-1" d="M303.78,391.18l-1,.91c.66-.42,1.3-.85,1.91-1.28Z"/><polygon class="cls-1" points="305.41 391.07 304.68 391.87 305.5 391.39 305.41 391.07"/><path class="cls-1" d="M324.84,354.1l-.22-.21A.72.72,0,0,0,324.84,354.1Z"/><path class="cls-1" d="M324.79,355.6l.39,0C325,355.57,324.8,355.54,324.79,355.6Z"/><path class="cls-1" d="M334.57,386.65c.74,0,1.89,0,1-.41l-.87-.35C334.86,386.33,334.76,386.55,334.57,386.65Z"/><path class="cls-1" d="M329.39,367.92l-.26.09.83.21Z"/><path class="cls-1" d="M325.8,367.71l.56-.4A2,2,0,0,0,325.8,367.71Z"/><path class="cls-1" d="M323.92,350c-.29.19-.59.39-.88.6A5.81,5.81,0,0,0,323.92,350Z"/><path class="cls-1" d="M319.08,390.76a1.24,1.24,0,0,0,.65.52C319.41,390.78,319.16,390,319.08,390.76Z"/><path class="cls-1" d="M334.05,354.69a.81.81,0,0,0-.53-.18A.61.61,0,0,0,334.05,354.69Z"/><path class="cls-1" d="M320.48,391.28a1.53,1.53,0,0,0-.14-.21.72.72,0,0,1-.61.21C320,391.65,320.23,391.88,320.48,391.28Z"/><path class="cls-1" d="M313.39,351h-.1C313.41,351,313.41,351,313.39,351Z"/><path class="cls-1" d="M304.64,358.87a.73.73,0,0,1-.07-.35C304.51,358.58,304.52,358.69,304.64,358.87Z"/><path class="cls-1" d="M311.39,391.45c-.35.06-.08.1,0,0Z"/><path class="cls-1" d="M311.44,388a1.52,1.52,0,0,0,.3-.42A2,2,0,0,1,311.44,388Z"/><path class="cls-1" d="M322.41,385.88h0C322.36,385.71,322.37,385.74,322.41,385.88Z"/><path class="cls-1" d="M311.05,391.06a.92.92,0,0,0,.32.26A1.06,1.06,0,0,0,311.05,391.06Z"/><path class="cls-1" d="M311,391.47l-.25-.08C310.6,391.53,310.6,391.62,311,391.47Z"/><path class="cls-1" d="M311.87,391.41a1.12,1.12,0,0,1-.5-.09c0,.06.05.1,0,.13Z"/><path class="cls-1" d="M317.93,346.36s0-.05,0-.08C317.69,346.64,317.78,346.58,317.93,346.36Z"/><polygon class="cls-1" points="325.56 378.29 325.6 378.31 325.63 378.29 325.56 378.29"/><path class="cls-1" d="M324.92,377.6c1.08.3.94.47.71.69l2.51-.23Z"/><path class="cls-1" d="M324.59,351.11a5.69,5.69,0,0,1-.78.22,6,6,0,0,0-1.94.12c1.36-.2,1.43-.1,1.5,0,.07.44.14.94,1.5,1l-.58.32c0-.09-.13-.1-.1-.2-1.3.63,2,.47,1.58,1.28a.74.74,0,0,1-.93.29l.67.63c-.05.18-.52.14-.47,0l.22,1h-.08a11.19,11.19,0,0,1,1.36.6c-.39.24-.29-.12-.62-.06l.65.53c-.7.22-1.38-.22-1.28-.59-2.71.5.68.44-.9,1.51l-.35-.5c-1.54.33-1,.72-1.94,1.29.5-.14,2.42-1.14,3.1-.56-.21.16-.31.37.24.69-1,0-.73.3-.67.68l-1.28,0c.37.41,1,.38,1.59.62-.12.46-1.11.55-1.95.66-.2.74,1.59-.51,1.83.36-.49.61,0,1,.8,1.77-.44.43-.78-.07-1.15.08l1,.38c0,.09-.34.06-.49.05.39.32,1.28,0,1.62.53,1.41.13-2.06,1-.46,1.65-.36.15-.78-.07-1.28,0a6.88,6.88,0,0,0,2.18,1.43l-.84.6c1-.44,2.1.12,3,.61.47-.15.87-.29,1.07-.37l.68.78a2.53,2.53,0,0,1-1.18-.11l.3.14a2.68,2.68,0,0,1-1.92-.07l.79-.28a8.71,8.71,0,0,0-2.39-.33.72.72,0,0,1,.35.25,1.55,1.55,0,0,0-.53-.06c-.14,0,.15.11.47.24l-1.42.18.56,0-.89,1c1.44.73,3.55,1.37,4.14,2.53a10.58,10.58,0,0,0-2.95-.08c1.31-.32-.55-.9-.29-1.5-.14.31-.73.24-.93.16l1.19,1.08c-1,0-.76.23-1.18.51,2-.21,1.34.8,1.95,1.24-.67,0-1.36-.08-1.2-.62-1.51.59,2.36.77,1.07,1.34,0-.13.09-.2-.25-.25.6.31.12,1.05-.46.87l0-.13c-.23.87,0,2.64,1.69,2.77-.22,0-2.05-.12-2.39-.17l2.86.77c.95.27,1.91.49,2.86.86-.73-.11-2-.06-3.12-.11a10,10,0,0,1-2.65-.33c-.2.11-.45.18.07.45a9.12,9.12,0,0,1,2.24.14c-.81.12-1,.13-1.21.17a4.11,4.11,0,0,1-1,.1c.31,0,2.6.59,2.53.88-.34-.13-2.26-.61-2.5-.74a15.81,15.81,0,0,1,2.25,1.25,12.37,12.37,0,0,0-2.54-.88c.44.14,0,.31.18.52l.52.08c-.17.16.62.69,1.44,1.35s1.66,1.41,1.6,1.82a15.29,15.29,0,0,0-3.14-2.13,41.27,41.27,0,0,1,3.31,3.07,17.83,17.83,0,0,1,3.12,4.08l-.66-.43.15.3c0,.2-.06.4-.1.6-.28-.45-.64-1-1-1.68-.91-1.16-1.92-2.41-2.85-3.47s-1.75-1.91-2.27-2.44c-.52-.25-.78-.58-.72-.31a4.69,4.69,0,0,1-1-1,1.13,1.13,0,0,1-.4-.05,12.24,12.24,0,0,1,.92,1,18.42,18.42,0,0,0,1.17,1.55,5.6,5.6,0,0,0-.36-.74c-.22-.32-.43-.61-.65-.89a21.92,21.92,0,0,1,2.71,2.94c.38.58.43,1,0,.87-.62-.53-2-2.39-2.4-2.84.37.46.31.88,0,.55-.12-.23-.25-.47-.39-.71-.31-.26,0,.19.11.54s.17.6-.4,0c-.18-.09-1.29-1.74-.84-.94,1,1.53,4,6.28,4.4,7.43-.08-.05-.65-.42-1.22-.86a8.27,8.27,0,0,1-1.43-1.36,6.5,6.5,0,0,1-.77-2,7.68,7.68,0,0,0-.74-1.88,3.54,3.54,0,0,1,.25,1c-.26-.31-.42-1.13-.61-1,.45,1.36-.61-.11.27,1.15-.2.39-.42-.28-.75-.22a5.11,5.11,0,0,1,.18,1.88,2.47,2.47,0,0,1-.5,1.51,3.87,3.87,0,0,0-.21-1c-.89-.13-1.4-.75-2.24-.76-.08-.33-.49-.73-.32-1.31-.12.24-.23.7-.5.73-.51-1.18.59-.18.2-1.6,0,.79-.68,1.09-1.05,1.59.11,1.22.86.23,1.24-.26a6.08,6.08,0,0,1-1.54,4.24c-.71.41-.31-1.1-.43-.85-.67-.15-.95.58-1.21,1.21a1.84,1.84,0,0,1-.4.72c-.23.12-.53.1-.91-.21-.5-1.07.18-2.14.12-2.91.62-.41.93.68,1.32.64l-.48-.51c.18-.36.57-.63.78-.32-.18-.48-.76-.53-1.37-.56s-1.33-.07-1.65-.51c-.27.36-.73.73-.74,1.16l.39-.15c.07.87-1.1,1.2-.76,1.61-.72.61-1.88,1.56-2.48,1.07l.52-1.22c-.19.35.12.73.53.35-.3.28-.4-.14-.52-.42s-.3-.43-1,.37a8.06,8.06,0,0,0,0,.85c-.92.62-2.69,1.92-3.27,1.53-.54,1.21.27-.14-.12,1.28.7-1.76,2.26.07,2.55-1.78-.2.82,0,1,.22,1.14a1.13,1.13,0,0,1,.64,1c.15-.4,0-.77.72-.57A3.84,3.84,0,0,1,311,391l0,0,0-.05c.05-.06.06-.07,0,0a.84.84,0,0,1-.12-.61c.76-.93,1.78-.9,2.26-1.38.33.19-.29.46-.19.9.25-.24.48-.48.71-.72-.19.9.83,1.49-.32,2l.95,0a1.48,1.48,0,0,0,1.83.32c.29.2.69-1,.45-.29l.9-.56v.23c.89.11,1.83-1.49,2.84.13.3-.22.61-.5,1.11-.25l.1.78c.1-.07.2-.05.36,0s.46.13.69.2c.46.12.89.18,1-.22a2,2,0,0,0,2.31,1.06,7.42,7.42,0,0,1,2.43-.23l-.42-1a3.38,3.38,0,0,0,2.11-.64l-.64-.89c.13-.37.68-.21,1.41,0a6.63,6.63,0,0,0,2.18.51c.23.35-.18.26-.58.05,1.17.73,1.81.74,2.17.53-.38-1.45-1.47-3.26-.52-3.35-.33-.58-.22-.72,0-.8a.3.3,0,0,0,0,.11s0-.07,0-.13a2,2,0,0,0,.47-.15.94.94,0,0,0-.48.08,4.3,4.3,0,0,0-.35-1.25l1,.41a.45.45,0,0,0,0-.11c.36-.2-.45-.57-1.18-.79a4.39,4.39,0,0,0-.58-.8c.78.28.65,0,.53-.35s-.22-.6.61-.46c-.81-.6-.61-2.14-2.31-2.7.22,0,.32,0,.34.15.19-.3.38-.66-.09-1.05h1.22a17.58,17.58,0,0,0-1.65-1c.75-.41,1.18-.68,2.13-.12l-.45-.42-.27-.21a2.41,2.41,0,0,1-.28-.28,2.75,2.75,0,0,0-1-.67l.8,0c0-.26-1.1-.68-.44-.84,1.5-.59.21-2.9,1.61-4.41-2.34.29,1-.7-.77-.76.55-.09.87-.3,1.35-.05-.55-.77.87-1.16-.65-1.69.55-.09.8.16,1.13.09-.12-.07-.48-.25-.15-.33s.46.11.7.24c-.09-.79-1.79-.87-3.38-.93.75-.39.65-.59-.4-.88.52-.14,1.07-.37,1.25.12.08-.28.77-1.68-.51-1.71.33-.08.1-.38-.05-.45a2.93,2.93,0,0,0,.07-1.28l-.21.17c-1.54-.24-.34-.5-.53-1h.16c1.11-1.11-.53-.48.74-1.58l-1,.06c-2.07-.1,1.21-1,.42-1.62l-.54.23c-.71-.35,2.8-1,3.06-1.33.18-.07.29.12.42.23,1.22-.92-1.26-.12-1.55-.8.68-.13,1.73.16,1.85-.3.55-.23-2.2-1.34-.9-2-.52.14-1,.28-1.44,0-.18-.49,2-1.32.33-1.76a1.26,1.26,0,0,1,.41-.09c-.42-.37-.7-1.21-1.6-1.43,1.66-.17,1.26-.75.82-1.29a2.78,2.78,0,0,1-.3-.4.91.91,0,0,1-.12-.44c0-.26.28-.44,1.05-.51l-.17-1.67.32,0c.2-1.17-.53-1.34-1.27-1.39.21-.31.5-.26.66-.3.61-1.78.48-2.08-1-2.27l1-.8c-.28,0,.07-.71.38-1.64s.58-2.06.14-2.4l-.31.12a3.36,3.36,0,0,1,.62-.44c-1.46.58-1.84-.11-2.57-.49s-1.59-.46-2.93,1.35c-.54.29-1.05.59-1.53.89.6.14.32.53,0,1s-.78.9-.72,1.2c-.46.21-.62-1.09,0-1.27v.18c1.07-1.88-1.29-.67-.86-1.95a13.19,13.19,0,0,1-2.09-.11l-1.05-.15-.74-.19a13.53,13.53,0,0,0-2.84-.58l.21,1.46-.65-.08c-.17-.34-.23-1.14.24-1.08-.25-.83-.78.69-.79,1-.91-.59.35-1.71.07-1.74l-.38.11.09.17c-.31.6-.33,1.23-.89,1.16-.43-.3-.25-.91-.45-1,0-.11-.08-.15-.33,0l-1.29-.13c.24.39.45.77.66,1.16-.44.57-1.07-.06-.35,1.24a2.8,2.8,0,0,0-2.71-1.19c-1,0-1.94.16-2.37-.16-.2.85-.81.83-1.74.73.41.24,1.54,1.54.8,1.38-1.63-2.15-2.12-1.6-3.54-2.29a1.38,1.38,0,0,1-.8-.28c1.28.66.32,2.55,2.13,3.21-.21.41-1-.81-1.63-.82a3.14,3.14,0,0,1,.09,2.64,5.5,5.5,0,0,0-.42,2.72c.36.13.89,0,1.42.56a10.56,10.56,0,0,0-1.76.56c.17.47,2,.72.81,1.23.29-.07.74-.14.85.11a5.13,5.13,0,0,0-.44,1.32,4.09,4.09,0,0,0-.11,1,16.68,16.68,0,0,0,.21,2,3.83,3.83,0,0,1-1.47,3.95c.68-.35.74-.11.77.16.16-.18.87,0,1.35,0l-1.33,1.1c1.32.2.09,1.17,1.36,1.29l-.23-.35c1.49.46,3.32-.65,5.23-.58-1.69-.51,2.52-1.36.09-2.2.39-.19.61.16,1.06.06-.82-.22-1-.48-.63-1l.21.06c-.2-1.35.61-1.93,1.15-3.45l-.95.11c.13-.32.42-.39.66-.54-1.44-.38-.08.91-1.67.57,1-.21,1-.79,1-1.34a1.46,1.46,0,0,1,.2-.78,1.58,1.58,0,0,1,1-.2c0-.21-1.09,0-1.08-.25h.59l-.76-.16c.13-.18.87-.11,1.37,0-.06,0,.14.11.18.15.7,0-.24-.48,0-.49l-.36.07a1.55,1.55,0,0,1-.25-1A3,3,0,0,0,312,348l-.45-.32c-.64-1,0-.51.15-.64.12,0,.22,0,.29,0l.07.11c-.29-.45-.28-.67-.05-.62.29.52,1.12,1,1.39,1.6a3.08,3.08,0,0,0-.29-.89,8.47,8.47,0,0,1-.67-1.47l.59.74c-.25-.67-.44-1-.1-1.22,0,.64.81,1.13.93,2,.72.81.68.4.78.08s.22-.54.63.65c-.16-2.05-.89-1.14-.84-1.58-.43-.67-.16-1.53.23-1.33.16,0,.43.68.68,1.33s.46,1.28.68,1.26c0,0,0,.14-.09.14.13.26.1.08.33-.06s.37-.23.58.2c.24-1.24.56.07.63-1.51l-.86.36c.49-.41.94-2.26,1.74-1.37a3.16,3.16,0,0,1-.46,1c.23.46.45-.31.69.17-.07,1.58-1,.34-1.56,1.55.25.67,1-1.15.72.57.38-2.18.92.27,1.55-1.39l0,.95c.1-.15.31-.6.49-.58l-.33,1.23c.51-1.05,1,.92,1.48.35-1,0-.23-1.14-.67-1.83.63-.64.82,0,1,.7a4.08,4.08,0,0,0,.37,1,.86.86,0,0,0,.14.18c.07.05.11.09.11.11s.06.07.12,0c0,.14-.2-.57-.1-1a2.1,2.1,0,0,1,.19,1.06.91.91,0,0,0,.19-.63,2.45,2.45,0,0,1,.11-.93c-.06,1.16.27-.47.62-.84l-.25,1c.27.62.79-2,1.09-1.26-.27.45-.52.89-.74,1.34a4.19,4.19,0,0,1,.37-.35l-.52,1.1c.55-.81.58-.6.6-.29.34-.68,1-1.75,1.37-1.79-.2.58-.7.92-.26.78-.53.61-1.07,1.37-.61.48-.22.31-.45.6-.65.91-.31.66.15.15.25.14a.49.49,0,0,1,.09-.22,16.31,16.31,0,0,1,1.47-1.34,5.42,5.42,0,0,1-.84.94,6.94,6.94,0,0,1,.83-.63c-.76.78-1.51,1.59-1.92,2,.32-.29.67-.58,1.06-.87l-.3.34c-.32.36-.68.74-.89.93s.15-.06.51-.28.71-.37.41,0a1.56,1.56,0,0,1,.4-.21,4,4,0,0,1-.5.61c-.13.16-.1.2.44.09A15,15,0,0,1,323,351a5.43,5.43,0,0,0,1.08-.38c.47-.2,1-.43,1.23-.29.44.18-1.2.45-1.59.63a4.36,4.36,0,0,1,1.19,0c.31.05.38.22-.19.37C324.49,351.25,324.7,351.17,324.59,351.11Zm.62,6.73c-.2-.14-.82-.42-.25-.53C326.06,357.47,325.53,357.6,325.21,357.84ZM327.54,369c-.32-.1-.16-.27.2-.45C327.82,368.68,327.78,368.84,327.54,369ZM315.1,390.67l0-.05C315.62,391,315.44,390.85,315.1,390.67Zm-1-.42a.44.44,0,0,0-.13.4c.12-.24.35-.26.61-.19C314.56,390.21,314.46,390,314.12,390.25Zm1.57-50.39.2.26C315.48,340.39,315.59,340.14,315.69,339.86Z"/><path class="cls-1" d="M326.22,367.74a2.85,2.85,0,0,1,.52-.06A.55.55,0,0,0,326.22,367.74Z"/><path class="cls-1" d="M324.08,349.87l0,0-.18.12Z"/><path class="cls-1" d="M323.43,382.07a3.37,3.37,0,0,1,.35.5A1,1,0,0,0,323.43,382.07Z"/><path class="cls-1" d="M307.68,391.89l.89-.25c-.38.05-.38-.16-.46-.32C308,391.55,307.92,391.87,307.68,391.89Z"/><path class="cls-1" d="M308.53,385.17c-.12.05,0-.12-.14-.07l-.44.41C308,385.77,308.34,385.61,308.53,385.17Z"/><path class="cls-1" d="M309.15,388.68c.5-.81,0-.53-.51-.38h.07C307.74,389.43,308.48,389.06,309.15,388.68Z"/><path class="cls-1" d="M308.53,388.33a.8.8,0,0,1-.37,0C307.75,388.8,308.24,388.44,308.53,388.33Z"/><path class="cls-1" d="M312.67,390.79c-.16-.21-.44,1-.48.7-.3.52.22.21.58-.16S313.36,390.52,312.67,390.79Z"/><polygon class="cls-1" points="310.71 386.01 310.13 387.01 310.86 386.2 310.71 386.01"/><path class="cls-1" d="M312.76,386.74l-.39-.27a.72.72,0,0,1-.3.34C312.37,386.84,312.65,387,312.76,386.74Z"/><path class="cls-1" d="M312.07,386.81a.58.58,0,0,0-.51.17A1.49,1.49,0,0,0,312.07,386.81Z"/><polygon class="cls-1" points="311.55 385.71 311.56 385.92 311.85 385.99 311.55 385.71"/><path class="cls-1" d="M318.13,386.94l.52-.29c.05-.34-.09-.55-.28-.42S318.05,386.61,318.13,386.94Z"/><path class="cls-1" d="M316.57,384.19a2.34,2.34,0,0,1,.23.77l0-1.25Z"/><path class="cls-1" d="M318.08,383.9c.05-.34.75-1,.09-.91C318.12,383.33,317.6,383.62,318.08,383.9Z"/><polygon class="cls-1" points="325.57 385.48 325.46 385.49 326.5 387.53 325.57 385.48"/><path class="cls-1" d="M324.19,379.67c-.49-.13,1.26.84.65.66.48.39.49.14.91.47C325.24,380.29,325.53,380.41,324.19,379.67Z"/><path class="cls-1" d="M325.75,380.8l.31.3A3.91,3.91,0,0,0,325.75,380.8Z"/><polygon class="cls-1" points="303.54 360.31 303.12 360.7 303.8 360.45 303.54 360.31"/><path class="cls-1" d="M305.05,361.07l-1.29.09,1.17.23C304.87,361.31,304.76,361.13,305.05,361.07Z"/><path class="cls-1" d="M322.6,358.93l.31,0c.34-.06.36-.15.42-.33Z"/><polygon class="cls-1" points="323.57 353.61 323.54 353.7 324.72 353.53 323.57 353.61"/><path class="cls-1" d="M322.07,351.39c-.05,0,.22-.05.17,0C322,351.42,323.54,351,322.07,351.39Z"/><path class="cls-1" d="M427.18,507c.5.08.32-.76.4-.91C426.74,506.26,427.2,507.21,427.18,507Z"/><polygon class="cls-1" points="418.91 508.9 419.06 508.56 417.84 509.39 418.91 508.9"/><path class="cls-1" d="M411.18,508.88c.73,1.43,2.8-.23,4.18.28l.22.32.63-1.15C414.53,508.52,412.36,509.28,411.18,508.88Z"/><path class="cls-1" d="M407.06,505.79c.25.56-.9.48,1,.18a1.94,1.94,0,0,1-.18-.14A6.87,6.87,0,0,1,407.06,505.79Z"/><path class="cls-1" d="M407.84,505.83c.82,0-.53-.47,0,0Z"/><path class="cls-1" d="M404.08,506.14l1.07-.49c-.22-.33-1.17-.4-.82-.64C403.23,505.28,403.46,505.61,404.08,506.14Z"/><path class="cls-1" d="M403.06,507.19l.56-.21C403.52,506.84,403.38,506.79,403.06,507.19Z"/><path class="cls-1" d="M404.8,506.53l-1.18.45c.16.23.17.69.54-.16C404.06,507.24,404.3,506.83,404.8,506.53Z"/><path class="cls-1" d="M405.47,506.75c.6.31,1.38.51.3,1C407.82,507.55,407.52,506.55,405.47,506.75Z"/><path class="cls-1" d="M410.78,510.36l.81.42.69-.48C411.94,510.53,410.73,509.91,410.78,510.36Z"/><path class="cls-1" d="M397.4,505.41c-.07.3.36.8.44,1.19l.79-.35C398.23,506.05,397.45,505.86,397.4,505.41Z"/><path class="cls-1" d="M397.84,506.6l-1.19.52C397.71,507.19,397.91,506.94,397.84,506.6Z"/><polygon class="cls-1" points="402.87 508.77 404.82 507.68 402.5 508.79 402.87 508.77"/><polygon class="cls-1" points="392.87 505.37 393.54 504.66 392.35 505.73 392.87 505.37"/><path class="cls-1" d="M389.87,505.49c.5-.58-.68-1-.16-1.34a4.89,4.89,0,0,0-2.14,1.05A2.69,2.69,0,0,1,389.87,505.49Z"/><path class="cls-1" d="M386.52,505.86a5.77,5.77,0,0,0,1.05-.66A3,3,0,0,0,386.52,505.86Z"/><path class="cls-1" d="M394.63,507a1.4,1.4,0,0,0-.93-.86l.47.85Z"/><path class="cls-1" d="M394.18,507v0l-1,0Z"/><path class="cls-1" d="M394.75,507h-.12C394.68,507.06,394.71,507.09,394.75,507Z"/><path class="cls-1" d="M399.77,508c-.7.48-2.15,1-.75,1.72C399.52,509.13,398.72,508.72,399.77,508Z"/><path class="cls-1" d="M395.33,508.05l1.26.19c0-.22-.25-.55.09-.79Z"/><polygon class="cls-1" points="394.71 508.32 395.33 508.05 394.87 507.97 394.71 508.32"/><path class="cls-1" d="M388.68,506.66a3.58,3.58,0,0,1-1.81.46,9,9,0,0,0,2.17.25C389.14,507.11,389.45,506.62,388.68,506.66Z"/><path class="cls-1" d="M391.35,506.89l-.12.05C391.31,507,391.37,507,391.35,506.89Z"/><path class="cls-1" d="M380.25,507.11a1.4,1.4,0,0,1,.1.16l0-.15Z"/><path class="cls-1" d="M389.16,507.53a1.11,1.11,0,0,0,1.17-.3,6.54,6.54,0,0,1-1.29.14C389,507.5,389,507.58,389.16,507.53Z"/><path class="cls-1" d="M384.67,506.25a6.34,6.34,0,0,0,.94.47C385.34,506.45,384.77,506,384.67,506.25Z"/><path class="cls-1" d="M391.05,506.7l.08,0C391,506.48,391,506.57,391.05,506.7Z"/><path class="cls-1" d="M391.05,506.7a3.19,3.19,0,0,0-.72.53,3.8,3.8,0,0,0,.9-.29A1.16,1.16,0,0,1,391.05,506.7Z"/><path class="cls-1" d="M378.24,512.6c.1-.79,1.52-1.53,2.75-.68,1.21-.59.42-3.2-.64-4.65,0,.34,0,.66-1.28,1.13.44.43,2.76,1,1.71,1.73-1.64.41-1.35-.28-2.15-.7.68,1-2.1,1.44-1.74,2.89l1.45-.51C378.37,512,377.84,512.39,378.24,512.6Z"/><path class="cls-1" d="M382.73,507.35l.51-.1a4.46,4.46,0,0,1-1.77-1.07c-.86.38-1,.68-1.09.94l2.52.11Z"/><path class="cls-1" d="M385.54,507.25c-.4.86-1.63,1.23-.88,2.16,1.5-.06,1-.72,1.95-1.1-2.42.22.7-.48-1.05-1a5.48,5.48,0,0,1,1.31-.23,9.76,9.76,0,0,1-1.26-.4l.06.06h0c.1.11.13.17,0,.11l-.05,0a1.51,1.51,0,0,1-.11.32c-.71-.18-.11-.22.11-.32a.5.5,0,0,1,0-.13h0l-2.43.47A7.71,7.71,0,0,0,385.54,507.25Z"/><path class="cls-1" d="M397.73,511.57a.24.24,0,0,1-.08-.2C397.49,511.48,397.43,511.55,397.73,511.57Z"/><path class="cls-1" d="M396.73,511.05c.17-.12.32-.47.89-.38.5.26,0,.42,0,.7.34-.23,1.21-.62.12-1l-.17.12c-1-.3-2.23-1.37-2.06-1.49A5.86,5.86,0,0,0,396.73,511.05Z"/><path class="cls-1" d="M391.06,509.37l-2,.42,1,.75-.05-.45C391.17,510.26,390.92,509.71,391.06,509.37Z"/><polygon class="cls-1" points="380.02 506.68 380.29 505.77 379.12 507.06 380.02 506.68"/><polygon class="cls-1" points="377.39 506.79 377.49 506 376.79 506.48 377.39 506.79"/><path class="cls-1" d="M229.05,516.61l-.59.23A2.05,2.05,0,0,0,229.05,516.61Z"/><path class="cls-1" d="M233.36,516.67l.1-.39C233.26,516.49,233.18,516.65,233.36,516.67Z"/><path class="cls-1" d="M312.83,506.88c-.87-.74-1.83-1.88-1.73-1l.27.86A2.11,2.11,0,0,1,312.83,506.88Z"/><path class="cls-1" d="M268.62,512.06l.25.27.58-.83Z"/><path class="cls-1" d="M268,515.65l-1.15-.56A3.84,3.84,0,0,0,268,515.65Z"/><path class="cls-1" d="M205.55,517.53l-.69.89C205.94,518.41,205.47,518,205.55,517.53Z"/><path class="cls-1" d="M350.47,507.11a5.49,5.49,0,0,0-1.87-.52C349.5,507.09,350.23,507.83,350.47,507.11Z"/><path class="cls-1" d="M230.75,507.41c-.37.15-.52.33-.51.52C230.61,507.78,230.82,507.62,230.75,507.41Z"/><path class="cls-1" d="M346.44,506.59c.14.09.27.13.4.21a4.76,4.76,0,0,1,1.76-.21A1.78,1.78,0,0,0,346.44,506.59Z"/><path class="cls-1" d="M120.32,516.81a.69.69,0,0,1-.19-.1C120.11,516.83,120.2,516.83,120.32,516.81Z"/><path class="cls-1" d="M95.49,508.06a5.89,5.89,0,0,1,1-.07A2.12,2.12,0,0,0,95.49,508.06Z"/><path class="cls-1" d="M366.81,506.41c.56-.05.09-.09,0,0Z"/><path class="cls-1" d="M369.52,509.85a.53.53,0,0,0-.22.42A.72.72,0,0,1,369.52,509.85Z"/><path class="cls-1" d="M340.89,512h-.05C341,512.16,341,512.13,340.89,512Z"/><path class="cls-1" d="M367.65,506.81a3,3,0,0,0-.71-.26A3.22,3.22,0,0,0,367.65,506.81Z"/><path class="cls-1" d="M367.54,506.4l.48.08C368.1,506.34,368,506.25,367.54,506.4Z"/><path class="cls-1" d="M366,506.46a3.82,3.82,0,0,1,.9.09c-.11-.06-.16-.11-.13-.14C366.65,506.43,366.42,506.45,366,506.46Z"/><path class="cls-1" d="M166,514.49a.83.83,0,0,1-.12-.08C165.31,514.77,165.55,514.71,166,514.49Z"/><path class="cls-1" d="M298.32,515.89l.06,0-.08,0Z"/><path class="cls-1" d="M296.32,516.54c.85-1.08,1.34-.95,2-.72l-.66-2.5Z"/><path class="cls-1" d="M218.75,516.86l1.41.78c-1.7,1.29-2.93.84-1.61,1.94.2-2.72,5.47-.28,5.66-3l.93.57c-.27,0-.31.13-.57.11,1.8,1.3,1.34-2,3.66-1.58.81.21,1.38.6.82.92l1.81-.67c.52,0,.39.53-.13.47l2.75-.21,0,.08a10.88,10.88,0,0,1,1.72-1.37c.7.39-.35.29-.17.63l1.52-.66c.62.7-.64,1.39-1.69,1.29,1.42,2.71,1.26-.69,4.33.9l-1.44.34c.93,1.54,2.05,1,3.68,2-.39-.51-3.26-2.43-1.6-3.1a2,2,0,0,0,2-.25c0,1,.88.73,2,.68l-.08,1.28c1.18-.37,1.09-1,1.78-1.6,1.31.13,1.59,1.12,1.89,2,2.11.21-1.45-1.59,1-1.83,1.75.49,3,0,5.07-.8,1.22.44-.21.79.23,1.15l1.08-1c.27,0,.18.34.14.5.91-.4.07-1.28,1.51-1.63.39-1.41,2.95,2.06,4.73.46.44.36-.21.78-.08,1.28a13.68,13.68,0,0,0,4.1-2.18l1.7.84c-1.25-1,.35-2.09,1.76-3a14.13,14.13,0,0,0-1.08-1.06l2.24-.69c.27.21,0,.65-.33,1.19.16-.11.3-.21.42-.31.8.47.38,1.21-.19,1.93-.28-.26-.55-.53-.81-.79a3.72,3.72,0,0,0-1,2.38,1.7,1.7,0,0,1,.74-.34c-.15.21-.24.4-.17.52s.31-.14.67-.47l.51,1.43.13-.57,2.93.89c2.1-1.43,3.92-3.55,7.25-4.14-.83,1.05-.18,1.71-.22,3-.91-1.31-2.58.56-4.31.29.9.14.7.73.48.94L279,515c-.07,1,.66.76,1.46,1.18-.61-2,2.29-1.33,3.55-2,.07.68-.23,1.36-1.75,1.2,1.68,1.51,2.17-2.35,3.83-1.07-.38,0-.58-.09-.72.25.87-.59,3-.12,2.49.47h-.37c2.48.24,7.54,0,7.91-1.69a15.09,15.09,0,0,1-.47,2.4l4.41-5.73c-.39,1.47,1.11,4.95-.95,5.77a3.15,3.15,0,0,0,2.57-.06c-.41-.21-1-2.12-.46-2.25,1.51,1.63,1.05.87,2.91,2.26-.6-.32.07-2.61,1-2.53-.15.34.08,2.26-.27,2.5l2.37-2.25c-.59.4-.1,1.9.43,2.54-.25-.44,2.05,0,2.68-.18l-1-.52c2.68.34,2.65-3.17,5.3-3.05-.32.47-.79,2.86.56,3.14.62-1.15,2.74-5.54,5.09-6.42l.45.65,1.8-.75a41.48,41.48,0,0,1-6,6.8c1,.52.28.78,1.78.72.53.62-.82.94-1.26,1l3.49.4c-.15-1.34,2.67-1.35,2.54-2.47l-3.79,1.4c-.16-1.35,2.19-3.82,4.67-3.58.63.53-.47,2.39-.42,2.84.32-.46,2.35-.89,2.57-.56l-1.05.72c1.38.51,2.25-1.78,3.91-.5.57.09,1.7,1.73,1.8.94-.93-1.54-1.11-6.28-.49-7.43a18.2,18.2,0,0,1,3.65,2.22c.94,1.2-1.41,2.87-.61,3.9,0-.37.56-.82.77-1,.6.32-.25,1.14,1.06,1,.22-1.37,2.65.11.61-1.16,1.28-.39,1.36.28,2.86.22-.48-.88,1.34-3,2.62-3.38a1.57,1.57,0,0,0,.35,1c2.62.13,4,.74,6.46.76.22.33,1.4.73.9,1.31a2.34,2.34,0,0,1,1.42-.73c1.46,1.17-1.67.18-.56,1.6.09-.8,1.94-1.1,3-1.59-.33-1.23-2.47-.24-3.55.26,0-1.69,1.87-3.46,4.42-4.24,2-.42.87,1.09,1.22.85,3.81.3,3.25-2.94,6.41-1.73,1.25,1.08.05,2.14.33,2.92-1.65.41-2.53-.68-3.65-.64l1.37.51a2.61,2.61,0,0,1-2.22.31c1.05,1,6.43.19,9.36,1.08.52-.36,1.42-.73,1-1.16l-.93.15c-.86-.87,1.75-1.2.57-1.61,1.25-.61,2.64-1.57,4.4-1.08l.33,1.23c0-.36-1.15-.73-1.64-.36.73-.54,2.69,1.66,3.49.06L371.8,509c1.25-.62,2.79-1.92,4.35-1.53-.71-1.21-.36.14-1.46-1.28.95,1.76-4-.07-2.44,1.78-1.14-1.65-2-.7-3.44-2.1,0,.4.52.77-.79.57a1.4,1.4,0,0,1-.28.36l-.09,0a.18.18,0,0,1,.07.05c-.05.06-.06.07,0,0a1.54,1.54,0,0,1,.66.62c-.64.93-2.72.9-3.42,1.38-.77-.19.32-.47-.1-.9l-1.05.72c-.1-.9-2-1.49-.23-2l-1.64,0a4,4,0,0,0-3.12-.32c-.77-.2-2,1-1.28.29l-2.57.55,0-.22c-2.54-.11-5.23,1.49-8.13-.13a6.46,6.46,0,0,1-3.17.24l-.28-.77c-1.1.27-3.3-.78-3.77,0-1.18-2.09-5.33-.46-7.26-.83l-.07,1a15.15,15.15,0,0,0-4.26.63l.11.9c-1.43.74-3.66-.64-5.91-.54.15-.35.72-.26,1.13-.05-2.69-2-5.68,1.47-8.11,0a1.44,1.44,0,0,1-1.48,0,.33.33,0,0,0,.15-.05h-.25c-.26-.16-.54-.33-.84-.48a2.61,2.61,0,0,0,.71.48,7.44,7.44,0,0,0-1.88.36l-.29-1-.16,0c-.69-.35-.55.46-.19,1.18a3.52,3.52,0,0,0-.92.58c-.55-1.55-1.83.53-2.58-1.13-.47.81-3.51.61-3.88,2.31,0-.22-.23-.33.15-.34a2.6,2.6,0,0,0-2.25.09l-.33-1.23-1.7,1.65c-1-.75-1.45-1.18-.43-2.12-2.47,1.45-2,.54-4.1,2l.1-.79c-.75,0-1.95,1.09-2.41.44-1.67-1.51-8.31-.21-12.62-1.61.84,2.33-2-1.05-2.17.76-.25-.55-.85-.86-.15-1.34-2.21.54-3.31-.88-4.83.65-.25-.56.47-.81.25-1.14-.18.12-.7.48-.93.15s.32-.46.67-.7c-2.25.09-2.48,1.79-2.64,3.39-1.14-.76-1.71-.65-2.53.39-.4-.52-1.06-1.06.34-1.25-.79-.08-4.8-.77-4.88.51-.25-.32-1.1-.09-1.3.06a21.27,21.27,0,0,0-3.65-.07l.48.2c-.69,1.55-1.44.35-2.84.53l0-.15c-3.2-1.12-1.38.53-4.54-.74l.17,1c-.29,2.06-2.79-1.22-4.62-.43l.66.55c-1,.7-2.8-2.81-3.8-3.07-.22-.18.34-.28.65-.42-2.63-1.21-.34,1.26-2.3,1.55-.37-.68.46-1.72-.86-1.85-.66-.55-3.83,2.2-5.63.9.4.53.8,1-.12,1.44-1.39.19-3.77-2-5-.33a.56.56,0,0,1-.25-.41c-1.07.43-3.47.71-4.11,1.6-1-3.31-6.63,1.61-6.61-1.44l-3.28.16.08-.31a3.73,3.73,0,0,0-3.57,1.26c-.49-.21-.14-.49-.1-.65-3.06-.62-3.36-.49-5.94,1l-.26-1c-.7.58-4.43-1.55-7.44-.39a.67.67,0,0,1,.33-.45c-3.38,1.16-8.1-2.75-9.34.86l-2.23.89c2.89.28-.43,1.57.76,2.17-1.14.21-2.94-1.09-1.54-1.28l.22.18c.51-1.88-3.59-.66-3.51-1.95-5.69.1-11.22-.94-16.55-1l.62,1.46-1.86-.09c-.49-.34-.65-1.14.67-1.08-.7-.83-2.22.69-2.26,1-2.59-.59,1-1.7.22-1.74l-1.08.11.24.17c-.87.6-.95,1.23-2.54,1.16-1-.29-.52-.9-.92-1,0-.1-.13-.15-.6,0l-2.34-.12.93,1.15c-1,.57-2.2-.06-1.12,1.25-1.58-2-8.72-.73-9.7-1.35a7.67,7.67,0,0,1-4.66.72c.44.24.71,1.54-.82,1.38.56-2.68-2.81-1.16-4.05-3.09,1.11,1.28-4.35.32-2.61,2.13-1.28-.21-.08-1-1.05-1.63-3,1-6.7-.67-10.46-.32-.06.35.57.89-.24,1.41l-2-1.76c-.75.17-.69,2-2,.81.19.3.47.74,0,.85-7.37-1.71-15,1.41-22.53-1.81,1,.68.33.75-.44.77.5.17,0,.87.09,1.35L93.47,508c-.57,1.33-3.36.09-3.69,1.36l1-.23c-1.31,1.49,1.85,3.32,1.66,5.23,1.47-1.69,3.89,2.52,6.31.09.54.39-.45.62-.17,1.06.62-.82,1.36-1,2.73-.62l-.15.2c3.86-.2,5.51.61,9.85,1.15l-.32-1a3.18,3.18,0,0,1,1.56.66c1.07-1.43-2.61-.08-1.64-1.66,1.24,1.92,6.57,0,7.41,2.22,1.43,0-.42-1.1,1-1.09l.38.6.36-.77a1.62,1.62,0,0,1,1.45,1.37c-.22-.06-.64.14-.89.18,1.22.7,3.44-.23,3.86,0l-1.38-.36c3.91-.56,8.69.22,12.47-1L135,515c2.89-.83,2.32.49,5.49.11l-.12.1a3.73,3.73,0,0,1,2.35-.61c-.8.52,1.51,1,.46,1.59,3.13-.89,1.54-.7,3.61-2.36l.48.74a2.88,2.88,0,0,1,2.35-1.21c-1.3.63,1,1.13-.45,2,3.32,1.62,4.93-1.64,6.46.73,1.52-2.05-2.88-1.14-2-1.58-.72-.67,1.26-1.53,2.3-1.32,1.06,0,1.8,2.62,4.47,2.58-.26,0-.28.15-.55.14,1,.52,2-.71,3.19.14.68-1.24,1.59.07,1.79-1.51l-2.45.37c1.39-.42,2.69-2.27,5-1.37a3.6,3.6,0,0,1-1.32,1c.67.47,1.29-.31,2,.17-.2,1.59-3,.35-4.46,1.55.71.67,2.81-1.14,2.06.57,1.08-2.18,2.63.28,4.44-1.39l-.12,1a3,3,0,0,1,1.41-.57l-1,1.23c1.47-1,2.82.92,4.23.35-2.94,0-.66-1.15-1.9-1.84,3.62-1.27,2.08,2.48,6.14,2-.55.13-2.06-.57-1.2-1a5.26,5.26,0,0,1,2.26,1.05c2.69-.19-.41-1,.73-1.55.92,1.15,1.33-.48,2.5-.85v1c3.07.62.82-2,3.57-1.26l-1.16,1.33,1.44-.34-.3,1.1c1.56-.82,2.05-.61,3.58-.3-.35-.68.2-1.75,1.56-1.78.93.57-.52.92,1.41.78-.44.6-.91,1.36-1.75.47-.09.32-.43.61-.52.92,1,.66,2.51.15,3.2.14a1.7,1.7,0,0,1-.75-.23l2.79-1.33c.44.36.09.65-.25.93.56-.1.95-.54,1.78-.63-.21.79-.16,1.6-1.34,2l2.66-.87c.18.34,1.36.93,1,1.22,1.47.46,3.61-1.52,5.57-.91a1.16,1.16,0,0,1,.72-.41c1.83.18,3.46,1.14,5.63.06l1.24,1.41c1.7-.32-1.67-1.77,1.17-2.3,2-.45.74,1.2,1.45,1.59,1-.71,2.74-2.15,4.58-1C219.8,517,219.32,516.76,218.75,516.86Zm21-.62c-.41.2-1.22.83-1.52.26C238.71,515.39,239.07,515.92,239.77,516.24Zm31.94-2.32c-.3.32-.77.16-1.3-.21A1.91,1.91,0,0,1,271.71,513.92Zm89-6.72a.1.1,0,0,0,0,.05C359.75,506.87,360.07,507,360.7,507.2Zm1.89.42a.27.27,0,0,0,.09-.41c-.13.25-.55.27-1,.2C361.78,507.66,362,507.83,362.59,507.62ZM160,508l.37.25C159.57,508.53,159.8,508.28,160,508Z"/><path class="cls-1" d="M268.09,515.24a1.2,1.2,0,0,1-.18-.53C267.75,514.87,267.75,515.06,268.09,515.24Z"/><path class="cls-1" d="M205.68,517.37h-.06a.47.47,0,0,0-.07.17Z"/><path class="cls-1" d="M333.37,515.8a1.62,1.62,0,0,1-.75-.5C332.6,515.54,332.78,515.74,333.37,515.8Z"/><path class="cls-1" d="M372.58,506l-1.21.25a1.53,1.53,0,0,1,1.09.32C372.44,506.32,372.2,506,372.58,506Z"/><path class="cls-1" d="M383.07,512c.18-.12.37,0,.55-.13l-.05-.45C382.82,511.4,382.29,511.76,383.07,512Z"/><path class="cls-1" d="M373.7,509.18c.1.82.85.54,1.7.39h-.15C375.5,508.43,374.6,508.81,373.7,509.18Z"/><path class="cls-1" d="M375.6,509.54a2.55,2.55,0,0,1,.78,0C376.48,509.07,376.06,509.43,375.6,509.54Z"/><path class="cls-1" d="M365,507.08c.4.21.25-1,.48-.71C365.91,505.34,362.78,507.62,365,507.08Z"/><polygon class="cls-1" points="374.39 511.86 374.08 510.86 373.61 511.66 374.39 511.86"/><path class="cls-1" d="M367.7,511.12l1.36.28c0-.17.15-.27.36-.34C368.58,511,367.67,510.83,367.7,511.12Z"/><path class="cls-1" d="M369.42,511.06a1.89,1.89,0,0,0,1.09-.17A4.41,4.41,0,0,0,369.42,511.06Z"/><polygon class="cls-1" points="372.54 512.16 372.14 511.95 371.18 511.88 372.54 512.16"/><path class="cls-1" d="M353.17,510.93l-1.48.29c-.15.34.25.55.8.41C352.85,511.39,353.39,511.26,353.17,510.93Z"/><path class="cls-1" d="M357.63,513.67c-.4-.2-.43-.43-.65-.76l-.05,1.24Z"/><path class="cls-1" d="M353.33,514c-.15.35-2.15,1-.28.91C353.2,514.53,354.68,514.25,353.33,514Z"/><polygon class="cls-1" points="331.09 512.39 331.46 512.38 331.41 510.34 331.09 512.39"/><path class="cls-1" d="M311.49,517.27c1.75.48.41-1.26,2-.65.41-.48-1.29-.5-.87-.92C311.56,516.21,311,515.93,311.49,517.27Z"/><path class="cls-1" d="M312.61,515.7a3.74,3.74,0,0,0,.54-.3A1.8,1.8,0,0,0,312.61,515.7Z"/><polygon class="cls-1" points="91.37 506.96 90.25 506.54 90.97 507.22 91.37 506.96"/><path class="cls-1" d="M89.21,508.48l-.26-1.3-.68,1.17C88.53,508.29,89,508.18,89.21,508.48Z"/><path class="cls-1" d="M242.89,518.86l.09-.32c-.18-.34-.44-.36-1-.41Z"/><polygon class="cls-1" points="227.64 517.88 227.9 517.91 227.41 516.74 227.64 517.88"/><path class="cls-1" d="M214.84,519.38c.52,0,1.13-.21,1.66-.16C215.36,519.43,214.69,517.92,214.84,519.38Z"/><path class="cls-1" d="M590.18,589.09h-580V10.91h580Zm-579-1h578V11.91h-578Z"/><path class="cls-1" d="M592.11,585.89c0,3.41.39,2.19.46,2.7C592.48,582.88,592,586,592.11,585.89Z"/><polygon class="cls-1" points="591.16 529.53 591.33 530.53 590.91 522.22 591.16 529.53"/><path class="cls-1" d="M591.17,476.84c-.71,5,.12,19.09-.14,28.48l-.16,1.55.57,4.23C591.35,499.69,591,484.87,591.17,476.84Z"/><path class="cls-1" d="M592.71,448.74c-.27,1.73-.24-6.08-.08,6.55,0-.63,0-.82.07-1.19C592.7,453,592.71,451.4,592.71,448.74Z"/><path class="cls-1" d="M592.7,454.1c0,5.55.23-3.63,0,0Z"/><path class="cls-1" d="M592.54,428.47l.25,7.31c.16-1.52.2-8,.32-5.61C593,422.67,592.81,424.21,592.54,428.47Z"/><path class="cls-1" d="M592,421.54l.1,3.79A19.87,19.87,0,0,0,592,421.54Z"/><path class="cls-1" d="M592.34,433.36l-.22-8a8.41,8.41,0,0,0,.08,3.69C592,428.36,592.19,430,592.34,433.36Z"/><path class="cls-1" d="M592.23,437.91c-.15,4.1-.25,9.4-.5,2.06C591.83,454,592.33,451.9,592.23,437.91Z"/><path class="cls-1" d="M590.43,474.15l-.21,5.48.24,4.74C590.34,482,590.66,473.81,590.43,474.15Z"/><path class="cls-1" d="M592.91,382.93c-.15-.45-.41,2.46-.6,3l.17,5.4C592.59,388.56,592.68,383.3,592.91,382.93Z"/><path class="cls-1" d="M592.31,385.94l-.26-8.08C592,385.08,592.14,386.39,592.31,385.94Z"/><polygon class="cls-1" points="591.23 420.24 591.77 433.51 591.22 417.68 591.23 420.24"/><polygon class="cls-1" points="592.93 352.08 593.28 356.66 592.75 348.5 592.93 352.08"/><path class="cls-1" d="M592.87,331.61c.29,3.39.49-4.64.67-1.06,0-5.56-.31-10.31-.53-14.58C593.14,320.51,593.1,325.35,592.87,331.61Z"/><path class="cls-1" d="M592.68,308.79c.07,2.27.2,4.62.33,7.18C592.94,313.56,592.85,311.18,592.68,308.79Z"/><path class="cls-1" d="M592.12,364.1a41.39,41.39,0,0,0,.44-6.36l-.43,3.18C592.13,361.89,592.13,363,592.12,364.1Z"/><path class="cls-1" d="M592.12,361v-.11c0-3.45,0-5.84,0-6.87C592.15,354.93,592.14,357,592.12,361Z"/><path class="cls-1" d="M592.12,364.9v-.8A2.39,2.39,0,0,0,592.12,364.9Z"/><path class="cls-1" d="M591.61,399.06c-.24-4.75-.49-14.64-.86-5.07C591,397.4,591.25,391.92,591.61,399.06Z"/><path class="cls-1" d="M591.59,368.84l-.1,8.59c.11-.17.28-1.72.4.63Z"/><polygon class="cls-1" points="591.45 364.64 591.59 368.84 591.62 365.66 591.45 364.64"/><path class="cls-1" d="M592.28,323.49c-.18-3.71-.2-7.76-.23-12.34-.08,4.91-.13,10-.13,14.8C592.06,326.63,592.3,328.75,592.28,323.49Z"/><path class="cls-1" d="M592.16,341.73c0-.25,0-.58,0-.82C592.1,341.41,592.09,341.82,592.16,341.73Z"/><path class="cls-1" d="M592.05,266.06c0,.25,0,.46-.07.72,0,.06,0,.1.07.17Z"/><path class="cls-1" d="M591.84,326.78c-.08,3.69,0,5.89.16,8,0-2.76-.07-5.68-.08-8.82C591.86,325.65,591.82,325.59,591.84,326.78Z"/><path class="cls-1" d="M592.48,296.21c-.07,1.92-.15,4.1-.23,6.39C592.38,300.72,592.59,296.89,592.48,296.21Z"/><path class="cls-1" d="M592.26,339.66c0,.19,0,.36,0,.56C592.37,339,592.32,339.16,592.26,339.66Z"/><path class="cls-1" d="M592.26,339.66c-.06-1.89-.17-3.39-.26-4.89,0,2.25.08,4.33.14,6.14C592.17,340.45,592.22,340,592.26,339.66Z"/><path class="cls-1" d="M589.31,252.39c.4.66.76,10.36.34,18.73.3,8.24,1.6,2.85,2.33-4.34-.18-.26-.34-.26-.57-8.74-.22,3-.51,18.82-.86,11.67-.21-11.24.14-9.21.35-14.67-.5,4.64-.72-14.29-1.45-11.84l.26,9.85C589.59,253.23,589.41,249.66,589.31,252.39Z"/><path class="cls-1" d="M591.94,282.94l0,3.49c.06-4,.22-6.83.53-12.07-.19-5.81-.34-7-.47-7.41l0,17.18Z"/><path class="cls-1" d="M592,302.09c-.43-2.72-.62-11.1-1.08-6,0,10.24.36,7.18.54,13.3-.1-16.53.24,4.74.49-7.2.07,3.25.09,6.17.11,8.93.07-3,.14-5.85.2-8.55,0,.15,0,.26,0,.38V303c-.06.71-.09.95-.06.15,0-.06,0-.26,0-.35a3.38,3.38,0,0,1-.16-.75c.09-4.78.11-.75.16.75,0,.06,0,.19.07.2V303L592,286.43C591.93,289.93,591.94,294.32,592,302.09Z"/><path class="cls-1" d="M589.83,385.16c0-.51.06-.49.1-.53C589.87,383.56,589.84,383.16,589.83,385.16Z"/><path class="cls-1" d="M590.09,378.35a58.85,58.85,0,0,1,.18,6.12c-.13,3.4-.2,0-.34.16.11,2.36.3,8.26.51.86l-.05-1.17c.14-6.66.68-15.22.74-14.06A64.31,64.31,0,0,0,590.09,378.35Z"/><path class="cls-1" d="M590.93,339.75,590.71,326l-.37,7,.23-.35C590.48,340.47,590.75,338.77,590.93,339.75Z"/><polygon class="cls-1" points="592.27 264.48 592.72 266.31 592.08 258.35 592.27 264.48"/><polygon class="cls-1" points="592.21 246.57 592.61 247.23 592.37 242.5 592.21 246.57"/><path class="cls-1" d="M13.09,208.16l.11,4.05C13.17,210.29,13.13,209.06,13.09,208.16Z"/><path class="cls-1" d="M13.12,178.83l-.2-.72C13,179.47,13.11,180,13.12,178.83Z"/><path class="cls-1" d="M384.89,8.92c-5.9-.37-12.49-.94-11.78-.5l1.81.43C379,8.78,382.2,8.82,384.89,8.92Z"/><path class="cls-1" d="M83.58,11.51l1.73.13,4-.41Z"/><path class="cls-1" d="M79.42,13.3,71.64,13C73.39,13.12,75.89,13.22,79.42,13.3Z"/><path class="cls-1" d="M13.55,368.31,14,373C14,365.64,13.77,368.9,13.55,368.31Z"/><path class="cls-1" d="M592.05,63.1c.17-5.09.24-9.15.27-12.71C592.07,56.53,591.69,61.48,592.05,63.1Z"/><path class="cls-1" d="M8.48,196.62c.08,2.48.17,3.53.27,3.46C8.67,197.53,8.59,196.09,8.48,196.62Z"/><path class="cls-1" d="M592.31,35.69c0,.9-.06,1.78-.1,2.69.08,3.72.13,7.47.11,12C592.5,45.86,592.62,40.68,592.31,35.69Z"/><path class="cls-1" d="M371.27,586.12l1.31,0C372.71,586.11,372.12,586.11,371.27,586.12Z"/><path class="cls-1" d="M540.48,590.49l-7,0C534.78,590.56,536.88,590.55,540.48,590.49Z"/><path class="cls-1" d="M592.4,174.49c0,3.8.05.6,0,0Z"/><path class="cls-1" d="M590.69,193a4.7,4.7,0,0,0-.21-1.52A6.93,6.93,0,0,1,590.69,193Z"/><path class="cls-1" d="M576.12,11.47h-.33C576.92,11.56,576.72,11.54,576.12,11.47Z"/><path class="cls-1" d="M592.21,180.21c0-1.43.09-3.07.12-4.86C592.3,176.13,592.26,177.61,592.21,180.21Z"/><path class="cls-1" d="M592.41,179.44c0,1.31,0,2.34,0,3.32C592.44,183.24,592.49,182.81,592.41,179.44Z"/><path class="cls-1" d="M592.38,169.2c0,2.17,0,4.2,0,6.15,0-.75.06-1.06.07-.86C592.4,173.38,592.39,171.8,592.38,169.2Z"/><path class="cls-1" d="M60.05,587.28l.82,0C64.7,587.14,63,587.17,60.05,587.28Z"/><path class="cls-1" d="M286,13.42l.44,0h-.56Z"/><path class="cls-1" d="M272.36,13.75a97.46,97.46,0,0,1,13.52-.36l-4.52-1.25Z"/><path class="cls-1" d="M13.21,278.37l.39-9.58c.65,11.56.42,19.93,1,10.94-1.36-1.36-.14-37.25-1.49-38.59l.28-6.31c0,1.81.07,2.1.06,3.89.65-12.29-1-9.13-.79-25,.1-5.52.3-9.37.46-5.6l-.34-12.3c0-3.57.27-2.7.24.86L12.88,178l0,.14c-.21-2.67-.54-8.73-.68-11.69.19-4.77.14,2.39.31,1.17l-.33-10.38c.35-4.23.7,4.37.65,11.54,1.35-9.69-.35-8.61.45-29.54l.17,9.81c.77-6.32.49-14,1-25.06-.25,2.63-1.21,22.19-1.55,10.93.1-3.18.15-7.36-.12-13.44.48-.06.36-6,.34-13.42l.64.51c-.19-8-.51-7.4-.8-12.12.06-9,.56-10.81,1-12.91.1-14.33-.79,9.89-.91-7.07.24-11.91,0-20.28-.4-34.54.22-8.34.39,1.46.57-1.53L12.69,33c0-1.81.17-1.22.25-.93-.2-6.23-.64-.51-.81-10.31A17.87,17.87,0,0,1,12,18.07c0-.87.06-1.86.09-3,0-.69.09-1.44.14-2.24L13.8,13l.8,0,1.37.05c1.83.06,3.72.11,5.62.15,3.8.06,7.63,0,11-.19,3,.18-1.44.39-.53.64,16.63-.52,14.26-.38,27.92-1.09L71.64,13c-8.55-.48,2.38-1,11.94-1.51-3-.23-5.62-.44-7.36-.53l15.27-.35c1.84.11.3.33-2.2.6l2.8-.16c5.46.24,2.63.61-1.28,1l-5.5-.39c-3.77.39-7.3.82-6.52,1.19,1-.07,2.91-.13,5-.17-1,.11-1.62.2-1.16.26s2.11-.07,4.61-.23l3.47.71.84-.28,20,.44c14.29-.71,26.72-1.77,49.4-2.07-5.63.53-1.21.86-1.52,1.48-6.18-.66-17.56.28-29.32.14,6.14.07,4.79.37,3.23.47l21-.6c-.47.51,4.45.38,9.93.59-4.14-1,15.63-.66,24.16-1,.53.34-1.51.68-11.92.6,11.48.75,14.84-1.18,26.11-.54a38.17,38.17,0,0,0-4.92.13c5.94-.3,20.45-.06,17,.23h-2.54c16.87.12,51.36,0,53.88-.85a10.45,10.45,0,0,1-3.23,1.2l30.1-2.86c-2.65.73,7.53,2.47-6.46,2.88,4,.11,9,.23,17.45,0-2.74-.1-6.83-1.06-3.08-1.12,10.28.81,7.14.43,19.81,1.13-4.11-.16.45-1.31,6.94-1.27-1,.17.54,1.13-1.83,1.25l16.16-1.12c-4,.2-.71.95,2.9,1.27-1.68-.22,14,0,18.28-.09l-6.85-.26c18.24.16,18-1.59,36.12-1.53-2.19.23-5.41,1.43,3.79,1.57A311.81,311.81,0,0,1,430.82,10l3.07.33,12.29-.38c-7.65.87-29.12,2.69-40.85,3.4,6.83.26,1.91.39,12.13.36,3.61.31-5.57.47-8.58.49l23.8.2c-1.06-.67,18.21-.68,17.3-1.24l-25.86.7c-1-.67,14.95-1.91,31.82-1.79,4.29.27-3.21,1.2-2.86,1.42,2.19-.23,16-.44,17.56-.28l-7.16.36c9.39.26,15.33-.89,26.61-.25,3.89,0,11.63.87,12.3.47C496,13,494.8,10.64,499,10.07c1.37,0,20.45.73,24.89,1.11,6.42.6-9.62,1.43-4.16,2a39.84,39.84,0,0,1,5.25-.49c4.09.16-1.69.57,7.19.49,1.49-.68,18.08.06,4.21-.58,8.69-.19,9.23.14,19.44.11-3.25-.44,9.17-1.49,17.88-1.69-.52.17,1.44.4,2.39.5l13.39.1c-.06,5.1-.12,9.69-.18,14.48s-.09,9.87-.09,15.8c-.17,1.53-.37,9.55-.66,6.13.12,2.39.35,4.59.37,9.71-.59,9.92-.09-11.42-.8-3.86.39.64.54,13.25.79,20.55.61-2.25.12-16.86-.13-24.17.85,0,1.73,12.69,2.12,30.05.21,13.81-.55,6-.43,8.38-.14,25.93,1.48,22.09.87,43.62-.54,8.54-1.07.39-1.46,2.28-.2-11.24.34-17.26.32-24.88L590,119c-.18-3.58-.32-11.08-.16-15.17-.49,7.16-.09,43.8-.54,63.8.18,3.55.37,9.69.58,6.79l-.07-6.33c.43-5.82.6,11.91.8,3.9.3,8.49.78,18,.54,30l-.62,2.24a94.82,94.82,0,0,0,.18-11.17c.27,5-.83,18.33,0,23.78l.42-8.37c.31,8.52,1,19.06.77,29.65.6-4.82-.07-2.44.64-10-.89,6.53,0-27.1-.89-16.61.82-7.73.35-13.37,1-23.47-.21.32-.39,3.58-.29-5.31-.06-.4-.14-1.35-.18-1.95l0-.6c0,.17,0,.31,0,.49,0-.39,0-.42,0,.18-.08,2.12-.19,3.83-.3,4.53-.47-4.41-.45-18.55-.69-23.34.09-5.27.23,2.21.44-.67l-.36-7.14c.45-.71.75-14,1-1.59l0-11.19c.26-6.58.36-15.64.17-21.23.09-5.28-.5-13.33-.15-8.73L592,94l.12-.16c.05-17.31-.75-35.64.06-55.43-.11-5.83-.25-11.85-.12-21.6l.19-1,.1-.48c0-.14.06-.5.1-.75,0-1.77,0-3.77,0-6l-9.19-.05-6.61-.09c-4.22,0-7.8,0-9.19.14-8.07-1.05-36.31-.23-49.47-.42l-.5.51c-9.06,0-17.74.12-29,.32l.69.45c-9.69.37-24.92-.32-40.26-.27a66.94,66.94,0,0,1,7.69,0c-18.32-1-38.65.74-55.27,0-4.14.16-7.14.11-10,0,.39,0,.73,0,1,0h-1.7l-5.75-.24c1.73.11,3.39.2,4.83.24-3.19,0-8,.06-12.78.18l-2-.49-1.1,0c-4.66-.18-3.74.23-1.26.59-2.39.08-4.58.17-6.28.29-3.78-.78-12.45.26-17.61-.57-3.2.41-23.87.31-26.4,1.16-.16-.11-1.56-.17,1-.17-5.29-.1-10.58-.2-15.32,0L305.7,9.6l-11.55.82c-7-.37-9.93-.59-3-1.06-16.84.73-13.66.27-28,1l.7-.39c-5.11,0-13.29.54-16.38.22-11.44-.76-56.63-.11-86-.81,5.7,1.17-13.66-.52-14.82.38-1.71-.27-5.81-.43-1-.67-15,.27-22.53-.44-32.88.33-1.71-.28,3.21-.41,1.68-.57a56.85,56.85,0,0,1-6.32.07c-1.53-.16,2.2-.23,4.57-.35-15.32,0-16.87.9-18,1.7a106.5,106.5,0,0,0-17.24.19c-2.7-.26-7.21-.53,2.31-.62-5.36,0-32.71-.39-33.25.25-1.68-.16-7.49,0-8.9,0l-12.51,0h-13l3.9.11c-.42.07-.84.13-1.26.17s-1,.09-1.56.12c-1.07.06-2.17.09-3.35.1,0,1.08,0,2.21,0,3.42s0,2.21-.06,3.44c-.05,2.28-.09,4.9-.06,8l-.08-.27c-.56,21.81.27,9.42-.37,30.93l.48-1.17c1,2-.61,19.06-.21,31.55l.27-4.51c.35,6.82-1.4,19.06-1.53,25.91-.09,1.49-.14-2.36-.21-4.44-.61,17.93.63,2.32.77,15.68-.34,2.47-.86-3.17-.92,5.82-.28,4.48,1.1,26.08.45,38.35.26-2.7.52-5.39.72.82.09,9.51-1,25.71-.17,34.3a6.08,6.08,0,0,1-.2,1.72c.21,7.27.35,23.63.8,28-1.66,6.72.8,45.2-.72,45l.08,22.37-.16-.59c-.1,14.3.27,19.35.63,24.38-.1,3.3-.24.89-.32.62-.31,20.89-.25,23,.51,40.48l-.49,1.82c.29,4.75-.78,30.2-.2,50.69a10.45,10.45,0,0,1-.22-2.26c.58,23.05-1.38,55.19.43,63.63l.44,15.22c.14-19.68.79,2.93,1.09-5.17.1,7.74-.55,20-.64,10.5l.09-1.49c-.94-3.49-.33,24.45-1,23.93q0,18.16-.09,36-.11,18.83-.23,37.25l43.35.19L47.94,590l12.65,0c3.32.17,4.46.57-4.57.54a82.16,82.16,0,0,0,9.39,0c3.22-.16,5.88-.39,6-.47,17.67.3-6.9.85-1.48.87l7.36-.05-1.66-.09c6-.3,6.49-.61,17.34-.58,6.87.15,3.52.45,6.23.48,0,0,.21,0,.84,0s1.68,0,3.3,0l15.94.06-6.37-.57c7.06-.29,15,0,7.63-.63,10.8,1,59.46.37,66.09.68,9.9-.42,19.67-.42,31.77-.36-3-.12-4.81-.77,5.63-.69-3.82,1.34,19.11.58,27.54,1.54-7.54-.64,29.67-.16,17.84-1.06,8.71.1.53.5,7.14.81,20.73-.52,45.68.34,71.3.16.4-.17-3.89-.44,1.6-.7l13.53.88c5.06-.09,4.66-1,13.9-.41-1.3-.15-3.25-.37.14-.42,50.19.85,102.56-.71,153.53.9-6.9-.34-2.3-.37,3-.38-3.43-.08.08-.44-.59-.68l21.33.67c3.89-.67,22.88,0,25.11-.68l-6.76.11c9-.74-12.57-1.66-11.26-2.61-10.06.84-26.53-1.26-43-.05-3.64-.19,3.11-.31,1.16-.53a161,161,0,0,1-18.6.31l1.06-.1c-26.32.1-37.6-.3-67.16-.57l2.19.47c-6.35-.06-7.69-.21-10.66-.33-7.29.72,17.84,0,11.2.83-8.43-1-44.79,0-50.49-1.11-9.77,0,2.87.55-6.9.55l-2.59-.3-2.47.38c-6.41-.06-9.64-.43-9.88-.68,1.55,0,4.42-.07,6.09-.09-8.31-.35-23.43.11-26.28,0l9.39.18c-26.67.28-59.23-.11-85,.49l2,.23c-19.67.41-15.76-.25-37.36-.06l.79-.05c-4.33.22-10.1.34-16,.31,5.45-.26-10.26-.51-3.11-.8-21.33.45-10.55.35-24.64,1.18l-3.25-.37c-4.8.34-5.21.51-16,.61,8.84-.32-6.89-.57,3-1-22.64-.81-33.61.82-44-.36-10.39,1,19.59.57,13.77.79,4.87.33-8.58.76-15.69.66s-12.29-1.31-30.48-1.29c1.81,0,1.93-.08,3.73-.07-6.8-.26-13.33.35-21.69-.07-4.68.62-10.84,0-12.19.75l16.69-.18c-9.46.21-18.33,1.13-33.92.68,1.22-.16,5.86-.37,9-.48-4.56-.24-8.77.15-13.5-.09,1.35-.79,20.28-.17,30.42-.77-4.89-.34-19.18.57-14.08-.29-7.32,1.09-17.93-.14-30.25.7l.82-.48c-1.95.08-6,.3-9.58.29l6.5-.62c-3.39.18-6.7.19-10,.12L15.55,586l-.61,0H14.5l-.38,0-.69-.07.05-.69,0-.32V584c0-1.52,0-3,0-4.58,0,2.28,0,4.06,0,5.44,0,.44,0,.78-.07,1,.66.09.45.23.15.39s-.63.32,1,.45l-2.11.08c0-.68,0-1.29,0-1.86v-2.65c0-1.73.05-3.15.1-4.38.1-2.45.27-4.14.44-6,.35-3.77.71-8.32.6-21.37.07,3.74-.28,14.06-.5,8.2.09-5.27.28-12.22.52-15.45-.09-18.33-.48,2.81-.78-5,.58-6.24-.23-9-.42-17l.49-.06c.31-20.88-1-5.53-.63-24.33l.66,7.94-.17-9.8.55,2c-.41-10.66-.3-14-.15-24.43-.34,2.43-.87-1.36-.89-10.61.29-6.31.46,3.53.39-9.58a57.88,57.88,0,0,1,.24,11.91c.16.58.3,2.92.46,3.52.33-6.8.07-17.07.07-21.82,0,1.83-.05,4-.12,5.13l-.66-19c.18-3,.32-.61.46,1.74-.05-3.85-.27-6.52-.31-12.18.39,1.47.8,1.12,1,9.13l-.43-18.11c.17-1.21.46-9.29.61-6.94.23-10-.76-24.63-.46-37.94-.07-.69-.15-2.08-.2-4.91.09-12.51.57-23.59,0-38.42l.7-8.41c-.16-11.61-.88,11.39-1.15-7.95-.22-13.68.6-5.11.8-9.91a311.4,311.4,0,0,1-.51-31.22C13.27,271.22,13.16,274.48,13.21,278.37ZM12.9,135.16c.1,2.77.42,8.31.13,10.34C12.48,142.33,12.74,139.89,12.9,135.16ZM104.67,12.44a77.8,77.8,0,0,1-8.86-.11C98.42,12.29,101.38,12.31,104.67,12.44ZM592,132.85c0-.12,0-.2,0-.3C592.18,126.36,592.1,128.56,592,132.85Zm-.21,12.85c.07,1.29.14,1.2.2.66-.12-.9-.13-3.79-.09-7.07A41.74,41.74,0,0,0,591.8,145.7ZM100.63,590.52l-2.5-.12C103.78,590.26,102.2,590.38,100.63,590.52Z"/><path class="cls-1" d="M80,13.1a3.36,3.36,0,0,1-1.19-.27C77.7,12.91,77.68,13,80,13.1Z"/><path class="cls-1" d="M13.47,367.44v.43a1.83,1.83,0,0,0,.09.44Z"/><path class="cls-1" d="M524.86,13.38c-2.64-.07-4.12-.16-5.1-.25C519.61,13.25,520.82,13.35,524.86,13.38Z"/><path class="cls-1" d="M592.62,213.81l-.12-8.23c0,4-.09,5.4-.16,7.41C592.45,212.81,592.61,211.24,592.62,213.81Z"/><path class="cls-1" d="M589.64,285.28c.05,1.2,0,2.55.06,3.74l.23-.33C589.91,283.56,589.73,280,589.64,285.28Z"/><path class="cls-1" d="M591,221.44c-.41.65-.27,5.81-.19,11.58v-1C591.39,233.7,591.21,227.56,591,221.44Z"/><path class="cls-1" d="M590.84,234.36c0,1.78,0,3.59,0,5.33C591.08,240.37,590.9,237.53,590.84,234.36Z"/><path class="cls-1" d="M592.07,162c-.1,2.74.52,1.72.35,3.27C592.94,168.32,591.8,147,592.07,162Z"/><polygon class="cls-1" points="589.68 226.11 590.18 224.04 589.78 220.81 589.68 226.11"/><path class="cls-1" d="M590.05,180.57l-.14,9.21a10.68,10.68,0,0,1,.17,2.47C590.1,186.57,590.2,180.35,590.05,180.57Z"/><path class="cls-1" d="M590.08,192.25c0,3,0,5.77.08,7.42C590.16,198.07,590.14,194.63,590.08,192.25Z"/><polygon class="cls-1" points="589.53 213.51 589.63 210.78 589.67 204.28 589.53 213.51"/><path class="cls-1" d="M590.15,81.5,590,71.44c-.17-1-.27,1.72-.21,5.46C589.91,79.31,590,83,590.15,81.5Z"/><path class="cls-1" d="M588.77,111.92a42.32,42.32,0,0,1,.38-4.44l-.62-.3Z"/><path class="cls-1" d="M588.63,82.59c-.17-1-.5-14.6-.46-1.85C588.34,81.76,588.49,91.83,588.63,82.59Z"/><polygon class="cls-1" points="509.31 11.67 511.87 11.67 511.5 10.65 509.31 11.67"/><path class="cls-1" d="M375.74,14.11c11.92.24,2.83-.63,13.6-.32,2.8-.24-8.8-.25-5.94-.46C376.21,13.58,372.43,13.44,375.74,14.11Z"/><path class="cls-1" d="M383.4,13.33l3.68-.15C385,13.24,384,13.29,383.4,13.33Z"/><polygon class="cls-1" points="568.56 591.04 576.22 591.25 571.27 590.91 568.56 591.04"/><path class="cls-1" d="M583.27,590.28l1.81.65,4.6-.58C588,590.38,584.59,590.43,583.27,590.28Z"/><path class="cls-1" d="M14.21,113.87l-.16-.59a59.93,59.93,0,0,0-.2,6.58Z"/><polygon class="cls-1" points="13.72 217.81 13.74 216.02 13.15 219.37 13.72 217.81"/><path class="cls-1" d="M14.47,305.05c0-3.56-.05-7.75-.08-11.32C14.5,301.49,13.74,306,14.47,305.05Z"/><path class="cls-1" d="M452.25,108.12a1.91,1.91,0,0,0,1.29-.6,1.51,1.51,0,0,1,1.62-.29,7.45,7.45,0,0,1,1.17-1,3.64,3.64,0,0,1,2-.41v1.37a4.62,4.62,0,0,1-.16.93,13.06,13.06,0,0,1-.48,1.53,18.22,18.22,0,0,1-.77,1.7,5.92,5.92,0,0,1-1,1.41,6,6,0,0,0-1.17.12,10.07,10.07,0,0,1-1.81.12,3.76,3.76,0,0,0-1.25.28,4.47,4.47,0,0,0-1.41.85,2.73,2.73,0,0,1-1.57.64,9.13,9.13,0,0,0-2.22.65,2,2,0,0,0-1.29.56,1.91,1.91,0,0,1-1.21.57,2.3,2.3,0,0,1-1.65.64c-.78.06-1.58.08-2.38.08h-.65c0-.37,0-1,.08-1.93a3.31,3.31,0,0,1,.57-1.94,29.39,29.39,0,0,0,3.38-2,13.24,13.24,0,0,1,3.39-1.74,2.13,2.13,0,0,1,1.45-.52,5.25,5.25,0,0,0,2.1-.61Z"/><path class="cls-1" d="M497.73,107.15a4.61,4.61,0,0,1-.33-.56,2.58,2.58,0,0,1-.32-1v-3.79l-.73-4.51V95.71a1.16,1.16,0,0,0-.56-1.17,6,6,0,0,0-1.21-.45c-.59-.1-1.12-.21-1.57-.32a.87.87,0,0,1-.69-1,3.24,3.24,0,0,1,.33-1.41,8.39,8.39,0,0,1,.76-1.29,4,4,0,0,1,1-1,2,2,0,0,1,1.05-.36,12.92,12.92,0,0,0,2.26.89,11.33,11.33,0,0,0,2.17.64,12.11,12.11,0,0,0,2.34.25h3.14a9.61,9.61,0,0,0,1.86-.21,9.17,9.17,0,0,1,2-.16,2.64,2.64,0,0,1,1.58.57,2.56,2.56,0,0,1,.64,2,8.54,8.54,0,0,1,.32,1.53,5.58,5.58,0,0,1,0,1.21,1,1,0,0,1-.36.81h-3.87a1.8,1.8,0,0,0-1.57,1,4.11,4.11,0,0,0-.61,2.14,9.52,9.52,0,0,0-.48,1.93,2.44,2.44,0,0,0,.08,1.13,1.08,1.08,0,0,0,.4.72l-1,2.91a3.65,3.65,0,0,1,.52,1.33,12.26,12.26,0,0,0,.28,1.25c.06.48.11.91.16,1.29a2.43,2.43,0,0,1-.16.72c-.11.32-.21.68-.32,1l-.32,1.13a3.35,3.35,0,0,0-.16.89v1.53a5.5,5.5,0,0,1-.08.8,9.86,9.86,0,0,1-.25,1c-.1.43-.21.86-.32,1.29a3.1,3.1,0,0,0,.16,1c.11.3.22.58.33.85a1.77,1.77,0,0,1,.16.76v1a5,5,0,0,1-.16,1.53,2.18,2.18,0,0,0-.49,1.61,3.7,3.7,0,0,1-.93,2.3,24.67,24.67,0,0,0-2,3,2.23,2.23,0,0,1-1,1.81c-.67.51-1.38,1.12-2.13,1.81l-.89,1a7,7,0,0,1-.61.61,2.77,2.77,0,0,1-.64.4c-.24.11-.58.24-1,.4a15.36,15.36,0,0,1-5.24,1.41c-1.72.14-3,.21-3.71.21-.91,0-1.92-.06-3-.17a22.44,22.44,0,0,1-3.31-.56,28.68,28.68,0,0,1-3.18-1,8.43,8.43,0,0,1-2.58-1.45l-1.62-2.26a11.07,11.07,0,0,1-1.12-1.93c-.33-.7-.62-1.34-.89-1.94s-.62-1.42-.89-2.17v-5.4a6.55,6.55,0,0,0-.44-2.3,8.59,8.59,0,0,1-.44-3v-4.51a15.14,15.14,0,0,1,.4-1.61c.11-.43.21-.86.32-1.29a4.27,4.27,0,0,0,.16-.89c-.16-.75-.32-1.42-.48-2a13,13,0,0,1-.4-2.5,11.2,11.2,0,0,1,.4-1.29c.11-.37.21-.72.32-1a2.6,2.6,0,0,0,.16-.81V95.71c0-.38-.32-.7-1-1a14.53,14.53,0,0,0-2.14-.69c-.78-.18-1.48-.37-2.1-.56s-.9-.42-.84-.69a3.26,3.26,0,0,1,.88-2.09,2.59,2.59,0,0,1,2-1l3.87-.89h1.53a8,8,0,0,1,1.89.45,9,9,0,0,0,2.62.44h6.7c.75,0,1.19.16,1.33.48a2.26,2.26,0,0,1,.2.81,4.55,4.55,0,0,1-.48,2.46,2.15,2.15,0,0,1-1.25.88,6.15,6.15,0,0,1-1.62.21,3.75,3.75,0,0,0-1.61.36,2.73,2.73,0,0,0-1.25,1.37,8.13,8.13,0,0,0-.48,3.27,4.72,4.72,0,0,0,.08.76c0,.35.12.73.2,1.13s.16.78.24,1.13a3.85,3.85,0,0,1,.12.76V123c-.32.7-.4,1.14-.24,1.33a1.43,1.43,0,0,1,.24.92l.89,2.18a13.4,13.4,0,0,0,1.53,1.94,6.32,6.32,0,0,0,1.61,1.17,6.83,6.83,0,0,0,2.1.6,23.53,23.53,0,0,0,3.06.16,7,7,0,0,0,1.94-.48,18.79,18.79,0,0,0,2.58-1.13,3.43,3.43,0,0,1,.76-1.09,15.51,15.51,0,0,0,1.25-1.45,19.63,19.63,0,0,0,1.58-2.42,31.79,31.79,0,0,0,1.81-4v-3.14c0-.38,0-1.08.08-2.1s.12-2.1.2-3.23.16-2.19.24-3.18S497.73,107.48,497.73,107.15Z"/><path class="cls-1" d="M99.14,89.66a4.37,4.37,0,0,1,.8.12l1.21.24c.43.08.85.15,1.25.2a6.64,6.64,0,0,0,.93.08,1.23,1.23,0,0,1,.57.33,4.5,4.5,0,0,1,.76.8,6.41,6.41,0,0,1,.65,1.09,2.86,2.86,0,0,1,.28,1.17c0,.22-.32.4-1,.56s-1.37.33-2.18.49a18.91,18.91,0,0,0-2.17.56c-.65.22-1,.49-1,.81v5.64a8.17,8.17,0,0,0,.4,1.21l.33,1a2.77,2.77,0,0,1,.16.73l-.89,3.78a5.74,5.74,0,0,0,.12.89c.08.43.19.89.32,1.37s.25.94.33,1.37a5.9,5.9,0,0,1,.12.89l.72,4a13.09,13.09,0,0,1-.36,3.15,10,10,0,0,0-.36,2v2.26a1.06,1.06,0,0,1-.45.84c-.29.25-.44.93-.44,2.06a1.68,1.68,0,0,0,.24.77,3.33,3.33,0,0,0,.61.8,3.91,3.91,0,0,0,.76.61,1.41,1.41,0,0,0,.65.24l1.77.48a3.53,3.53,0,0,1,2.26,3.39c0,.64-.44,1.17-1.33,1.57a6.54,6.54,0,0,1-2.7.61H97.12l-3-.89a5.69,5.69,0,0,0-1.37.24c-.59.16-1.21.35-1.85.57l-1.78.56a5,5,0,0,1-1,.24,2.84,2.84,0,0,1-1.33-.52c-.56-.35-.84-.72-.84-1.09a1.93,1.93,0,0,1,.92-1.57c.62-.46,1.29-.92,2-1.37a10.12,10.12,0,0,0,1.85-1.49,2.16,2.16,0,0,0,.53-2c-.43-.81-.54-1.41-.32-1.81a2.58,2.58,0,0,0,.32-1.17V106.19L90.35,104a16.1,16.1,0,0,1,.4-1.69c.11-.43.22-.85.33-1.25a4.37,4.37,0,0,0,.16-.93A10.63,10.63,0,0,0,91,97.6a4.7,4.7,0,0,0-.65-1.49,2,2,0,0,0-.89-.53,6.52,6.52,0,0,0-1-.16,10.67,10.67,0,0,1-1.09-.12A3.29,3.29,0,0,1,86.32,95a2.37,2.37,0,0,1-.81-1,6,6,0,0,1-.32-2.26,2.8,2.8,0,0,1,.08-.64,3.26,3.26,0,0,1,.2-.48.45.45,0,0,1,.45-.25h4.43a4.91,4.91,0,0,1,.77.08,4.78,4.78,0,0,1,.84.25l.89.32c.32,0,.73,0,1.21-.08a11.15,11.15,0,0,0,1.37-.24l1.69-.33H98a1.56,1.56,0,0,0,.81-.32Z"/><path class="cls-1" d="M126,90.55a4.57,4.57,0,0,1,.92.08q.45.08,1,.12c.4,0,.89.07,1.45.12s1.31.08,2.22.08l2.66-.65c.43-.1.83-.21,1.21-.32a5.72,5.72,0,0,1,1-.24,5.31,5.31,0,0,1,.72-.08,3.39,3.39,0,0,1,1.41.4,8.38,8.38,0,0,1,1.49.89,6.8,6.8,0,0,1,.73,2.5,7.94,7.94,0,0,0,.65,2.5,3.47,3.47,0,0,1,.56.92l.64,1.34a13.9,13.9,0,0,0,.81,1.77q0,1.53-2,1.53a2.82,2.82,0,0,1-1.46-.77,24.47,24.47,0,0,0-2.49-1.69,21.22,21.22,0,0,0-3.63-1.69,14.64,14.64,0,0,0-5-.77l-1.53.41a13,13,0,0,1-.93,1.21,1.31,1.31,0,0,0-.44.8v.73c-.11.43-.22.83-.33,1.21a6.74,6.74,0,0,0-.24,1,5.59,5.59,0,0,0-.08.73v5.8a5.46,5.46,0,0,0,.49,2.3,1.59,1.59,0,0,0,1.53,1.09,7.18,7.18,0,0,0,.8-.08,10.32,10.32,0,0,0,1.21-.24c.49-.11,1-.22,1.53-.32h1.62a2.18,2.18,0,0,0,1.17-.33c.34-.21.68-.44,1-.68l.93-.69a1.61,1.61,0,0,1,.93-.32.89.89,0,0,1,.56.32,9.58,9.58,0,0,1,.65.73l.8,1v5.32q0,2.25-2,2.25a3.09,3.09,0,0,1-1.53-.36,6.73,6.73,0,0,1-1.13-.76,7.13,7.13,0,0,1-1.49-.73,2.64,2.64,0,0,0-1.5-.4H128q-2,0-2.58.72a5.11,5.11,0,0,0-.56,2.91v2a16,16,0,0,1,.32,2.26,15.78,15.78,0,0,0,.28,2.09,3.8,3.8,0,0,0,.77,1.66,3,3,0,0,0,1.77.92h4.52a7.72,7.72,0,0,0,2.46-.44,17.24,17.24,0,0,0,2.7-1.17l2.54-.89a6.83,6.83,0,0,1,2.13-.4,5.52,5.52,0,0,1,.65.57l.48.48a.69.69,0,0,1,.24.48,1.59,1.59,0,0,1-.4,1,8.06,8.06,0,0,1-1,1,6.65,6.65,0,0,0-1.61,2.14q-.48,1.08-.93,2a4.91,4.91,0,0,1-1.09,1.53,2.69,2.69,0,0,1-1.93.61,3.14,3.14,0,0,1-.89-.12,5.6,5.6,0,0,1-.84-.33,5.22,5.22,0,0,0-1.05-.32,7.87,7.87,0,0,0-1.49-.12l-7.82.24L122,136h-6.69l-1.61.48-2.42.16a1.7,1.7,0,0,1-.89-.32,4.55,4.55,0,0,1-.88-.77,6.63,6.63,0,0,1-.69-.88,1.46,1.46,0,0,1-.28-.69c0-1.34,1-2,3-2a12.09,12.09,0,0,0,1.29-.57,16.23,16.23,0,0,1,2-.8,4,4,0,0,0,2.3-1.05c.4-.49.6-1.61.6-3.39a1.53,1.53,0,0,1,.28-.84c.19-.3.1-.61-.28-.93a5.18,5.18,0,0,0-.08-.85,4.13,4.13,0,0,0-.24-.85c-.11-.32-.22-.67-.32-1v-6.45l.64-5.65V108.2a1.17,1.17,0,0,1,.12-.64,1.21,1.21,0,0,0,.12-.65V98a1.34,1.34,0,0,0-.8-1.17,3,3,0,0,0-1.21-.44h-2.26a2.34,2.34,0,0,1-2.22-1.29,6.33,6.33,0,0,1-.68-3,1.2,1.2,0,0,1,.44-.89,1.38,1.38,0,0,1,.93-.4h4.27a14,14,0,0,0,1.49-.12,22.14,22.14,0,0,1,2.54-.12Z"/><path class="cls-1" d="M160.9,117.23c0-.7-.22-1.14-.65-1.33a4.49,4.49,0,0,0-1.77-.28,4.85,4.85,0,0,0-.93.16c-.46.11-.94.24-1.45.4s-1,.3-1.49.41a5.42,5.42,0,0,1-1.05.16,3.39,3.39,0,0,1-1.57-.28,1.53,1.53,0,0,1-.73-.85,4.39,4.39,0,0,1-.2-1.41v-2a13.61,13.61,0,0,1,.12-1.73.93.93,0,0,1,1-.93,20.31,20.31,0,0,1,3.55.33,20.28,20.28,0,0,0,3.38.32,2.78,2.78,0,0,0,1.57-.45,1.46,1.46,0,0,0,.69-1.33,5.39,5.39,0,0,0-.32-1.89q-.33-.84-.69-1.65c-.24-.54-.47-1.08-.68-1.62a4.58,4.58,0,0,1-.33-1.77c0-1.13.42-1.75,1.25-1.85a21.54,21.54,0,0,1,2.79-.16,3.48,3.48,0,0,0,1.2-.25l1.21-.44a2.11,2.11,0,0,1,.89-.16c.22,0,.32.23.32.6a9.75,9.75,0,0,1-.24,1.82,10.13,10.13,0,0,0-.24,2c0,.49,0,1-.08,1.66a13.75,13.75,0,0,0,0,1.81,4.66,4.66,0,0,0,.32,1.57,1.34,1.34,0,0,0,.93.85,4.5,4.5,0,0,0,1.41.08,7.1,7.1,0,0,1,1-.08,14.25,14.25,0,0,0,3.34-.36,13.1,13.1,0,0,1,3.19-.37c.7,0,1.1.27,1.21.81a9.23,9.23,0,0,1,.16,1.69,12.7,12.7,0,0,1-.08,1.29,4.89,4.89,0,0,1-.33,1.33,2.87,2.87,0,0,1-.64,1,1.31,1.31,0,0,1-1,.4c-1.39,0-2.56,0-3.5-.12s-2.09-.12-3.43-.12a2.5,2.5,0,0,1-1-.12c-.11-.08-.3,0-.56.36a3.88,3.88,0,0,1-.89,1c-.16.08-.24.42-.24,1a7,7,0,0,0,.12,1.29,6.61,6.61,0,0,1,.12,1.21,1.12,1.12,0,0,1-.24.76,1.16,1.16,0,0,0-.24.77,2.25,2.25,0,0,0,.12.89,2.81,2.81,0,0,0,.24.4,2.48,2.48,0,0,1,.24.44,2.6,2.6,0,0,1,.12.93,8.1,8.1,0,0,0,.16,1.77c.11.49-.19.73-.88.73h-2.91a3.43,3.43,0,0,0-1.08.24,13.17,13.17,0,0,1-1.33.4,7.71,7.71,0,0,1-1.13.21c-.33,0-.49-.1-.49-.37a10.25,10.25,0,0,1,.28-2c.19-.83.39-1.7.61-2.58l.6-2.54A9.19,9.19,0,0,0,160.9,117.23Z"/><path class="cls-1" d="M463.46,483a1.93,1.93,0,0,0,1.29-.61,1.5,1.5,0,0,1,1.61-.28,7.91,7.91,0,0,1,1.17-1,3.69,3.69,0,0,1,2-.4v1.37a5.85,5.85,0,0,1-.16.93,12.58,12.58,0,0,1-.49,1.53,15.7,15.7,0,0,1-.76,1.69,5.8,5.8,0,0,1-1,1.41,6,6,0,0,0-1.17.12,10.07,10.07,0,0,1-1.81.12,3.77,3.77,0,0,0-1.25.29,4.4,4.4,0,0,0-1.41.84,2.76,2.76,0,0,1-1.58.65,9.15,9.15,0,0,0-2.21.64,2,2,0,0,0-1.29.57,2,2,0,0,1-1.21.56,2.35,2.35,0,0,1-1.66.65c-.78,0-1.57.08-2.37.08h-.65c0-.38,0-1,.08-1.94a3.2,3.2,0,0,1,.57-1.93,29.42,29.42,0,0,0,3.38-2.06,13.54,13.54,0,0,1,3.39-1.73,2.11,2.11,0,0,1,1.45-.53,5.11,5.11,0,0,0,2.1-.6Z"/><path class="cls-1" d="M492.32,465.41a5.46,5.46,0,0,1,.93.08q.45.08,1.05.12l1.45.12c.57.06,1.3.08,2.22.08l2.66-.64,1.21-.32a6.58,6.58,0,0,1,1-.25,5.31,5.31,0,0,1,.72-.08,3.42,3.42,0,0,1,1.41.41,8.74,8.74,0,0,1,1.49.88,6.8,6.8,0,0,1,.73,2.5,8.23,8.23,0,0,0,.64,2.5,3.37,3.37,0,0,1,.57.93c.21.46.43.9.64,1.33a13.9,13.9,0,0,0,.81,1.77c0,1-.67,1.54-2,1.54a2.92,2.92,0,0,1-1.45-.77,23.18,23.18,0,0,0-2.5-1.69,20.75,20.75,0,0,0-3.62-1.7,14.65,14.65,0,0,0-5-.76l-1.54.4a10.52,10.52,0,0,1-.92,1.21,1.33,1.33,0,0,0-.45.81v.72c-.1.43-.21.83-.32,1.21a5.72,5.72,0,0,0-.24,1,5.31,5.31,0,0,0-.08.72v5.81a5.68,5.68,0,0,0,.48,2.3,1.62,1.62,0,0,0,1.53,1.08,5.44,5.44,0,0,0,.81-.08,10.32,10.32,0,0,0,1.21-.24l1.53-.32h1.61a2.23,2.23,0,0,0,1.17-.32c.35-.22.69-.45,1-.69l.93-.68a1.51,1.51,0,0,1,.93-.33.86.86,0,0,1,.56.33,6.54,6.54,0,0,1,.64.72l.81,1v5.32c0,1.51-.67,2.26-2,2.26a3.1,3.1,0,0,1-1.54-.36,7.81,7.81,0,0,1-1.12-.77,6.76,6.76,0,0,1-1.5-.73,2.69,2.69,0,0,0-1.49-.4h-2.9c-1.34,0-2.21.24-2.58.73a5.07,5.07,0,0,0-.56,2.9v2a17.81,17.81,0,0,1,.32,2.26,15.94,15.94,0,0,0,.28,2.1,3.66,3.66,0,0,0,.77,1.65,2.9,2.9,0,0,0,1.77.93h4.51a7.65,7.65,0,0,0,2.46-.45,17.29,17.29,0,0,0,2.7-1.16l2.54-.89a6.61,6.61,0,0,1,2.14-.4,6.48,6.48,0,0,1,.65.56l.48.48a.71.71,0,0,1,.24.49,1.63,1.63,0,0,1-.4,1.05,8,8,0,0,1-1,1,6.65,6.65,0,0,0-1.61,2.14c-.32.73-.63,1.4-.93,2a5.34,5.34,0,0,1-1.09,1.53,2.74,2.74,0,0,1-1.93.6,3.14,3.14,0,0,1-.89-.12,7.59,7.59,0,0,1-.85-.32,4.4,4.4,0,0,0-1-.32,7.91,7.91,0,0,0-1.5-.12l-7.82.24-2.74.64H481.6l-1.61.49-2.42.16a1.67,1.67,0,0,1-.89-.32,5,5,0,0,1-.88-.77,6.69,6.69,0,0,1-.69-.89,1.4,1.4,0,0,1-.28-.68c0-1.35,1-2,3-2,.43-.16.86-.35,1.29-.56a15,15,0,0,1,2-.81,3.86,3.86,0,0,0,2.3-1.05c.4-.48.6-1.61.6-3.38a1.58,1.58,0,0,1,.28-.85c.19-.3.1-.61-.28-.93a5,5,0,0,0-.08-.84,5.58,5.58,0,0,0-.24-.85q-.17-.48-.33-1.05v-6.45l.65-5.64v-1.37a1.19,1.19,0,0,1,.12-.65,1.17,1.17,0,0,0,.12-.64v-8.95a1.31,1.31,0,0,0-.8-1.17,2.93,2.93,0,0,0-1.21-.45H480a2.32,2.32,0,0,1-2.22-1.29,6.18,6.18,0,0,1-.68-3,1.18,1.18,0,0,1,.44-.89,1.39,1.39,0,0,1,.93-.4h4.27a14,14,0,0,0,1.49-.12,22.14,22.14,0,0,1,2.54-.12Z"/></svg>