<svg id="Laag_1" data-name="Laag 1" xmlns="http://www.w3.org/2000/svg" viewBox="0 0 600 600"><defs><style>.cls-1{fill:#1d1d1b;}</style></defs><title>Rebus 1 Sint</title><path class="cls-1" d="M495.87,424.22h-387V118.36h387Zm-385-2h383V120.36h-383Z"/><path class="cls-1" d="M376.87,221.89H228V192.74H376.87Zm-146.87-2H374.87V194.74H230Z"/><path class="cls-1" d="M513.48,120.36H88V86.9H513.48ZM90,118.36H511.48V88.9H90Z"/><path class="cls-1" d="M111.44,124.23c-2-.08-1.3.76-1.61.91C113.24,125,111.36,124,111.44,124.23Z"/><polygon class="cls-1" points="145.02 122.32 144.43 122.67 149.38 121.83 145.02 122.32"/><path class="cls-1" d="M176.42,122.34c-3-1.43-11.37.23-17-.28l-.92-.32L156,122.89C162.8,122.7,171.64,121.94,176.42,122.34Z"/><path class="cls-1" d="M193.17,125.43c-1-.56,3.62-.48-3.91-.18.38.06.49.1.71.14C190.65,125.39,191.58,125.39,193.17,125.43Z"/><path class="cls-1" d="M190,125.39c-3.31,0,2.16.47,0,0Z"/><path class="cls-1" d="M205.24,125.08l-4.36.49c.91.33,4.79.4,3.35.64C208.7,125.94,207.78,125.61,205.24,125.08Z"/><path class="cls-1" d="M209.37,124l-2.26.21A3.51,3.51,0,0,0,209.37,124Z"/><path class="cls-1" d="M202.33,124.69l4.78-.45c-.63-.23-.69-.69-2.19.16C205.31,124,204.36,124.39,202.33,124.69Z"/><path class="cls-1" d="M199.62,124.47c-2.45-.31-5.6-.51-1.23-1C190.05,123.67,191.28,124.67,199.62,124.47Z"/><path class="cls-1" d="M178,120.86l-3.27-.42-2.83.48C173.35,120.69,178.23,121.31,178,120.86Z"/><path class="cls-1" d="M232.37,125.81c.28-.3-1.46-.8-1.78-1.19l-3.22.35C229,125.17,232.16,125.36,232.37,125.81Z"/><path class="cls-1" d="M230.59,124.62l4.81-.53C231.1,124,230.31,124.28,230.59,124.62Z"/><polygon class="cls-1" points="210.15 122.45 202.24 123.54 211.67 122.43 210.15 122.45"/><polygon class="cls-1" points="250.76 125.85 248.03 126.56 252.89 125.49 250.76 125.85"/><path class="cls-1" d="M263,125.73c-2,.58,2.76,1,.63,1.34a58.09,58.09,0,0,0,8.69-1A41.37,41.37,0,0,1,263,125.73Z"/><path class="cls-1" d="M276.55,125.36c-1.35.14-2.75.39-4.27.66A31.28,31.28,0,0,0,276.55,125.36Z"/><path class="cls-1" d="M243.6,124.25a8.33,8.33,0,0,0,3.79.86l-1.9-.85Z"/><path class="cls-1" d="M245.43,124.23l.06,0,4.1,0Z"/><path class="cls-1" d="M243.12,124.24h.48A.42.42,0,0,0,243.12,124.24Z"/><path class="cls-1" d="M222.77,123.22c2.82-.48,8.72-1,3-1.72C223.76,122.09,227,122.5,222.77,123.22Z"/><path class="cls-1" d="M240.77,123.17l-5.11-.19c.1.22,1,.55-.38.79Z"/><polygon class="cls-1" points="243.27 122.9 240.77 123.17 242.67 123.25 243.27 122.9"/><path class="cls-1" d="M267.8,124.56a52.7,52.7,0,0,1,7.35-.46c-2.93-.17-5.95-.26-8.82-.26C265.92,124.11,264.66,124.59,267.8,124.56Z"/><path class="cls-1" d="M256.93,124.33l.49,0C257.11,124.21,256.87,124.18,256.93,124.33Z"/><path class="cls-1" d="M302,124.11l-.43-.16-.1.15Z"/><path class="cls-1" d="M265.84,123.69a15.35,15.35,0,0,0-4.77.3c1.65-.08,3.39-.14,5.26-.15C266.51,123.72,266.54,123.64,265.84,123.69Z"/><path class="cls-1" d="M284.05,125c-1.15-.18-2.44-.33-3.81-.47C281.36,124.77,283.64,125.19,284.05,125Z"/><path class="cls-1" d="M258.16,124.52l-.33,0C258.55,124.74,258.46,124.65,258.16,124.52Z"/><path class="cls-1" d="M258.16,124.52a28.51,28.51,0,0,0,2.91-.53c-1.34.07-2.58.16-3.65.29A4,4,0,0,1,258.16,124.52Z"/><path class="cls-1" d="M310.16,118.62c-.39.79-6.17,1.53-11.16.68-4.91.59-1.7,3.2,2.59,4.65.15-.34.15-.66,5.2-1.13-1.77-.43-11.21-1-7-1.73,6.7-.41,5.49.28,8.74.7-2.76-1,8.52-1.44,7.06-2.89l-5.87.51C309.66,119.19,311.79,118.83,310.16,118.62Z"/><path class="cls-1" d="M292,123.87l-2.08.1a48.07,48.07,0,0,1,7.19,1.07c3.46-.38,4.18-.68,4.42-.94L291.25,124Z"/><path class="cls-1" d="M280.54,124c1.63-.86,6.62-1.23,3.56-2.16-6.1.06-4.27.72-7.92,1.1,9.85-.22-2.83.48,4.29,1-1.94.15-3.68.2-5.32.23,1.77.11,3.48.24,5.09.4l-.22-.06h0c-.42-.11-.56-.17-.09-.11l.21,0a1.14,1.14,0,0,1,.44-.32c2.86.18.45.22-.44.32,0,0-.11.09-.12.13h0l9.86-.47C287.79,123.85,285.18,123.87,280.54,124Z"/><path class="cls-1" d="M231.05,119.65c.3.08.29.14.31.2C232,119.74,232.24,119.67,231.05,119.65Z"/><path class="cls-1" d="M235.1,120.17a10.67,10.67,0,0,1-3.64.38c-2-.26,0-.42-.1-.7-1.4.23-4.92.62-.51,1l.7-.12c4,.3,9.07,1.37,8.38,1.49A14.69,14.69,0,0,0,235.1,120.17Z"/><path class="cls-1" d="M258.11,121.85l8.21-.42-4.18-.75.21.45C257.68,121,258.69,121.51,258.11,121.85Z"/><polygon class="cls-1" points="302.96 124.54 301.87 125.45 306.61 124.16 302.96 124.54"/><polygon class="cls-1" points="313.63 124.43 313.24 125.22 316.05 124.74 313.63 124.43"/><path class="cls-1" d="M377.63,428l-2.41.23C376.36,428.13,377.1,428.05,377.63,428Z"/><path class="cls-1" d="M395.11,428l.42-.39C394.73,427.85,394.39,428,395.11,428Z"/><path class="cls-1" d="M489.88,200.27c-.74,3.51-1.88,7.44-1,7l.87-1.08A32.62,32.62,0,0,1,489.88,200.27Z"/><path class="cls-1" d="M495.06,379.8c.09-.33.18-.68.27-1l-.83-2.37C494.67,377.42,494.86,378.58,495.06,379.8Z"/><path class="cls-1" d="M498.66,382.28l-.56,4.64C498.29,385.87,498.48,384.38,498.66,382.28Z"/><path class="cls-1" d="M282.2,428.89l-2.81.88C283.79,429.77,281.86,429.32,282.2,428.89Z"/><path class="cls-1" d="M423,124.11c3,.34,5.45.48,7.57.52C426.87,124.13,423.92,123.39,423,124.11Z"/><path class="cls-1" d="M384.51,418.76c-1.48.16-2.11.34-2.07.53C384,419.14,384.82,419,384.51,418.76Z"/><path class="cls-1" d="M439.28,124.63c-.53-.09-1.06-.13-1.6-.21-2.22.15-4.45.27-7.16.21A26.54,26.54,0,0,0,439.28,124.63Z"/><path class="cls-1" d="M104.88,249.5c0-.25.06-.56.11-.78C104.87,248.64,104.86,249,104.88,249.5Z"/><path class="cls-1" d="M113.64,148.67c0,1,0,2.62.06,4.14A33.51,33.51,0,0,0,113.64,148.67Z"/><path class="cls-1" d="M356.58,124.81c-2.27,0-.36.09,0,0Z"/><path class="cls-1" d="M345.57,121.37c.48-.09.85-.22.9-.42A1.58,1.58,0,0,1,345.57,121.37Z"/><path class="cls-1" d="M461.83,119.23h.2C461.35,119.06,461.47,119.09,461.83,119.23Z"/><path class="cls-1" d="M353.17,124.41c.85.11,1.83.2,2.9.26C355.6,124.6,354.72,124.52,353.17,124.41Z"/><path class="cls-1" d="M353.63,124.82l-2-.08C351.37,124.88,351.62,125,353.63,124.82Z"/><path class="cls-1" d="M359.73,124.76c-1.29,0-2.5,0-3.66-.09.44.06.63.11.51.14Z"/><path class="cls-1" d="M121.55,425.85l-.49-.08C118.78,426.13,119.78,426.07,121.55,425.85Z"/><path class="cls-1" d="M498.89,259.19a2,2,0,0,0,0-.26c0,.1,0,.24,0,.33Z"/><path class="cls-1" d="M499.54,267.32a17.83,17.83,0,0,1-.72-8.06l-2.5,2.69Z"/><path class="cls-1" d="M335.8,428.22l5.71.78c-6.9,1.28-11.88.84-6.52,1.94.81-2.72,22.19-.28,23-3l3.76.57c-1.08,0-1.25.13-2.32.1,7.32,1.3,5.44-2,14.87-1.57,3.29.2,5.58.6,3.34.92l7.33-.67c2.13.05,1.61.52-.51.47l11.17-.22-.09.08c1.6-.42,5.21-1.08,7-1.36,2.84.39-1.42.29-.69.63l6.18-.66c2.52.7-2.6,1.39-6.88,1.28,5.78,2.72,5.13-.68,17.6.9l-5.84.35c3.77,1.54,8.32,1,14.93,1.94-1.57-.5-13.22-2.42-6.51-3.09a30.08,30.08,0,0,0,8-.25c0,1,3.57.73,8,.67l-.3,1.28c4.79-.36,4.41-1,7.22-1.59,5.33.12,6.44,1.11,7.69,1.95,8.54.2-5.89-1.59,4.21-1.83,7.11.49,12.09,0,20.59-.8,5,.44-.87.78.91,1.15l4.41-1c1.08,0,.73.34.55.49,1.86-.19,1.93-.51,2.28-.83a2.05,2.05,0,0,1,1-.45c.28-.06.64-.13,1.12-.19.19,0,.62-.05,1-.08l1.35-.07c.84-.62,3.84-.3,8.52.12.27-2.44.58-5.51.71-8.85l.06-2.28q0-.84,0-1.68a18.18,18.18,0,0,0-.4-3.19c.37-1.78.79.86,1.28.31-1.05-9.91-.76-8.49-2.17-16.63l.84-6.93c-1,5.09-2.1-1.42-3-7.12-.46,1.81-.87,3.35-1.06,4.39l-.69-9.1c.21-1.1.65-.18,1.19,1.31-.11-.62-.21-1.21-.31-1.67.47-3.25,1.21-1.56,1.93.77-.27,1.1-.53,2.2-.79,3.27.78,2.25,1.64,4.35,2.39,3.88a18.71,18.71,0,0,1-.35-3c.21.59.4,1,.53.69a9.24,9.24,0,0,0-.48-2.74l1.43-2.07-.57-.5.89-11.9c-1.43-8.52-3.54-15.93-4.13-29.44,1,3.35,1.7.72,2.94.9-1.31,3.69.56,10.47.29,17.47.14-3.65.73-2.85.94-1.92L498,337.67c1,.28.76-2.65,1.17-5.92-2,2.47-1.33-9.31-1.94-14.39.67-.32,1.36.9,1.19,7.1,1.51-6.84-2.35-8.84-1.07-15.56,0,1.52-.08,2.33.26,2.93-.6-3.53-.13-12.18.46-10.15v1.51c.24-10.05,0-30.6-1.68-32.1a6.57,6.57,0,0,1,2.39,1.93l-5.72-17.94c1.46,1.58,4.94-4.49,5.76,3.85a49.43,49.43,0,0,0-.06-10.4c-.21,1.63-2.11,4.07-2.25,1.84,1.63-6.13.87-4.26,2.26-11.81-.31,2.45-2.61-.27-2.53-4.14.34.61,2.26-.32,2.5,1.1l-2.25-9.63c.4,2.4,1.91.42,2.54-1.73-.44,1,0-8.33-.18-10.89l-.52,4.08c.34-10.87-3.17-10.74-3.05-21.52.47,1.3,2.86,3.22,3.15-2.26-1.16-2.51-5.55-11.13-6.43-20.67l.66-1.83-.75-7.32a223.12,223.12,0,0,1,6.8,24.33c.52-4.06.77-1.13.71-7.22.62-2.15.94,3.32,1,5.11l.39-14.18c-1.34.63-1.34-10.85-2.47-10.31l1.4,15.41c-1.34.62-3.82-8.91-3.58-19,.53-2.55,2.39,1.91,2.84,1.7-.46-1.3-.88-9.53-.55-10.46l.71,4.27c.51-5.6-1.78-9.13-.49-15.86.08-2.32,1.73-6.93.93-7.33-1.53,3.79-6.28,4.53-7.43,2,0-.34.33-2.6.67-5.25.42-2.38.89-5.11,1.19-6.82a7.69,7.69,0,0,1-1.46-.36c-.81-.36-.59-.77.32-1.19a32.4,32.4,0,0,1,4-1.25c.54.84,1,1.56,1.45-.67-.07,0-.16-.07-.24-.55a30.52,30.52,0,0,1-4.13.73c-1.51-.16-1.05-.45-1.07-.67s-.62-.39-4.49-.31a2.11,2.11,0,0,1-1,.39,10.09,10.09,0,0,1-1.28.19c-.92.07-2,.06-2.76,0-1.55,0-1.95-.1,2.18.54-5.18.39-5.5-.28-11.58-.23,1.93.89-5.47,3-10.65,3.39.3-.34-.86-.8-1.43-1-10.62-.13-16.32-.74-26.22-.76-.91-.33-5.69-.73-3.65-1.31a26.47,26.47,0,0,1-5.79.73c-5.91-1.17,6.81-.18,2.31-1.6-.39.8-7.9,1.1-12.25,1.59,1.34,1.23,10,.24,14.4-.26,0,1.69-7.56,3.46-17.91,4.24-8.22.42-3.56-1.09-5-.85-15.45-.3-13.16,2.94-26,1.73-5.09-1.08-.23-2.14-1.36-2.92,6.7-.41,10.29.68,14.83.64l-5.59-.51a39.62,39.62,0,0,1,9-.31c-4.27-1-26.1-.19-38-1.08-2.12.36-5.77.73-4,1.16l3.77-.15c3.47.87-7.1,1.2-2.32,1.61-5.06.61-10.73,1.57-17.86,1.08L338.86,121c.15.36,4.65.73,6.65.36-3,.54-10.92-1.66-14.17-.06l5,.85c-5.08.62-11.36,1.92-17.67,1.53,2.88,1.21,1.46-.14,5.94,1.28-3.88-1.76,16.15.07,9.9-1.78,4.61,1.65,8,.7,14,2.1-.18-.4-2.13-.77,3.17-.57a8,8,0,0,1,1.16-.36l.36,0-.29,0c.23-.06.25-.07-.11,0a10.34,10.34,0,0,1-2.7-.62c2.63-.93,11.06-.9,13.91-1.38,3.14.19-1.32.47.4.9l4.25-.72c.42.9,8.36,1.49.95,2l6.67,0a61.8,61.8,0,0,0,12.65.32c3.14.2,7.94-1,5.2-.29l10.46-.55.09.22c10.32.11,21.24-1.49,33,.13a103.65,103.65,0,0,1,12.87-.24l1.13.77c4.46-.27,13.39.78,15.31,0,2.25,1,7.14,1.14,12.5,1.08l4.08-.09,2,0,1,0,.5,0h.1a5.47,5.47,0,0,1,1.29-.1,3.11,3.11,0,0,1,0,.32c.33-.25.67-.49,1-.71,0,.42,0,.81,0,1.22l0,.31v.49c0,.68.05,1.37.07,2.07.12,2.81.29,5.78.5,9.13l.89-.41c.74,5.77-.63,14.85-.54,24-.34-.63-.25-2.94-.05-4.58-2,10.91,1.48,23,0,32.93a21.55,21.55,0,0,1,0,6,3.67,3.67,0,0,0-.05-.61c0,.25,0,.63,0,1-.15,1.09-.33,2.21-.48,3.43a26.14,26.14,0,0,0,.48-2.88c0,1.9.13,4.78.36,7.61l-1,1.21c0,.23,0,.41,0,.65-.35,2.78.46,2.23,1.18.75a32.89,32.89,0,0,0,.59,3.74c-1.56,2.26.52,7.42-1.14,10.5.81,1.91.61,14.22,2.31,15.73-.22.09-.33.93-.34-.6a41.38,41.38,0,0,0,.09,9.13l-1.22,1.34,1.64,6.89c-.74,4.18-1.18,5.91-2.12,1.76,1.45,10,.55,8.14,2,16.67l-.79-.42c0,3,1.09,7.92.44,9.76-1.51,6.82-.21,33.75-1.61,51.25,2.33-3.39-1,8.14.76,8.83-.55,1-.86,3.46-1.34.63.54,8.93-.87,13.42.65,19.59-.55,1-.81-1.91-1.13-1a10.83,10.83,0,0,1,.15,3.76c-.33.91-.47-1.3-.71-2.72.1,9.13,1.79,10.05,3.39,10.72-.76,4.62-.65,6.93.4,10.27-.52,1.61-1.07,4.29-1.26-1.38-.07,3.19-.76,19.49.52,19.82a19.53,19.53,0,0,0,0,5.3c0,3.57-.08,5.52-.11,7.45,0,.72,0,1.44,0,2.31s0,1.65.05,2.81l.21-1.15a6.69,6.69,0,0,1,.79,2.95,26.23,26.23,0,0,1-2.89-.14q-.82-.07-1.71-.12l-.92,0-1.15,0,.16-.16c-13-1.11-5.61.54-18.42-.73l.69,1c-1.19,2.06-11.35-1.22-18.79-.43l2.68.55c-4.06.7-11.36-2.81-15.44-3.07-.89-.18,1.41-.29,2.65-.42-10.68-1.22-1.39,1.26-9.35,1.55-1.46-.68,1.9-1.72-3.46-1.85-2.67-.55-15.54,2.2-22.85.9,1.61.52,3.21,1-.49,1.44-5.67.18-15.32-2-20.44-.33-.72-.14-1-.28-1-.41-4.33.42-14.08.71-16.69,1.6-4-3.31-26.93,1.61-26.83-1.45l-13.33.17.35-.31c-8.52-.21-11.53.53-14.53,1.26-2-.21-.53-.49-.37-.65-12.44-.62-13.68-.49-24.12,1l-1.08-1c-2.83.58-18-1.55-30.2-.4.12-.11.37-.3,1.34-.44-13.74,1.16-32.88-2.75-37.92.86l-9.06.89c11.73.28-1.74,1.56,3.08,2.16-4.61.22-11.92-1.08-6.26-1.27l.89.18c2.08-1.88-14.57-.67-14.26-1.95-23.07.1-45.56-1-67.17-1l2.49,1.47-7.54-.09c-2-.34-2.66-1.14,2.72-1.08a14.47,14.47,0,0,0-5.59.07l-.7.13a2.35,2.35,0,0,0-.4.13l-.65.27a3,3,0,0,0-.77.41c-3.11-.3-1.81-.72-.71-1.08s2.31-.64,1.68-.66l-1.8.11.28.17-1.53.49c-.4-.49-.72-1.09-.66-4,.29-4.09.9-2.1,1-3.71.11,0,.16-.54,0-2.47l.12-9.5-1.15,3.8c-.57-4.21.06-8.93-1.25-4.55,2-6.43.72-35.43,1.35-39.38-.84-5.9-.83-11.72-.73-18.93-.24,1.79-1.54,2.87-1.38-3.35,2.68,2.27,1.17-11.39,3.09-16.42-1.27,4.5-.31-17.68-2.13-10.63.22-5.19,1-.31,1.64-4.25-1-12.35.67-27.22.32-42.48-.35-.24-.89,2.32-1.41-1l1.76-8.06c-.18-3-2-2.77-.81-8.28-.3.77-.75,1.94-.86-.09,1.72-29.9-1.4-61.11,1.82-91.48-.68,4.11-.75,1.37-.78-1.77-.16,2-.86,0-1.34.36l1.32-12.72c-1.32-2.31-.09-13.63-1.35-15l.23,4c-1.5-5.36-3.32,7.49-5.24,6.71,1.7,6-2.51,15.81-.08,25.65-.39,2.17-.62-1.86-1.06-.7.82,2.5,1,5.51.62,11.09l-.2-.63c.2,15.68-.61,22.4-1.15,40l1-1.3a40.19,40.19,0,0,1-.67,6.35c1.44,4.34.09-10.63,1.67-6.67-1.93,5,0,26.69-2.22,30.08,0,5.82,1.1-1.71,1.08,4.11l-.59,1.55.77,1.47c-.13,3.82-.87,5.74-1.37,5.89.06-.93-.14-2.64-.19-3.63-.7,4.95.24,14,0,15.66l.37-5.6c.55,15.89-.23,35.29,1,50.65l.45-1.17c.82,11.72-.49,9.39-.11,22.26l-.11-.47a54.24,54.24,0,0,1,.62,9.54c-.52-3.25-1,6.12-1.6,1.85.89,12.72.7,6.29,2.36,14.69l-.74,1.93c.67,2.86,1,3.1,1.22,9.53-.64-5.27-1.13,4.1-2-1.8-1.63,13.49,1.63,20-.74,26.22,2.06,6.19,1.14-11.68,1.58-8.21.67-2.9,1.54,5.12,1.33,9.35,0,4.31-2.63,7.33-2.59,18.17,0-1.08-.14-1.16-.13-2.23a19.21,19.21,0,0,0-.13,3c0,.51,0,1,.08,1.53l0,.77c0,.34,0,.69,0,1a67.7,67.7,0,0,1-.2,10.5,4,4,0,0,1,.17.49,36,36,0,0,1,6.52-.46c1.87,0,3.42-.13,4-.88l-9.45.25-.11-4.21c.08,1.4.2,2.72.35,4,3.45-.33,6.72-.77,10-1a49.24,49.24,0,0,1,9.73,0,33,33,0,0,1-5.39,1c2.72.47,5.23-.31,8,.17-.4.79-3.42.88-7.09.92l-2.85,0-3.31.07c-2.88.08-5.7.23-8.3.53a28.35,28.35,0,0,0,4.59.13l2.81-.11,1.37-.06.65,0,.44,0c2.11-.15,3.48-.18,2,.68,4.36-2.18,10.68.28,18-1.39l-.48.95a39.13,39.13,0,0,1,5.7-.57l-3.87,1.23c6-1.05,11.46.91,17.16.34-11.94,0-2.68-1.14-7.73-1.83,14.73-1.27,8.47,2.48,25,2-2.23.14-8.38-.57-4.89-1a65.15,65.15,0,0,1,9.21,1.06c10.92-.19-1.68-1,3-1.56,3.72,1.16,5.36-.47,10.15-.84l0,1c12.45.62,3.3-2,14.51-1.27l-4.74,1.34,5.84-.34-1.2,1.09c6.35-.81,8.33-.6,14.55-.29-1.44-.68.82-1.75,6.33-1.78,3.76.57-2.11.91,5.71.78a10.62,10.62,0,0,1-7.1.47c-.35.31-1.74.6-2.1.91,4.05.66,10.18.16,13,.15a23.39,23.39,0,0,1-3-.23L244.15,427c1.78.37.37.66-1,.94,2.29-.1,3.88-.55,7.25-.63-.87.79-.66,1.6-5.44,2l10.79-.87c.72.35,5.54.94,4.14,1.23,6,.46,14.68-1.52,22.61-.91a11.48,11.48,0,0,1,2.92-.41c7.45.17,14.06,1.14,22.89.06l5,1.41c6.91-.32-6.79-1.77,4.73-2.3,8.16-.45,3,1.19,5.91,1.59,4.05-.71,11.1-2.15,18.6-1C340.06,428.32,338.11,428.12,335.8,428.22Zm85.33-.62c-1.66.2-4.95.82-6.16.26C416.85,426.75,418.31,427.28,421.13,427.6Zm75.79-60.36a14.3,14.3,0,0,1-.2,5.28A29.51,29.51,0,0,1,496.92,367.24ZM381.39,124l.18,0C385.26,124.35,384,124.2,381.39,124Zm-7.66-.42c-.77.14-.71.27-.39.41a14.46,14.46,0,0,1,4.21-.2C377,123.56,376,123.39,373.73,123.6Zm-260,287.16-.25,1.49C113.17,408.88,113.42,409.83,113.7,410.76Z"/><path class="cls-1" d="M498.24,382a1.08,1.08,0,0,1-.52.7C497.88,383.3,498.06,383.32,498.24,382Z"/><path class="cls-1" d="M282.73,428.73h-.26a.54.54,0,0,0-.27.17Z"/><path class="cls-1" d="M495,115.42a23.53,23.53,0,0,1,3.39.37,8.39,8.39,0,0,1-.13.92c.12,0,.22-.35.31-1.09A27.86,27.86,0,0,0,495,115.42Z"/><path class="cls-1" d="M333.15,125.24l4.9-.25a21.48,21.48,0,0,1-4.42-.32C333.74,124.9,334.68,125.23,333.15,125.24Z"/><path class="cls-1" d="M290.56,119.27c-.71.12-1.52,0-2.22.13l.19.45C291.59,119.82,293.72,119.46,290.56,119.27Z"/><path class="cls-1" d="M328.6,122c-.38-.82-3.46-.54-6.9-.39.21,0,.4,0,.61,0C321.3,122.79,325,122.41,328.6,122Z"/><path class="cls-1" d="M320.9,121.68c-1,0-2.14.06-3.17,0C317.33,122.15,319,121.79,320.9,121.68Z"/><path class="cls-1" d="M364,124.14c-1.63-.21-1,1-1.95.71C360.25,125.88,372.94,123.6,364,124.14Z"/><polygon class="cls-1" points="325.82 119.36 327.05 120.36 328.98 119.56 325.82 119.36"/><path class="cls-1" d="M353,120.1l-5.49-.28c.08.17-.62.27-1.48.34C349.38,120.19,353.09,120.39,353,120.1Z"/><path class="cls-1" d="M346,120.16a29.26,29.26,0,0,0-4.42.17C342.53,120.32,344.58,120.28,346,120.16Z"/><polygon class="cls-1" points="333.33 119.06 334.95 119.27 338.83 119.34 333.33 119.06"/><path class="cls-1" d="M412,120.29l6-.29c.61-.34-1-.55-3.26-.41C413.29,119.83,411.07,120,412,120.29Z"/><path class="cls-1" d="M393.86,117.55a7.65,7.65,0,0,1,2.64.76l.19-1.24Z"/><path class="cls-1" d="M411.34,117.26c.6-.35,8.7-1,1.1-.92C411.83,116.69,405.83,117,411.34,117.26Z"/><path class="cls-1" d="M495.39,126.07v-1.63c-.68.3-1.36.57-2,.83A7.14,7.14,0,0,1,495.39,126.07Z"/><path class="cls-1" d="M500.27,205.72c.49-7.1-1.26-1.69-.65-8.1-.48-1.67-.5,5.24-.91,3.53C499.22,205.44,498.93,207.69,500.27,205.72Z"/><path class="cls-1" d="M498.71,201.15c-.08-.69-.18-1.41-.31-2.19A15.9,15.9,0,0,0,498.71,201.15Z"/><polygon class="cls-1" points="114.73 131.94 115.16 127.38 114.47 130.32 114.73 131.94"/><path class="cls-1" d="M113.22,123.18l1.3-1.08-1.18-2.74A13.66,13.66,0,0,1,113.22,123.18Z"/><path class="cls-1" d="M433.81,430.21l.35-.31c-.7-.34-1.77-.36-3.91-.42Z"/><polygon class="cls-1" points="371.88 429.24 372.95 429.27 370.95 428.09 371.88 429.24"/><path class="cls-1" d="M319.9,430.74c2.12.05,4.61-.21,6.74-.16C322,430.79,319.32,429.27,319.9,430.74Z"/><path class="cls-1" d="M229.41,198.61c-.51-.07-.33.77-.41.92C229.86,199.34,229.39,198.4,229.41,198.61Z"/><polygon class="cls-1" points="237.89 196.71 237.74 197.05 238.99 196.21 237.89 196.71"/><path class="cls-1" d="M245.82,196.73c-.75-1.43-2.87.23-4.28-.28l-.24-.33-.63,1.15C242.38,197.09,244.61,196.33,245.82,196.73Z"/><path class="cls-1" d="M250.05,199.81c-.26-.55.92-.47-1-.17l.18.14A4.93,4.93,0,0,1,250.05,199.81Z"/><path class="cls-1" d="M249.25,199.78c-.84,0,.54.47,0,0Z"/><path class="cls-1" d="M253.1,199.46l-1.1.5c.23.33,1.21.4.85.64C254,200.33,253.74,200,253.1,199.46Z"/><path class="cls-1" d="M254.15,198.42l-.57.21C253.68,198.77,253.83,198.82,254.15,198.42Z"/><path class="cls-1" d="M252.37,199.07l1.21-.44c-.16-.23-.18-.69-.56.16C253.12,198.37,252.88,198.77,252.37,199.07Z"/><path class="cls-1" d="M251.68,198.86c-.61-.31-1.41-.51-.31-1C249.27,198.05,249.58,199.06,251.68,198.86Z"/><path class="cls-1" d="M246.23,195.25l-.83-.42-.71.48C245.05,195.07,246.28,195.7,246.23,195.25Z"/><path class="cls-1" d="M260,200.2c.07-.3-.37-.81-.46-1.2l-.81.35C259.11,199.56,259.9,199.75,260,200.2Z"/><path class="cls-1" d="M259.5,199l1.22-.52C259.63,198.42,259.44,198.67,259.5,199Z"/><polygon class="cls-1" points="254.34 196.84 252.34 197.93 254.73 196.82 254.34 196.84"/><polygon class="cls-1" points="264.6 200.24 263.91 200.94 265.14 199.88 264.6 200.24"/><path class="cls-1" d="M267.68,200.12c-.51.58.7,1,.16,1.34a5.06,5.06,0,0,0,2.2-1.05A2.85,2.85,0,0,1,267.68,200.12Z"/><path class="cls-1" d="M271.12,199.75a5.61,5.61,0,0,0-1.08.66A3.31,3.31,0,0,0,271.12,199.75Z"/><path class="cls-1" d="M262.79,198.63a1.45,1.45,0,0,0,1,.87l-.48-.85Z"/><path class="cls-1" d="M263.25,198.62l0,0,1,0Z"/><path class="cls-1" d="M262.67,198.63h.12C262.75,198.55,262.72,198.52,262.67,198.63Z"/><path class="cls-1" d="M257.53,197.61c.71-.48,2.2-1,.76-1.72C257.78,196.47,258.6,196.89,257.53,197.61Z"/><path class="cls-1" d="M262.08,197.56l-1.29-.2c0,.23.25.56-.1.8Z"/><polygon class="cls-1" points="262.71 197.29 262.08 197.56 262.56 197.63 262.71 197.29"/><path class="cls-1" d="M268.9,199a3.75,3.75,0,0,1,1.86-.46,10,10,0,0,0-2.23-.26C268.43,198.5,268.11,199,268.9,199Z"/><path class="cls-1" d="M266.16,198.71l.12,0C266.21,198.59,266.14,198.57,266.16,198.71Z"/><path class="cls-1" d="M277.55,198.49l-.11-.15,0,.15Z"/><path class="cls-1" d="M268.41,198.07a1.17,1.17,0,0,0-1.2.31,6.83,6.83,0,0,1,1.32-.15C268.58,198.11,268.59,198,268.41,198.07Z"/><path class="cls-1" d="M273,199.35a6.58,6.58,0,0,0-1-.47C272.33,199.15,272.91,199.57,273,199.35Z"/><path class="cls-1" d="M266.47,198.9l-.08,0C266.57,199.12,266.55,199,266.47,198.9Z"/><path class="cls-1" d="M266.47,198.9a3,3,0,0,0,.74-.52,4.06,4.06,0,0,0-.93.29A1.06,1.06,0,0,1,266.47,198.9Z"/><path class="cls-1" d="M279.6,193c-.09.79-1.55,1.52-2.81.67-1.24.6-.43,3.2.65,4.66,0-.35,0-.67,1.31-1.13-.44-.44-2.83-1-1.75-1.73,1.69-.41,1.38.28,2.21.7-.7-1,2.15-1.44,1.78-2.89l-1.48.51C279.48,193.57,280,193.21,279.6,193Z"/><path class="cls-1" d="M275,198.26l-.53.1a4.52,4.52,0,0,1,1.82,1.07c.87-.39,1.05-.68,1.11-.94l-2.58-.11Z"/><path class="cls-1" d="M272.12,198.36c.41-.86,1.68-1.23.9-2.16-1.54.06-1.08.72-2,1.09,2.49-.21-.71.48,1.08,1a6.28,6.28,0,0,1-1.34.23,8.78,8.78,0,0,1,1.29.39l-.06,0h0c-.11-.11-.14-.17,0-.11l.05,0a1.28,1.28,0,0,1,.11-.33c.72.18.12.23-.11.33a.5.5,0,0,0,0,.13h0l2.49-.47A8.13,8.13,0,0,0,272.12,198.36Z"/><path class="cls-1" d="M259.62,194a.22.22,0,0,1,.08.2C259.86,194.13,259.92,194.06,259.62,194Z"/><path class="cls-1" d="M260.65,194.56c-.19.12-.34.46-.92.37-.52-.26,0-.41,0-.69-.35.23-1.24.61-.13,1l.18-.11c1,.29,2.29,1.37,2.11,1.49A5.93,5.93,0,0,0,260.65,194.56Z"/><path class="cls-1" d="M266.46,196.24l2.07-.42-1.06-.75.06.45C266.35,195.34,266.6,195.89,266.46,196.24Z"/><polygon class="cls-1" points="277.79 198.92 277.51 199.83 278.71 198.55 277.79 198.92"/><polygon class="cls-1" points="280.48 198.81 280.38 199.61 281.09 199.13 280.48 198.81"/><path class="cls-1" d="M346.25,225.64l-.61.22A2.15,2.15,0,0,0,346.25,225.64Z"/><path class="cls-1" d="M350.67,225.69l.11-.39C350.57,225.52,350.49,225.68,350.67,225.69Z"/><path class="cls-1" d="M346.7,198.72c.88.74,1.88,1.89,1.77,1l-.27-.87A2.11,2.11,0,0,1,346.7,198.72Z"/><path class="cls-1" d="M376.06,209.92l.27-.26-.83-.6Z"/><path class="cls-1" d="M379.66,210.55l-.56,1.17A4.4,4.4,0,0,0,379.66,210.55Z"/><path class="cls-1" d="M322.15,226.56l-.71.88C322.55,227.44,322.06,227,322.15,226.56Z"/><path class="cls-1" d="M308.09,198.49A5.77,5.77,0,0,0,310,199C309.08,198.52,308.34,197.77,308.09,198.49Z"/><path class="cls-1" d="M348,216.43c-.37.16-.53.34-.52.53C347.85,216.81,348.07,216.64,348,216.43Z"/><path class="cls-1" d="M312.22,199a4,4,0,0,0-.41-.21,5.18,5.18,0,0,1-1.8.21A1.86,1.86,0,0,0,312.22,199Z"/><path class="cls-1" d="M233.45,225.84c-.09,0-.21-.06-.29-.1S233.24,225.86,233.45,225.84Z"/><path class="cls-1" d="M232.81,201.15a9.3,9.3,0,0,1,.07,1A2.2,2.2,0,0,0,232.81,201.15Z"/><path class="cls-1" d="M291.33,199.19c-.57.06-.09.1,0,0Z"/><path class="cls-1" d="M288.55,195.76a.59.59,0,0,0,.23-.42A.73.73,0,0,1,288.55,195.76Z"/><path class="cls-1" d="M317.91,193.61h0C317.79,193.45,317.82,193.48,317.91,193.61Z"/><path class="cls-1" d="M290.47,198.8a4.14,4.14,0,0,0,.73.26A3,3,0,0,0,290.47,198.8Z"/><path class="cls-1" d="M290.58,199.21l-.5-.09C290,199.27,290.08,199.36,290.58,199.21Z"/><path class="cls-1" d="M292.13,199.15a4,4,0,0,1-.93-.09c.11.05.16.1.13.13Z"/><path class="cls-1" d="M281.57,223.52l-.12-.08C280.87,223.8,281.12,223.74,281.57,223.52Z"/><path class="cls-1" d="M361.58,189.71s0,0-.07,0l.09,0Z"/><path class="cls-1" d="M363.63,189.07c-.87,1.08-1.37,1-2,.72l.68,2.5Z"/><path class="cls-1" d="M335.69,225.89l1.44.78c-1.74,1.28-3,.84-1.65,1.94.21-2.72,5.61-.28,5.81-3l.95.58c-.27,0-.32.13-.59.1,1.85,1.3,1.38-2,3.76-1.58.83.21,1.41.61.84.93l1.85-.67c.54.05.41.52-.13.47l2.83-.22,0,.08a11.69,11.69,0,0,1,1.76-1.36c.71.39-.36.29-.18.63l1.56-.66c.64.7-.66,1.38-1.74,1.28,1.46,2.72,1.3-.68,4.45.9l-1.48.35c1,1.54,2.11,1,3.77,1.94-.39-.5-3.33-2.42-1.64-3.1a2,2,0,0,0,2-.24c0,1,.91.73,2,.67l-.07,1.28c1.21-.37,1.11-1,1.82-1.59,1.35.12,1.63,1.11,1.94,1.95,2.16.2-1.49-1.59,1.07-1.83a5.35,5.35,0,0,0,1.26.19,10.84,10.84,0,0,0,1.45-.12,33.16,33.16,0,0,0,4-.87c1,.22,1.06.42.9.6s-.5.37-.06.55a12.29,12.29,0,0,0,1.24-1,.5.5,0,0,1,.51.49c.62-.19.43-.51.35-.83s-.07-.62.8-.79c-.25-.62.75-.3,2.24.12a4.31,4.31,0,0,0,.34-4.36c.37-.46.79.76,1.28.85-.52-2.27-.71-3.09-.95-3.88a18.16,18.16,0,0,0-1.22-2.89,7,7,0,0,1,.42-1l.42-.88c-1,1.29-2.1-.36-3-1.8A13.39,13.39,0,0,0,375,211l-.69-2.3c.21-.27.65,0,1.19.33-.11-.15-.21-.3-.31-.42.47-.82,1.21-.39,1.93.2-.26.27-.52.55-.79.82a3.64,3.64,0,0,0,2.38,1,1.69,1.69,0,0,1-.34-.75c.21.15.4.24.53.17s-.15-.31-.48-.69l1.43-.52-.57-.13.89-3c-.71-1.08-1.6-2.09-2.38-3.25a10.4,10.4,0,0,1-.56-.9c-.18-.34-.35-.73-.5-1.09a10.67,10.67,0,0,1-.69-2.27,1.53,1.53,0,0,0,1.4-.08,11.41,11.41,0,0,1,1.54-.82,2.82,2.82,0,0,0-.24,2.7c.07.25.14.52.21.8l.11.43.05.22.05.16a3.17,3.17,0,0,1,.11,1.3c.14-.92.73-.72.94-.48l-.3-.79-.07-.21-.08-.29-.15-.58c-.2-.77-.4-1.5-.59-2.18,1-.18.76-1.2,1.17-2.67-2,1.82-1.33-2.66-1.94-3.83.67-.76,1.36-1,1.19,1.5.86-2.11,0-2.38-.69-2.53-1.2.52-2.15.93-2.67.38.52,0,.7.08,1.2-.26a5.59,5.59,0,0,1-2.59.21c-.71-.11-1.15-.38-.64-.67h.55c-.86-.06-2-.09-3.22-.08l-1.86.06-.93,0-.45,0-.31,0c-1.66.24-3.06.72-3.25,1.57a13.93,13.93,0,0,1,.49-2.39l-4.53,5.72c.4-1.46-1.13-4.94,1-5.76a3.27,3.27,0,0,0-2.62.06c.41.21,1,2.11.46,2.25-1.55-1.63-1.07-.87-3-2.26.62.31-.07,2.6-1.05,2.53.16-.34-.08-2.26.28-2.5l-2.43,2.25c.6-.41.1-1.91-.44-2.54.25.44-2.1,0-2.75.18l1,.52c-2.75-.34-2.71,3.16-5.44,3.05.33-.47.82-2.86-.57-3.15-.63,1.16-2.81,5.54-5.22,6.43l-.46-.66-1.85.75a42.08,42.08,0,0,1,6.15-6.8c-1-.52-.29-.77-1.83-.71-.54-.62.84-.94,1.29-1l-3.58-.39c.16,1.34-2.74,1.34-2.6,2.46l3.89-1.39c.16,1.34-2.25,3.82-4.79,3.58-.64-.54.49-2.39.43-2.84-.33.46-2.41.88-2.64.55l1.08-.72c-1.42-.5-2.31,1.79-4,.5-.58-.08-1.75-1.73-1.85-.93,1,1.53,1.14,6.28.51,7.43a19.24,19.24,0,0,1-3.75-2.22c-1-1.21,1.45-2.87.63-3.9,0,.36-.57.82-.79,1-.62-.31.25-1.14-1.09-1-.22,1.36-2.72-.12-.63,1.15-1.31.39-1.39-.28-2.93-.22.49.88-1.37,3-2.69,3.39a1.5,1.5,0,0,0-.36-1c-2.68-.12-4.12-.74-6.62-.75-.23-.33-1.43-.73-.92-1.32a2.38,2.38,0,0,1-1.46.74c-1.5-1.18,1.72-.18.58-1.6-.1.79-2,1.09-3.09,1.59.33,1.22,2.53.23,3.63-.26,0,1.69-1.91,3.45-4.52,4.23-2.08.42-.9-1.09-1.26-.85-3.9-.29-3.32,3-6.57,1.73-1.28-1.07-.05-2.14-.34-2.91,1.69-.41,2.6.68,3.75.64l-1.42-.51A2.77,2.77,0,0,1,302,194c-1.08-1-6.59-.18-9.6-1.08-.54.37-1.46.74-1,1.17l1-.15c.87.87-1.8,1.2-.59,1.6-1.28.61-2.71,1.57-4.51,1.08l-.34-1.22c0,.35,1.18.73,1.68.35-.75.55-2.75-1.66-3.58-.05l1.27.85c-1.29.61-2.87,1.92-4.47,1.53.73,1.21.37-.14,1.5,1.28-1-1.77,4.08.07,2.5-1.78,1.17,1.64,2,.7,3.53,2.1,0-.41-.53-.77.8-.58a2,2,0,0,1,.3-.35l.09,0-.08-.05c.06-.06.07-.07,0,0a1.53,1.53,0,0,1-.68-.61c.66-.93,2.79-.9,3.51-1.38.79.19-.33.46.1.89l1.07-.71c.11.89,2.11,1.49.24,2l1.69,0a4.09,4.09,0,0,0,3.19.33c.8.19,2-1,1.32-.29l2.64-.56,0,.23c2.61.11,5.37-1.49,8.34.13a6.8,6.8,0,0,1,3.26-.25l.28.78c1.13-.27,3.38.78,3.87,0,1.21,2.09,5.46.45,7.44.82l.08-1a15.53,15.53,0,0,0,4.36-.64l-.1-.89c1.46-.74,3.75.63,6.06.54-.16.34-.75.25-1.16.05,2.76,2,5.82-1.48,8.32,0a1.45,1.45,0,0,1,1.51,0,.3.3,0,0,0-.16.05h.26c.28.15.56.33.87.47a3.24,3.24,0,0,0-.73-.48,7.63,7.63,0,0,0,1.92-.35l.31,1,.16,0c.7.35.57-.46.19-1.18a3.47,3.47,0,0,0,.95-.59c.57,1.56,1.87-.52,2.65,1.14.48-.81,3.59-.61,4-2.31,0,.22.23.33-.15.34a2.77,2.77,0,0,0,2.31-.09l.33,1.22,1.74-1.64c1.06.74,1.5,1.18.45,2.12,2.53-1.45,2.05-.55,4.21-2l-.11.79c.77,0,2-1.09,2.47-.44a4.45,4.45,0,0,0,1.11.56,4.78,4.78,0,0,0,1.15.23c.85.07,1.91,0,2.84.14a7.58,7.58,0,0,1-.68,2.78c1.17-.74.91-.32.58.15s-.72.86.18.8c-.55.24-.86.49-1.34.24a.7.7,0,0,1,.12.32,4.82,4.82,0,0,1,0,.66c0,.44-.11.85-.16,1.23a2.33,2.33,0,0,0,.69,2.21c-.55.26-.81-.48-1.14-.25.12.18.48.71.15.95s-.46-.33-.7-.69c.09,2.31,1.79,2.54,3.39,2.71-.76,1.16-.65,1.75.4,2.59-.53.41-1.07,1.09-1.26-.35,0,.39-.23,1.68-.25,2.74a1.35,1.35,0,0,0,.76,1.47c-.32.06-.09.68.06.9a9.66,9.66,0,0,0-.07,2.42l.21-.14a3.3,3.3,0,0,1,.79,1.34c-.36.08-1.26-.38-1.84-.26l-.09-.16c-1.55-.55-1.62-.42-1.84-.31s-.49.21-1.65-.42c.08.32.17.63.26,1,0,.52-.14.7-.41.7a1.24,1.24,0,0,1-.45-.13l-.64-.3c-.91-.47-2-1.09-3-.69l.68.54c-1,.71-2.87-2.8-3.9-3.06-.22-.18.36-.29.67-.42-2.7-1.22-.35,1.26-2.36,1.55-.37-.68.48-1.72-.87-1.85-.68-.55-3.93,2.2-5.78.9.41.52.81,1-.12,1.44-1.43.18-3.87-2-5.16-.33a.58.58,0,0,1-.26-.41c-1.1.42-3.56.71-4.22,1.6-1-3.32-6.8,1.61-6.78-1.45l-3.36.17.09-.32a3.87,3.87,0,0,0-3.67,1.27c-.5-.21-.14-.49-.1-.65-3.14-.62-3.45-.49-6.09,1l-.27-1c-.72.58-4.55-1.55-7.63-.4a.66.66,0,0,1,.34-.44c-3.47,1.16-8.31-2.75-9.58.86l-2.29.89c3,.28-.44,1.56.78,2.16-1.17.22-3-1.09-1.58-1.27l.22.18c.53-1.88-3.68-.67-3.6-1.95-5.83.09-11.51-1-17-1l.63,1.47-1.9-.09c-.5-.34-.67-1.14.69-1.08-.72-.83-2.28.69-2.32,1-2.66-.59,1-1.71.22-1.74l-1.11.11.25.17c-.89.6-1,1.23-2.61,1.16-1-.29-.53-.9-.93-1,0-.1-.14-.15-.63,0l-2.4-.13,1,1.16c-1.06.57-2.25-.06-1.15,1.25-1.62-2-8.94-.73-9.94-1.36a8.06,8.06,0,0,1-4.78.73c.45.24.72,1.54-.85,1.38.57-2.68-2.88-1.16-4.15-3.09,1.14,1.28-4.46.31-2.68,2.13-1.31-.22-.08-1-1.08-1.63-3.12,1-6.87-.68-10.73-.33-.06.35.59.89-.24,1.42l-1-.88-.25-.22a1.79,1.79,0,0,1-.13-.22c-.08-.15-.14-.3-.2-.44-.16.08-.32.59-.53.92s-.48.5-.64-.11c0,.29,0,.74-.33.85a6.93,6.93,0,0,0-2.53-.54,21,21,0,0,0-.1-2.52l-.11-1.31,0-.33,0-.45,0-1.14a22.76,22.76,0,0,1,1.54-9.13c-.68,1-.75.35-.77-.45-.17.52-.87,0-1.35.09l1.32-3.21c-1.32-.58-.09-3.44-1.35-3.78l.23,1c-1.5-1.35-3.32,1.89-5.24,1.7,1.7,1.51-2.51,4-.08,6.47-.39.55-.62-.46-1.06-.17.82.63,1,1.39.62,2.8l-.2-.16a20.84,20.84,0,0,1-.3,4.87c-.06.37-.13.74-.2,1.13,0,.15-.07.46-.1.77l-.12.94c-.14,1.3-.3,2.79-.43,4.6.32-.33.63-.65.95-.95a11.13,11.13,0,0,1-.66,2.76c1.43.65.08-4,1.66-3.33-1,1.34-1,4.09-1,6.6,2.17,0,4.1.17,4.18,1.2,1.18,0,1.13-.27,1.1-.54s0-.55,1-.54c.11.2.22.39.35.59l.82-.76c1.32.12,1.95.87,1.95,1.37a8.68,8.68,0,0,0-1.53.18,5.33,5.33,0,0,0,1.75.26c.34,0,.68,0,1,0l.51,0,.3,0a5.22,5.22,0,0,1,1.67-.18l-1.42-.37c4-.55,8.92.23,12.79-1l-.29-.44c3-.83,2.37.49,5.62.1l-.12.11a4,4,0,0,1,2.41-.62c-.82.53,1.55,1,.47,1.6,3.21-.89,1.59-.7,3.71-2.36l.49.74a3,3,0,0,1,2.41-1.22c-1.33.64,1,1.13-.46,2,3.41,1.62,5.06-1.64,6.62.73,1.57-2-2.94-1.14-2.07-1.58-.73-.67,1.29-1.53,2.36-1.33s1.85,2.63,4.59,2.59c-.27,0-.29.15-.56.14,1,.52,2-.71,3.26.14.71-1.24,1.63.07,1.84-1.51l-2.51.36c1.42-.41,2.75-2.26,5.1-1.37a3.91,3.91,0,0,1-1.36,1c.69.47,1.32-.31,2,.17-.2,1.58-3.05.34-4.58,1.55.74.67,2.89-1.15,2.12.57,1.11-2.18,2.7.28,4.56-1.39l-.13,1a3.28,3.28,0,0,1,1.44-.58L286,226c1.5-1.05,2.89.91,4.33.34-3,0-.68-1.14-1.95-1.83,3.72-1.27,2.14,2.48,6.3,2-.56.14-2.12-.57-1.23-1a5.52,5.52,0,0,1,2.32,1.06c2.76-.2-.42-1,.75-1.56.94,1.16,1.36-.47,2.56-.84v1c3.15.61.84-2,3.67-1.27l-1.2,1.34,1.48-.34-.31,1.09c1.61-.81,2.11-.6,3.68-.29-.37-.68.2-1.75,1.6-1.78.95.57-.54.91,1.44.78-.45.6-.94,1.36-1.79.47-.09.31-.44.6-.53.91,1,.66,2.56.15,3.28.15a1.71,1.71,0,0,1-.77-.23l2.86-1.34c.45.37.09.66-.26.94.58-.1,1-.55,1.83-.63-.22.78-.17,1.59-1.37,2l2.72-.87c.18.34,1.4.94,1.05,1.23,1.51.46,3.7-1.52,5.71-.91A1.15,1.15,0,0,1,323,226c1.89.17,3.55,1.14,5.79.06l1.26,1.41c1.75-.32-1.71-1.78,1.2-2.31,2.06-.44.77,1.2,1.49,1.6,1-.71,2.81-2.16,4.7-1C336.76,226,336.27,225.79,335.69,225.89Zm21.55-.62c-.42.2-1.25.82-1.56.25C356.16,224.42,356.53,225,357.24,225.27Zm20.68-18.52c.32.31.16.79-.21,1.33A2.05,2.05,0,0,1,377.92,206.75Zm-80.32-8.34,0,0C298.57,198.74,298.24,198.59,297.6,198.41Zm-1.94-.42a.26.26,0,0,0-.1.4c.14-.24.57-.26,1.07-.19C296.49,198,296.24,197.77,295.66,198Zm-20.2,19,.38.26C275,217.55,275.23,217.3,275.46,217Z"/><path class="cls-1" d="M379.24,210.46a1,1,0,0,1-.53.18C378.88,210.81,379.06,210.81,379.24,210.46Z"/><path class="cls-1" d="M322.28,226.4h-.06a.36.36,0,0,0-.07.17Z"/><path class="cls-1" d="M325.63,189.81a1.58,1.58,0,0,1,.77.5C326.42,190.07,326.24,189.87,325.63,189.81Z"/><path class="cls-1" d="M285.41,199.63l1.24-.25a1.68,1.68,0,0,1-1.12-.32C285.56,199.29,285.8,199.61,285.41,199.63Z"/><path class="cls-1" d="M274.65,193.66c-.18.12-.38,0-.56.13l.05.45C274.91,194.21,275.45,193.85,274.65,193.66Z"/><path class="cls-1" d="M284.26,196.42c-.09-.81-.87-.53-1.74-.38h.15C282.42,197.17,283.34,196.8,284.26,196.42Z"/><path class="cls-1" d="M282.32,196.06a2.69,2.69,0,0,1-.8,0C281.41,196.54,281.84,196.18,282.32,196.06Z"/><path class="cls-1" d="M293.21,198.53c-.41-.21-.26,1-.49.7C292.26,200.27,295.46,198,293.21,198.53Z"/><polygon class="cls-1" points="283.56 193.75 283.87 194.75 284.36 193.94 283.56 193.75"/><path class="cls-1" d="M290.41,194.48l-1.38-.27c0,.16-.16.26-.37.34C289.51,194.58,290.45,194.78,290.41,194.48Z"/><path class="cls-1" d="M288.66,194.55a2.08,2.08,0,0,0-1.12.16A4.62,4.62,0,0,0,288.66,194.55Z"/><polygon class="cls-1" points="285.46 193.45 285.87 193.66 286.85 193.73 285.46 193.45"/><path class="cls-1" d="M305.32,194.68l1.52-.29c.15-.34-.26-.55-.82-.42C305.65,194.21,305.09,194.35,305.32,194.68Z"/><path class="cls-1" d="M300.75,191.93c.41.21.43.43.66.76l0-1.24Z"/><path class="cls-1" d="M305.16,191.64c.15-.34,2.2-1,.28-.91C305.29,191.07,303.77,191.36,305.16,191.64Z"/><polygon class="cls-1" points="327.97 193.21 327.58 193.23 327.64 195.27 327.97 193.21"/><path class="cls-1" d="M348.07,188.34c-1.79-.49-.42,1.26-2,.65-.43.48,1.32.5.89.91C348,189.39,348.57,189.68,348.07,188.34Z"/><path class="cls-1" d="M346.92,189.9a3.93,3.93,0,0,0-.55.31A1.72,1.72,0,0,0,346.92,189.9Z"/><polygon class="cls-1" points="233.9 196.92 234.33 195.77 233.64 196.51 233.9 196.92"/><path class="cls-1" d="M232.39,194.71l1.3-.27-1.17-.7C232.57,194,232.69,194.51,232.39,194.71Z"/><path class="cls-1" d="M360.44,227.88l.09-.31c-.18-.34-.45-.36-1-.42Z"/><polygon class="cls-1" points="344.8 226.91 345.07 226.94 344.57 225.76 344.8 226.91"/><path class="cls-1" d="M331.67,228.41c.54.05,1.17-.22,1.7-.17C332.21,228.46,331.53,226.94,331.67,228.41Z"/><path class="cls-1" d="M93.84,118.29c-.07,1.35.77.86.92,1.07C94.57,117.11,93.63,118.35,93.84,118.29Z"/><path class="cls-1" d="M91.94,96.12l.34.39-.21-.82c-.07-.22-.14-.35-.21-.54-.14-.35-.28-.74-.41-1.15l.24,1A7,7,0,0,1,91.94,96.12Z"/><path class="cls-1" d="M101.49,90.88c-1-.72-2.91-.66-4.9-.49a13,13,0,0,1-4.06.21l-.69-.32a1.93,1.93,0,0,0,0,.48c.22.42.44.82.66,1.19,0-.18,0-.37,0-.57,1.05-.12,2.3-.34,3.66-.48l.5-.05.76,0c.52,0,1,0,1.52,0A20.19,20.19,0,0,1,101.49,90.88Z"/><path class="cls-1" d="M112.55,94c-.68-.56,2.39-.48-2.58-.18.25.06.32.1.47.14C110.88,93.93,111.5,93.93,112.55,94Z"/><path class="cls-1" d="M110.44,93.93c-2.19,0,1.43.47,0,0Z"/><path class="cls-1" d="M120.52,93.61l-2.87.5c.6.33,3.16.4,2.21.64C122.81,94.48,122.2,94.15,120.52,93.61Z"/><path class="cls-1" d="M123.25,92.57l-1.49.21C122,92.92,122.42,93,123.25,92.57Z"/><path class="cls-1" d="M118.6,93.23l3.16-.45c-.42-.23-.46-.69-1.45.16C120.57,92.52,119.94,92.93,118.6,93.23Z"/><path class="cls-1" d="M116.81,93c-1.62-.31-3.7-.51-.81-1C110.49,92.2,111.3,93.21,116.81,93Z"/><path class="cls-1" d="M102.55,89.4,100.39,89l-1.86.48C99.46,89.22,102.68,89.85,102.55,89.4Z"/><path class="cls-1" d="M138.44,94.35c.18-.3-1-.81-1.18-1.19l-2.12.34C136.23,93.71,138.3,93.9,138.44,94.35Z"/><path class="cls-1" d="M137.26,93.16l3.18-.53C137.6,92.57,137.08,92.82,137.26,93.16Z"/><polygon class="cls-1" points="123.76 90.99 118.54 92.08 124.77 90.97 123.76 90.99"/><polygon class="cls-1" points="150.59 94.39 148.78 95.09 151.99 94.03 150.59 94.39"/><path class="cls-1" d="M158.64,94.27c-1.33.58,1.83,1,.42,1.34a26.14,26.14,0,0,0,5.74-1A18.17,18.17,0,0,1,158.64,94.27Z"/><path class="cls-1" d="M167.62,93.9a27.53,27.53,0,0,0-2.82.66A15,15,0,0,0,167.62,93.9Z"/><path class="cls-1" d="M145.86,92.78a4,4,0,0,0,2.5.87l-1.25-.85Z"/><path class="cls-1" d="M147.06,92.77l.05,0,2.7,0Z"/><path class="cls-1" d="M145.54,92.78h.32C145.74,92.7,145.66,92.67,145.54,92.78Z"/><path class="cls-1" d="M132.1,91.76c1.87-.48,5.76-1,2-1.72C132.75,90.63,134.91,91,132.1,91.76Z"/><path class="cls-1" d="M144,91.71l-3.38-.19c.07.22.68.55-.25.79Z"/><polygon class="cls-1" points="145.64 91.44 143.99 91.71 145.24 91.78 145.64 91.44"/><path class="cls-1" d="M161.84,93.1a23.16,23.16,0,0,1,4.85-.46c-1.93-.17-3.93-.26-5.82-.26C160.6,92.65,159.77,93.13,161.84,93.1Z"/><path class="cls-1" d="M154.66,92.87l.32-.05C154.78,92.75,154.62,92.72,154.66,92.87Z"/><path class="cls-1" d="M184.44,92.65l-.29-.16-.06.15Z"/><path class="cls-1" d="M160.54,92.22a6.88,6.88,0,0,0-3.14.31c1.08-.08,2.23-.14,3.47-.15C161,92.26,161,92.18,160.54,92.22Z"/><path class="cls-1" d="M172.57,93.5c-.76-.17-1.61-.33-2.51-.47C170.8,93.31,172.3,93.73,172.57,93.5Z"/><path class="cls-1" d="M155.47,93.05l-.22,0C155.73,93.28,155.67,93.19,155.47,93.05Z"/><path class="cls-1" d="M155.47,93.05a12.18,12.18,0,0,0,1.93-.52c-.89.07-1.71.16-2.42.29A2.48,2.48,0,0,1,155.47,93.05Z"/><path class="cls-1" d="M189.81,87.16c-.25.79-4.07,1.52-7.37.68-3.24.59-1.12,3.19,1.71,4.65.1-.34.1-.66,3.44-1.13-1.17-.43-7.4-1-4.59-1.73,4.42-.41,3.62.28,5.77.7-1.82-1,5.63-1.44,4.66-2.89l-3.87.51C189.48,87.73,190.89,87.37,189.81,87.16Z"/><path class="cls-1" d="M177.79,92.41l-1.37.1a21.81,21.81,0,0,1,4.75,1.07c2.28-.38,2.76-.68,2.92-.94l-6.77-.11Z"/><path class="cls-1" d="M170.26,92.51c1.07-.86,4.37-1.23,2.35-2.16-4,.06-2.83.72-5.24,1.09,6.51-.21-1.86.49,2.84,1-1.28.15-2.43.19-3.52.23,1.17.11,2.3.24,3.37.39l-.15,0h0c-.28-.11-.37-.17,0-.11l.13,0a.9.9,0,0,1,.3-.32c1.88.17.29.22-.3.32a.91.91,0,0,0-.08.13h0l6.51-.47A55.13,55.13,0,0,0,170.26,92.51Z"/><path class="cls-1" d="M137.57,88.19c.2.08.19.14.2.2C138.2,88.28,138.36,88.21,137.57,88.19Z"/><path class="cls-1" d="M140.25,88.71a5,5,0,0,1-2.41.38c-1.34-.26,0-.42-.07-.7-.92.23-3.24.62-.33,1l.46-.12c2.62.29,6,1.37,5.53,1.49A8.59,8.59,0,0,0,140.25,88.71Z"/><path class="cls-1" d="M155.44,90.39l5.42-.42-2.76-.75.14.45C155.16,89.49,155.82,90.05,155.44,90.39Z"/><polygon class="cls-1" points="185.06 93.08 184.34 93.99 187.47 92.7 185.06 93.08"/><polygon class="cls-1" points="192.11 92.97 191.85 93.76 193.71 93.28 192.11 92.97"/><path class="cls-1" d="M466.52,124.11l-1.6.22A13.06,13.06,0,0,0,466.52,124.11Z"/><path class="cls-1" d="M478.06,124.16l.28-.39C477.81,124,477.59,124.14,478.06,124.16Z"/><path class="cls-1" d="M365.24,92.88c2.32.74,4.91,1.88,4.63,1l-.71-.86A14.6,14.6,0,0,1,365.24,92.88Z"/><path class="cls-1" d="M483.8,87.7l-.67-.27-1.57.83Z"/><path class="cls-1" d="M485.44,84.11l3.06.56A20,20,0,0,0,485.44,84.11Z"/><path class="cls-1" d="M403.49,125l-1.86.88C404.54,125.91,403.26,125.46,403.49,125Z"/><path class="cls-1" d="M264.31,92.65a35.25,35.25,0,0,0,5,.52C266.89,92.67,264.94,91.93,264.31,92.65Z"/><path class="cls-1" d="M471.06,114.9c-1,.16-1.39.33-1.37.53C470.7,115.28,471.27,115.11,471.06,114.9Z"/><path class="cls-1" d="M275.09,93.17c-.35-.09-.7-.13-1.06-.21a33.25,33.25,0,0,1-4.73.21A11.7,11.7,0,0,0,275.09,93.17Z"/><path class="cls-1" d="M174.92,124.31c-.16,0-.36-.06-.51-.11C174.36,124.32,174.59,124.33,174.92,124.31Z"/><path class="cls-1" d="M108.34,115.55c.65,0,1.72,0,2.73-.06A14.59,14.59,0,0,0,108.34,115.55Z"/><path class="cls-1" d="M220.47,93.35c-1.49.05-.24.09,0,0Z"/><path class="cls-1" d="M213.2,89.91c.32-.09.56-.22.6-.42A1,1,0,0,1,213.2,89.91Z"/><path class="cls-1" d="M290,87.77h.13C289.67,87.6,289.74,87.63,290,87.77Z"/><path class="cls-1" d="M218.22,93a18.07,18.07,0,0,0,1.91.26C219.82,93.14,219.24,93.06,218.22,93Z"/><path class="cls-1" d="M218.52,93.36l-1.3-.08C217,93.42,217.2,93.51,218.52,93.36Z"/><path class="cls-1" d="M222.55,93.3c-.85,0-1.65,0-2.42-.09.3.06.42.11.34.14Z"/><path class="cls-1" d="M297.39,122l-.32-.09C295.56,122.26,296.23,122.21,297.39,122Z"/><path class="cls-1" d="M404.15,83.87l-.17,0,.22,0Z"/><path class="cls-1" d="M409.52,83.22a8,8,0,0,1-5.32.72l1.77,2.5Z"/><path class="cls-1" d="M438.89,124.36l3.77.78c-4.55,1.28-7.85.84-4.31,1.93.54-2.71,14.66-.27,15.19-3l2.48.57c-.71,0-.83.14-1.53.11,4.84,1.3,3.59-2,9.82-1.58,2.17.21,3.69.6,2.21.93l4.83-.68c1.41.06,1.07.53-.33.48l7.37-.22-.05.08a43.85,43.85,0,0,1,4.6-1.36c1.88.39-.94.28-.46.62l4.09-.66c1.66.71-1.72,1.39-4.55,1.29,3.82,2.71,3.39-.68,11.63.9l-3.86.35c2.49,1.54,5.5,1,9.86,1.94-1-.5-8.73-2.42-4.3-3.1a13.17,13.17,0,0,0,5.29-.24c0,.48.6.66,1.55.72.48,0,1,0,1.67,0l2.78,0c0,.43-.1.85-.17,1.28a18.09,18.09,0,0,0,4.79-.72,18.26,18.26,0,0,1,2.57-.88c1.29,0,2.4.11,3.37.21a5.81,5.81,0,0,1,1.74-3.93c.1-5.16-.3-3.44-.75-2.19s-1,2-1.08-3.35c.06-.93.1-1.83.14-2.72l0-.91c0-.27,0-.53,0-.8,0-1,0-2.08-.12-3.13-.17-2.11-.49-4.34-.87-7.15.44-3.28.78.58,1.15-.6l-1-2.91c0-.71.34-.48.49-.36-.39-3.29-1.27-.29-1.62-5.4-.62-.34-.3-2.44.12-5.67a48.42,48.42,0,0,0-5.6-.71,27.59,27.59,0,0,0-3.28,0c-.55,0-1.08.07-1.6.13a6.42,6.42,0,0,0-1.09.27c-1.18-.36.57-.79.21-1.28-6.55,1-5.61.76-11,2.18l-4.58-.84c3.37,1-.93,2.09-4.7,3,1.2.46,2.22.87,2.9,1.06l-6,.69c-.72-.21-.12-.65.87-1.19-.41.11-.8.21-1.1.31-2.15-.47-1-1.21.5-1.93l2.17.79c1.48-.77,2.87-1.63,2.56-2.38a9.06,9.06,0,0,1-2,.34c.39-.21.63-.4.46-.53s-.84.15-1.82.48L481,83.91l-.34.57-7.86-.89c-5.62,1.43-10.51,3.55-19.44,4.13,2.22-1,.48-1.7.6-2.94,2.43,1.31,6.91-.56,11.54-.29-2.42-.14-1.88-.73-1.27-.94L456,84.75c.18-1-1.75-.76-3.91-1.18,1.63,2-6.15,1.33-9.51,2-.2-.68.6-1.36,4.7-1.2-4.52-1.51-5.84,2.35-10.28,1.07,1,0,1.54.09,1.94-.26-2.34.6-8.05.13-6.71-.46h1c-6.64-.24-20.21,0-21.2,1.69a6.85,6.85,0,0,1,1.27-2.4l-11.85,5.72c1.05-1.46-3-4.94,2.55-5.76a21.65,21.65,0,0,0-6.87.06c1.08.21,2.68,2.12,1.21,2.25-4-1.63-2.81-.87-7.79-2.26,1.61.32-.18,2.61-2.74,2.53.4-.34-.21-2.26.72-2.5l-6.35,2.25c1.58-.4.28-1.9-1.15-2.54.66.44-5.49,0-7.19.18l2.7.52c-7.18-.34-7.09,3.17-14.22,3,.87-.47,2.13-2.86-1.49-3.14-1.66,1.15-7.35,5.54-13.65,6.42L346,90.08l-4.83.75A109.25,109.25,0,0,1,357.19,84c-2.69-.53-.75-.78-4.77-.72-1.42-.62,2.19-.94,3.37-1l-9.36-.4c.41,1.34-7.17,1.35-6.81,2.47L349.79,83c.42,1.34-5.88,3.82-12.51,3.58-1.69-.53,1.26-2.39,1.12-2.84-.86.46-6.3.88-6.91.56l2.82-.72c-3.7-.51-6,1.78-10.47.5-1.54-.09-4.58-1.74-4.84-.94,2.5,1.53,3,6.28,1.32,7.43-.54-.1-8.05-1.46-9.8-2.22-2.52-1.2,3.79-2.87,1.64-3.9-.09.37-1.49.82-2.07,1-1.61-.31.67-1.13-2.83-1-.58,1.37-7.11-.11-1.65,1.15-3.42.39-3.64-.28-7.65-.22,1.28.89-3.61,3-7,3.39.21-.35-.56-.8-.94-1-7-.13-10.77-.75-17.31-.76-.61-.33-3.76-.73-2.42-1.31a11.93,11.93,0,0,1-3.82.73c-3.9-1.18,4.5-.18,1.52-1.6-.25.8-5.21,1.1-8.08,1.59.88,1.22,6.63.24,9.51-.26,0,1.69-5,3.46-11.83,4.24-5.43.42-2.35-1.09-3.3-.85-10.2-.3-8.69,2.94-17.16,1.73-3.36-1.08-.15-2.14-.9-2.92C240.62,88,243,89,246,89l-3.69-.51a17.65,17.65,0,0,1,6-.32c-2.82-1-17.23-.18-25.11-1.07-1.39.36-3.81.73-2.67,1.16l2.49-.15c2.29.87-4.68,1.2-1.53,1.61-3.34.61-7.09,1.56-11.79,1.07l-.88-1.22c.1.36,3.07.73,4.39.36-2,.54-7.21-1.66-9.36-.06l3.3.85c-3.35.62-7.5,1.92-11.67,1.53,1.9,1.21,1-.14,3.92,1.28-2.56-1.76,10.67.07,6.54-1.78,3,1.65,5.26.7,9.23,2.1-.12-.4-1.4-.77,2.1-.57a3.84,3.84,0,0,1,.76-.36l.24,0-.19,0c.15-.06.16-.07-.07,0a5,5,0,0,1-1.79-.62c1.74-.93,7.3-.9,9.19-1.38,2.07.19-.87.46.26.9l2.81-.72c.28.9,5.52,1.49.63,2l4.4,0a27.11,27.11,0,0,0,8.36.32c2.07.2,5.24-1,3.43-.29l6.91-.56.06.23c6.81.11,14-1.49,21.81.13a46.09,46.09,0,0,1,8.5-.25l.75.78c2.94-.27,8.84.78,10.11,0,3.17,2.09,14.29.46,19.47.83l.19-1a103,103,0,0,0,11.41-.64l-.27-.89c3.81-.74,9.81.64,15.84.54-.41.35-1.94.26-3,0,7.21,2,15.21-1.47,21.75,0a9.63,9.63,0,0,1,3.95,0,1.7,1.7,0,0,0-.41,0H363c.72.15,1.46.33,2.27.48a12.12,12.12,0,0,0-1.91-.48c1.26,0,3.16-.13,5-.36l.8,1,.43,0c1.83.35,1.47-.46.5-1.18a16.46,16.46,0,0,0,2.47-.58c1.49,1.55,4.9-.53,6.93,1.13,1.26-.81,9.39-.61,10.39-2.31.06.22.61.33-.4.34a17.87,17.87,0,0,0,6-.09l.89,1.23,4.54-1.65c2.77.74,3.91,1.18,1.17,2.12,6.62-1.45,5.37-.55,11-2l-.28.79c2,0,5.23-1.09,6.45-.44,4.5,1.51,22.28.21,33.84,1.61-2.24-2.33,5.38,1,5.84-.76.67.55,2.28.86.41,1.34,5.9-.54,8.86.87,12.94-.65.67.55-1.26.81-.66,1.14a4.58,4.58,0,0,1,2.48-.15c.61.32-.86.46-1.79.7,6-.09,6.63-1.79,7.07-3.39,3.06.76,4.58.65,6.79-.39,1.06.52,2.83,1.06-.91,1.25,2.1.08,12.87.76,13.08-.51a8.74,8.74,0,0,0,3.5-.06l2.87.06,1.34,0c.83,0,1.62,0,3.19,0l-.69-.21a4.74,4.74,0,0,1,2.22-.79,11.49,11.49,0,0,1-.15,2,12.72,12.72,0,0,0-.11,2.43l-.16,0q-.09.6-.18,1.08c0,.34-.09.52-.12.93-.06.71-.09,1.25-.1,1.69a10.3,10.3,0,0,0,.09,1.8c.12.91.21,1.81-.42,6l.95-.46c1,.4.73,2.27.27,4.66-.12.6-.24,1.23-.36,1.88s-.23,1-.31,1.42a7,7,0,0,0,0,2.74,10.29,10.29,0,0,0,.54-1,2.19,2.19,0,0,1-.59,2.27,18.86,18.86,0,0,1-3.25-1.5,12.13,12.13,0,0,0-1.66-1c-.24-.18.29-.29.49-.42-.34-.15-.55-.25-.7-.3l-.19,0h-.29c-.5.07-.55.27-.56.53,0,.5.22,1.19-2.41,1.34-1-.68,1.25-1.73-2.29-1.85-1.76-.55-10.26,2.2-15.09.9,1.07.52,2.12,1-.32,1.43-3.74.19-10.12-2-13.5-.32-.48-.15-.66-.28-.68-.41-2.86.42-9.29.7-11,1.59-2.64-3.31-17.79,1.62-17.72-1.44l-8.8.16.23-.31c-5.63-.2-7.62.53-9.6,1.27-1.3-.21-.35-.5-.24-.66-8.22-.61-9-.48-15.93,1l-.72-1c-1.86.57-11.88-1.56-19.94-.4.08-.11.24-.31.88-.45-9.07,1.17-21.71-2.75-25,.86l-6,.89c7.74.28-1.15,1.57,2,2.17-3,.21-7.87-1.09-4.13-1.27l.58.18c1.38-1.89-9.62-.67-9.41-1.95-15.24.09-30.09-1-44.37-1l1.65,1.46-5-.08c-1.31-.34-1.75-1.15,1.8-1.09-1.87-.83-6,.7-6.06,1-7-.6,2.72-1.71.58-1.74l-2.89.11.65.17c-2.35.59-2.56,1.23-6.83,1.15-2.7-.29-1.38-.9-2.44-1,0-.11-.36-.16-1.64,0l-6.27-.12,2.51,1.15c-2.78.57-5.9-.06-3,1.25-4.25-2-23.4-.72-26-1.35-3.9.84-7.74.83-12.5.73,1.18.24,1.89,1.54-2.22,1.38,1.5-2.68-7.52-1.17-10.84-3.09,3,1.27-11.67.31-7,2.13-3.43-.22-.21-1-2.81-1.64-8.15,1-18-.67-28.05-.32-.16.35,1.53.89-.64,1.41l-5.32-1.76c-2,.18-1.83,2-5.47.81.51.3,1.28.75-.05.86-19.76-1.72-40.36,1.4-60.42-1.82,2.71.68.9.75-1.17.78,1.35.16,0,.86.23,1.34l-8.39-1.32c-1.53,1.32-9,.09-9.88,1.35l2.66-.23c-3.54,1.5,4.94,3.32,4.43,5.24,4-1.7,10.44,2.51,16.94.08,1.43.39-1.23.62-.46,1.06,1.65-.82,3.63-1,7.32-.62l-.42.2c10.36-.2,14.8.61,26.43,1.15l-.86-.95a17.91,17.91,0,0,1,4.19.67c2.87-1.44-7-.09-4.4-1.67,3.31,1.93,17.62,0,19.86,2.22,3.85,0-1.12-1.1,2.72-1.08l1,.59,1-.76c2.52.12,3.79.86,3.89,1.36a20.19,20.19,0,0,0-2.4.19c3.27.7,9.22-.24,10.35,0l-3.7-.37c10.49-.55,23.31.23,33.45-1l-.77-.45c7.74-.82,6.2.49,14.7.11l-.31.11a23.88,23.88,0,0,1,6.3-.62c-2.15.52,4,1,1.22,1.6,8.4-.89,4.15-.7,9.7-2.36l1.28.74c1.89-.67,2.05-1,6.29-1.22-3.48.64,2.71,1.13-1.19,2,8.91,1.63,13.23-1.63,17.32.74,4.09-2-7.71-1.14-5.42-1.58-1.92-.67,3.37-1.54,6.17-1.33,2.85,0,4.84,2.63,12,2.59-.71,0-.76.14-1.47.13,2.68.53,5.25-.7,8.53.15,1.84-1.25,4.27.07,4.8-1.52l-6.57.37c3.73-.41,7.22-2.27,13.35-1.37a15.7,15.7,0,0,1-3.56,1c1.8.46,3.46-.31,5.32.17-.53,1.58-8,.34-12,1.55,1.92.67,7.54-1.15,5.54.57,2.88-2.19,7.05.27,11.9-1.39l-.32,1a18,18,0,0,1,3.77-.58l-2.56,1.23c3.93-1,7.57.92,11.33.35-7.88,0-1.77-1.14-5.1-1.84,9.72-1.27,5.59,2.49,16.48,2-1.48.13-5.54-.57-3.23-1a29.17,29.17,0,0,1,6.08,1.06c7.21-.2-1.11-1,2-1.56,2.46,1.16,3.54-.47,6.7-.84l0,1c8.22.62,2.18-2,9.58-1.26l-3.12,1.34,3.85-.35-.79,1.1c4.19-.81,5.5-.6,9.61-.3-.95-.68.54-1.75,4.18-1.78,2.48.58-1.39.92,3.77.78a4.84,4.84,0,0,1-4.69.47c-.23.32-1.15.61-1.39.92,2.68.66,6.72.15,8.59.14a10.53,10.53,0,0,1-2-.22l7.48-1.34c1.18.36.24.65-.68.94,1.51-.11,2.56-.55,4.79-.63-.58.78-.44,1.59-3.59,2l7.12-.87c.48.34,3.66.94,2.74,1.23,3.95.46,9.69-1.53,14.93-.92a5.47,5.47,0,0,1,1.93-.41c4.92.18,9.28,1.14,15.12.07l3.31,1.4c4.57-.32-4.49-1.77,3.12-2.3,5.39-.45,2,1.2,3.9,1.59,2.68-.71,7.34-2.15,12.29-1C441.7,124.46,440.42,124.25,438.89,124.36Zm56.35-.63c-1.09.21-3.27.83-4.07.26C492.42,122.89,493.38,123.42,495.24,123.73ZM475.51,85.84a6.22,6.22,0,0,1,3.48.21A12.93,12.93,0,0,1,475.51,85.84ZM236.86,92.56l.11,0C239.41,92.89,238.55,92.74,236.86,92.56Zm-5.06-.42c-.51.14-.47.27-.26.4a6.59,6.59,0,0,1,2.78-.19C234,92.1,233.31,91.93,231.8,92.14Zm49.62,23.35,1,.25C280.19,116,280.81,115.77,281.42,115.49Z"/><path class="cls-1" d="M485.22,84.52a.86.86,0,0,1,.47.53C486.12,84.88,486.13,84.7,485.22,84.52Z"/><path class="cls-1" d="M403.84,124.86h-.17a.44.44,0,0,0-.18.18Z"/><path class="cls-1" d="M310.15,84a7,7,0,0,1,2,.5C312.22,84.22,311.74,84,310.15,84Z"/><path class="cls-1" d="M205,93.78l3.24-.25a9.49,9.49,0,0,1-2.92-.32C205.39,93.44,206,93.77,205,93.78Z"/><path class="cls-1" d="M176.87,87.81c-.47.12-1,0-1.47.13l.13.45C177.55,88.36,179,88,176.87,87.81Z"/><path class="cls-1" d="M202,90.57c-.26-.81-2.29-.53-4.56-.38h.4C197.17,91.32,199.59,91,202,90.57Z"/><path class="cls-1" d="M196.91,90.22c-.7,0-1.41.06-2.1,0C194.55,90.69,195.66,90.33,196.91,90.22Z"/><path class="cls-1" d="M225.38,92.68c-1.07-.21-.67,1-1.28.71C222.9,94.42,231.28,92.14,225.38,92.68Z"/><polygon class="cls-1" points="200.16 87.9 200.97 88.9 202.24 88.09 200.16 87.9"/><path class="cls-1" d="M218.08,88.64l-3.63-.28c.06.17-.4.27-1,.34C215.72,88.73,218.16,88.93,218.08,88.64Z"/><path class="cls-1" d="M213.48,88.7a12.83,12.83,0,0,0-2.92.17C211.19,88.86,212.55,88.82,213.48,88.7Z"/><polygon class="cls-1" points="205.12 87.6 206.19 87.81 208.75 87.88 205.12 87.6"/><path class="cls-1" d="M257.06,88.83l4-.29c.4-.34-.67-.55-2.15-.41C257.92,88.36,256.46,88.5,257.06,88.83Z"/><path class="cls-1" d="M245.09,86.09a3.93,3.93,0,0,1,1.75.76L247,85.6Z"/><path class="cls-1" d="M256.64,85.8c.39-.35,5.74-1,.72-.92C257,85.23,253,85.51,256.64,85.8Z"/><polygon class="cls-1" points="316.27 87.37 315.27 87.38 315.41 89.42 316.27 87.37"/><path class="cls-1" d="M368.84,82.49c-4.69-.48-1.12,1.26-5.36.65-1.1.48,3.47.5,2.34.91C368.65,83.55,370.14,83.83,368.84,82.49Z"/><path class="cls-1" d="M365.82,84.05c-.46.08-.94.18-1.45.31A7.32,7.32,0,0,0,365.82,84.05Z"/><polygon class="cls-1" points="97.29 114.46 94.27 114.03 96.22 114.72 97.29 114.46"/><path class="cls-1" d="M91.5,116l-.71-1.3L89,115.85A6,6,0,0,1,91.5,116Z"/><path class="cls-1" d="M503.62,126.35l.23-.31c-.47-.34-1.17-.37-2.59-.42Z"/><polygon class="cls-1" points="462.72 125.38 463.42 125.4 462.11 124.23 462.72 125.38"/><path class="cls-1" d="M428.39,126.87c1.4,0,3.05-.21,4.45-.16C429.79,126.92,428,125.41,428.39,126.87Z"/><path class="cls-1" d="M590.18,589.09h-580V10.91h580Zm-579-1h578V11.91h-578Z"/><path class="cls-1" d="M592.11,585.89c0,3.41.39,2.19.46,2.7C592.48,582.88,592,586,592.11,585.89Z"/><polygon class="cls-1" points="591.16 529.53 591.33 530.53 590.91 522.22 591.16 529.53"/><path class="cls-1" d="M591.17,476.84c-.71,5,.12,19.09-.14,28.48l-.16,1.55.57,4.23C591.35,499.69,591,484.87,591.17,476.84Z"/><path class="cls-1" d="M592.71,448.74c-.27,1.73-.24-6.08-.08,6.55,0-.63,0-.82.07-1.19C592.7,453,592.71,451.4,592.71,448.74Z"/><path class="cls-1" d="M592.7,454.1c0,5.55.23-3.63,0,0Z"/><path class="cls-1" d="M592.54,428.47l.25,7.31c.16-1.52.2-8,.32-5.61C593,422.67,592.81,424.21,592.54,428.47Z"/><path class="cls-1" d="M592,421.54l.1,3.79A19.87,19.87,0,0,0,592,421.54Z"/><path class="cls-1" d="M592.34,433.36l-.22-8a8.41,8.41,0,0,0,.08,3.69C592,428.36,592.19,430,592.34,433.36Z"/><path class="cls-1" d="M592.23,437.91c-.15,4.1-.25,9.4-.5,2.06C591.83,454,592.33,451.9,592.23,437.91Z"/><path class="cls-1" d="M590.43,474.15l-.21,5.48.24,4.74C590.34,482,590.66,473.81,590.43,474.15Z"/><path class="cls-1" d="M592.91,382.93c-.15-.45-.41,2.46-.6,3l.17,5.4C592.59,388.56,592.68,383.3,592.91,382.93Z"/><path class="cls-1" d="M592.31,385.94l-.26-8.08C592,385.08,592.14,386.39,592.31,385.94Z"/><polygon class="cls-1" points="591.23 420.24 591.77 433.51 591.22 417.68 591.23 420.24"/><polygon class="cls-1" points="592.93 352.08 593.28 356.66 592.75 348.5 592.93 352.08"/><path class="cls-1" d="M592.87,331.61c.29,3.39.49-4.64.67-1.06,0-5.56-.31-10.31-.53-14.58C593.14,320.51,593.1,325.35,592.87,331.61Z"/><path class="cls-1" d="M592.68,308.79c.07,2.27.2,4.62.33,7.18C592.94,313.56,592.85,311.18,592.68,308.79Z"/><path class="cls-1" d="M592.12,364.1a41.39,41.39,0,0,0,.44-6.36l-.43,3.18C592.13,361.89,592.13,363,592.12,364.1Z"/><path class="cls-1" d="M592.12,361v-.11c0-3.45,0-5.84,0-6.87C592.15,354.93,592.14,357,592.12,361Z"/><path class="cls-1" d="M592.12,364.9v-.8A2.39,2.39,0,0,0,592.12,364.9Z"/><path class="cls-1" d="M591.61,399.06c-.24-4.75-.49-14.64-.86-5.07C591,397.4,591.25,391.92,591.61,399.06Z"/><path class="cls-1" d="M591.59,368.84l-.1,8.59c.11-.17.28-1.72.4.63Z"/><polygon class="cls-1" points="591.45 364.64 591.59 368.84 591.62 365.66 591.45 364.64"/><path class="cls-1" d="M592.28,323.49c-.18-3.71-.2-7.76-.23-12.34-.08,4.91-.13,10-.13,14.8C592.06,326.63,592.3,328.75,592.28,323.49Z"/><path class="cls-1" d="M592.16,341.73c0-.25,0-.58,0-.82C592.1,341.41,592.09,341.82,592.16,341.73Z"/><path class="cls-1" d="M592.05,266.06c0,.25,0,.46-.07.72,0,.06,0,.1.07.17Z"/><path class="cls-1" d="M591.84,326.78c-.08,3.69,0,5.89.16,8,0-2.76-.07-5.68-.08-8.82C591.86,325.65,591.82,325.59,591.84,326.78Z"/><path class="cls-1" d="M592.48,296.21c-.07,1.92-.15,4.1-.23,6.39C592.38,300.72,592.59,296.89,592.48,296.21Z"/><path class="cls-1" d="M592.26,339.66c0,.19,0,.36,0,.56C592.37,339,592.32,339.16,592.26,339.66Z"/><path class="cls-1" d="M592.26,339.66c-.06-1.89-.17-3.39-.26-4.89,0,2.25.08,4.33.14,6.14C592.17,340.45,592.22,340,592.26,339.66Z"/><path class="cls-1" d="M589.31,252.39c.4.66.76,10.36.34,18.73.3,8.24,1.6,2.85,2.33-4.34-.18-.26-.34-.26-.57-8.74-.22,3-.51,18.82-.86,11.67-.21-11.24.14-9.21.35-14.67-.5,4.64-.72-14.29-1.45-11.84l.26,9.85C589.59,253.23,589.41,249.66,589.31,252.39Z"/><path class="cls-1" d="M591.94,282.94l0,3.49c.06-4,.22-6.83.53-12.07-.19-5.81-.34-7-.47-7.41l0,17.18Z"/><path class="cls-1" d="M592,302.09c-.43-2.72-.62-11.1-1.08-6,0,10.24.36,7.18.54,13.3-.1-16.53.24,4.74.49-7.2.07,3.25.09,6.17.11,8.93.07-3,.14-5.85.2-8.55,0,.15,0,.26,0,.38V303c-.06.71-.09.95-.06.15,0-.06,0-.26,0-.35a3.38,3.38,0,0,1-.16-.75c.09-4.78.11-.75.16.75,0,.06,0,.19.07.2V303L592,286.43C591.93,289.93,591.94,294.32,592,302.09Z"/><path class="cls-1" d="M589.83,385.16c0-.51.06-.49.1-.53C589.87,383.56,589.84,383.16,589.83,385.16Z"/><path class="cls-1" d="M590.09,378.35a58.85,58.85,0,0,1,.18,6.12c-.13,3.4-.2,0-.34.16.11,2.36.3,8.26.51.86l-.05-1.17c.14-6.66.68-15.22.74-14.06A64.31,64.31,0,0,0,590.09,378.35Z"/><path class="cls-1" d="M590.93,339.75,590.71,326l-.37,7,.23-.35C590.48,340.47,590.75,338.77,590.93,339.75Z"/><polygon class="cls-1" points="592.27 264.48 592.72 266.31 592.08 258.35 592.27 264.48"/><polygon class="cls-1" points="592.21 246.57 592.61 247.23 592.37 242.5 592.21 246.57"/><path class="cls-1" d="M13.09,208.16l.11,4.05C13.17,210.29,13.13,209.06,13.09,208.16Z"/><path class="cls-1" d="M13.12,178.83l-.2-.72C13,179.47,13.11,180,13.12,178.83Z"/><path class="cls-1" d="M384.89,8.92c-5.9-.37-12.49-.94-11.78-.5l1.81.43C379,8.78,382.2,8.82,384.89,8.92Z"/><path class="cls-1" d="M83.58,11.51l1.73.13,4-.41Z"/><path class="cls-1" d="M79.42,13.3,71.64,13C73.39,13.12,75.89,13.22,79.42,13.3Z"/><path class="cls-1" d="M13.55,368.31,14,373C14,365.64,13.77,368.9,13.55,368.31Z"/><path class="cls-1" d="M592.05,63.1c.17-5.09.24-9.15.27-12.71C592.07,56.53,591.69,61.48,592.05,63.1Z"/><path class="cls-1" d="M8.48,196.62c.08,2.48.17,3.53.27,3.46C8.67,197.53,8.59,196.09,8.48,196.62Z"/><path class="cls-1" d="M592.31,35.69c0,.9-.06,1.78-.1,2.69.08,3.72.13,7.47.11,12C592.5,45.86,592.62,40.68,592.31,35.69Z"/><path class="cls-1" d="M371.26,586.12l1.32,0C372.71,586.11,372.12,586.11,371.26,586.12Z"/><path class="cls-1" d="M540.48,590.49l-7,0C534.78,590.56,536.88,590.55,540.48,590.49Z"/><path class="cls-1" d="M592.4,174.49c0,3.8.05.6,0,0Z"/><path class="cls-1" d="M590.69,193a4.7,4.7,0,0,0-.21-1.52A6.93,6.93,0,0,1,590.69,193Z"/><path class="cls-1" d="M576.12,11.47h-.33C576.92,11.56,576.72,11.54,576.12,11.47Z"/><path class="cls-1" d="M592.21,180.21c0-1.43.09-3.07.12-4.86C592.3,176.13,592.26,177.61,592.21,180.21Z"/><path class="cls-1" d="M592.41,179.44c0,1.31,0,2.34,0,3.32C592.44,183.24,592.49,182.81,592.41,179.44Z"/><path class="cls-1" d="M592.38,169.2c0,2.17,0,4.2,0,6.15,0-.75.06-1.06.07-.86C592.4,173.38,592.39,171.8,592.38,169.2Z"/><path class="cls-1" d="M60.05,587.28l.82,0C64.7,587.14,63,587.17,60.05,587.28Z"/><path class="cls-1" d="M286,13.42l.44,0h-.56Z"/><path class="cls-1" d="M272.36,13.75a97.46,97.46,0,0,1,13.52-.36l-4.52-1.25Z"/><path class="cls-1" d="M13.21,278.37l.39-9.58c.65,11.56.42,19.93,1,10.94-1.36-1.36-.14-37.25-1.49-38.59l.28-6.31c0,1.81.07,2.1.06,3.89.65-12.29-1-9.13-.79-25,.1-5.52.3-9.37.46-5.6l-.34-12.3c0-3.57.27-2.7.24.86L12.88,178l0,.14c-.21-2.67-.54-8.73-.68-11.69.19-4.77.14,2.39.31,1.17l-.33-10.38c.35-4.23.7,4.37.65,11.54,1.35-9.69-.35-8.61.45-29.54l.17,9.81c.77-6.32.49-14,1-25.06-.25,2.63-1.21,22.19-1.55,10.93.1-3.18.15-7.36-.12-13.44.48-.06.36-6,.34-13.42l.64.51c-.19-8-.51-7.4-.8-12.12.06-9,.56-10.81,1-12.91.11-14.33-.79,9.89-.91-7.07.24-11.91,0-20.28-.4-34.54.22-8.34.39,1.46.57-1.53L12.69,33c0-1.81.17-1.22.25-.93-.2-6.23-.64-.51-.81-10.31A17.87,17.87,0,0,1,12,18.07c0-.87.06-1.86.09-3,0-.69.09-1.44.14-2.24L13.8,13l.81,0,1.36.05c1.83.06,3.72.11,5.62.15,3.8.06,7.63,0,11-.19,3,.18-1.44.39-.53.64,16.63-.52,14.26-.38,27.92-1.09L71.64,13c-8.55-.48,2.38-1,11.94-1.51-3-.23-5.62-.44-7.36-.53l15.27-.35c1.84.11.3.33-2.2.6l2.8-.16c5.46.24,2.63.61-1.28,1l-5.5-.39c-3.77.39-7.3.82-6.52,1.19,1-.07,2.91-.13,5-.17-1,.11-1.62.2-1.16.26s2.11-.07,4.61-.23l3.47.71.84-.28,20,.44c14.3-.71,26.73-1.77,49.41-2.07-5.63.53-1.21.86-1.52,1.48-6.18-.66-17.56.28-29.32.14,6.14.07,4.79.37,3.23.47l21-.6c-.47.51,4.45.38,9.93.59-4.14-1,15.63-.66,24.16-1,.53.34-1.51.68-11.92.6,11.48.75,14.84-1.18,26.11-.54a38.17,38.17,0,0,0-4.92.13c5.94-.3,20.45-.06,17,.23h-2.54c16.87.12,51.36,0,53.88-.85a10.45,10.45,0,0,1-3.23,1.2l30.1-2.86c-2.65.73,7.53,2.47-6.46,2.88,4,.11,9,.23,17.46,0-2.75-.1-6.84-1.06-3.09-1.12,10.28.81,7.14.43,19.81,1.13-4.11-.16.45-1.31,6.94-1.27-1,.17.54,1.13-1.83,1.25l16.16-1.12c-4,.2-.71.95,2.9,1.27-1.68-.22,14,0,18.28-.09l-6.85-.26c18.24.16,18-1.59,36.12-1.53-2.19.23-5.41,1.43,3.79,1.57A311.81,311.81,0,0,1,430.82,10l3.07.33,12.29-.38c-7.65.87-29.12,2.69-40.85,3.4,6.83.26,1.91.39,12.13.36,3.61.31-5.57.47-8.58.49l23.8.2c-1.06-.67,18.21-.68,17.3-1.24l-25.86.7c-1-.67,14.95-1.91,31.82-1.79,4.29.27-3.21,1.2-2.86,1.42,2.19-.23,16-.44,17.56-.28l-7.16.36c9.39.26,15.33-.89,26.61-.25,3.89,0,11.63.87,12.3.47C496,13,494.8,10.64,499,10.07c1.37,0,20.45.73,24.89,1.11,6.42.6-9.62,1.43-4.16,2a39.84,39.84,0,0,1,5.25-.49c4.09.16-1.69.57,7.19.49,1.49-.68,18.08.06,4.21-.58,8.69-.19,9.23.14,19.44.11-3.25-.44,9.17-1.49,17.88-1.69-.52.17,1.44.4,2.39.5l13.39.1c-.06,5.1-.12,9.69-.18,14.48s-.09,9.87-.09,15.8c-.17,1.53-.37,9.55-.66,6.13.12,2.39.35,4.59.37,9.71-.59,9.92-.09-11.42-.8-3.86.39.64.54,13.25.79,20.55.61-2.25.12-16.86-.13-24.17.85,0,1.73,12.69,2.12,30.05.21,13.81-.55,6-.43,8.38-.14,25.93,1.48,22.09.87,43.62-.54,8.54-1.07.39-1.46,2.28-.2-11.24.34-17.26.32-24.88L590,119c-.18-3.58-.32-11.08-.16-15.17-.49,7.16-.09,43.8-.54,63.8.18,3.55.37,9.69.58,6.79l-.07-6.33c.43-5.82.6,11.91.8,3.9.3,8.49.78,18,.54,30l-.62,2.24a94.82,94.82,0,0,0,.18-11.17c.27,5-.83,18.33,0,23.78l.42-8.37c.31,8.52,1,19.06.77,29.65.6-4.82-.07-2.44.64-10-.89,6.53,0-27.1-.89-16.61.82-7.73.35-13.37,1-23.47-.21.32-.39,3.58-.29-5.31-.06-.4-.14-1.35-.18-1.95l0-.6c0,.17,0,.31,0,.49,0-.39,0-.42,0,.18-.08,2.12-.19,3.83-.3,4.53-.47-4.41-.45-18.55-.69-23.34.09-5.27.23,2.21.44-.67l-.36-7.14c.45-.71.75-14,1-1.59l0-11.19c.26-6.58.36-15.64.17-21.23.09-5.28-.5-13.33-.15-8.73L592,94l.12-.16c.05-17.31-.75-35.64.06-55.43-.11-5.83-.25-11.85-.12-21.6l.19-1,.1-.48c0-.14.06-.5.1-.75,0-1.77,0-3.77,0-6l-9.19-.05-6.61-.09c-4.22,0-7.8,0-9.19.14-8.07-1.05-36.31-.23-49.47-.42l-.5.51c-9.06,0-17.74.12-29,.32l.69.45c-9.69.37-24.92-.32-40.26-.27a66.94,66.94,0,0,1,7.69,0c-18.32-1-38.65.74-55.27,0-4.14.16-7.14.11-10,0,.39,0,.73,0,1,0h-1.7l-5.75-.24c1.73.11,3.39.2,4.83.24-3.19,0-8,.06-12.78.18l-2-.49-1.1,0c-4.66-.18-3.74.23-1.26.59-2.39.08-4.58.17-6.28.29-3.78-.78-12.45.26-17.61-.57-3.2.41-23.87.31-26.4,1.16-.16-.11-1.56-.17,1-.17-5.29-.1-10.58-.2-15.32,0L305.7,9.6l-11.55.82c-7-.37-9.93-.59-3-1.06-16.84.73-13.66.27-28,1l.7-.39c-5.11,0-13.29.54-16.38.22-11.44-.76-56.63-.11-86-.81,5.7,1.17-13.66-.52-14.82.38-1.71-.27-5.81-.43-1-.67-15,.27-22.53-.44-32.88.33-1.71-.28,3.21-.41,1.68-.57a56.85,56.85,0,0,1-6.32.07c-1.53-.16,2.2-.23,4.57-.35-15.32,0-16.87.9-18,1.7a106.5,106.5,0,0,0-17.24.19c-2.7-.26-7.21-.53,2.31-.62-5.36,0-32.71-.39-33.25.25-1.68-.16-7.49,0-8.9,0l-12.51,0h-13l3.9.11c-.42.07-.84.13-1.26.17s-1,.09-1.56.12c-1.07.06-2.17.09-3.35.1,0,1.08,0,2.21,0,3.42s0,2.21-.06,3.44c-.05,2.28-.09,4.9-.06,8l-.08-.27c-.56,21.81.27,9.42-.37,30.93l.48-1.17c1,2-.61,19.06-.21,31.55l.27-4.51c.35,6.82-1.4,19.06-1.53,25.91-.09,1.49-.14-2.36-.21-4.44-.61,17.93.63,2.32.77,15.68-.34,2.47-.86-3.17-.92,5.82-.28,4.48,1.1,26.08.45,38.35.26-2.7.52-5.39.72.82.09,9.51-1,25.71-.17,34.3a6.08,6.08,0,0,1-.2,1.72c.21,7.27.35,23.63.8,28-1.66,6.72.8,45.2-.72,45l.08,22.37-.16-.59c-.1,14.3.27,19.35.63,24.38-.1,3.3-.24.89-.32.62-.31,20.89-.25,23,.51,40.48l-.49,1.82c.29,4.75-.78,30.2-.2,50.69a10.45,10.45,0,0,1-.22-2.26c.58,23.05-1.38,55.19.43,63.63l.44,15.22c.14-19.68.79,2.93,1.09-5.17.1,7.74-.55,20-.64,10.5l.09-1.49c-.94-3.49-.33,24.45-1,23.93q0,18.16-.09,36-.11,18.83-.23,37.25l43.35.19L47.94,590l12.65,0c3.32.17,4.46.57-4.57.54a82.16,82.16,0,0,0,9.39,0c3.22-.16,5.88-.39,6-.47,17.67.3-6.9.85-1.48.87l7.36-.05-1.66-.09c6-.3,6.49-.61,17.34-.58,6.87.15,3.52.45,6.23.48,0,0,.21,0,.84,0s1.68,0,3.3,0l15.94.06-6.37-.57c7.06-.29,15,0,7.63-.63,10.8,1,59.46.37,66.09.68,9.9-.42,19.67-.42,31.77-.36-3-.12-4.81-.77,5.63-.69-3.82,1.34,19.11.58,27.54,1.54-7.54-.64,29.67-.16,17.84-1.06,8.71.1.53.5,7.14.81,20.73-.52,45.68.34,71.3.16.4-.17-3.89-.44,1.6-.7l13.53.88c5.06-.09,4.66-1,13.9-.41-1.3-.15-3.25-.37.14-.42,50.19.85,102.56-.71,153.53.9-6.9-.34-2.3-.37,3-.38-3.43-.08.08-.44-.59-.68l21.33.67c3.89-.67,22.88,0,25.11-.68l-6.76.11c9-.74-12.57-1.66-11.26-2.61-10.06.84-26.53-1.26-43-.05-3.64-.19,3.11-.31,1.16-.53a161,161,0,0,1-18.6.31l1.06-.1c-26.32.1-37.6-.3-67.16-.57l2.19.47c-6.35-.06-7.69-.21-10.66-.33-7.29.72,17.84,0,11.2.83-8.43-1-44.79,0-50.49-1.11-9.77,0,2.87.55-6.9.55l-2.59-.3-2.47.38c-6.41-.06-9.64-.43-9.88-.68,1.55,0,4.42-.07,6.08-.09-8.3-.35-23.42.11-26.27,0l9.39.18c-26.67.28-59.23-.11-85,.49l2,.23c-19.67.41-15.76-.25-37.36-.06l.79-.05c-4.33.22-10.1.34-16,.31,5.45-.26-10.26-.51-3.11-.8-21.33.45-10.55.35-24.64,1.18l-3.25-.37c-4.8.34-5.21.51-16,.61,8.84-.32-6.89-.57,3-1-22.63-.81-33.61.82-44-.36-10.39,1,19.59.57,13.77.79,4.87.33-8.58.76-15.69.66s-12.29-1.31-30.48-1.29c1.81,0,1.93-.08,3.73-.07-6.8-.26-13.34.35-21.69-.07-4.68.62-10.84,0-12.19.75l16.69-.18c-9.46.21-18.33,1.13-33.92.68,1.22-.16,5.86-.37,9-.48-4.56-.24-8.77.15-13.5-.09,1.35-.79,20.28-.17,30.42-.77-4.89-.34-19.18.57-14.08-.29-7.32,1.09-17.93-.14-30.25.7l.82-.48c-1.95.08-6,.3-9.58.29l6.5-.62c-3.39.18-6.7.19-10,.12L15.55,586l-.61,0H14.5l-.38,0-.69-.07.05-.69,0-.32V584c0-1.52,0-3,0-4.58,0,2.28,0,4.06,0,5.44,0,.44,0,.78-.07,1,.66.09.45.23.15.39s-.63.32,1,.45l-2.11.08c0-.68,0-1.29,0-1.86v-2.65c0-1.73.05-3.15.1-4.38.1-2.45.27-4.14.44-6,.35-3.77.71-8.32.6-21.37.07,3.74-.28,14.06-.5,8.2.09-5.27.28-12.22.52-15.45-.09-18.33-.48,2.81-.77-5,.57-6.24-.24-9-.43-17l.49-.06c.31-20.88-1-5.53-.63-24.33l.66,7.94-.17-9.8.55,2c-.41-10.66-.3-14-.15-24.43-.34,2.43-.87-1.36-.89-10.61.29-6.31.46,3.53.39-9.58a57.88,57.88,0,0,1,.24,11.91c.16.58.3,2.92.46,3.52.33-6.8.07-17.07.07-21.82,0,1.83-.05,4-.12,5.13l-.66-19c.18-3,.32-.61.46,1.74-.05-3.85-.27-6.52-.31-12.18.39,1.47.8,1.12,1,9.13l-.43-18.11c.17-1.21.46-9.29.61-6.94.23-10-.76-24.63-.46-37.94-.07-.69-.15-2.08-.2-4.91.09-12.51.57-23.59,0-38.42l.7-8.41c-.16-11.61-.88,11.39-1.15-7.95-.22-13.68.6-5.11.8-9.91a311.4,311.4,0,0,1-.51-31.22C13.27,271.22,13.16,274.48,13.21,278.37ZM12.9,135.16c.1,2.77.42,8.31.13,10.34C12.48,142.33,12.74,139.89,12.9,135.16ZM104.67,12.44a77.8,77.8,0,0,1-8.86-.11C98.42,12.29,101.38,12.31,104.67,12.44ZM592,132.85c0-.12,0-.2,0-.3C592.18,126.36,592.1,128.56,592,132.85Zm-.21,12.85c.07,1.29.14,1.2.2.66-.12-.9-.13-3.79-.09-7.07A41.74,41.74,0,0,0,591.8,145.7ZM100.63,590.52l-2.5-.12C103.78,590.26,102.2,590.38,100.63,590.52Z"/><path class="cls-1" d="M80,13.1a3.36,3.36,0,0,1-1.19-.27C77.7,12.91,77.68,13,80,13.1Z"/><path class="cls-1" d="M13.47,367.44v.43a1.83,1.83,0,0,0,.09.44Z"/><path class="cls-1" d="M524.86,13.38c-2.64-.07-4.12-.16-5.1-.25C519.61,13.25,520.82,13.35,524.86,13.38Z"/><path class="cls-1" d="M592.62,213.81l-.12-8.23c0,4-.09,5.4-.16,7.41C592.45,212.81,592.61,211.24,592.62,213.81Z"/><path class="cls-1" d="M589.64,285.28c.05,1.2,0,2.55.06,3.74l.23-.33C589.91,283.56,589.73,280,589.64,285.28Z"/><path class="cls-1" d="M591,221.44c-.41.65-.27,5.81-.19,11.58v-1C591.39,233.7,591.21,227.56,591,221.44Z"/><path class="cls-1" d="M590.84,234.36c0,1.78,0,3.59,0,5.33C591.08,240.37,590.9,237.53,590.84,234.36Z"/><path class="cls-1" d="M592.07,162c-.1,2.74.52,1.72.35,3.27C592.94,168.32,591.8,147,592.07,162Z"/><polygon class="cls-1" points="589.68 226.11 590.18 224.04 589.78 220.81 589.68 226.11"/><path class="cls-1" d="M590.05,180.57l-.14,9.21a10.68,10.68,0,0,1,.17,2.47C590.1,186.57,590.2,180.35,590.05,180.57Z"/><path class="cls-1" d="M590.08,192.25c0,3,0,5.77.08,7.42C590.16,198.07,590.14,194.63,590.08,192.25Z"/><polygon class="cls-1" points="589.53 213.51 589.63 210.78 589.67 204.28 589.53 213.51"/><path class="cls-1" d="M590.15,81.5,590,71.44c-.17-1-.27,1.72-.21,5.46C589.91,79.31,590,83,590.15,81.5Z"/><path class="cls-1" d="M588.77,111.92a42.32,42.32,0,0,1,.38-4.44l-.62-.3Z"/><path class="cls-1" d="M588.63,82.59c-.17-1-.5-14.6-.46-1.85C588.34,81.76,588.49,91.83,588.63,82.59Z"/><polygon class="cls-1" points="509.31 11.67 511.87 11.67 511.5 10.65 509.31 11.67"/><path class="cls-1" d="M375.74,14.11c11.92.24,2.83-.63,13.6-.32,2.8-.24-8.8-.25-5.93-.46C376.21,13.58,372.43,13.44,375.74,14.11Z"/><path class="cls-1" d="M383.41,13.33l3.67-.15C385,13.24,384,13.29,383.41,13.33Z"/><polygon class="cls-1" points="568.56 591.04 576.22 591.25 571.27 590.91 568.56 591.04"/><path class="cls-1" d="M583.27,590.28l1.81.65,4.6-.58C588,590.38,584.59,590.43,583.27,590.28Z"/><path class="cls-1" d="M14.21,113.87l-.16-.59a59.93,59.93,0,0,0-.2,6.58Z"/><polygon class="cls-1" points="13.72 217.81 13.74 216.02 13.15 219.37 13.72 217.81"/><path class="cls-1" d="M14.47,305.05c0-3.56-.05-7.75-.08-11.32C14.5,301.49,13.74,306,14.47,305.05Z"/><path class="cls-1" d="M388,473.24a5.2,5.2,0,0,1,.44-2.22,5.58,5.58,0,0,1,1.21-1.65,12.24,12.24,0,0,1,1.74-1.37q1-.64,2-1.29a41.39,41.39,0,0,1,4-2.26,10.16,10.16,0,0,1,4.48-.89c1.13,0,2.12,0,3,0a4.67,4.67,0,0,1,2.66,1.09,4.93,4.93,0,0,1,1.57,1.94,6.55,6.55,0,0,1,.45,2.58,5.56,5.56,0,0,1-.29,1.69,5.39,5.39,0,0,1-.8,1.61,4,4,0,0,1-1.29,1.17,3.19,3.19,0,0,1-1.65.44,2.1,2.1,0,0,1-1.42-.44,8.46,8.46,0,0,1-1-.93,10.62,10.62,0,0,0-1-.92,2,2,0,0,0-1.33-.45,12.18,12.18,0,0,0-2.14.2,6.86,6.86,0,0,0-2,.69,4.45,4.45,0,0,0-1.45,1.21,2.78,2.78,0,0,0-.57,1.77,1.48,1.48,0,0,0,.65,1.37,4.35,4.35,0,0,0,1.57.57l2,.32a5.77,5.77,0,0,1,1.94.65q2.18,1.13,3.75,2c1.05.59,2.24,1.35,3.59,2.26.48.27.91.5,1.29.68s.73.37,1.08.53.72.35,1.09.56a10.87,10.87,0,0,1,1.29.89,20.73,20.73,0,0,1,3.75,3.75,8.08,8.08,0,0,1,1.41,5v1.85a4.27,4.27,0,0,0,.33,1.73,4.81,4.81,0,0,1,.32,1.82,4.9,4.9,0,0,1-.69,2.74,21.39,21.39,0,0,0-1.33,2.42,1.83,1.83,0,0,0,0,1.09.92.92,0,0,1-.24.93,2,2,0,0,1-1.05,1.37,3.77,3.77,0,0,0-1.37,1.12c-.48.43-.94.81-1.37,1.13s-.86.63-1.29.93-.87.58-1.33.85-1,.56-1.65.88a13.26,13.26,0,0,1-2.74,1.25c-.81.24-1.75.5-2.82.77a2.45,2.45,0,0,0-1,.52,1.48,1.48,0,0,1-1.05.37,4.18,4.18,0,0,1-1.13-.12,2.77,2.77,0,0,0-.89-.13,5.6,5.6,0,0,0-1.89.25,5.34,5.34,0,0,1-1.73.24,1.64,1.64,0,0,1-1-.28,2.71,2.71,0,0,0-1-.45,4,4,0,0,0-1.57-.28,6.48,6.48,0,0,1-1.58-.12,2.05,2.05,0,0,1-1.45-.53,9.41,9.41,0,0,0-1.45-1.08,6.7,6.7,0,0,0-1.69-.69,3.77,3.77,0,0,1-1.69-1.09,1.61,1.61,0,0,1-1-1.25,4.46,4.46,0,0,0-.57-1.65,23,23,0,0,0-1.12-2.14,4.46,4.46,0,0,1-.49-2.37,5.51,5.51,0,0,1,1.78-4.08,5.9,5.9,0,0,1,4.27-1.73,6.35,6.35,0,0,1,2.9.69,2.19,2.19,0,0,1,1.37,2.05,1.72,1.72,0,0,1-.12.73,1.25,1.25,0,0,0-.12.56,1.47,1.47,0,0,0,.24.89,1.18,1.18,0,0,1,.24.72,1.25,1.25,0,0,1-.12.45,1.21,1.21,0,0,0-.12.44,3.31,3.31,0,0,0,.65,2.06,5.82,5.82,0,0,0,1.65,1.45,7.71,7.71,0,0,0,2.3.89,12.58,12.58,0,0,0,2.58.28,9.44,9.44,0,0,0,4.71-1.21,13.77,13.77,0,0,0,3.83-3.23,11.89,11.89,0,0,0,1.62-2.17,5.67,5.67,0,0,0,.64-2.83,3.61,3.61,0,0,0-.48-1.81,3.47,3.47,0,0,1-.49-1.73q0-.41.12-.45c.09,0,.13-.09.13-.2a3.24,3.24,0,0,0-.69-2.13,6.86,6.86,0,0,0-1.73-1.5,21.49,21.49,0,0,0-2.3-1.21c-.83-.37-1.65-.77-2.46-1.21a1.1,1.1,0,0,1-.52-.56,1.11,1.11,0,0,0-.61-.56,4.07,4.07,0,0,0-1.61-.45,2.41,2.41,0,0,1-1.53-.68,2.44,2.44,0,0,1-.89-.85,3.28,3.28,0,0,0-.89-.93,4.52,4.52,0,0,0-1.57-.44,3.11,3.11,0,0,1-1.57-.68c-.32-.38-.61-.7-.85-1a4.65,4.65,0,0,1-.68-1.05,4.83,4.83,0,0,0-1.58-1.29,1.75,1.75,0,0,1-.92-1.69v-2a6.45,6.45,0,0,0-.08-1,5.74,5.74,0,0,1-.08-1,1.32,1.32,0,0,1,.08-.52,1.49,1.49,0,0,0,.08-.52,1.78,1.78,0,0,1,.12-.69A1.21,1.21,0,0,0,388,473.24Z"/><path class="cls-1" d="M444.91,494.52a3.68,3.68,0,0,0,1.77-.48,2.75,2.75,0,0,1,2.26,0,7.76,7.76,0,0,1,1.61-.89,5.63,5.63,0,0,1,2.66-.24,3.78,3.78,0,0,0-.16.48,5.73,5.73,0,0,0-.08,1.13,3.18,3.18,0,0,1-.24.89,9.9,9.9,0,0,1-.68,1.41,11.33,11.33,0,0,1-1.13,1.57,6,6,0,0,1-1.5,1.29h-4l-1,0-1.58.12a10.2,10.2,0,0,0-1.61.29,4.57,4.57,0,0,0-1.17.44,4.39,4.39,0,0,1-2.26.44,8.77,8.77,0,0,0-2.9.45,9.17,9.17,0,0,0-2.34.4,4.8,4.8,0,0,1-2.17.24,4.17,4.17,0,0,1-2.3.52c-.89,0-1.9,0-3,0l-1.13-.25a4.72,4.72,0,0,1,.08-.76,9.2,9.2,0,0,1,.24-1.13,7.14,7.14,0,0,1,.4-1.13,1.91,1.91,0,0,1,.57-.77q2.58-.89,5.2-1.65t5.12-1.25a4.08,4.08,0,0,1,2.21-.24,8.08,8.08,0,0,0,2.95-.24Zm6.53-11.45a6.31,6.31,0,0,0,1.13-.08c.32-.05.62-.1.89-.16a3.57,3.57,0,0,1,.88,0,4.41,4.41,0,0,1,1.13.28,7.56,7.56,0,0,0,1.09,1.17,1,1,0,0,1,.44,1.09,1.78,1.78,0,0,1-.4.81c-.27.37-.56.78-.89,1.21s-.64.88-1,1.37a4.58,4.58,0,0,0-.65,1.29c-1.13,0-2.26,0-3.39,0s-2.52.09-4.19.2c-1.13.16-2.36.32-3.71.48s-2.68.34-4,.53-2.61.39-3.79.6-2.2.43-3.06.65a1.11,1.11,0,0,0-1,.24.54.54,0,0,0-.16.4c-1.13.11-2.08.19-2.86.24a9.07,9.07,0,0,0-2.94.89.61.61,0,0,0-.25-.76.7.7,0,0,1-.24-.85,2.5,2.5,0,0,1,.24-.81,10.51,10.51,0,0,1,.65-1.21c.27-.43.58-.87.93-1.33a5.11,5.11,0,0,1,1.09-1.09,6.09,6.09,0,0,1,1.85-.6q1.13-.19,2.34-.36c.8-.11,1.58-.25,2.33-.41a5.19,5.19,0,0,0,2-.88,5,5,0,0,0,1.61,0c.38-.08,1-.18,1.78-.29l.8-.32a7.64,7.64,0,0,0,1.62-.8c0-.16.26-.29.8-.37a18.23,18.23,0,0,1,1.86-.16c.69,0,1.35,0,2,0a6.33,6.33,0,0,1,1.17.12c.7-.32,1.32-.59,1.85-.8A5.37,5.37,0,0,1,451.44,483.07Z"/><path class="cls-1" d="M491,467a24.76,24.76,0,0,1,8.14,1.37,22.94,22.94,0,0,1,7.06,3.91,18.93,18.93,0,0,1,4.95,6.21,17.8,17.8,0,0,1,1.86,8.18l-.65,3.87v5.32a3.71,3.71,0,0,1-.48,1.53,3.87,3.87,0,0,0-.48,1.62c-.33.7-.62,1.4-.89,2.09s-.57,1.23-.89,1.9a12,12,0,0,1-1.13,1.89,6.07,6.07,0,0,1-1.09,1.45,12.87,12.87,0,0,1-1.77,1.54A13.19,13.19,0,0,1,503.6,509a4.8,4.8,0,0,1-2,.48h-1.53a6.81,6.81,0,0,0-1.78.24c-.59.16-1.17.34-1.73.53s-1.06.36-1.49.52a3.18,3.18,0,0,1-.89.24H492a7.05,7.05,0,0,0-2.38.36,5.13,5.13,0,0,1-1.74.37h-11.2c-.33.16-.62.32-.89.48a3.42,3.42,0,0,1-1.53.4l-2.26-.88h-2.26l-2.17.88a3.3,3.3,0,0,1-1.5-.52,7.1,7.1,0,0,1-1.49-1.09c-.21,0-.54,0-1,0a5.13,5.13,0,0,1-1.25-.24,3,3,0,0,1-1.09-.65,1.58,1.58,0,0,1-.49-1.25,1.7,1.7,0,0,1,.57-1.21,5.7,5.7,0,0,1,1.29-1c.59-.32,1.23-.65,1.93-1h2.26l3.79-.89c.43.16.83.33,1.21.49a5.08,5.08,0,0,0,1.77.4,1.53,1.53,0,0,0,1.25-.52,3.31,3.31,0,0,0,.65-1.25,7.45,7.45,0,0,0,.24-1.5c0-.51,0-.92,0-1.25V496.3a2.53,2.53,0,0,0-.32-1q-.17-.31-.33-.57v-5a5.27,5.27,0,0,1,.33-1.62,7,7,0,0,0,.32-2.17V479a8.2,8.2,0,0,0-.73-3.66q-.72-1.5-3.06-1.5a2.39,2.39,0,0,0-.81.12l-.6.25a4.85,4.85,0,0,1-.61.2,4,4,0,0,1-.88.08l-2.26-.65h-1.53a2.82,2.82,0,0,1-1.41-.52c-.57-.35-.85-.69-.85-1a2.53,2.53,0,0,1,1.33-2.1,14.4,14.4,0,0,1,3-1.49,19.6,19.6,0,0,1,3.31-.88,15.61,15.61,0,0,1,2.18-.29h1.37a1.91,1.91,0,0,1,1.21.45,1.94,1.94,0,0,0,1.21.44,8.58,8.58,0,0,0,1.21-.4c.32-.11.65-.22,1-.32a3.17,3.17,0,0,1,.93-.17h4.51c1.08-.1,2.07-.21,3-.32q1.13-.16,2.22-.24C490.26,467,490.76,467,491,467Zm-3.79,7.82a3.27,3.27,0,0,0-1,.32,8.24,8.24,0,0,0-1.49.89,10.11,10.11,0,0,0-1.37,1.21,1.82,1.82,0,0,0-.61,1.21,2.81,2.81,0,0,1,.33.4,2,2,0,0,1,.32,1.13v20.4a4,4,0,0,1,.4,1.37c.06.48.12.94.2,1.37a2.92,2.92,0,0,0,.45,1.13,1.7,1.7,0,0,0,1.21.64h.88a6.23,6.23,0,0,0,.85-.08l1.29-.16,1.33-.16a9.44,9.44,0,0,1,1-.08,11.28,11.28,0,0,0,5.84-1.57,13.09,13.09,0,0,0,3.91-3.75A16.56,16.56,0,0,0,503,494.2a21.18,21.18,0,0,0,.81-4.84,11.69,11.69,0,0,0-.81-4.27,25.35,25.35,0,0,0-2.18-4.64,13.35,13.35,0,0,0-2.66-3.3c-.91-.78-1.64-.9-2.17-.36-.33-.22-.62-.43-.89-.65l-.77-.48a1.2,1.2,0,0,0-.6-.25H493Z"/></svg>