<svg id="Laag_1" data-name="Laag 1" xmlns="http://www.w3.org/2000/svg" viewBox="0 0 600 600"><defs><style>.cls-1{fill:#1d1d1b;}</style></defs><title>Rebus 3 Een</title><rect class="cls-1" x="299" y="87.52" width="2" height="424.96"/><rect class="cls-1" x="87.52" y="299" width="424.96" height="2"/><path class="cls-1" d="M304.87,512c-.07.63.76.41.91.5C305.6,511.43,304.65,512,304.87,512Z"/><polygon class="cls-1" points="302.97 501.63 303.31 501.81 302.47 500.28 302.97 501.63"/><path class="cls-1" d="M303,491.94c-1.43.92.23,3.51-.27,5.24l-.33.28,1.15.78C303.35,496.14,302.58,493.42,303,491.94Z"/><path class="cls-1" d="M306.07,486.78c-.56.32-.48-1.12-.17,1.2a1.21,1.21,0,0,1,.14-.22A7.39,7.39,0,0,1,306.07,486.78Z"/><path class="cls-1" d="M306,487.76c0,1,.46-.66,0,0Z"/><path class="cls-1" d="M305.72,483.05l.49,1.35c.33-.28.41-1.48.65-1C306.58,482,306.26,482.27,305.72,483.05Z"/><path class="cls-1" d="M304.68,481.78l.21.7C305,482.35,305.07,482.17,304.68,481.78Z"/><path class="cls-1" d="M305.33,484l-.44-1.47c-.23.19-.7.21.16.67C304.62,483,305,483.32,305.33,484Z"/><path class="cls-1" d="M305.11,484.79c-.31.75-.5,1.72-1,.38C304.31,487.74,305.31,487.36,305.11,484.79Z"/><path class="cls-1" d="M301.51,491.45l-.42,1,.48.88C301.33,492.89,302,491.38,301.51,491.45Z"/><path class="cls-1" d="M306.46,474.68c-.31-.08-.81.46-1.2.56l.35,1C305.82,475.72,306,474.75,306.46,474.68Z"/><path class="cls-1" d="M305.26,475.24l-.52-1.49C304.68,475.08,304.92,475.32,305.26,475.24Z"/><polygon class="cls-1" points="303.09 481.54 304.19 483.98 303.08 481.07 303.09 481.54"/><polygon class="cls-1" points="306.5 469.01 307.2 469.86 306.14 468.36 306.5 469.01"/><path class="cls-1" d="M306.37,465.25c.59.62,1-.85,1.35-.19a6.86,6.86,0,0,0-1.06-2.68A4.09,4.09,0,0,1,306.37,465.25Z"/><path class="cls-1" d="M306,461.06a8.88,8.88,0,0,0,.65,1.32A4.15,4.15,0,0,0,306,461.06Z"/><path class="cls-1" d="M304.89,471.22a1.65,1.65,0,0,0,.87-1.17l-.86.59C304.9,470.82,304.89,471,304.89,471.22Z"/><path class="cls-1" d="M304.87,470.66l0,0c0-.64,0-1.08.05-1.26C304.94,469.54,304.92,469.92,304.87,470.66Z"/><path class="cls-1" d="M304.88,471.37a.81.81,0,0,0,0-.15C304.8,471.28,304.78,471.31,304.88,471.37Z"/><path class="cls-1" d="M303.87,477.65c-.48-.88-1-2.69-1.72-.93C302.73,477.34,303.15,476.33,303.87,477.65Z"/><path class="cls-1" d="M303.82,472.09l-.2,1.58c.23,0,.56-.31.79.12Z"/><polygon class="cls-1" points="303.55 471.32 303.82 472.09 303.89 471.51 303.55 471.32"/><path class="cls-1" d="M305.21,463.76a5.24,5.24,0,0,1-.46-2.27,14.9,14.9,0,0,0-.26,2.72C304.76,464.34,305.24,464.73,305.21,463.76Z"/><path class="cls-1" d="M305,467.11c0-.05,0-.11-.05-.15S304.83,467.13,305,467.11Z"/><path class="cls-1" d="M304.75,453.2l-.15.14.14,0Z"/><path class="cls-1" d="M304.33,464.36a1.61,1.61,0,0,0,.31,1.47,10.14,10.14,0,0,1-.15-1.62C304.37,464.16,304.29,464.14,304.33,464.36Z"/><path class="cls-1" d="M305.61,458.75a8.39,8.39,0,0,0-.47,1.17C305.41,459.57,305.83,458.87,305.61,458.75Z"/><path class="cls-1" d="M305.16,466.73a1,1,0,0,0,0,.1C305.38,466.61,305.29,466.64,305.16,466.73Z"/><path class="cls-1" d="M305.16,466.73a4.16,4.16,0,0,0-.52-.9,5.84,5.84,0,0,0,.28,1.13A1.05,1.05,0,0,1,305.16,466.73Z"/><path class="cls-1" d="M299.26,450.69c.8.12,1.53,1.91.68,3.44.59,1.52,3.2.53,4.66-.79-.35,0-.67,0-1.14-1.61-.43.55-1,3.46-1.73,2.14-.4-2.06.28-1.69.7-2.69-1,.85-1.43-2.63-2.88-2.18l.51,1.81C299.83,450.85,299.47,450.19,299.26,450.69Z"/><path class="cls-1" d="M304.51,456.31l.1.64a6.1,6.1,0,0,1,1.08-2.22c-.39-1.07-.68-1.29-.95-1.36l-.11,3.16Z"/><path class="cls-1" d="M304.62,459.83c-.87-.5-1.23-2-2.16-1.1.05,1.88.71,1.32,1.09,2.44-.22-3,.48.87,1-1.32a10.56,10.56,0,0,1,.23,1.64,12.42,12.42,0,0,1,.39-1.57l-.06.07h0c-.1.13-.17.17-.11,0s0,0,0-.07a1,1,0,0,1-.33-.13c.18-.88.22-.14.33.13a.56.56,0,0,0,.12,0h0l-.47-3A12.23,12.23,0,0,0,304.62,459.83Z"/><path class="cls-1" d="M300.29,475.09a.22.22,0,0,1,.2-.09C300.39,474.8,300.32,474.72,300.29,475.09Z"/><path class="cls-1" d="M300.81,473.84a1.31,1.31,0,0,1,.38,1.13c-.26.62-.41,0-.7,0,.23.43.62,1.51,1,.15l-.12-.21c.3-1.23,1.37-2.8,1.49-2.59A5.94,5.94,0,0,0,300.81,473.84Z"/><path class="cls-1" d="M302.5,466.75l-.43-2.54-.74,1.29.44-.06C301.6,466.88,302.15,466.57,302.5,466.75Z"/><polygon class="cls-1" points="305.18 452.91 306.09 453.25 304.81 451.79 305.18 452.91"/><polygon class="cls-1" points="305.07 449.62 305.86 449.74 305.38 448.87 305.07 449.62"/><path class="cls-1" d="M295.25,263.84l-.22-.74A2.64,2.64,0,0,0,295.25,263.84Z"/><path class="cls-1" d="M295.2,269.23l.39.13C295.37,269.11,295.21,269,295.2,269.23Z"/><path class="cls-1" d="M305,368.77c.74-1.09,1.89-2.3,1-2.17l-.87.33A3.21,3.21,0,0,1,305,368.77Z"/><path class="cls-1" d="M299.8,313.39c-.08.11-.17.21-.26.32l.83.73C300.19,314.13,300,313.77,299.8,313.39Z"/><path class="cls-1" d="M296.21,312.63l.56-1.43A5.56,5.56,0,0,0,296.21,312.63Z"/><path class="cls-1" d="M294.33,234.41l-.88-.87C293.45,234.9,293.9,234.3,294.33,234.41Z"/><path class="cls-1" d="M304.75,415.9a8.15,8.15,0,0,0,.52-2.33C304.78,414.7,304,415.61,304.75,415.9Z"/><path class="cls-1" d="M304.46,266c-.16-.45-.34-.65-.53-.63C304.08,265.79,304.25,266.06,304.46,266Z"/><path class="cls-1" d="M305.27,410.87a4.19,4.19,0,0,0-.2.49,7.71,7.71,0,0,1,.2,2.21A2.66,2.66,0,0,0,305.27,410.87Z"/><path class="cls-1" d="M295.05,127.66c0-.08.06-.17.1-.24S295,127.5,295.05,127.66Z"/><path class="cls-1" d="M303.8,96.56a9.27,9.27,0,0,1,.07,1.28A3.31,3.31,0,0,0,303.8,96.56Z"/><path class="cls-1" d="M305.45,436.37c.06.7.09.12,0,0Z"/><path class="cls-1" d="M302,439.77a.55.55,0,0,0-.42-.28A.74.74,0,0,1,302,439.77Z"/><path class="cls-1" d="M299.87,403.91v-.06C299.7,404.06,299.74,404,299.87,403.91Z"/><path class="cls-1" d="M305.05,437.43a4.53,4.53,0,0,0,.26-.9A6.25,6.25,0,0,0,305.05,437.43Z"/><path class="cls-1" d="M305.46,437.28c0,.25-.06.43-.08.61C305.53,438,305.62,437.9,305.46,437.28Z"/><path class="cls-1" d="M305.4,435.4a5.18,5.18,0,0,1-.09,1.13c.06-.13.11-.19.14-.16C305.44,436.17,305.42,435.88,305.4,435.4Z"/><path class="cls-1" d="M297.37,184.86l.08-.15C297.09,184,297.15,184.31,297.37,184.86Z"/><path class="cls-1" d="M296,350.59s0,.05,0,.08l0-.1Z"/><path class="cls-1" d="M295.32,348.09a2,2,0,0,1,.72,2.48l2.5-.83Z"/><path class="cls-1" d="M295,250.94l-.78,1.76c-1.28-2.13-.84-3.67-1.94-2,2.72.25.28,6.84,3,7.09l-.58,1.16c0-.33-.13-.39-.1-.72-1.3,2.26,2,1.68,1.57,4.59-.2,1-.6,1.72-.92,1l.67,2.26c-.05.66-.52.5-.47-.16l.22,3.45-.08,0a14.9,14.9,0,0,1,1.36,2.15c-.39.88-.29-.44-.63-.21l.66,1.91c-.7.77-1.38-.81-1.28-2.13-2.72,1.78.68,1.59-.9,5.43l-.35-1.8c-1.54,1.16-1,2.57-1.94,4.6.5-.48,2.42-4.07,3.1-2a3,3,0,0,0,.24,2.47c-1,0-.73,1.1-.67,2.46l-1.28-.09c.37,1.48,1,1.36,1.59,2.23-.12,1.64-1.11,2-1.95,2.37-.2,2.63,1.59-1.82,1.83,1.3-.49,2.19,0,3.73.8,6.35-.44,1.53-.78-.27-1.15.28l1,1.36c0,.33-.34.22-.49.17.39,1.14,1.27.09,1.62,1.89,1.41.49-2.06,3.7-.46,5.93-.36.55-.78-.27-1.28-.1a19,19,0,0,0,2.18,5.13l-.84,2.14c1-1.57,2.1.43,3,2.19a15,15,0,0,0,1.06-1.35l.69,2.8c-.21.34-.65.06-1.18-.4.1.19.21.37.3.52-.47,1-1.21.48-1.92-.24.25-.34.52-.68.79-1-.78-.69-1.64-1.34-2.39-1.2a2.36,2.36,0,0,1,.35.92c-.21-.18-.4-.3-.53-.21s.15.39.47.85l-1.42.63.56.16-.89,3.67c1.44,2.63,3.55,4.91,4.14,9.08-1.05-1-1.71-.22-2.95-.28,1.31-1.14-.56-3.23-.29-5.39-.14,1.13-.73.88-.93.59l1.19,3.86c-1-.09-.76.82-1.18,1.82,2-.76,1.33,2.87,1.95,4.44-.67.1-1.36-.28-1.2-2.19-1.51,2.11,2.35,2.73,1.07,4.8,0-.47.09-.72-.25-.9.6,1.09.12,3.75-.46,3.13l0-.47c-.23,3.1,0,9.44,1.69,9.9a11.15,11.15,0,0,1-2.4-.59l5.73,5.53c-1.46-.49-4.94,1.38-5.77-1.19a4.79,4.79,0,0,0,.07,3.21c.21-.5,2.11-1.25,2.24-.57-1.62,1.89-.87,1.32-2.25,3.64.31-.75,2.6.09,2.53,1.28-.35-.18-2.26.1-2.5-.34l2.25,3c-.41-.74-1.91-.13-2.55.54.45-.31,0,2.57.19,3.36l.52-1.26c-.34,3.35,3.16,3.31,3,6.64-.46-.41-2.86-1-3.14.69,1.15.78,5.54,3.44,6.43,6.38l-.66.56.75,2.26a46.77,46.77,0,0,1-6.8-7.51c-.52,1.26-.78.35-.72,2.23-.61.67-.93-1-1-1.57l-.4,4.37c1.35-.19,1.35,3.35,2.47,3.18L295.12,376c1.34-.19,3.81,2.74,3.58,5.84-.54.79-2.4-.59-2.85-.52.47.4.89,2.94.56,3.23l-.72-1.32c-.5,1.73,1.78,2.82.5,4.89-.09.72-1.73,2.14-.94,2.26,1.54-1.17,6.29-1.39,7.44-.62-.11.25-1.47,3.76-2.23,4.58-1.2,1.18-2.86-1.77-3.9-.77.37.05.82.7,1,1-.32.75-1.14-.31-1,1.32,1.36.27-.12,3.32,1.15.77.39,1.6-.28,1.7-.22,3.58.88-.6,3,1.68,3.38,3.28-.34-.09-.79.27-1,.44-.12,3.28-.74,5-.75,8.09-.33.28-.73,1.75-1.32,1.13a3.25,3.25,0,0,1,.74,1.78c-1.18,1.82-.19-2.1-1.6-.71.79.12,1.09,2.44,1.59,3.78,1.22-.42.23-3.1-.26-4.45,1.68,0,3.45,2.34,4.23,5.53.42,2.53-1.09,1.1-.85,1.54-.29,4.76,3,4.06,1.73,8-1.08,1.57-2.14.07-2.92.42-.4-2.06.69-3.17.64-4.57l-.5,1.72a4,4,0,0,1-.32-2.78c-1,1.31-.19,8.05-1.08,11.72.36.65.73,1.78,1.17,1.25l-.15-1.16c.86-1.07,1.2,2.18,1.6.71.61,1.56,1.57,3.31,1.08,5.51l-1.23.41c.36,0,.73-1.43.36-2,.54.91-1.66,3.37-.06,4.37l.85-1.54c.62,1.57,1.92,3.5,1.54,5.45,1.21-.89-.14-.45,1.27-1.83-1.76,1.2.08-5-1.77-3.06,1.64-1.42.69-2.45,2.1-4.31-.41.06-.78.66-.58-1a1.7,1.7,0,0,1-.36-.35.61.61,0,0,0,0-.11.79.79,0,0,0,0,.09c-.06-.08-.08-.08,0,0a1.84,1.84,0,0,1-.62.83c-.92-.81-.89-3.41-1.37-4.29.19-1,.46.41.89-.12l-.72-1.31c.9-.13,1.49-2.58,2-.3l0-2.05a6.15,6.15,0,0,0,.33-3.9c.19-1-1-2.45-.29-1.61l-.56-3.22.22,0c.12-3.18-1.48-6.55.14-10.19a9.81,9.81,0,0,1-.25-4l.78-.35c-.28-1.37.77-4.13,0-4.72,2.09-1.48.46-6.67.83-9.09l-1-.09a23.47,23.47,0,0,0-.64-5.33l-.9.13c-.73-1.79.64-4.58.55-7.4.34.19.25.9,0,1.41,2-3.37-1.47-7.1,0-10.16a2.1,2.1,0,0,1,0-1.84.41.41,0,0,0,0,.19,1.6,1.6,0,0,0,0-.32c.16-.33.34-.68.48-1.05a3.42,3.42,0,0,0-.48.89,11.94,11.94,0,0,0-.35-2.35l1-.38a1.62,1.62,0,0,0,0-.2c.36-.85-.45-.69-1.18-.23a4.58,4.58,0,0,0-.58-1.15c1.55-.7-.52-2.29,1.14-3.24-.81-.59-.61-4.39-2.31-4.85.22,0,.32-.29.34.18a4,4,0,0,0-.1-2.81l1.23-.42L302,352.09c.75-1.29,1.18-1.83,2.12-.54-1.44-3.1-.54-2.51-2-5.14l.79.12c0-.94-1.09-2.44-.43-3,1.5-2.1.21-10.41,1.6-15.8-2.33,1,1.05-2.51-.76-2.73.55-.31.86-1.07,1.34-.19-.54-2.76.88-4.14-.65-6,.56-.32.81.59,1.14.31-.12-.23-.48-.88-.15-1.17s.46.41.7.84c-.09-2.81-1.79-3.1-3.38-3.3.75-1.43.65-2.14-.4-3.17.52-.5,1.07-1.32,1.25.42.08-1,.77-6-.51-6.11.32-.3.1-1.37,0-1.63a36.81,36.81,0,0,0,.07-4.57l-.21.6c-1.54-.86-.34-1.8-.53-3.55l.16.05c1.11-4-.54-1.73.73-5.68l-.95.21c-2.07-.37,1.21-3.5.42-5.8l-.54.83c-.71-1.25,2.8-3.5,3.06-4.76.18-.27.29.43.42.82,1.22-3.3-1.26-.43-1.55-2.89.68-.45,1.72.59,1.85-1.07.55-.82-2.2-4.79-.9-7-.52.49-1,1-1.44-.15-.18-1.75,2-4.73.33-6.31.14-.22.28-.31.41-.31-.42-1.34-.71-4.35-1.6-5.15,3.32-1.24-1.61-8.31,1.45-8.28l-.17-4.11.31.11a5.29,5.29,0,0,0-1.26-4.48c.21-.61.49-.17.65-.12.62-3.84.49-4.22-1-7.44l1-.33c-.58-.87,1.55-5.55.4-9.32a.73.73,0,0,1,.44.42c-1.16-4.24,2.75-10.14-.86-11.7l-.89-2.79c-.28,3.61-1.56-.54-2.16,1-.22-1.43,1.09-3.68,1.27-1.93l-.18.27c1.88.64.67-4.49,1.95-4.4-.09-7.11.95-14.05,1-20.72l-1.47.77.09-2.32c.34-.61,1.14-.82,1.08.84.83-.88-.69-2.79-1-2.83.59-3.25,1.71,1.27,1.74.27l-.11-1.35-.17.3c-.6-1.09-1.23-1.19-1.16-3.19.29-1.26.9-.64,1-1.14.1,0,.15-.16,0-.76l.13-2.93-1.16,1.17c-.57-1.3.06-2.75-1.25-1.4,2-2,.73-10.93,1.35-12.15a11.91,11.91,0,0,1-.72-5.84c-.24.56-1.54.89-1.38-1,2.68.7,1.16-3.51,3.09-5.06-1.28,1.38-.32-5.46-2.13-3.28.22-1.6,1-.1,1.63-1.31-1-3.81.68-8.4.33-13.11-.35-.07-.89.72-1.42-.29l1.76-2.49c-.17-.93-2-.85-.81-2.55-.29.24-.74.59-.85,0,1.71-9.22-1.41-18.85,1.82-28.22-.69,1.27-.75.43-.78-.54-.16.63-.87,0-1.34.11L303.85,94c-1.32-.72-.09-4.21-1.35-4.62l.22,1.24c-1.49-1.65-3.32,2.32-5.23,2.07,1.7,1.85-2.52,4.88-.09,7.91-.39.67-.61-.57-1.06-.21.82.77,1,1.7.63,3.42l-.21-.19c.2,4.83-.61,6.91-1.14,12.34l.94-.4a4.4,4.4,0,0,1-.66,2c1.44,1.34.08-3.27,1.67-2.05-1.93,1.55,0,8.23-2.22,9.28,0,1.79,1.09-.53,1.08,1.26l-.59.48.76.45a1.86,1.86,0,0,1-1.37,1.82,4.5,4.5,0,0,0-.18-1.12c-.7,1.53.24,4.31,0,4.83l.36-1.73c.56,4.91-.22,10.89,1,15.62l.44-.35c.83,3.61-.49,2.89-.1,6.86l-.11-.14a5.65,5.65,0,0,1,.62,2.94c-.53-1-1,1.89-1.6.57.89,3.92.7,1.94,2.36,4.53l-.74.6a4,4,0,0,1,1.22,2.94c-.64-1.63-1.13,1.26-2-.56-1.62,4.16,1.64,6.18-.73,8.09,2,1.91,1.14-3.6,1.58-2.53.67-.9,1.53,1.57,1.33,2.88s-2.63,2.26-2.59,5.6c0-.33-.15-.35-.14-.69-.52,1.26.71,2.46-.14,4,1.24.86-.07,2,1.51,2.24l-.36-3.07c.41,1.74,2.26,3.37,1.36,6.24a5.19,5.19,0,0,1-1-1.66c-.47.83.31,1.61-.17,2.48-1.58-.25-.34-3.73-1.55-5.59-.67.9,1.15,3.52-.57,2.59,2.18,1.34-.28,3.29,1.39,5.55l-1-.15a4.34,4.34,0,0,1,.57,1.76l-1.23-1.19c1.05,1.83-.91,3.53-.34,5.29,0-3.68,1.14-.82,1.83-2.38,1.27,4.54-2.48,2.61-2,7.69-.14-.68.57-2.58,1-1.5a7.58,7.58,0,0,1-1.06,2.84c.2,3.36,1-.52,1.56.91-1.16,1.15.47,1.66.84,3.13h-1c-.62,3.84,2,1,1.27,4.48l-1.34-1.46.34,1.8-1.09-.37c.81,2,.6,2.57.29,4.49.68-.45,1.75.25,1.78,1.95-.57,1.16-.91-.65-.78,1.76-.6-.55-1.36-1.14-.47-2.19-.31-.11-.6-.54-.91-.65-.66,1.25-.15,3.14-.15,4a2.4,2.4,0,0,1,.23-.94l1.34,3.49c-.37.55-.66.11-.94-.32a16.47,16.47,0,0,1,.63,2.24c-.79-.27-1.59-.21-2-1.68l.87,3.33c-.34.22-.94,1.71-1.23,1.28-.46,1.84,1.52,4.52.91,7a1.52,1.52,0,0,1,.41.9c-.17,2.3-1.14,4.34-.06,7.06L293.44,244c.32,2.13,1.77-2.1,2.31,1.46.44,2.51-1.2.94-1.6,1.82.71,1.25,2.16,3.43,1,5.74A9.39,9.39,0,0,1,295,250.94Zm.62,26.32c-.2-.51-.82-1.53-.25-1.9C296.47,275.94,295.94,276.39,295.62,277.26Zm2.33,40c-.32-.38-.16-1,.2-1.63A3,3,0,0,1,298,317.27Zm6.71,111.45a.1.1,0,0,0,0-.05C305,427.53,304.84,427.93,304.66,428.72Zm-.41,2.36c.13.24.26.22.4.12-.25-.16-.26-.69-.19-1.29C304.2,430.07,304,430.38,304.25,431.08Zm-.38-253.68-.26.46C303.33,176.82,303.59,177.11,303.87,177.4Z"/><path class="cls-1" d="M296.63,312.73a1.08,1.08,0,0,1,.52-.22C297,312.31,296.8,312.31,296.63,312.73Z"/><path class="cls-1" d="M294.49,234.57a.22.22,0,0,0,0-.08.3.3,0,0,0-.17-.08Z"/><path class="cls-1" d="M296.06,394.49a2.12,2.12,0,0,1,.5-.94C296.33,393.53,296.13,393.75,296.06,394.49Z"/><path class="cls-1" d="M305.88,443.6l-.25-1.51a2.35,2.35,0,0,1-.31,1.36C305.54,443.42,305.87,443.13,305.88,443.6Z"/><path class="cls-1" d="M299.91,456.74c.12.22,0,.47.14.68l.45-.06C300.47,456.42,300.1,455.76,299.91,456.74Z"/><path class="cls-1" d="M302.68,445c-.81.12-.54,1.07-.39,2.13a1.2,1.2,0,0,1,0-.19C303.43,447.26,303.05,446.13,302.68,445Z"/><path class="cls-1" d="M302.32,447.38a4,4,0,0,1,0,1C302.8,448.48,302.44,448,302.32,447.38Z"/><path class="cls-1" d="M304.78,434.08c-.21.5,1,.32.71.6C306.52,435.24,304.24,431.33,304.78,434.08Z"/><polygon class="cls-1" points="300 445.86 301.01 445.48 300.2 444.89 300 445.86"/><path class="cls-1" d="M300.74,437.49l-.28,1.7c.17,0,.27.19.34.45C300.84,438.6,301,437.45,300.74,437.49Z"/><path class="cls-1" d="M300.8,439.64A3.15,3.15,0,0,0,301,441,6.2,6.2,0,0,0,300.8,439.64Z"/><polygon class="cls-1" points="299.7 443.55 299.91 443.05 299.99 441.85 299.7 443.55"/><path class="cls-1" d="M300.93,419.29l-.28-1.85c-.35-.19-.56.31-.42,1C300.47,418.88,300.6,419.57,300.93,419.29Z"/><path class="cls-1" d="M298.19,424.88c.21-.5.43-.54.76-.82l-1.24-.06Z"/><path class="cls-1" d="M297.9,419.48c-.35-.18-1-2.68-.91-.33C297.33,419.33,297.62,421.18,297.9,419.48Z"/><polygon class="cls-1" points="299.47 391.63 299.49 392.1 301.52 392.04 299.47 391.63"/><path class="cls-1" d="M294.6,367.09c-.49,2.19,1.25.52.65,2.49.48.52.49-1.61.91-1.09C295.65,367.17,295.94,366.48,294.6,367.09Z"/><path class="cls-1" d="M296.16,368.49a5,5,0,0,0,.31.68A2.8,2.8,0,0,0,296.16,368.49Z"/><polygon class="cls-1" points="304.9 91.4 305.32 89.99 304.64 90.9 304.9 91.4"/><path class="cls-1" d="M303.39,88.7l1.3-.33-1.18-.85C303.57,87.84,303.68,88.46,303.39,88.7Z"/><path class="cls-1" d="M293,281.17l.31.11c.34-.22.36-.55.42-1.21Z"/><polygon class="cls-1" points="293.98 262.07 293.95 262.4 295.13 261.78 293.98 262.07"/><path class="cls-1" d="M292.48,246c-.05.66.22,1.43.17,2.08C292.43,246.69,294,245.86,292.48,246Z"/><path class="cls-1" d="M88,304.87c-.63-.07-.41.76-.5.91C88.57,305.6,88,304.65,88,304.87Z"/><polygon class="cls-1" points="98.37 302.97 98.19 303.31 99.72 302.47 98.37 302.97"/><path class="cls-1" d="M108.06,303c-.92-1.43-3.51.23-5.24-.27l-.28-.33-.78,1.15C103.86,303.35,106.58,302.58,108.06,303Z"/><path class="cls-1" d="M113.22,306.07c-.32-.56,1.12-.48-1.2-.17a1.21,1.21,0,0,1,.22.14A7.39,7.39,0,0,1,113.22,306.07Z"/><path class="cls-1" d="M112.24,306c-1,0,.66.46,0,0Z"/><path class="cls-1" d="M117,305.72l-1.35.49c.28.33,1.48.41,1,.65C118,306.58,117.73,306.26,117,305.72Z"/><path class="cls-1" d="M118.22,304.68l-.7.21C117.65,305,117.83,305.07,118.22,304.68Z"/><path class="cls-1" d="M116.05,305.33l1.47-.44c-.19-.23-.21-.7-.67.16C117,304.62,116.68,305,116.05,305.33Z"/><path class="cls-1" d="M115.21,305.11c-.75-.31-1.72-.5-.38-1C112.26,304.31,112.64,305.31,115.21,305.11Z"/><path class="cls-1" d="M108.55,301.51l-1-.42-.88.48C107.11,301.33,108.62,302,108.55,301.51Z"/><path class="cls-1" d="M125.32,306.46c.08-.31-.46-.81-.56-1.2l-1,.35C124.28,305.82,125.25,306,125.32,306.46Z"/><path class="cls-1" d="M124.76,305.26l1.49-.52C124.92,304.68,124.68,304.92,124.76,305.26Z"/><polygon class="cls-1" points="118.46 303.09 116.02 304.19 118.93 303.08 118.46 303.09"/><polygon class="cls-1" points="130.99 306.5 130.15 307.2 131.65 306.14 130.99 306.5"/><path class="cls-1" d="M134.75,306.37c-.62.59.85,1,.19,1.35a6.86,6.86,0,0,0,2.68-1.06A4.09,4.09,0,0,1,134.75,306.37Z"/><path class="cls-1" d="M138.94,306a8.88,8.88,0,0,0-1.32.65A4,4,0,0,0,138.94,306Z"/><path class="cls-1" d="M128.78,304.89a1.65,1.65,0,0,0,1.17.87l-.59-.86Z"/><path class="cls-1" d="M129.34,304.87l0,0,1.26.05Z"/><path class="cls-1" d="M128.63,304.88h.15C128.72,304.8,128.69,304.78,128.63,304.88Z"/><path class="cls-1" d="M122.35,303.87c.88-.48,2.69-1,.93-1.72C122.66,302.73,123.67,303.15,122.35,303.87Z"/><path class="cls-1" d="M127.91,303.82l-1.58-.2c0,.23.31.56-.12.79Z"/><polygon class="cls-1" points="128.68 303.55 127.91 303.82 128.49 303.89 128.68 303.55"/><path class="cls-1" d="M136.24,305.21a5.24,5.24,0,0,1,2.27-.46,14.9,14.9,0,0,0-2.72-.26C135.66,304.76,135.27,305.24,136.24,305.21Z"/><path class="cls-1" d="M132.89,305l.15-.05C133,304.85,132.87,304.83,132.89,305Z"/><path class="cls-1" d="M146.8,304.75l-.14-.15a.7.7,0,0,1,0,.14Z"/><path class="cls-1" d="M135.64,304.33a1.61,1.61,0,0,0-1.47.31,10.14,10.14,0,0,1,1.62-.15C135.85,304.37,135.86,304.29,135.64,304.33Z"/><path class="cls-1" d="M141.25,305.61a8.39,8.39,0,0,0-1.17-.47C140.43,305.41,141.13,305.83,141.25,305.61Z"/><path class="cls-1" d="M133.27,305.16l-.1,0C133.39,305.38,133.36,305.29,133.27,305.16Z"/><path class="cls-1" d="M133.27,305.16a4.16,4.16,0,0,0,.9-.52,5.66,5.66,0,0,0-1.13.28A1.05,1.05,0,0,1,133.27,305.16Z"/><path class="cls-1" d="M149.31,299.26c-.12.8-1.91,1.53-3.44.68-1.52.59-.53,3.2.79,4.66.05-.35.05-.67,1.61-1.14-.55-.43-3.46-1-2.14-1.73,2.06-.4,1.69.28,2.69.7-.85-1,2.63-1.43,2.18-2.88l-1.81.51C149.15,299.83,149.81,299.47,149.31,299.26Z"/><path class="cls-1" d="M143.69,304.51l-.64.1a6.1,6.1,0,0,1,2.22,1.08c1.07-.39,1.29-.68,1.36-.95l-3.15-.11Z"/><path class="cls-1" d="M140.17,304.62c.5-.87,2-1.23,1.1-2.16-1.88.05-1.32.71-2.44,1.09,3-.21-.87.48,1.32,1a10.56,10.56,0,0,1-1.64.23,12.42,12.42,0,0,1,1.57.39l-.07-.05h0v0c-.13-.1-.17-.17,0-.11H140a1,1,0,0,1,.13-.33c.88.18.14.22-.13.33a.56.56,0,0,0,0,.12v0l3-.48A12.23,12.23,0,0,0,140.17,304.62Z"/><path class="cls-1" d="M124.91,300.29a.22.22,0,0,1,.09.2C125.2,300.39,125.28,300.32,124.91,300.29Z"/><path class="cls-1" d="M126.16,300.81a1.31,1.31,0,0,1-1.13.38c-.62-.26,0-.41,0-.7-.43.23-1.51.62-.15,1l.21-.12c1.23.3,2.8,1.37,2.59,1.49A5.94,5.94,0,0,0,126.16,300.81Z"/><path class="cls-1" d="M133.25,302.5l2.54-.43-1.29-.74.06.44C133.12,301.6,133.43,302.15,133.25,302.5Z"/><polygon class="cls-1" points="147.09 305.18 146.75 306.09 148.21 304.81 147.09 305.18"/><polygon class="cls-1" points="150.38 305.07 150.26 305.86 151.13 305.38 150.38 305.07"/><path class="cls-1" d="M336.16,295.25l.74-.22A2.64,2.64,0,0,0,336.16,295.25Z"/><path class="cls-1" d="M330.77,295.2l-.13.39C330.89,295.37,331,295.21,330.77,295.2Z"/><path class="cls-1" d="M231.23,305c1.09.74,2.3,1.89,2.17,1l-.33-.87A3.21,3.21,0,0,1,231.23,305Z"/><path class="cls-1" d="M286.61,299.8l-.32-.26-.73.83C285.87,300.19,286.23,300,286.61,299.8Z"/><path class="cls-1" d="M287.37,296.21l1.43.56A5.56,5.56,0,0,0,287.37,296.21Z"/><path class="cls-1" d="M365.59,294.33l.87-.88C365.1,293.45,365.7,293.9,365.59,294.33Z"/><path class="cls-1" d="M184.1,304.75a8.15,8.15,0,0,0,2.33.52C185.3,304.78,184.39,304,184.1,304.75Z"/><path class="cls-1" d="M334,304.46c.45-.16.65-.34.63-.53C334.21,304.08,333.94,304.25,334,304.46Z"/><path class="cls-1" d="M189.13,305.27a4.19,4.19,0,0,0-.49-.2,7.71,7.71,0,0,1-2.21.2A2.66,2.66,0,0,0,189.13,305.27Z"/><path class="cls-1" d="M472.34,295.05c.08,0,.17.06.24.1S472.5,295,472.34,295.05Z"/><path class="cls-1" d="M503.44,303.8a9.27,9.27,0,0,1-1.28.07A3.31,3.31,0,0,0,503.44,303.8Z"/><path class="cls-1" d="M163.62,305.45c-.69.06-.11.09,0,0Z"/><path class="cls-1" d="M160.23,302a.55.55,0,0,0,.28-.42A.74.74,0,0,1,160.23,302Z"/><path class="cls-1" d="M196.09,299.87h.06C195.94,299.7,196,299.74,196.09,299.87Z"/><path class="cls-1" d="M162.57,305.05a4.53,4.53,0,0,0,.9.26A6.25,6.25,0,0,0,162.57,305.05Z"/><path class="cls-1" d="M162.72,305.46l-.61-.08C162,305.53,162.1,305.62,162.72,305.46Z"/><path class="cls-1" d="M164.6,305.4a4.63,4.63,0,0,1-1.13-.09c.13.06.19.11.15.14Z"/><path class="cls-1" d="M415.14,297.37l.15.08C416,297.09,415.69,297.15,415.14,297.37Z"/><path class="cls-1" d="M249.41,296l-.08,0,.1,0Z"/><path class="cls-1" d="M251.91,295.32a2,2,0,0,1-2.48.72l.83,2.5Z"/><path class="cls-1" d="M349.06,295l-1.76-.78c2.13-1.28,3.67-.84,2-1.94-.25,2.72-6.84.28-7.09,3l-1.16-.58c.33,0,.39-.13.72-.1-2.26-1.3-1.68,2-4.59,1.57-1-.2-1.72-.6-1-.92l-2.26.67c-.66-.05-.5-.52.16-.47l-3.45.22,0-.08a14.9,14.9,0,0,1-2.15,1.36c-.88-.39.44-.29.21-.63l-1.91.66c-.77-.7.81-1.38,2.13-1.28-1.79-2.72-1.59.68-5.43-.9l1.8-.35c-1.16-1.54-2.57-1-4.6-1.94.48.5,4.07,2.42,2,3.1a3,3,0,0,0-2.47.24c0-1-1.1-.73-2.46-.67l.09-1.28c-1.48.37-1.36,1-2.23,1.59-1.64-.12-2-1.11-2.37-1.95-2.63-.2,1.82,1.59-1.3,1.83-2.19-.49-3.73,0-6.35.8-1.53-.44.27-.78-.28-1.15L304,296c-.33,0-.22-.34-.17-.49-1.14.39-.09,1.27-1.89,1.62-.49,1.41-3.7-2.06-5.93-.46-.55-.36.27-.78.1-1.28a19,19,0,0,0-5.13,2.18l-2.14-.84c1.57,1-.43,2.1-2.19,3a15,15,0,0,0,1.35,1.06l-2.8.69c-.34-.21-.06-.65.4-1.18l-.52.3c-1-.47-.48-1.21.24-1.92.34.25.68.52,1,.79.69-.78,1.34-1.64,1.2-2.39a2.36,2.36,0,0,1-.92.35c.18-.21.3-.4.21-.53s-.39.15-.85.47L285.3,296l-.16.56-3.67-.89c-2.63,1.44-4.91,3.55-9.08,4.14,1-1.05.22-1.71.28-2.95,1.14,1.31,3.23-.56,5.39-.29-1.13-.14-.88-.73-.59-.93l-3.86,1.19c.09-1-.82-.76-1.82-1.18.76,2-2.87,1.33-4.44,1.95-.1-.67.28-1.36,2.19-1.2-2.11-1.51-2.73,2.35-4.8,1.07.47,0,.72.09.9-.25-1.09.6-3.75.12-3.13-.46l.47,0c-3.1-.23-9.44,0-9.9,1.69a11.15,11.15,0,0,1,.59-2.4l-5.53,5.73c.49-1.46-1.38-4.94,1.19-5.77a4.79,4.79,0,0,0-3.21.07c.5.21,1.25,2.11.57,2.24-1.89-1.62-1.32-.87-3.64-2.25.75.31-.09,2.6-1.28,2.53.18-.35-.1-2.26.34-2.5l-3,2.25c.74-.41.13-1.91-.54-2.55.31.45-2.56,0-3.36.19l1.26.52c-3.35-.34-3.31,3.16-6.64,3,.41-.46,1-2.86-.69-3.14-.78,1.15-3.44,5.54-6.38,6.43l-.56-.66-2.26.75a46.77,46.77,0,0,1,7.51-6.8c-1.26-.52-.35-.78-2.23-.72-.67-.61,1-.93,1.57-1l-4.37-.4c.19,1.35-3.35,1.35-3.18,2.47l4.75-1.39c.19,1.34-2.74,3.81-5.84,3.58-.79-.54.59-2.4.52-2.85-.4.47-2.94.89-3.23.56l1.32-.72c-1.73-.5-2.82,1.78-4.89.5-.72-.09-2.14-1.73-2.26-.94,1.17,1.54,1.39,6.29.62,7.44-.25-.11-3.76-1.47-4.58-2.23-1.18-1.2,1.77-2.86.77-3.9,0,.37-.7.82-1,1-.75-.32.31-1.14-1.32-1-.27,1.36-3.32-.12-.77,1.15-1.6.39-1.7-.28-3.58-.22.6.88-1.68,3-3.28,3.39.09-.35-.27-.8-.44-1-3.28-.12-5-.74-8.09-.75-.28-.33-1.75-.73-1.13-1.32a3.25,3.25,0,0,1-1.78.74c-1.82-1.18,2.1-.19.71-1.6-.12.79-2.44,1.09-3.78,1.59.42,1.22,3.1.23,4.45-.26,0,1.68-2.34,3.45-5.53,4.23-2.53.42-1.1-1.09-1.54-.85-4.76-.29-4.06,3-8,1.73-1.57-1.08-.07-2.14-.42-2.92,2.06-.4,3.17.69,4.57.64l-1.72-.5a4,4,0,0,1,2.78-.32c-1.31-1-8-.19-11.72-1.08-.65.36-1.78.73-1.25,1.17l1.16-.15c1.07.86-2.18,1.2-.71,1.6-1.56.61-3.31,1.57-5.51,1.08l-.41-1.23c.05.36,1.43.73,2.05.36-.91.54-3.37-1.66-4.37-.06l1.54.85c-1.57.62-3.5,1.92-5.45,1.54.89,1.21.45-.14,1.83,1.27-1.2-1.76,5,.08,3.06-1.77,1.42,1.64,2.45.69,4.31,2.1-.06-.41-.66-.78,1-.58a1.7,1.7,0,0,1,.35-.36l.11,0-.09,0c.08-.06.08-.08,0,0a1.9,1.9,0,0,1-.83-.61c.81-.93,3.41-.9,4.29-1.38,1,.19-.41.46.12.89l1.31-.72c.13.9,2.58,1.49.3,2l2.05,0a6.15,6.15,0,0,0,3.9.33c1,.19,2.45-1,1.61-.29l3.22-.56,0,.22c3.18.12,6.55-1.48,10.19.14a9.81,9.81,0,0,1,4-.25l.35.78c1.37-.28,4.13.77,4.72,0,1.48,2.09,6.67.46,9.09.83l.09-1a23.47,23.47,0,0,0,5.33-.64l-.13-.9c1.79-.73,4.58.64,7.4.55-.19.34-.9.25-1.41,0,3.37,2,7.1-1.47,10.16,0a2.1,2.1,0,0,1,1.84,0,.41.41,0,0,0-.19,0,1.6,1.6,0,0,0,.32,0c.33.16.68.34,1,.48a3.27,3.27,0,0,0-.89-.48,11.94,11.94,0,0,0,2.35-.35l.38,1,.2,0c.85.36.69-.45.23-1.18a4.58,4.58,0,0,0,1.15-.58c.7,1.56,2.29-.52,3.24,1.14.59-.81,4.39-.61,4.85-2.31,0,.22.29.32-.18.34a4,4,0,0,0,2.81-.1l.42,1.23,2.12-1.65c1.29.75,1.83,1.18.54,2.12,3.1-1.44,2.51-.54,5.14-2l-.12.79c.94,0,2.44-1.09,3-.43,2.1,1.5,10.41.21,15.8,1.6-1-2.33,2.51,1.05,2.73-.76.31.55,1.07.86.19,1.34,2.76-.54,4.14.88,6-.65.32.56-.59.81-.31,1.14.23-.12.88-.48,1.17-.15s-.41.46-.84.7c2.81-.09,3.1-1.79,3.3-3.38,1.43.75,2.14.65,3.17-.4.5.52,1.32,1.07-.42,1.25,1,.08,6,.77,6.11-.51.31.32,1.37.1,1.63,0a36.81,36.81,0,0,0,4.57.07l-.6-.21c.86-1.54,1.8-.34,3.55-.53l-.05.16c4,1.11,1.73-.54,5.68.73l-.21-.95c.37-2.07,3.5,1.21,5.8.42l-.83-.54c1.25-.71,3.5,2.8,4.76,3.06.27.18-.43.29-.82.42,3.3,1.22.43-1.26,2.89-1.55.45.68-.59,1.72,1.07,1.85.82.55,4.79-2.2,7-.9-.49-.52-1-1,.15-1.44,1.75-.18,4.73,2,6.31.33.22.14.31.28.31.41,1.34-.42,4.35-.71,5.15-1.6,1.24,3.32,8.31-1.61,8.28,1.45l4.11-.17-.11.31a5.29,5.29,0,0,0,4.48-1.26c.61.21.17.49.12.65,3.84.62,4.22.49,7.44-1l.33,1c.87-.58,5.55,1.55,9.32.4a.73.73,0,0,1-.42.44c4.24-1.16,10.14,2.75,11.7-.86l2.79-.89c-3.61-.28.54-1.56-.95-2.16,1.42-.22,3.68,1.09,1.93,1.27l-.27-.18c-.64,1.88,4.49.67,4.4,1.95,7.11-.09,14,.95,20.72,1l-.77-1.47,2.32.09c.61.34.82,1.14-.84,1.08.88.83,2.79-.69,2.83-1,3.25.59-1.27,1.71-.27,1.74l1.35-.11-.3-.17c1.09-.6,1.19-1.23,3.19-1.16,1.26.29.64.9,1.14,1,0,.1.16.15.76,0l2.93.13-1.17-1.16c1.3-.57,2.75.06,1.4-1.25,2,2,10.93.73,12.15,1.36,1.82-.85,3.61-.83,5.84-.73-.56-.24-.89-1.54,1-1.38-.7,2.68,3.51,1.16,5.06,3.09-1.38-1.28,5.46-.32,3.28-2.13,1.6.22.1,1,1.31,1.63,3.81-1,8.4.68,13.11.33.07-.35-.72-.89.29-1.42l2.49,1.76c.93-.17.85-2,2.55-.81-.24-.29-.6-.74,0-.85,9.22,1.71,18.85-1.41,28.22,1.82-1.27-.69-.43-.75.54-.78-.63-.16,0-.87-.11-1.34l3.92,1.32c.72-1.32,4.21-.09,4.62-1.35l-1.24.22c1.65-1.49-2.32-3.32-2.07-5.23-1.85,1.7-4.88-2.52-7.91-.09-.67-.39.57-.61.21-1.06-.77.82-1.7,1-3.42.63l.19-.21c-4.83.2-6.91-.61-12.34-1.14l.4.94a4.4,4.4,0,0,1-2-.66c-1.34,1.44,3.27.08,2.05,1.67-1.55-1.93-8.23,0-9.28-2.22-1.79,0,.53,1.09-1.26,1.08l-.48-.59-.45.76a1.86,1.86,0,0,1-1.82-1.37,4.5,4.5,0,0,0,1.12-.18c-1.53-.7-4.31.24-4.83,0l1.73.36c-4.91.56-10.89-.22-15.62,1l.35.44c-3.61.83-2.89-.49-6.86-.1l.14-.11a5.65,5.65,0,0,1-2.94.62c1-.53-1.89-1-.57-1.6-3.92.89-1.94.7-4.53,2.36l-.6-.74a4,4,0,0,1-2.94,1.22c1.63-.64-1.26-1.13.56-2-4.16-1.62-6.18,1.64-8.09-.73-1.91,2,3.6,1.14,2.53,1.58.9.67-1.57,1.53-2.88,1.33s-2.26-2.63-5.6-2.59c.33,0,.35-.15.69-.14-1.26-.52-2.46.71-4-.14-.86,1.24-2-.07-2.24,1.51l3.07-.36c-1.74.41-3.37,2.26-6.24,1.36a5.19,5.19,0,0,1,1.66-1c-.83-.47-1.61.31-2.48-.17.25-1.58,3.73-.34,5.59-1.55-.9-.67-3.52,1.15-2.59-.57-1.34,2.18-3.29-.28-5.55,1.39l.15-1a4.34,4.34,0,0,1-1.76.57l1.19-1.23c-1.83,1.05-3.53-.91-5.29-.34,3.68,0,.82,1.14,2.38,1.83-4.54,1.27-2.61-2.48-7.69-2,.68-.14,2.58.57,1.5,1a7.58,7.58,0,0,1-2.84-1.06c-3.36.2.52,1-.91,1.56-1.15-1.16-1.66.47-3.13.84v-1c-3.84-.62-1,2-4.48,1.27l1.46-1.34-1.8.34.37-1.09c-2,.81-2.57.6-4.49.29.45.68-.25,1.75-1.95,1.78-1.16-.57.65-.91-1.76-.78.55-.6,1.14-1.36,2.19-.47.11-.31.54-.6.65-.91-1.25-.66-3.14-.15-4-.15a2.45,2.45,0,0,1,.94.23l-3.49,1.34c-.55-.37-.11-.66.32-.94a16.47,16.47,0,0,1-2.24.63c.27-.79.21-1.59,1.68-2l-3.33.87c-.22-.34-1.71-.94-1.28-1.23-1.84-.46-4.52,1.52-7,.91a1.52,1.52,0,0,1-.9.41c-2.3-.17-4.34-1.14-7.06-.06L356,293.44c-2.13.32,2.1,1.77-1.46,2.31-2.51.44-.94-1.2-1.82-1.6-1.25.71-3.43,2.16-5.74,1A9.39,9.39,0,0,1,349.06,295Zm-26.32.62c.51-.2,1.53-.82,1.9-.25C324.06,296.47,323.61,295.94,322.74,295.62Zm-40,2.33c.38-.32,1-.16,1.63.2A3,3,0,0,1,282.73,298Zm-111.45,6.71a.1.1,0,0,0,.05,0C172.47,305,172.07,304.84,171.28,304.66Zm-2.36-.41c-.24.13-.22.26-.12.4.16-.25.69-.26,1.29-.19C169.93,304.2,169.62,304,168.92,304.25Zm253.68-.38-.46-.26C423.18,303.34,422.89,303.59,422.6,303.87Z"/><path class="cls-1" d="M287.27,296.63a1.08,1.08,0,0,1,.22.52C287.69,297,287.69,296.8,287.27,296.63Z"/><path class="cls-1" d="M365.43,294.49h.08a.3.3,0,0,0,.08-.17Z"/><path class="cls-1" d="M205.51,296.06a2.06,2.06,0,0,1,.94.5C206.47,296.33,206.25,296.13,205.51,296.06Z"/><path class="cls-1" d="M156.4,305.88l1.51-.25a2.35,2.35,0,0,1-1.36-.31C156.58,305.54,156.87,305.87,156.4,305.88Z"/><path class="cls-1" d="M143.26,299.91c-.22.12-.47,0-.68.14l.06.45C143.58,300.47,144.24,300.1,143.26,299.91Z"/><path class="cls-1" d="M155,302.68c-.12-.81-1.07-.54-2.13-.39a1.2,1.2,0,0,1,.19,0C152.74,303.43,153.87,303.05,155,302.68Z"/><path class="cls-1" d="M152.62,302.32a4,4,0,0,1-1,0C151.52,302.8,152,302.44,152.62,302.32Z"/><path class="cls-1" d="M165.92,304.78c-.5-.21-.32,1-.6.71C164.76,306.52,168.67,304.24,165.92,304.78Z"/><polygon class="cls-1" points="154.14 300 154.52 301.01 155.11 300.2 154.14 300"/><path class="cls-1" d="M162.51,300.74l-1.7-.28c0,.17-.19.27-.45.34C161.4,300.84,162.55,301,162.51,300.74Z"/><path class="cls-1" d="M160.36,300.8A3.15,3.15,0,0,0,159,301,6.2,6.2,0,0,0,160.36,300.8Z"/><polygon class="cls-1" points="156.45 299.7 156.96 299.91 158.15 299.99 156.45 299.7"/><path class="cls-1" d="M180.71,300.93l1.85-.28c.19-.35-.31-.56-1-.42C181.12,300.47,180.43,300.6,180.71,300.93Z"/><path class="cls-1" d="M175.12,298.19c.5.21.54.43.82.76l.06-1.24Z"/><path class="cls-1" d="M180.52,297.9c.18-.35,2.68-1,.33-.91C180.67,297.33,178.82,297.62,180.52,297.9Z"/><polygon class="cls-1" points="208.37 299.47 207.9 299.49 207.96 301.52 208.37 299.47"/><path class="cls-1" d="M232.92,294.6c-2.2-.49-.53,1.25-2.5.65-.52.48,1.61.49,1.09.91C232.83,295.65,233.52,295.94,232.92,294.6Z"/><path class="cls-1" d="M231.51,296.16a5,5,0,0,0-.68.31A2.8,2.8,0,0,0,231.51,296.16Z"/><polygon class="cls-1" points="508.6 304.9 510.01 305.32 509.1 304.64 508.6 304.9"/><path class="cls-1" d="M511.3,303.39l.33,1.3.85-1.18C512.16,303.57,511.54,303.68,511.3,303.39Z"/><path class="cls-1" d="M318.83,293l-.11.31c.22.34.55.36,1.21.42Z"/><polygon class="cls-1" points="337.93 293.98 337.6 293.95 338.22 295.13 337.93 293.98"/><path class="cls-1" d="M354,292.48c-.66-.05-1.43.22-2.08.17C353.31,292.43,354.14,294,354,292.48Z"/><path class="cls-1" d="M389.21,92.2a1.39,1.39,0,0,1,.72.12,5,5,0,0,1,.65.76h13.86l6.78,1.29h2.25A5.13,5.13,0,0,1,417.3,96a12.73,12.73,0,0,1,2.54,3.75,19.56,19.56,0,0,1,1.41,4.31,17.93,17.93,0,0,1,.45,3.39,27.11,27.11,0,0,1-.2,3.06,15.43,15.43,0,0,1-.81,3.35,9.31,9.31,0,0,1-1.82,3,6.47,6.47,0,0,1-3.22,1.93,2.75,2.75,0,0,0-.89.21,9.8,9.8,0,0,0-1.13.48c-.37.19-.72.35-1,.48a2.05,2.05,0,0,1-.73.2,14.06,14.06,0,0,1-1.57-.12,9.26,9.26,0,0,1-2-.48,6.85,6.85,0,0,1-1.73-.89,1.91,1.91,0,0,1-.08-2.94,4.82,4.82,0,0,1,1.65-.6c.67-.14,1.4-.3,2.18-.49a5.31,5.31,0,0,0,2.18-1.13,6,6,0,0,0,1.65-2.66,15.63,15.63,0,0,0,.64-5,7.46,7.46,0,0,0-.08-1.09,2.2,2.2,0,0,0-.56-1.16,6.14,6.14,0,0,0-1.86-1.62,15.19,15.19,0,0,0-2.54-1.21,18.26,18.26,0,0,0-2.46-.72,9.32,9.32,0,0,0-1.45-.24h-1.37a1.45,1.45,0,0,0-.72.24,4,4,0,0,0-.73.56,1.79,1.79,0,0,0-.44.73.77.77,0,0,0,.12.72v19l.89,3.63c-.16.75-.33,1.42-.49,2s-.2,1.06-.28,1.57a8.05,8.05,0,0,0-.12,1.09c0,1.5.4,2.45,1.21,2.86a6.1,6.1,0,0,0,2.62.64c.94,0,1.81.1,2.62.2a1.29,1.29,0,0,1,1.21,1.46v.88a2.17,2.17,0,0,1-.24.85,9,9,0,0,1-.57,1.05,3.73,3.73,0,0,1-.72.88,1.13,1.13,0,0,1-.73.37H406.7a7.4,7.4,0,0,1-2-.45,7.56,7.56,0,0,0-2-.44h-5.16c-.22,0-.66,0-1.33.12s-1.41.19-2.22.32-1.58.25-2.34.33-1.31.12-1.69.12c-.59,0-1.16,0-1.69,0a3.26,3.26,0,0,1-1.41-.37,2.69,2.69,0,0,1-1-.92,3.32,3.32,0,0,1-.4-1.82c0-.37,0-.82,0-1.33a4.19,4.19,0,0,1,.32-1.45,3.08,3.08,0,0,1,.84-1.17,2.59,2.59,0,0,1,1.7-.48l.89.64h3a2,2,0,0,0,2.18-2.25V127l.88-3-.88-1.53a7.46,7.46,0,0,1,.4-1.21c.11-.32.21-.64.32-1a2.43,2.43,0,0,0,.16-.72,4,4,0,0,0-.44-1.53,4,4,0,0,1-.44-1.62.65.65,0,0,1,.12-.4l.32-.48a3,3,0,0,0,.32-.81,6.44,6.44,0,0,0,.12-1.45v-4.51a1.92,1.92,0,0,0-.44-1.09,3.06,3.06,0,0,1-.44-1.82v-2.25a5.25,5.25,0,0,1,.4-1.86c.16-.37.32-.78.48-1.21a2.66,2.66,0,0,0-1.05-2.09,4.05,4.05,0,0,0-2.74-.89h-.88a5.35,5.35,0,0,1-1-.16,13,13,0,0,1-1.53-.45,5.77,5.77,0,0,1-1.41-.68,1.11,1.11,0,0,1-.61-.89,2.36,2.36,0,0,1,.36-1.29,4.11,4.11,0,0,1,.89-1,5.91,5.91,0,0,1,1.05-.64A2.17,2.17,0,0,1,389.21,92.2Z"/><path class="cls-1" d="M448.14,120.66a3.65,3.65,0,0,0,1.78-.49,2.73,2.73,0,0,1,2.25,0,7.6,7.6,0,0,1,1.62-.88,5.62,5.62,0,0,1,2.66-.24,2.11,2.11,0,0,0-.17.48,5.59,5.59,0,0,0-.08,1.13,3.06,3.06,0,0,1-.24.88,9.48,9.48,0,0,1-.68,1.42,12,12,0,0,1-1.13,1.57,6.14,6.14,0,0,1-1.49,1.29h-4c-.21,0-.56,0-1,0L446,126a10.2,10.2,0,0,0-1.61.28,4.54,4.54,0,0,0-1.17.45,4.38,4.38,0,0,1-2.25.44,8.77,8.77,0,0,0-2.91.44,9.13,9.13,0,0,0-2.33.41,5,5,0,0,1-2.18.24,4.26,4.26,0,0,1-2.3.52c-.89,0-1.89,0-3,0l-1.13-.24a4.82,4.82,0,0,1,.08-.77,9.61,9.61,0,0,1,.24-1.13,7.39,7.39,0,0,1,.4-1.12,2,2,0,0,1,.57-.77q2.58-.89,5.2-1.65t5.12-1.25a4.17,4.17,0,0,1,2.21-.25,8.08,8.08,0,0,0,2.95-.24Zm6.53-11.45a7.4,7.4,0,0,0,1.13-.08l.89-.16a2.87,2.87,0,0,1,.89,0,4.06,4.06,0,0,1,1.12.28,8.08,8.08,0,0,0,1.09,1.17,1.06,1.06,0,0,1,.45,1.09,1.77,1.77,0,0,1-.41.8l-.88,1.21c-.33.43-.65.89-1,1.37a5.18,5.18,0,0,0-.65,1.29c-1.13,0-2.25,0-3.38,0s-2.53.1-4.2.2c-1.13.17-2.36.33-3.7.49s-2.69.34-4,.52-2.6.39-3.79.61-2.2.43-3.06.64a1.14,1.14,0,0,0-1,.24.56.56,0,0,0-.16.41c-1.13.11-2.08.19-2.86.24a8.83,8.83,0,0,0-2.94.89.63.63,0,0,0-.24-.77.7.7,0,0,1-.25-.85,2.25,2.25,0,0,1,.25-.8,8.45,8.45,0,0,1,.64-1.21c.27-.43.58-.87.93-1.33a5.11,5.11,0,0,1,1.09-1.09,6.08,6.08,0,0,1,1.85-.61q1.13-.2,2.34-.36c.8-.11,1.58-.24,2.34-.4a5.23,5.23,0,0,0,2-.89,4.68,4.68,0,0,0,1.61,0c.38-.08,1-.17,1.78-.28l.8-.32a7.91,7.91,0,0,0,1.62-.81c0-.16.27-.28.8-.36a15.76,15.76,0,0,1,1.86-.16c.7,0,1.35,0,2,0a5.52,5.52,0,0,1,1.17.12q1.05-.48,1.86-.81A5.53,5.53,0,0,1,454.67,109.21Z"/><path class="cls-1" d="M492.08,90.18a4,4,0,0,1,2.66.77,4.11,4.11,0,0,1,1.25,2,13.1,13.1,0,0,1,.49,2.62c.08.94.17,1.85.28,2.7v2.91c.32.59.74,1.38,1.25,2.38a6.53,6.53,0,0,1,.76,3v2a7.82,7.82,0,0,0,.41,1.46c.27.8.57,1.69.92,2.66s.66,1.89.93,2.78a7.57,7.57,0,0,1,.4,1.81,27.27,27.27,0,0,0,.41,4.07,48.94,48.94,0,0,0,1.05,5,23.85,23.85,0,0,0,1.49,4.19c.56,1.19,1.17,1.78,1.81,1.78a5.34,5.34,0,0,1,1.78.24,3.28,3.28,0,0,0,1.12.24,8.5,8.5,0,0,1,.85.08,7.13,7.13,0,0,1,1.29.32,3.55,3.55,0,0,1,1.17.69,1.53,1.53,0,0,1,.48,1.17,2.38,2.38,0,0,1-1.13,2.26,5.27,5.27,0,0,1-2.66.64l-5.4-.24h-8.06l-2.26.24c-.32,0-.84,0-1.57-.08s-1.09-.27-1.09-.64a2.21,2.21,0,0,1,1-1.86,9.32,9.32,0,0,1,2.38-1.21,9.86,9.86,0,0,0,1.89-.88,1.78,1.78,0,0,0,.77-1.62,9.39,9.39,0,0,0-.2-1.21c-.14-.64-.3-1.33-.49-2a14.23,14.23,0,0,0-.64-1.94q-.36-.84-.69-.84a11,11,0,0,1-.36-1.78,14.15,14.15,0,0,0-.32-1.73,2.36,2.36,0,0,0-.65-1.17,1.48,1.48,0,0,0-1.33-.24h-3.67a14,14,0,0,0-1.41.08c-.48.05-.95.12-1.41.2a1.74,1.74,0,0,0-.92.36c-.7.33-1,.8-.85,1.41a9.63,9.63,0,0,1,.2,2,11.06,11.06,0,0,0-.73,1.25c-.32.62-.63,1.28-.92,2s-.55,1.35-.77,1.94a5,5,0,0,0-.32,1.13,1.63,1.63,0,0,0,.52,1.37,9.45,9.45,0,0,0,1.17.76,4.26,4.26,0,0,1,1.17,1,3.5,3.5,0,0,1,.53,2.18,1,1,0,0,1-.33.77,2,2,0,0,1-.76.4,5.75,5.75,0,0,1-.89.16c-.3,0-.52,0-.69,0a.31.31,0,0,1-.16.32.91.91,0,0,1-.44.08,1.4,1.4,0,0,1-.77-.4h-.84a8.23,8.23,0,0,1-1.09-.08l-1.45-.16a5,5,0,0,0-1.7.24,4.93,4.93,0,0,1-1.69.24,7.5,7.5,0,0,0-1.61.12,2.93,2.93,0,0,0-.69.24,1.65,1.65,0,0,0-.28.21.48.48,0,0,1-.32.08c-.27,0-.74,0-1.41-.08a18.89,18.89,0,0,1-2.06-.29,7.43,7.43,0,0,1-1.81-.56c-.51-.24-.77-.52-.77-.85a3.75,3.75,0,0,1,.93-2.58,3.16,3.16,0,0,1,2.46-1l1.53-.4a1.43,1.43,0,0,0,.6-.28,8.54,8.54,0,0,0,.93-.69l1-.84c.35-.3.63-.53.85-.69a19.19,19.19,0,0,1,1.73-4.39q1.24-2.39,2.3-4.56a23.51,23.51,0,0,1,1.25-2.86c.51-1,1-1.84,1.41-2.54a31.07,31.07,0,0,0,1.37-3q.56-1.45,1.05-2.94c.32-1,.67-2,1-3s.81-2.07,1.3-3.14a13.22,13.22,0,0,0,.88-2.62c.22-.94.42-1.91.61-2.91s.43-2,.72-3a21.31,21.31,0,0,1,1.17-3.06c.32-.27.67-.59,1.05-1a5.34,5.34,0,0,1,1.61-1Zm-1,14.76a1.33,1.33,0,0,0-1,.48,5.08,5.08,0,0,0-.77,1.09,5.35,5.35,0,0,0-.48,1.21,3.68,3.68,0,0,0-.16.84v1.09a2.57,2.57,0,0,1-.08.65c-.06.19-.13.44-.21.76s-.2.84-.36,1.54v.64c0,.32.24.63.73.93a2.58,2.58,0,0,0,1.29.44h.76a7.42,7.42,0,0,0,1.05-.08,2.5,2.5,0,0,0,.93-.32.8.8,0,0,0,.4-.73,2.2,2.2,0,0,0-.56-1.61,1.62,1.62,0,0,1-.57-1.13v-3.55a4.9,4.9,0,0,0-.28-1.37C491.61,105.23,491.38,104.94,491.11,104.94Z"/><path class="cls-1" d="M452.25,207.41a1.91,1.91,0,0,0,1.29-.6,1.51,1.51,0,0,1,1.62-.29,7.45,7.45,0,0,1,1.17-1,3.64,3.64,0,0,1,2-.41v1.37a4.73,4.73,0,0,1-.16.93,13.06,13.06,0,0,1-.48,1.53,18.22,18.22,0,0,1-.77,1.7,5.92,5.92,0,0,1-1,1.41,6,6,0,0,0-1.17.12,10,10,0,0,1-1.81.12,3.76,3.76,0,0,0-1.25.28,4.47,4.47,0,0,0-1.41.85,2.73,2.73,0,0,1-1.57.64,8.71,8.71,0,0,0-2.22.65,2,2,0,0,0-1.29.56,1.89,1.89,0,0,1-1.21.57,2.3,2.3,0,0,1-1.65.64c-.78.06-1.58.08-2.38.08h-.65c0-.37,0-1,.08-1.93a3.38,3.38,0,0,1,.57-1.94,29.39,29.39,0,0,0,3.38-2,13.41,13.41,0,0,1,3.39-1.74,2.13,2.13,0,0,1,1.45-.52,5.21,5.21,0,0,0,2.1-.61Z"/><path class="cls-1" d="M497.73,206.44a5.54,5.54,0,0,1-.33-.56,2.58,2.58,0,0,1-.32-1V201l-.73-4.51V195a1.15,1.15,0,0,0-.56-1.16,6,6,0,0,0-1.21-.45c-.59-.11-1.11-.21-1.57-.32a.87.87,0,0,1-.69-1,3.24,3.24,0,0,1,.33-1.41,7.54,7.54,0,0,1,.76-1.29,4,4,0,0,1,1-1,2,2,0,0,1,1.05-.36,12.92,12.92,0,0,0,2.26.89,11.33,11.33,0,0,0,2.17.64,12.07,12.07,0,0,0,2.34.24h3.15a9.52,9.52,0,0,0,1.85-.2,8.57,8.57,0,0,1,2-.16,2.64,2.64,0,0,1,1.58.57,2.56,2.56,0,0,1,.64,2.05,8.54,8.54,0,0,1,.32,1.53,5.56,5.56,0,0,1,0,1.21,1,1,0,0,1-.36.81h-3.87a1.8,1.8,0,0,0-1.57,1,4.09,4.09,0,0,0-.6,2.13,9.73,9.73,0,0,0-.49,1.94,2.44,2.44,0,0,0,.08,1.13,1,1,0,0,0,.41.72l-1,2.91a3.65,3.65,0,0,1,.52,1.33c.08.45.18.87.28,1.25s.11.91.17,1.29a2.52,2.52,0,0,1-.17.72c-.1.32-.21.67-.32,1.05l-.32,1.13a3.29,3.29,0,0,0-.16.88v1.54a5.5,5.5,0,0,1-.08.8,9.86,9.86,0,0,1-.25,1.05c-.1.43-.21.86-.32,1.29a3.15,3.15,0,0,0,.16,1c.11.3.22.58.33.85a1.77,1.77,0,0,1,.16.76v1a5,5,0,0,1-.16,1.53,2.18,2.18,0,0,0-.49,1.61,3.7,3.7,0,0,1-.93,2.3,25.25,25.25,0,0,0-2,3,2.25,2.25,0,0,1-1,1.82c-.67.51-1.38,1.11-2.13,1.81l-.89,1c-.22.24-.42.44-.61.61a2.77,2.77,0,0,1-.64.4c-.24.11-.58.24-1,.4a15.36,15.36,0,0,1-5.24,1.41c-1.72.14-3,.2-3.71.2-.91,0-1.92-.05-3-.16a23.84,23.84,0,0,1-3.31-.56,28.68,28.68,0,0,1-3.18-1,8.64,8.64,0,0,1-2.58-1.45l-1.61-2.26a11.1,11.1,0,0,1-1.13-1.93c-.33-.7-.62-1.35-.89-1.94s-.62-1.42-.89-2.17v-5.41a6.54,6.54,0,0,0-.44-2.29,8.59,8.59,0,0,1-.44-3v-4.51a15.14,15.14,0,0,1,.4-1.61c.11-.43.21-.86.32-1.29a4.27,4.27,0,0,0,.16-.89c-.16-.75-.32-1.43-.48-2a13,13,0,0,1-.4-2.5,10.62,10.62,0,0,1,.4-1.29c.11-.37.21-.72.32-1.05a2.55,2.55,0,0,0,.16-.8V195q0-.56-1-1a14.53,14.53,0,0,0-2.14-.69c-.78-.19-1.48-.37-2.1-.56s-.9-.42-.84-.69a3.22,3.22,0,0,1,.88-2.09,2.61,2.61,0,0,1,2-1.05l3.87-.89h1.53a8.29,8.29,0,0,1,1.89.44,8.75,8.75,0,0,0,2.63.45h6.69c.75,0,1.19.16,1.33.48a2.26,2.26,0,0,1,.2.81,4.55,4.55,0,0,1-.48,2.46,2.2,2.2,0,0,1-1.25.88,6.15,6.15,0,0,1-1.62.2,3.76,3.76,0,0,0-1.61.37,2.73,2.73,0,0,0-1.25,1.37,8.1,8.1,0,0,0-.48,3.26,4.82,4.82,0,0,0,.08.77c0,.35.12.73.2,1.13s.16.78.24,1.13a3.85,3.85,0,0,1,.12.76v19.76c-.32.7-.4,1.14-.24,1.33a1.41,1.41,0,0,1,.24.92l.89,2.18a13.4,13.4,0,0,0,1.53,1.94,6,6,0,0,0,1.61,1.16,6.56,6.56,0,0,0,2.1.61,23.53,23.53,0,0,0,3.06.16,7,7,0,0,0,1.94-.48,20.1,20.1,0,0,0,2.58-1.13,3.43,3.43,0,0,1,.76-1.09,15.51,15.51,0,0,0,1.25-1.45,20.43,20.43,0,0,0,1.58-2.42,30.41,30.41,0,0,0,1.81-4v-3.15c0-.37,0-1.07.08-2.09s.12-2.1.2-3.23.16-2.19.24-3.18S497.73,206.77,497.73,206.44Z"/><path class="cls-1" d="M590.18,589.09h-580V10.91h580Zm-579-1h578V11.91h-578Z"/><path class="cls-1" d="M592.11,585.89c0,3.41.39,2.19.46,2.7C592.48,582.88,592,586,592.11,585.89Z"/><polygon class="cls-1" points="591.16 529.53 591.33 530.53 590.91 522.22 591.16 529.53"/><path class="cls-1" d="M591.17,476.84c-.71,5,.12,19.09-.14,28.48l-.16,1.55.57,4.23C591.35,499.69,591,484.87,591.17,476.84Z"/><path class="cls-1" d="M592.71,448.74c-.27,1.73-.24-6.08-.08,6.55,0-.63,0-.82.07-1.19C592.7,453,592.71,451.4,592.71,448.74Z"/><path class="cls-1" d="M592.7,454.1c0,5.55.23-3.63,0,0Z"/><path class="cls-1" d="M592.54,428.47l.25,7.31c.16-1.52.2-8,.32-5.61C593,422.67,592.81,424.21,592.54,428.47Z"/><path class="cls-1" d="M592,421.54l.1,3.79A19.87,19.87,0,0,0,592,421.54Z"/><path class="cls-1" d="M592.34,433.36l-.22-8a8.41,8.41,0,0,0,.08,3.69C592,428.36,592.19,430,592.34,433.36Z"/><path class="cls-1" d="M592.23,437.91c-.15,4.1-.25,9.4-.5,2.06C591.83,454,592.33,451.9,592.23,437.91Z"/><path class="cls-1" d="M590.43,474.15l-.21,5.48.24,4.74C590.34,482,590.66,473.81,590.43,474.15Z"/><path class="cls-1" d="M592.91,382.93c-.15-.45-.41,2.46-.6,3l.17,5.4C592.59,388.56,592.68,383.3,592.91,382.93Z"/><path class="cls-1" d="M592.31,385.94l-.26-8.08C592,385.08,592.14,386.39,592.31,385.94Z"/><polygon class="cls-1" points="591.23 420.24 591.77 433.51 591.22 417.68 591.23 420.24"/><polygon class="cls-1" points="592.93 352.08 593.28 356.66 592.75 348.5 592.93 352.08"/><path class="cls-1" d="M592.87,331.61c.29,3.39.49-4.64.67-1.06,0-5.56-.31-10.31-.53-14.58C593.14,320.51,593.1,325.35,592.87,331.61Z"/><path class="cls-1" d="M592.68,308.79c.07,2.27.2,4.62.33,7.18C592.94,313.56,592.85,311.18,592.68,308.79Z"/><path class="cls-1" d="M592.12,364.1a41.39,41.39,0,0,0,.44-6.36l-.43,3.18C592.13,361.89,592.13,363,592.12,364.1Z"/><path class="cls-1" d="M592.12,361v-.11c0-3.45,0-5.84,0-6.87C592.15,354.93,592.14,357,592.12,361Z"/><path class="cls-1" d="M592.12,364.9v-.8A2.39,2.39,0,0,0,592.12,364.9Z"/><path class="cls-1" d="M591.61,399.06c-.24-4.75-.49-14.64-.86-5.07C591,397.4,591.25,391.92,591.61,399.06Z"/><path class="cls-1" d="M591.59,368.84l-.1,8.59c.11-.17.28-1.72.4.63Z"/><polygon class="cls-1" points="591.45 364.64 591.59 368.84 591.62 365.66 591.45 364.64"/><path class="cls-1" d="M592.28,323.49c-.18-3.71-.2-7.76-.23-12.34-.08,4.91-.13,10-.13,14.8C592.06,326.63,592.3,328.75,592.28,323.49Z"/><path class="cls-1" d="M592.16,341.73c0-.25,0-.58,0-.82C592.1,341.41,592.09,341.82,592.16,341.73Z"/><path class="cls-1" d="M592.05,266.06c0,.25,0,.46-.07.72,0,.06,0,.1.07.17Z"/><path class="cls-1" d="M591.84,326.78c-.08,3.69,0,5.89.16,8,0-2.76-.07-5.68-.08-8.82C591.86,325.65,591.82,325.59,591.84,326.78Z"/><path class="cls-1" d="M592.48,296.21c-.07,1.92-.15,4.1-.23,6.39C592.38,300.72,592.59,296.89,592.48,296.21Z"/><path class="cls-1" d="M592.26,339.66c0,.19,0,.36,0,.56C592.37,339,592.32,339.16,592.26,339.66Z"/><path class="cls-1" d="M592.26,339.66c-.06-1.89-.17-3.39-.26-4.89,0,2.25.08,4.33.14,6.14C592.17,340.45,592.22,340,592.26,339.66Z"/><path class="cls-1" d="M589.31,252.39c.4.66.76,10.36.34,18.73.3,8.24,1.6,2.85,2.33-4.34-.18-.26-.34-.26-.57-8.74-.22,3-.51,18.82-.86,11.67-.21-11.24.14-9.21.35-14.67-.5,4.64-.72-14.29-1.45-11.84l.26,9.85C589.59,253.23,589.41,249.66,589.31,252.39Z"/><path class="cls-1" d="M591.94,282.94l0,3.49c.06-4,.22-6.83.53-12.07-.19-5.81-.34-7-.47-7.41l0,17.18Z"/><path class="cls-1" d="M592,302.09c-.43-2.72-.62-11.1-1.08-6,0,10.24.36,7.18.54,13.3-.1-16.53.24,4.74.49-7.2.07,3.25.09,6.17.11,8.93.07-3,.14-5.85.2-8.55,0,.15,0,.26,0,.38V303c-.06.71-.09.95-.06.15,0-.06,0-.26,0-.35a3.38,3.38,0,0,1-.16-.75c.09-4.78.11-.75.16.75,0,.06,0,.19.07.2V303L592,286.43C591.93,289.93,591.94,294.32,592,302.09Z"/><path class="cls-1" d="M589.83,385.16c0-.51.06-.49.1-.53C589.87,383.56,589.84,383.16,589.83,385.16Z"/><path class="cls-1" d="M590.09,378.35a58.85,58.85,0,0,1,.18,6.12c-.13,3.4-.2,0-.34.16.11,2.36.3,8.26.51.86l-.05-1.17c.14-6.66.68-15.22.74-14.06A64.31,64.31,0,0,0,590.09,378.35Z"/><path class="cls-1" d="M590.93,339.75,590.71,326l-.37,7,.23-.35C590.48,340.47,590.75,338.77,590.93,339.75Z"/><polygon class="cls-1" points="592.27 264.48 592.72 266.31 592.08 258.35 592.27 264.48"/><polygon class="cls-1" points="592.21 246.57 592.61 247.23 592.37 242.5 592.21 246.57"/><path class="cls-1" d="M13.09,208.16l.11,4.05C13.17,210.29,13.13,209.06,13.09,208.16Z"/><path class="cls-1" d="M13.12,178.83l-.2-.72C13,179.47,13.11,180,13.12,178.83Z"/><path class="cls-1" d="M384.89,8.92c-5.9-.37-12.49-.94-11.78-.5l1.81.43C379,8.78,382.2,8.82,384.89,8.92Z"/><path class="cls-1" d="M83.58,11.51l1.73.13,4-.41Z"/><path class="cls-1" d="M79.42,13.3,71.64,13C73.39,13.12,75.89,13.22,79.42,13.3Z"/><path class="cls-1" d="M13.55,368.31,14,373C14,365.64,13.77,368.9,13.55,368.31Z"/><path class="cls-1" d="M592.05,63.1c.17-5.09.24-9.15.27-12.71C592.07,56.53,591.69,61.48,592.05,63.1Z"/><path class="cls-1" d="M8.48,196.62c.08,2.48.17,3.53.27,3.46C8.67,197.53,8.59,196.09,8.48,196.62Z"/><path class="cls-1" d="M592.31,35.69c0,.9-.06,1.78-.1,2.69.08,3.72.13,7.47.11,12C592.5,45.86,592.62,40.68,592.31,35.69Z"/><path class="cls-1" d="M371.27,586.12l1.31,0C372.71,586.11,372.12,586.11,371.27,586.12Z"/><path class="cls-1" d="M540.48,590.49l-7,0C534.78,590.56,536.88,590.55,540.48,590.49Z"/><path class="cls-1" d="M592.4,174.49c0,3.8.05.6,0,0Z"/><path class="cls-1" d="M590.69,193a4.7,4.7,0,0,0-.21-1.52A6.93,6.93,0,0,1,590.69,193Z"/><path class="cls-1" d="M576.12,11.47h-.33C576.92,11.56,576.72,11.54,576.12,11.47Z"/><path class="cls-1" d="M592.21,180.21c0-1.43.09-3.07.12-4.86C592.3,176.13,592.26,177.61,592.21,180.21Z"/><path class="cls-1" d="M592.41,179.44c0,1.31,0,2.34,0,3.32C592.44,183.24,592.49,182.81,592.41,179.44Z"/><path class="cls-1" d="M592.38,169.2c0,2.17,0,4.2,0,6.15,0-.75.06-1.06.07-.86C592.4,173.38,592.39,171.8,592.38,169.2Z"/><path class="cls-1" d="M60.05,587.28l.82,0C64.7,587.14,63,587.17,60.05,587.28Z"/><path class="cls-1" d="M286,13.42l.44,0h-.56Z"/><path class="cls-1" d="M272.36,13.75a97.46,97.46,0,0,1,13.52-.36l-4.52-1.25Z"/><path class="cls-1" d="M13.21,278.37l.39-9.58c.65,11.56.42,19.93,1,10.94-1.36-1.36-.14-37.25-1.49-38.59l.28-6.31c0,1.81.07,2.1.06,3.89.65-12.29-1-9.13-.79-25,.1-5.52.3-9.37.46-5.6l-.34-12.3c0-3.57.27-2.7.24.86L12.88,178l0,.14c-.21-2.67-.54-8.73-.68-11.69.19-4.77.14,2.39.31,1.17l-.33-10.38c.35-4.23.7,4.37.65,11.54,1.35-9.69-.35-8.61.45-29.54l.17,9.81c.77-6.32.49-14,1-25.05-.25,2.62-1.21,22.18-1.55,10.92.1-3.18.15-7.36-.12-13.44.48-.06.36-6,.34-13.42l.64.51c-.19-8-.51-7.4-.8-12.12.06-9,.56-10.81,1-12.91.1-14.33-.79,9.89-.91-7.07.24-11.92,0-20.28-.4-34.54.22-8.34.39,1.46.57-1.53L12.69,33c0-1.81.17-1.22.25-.93-.2-6.23-.64-.51-.81-10.31A17.87,17.87,0,0,1,12,18.07c0-.87.06-1.86.09-3,0-.69.09-1.44.14-2.24L13.8,13l.8,0,1.37.05c1.83.06,3.72.11,5.62.15,3.8.06,7.63,0,11-.19,3,.18-1.44.39-.53.64,16.63-.52,14.26-.38,27.92-1.09L71.64,13c-8.55-.48,2.38-1,11.94-1.51-3-.23-5.62-.44-7.36-.53l15.27-.35c1.84.11.3.33-2.2.6l2.8-.16c5.46.24,2.63.61-1.28,1l-5.5-.39c-3.77.39-7.3.82-6.52,1.19,1-.07,2.91-.13,5-.17-1,.11-1.62.2-1.16.26s2.11-.07,4.61-.23l3.47.71.84-.28,20,.44c14.29-.71,26.72-1.77,49.4-2.07-5.63.53-1.21.86-1.52,1.48-6.18-.66-17.56.28-29.32.14,6.14.07,4.79.37,3.23.47l21-.6c-.47.51,4.45.38,9.93.59-4.14-1,15.63-.66,24.16-1,.53.34-1.51.68-11.92.6,11.48.75,14.84-1.18,26.11-.54a38.17,38.17,0,0,0-4.92.13c5.94-.3,20.45-.06,17,.23h-2.54c16.87.12,51.36,0,53.88-.85a10.45,10.45,0,0,1-3.23,1.2l30.1-2.86c-2.65.73,7.53,2.47-6.46,2.88,4,.11,9,.23,17.45,0-2.74-.1-6.83-1.06-3.08-1.12,10.28.81,7.14.43,19.81,1.13-4.11-.16.45-1.31,6.94-1.27-1,.17.54,1.13-1.83,1.25l16.16-1.12c-4,.2-.71.95,2.9,1.27-1.68-.22,14,0,18.28-.09l-6.85-.26c18.24.16,18-1.59,36.12-1.53-2.19.23-5.41,1.43,3.79,1.57A311.81,311.81,0,0,1,430.82,10l3.07.33,12.29-.38c-7.65.87-29.12,2.69-40.85,3.4,6.83.26,1.91.39,12.13.36,3.61.31-5.57.47-8.58.49l23.8.2c-1.06-.67,18.21-.68,17.3-1.24l-25.86.7c-1-.67,14.95-1.91,31.82-1.79,4.29.27-3.21,1.2-2.86,1.42,2.19-.23,16-.44,17.56-.28l-7.16.36c9.39.26,15.33-.89,26.61-.25,3.89,0,11.63.87,12.3.47C496,13,494.8,10.64,499,10.07c1.37,0,20.45.73,24.89,1.11,6.42.6-9.62,1.43-4.16,2a39.84,39.84,0,0,1,5.25-.49c4.09.16-1.69.57,7.19.49,1.49-.68,18.08.06,4.21-.58,8.69-.19,9.23.14,19.44.11-3.25-.44,9.17-1.49,17.88-1.69-.52.17,1.44.4,2.39.5l13.39.1c-.06,5.1-.12,9.69-.18,14.48s-.09,9.87-.09,15.8c-.17,1.53-.37,9.55-.66,6.13.12,2.39.35,4.59.37,9.71-.59,9.92-.09-11.42-.8-3.86.39.64.54,13.25.79,20.55.61-2.25.12-16.86-.13-24.17.85,0,1.73,12.69,2.12,30.05.21,13.81-.55,6-.43,8.38-.14,25.93,1.48,22.09.87,43.62-.54,8.54-1.07.39-1.46,2.28-.2-11.24.34-17.26.32-24.88L590,119c-.18-3.58-.32-11.08-.16-15.17-.49,7.16-.09,43.8-.54,63.8.18,3.55.37,9.69.58,6.79l-.07-6.33c.43-5.82.6,11.91.8,3.9.3,8.49.78,18,.54,30l-.62,2.24a94.82,94.82,0,0,0,.18-11.17c.27,5-.83,18.33,0,23.78l.42-8.37c.31,8.52,1,19.06.77,29.65.6-4.82-.07-2.44.64-10-.89,6.53,0-27.1-.89-16.61.82-7.73.35-13.37,1-23.47-.21.32-.39,3.58-.29-5.31-.06-.4-.14-1.35-.18-1.95l0-.6c0,.17,0,.31,0,.49,0-.39,0-.42,0,.18-.08,2.12-.19,3.83-.3,4.53-.47-4.41-.45-18.55-.69-23.34.09-5.27.23,2.21.44-.67l-.36-7.14c.45-.71.75-14,1-1.59l0-11.19c.26-6.58.36-15.64.17-21.23.09-5.28-.5-13.33-.15-8.73L592,94l.12-.16c.05-17.31-.75-35.64.06-55.43-.11-5.83-.25-11.85-.12-21.6l.19-1,.1-.48c0-.14.06-.5.1-.75,0-1.77,0-3.77,0-6l-9.19-.05-6.61-.09c-4.22,0-7.8,0-9.19.14-8.07-1.05-36.31-.23-49.47-.42l-.5.51c-9.06,0-17.74.12-29,.32l.69.45c-9.69.37-24.92-.32-40.26-.27a66.94,66.94,0,0,1,7.69,0c-18.32-1-38.65.74-55.27,0-4.14.16-7.14.11-10,0,.39,0,.73,0,1,0h-1.7l-5.75-.24c1.73.11,3.39.2,4.83.24-3.19,0-8,.06-12.78.18l-2-.49-1.1,0c-4.66-.18-3.74.23-1.26.59-2.39.08-4.58.17-6.28.29-3.78-.78-12.45.26-17.61-.57-3.2.41-23.87.31-26.4,1.16-.16-.11-1.56-.17,1-.17-5.29-.1-10.58-.2-15.32,0L305.7,9.6l-11.55.82c-7-.37-9.93-.59-3-1.06-16.84.73-13.66.27-28,1l.7-.39c-5.11,0-13.29.54-16.38.22-11.44-.76-56.63-.11-86-.81,5.7,1.17-13.66-.52-14.82.38-1.71-.27-5.81-.43-1-.67-15,.27-22.53-.44-32.88.33-1.71-.28,3.21-.41,1.68-.57a56.85,56.85,0,0,1-6.32.07c-1.53-.16,2.2-.23,4.57-.35-15.32,0-16.87.9-18,1.7a106.5,106.5,0,0,0-17.24.19c-2.7-.26-7.21-.53,2.31-.62-5.36,0-32.71-.39-33.25.25-1.68-.16-7.49,0-8.9,0l-12.51,0h-13l3.9.11c-.42.07-.84.13-1.26.17s-1,.09-1.56.12c-1.07.06-2.17.09-3.35.1,0,1.08,0,2.21,0,3.42s0,2.21-.06,3.44c-.05,2.28-.09,4.9-.06,8l-.08-.27c-.56,21.81.27,9.42-.37,30.93l.48-1.17c1,2-.61,19.06-.21,31.55l.27-4.51c.35,6.82-1.4,19.06-1.53,25.91-.09,1.49-.14-2.36-.21-4.44-.61,17.93.63,2.32.77,15.68-.34,2.47-.86-3.17-.92,5.82-.28,4.48,1.1,26.08.45,38.35.26-2.7.52-5.39.72.82.09,9.51-1,25.71-.17,34.3a6.08,6.08,0,0,1-.2,1.72c.21,7.27.35,23.63.8,28-1.66,6.72.8,45.2-.72,45l.08,22.37-.16-.59c-.1,14.3.27,19.35.63,24.38-.1,3.3-.24.89-.32.62-.31,20.89-.25,23,.51,40.48l-.49,1.82c.29,4.75-.78,30.2-.2,50.69a10.45,10.45,0,0,1-.22-2.26c.58,23.05-1.38,55.19.43,63.63l.44,15.22c.14-19.68.79,2.93,1.09-5.17.1,7.74-.55,20-.64,10.5l.09-1.49c-.94-3.49-.33,24.45-1,23.93q0,18.16-.09,36-.11,18.83-.23,37.25l43.35.19L47.94,590l12.65,0c3.32.17,4.46.57-4.57.54a82.16,82.16,0,0,0,9.39,0c3.22-.16,5.88-.39,6-.47,17.67.3-6.9.85-1.48.87l7.36-.05-1.66-.09c6-.3,6.49-.61,17.34-.58,6.87.15,3.52.45,6.23.48,0,0,.21,0,.84,0s1.68,0,3.3,0l15.94.06-6.37-.57c7.06-.29,15,0,7.63-.63,10.8,1,59.46.37,66.09.68,9.9-.42,19.67-.42,31.77-.36-3-.12-4.81-.77,5.63-.69-3.82,1.34,19.11.58,27.54,1.54-7.54-.64,29.67-.16,17.84-1.06,8.71.1.53.5,7.14.81,20.73-.52,45.68.34,71.3.16.4-.17-3.89-.44,1.6-.7l13.53.88c5.06-.09,4.66-1,13.9-.41-1.3-.15-3.25-.37.14-.42,50.19.85,102.56-.71,153.53.9-6.9-.34-2.3-.37,3-.38-3.43-.08.08-.44-.59-.68l21.33.67c3.89-.67,22.88,0,25.11-.68l-6.76.11c9-.74-12.57-1.66-11.26-2.61-10.06.84-26.53-1.26-43-.05-3.64-.19,3.11-.31,1.16-.53a161,161,0,0,1-18.6.31l1.06-.1c-26.32.1-37.6-.3-67.16-.57l2.19.47c-6.35-.06-7.69-.21-10.66-.33-7.29.72,17.84,0,11.2.83-8.43-1-44.79,0-50.49-1.11-9.77,0,2.87.55-6.9.55l-2.59-.3-2.47.38c-6.41-.06-9.64-.43-9.88-.68,1.55,0,4.42-.07,6.09-.09-8.31-.35-23.43.11-26.28,0l9.39.18c-26.67.28-59.23-.11-85,.49l2,.23c-19.67.41-15.76-.25-37.36-.06l.79-.05c-4.33.22-10.1.34-16,.31,5.45-.26-10.26-.51-3.11-.8-21.33.45-10.55.35-24.64,1.18l-3.25-.37c-4.8.34-5.21.51-16,.61,8.84-.32-6.89-.57,3-1-22.64-.81-33.61.82-44-.36-10.39,1,19.59.57,13.77.79,4.87.33-8.58.76-15.69.66s-12.29-1.31-30.48-1.29c1.81,0,1.93-.08,3.73-.07-6.8-.26-13.33.35-21.69-.07-4.68.62-10.84,0-12.19.75l16.69-.18c-9.46.21-18.33,1.13-33.92.68,1.22-.16,5.86-.37,9-.48-4.56-.24-8.77.15-13.5-.09,1.35-.79,20.28-.17,30.42-.77-4.89-.34-19.18.57-14.08-.29-7.32,1.09-17.93-.14-30.25.7l.82-.48c-1.95.08-6,.3-9.58.29l6.5-.62c-3.39.18-6.7.19-10,.12L15.55,586l-.61,0H14.5l-.38,0-.69-.07.05-.69,0-.32V584c0-1.52,0-3,0-4.58,0,2.28,0,4.06,0,5.44,0,.44,0,.78-.07,1,.66.09.45.23.15.39s-.63.32,1,.45l-2.11.08c0-.68,0-1.29,0-1.86v-2.65c0-1.73.05-3.15.1-4.38.1-2.45.27-4.14.44-6,.35-3.77.71-8.32.6-21.37.07,3.74-.28,14.06-.5,8.2.09-5.27.28-12.22.52-15.45-.09-18.33-.48,2.81-.78-5,.58-6.24-.23-9-.42-17l.49-.06c.31-20.88-1-5.53-.63-24.33l.66,7.94-.17-9.8.55,2c-.41-10.66-.3-14-.15-24.43-.34,2.43-.87-1.36-.89-10.61.29-6.31.46,3.53.39-9.58a57.88,57.88,0,0,1,.24,11.91c.16.58.3,2.92.46,3.52.33-6.8.07-17.07.07-21.82,0,1.83-.05,4-.12,5.13l-.66-19c.18-3,.32-.61.46,1.74-.05-3.85-.27-6.52-.31-12.18.39,1.47.8,1.12,1,9.13l-.43-18.11c.17-1.21.46-9.29.61-6.94.23-10-.76-24.63-.46-37.94-.07-.69-.15-2.08-.2-4.91.09-12.51.57-23.59,0-38.42l.7-8.41c-.16-11.61-.88,11.39-1.15-7.95-.22-13.68.6-5.11.8-9.91a311.4,311.4,0,0,1-.51-31.22C13.27,271.22,13.16,274.48,13.21,278.37ZM12.9,135.16c.1,2.77.42,8.31.13,10.34C12.48,142.33,12.74,139.89,12.9,135.16ZM104.67,12.44a77.8,77.8,0,0,1-8.86-.11C98.42,12.29,101.38,12.31,104.67,12.44ZM592,132.85c0-.12,0-.2,0-.3C592.18,126.36,592.1,128.56,592,132.85Zm-.21,12.85c.07,1.29.14,1.2.2.66-.12-.9-.13-3.79-.09-7.07A41.74,41.74,0,0,0,591.8,145.7ZM100.63,590.52l-2.5-.12C103.78,590.26,102.2,590.38,100.63,590.52Z"/><path class="cls-1" d="M80,13.1a3.36,3.36,0,0,1-1.19-.27C77.7,12.91,77.68,13,80,13.1Z"/><path class="cls-1" d="M13.47,367.44v.43a1.83,1.83,0,0,0,.09.44Z"/><path class="cls-1" d="M524.86,13.38c-2.64-.07-4.12-.16-5.1-.25C519.61,13.25,520.82,13.35,524.86,13.38Z"/><path class="cls-1" d="M592.62,213.81l-.12-8.23c0,4-.09,5.4-.16,7.41C592.45,212.81,592.61,211.24,592.62,213.81Z"/><path class="cls-1" d="M589.64,285.28c.05,1.2,0,2.55.06,3.74l.23-.33C589.91,283.56,589.73,280,589.64,285.28Z"/><path class="cls-1" d="M591,221.44c-.41.65-.27,5.81-.19,11.58v-1C591.39,233.7,591.21,227.56,591,221.44Z"/><path class="cls-1" d="M590.84,234.36c0,1.78,0,3.59,0,5.33C591.08,240.37,590.9,237.53,590.84,234.36Z"/><path class="cls-1" d="M592.07,162c-.1,2.74.52,1.72.35,3.27C592.94,168.32,591.8,147,592.07,162Z"/><polygon class="cls-1" points="589.68 226.11 590.18 224.04 589.78 220.81 589.68 226.11"/><path class="cls-1" d="M590.05,180.57l-.14,9.21a10.68,10.68,0,0,1,.17,2.47C590.1,186.57,590.2,180.35,590.05,180.57Z"/><path class="cls-1" d="M590.08,192.25c0,3,0,5.77.08,7.42C590.16,198.07,590.14,194.63,590.08,192.25Z"/><polygon class="cls-1" points="589.53 213.51 589.63 210.78 589.67 204.28 589.53 213.51"/><path class="cls-1" d="M590.15,81.5,590,71.44c-.17-1-.27,1.72-.21,5.46C589.91,79.31,590,83,590.15,81.5Z"/><path class="cls-1" d="M588.77,111.92a42.32,42.32,0,0,1,.38-4.44l-.62-.3Z"/><path class="cls-1" d="M588.63,82.59c-.17-1-.5-14.6-.46-1.85C588.34,81.76,588.49,91.83,588.63,82.59Z"/><polygon class="cls-1" points="509.31 11.67 511.87 11.67 511.5 10.65 509.31 11.67"/><path class="cls-1" d="M375.74,14.11c11.92.24,2.83-.63,13.6-.32,2.8-.24-8.8-.25-5.94-.46C376.21,13.58,372.43,13.44,375.74,14.11Z"/><path class="cls-1" d="M383.4,13.33l3.68-.15C385,13.24,384,13.29,383.4,13.33Z"/><polygon class="cls-1" points="568.56 591.04 576.22 591.25 571.27 590.91 568.56 591.04"/><path class="cls-1" d="M583.27,590.28l1.81.65,4.6-.58C588,590.38,584.59,590.43,583.27,590.28Z"/><path class="cls-1" d="M14.21,113.87l-.16-.59a59.93,59.93,0,0,0-.2,6.58Z"/><polygon class="cls-1" points="13.72 217.81 13.74 216.02 13.15 219.37 13.72 217.81"/><path class="cls-1" d="M14.47,305.05c0-3.56-.05-7.75-.08-11.32C14.5,301.49,13.74,306,14.47,305.05Z"/></svg>