<svg id="Laag_1" data-name="Laag 1" xmlns="http://www.w3.org/2000/svg" viewBox="0 0 600 600"><defs><style>.cls-1{fill:#1d1d1b;}</style></defs><title>Rebus 3 Een</title><path class="cls-1" d="M300,184.1c-55.61,0-107.9-5-147.23-14-23-5.27-61.67-16.78-61.67-34.63s38.63-29.36,61.67-34.64c39.34-9,91.62-14,147.23-14s107.89,5,147.23,14c23,5.28,61.67,16.79,61.67,34.64s-38.63,29.36-61.67,34.63C407.9,179.14,355.61,184.1,300,184.1Zm0-95.2c-55.46,0-107.59,4.94-146.79,13.91C115,111.56,93.1,123.47,93.1,135.5s21.91,23.93,60.11,32.68c39.2,9,91.33,13.92,146.79,13.92s107.59-4.94,146.79-13.92c38.2-8.75,60.11-20.66,60.11-32.68S485,111.56,446.79,102.81C407.59,93.84,355.46,88.9,300,88.9Z"/><path class="cls-1" d="M250.7,514.08V347.75l1.58,1.14c.35.25,35.16,24.54,85.78-.09l1.44-.7V420l-.15.25c-.34.53-34.32,53.81-87.06,92.67Zm2-162.54V510.12c49.73-37.19,82.29-86.81,84.8-90.71V351.29c-26.37,12.42-48.23,11.69-62,8.84A72.6,72.6,0,0,1,252.7,351.54Z"/><rect class="cls-1" x="170.9" y="109.04" width="2" height="267.13" transform="translate(-110.89 150.77) rotate(-36.69)"/><rect class="cls-1" x="286.65" y="241.6" width="273.1" height="2" transform="translate(-29.59 424.07) rotate(-51.66)"/><path class="cls-1" d="M512.7,134c0,1.86.82,1.19,1,1.48-.16-1.66-.5-2-.73-1.92S512.59,134.07,512.7,134Z"/><path class="cls-1" d="M495.93,116.05l.52-.08c-1.09-.35-2.19-.65-3.28-.94C494.09,115.36,495,115.68,495.93,116.05Z"/><path class="cls-1" d="M477.14,107.39c1.33,2,7,2.42,10.19,4.46l.42.55c.66-.12,1.33-.23,2-.32C485.6,110.22,479.94,108.83,477.14,107.39Z"/><path class="cls-1" d="M467.69,101c.49.73-2.42-.25,2.4.92-.21-.13-.27-.18-.4-.27C469.26,101.54,468.68,101.34,467.69,101Z"/><path class="cls-1" d="M469.69,101.66c2.1.61-1.22-.87,0,0Z"/><path class="cls-1" d="M460,99.17l2.88.28c-.48-.49-2.92-1.22-2-1.21C458,97.74,458.5,98.21,460,99.17Z"/><path class="cls-1" d="M457.09,99.49l1.48.16C458.36,99.45,458,99.31,457.09,99.49Z"/><path class="cls-1" d="M461.71,100l-3.14-.39c.34.33.26.79,1.43.22C459.64,100.21,460.34,100,461.71,100Z"/><path class="cls-1" d="M463.36,100.74c1.45.73,3.37,1.5.49,1.18C469.12,103.27,468.66,102.07,463.36,100.74Z"/><path class="cls-1" d="M475.66,108.42l1.84,1.12,1.88.21C478.45,109.62,475.69,108,475.66,108.42Z"/><path class="cls-1" d="M442.9,94.32c-.24.26.76,1,.89,1.42l2.12.1C444.9,95.4,442.94,94.79,442.9,94.32Z"/><path class="cls-1" d="M443.79,95.74l-3.17-.14C443.34,96.23,443.89,96.1,443.79,95.74Z"/><path class="cls-1" d="M456.21,100.89c1.75.07,3.49.17,5.25.27q-3.12-.28-6.21-.5Z"/><polygon class="cls-1" points="431.16 91.96 433.03 91.59 429.73 92.06 431.16 91.96"/><path class="cls-1" d="M423.32,90.71c1.4-.35-1.61-1.27-.18-1.39a24.47,24.47,0,0,0-5.75.14A17.19,17.19,0,0,1,423.32,90.71Z"/><path class="cls-1" d="M414.55,89.69a27.28,27.28,0,0,0,2.84-.23A14.45,14.45,0,0,0,414.55,89.69Z"/><path class="cls-1" d="M435.43,94.4a4,4,0,0,0-2.25-1.32l1,1.08Z"/><path class="cls-1" d="M434.26,94.19l0,0-2.59-.54Z"/><path class="cls-1" d="M435.73,94.47l-.3-.07C435.53,94.51,435.59,94.55,435.73,94.47Z"/><path class="cls-1" d="M448.44,98.2c-1.9.06-5.73-.27-2.29,1.25C447.56,99.17,445.59,98.29,448.44,98.2Z"/><path class="cls-1" d="M437,95.8l3.21.86c0-.24-.54-.68.4-.73Z"/><polygon class="cls-1" points="435.38 95.76 437.02 95.81 435.83 95.5 435.38 95.76"/><path class="cls-1" d="M420,91.35a22.91,22.91,0,0,1-4.78-.27c1.85.44,3.76.85,5.6,1.13C421.16,92,422.05,91.64,420,91.35Z"/><path class="cls-1" d="M426.94,92.75h-.32C426.8,92.85,427,92.9,426.94,92.75Z"/><path class="cls-1" d="M398,88.73l.26.19s.05-.1.08-.14Z"/><path class="cls-1" d="M421.15,92.42a6.6,6.6,0,0,0,3.09.21c-1.06-.09-2.18-.23-3.38-.42C420.72,92.32,420.69,92.39,421.15,92.42Z"/><path class="cls-1" d="M409.68,89.39c.71.28,1.52.55,2.38.81C411.38,89.83,410,89.21,409.68,89.39Z"/><path class="cls-1" d="M426.19,92.43h.22C426,92.17,426,92.27,426.19,92.43Z"/><path class="cls-1" d="M426.19,92.43a11.25,11.25,0,0,0-1.95.2c.87.07,1.67.12,2.38.12A2.09,2.09,0,0,1,426.19,92.43Z"/><path class="cls-1" d="M392.2,93.57c.33-.77,4.11-1.07,7.18.17,3.2-.19,1.5-3-1.08-4.82-.14.33-.18.64-3.47.72,1.09.56,7.05,1.87,4.24,2.25-4.33-.11-3.47-.71-5.5-1.36,1.65,1.18-5.61.81-4.83,2.37l3.8-.09C392.58,93,391.19,93.24,392.2,93.57Z"/><path class="cls-1" d="M404.46,89.78l1.35.08a21.6,21.6,0,0,1-4.47-1.67c-2.27.1-2.77.35-3,.59l6.56.94Z"/><path class="cls-1" d="M411.79,90.69c-1.17.71-4.4.62-2.58,1.82,3.9.49,2.83-.33,5.21-.35-6.32-.72,1.88-.21-2.6-1.36,1.26,0,2.38.16,3.44.28-1.12-.27-2.19-.57-3.2-.88l.13.08h0c.25.15.33.22,0,.12a.65.65,0,0,1-.14,0,.85.85,0,0,1-.33.28c-1.8-.44-.26-.26.33-.28,0,0,.08-.07.1-.12h0l-6.38-.42A58.68,58.68,0,0,0,411.79,90.69Z"/><path class="cls-1" d="M442.45,100.53c-.18-.12-.16-.18-.16-.24C441.87,100.31,441.7,100.35,442.45,100.53Z"/><path class="cls-1" d="M440,99.48a4.53,4.53,0,0,1,2.37.12c1.21.52-.1.4-.09.69.93,0,3.23.06.54-.94l-.46,0c-2.44-.84-5.45-2.53-5-2.56A8.62,8.62,0,0,0,440,99.48Z"/><path class="cls-1" d="M425.77,95.06l-5.29-.46L423,95.78l-.06-.47C425.89,96,425.34,95.34,425.77,95.06Z"/><polygon class="cls-1" points="397.49 88.23 398.3 87.41 395.1 88.32 397.49 88.23"/><polygon class="cls-1" points="390.63 87.54 390.96 86.78 389.1 87.06 390.63 87.54"/><path class="cls-1" d="M156.15,165l1.54.11A10.48,10.48,0,0,0,156.15,165Z"/><path class="cls-1" d="M145.42,162.37l-.36.31C145.61,162.59,145.86,162.49,145.42,162.37Z"/><path class="cls-1" d="M221.7,86.39c-2.33-.53-5-1.42-4.61-.56l.78.79A13.24,13.24,0,0,1,221.7,86.39Z"/><path class="cls-1" d="M110.31,116.21l.7-.06,1-1.41Z"/><path class="cls-1" d="M110.59,120.12c-.92.28-1.83.58-2.74.89A26.22,26.22,0,0,0,110.59,120.12Z"/><path class="cls-1" d="M216.16,173.37l1.87-.7C215.24,172.39,216.42,173,216.16,173.37Z"/><path class="cls-1" d="M320.2,83.37a32.66,32.66,0,0,0-4.87-.62C317.68,83.29,319.56,84.08,320.2,83.37Z"/><path class="cls-1" d="M149.8,173c1,.06,1.41,0,1.42-.21C150.23,172.7,149.65,172.73,149.8,173Z"/><path class="cls-1" d="M309.68,82.68c.34.09.68.13,1,.21a33.93,33.93,0,0,1,4.62-.14A11,11,0,0,0,309.68,82.68Z"/><path class="cls-1" d="M435.8,166.49c.17,0,.36,0,.51,0S436.12,166.41,435.8,166.49Z"/><path class="cls-1" d="M499.74,153.47a26.13,26.13,0,0,1-2.33,1.63A13.36,13.36,0,0,0,499.74,153.47Z"/><path class="cls-1" d="M363,84.66c1.47,0,.24-.08,0,0Z"/><path class="cls-1" d="M369.84,88.63c-.32.07-.56.17-.62.37A1,1,0,0,1,369.84,88.63Z"/><path class="cls-1" d="M295.16,88H295C295.46,88.21,295.39,88.17,295.16,88Z"/><path class="cls-1" d="M365.19,85.22a17.35,17.35,0,0,0-1.85-.4C363.64,84.91,364.2,85,365.19,85.22Z"/><path class="cls-1" d="M364.92,84.79l1.27.17C366.39,84.83,366.23,84.73,364.92,84.79Z"/><path class="cls-1" d="M361,84.56a23.45,23.45,0,0,1,2.35.26c-.28-.08-.4-.14-.32-.16Z"/><path class="cls-1" d="M318.47,180.28a2.37,2.37,0,0,1,.31.08C320.23,180,319.59,180,318.47,180.28Z"/><path class="cls-1" d="M185.25,99.88l.15-.07h-.21Z"/><path class="cls-1" d="M180.24,101.32a7.42,7.42,0,0,1,4.95-1.51l-2.08-2.21Z"/><path class="cls-1" d="M182.28,169.67l-3.46-1.35c4.52-.55,7.57.36,4.39-1.25-.47,1.3-4,.82-7.42.29s-6.94-1.12-7.44.17l-2.23-1c.66.15.8,0,1.46.17-4.3-2.16-3.77,1.28-9.56-.34-2-.64-3.32-1.35-1.87-1.35-1.56-.12-3.11-.25-4.67-.39-1.3-.36-.87-.74.42-.38q-3.47-.71-6.91-1.49l.07-.06a36.82,36.82,0,0,1-4.61.17c-1.63-.86.94,0,.59-.48l-3.95-.44c-1.32-1.13,2-.86,4.54-.06-2.75-3.6-3.35-.14-10.34-4,1.19.28,2.4.52,3.59.78-1.79-2.18-4.67-2.49-8.16-4.77.35.41,2.08,1.64,3.21,2.69s1.68,1.9-.42,1.56a12.62,12.62,0,0,0-4.81-1.43c.31-.92-1.84-1.44-4.39-2.43l.65-1.11c-2.85-.77-2.88-.11-4.7-.28a6.7,6.7,0,0,1-2.66-2.05,4.6,4.6,0,0,1-.69-1.73c-2.18-1.26-1.61-.51-1.14.24s.8,1.54-1.94.18a55.6,55.6,0,0,0-4.86-3.11,52.86,52.86,0,0,1-5.24-3.27c-1.49-2.27.87-.19.5-1.14A19,19,0,0,1,98,140.87c-.31-.46.06-.49.24-.51a1.3,1.3,0,0,0-1.3-.51.91.91,0,0,1-.61-.22,3.24,3.24,0,0,1-.43-.42,6.61,6.61,0,0,1-.47-.78c-.79-.13-.84-1.89-.19-3.55s1.79-3.21,2.27-5.23c.84-.54.38.82,1,.87a14.59,14.59,0,0,1,1.44-2.62c.4-.65.79-1.1,1.09-1.56.68-.89,1.2-1.76,2.82-3.76,1.32-.58,2.67-1.09,4-1.57-3.16.81-.41-2.3,2.46-4.8a26.39,26.39,0,0,0-3,.4c1.61-1.17,3.27-2.25,5-3.31.74-.1.37.53-.26,1.44l.84-.74c2.11-.45,1.41.68.38,2l-2.22.2c-.93,1.35-1.68,2.72-1.06,3.24a7.28,7.28,0,0,1,1.48-1.16c-.23.36-.35.63-.14.67s.62-.5,1.31-1.19l1.77.72,0-.64c2.35-.79,4.74-1.47,7.14-2.11,4.41-3.25,8.2-6.85,16.37-9.82-1.77,1.6,0,1.77.26,3-2.62-.62-6.21,2.4-10.44,3.58,2.22-.62,1.93.12,1.44.5,2.35-1.21,4.73-2.39,7.15-3.51.12,1,1.82.25,3.92.1-2.05-1.53,5.33-2.86,8.33-4.2.36.62-.24,1.44-4.08,2.27,4.56.38,4.88-3.66,9.35-3.39-.94.23-1.46.26-1.76.67,2.06-1.11,7.55-1.81,6.4-1l-.93.22c3.15-.57,7.91-1.53,12-2.53s7.47-2.06,7.8-3a6.93,6.93,0,0,1-.81,2.57c3.43-2.52,6.92-5,10.44-7.46-.78,1.6,3.55,4.46-1.58,6.07a20.75,20.75,0,0,0,6.55-1c-1.06,0-2.87-1.72-1.48-2,4.1,1.06,2.82.48,7.77,1.22-1.59-.12-.16-2.61,2.31-2.85-.34.39.48,2.22-.38,2.57l5.83-3c-1.48.58-.05,1.93,1.39,2.4-.68-.37,5.28-.55,6.88-.93l-2.64-.25c6.93-.39,6.5-3.86,13.4-4.37-.79.53-1.79,3,1.72,3,1.49-1.29,6.63-6.12,12.71-7.44l1.22.58,4.66-1.05a125.78,125.78,0,0,1-15.08,7.9c2.63.31.78.7,4.65.35,1.42.51-2,1.09-3.17,1.22q4.51-.16,9-.27c-.5-1.33,6.81-1.8,6.4-2.89l-9.72,2c-.5-1.32,5.41-4.23,11.86-4.36,1.66.44-1.09,2.46-.93,2.9.81-.51,6-1.23,6.64-.92l-2.68.86c3.59.32,5.74-2.08,10.09-1,1.49,0,4.49,1.56,4.71.75-2.46-1.44-3.14-6.17-1.56-7.38.53.07,7.89,1.19,9.61,1.91,2.47,1.14-3.6,3-1.49,3.94.08-.37,1.42-.86,2-1,1.57.28-.62,1.16,2.76.9.54-1.38,6.89,0,1.58-1.18,3.3-.46,3.53.2,7.41.09-1.25-.87,3.46-3,6.8-3.46-.2.35.55.79.92,1,6.81.09,10.46.74,16.8.82.59.34,3.64.78,2.33,1.35a10.91,10.91,0,0,1,3.71-.67c3.76,1.25-4.36.09-1.5,1.57.26-.79,5.07-1,7.87-1.41-.82-1.25-6.43-.4-9.23.06,0-1.69,4.91-3.38,11.59-4,5.3-.25,2.26,1.17,3.18,1,9.91.65,8.59-2.64,16.79-1,3.21,1.25,0,2.14.71,3-4.31.19-6.56-1-9.48-1.09l3.57.67a17.12,17.12,0,0,1-5.81.07c2.69,1,16.72.93,24.29,2.39,1.37-.27,3.74-.47,2.66-1l-2.42,0c-2.16-1,4.63-.88,1.6-1.5,3.29-.37,7-1.06,11.54-.17l.75,1.29c-.07-.36-2.92-1-4.24-.71,2-.4,6.85,2.25,9.08.85l-3.12-1.14c3.31-.32,7.47-1.24,11.49-.42-1.72-1.4-.95,0-3.69-1.66,2.33,2-10.38-1.07-6.53,1.16-2.82-1.9-5.06-1.15-8.82-2.86.09.42,1.31.88-2.09.41a3.64,3.64,0,0,1-.77.3l-.23,0,.18.06c-.15,0-.16.06.07,0a5,5,0,0,1,1.69.74c-1.76.8-7.17.38-9,.74-2-.33.88-.41-.2-.91l-2.78.54c-.21-.91-5.28-1.82-.48-2l-4.3-.29a25,25,0,0,0-8.14-.76c-2-.28-5.16.77-3.37.15l-6.76.29-.05-.23c-6.66-.35-13.72,1.08-21.3-.63a44.84,44.84,0,0,1-8.3.19l-.73-.77c-2.88.25-8.65-.76-9.88.06-3.13-2.08-14-.26-19.05-.46l-.16,1a89.74,89.74,0,0,0-11.12,1l.31.89c-3.69.88-9.59-.2-15.48.25.38-.37,1.88-.37,2.95-.22-7.17-1.63-14.72,2.41-21.19,1.48a9.22,9.22,0,0,1-3.85.33,3,3,0,0,0,.39-.08c-.17,0-.41,0-.65,0-.72-.09-1.46-.2-2.25-.27a12.16,12.16,0,0,0,1.9.3c-1.23.13-3.07.42-4.87.81l-.86-.88-.42.07c-1.82-.17-1.39.6-.37,1.23a15,15,0,0,0-2.34.81c-1.61-1.39-4.7,1-6.86-.4-1.13.93-9,1.68-9.79,3.51-.09-.21-.63-.25.34-.39a16.91,16.91,0,0,0-5.82.86l-1-1.09-4.16,2.26c-2.77-.34-4-.6-1.44-1.93-6.18,2.41-5.12,1.33-10.31,3.65l.13-.83c-1.93.36-4.84,1.95-6.12,1.53-2.3-.35-7.67.61-13.86,1.91s-13.18,3-18.85,3.91c1.38.82,0,.93-1.65,1.07s-3.71.36-3.65,1.3c-.8-.33-2.42-.15-.79-1.16-5.4,2.27-8.68,2-11.94,4.85-.83-.27.88-1.21.2-1.3-.4.28-1.57,1.12-2.27,1.06s.63-.77,1.43-1.33c-2.82,1.16-4.19,2.26-4.82,3.23a3.36,3.36,0,0,0-.4,2.65c-3.07.57-4.42,1.41-5.85,3.36-1.17.06-3,.45.2-1.53A51.33,51.33,0,0,0,101,117.5c-2.58,1.7-4.69,3.79-4.33,4.34a7.51,7.51,0,0,0-2.56,2.7A20.31,20.31,0,0,0,91,129a13.2,13.2,0,0,0-1.47,5.51,10.91,10.91,0,0,1,.4-1.49,6.07,6.07,0,0,1,.5,1.72c.06.58.08,1.17.09,1.85a10.55,10.55,0,0,0,1.1,4.88l-.2,0a14.48,14.48,0,0,0,2.19,4.23,7.86,7.86,0,0,0,1.33,1.39c.38.31.72.65,1.36,1.29s1.51,1.67,3.07,3.23l.21-1.05c1-.57,2.22.81,4,2.47s4,3.64,6.41,4.38c-.45-.42-.89-.86-1.32-1.29,1.33.31,2.67,1.75,4,3.28a18.07,18.07,0,0,0,4,3.77c.48.38-1-.08-1.8-.29,3.07,1.93,3.41,1.7,3.6,1.24s.23-1.19,2.73-.39c.67,1-1.79,1.19,1.5,2.53.74.56,3.36.89,6.29,1.36s6.18,1.07,8.3,2.33c-.87-.79-1.72-1.58.69-1.3,3.57.83,9.14,4.47,12.77,3.61.42.24.56.42.55.55,2.84.23,9.06,1.28,10.89.72.94,1.89,5.31,2.33,9.33,2.61s7.74.4,7.47,1.91c2.84.41,5.68.79,8.53,1.16l-.27.27c5.42,1,7.45.51,9.46,0,1.23.37.27.53.15.68,7.88,1.62,8.71,1.57,15.55.79l.59,1.06c1.87-.37,11.4,2.72,19.35,2.17-.08.11-.26.29-.89.38,8.89-.43,21,4.17,24.44.7l5.86-.62c-7.52-.61,1.19-1.51-1.88-2.25,3-.07,7.61,1.4,4,1.45l-.56-.2c-1.41,1.83,9.34,1,9.1,2.27,14.84.36,29.32,1.47,43.26,1.31l-1.63-1.44h4.85c1.28.32,1.74,1.11-1.73,1.12,1.84.8,5.8-.81,5.89-1.14,6.79.41-2.61,1.77-.53,1.75l2.83-.18-.65-.15c2.28-.66,2.46-1.3,6.62-1.36,2.65.2,1.39.85,2.43.87,0,.1.35.14,1.59,0l6.12-.13-2.49-1.05c2.68-.68,5.74-.2,2.86-1.38,2.12.91,7.83.82,13.32.48s10.77-.91,12.07-.69c3.72-1.14,7.45-1.43,12.08-1.77-1.17-.13-2-1.36,2-1.58-1.2,2.82,7.4.44,10.83,2-3-.92,11.3-1.64,6.56-2.91,3.35-.2.33,1,2.93,1.28,7.76-2,17.5-1.72,27.19-3.81.09-.37-1.63-.61.35-1.5l5.45.77c1.89-.54,1.37-2.32,5.11-1.84-.56-.19-1.38-.47-.12-.84,9.64-1.12,19.22-3.78,28.7-6.88q7.11-2.36,14.2-4.94c4.74-1.73,9.48-3.47,14.37-5.47-2.77.85-1.18-.16.63-1.29-1.27.58-.43-.75-.92-1a45.35,45.35,0,0,0,7.8-4.17c.17-1,1.91-2.72,3.33-4.72s2.41-4.34,2-5a18.44,18.44,0,0,1-1.06,2.86c.15-1.06-.17-1.36-.67-1.26a9.73,9.73,0,0,0-2,1c-1.62.87-3.53,1.57-4.08.74-.53,1.89-2.8,3.09-5.27,4.18s-5.22,2.24-7.37,4.73c-1.37.27.73-1.08-.12-1.14-1,1.44-2.59,2.45-5.92,3.52l.28-.34A68.14,68.14,0,0,1,472,158.52c-3.56,1-7.31,1.8-12.73,3l1,.68a15.91,15.91,0,0,1-4,.43c-2.28,2.11,6.51-1.7,4.52.48-1.8-.48-5.87.62-9.87,1.55s-7.91,1.72-9.19.87c-3.61.76,1.29.85-2.33,1.6l-1.08-.38-.76.94c-2.41.36-3.75-.14-3.94-.62a15.71,15.71,0,0,0,2.22-.62c-3.2-.07-8.64,1.9-9.76,1.85l3.57-.28c-9.84,2.4-22.17,3.44-31.73,5.82l.79.35c-7.33,1.72-6,.24-14.13,1.49l.29-.13a21.93,21.93,0,0,1-6,1.21c2-.71-4-.65-1.32-1.48-8,1.6-3.93,1.06-9.15,3.15l-1.29-.63c-1.77.81-1.9,1.17-6,1.66,3.32-.87-2.69-.94,1-2.05-8.69-1-12.67,2.45-16.75.29-3.85,2.27,7.51.75,5.32,1.3,1.89.56-3.18,1.72-5.9,1.64-2.77.09-4.81-2.38-11.73-2.08.69,0,.73-.17,1.42-.19-2.61-.42-5.05.89-8.25.14-1.75,1.29-4.13,0-4.6,1.64l6.34-.55c-3.58.53-6.93,2.47-12.89,1.68a14.78,14.78,0,0,1,3.43-1c-1.75-.43-3.34.37-5.15-.08.49-1.59,7.72-.47,11.54-1.8-1.87-.61-7.26,1.33-5.36-.43-2.75,2.24-6.82-.14-11.49,1.56l.3-.95a16.6,16.6,0,0,1-3.64.6l2.47-1.25c-3.79,1.08-7.32-.88-10.95-.33,7.61,0,1.71,1.16,4.93,1.85-9.41,1.24-5.4-2.47-15.91-2.15,1.43-.11,5.34.65,3.11,1.06a26.56,26.56,0,0,1-5.86-1.16c-7,.06,1.05,1-1.93,1.53-2.34-1.2-3.43.38-6.5.68v-1c-7.92-.87-2.18,2-9.31.95l3.08-1.23-3.74.21.81-1.07c-4.08.65-5.34.39-9.29-.12.89.72-.61,1.74-4.13,1.57-2.36-.71,1.4-.84-3.59-1a4.56,4.56,0,0,1,4.55-.22c.24-.3,1.14-.54,1.38-.84-2.54-.8-6.46-.51-8.26-.62a10.12,10.12,0,0,1,1.93.34l-7.3.87c-1.11-.44-.19-.67.72-.89-1.46,0-2.51.38-4.66.3.62-.74.54-1.55,3.6-1.71l-6.92.36c-.43-.37-3.44-1.21-2.53-1.43-3.74-.77-9.44.72-14.4-.41a5,5,0,0,1-1.9.22c-4.7-.67-8.76-2.11-14.46-1.74l-3-1.81c-4.4-.27,4,2.34-3.29,1.88-5.21-.28-1.75-1.46-3.5-2.1-2.64.33-7.31,1.09-11.83-.83C179.62,169.14,180.81,169.55,182.28,169.67ZM129.6,158.16c1.05.14,3.2.18,3.75.94C131.89,159.81,131.17,159,129.6,158.16Zm-11.27-43.6a6,6,0,0,1-3.14,1.14A10.89,10.89,0,0,1,118.33,114.56ZM347,84.45l-.12,0C344.51,84,345.35,84.18,347,84.45Zm4.91.69c.5-.11.47-.24.27-.39a6.13,6.13,0,0,1-2.72,0C349.78,85.06,350.41,85.27,351.9,85.14ZM334.17,186.32l-1-.21C335.36,185.75,334.76,186,334.17,186.32Z"/><path class="cls-1" d="M110.58,119.65a.86.86,0,0,1-.63-.26C109.67,119.73,109.75,119.89,110.58,119.65Z"/><path class="cls-1" d="M215.81,173.5l.17,0a.47.47,0,0,0,.18-.15Z"/><path class="cls-1" d="M275.67,92.16a6.46,6.46,0,0,1-2-.45C273.67,92,274.13,92.14,275.67,92.16Z"/><path class="cls-1" d="M378.15,85.47l-3.18,0a9.56,9.56,0,0,1,2.82.57C377.74,85.77,377.16,85.39,378.15,85.47Z"/><path class="cls-1" d="M404.75,94.46c.47-.06,1,.12,1.43.06l-.06-.46C404.17,93.83,402.77,94,404.75,94.46Z"/><path class="cls-1" d="M380.77,88.93c.17.83,2.17.76,4.38.83l-.38,0C385.53,88.65,383.14,88.79,380.77,88.93Z"/><path class="cls-1" d="M385.67,89.78a17,17,0,0,1,2,.2C388,89.55,386.89,89.79,385.67,89.78Z"/><path class="cls-1" d="M358.18,85c1,.28.73-1,1.3-.62C360.72,83.41,352.4,85.16,358.18,85Z"/><polygon class="cls-1" points="382.29 91.77 381.6 90.69 380.29 91.38 382.29 91.77"/><path class="cls-1" d="M365,89.53l3.5.55c0-.17.41-.24,1-.27C367.3,89.6,364.94,89.23,365,89.53Z"/><path class="cls-1" d="M369.47,89.81a12.17,12.17,0,0,0,2.84.07C371.7,89.84,370.38,89.77,369.47,89.81Z"/><polygon class="cls-1" points="377.47 91.61 376.45 91.31 373.98 91.02 377.47 91.61"/><path class="cls-1" d="M327.16,87.37l-3.86.18c-.4.33.65.57,2.08.47C326.31,87.8,327.74,87.72,327.16,87.37Z"/><path class="cls-1" d="M338.67,90.53A3.92,3.92,0,0,1,337,89.7l-.16,1.23Z"/><path class="cls-1" d="M327.48,90.41c-.39.33-5.59.84-.73.89C327.15,91,331,90.81,327.48,90.41Z"/><polygon class="cls-1" points="269.64 88.93 270.62 88.89 270.41 86.85 269.64 88.93"/><path class="cls-1" d="M219.2,97.05c4.55.06,1-1.35,5.08-1.12,1-.58-3.38-.19-2.33-.7C219.27,96,217.82,95.85,219.2,97.05Z"/><path class="cls-1" d="M222,95.23c.43-.12.88-.26,1.36-.44A7.19,7.19,0,0,0,222,95.23Z"/><path class="cls-1" d="M509.34,145.8a20.82,20.82,0,0,0,2.28-3.13,16.87,16.87,0,0,1-1.78,1.88C509.68,145,509.53,145.41,509.34,145.8Z"/><path class="cls-1" d="M511,138.66c.47-.2.95-.43,1.43-.68a15.59,15.59,0,0,0-1-2.48,14.18,14.18,0,0,1,0,1.69A4,4,0,0,1,511,138.66Z"/><path class="cls-1" d="M123.1,153l-.32.21c.29.47.88.74,2.1,1.25C124.27,154,123.69,153.52,123.1,153Z"/><polygon class="cls-1" points="159.98 164.53 159.32 164.36 160.31 165.77 159.98 164.53"/><path class="cls-1" d="M192.62,168.67c-1.32-.24-2.92-.19-4.25-.44C191.3,168.44,192.78,170.17,192.62,168.67Z"/><path class="cls-1" d="M255,515.7c-.58.35.11.88.12,1.06C255.92,515.92,254.86,515.54,255,515.7Z"/><path class="cls-1" d="M262.67,507.41l.05.38c.26-.55.52-1.09.76-1.67C263.22,506.56,262.94,507,262.67,507.41Z"/><path class="cls-1" d="M270.65,500.81c-1.67-.47-2.73,2.58-4.47,3.37l-.44-.06.08,1.42C267.44,504,269.18,501.51,270.65,500.81Z"/><path class="cls-1" d="M276.86,499.51c-.62-.19.58-1.17-1.08.73.14,0,.19,0,.27-.05A9.61,9.61,0,0,1,276.86,499.51Z"/><path class="cls-1" d="M276.05,500.19c-.79.77.84-.13,0,0Z"/><path class="cls-1" d="M279.62,496.56l-.75,1.34c.45,0,1.46-.76,1.26-.27C281.06,496.44,280.61,496.4,279.62,496.56Z"/><path class="cls-1" d="M279.94,494.88l-.42.65C279.71,495.55,279.89,495.45,279.94,494.88Z"/><path class="cls-1" d="M278.64,496.92l.88-1.39c-.31,0-.63-.36-.43.61C278.9,495.74,278.94,496.25,278.64,496.92Z"/><path class="cls-1" d="M277.82,497.36c-.81.31-1.71.86-1-.48C274.93,498.87,275.9,499.36,277.82,497.36Z"/><path class="cls-1" d="M270.1,499.34l-1.1.37-.4,1C268.8,500.2,270.44,499.64,270.1,499.34Z"/><path class="cls-1" d="M286.75,491c-.14-.29-.91-.26-1.25-.46l-.54,1C285.5,491.29,286.39,490.71,286.75,491Z"/><path class="cls-1" d="M285.5,490.53l.79-1.48C285.22,490,285.2,490.35,285.5,490.53Z"/><polygon class="cls-1" points="279.06 493.53 277.86 496.09 279.43 493.19 279.06 493.53"/><polygon class="cls-1" points="291.19 486.78 291.03 487.91 291.45 486.04 291.19 486.78"/><path class="cls-1" d="M294,483.84c-.06.89,1.35,0,1.1.8a7.71,7.71,0,0,0,1.28-2.81A4.73,4.73,0,0,1,294,483.84Z"/><path class="cls-1" d="M296.89,480.36a8.93,8.93,0,0,0-.53,1.47A4.57,4.57,0,0,0,296.89,480.36Z"/><path class="cls-1" d="M288.36,487.28a1.81,1.81,0,0,0,1.51-.25l-1.05-.18Z"/><path class="cls-1" d="M288.78,486.85h0l1-.9Z"/><path class="cls-1" d="M288.24,487.38l.12-.1C288.25,487.26,288.21,487.26,288.24,487.38Z"/><path class="cls-1" d="M282.67,491.3c.35-1,1.4-2.71-.45-1.94C282.13,490.24,283.2,489.8,282.67,491.3Z"/><path class="cls-1" d="M286.93,487.15l-1.35,1c.18.14.63.17.46.66Z"/><polygon class="cls-1" points="287.34 486.38 286.94 487.15 287.44 486.77 287.34 486.38"/><path class="cls-1" d="M294.28,481.87a6.22,6.22,0,0,1,1.38-2.06,17.06,17.06,0,0,0-2.23,1.9C293.53,482,293.58,482.63,294.28,481.87Z"/><path class="cls-1" d="M291.59,484.27l.08-.15C291.55,484.14,291.48,484.18,291.59,484.27Z"/><path class="cls-1" d="M301.81,473.39h-.21l.09.13Z"/><path class="cls-1" d="M293.2,481.71a1.86,1.86,0,0,0-.88,1.34,11.92,11.92,0,0,1,1.11-1.34C293.39,481.58,293.34,481.52,293.2,481.71Z"/><path class="cls-1" d="M298.35,478.31a11.12,11.12,0,0,0-1.23.57C297.58,478.81,298.41,478.56,298.35,478.31Z"/><path class="cls-1" d="M292,484.11l-.05.11C292.25,484.18,292.17,484.13,292,484.11Z"/><path class="cls-1" d="M292,484.11a4.72,4.72,0,0,0,.31-1.06,6.25,6.25,0,0,0-.65,1.07A1.28,1.28,0,0,1,292,484.11Z"/><path class="cls-1" d="M299.62,467.7c.5.63-.26,2.52-2,3.13-.66,1.58,1.94,2.61,4,2.56-.22-.27-.45-.49.35-2-.72.14-3.26,2-2.83.5,1.2-1.89,1.44-1.13,2.47-1.63-1.34,0,.85-3-.55-3.65l-.93,1.75C299.92,468.2,300.13,467.45,299.62,467.7Z"/><path class="cls-1" d="M299.37,475.67l-.39.57a6.71,6.71,0,0,1,2.4-1c.5-1.1.45-1.47.31-1.71l-2.39,2.4Z"/><path class="cls-1" d="M296.82,478.45c-.24-1,.65-2.41-.73-2.34-1.37,1.47-.47,1.5-1,2.62,2.13-2.47-.31,1,1.69-.33a10.39,10.39,0,0,1-1.07,1.41,16.09,16.09,0,0,1,1.46-.93l-.09,0h0c-.18,0-.26,0-.1-.06l0-.06a1,1,0,0,1-.13-.33c.79-.55.27.05.13.33,0,0,0,.09.07.12h0l2-2.66A14.6,14.6,0,0,0,296.82,478.45Z"/><path class="cls-1" d="M282.19,486.81a.25.25,0,0,1,.22.08C282.48,486.67,282.49,486.56,282.19,486.81Z"/><path class="cls-1" d="M283.51,486.27a1.45,1.45,0,0,1-.6,1.1c-.66.27-.28-.3-.5-.48-.18.48-.74,1.56.59.87l.08-.25c1.15-.68,3.1-1.07,3-.83A5.93,5.93,0,0,0,283.51,486.27Z"/><path class="cls-1" d="M290.12,482.23l1.6-2.22-1.5.45.37.27C289.39,481.7,290,481.85,290.12,482.23Z"/><polygon class="cls-1" points="302.34 473.46 302.76 474.35 302.89 472.32 302.34 473.46"/><polygon class="cls-1" points="304.67 470.8 305.16 471.43 305.44 470.43 304.67 470.8"/><path class="cls-1" d="M273.22,363.47l-.86,0A3.59,3.59,0,0,0,273.22,363.47Z"/><path class="cls-1" d="M279.15,364.64l.2-.36C279,364.45,278.91,364.59,279.15,364.64Z"/><path class="cls-1" d="M343.48,394.76c.74-1.15,1.89-2.43,1-2.29l-.87.35A3.46,3.46,0,0,1,343.48,394.76Z"/><path class="cls-1" d="M326,355.15l.41.13.45-1Z"/><path class="cls-1" d="M326.42,358.82c-.55,0-1.11,0-1.66,0A5.13,5.13,0,0,0,326.42,358.82Z"/><path class="cls-1" d="M257.37,360.74a10.8,10.8,0,0,0,.88.81C258.25,361.33,257.8,361.08,257.37,360.74Z"/><path class="cls-1" d="M327.71,442.94a8.68,8.68,0,0,0,1.94-1.67C328.53,441.94,327.33,442.25,327.71,442.94Z"/><path class="cls-1" d="M277.33,354.93c-.48.07-.71.2-.74.4C277.09,355.27,277.38,355.15,277.33,354.93Z"/><path class="cls-1" d="M331.39,439c-.17.09-.31.2-.48.3a8.59,8.59,0,0,1-1.26,2A3.06,3.06,0,0,0,331.39,439Z"/><path class="cls-1" d="M256.65,469.56c0,.08-.06.18-.1.26S256.67,469.73,256.65,469.56Z"/><path class="cls-1" d="M247.89,502.52a12.58,12.58,0,0,1-.06-1.35A3.6,3.6,0,0,0,247.89,502.52Z"/><path class="cls-1" d="M314.39,460.42c-.44.61,0,.15,0,0Z"/><path class="cls-1" d="M309.42,460.92a.54.54,0,0,0-.12-.5A.66.66,0,0,1,309.42,460.92Z"/><path class="cls-1" d="M331.43,429.77l0,0C331.2,429.8,331.25,429.79,331.43,429.77Z"/><path class="cls-1" d="M313.36,461a4.79,4.79,0,0,0,.82-.56A6.64,6.64,0,0,0,313.36,461Z"/><path class="cls-1" d="M313.77,461.18l-.48.44C313.33,461.79,313.46,461.78,313.77,461.18Z"/><path class="cls-1" d="M315,459.59a6.4,6.4,0,0,1-.85.87c.14-.07.21-.09.21,0C314.53,460.25,314.72,460,315,459.59Z"/><path class="cls-1" d="M254.33,408.94l-.08.16C254.61,409.84,254.55,409.52,254.33,408.94Z"/><path class="cls-1" d="M334.47,375.5a.79.79,0,0,0,0,.09l0-.11Z"/><path class="cls-1" d="M333.82,372.84a2.27,2.27,0,0,1,.72,2.64l2.51-.88Z"/><path class="cls-1" d="M260.06,359.62a3.08,3.08,0,0,1,.16.49c0,.06.13.19.26.32l.4.36c-.32,0-.71,0-.92.08l-.2.22a1.08,1.08,0,0,0-.21.29,5.61,5.61,0,0,0-.13.91,2,2,0,0,1,.43-1.15s0,0,0,0l.15,0,.31.07.65.18,1.38.43c1.86.62,3.76,1.13,4.29-.12l1.09.91c-.36-.13-.46,0-.81-.12,2.1,2,2.36-1.34,5.37-.18,1.05.45,1.74,1,.91,1.16.88,0,1.74-.06,2.61-.14.71.19.45.62-.26.43,1.27.17,2.54.34,3.82.44l0,.08a21.18,21.18,0,0,1,2.55-1c.9.49-.52.23-.32.59l2.17-.42c.78.8-1,1.29-2.48,1,.81,1.46,1.29,1.34,2.05,1.11a4.85,4.85,0,0,1,3.9.36l-2,.19c1.19,1.63,2.83,1.22,5.13,2.23-.28-.26-1.43-.9-2.18-1.56s-1.14-1.35,0-1.61a3.71,3.71,0,0,0,2.75-.15c0,1,1.22.77,2.74.68l-.09,1.28c1.66-.39,1.52-1,2.47-1.63a2.84,2.84,0,0,1,2.75,1.82c3,0-2.13-1.45,1.33-1.92a9.46,9.46,0,0,0,3.35-.23,33.65,33.65,0,0,0,3.55-1.35c1.75.21-.18.81.48,1.1.45-.4.89-.84,1.33-1.26.36,0,.3.29.26.46,1.18-.61-.1-1.28,1.77-2,.13-.73,1.21-.4,2.53-.21s2.91.38,3.88-.74c.67.19-.09.83.21,1.26,3-1.9,2.62-1.43,4.81-3.62l2.48.1c-1.94-.41-.18-2.09,1.24-3.64a15.56,15.56,0,0,0-1.69-.52l2.54-1.65c.4.08.28.59,0,1.26.15-.17.29-.33.4-.48,1.16.09.91,1,.43,1.9l-1.28-.38c-.43,1-.81,2-.42,2.69a2.69,2.69,0,0,1,.82-.66c-.11.26-.17.48,0,.57s.35-.28.71-.76l1.14,1.1,0-.58.51-.07a1.32,1.32,0,0,1,.41,0l.5,0a7,7,0,0,1,.89.11,19.16,19.16,0,0,1,2.44-3.26,26.55,26.55,0,0,1,4.55-3.95,1.3,1.3,0,0,1,.19-.13l.05.12.08.27c.05.18.09.39.13.62a3.29,3.29,0,0,0-1.4,1.44c-.45.69-.93,1.48-1.55,2.3a4.52,4.52,0,0,0,.39-.92,1.63,1.63,0,0,0,.07-.33v-.13s-.07,0-.11,0a14.85,14.85,0,0,0-1.57,1.23,4,4,0,0,1-1.39.94c.54-.1,0,.75-.19,1.07.7-.7,1.55-1.49,2.57-2.34l.13-.11s0,0,.06,0a7.61,7.61,0,0,0-1.18,2.61c2-3,1.34.16,1.95.83-.67.47-1.36.69-1.2-.49-.75,1.26-.16,1,.45,1.1s1.26.37.62,1.33c0-.32.09-.55-.25-.54.6.55.12,2.66-.46,2.2l0-.37,0,.19,0,.34c0,.23,0,.47,0,.72,0,.5,0,1,0,1.58,0,1.1.07,2.27.19,3.34.24,2.15.72,4,1.57,4.2a10.62,10.62,0,0,1-2.39-.63l5.72,5.87c-1.46-.52-4.94,1.46-5.77-1.26a5.42,5.42,0,0,0,.07,3.4c.21-.54,2.11-1.33,2.24-.6-1.62,2-.87,1.39-2.25,3.85.31-.8,2.6.09,2.53,1.36-.34-.2-2.26.1-2.5-.36l2.25,3.15c-.41-.79-1.91-.14-2.54.56.44-.32-.05,2.72.18,3.56l.52-1.33c-.34,3.55,3.16,3.51,3,7-.46-.42-2.86-1-3.14.74,1.15.82,5.54,3.64,6.43,6.76l-.66.6.75,2.39a48.8,48.8,0,0,1-6.8-7.95c-.52,1.33-.78.37-.72,2.36-.61.7-.93-1.09-1-1.67l-.4,4.63c1.35-.2,1.35,3.55,2.47,3.37l-1.39-5c1.34-.21,3.81,2.91,3.58,6.19-.54.84-2.4-.62-2.84-.55.46.42.88,3.11.55,3.42l-.72-1.4c-.5,1.83,1.78,3,.5,5.19a4.58,4.58,0,0,1-.8,1.43,2.7,2.7,0,0,0-.34.64c0,.16,0,.13.21.17l.32-.09a3.26,3.26,0,0,0,.39-.18,6.73,6.73,0,0,1,.93-.32,12.71,12.71,0,0,1,2.22-.36,6.62,6.62,0,0,1,3.57.45,7,7,0,0,0-.29.85c-.15.52-.35,1.16-.58,1.77l-.17.45,0,.11-.11.09-.21.17c-.29.23-.56.43-.82.6a5.86,5.86,0,0,1-1.23.69c-.88.23-1.2-.58-1.6-1.24s-.83-1.22-1.5-1.14c.32.17.46.79.46,1-.3.17-.5,0-.7-.15s-.4-.1-.82.66c1,1-2,2.82.5,1.32-.61,1.61-1.23,1.31-2.31,3,1.08,0,1.45,3.19.76,4.79-.22-.28-.81-.23-1.09-.21-2.12,2.75-3.73,3.88-5.68,6.45-.45,0-1.7,1-1.77.16a3.29,3.29,0,0,1-.55,1.94c-2.11.81,1.21-1.86-.81-1.56.55.58-.71,2.69-1.19,4.11,1.23.41,2.21-2.44,2.66-3.87,1.37,1,1.25,4.05-.23,7.22-1.33,2.4-1.58.25-1.68.77-3.39,3.77-.42,5.22-4,7.74-1.88.62-1.7-1.3-2.53-1.51,1.07-2,2.65-2.18,3.55-3.37L317.64,449a4.48,4.48,0,0,1,1.61-2.5c-.81.24-2.19,1.87-3.76,3.74a35.57,35.57,0,0,1-5,5.14c-.17.76-.66,1.92,0,1.77l.68-1c1.39-.31-.59,2.55.73,1.62-.6,1.67-1.11,3.71-3,5.13l-1.21-.48c.3.2,1.56-.66,1.72-1.4-.25,1.09-3.62,1.59-3.13,3.45l1.72-.66c-.65,1.65-1,4.09-2.74,5.37,1.55.12.23-.44,2.27-.6-2.17-.22,3.6-3.95.84-3.64,2.24-.05,2.27-1.5,4.65-2.07-.35-.22-1,0,.26-1.17a1.87,1.87,0,0,1,0-.53l.1-.07-.09.05c0-.1,0-.11,0,0a1.9,1.9,0,0,1-1.05.28c-.13-1.26,1.68-3.37,1.92-4.4.82-.66.08.63.77.48l.36-1.53c.77.47,2.92-1.15,1.74,1.06l1.46-1.66a6.66,6.66,0,0,0,2.9-3c.81-.69.89-2.67.86-1.52l1.75-3,.19.12c2.18-2.64,3.17-6.41,6.78-8.58a11.7,11.7,0,0,1,2.35-3.56l.85.15c.64-1.35,3.24-3.15,2.95-4.14,1.31-.05,2.44-1.46,3.47-3.11.5-.83,1-1.72,1.44-2.52.13-.23.26-.44.39-.66l.54-.86c.35-.55.69-1.05,1-1.47l-.86-.53c1.16-1.1.72-2.75.67-4.26l0-.59,0-.29,0-.18c0-.24-.07-.48-.11-.73-.09-.49-.18-1-.28-1.55l-.9.13c-.73-1.89.64-4.85.55-7.84.34.2.25,1,0,1.5,2-3.57-1.47-7.53,0-10.77a2.37,2.37,0,0,1,0-2,.54.54,0,0,0,0,.2,1.67,1.67,0,0,0,0-.33c.16-.35.34-.72.48-1.12a3.69,3.69,0,0,0-.48.95,13.28,13.28,0,0,0-.35-2.49l1-.4a1.77,1.77,0,0,0,0-.21c.36-.91-.45-.73-1.18-.25a5.12,5.12,0,0,0-.58-1.22c1.56-.74-.52-2.43,1.14-3.43-.81-.63-.61-4.65-2.31-5.14.22,0,.32-.31.34.19a4.59,4.59,0,0,0-.09-3l1.22-.44-1.65-2.25c.75-1.37,1.18-1.94,2.13-.58-1.45-3.28-.55-2.66-2-5.45l.79.14c0-1-1.09-2.59-.43-3.19a6.43,6.43,0,0,0,.69-2.76c0-.61.09-1.29.11-2s0-1.63,0-2.5c0-2.29,0-4.72.14-7.19s.28-5,.62-7.66c-.76,1.54-.91,1.49-.83.84,0-.32.13-.81.24-1.36,0-.27.11-.55.16-.84l.08-.42a1.87,1.87,0,0,0,0-.27,2.91,2.91,0,0,0-2,1.43c.07-.64-.88-.55.88-1.88a28.68,28.68,0,0,1-5.22,2.36,11.1,11.1,0,0,0-4.35,2.66c-.46-.4,1-1.32.59-1.5-.39.3-1.44,1.15-1.92,1s.65-.79,1.42-1.39c-2.44,1.11-3.7,2.18-4.22,3.06a2.8,2.8,0,0,0-.42,1.29,6.72,6.72,0,0,0,.2,1.19c-1.65-.2-2.29.14-3,1.5-.66-.32-1.63-.55,0-1.34-.48.16-2,.44-3.39.85a8.69,8.69,0,0,0-1.78.7c-.47.25-.75.52-.68.84-.4-.23-1.4.27-1.62.49-2.22.53-2.45.42-4.61,1l.65.07c-.54,1.69-1.75.78-3.5,1.25l0-.16c-4.26-.38-1.7.85-5.92.15l.34.93c-.06,1.05-1,.87-2.22.5s-2.64-.83-3.8-.41l.89.51c-1.29.77-3.74-2.61-5-2.9-.28-.18.43-.29.81-.42-3.29-1.2-.41,1.27-2.9,1.55-.44-.69.61-1.7-1-1.88-.4-.31-1.6.26-3,.59a10.66,10.66,0,0,1-2.17.34,3.19,3.19,0,0,1-1.89-.55c.43.58.88,1.15-.32,1.41-1.84,0-4.42-2.63-6.28-1.33a.56.56,0,0,1-.24-.45c-.7.06-1.81,0-2.87,0a5.49,5.49,0,0,0-2.6.33c-.17-1.77-2.27-1.95-4.27-2.18a10.85,10.85,0,0,1-2.59-.49,1,1,0,0,1-.71-1.41,55.12,55.12,0,0,1-6-2.66l.11-.3-.68-.41a9.77,9.77,0,0,0-1.75.29,5.36,5.36,0,0,0-1,.3,6,6,0,0,0-1,.56c-.59-.27-.3-.36-.31-.47-.77-.2-1.31-.36-1.72-.49-.43-.32-.56.32-.76.59a5.84,5.84,0,0,0-.45,1,7.74,7.74,0,0,0-.24,3.19l-1-.46a1,1,0,0,1-.21.67c-.06,1.18-.43,3-.65,5.4-.06.6-.11,1.22-.14,1.87l0,1v.87a9.86,9.86,0,0,0,.35,2.59.75.75,0,0,1-.44-.44c1.16,4.49-2.75,10.75.86,12.39l.89,3c.28-3.83,1.56.58,2.16-1,.21,1.51-1.09,3.9-1.27,2l.18-.29c-1.88-.68-.67,4.77-1.95,4.66.09,7.55-1,14.9-1,22l1.46-.81-.08,2.47c-.34.64-1.14.86-1.08-.89-.83.92.69,2.94,1,3-.59,3.45-1.71-1.34-1.74-.29l.11,1.44.17-.32c.6,1.16,1.23,1.26,1.16,3.37-.3,1.34-.9.69-1,1.22-.11,0-.15.17,0,.8l-.13,3.11,1.16-1.24c.57,1.37-.06,2.92,1.24,1.48-2,2.11-.72,11.59-1.35,12.88.85,1.93.83,3.83.73,6.19.24-.59,1.54-.94,1.38,1.09-2.68-.74-1.16,3.72-3.09,5.37,1.28-1.47.31,5.78,2.13,3.47-.22,1.7-1,.11-1.63,1.39,1,4-.68,8.9-.33,13.89.35.08.89-.76,1.41.31L247.21,468c.17,1,2,.91.81,2.71.29-.26.74-.64.85,0-1.71,9.78,1.4,20-1.82,29.91.69-1.35.75-.45.78.58.16-.67.87,0,1.34-.12l-1.32,4.16c1.32.76.09,4.45,1.35,4.89l-.22-1.32c1.49,1.75,3.31-2.45,5.23-2.19-1.7-2,2.51-5.17.08-8.39.4-.71.62.61,1.07.23-.82-.81-1-1.8-.63-3.62l.21.2c-.2-5.12.6-7.32,1.14-13.08l-.94.43a4.91,4.91,0,0,1,.66-2.08c-1.44-1.42-.08,3.48-1.67,2.18,1.93-1.64,0-8.72,2.22-9.83,0-1.9-1.09.56-1.08-1.35l.59-.5-.76-.48c.12-1.25.86-1.88,1.37-1.93a5,5,0,0,0,.18,1.19c.7-1.62-.24-4.56,0-5.12l-.37,1.83c-.55-5.19.23-11.54-1-16.56l-.44.39c-.83-3.84.49-3.07.1-7.28l.11.15a6.3,6.3,0,0,1-.62-3.12c.52,1.07,1-2,1.6-.6-.89-4.16-.7-2.06-2.36-4.8l.74-.63a4.34,4.34,0,0,1-1.22-3.12c.64,1.72,1.13-1.34,2,.59,1.62-4.41-1.64-6.55.73-8.57-2-2-1.14,3.81-1.58,2.68-.67,1-1.53-1.67-1.33-3s2.63-2.4,2.59-5.94c0,.35.15.37.14.72.52-1.32-.71-2.59.14-4.22-1.24-.91.07-2.11-1.51-2.37l.36,3.25c-.41-1.85-2.26-3.57-1.37-6.61a5.3,5.3,0,0,1,1,1.76c.46-.89-.31-1.71.17-2.63,1.58.26.34,3.95,1.55,5.92.67-1-1.15-3.73.57-2.74-2.18-1.42.27-3.49-1.39-5.89l1,.16a5,5,0,0,1-.58-1.87l1.23,1.27c-1-1.94.92-3.75.35-5.61,0,3.9-1.14.88-1.83,2.53-1.27-4.82,2.48-2.77,2-8.16.14.73-.57,2.74-1,1.6a8.21,8.21,0,0,1,1.06-3c-.2-3.57-1,.55-1.56-1,1.16-1.22-.47-1.76-.84-3.32h1c.61-4.07-2-1.08-1.27-4.74l1.34,1.55-.35-1.91,1.1.39c-.81-2.08-.6-2.72-.29-4.76-.68.47-1.75-.26-1.78-2.07.57-1.22.91.69.77-1.86.61.58,1.37,1.21.48,2.32.31.11.6.57.91.68.66-1.32.15-3.32.14-4.25a2.51,2.51,0,0,1-.22,1l-1.34-3.7c.36-.58.66-.12.94.34a18.18,18.18,0,0,1-.63-2.37c.78.28,1.59.21,2,1.78l-.87-3.53c.34-.24.94-1.81,1.23-1.35a2.87,2.87,0,0,0,.07-.78c0-.13,0-.27,0-.41l0-.21c0-.07,0,0,0-.07a5.39,5.39,0,0,1-.47-.44c-.37-.38-.71-1.08-.4-1.24a1.64,1.64,0,0,1-.23-.28,1.51,1.51,0,0,1-.18-.36.73.73,0,0,1,.43-.47.32.32,0,0,0,.13-.25,1.29,1.29,0,0,0,0-.25s-.05-.15,0-.14a.05.05,0,0,0,0-.05.85.85,0,0,0,0-.35,25.62,25.62,0,0,1,1.35,2.24,4.26,4.26,0,0,0-.61-1.47c-.36-.7-.84-1.47-.21-1.42.45,0,.67.42.77.91a8.57,8.57,0,0,0,.35,1.38l0-.09a1.16,1.16,0,0,1,.71-.92.9.9,0,0,1,.66.07.65.65,0,0,1,.15.1l.07.06.19.13a6.19,6.19,0,0,1,.76.63,3.93,3.93,0,0,1-1.15-.3A.77.77,0,0,0,260.06,359.62Zm28,5.53c-.57.16-1.75.7-2.13.1C286.7,364.2,287.15,364.77,288.1,365.15Zm41.95-9.53c-.22.44-.64.44-1.23.26A1.94,1.94,0,0,1,330.05,355.62Zm-11,98v-.08C320.14,452.85,319.75,453.1,319.08,453.64Zm-1.94,1.67c-.07.28.05.35.22.36-.07-.29.28-.74.75-1.19C317.8,454.46,317.46,454.6,317.14,455.31Zm-69.31-38.47.26-.48C248.36,417.46,248.11,417.15,247.83,416.84Z"/><path class="cls-1" d="M326.39,358.39a.9.9,0,0,1-.4-.42C325.84,358.2,325.89,358.38,326.39,358.39Z"/><path class="cls-1" d="M257.21,360.56v0a1.29,1.29,0,0,0,.17.16Z"/><path class="cls-1" d="M333.84,419.63a1.64,1.64,0,0,1,.79-.28C334.42,419.23,334.16,419.27,333.84,419.63Z"/><path class="cls-1" d="M309.6,466.55l.89-1.39a2.71,2.71,0,0,1-1.2.89C309.48,466.17,309.93,466.16,309.6,466.55Z"/><path class="cls-1" d="M295.73,472.83c-.08.25-.33.37-.4.62l.37.26C296.36,473,296.57,472.2,295.73,472.83Z"/><path class="cls-1" d="M306.22,465.53c-.69-.44-1.16.5-1.8,1.44a.93.93,0,0,1,.14-.14C305.18,467.84,305.7,466.68,306.22,465.53Z"/><path class="cls-1" d="M304.27,467.19a4.71,4.71,0,0,1-.7.78C303.82,468.37,303.93,467.72,304.27,467.19Z"/><path class="cls-1" d="M315.47,458.11c-.5.27.58.93.13.95C316,460.18,317,455.5,315.47,458.11Z"/><polygon class="cls-1" points="303.62 464.43 304.63 464.8 304.45 463.79 303.62 464.43"/><path class="cls-1" d="M310.05,458.26c-.45.4-.92.79-1.39,1.17.14.09.07.33-.06.59C309.36,459.22,310.31,458.43,310.05,458.26Z"/><path class="cls-1" d="M308.6,460a3.31,3.31,0,0,0-.84,1.19A7.55,7.55,0,0,0,308.6,460Z"/><polygon class="cls-1" points="305.02 462.39 305.53 462.13 306.43 461.24 305.02 462.39"/><path class="cls-1" d="M322.48,443.45l1-1.73c-.15-.37-.65-.07-1,.59C322.37,442.82,322,443.48,322.48,443.45Z"/><path class="cls-1" d="M316.64,446.37a1.89,1.89,0,0,1,1.13-.2l-.93-.82Z"/><path class="cls-1" d="M320,441.74c-.15-.37,1-2.84-.5-.84C319.61,441.26,318.64,443,320,441.74Z"/><path class="cls-1" d="M338,418.89l0,.47,2,.46C339.34,419.48,338.66,419.16,338,418.89Z"/><path class="cls-1" d="M333.1,393c-.49,2.32,1.26.55.65,2.65.48.55.49-1.71.91-1.16C334.15,393.07,334.44,392.34,333.1,393Z"/><path class="cls-1" d="M334.66,394.47a5.39,5.39,0,0,0,.31.72A2.77,2.77,0,0,0,334.66,394.47Z"/><polygon class="cls-1" points="246.8 507.99 246.38 509.48 247.06 508.52 246.8 507.99"/><path class="cls-1" d="M248.31,510.86l-1.3.35,1.18.89C248.13,511.77,248,511.11,248.31,510.86Z"/><path class="cls-1" d="M292.44,367.88l.13-.31c-.25-.35-.62-.34-1.37-.43C291.61,367.4,292,367.64,292.44,367.88Z"/><polygon class="cls-1" points="270.98 364.25 271.33 364.37 270.94 363.05 270.98 364.25"/><path class="cls-1" d="M259.34,362s0-.08,0-.14,0,0,0,0,0,0,0,0C259.27,361.6,258.86,360.49,259.34,362Z"/><path class="cls-1" d="M255.42,346.54c.17.36.76-.25.92-.3C255.79,345.83,255.25,346.68,255.42,346.54Z"/><polygon class="cls-1" points="250 342.46 250.34 342.35 249.1 342.08 250 342.46"/><path class="cls-1" d="M246.38,337.57c-.8,1.31,1.5,1.63,1.74,2.8l-.15.34,1.21-.3C248.25,339.47,246.61,338.55,246.38,337.57Z"/><path class="cls-1" d="M246.91,333.12c-.32.49-.8-.28.32.71a.75.75,0,0,1,0-.19A4,4,0,0,1,246.91,333.12Z"/><path class="cls-1" d="M247.26,333.64c.41.49.12-.62,0,0Z"/><path class="cls-1" d="M245.23,331.45l.91.38c.15-.34-.24-1,.12-.9C245.53,330.4,245.37,330.73,245.23,331.45Z"/><path class="cls-1" d="M243.92,331.43l.43.23C244.41,331.51,244.38,331.39,243.92,331.43Z"/><path class="cls-1" d="M245.26,332.14l-.91-.48c-.11.23-.48.52.38.24C244.35,332.1,244.78,332,245.26,332.14Z"/><path class="cls-1" d="M245.4,332.69c0,.56.24,1.17-.66.79C245.86,334.65,246.52,333.86,245.4,332.69Z"/><path class="cls-1" d="M245,338.2l0,.76.71.15C245.41,339,245.34,337.9,245,338.2Z"/><path class="cls-1" d="M242.68,326.79c-.27.14-.48.71-.75,1l.65.29C242.56,327.7,242.35,327.09,242.68,326.79Z"/><path class="cls-1" d="M241.93,327.79l-1-.44C241.4,328.05,241.69,328,241.93,327.79Z"/><polygon class="cls-1" points="242.56 332.26 244.35 332.83 242.37 332.03 242.56 332.26"/><polygon class="cls-1" points="240.58 323.91 241.46 323.91 240.05 323.79 240.58 323.91"/><path class="cls-1" d="M239.07,322.09c.7,0,.47-1,1-.9a3.6,3.6,0,0,0-1.86-.73A1.74,1.74,0,0,1,239.07,322.09Z"/><path class="cls-1" d="M237.2,320.19a4.18,4.18,0,0,0,1,.27A2.53,2.53,0,0,0,237.2,320.19Z"/><path class="cls-1" d="M240.12,326a1.27,1.27,0,0,0,.26-1.1l-.47.8Z"/><path class="cls-1" d="M239.9,325.71v0l-.43-.66Z"/><path class="cls-1" d="M240.18,326.06l-.06-.08C240.08,326.06,240.07,326.1,240.18,326.06Z"/><path class="cls-1" d="M241.72,329.83c-.71-.15-1.81-.76-1.73.56C240.69,330.36,240.65,329.6,241.72,329.83Z"/><path class="cls-1" d="M239.59,327.06l.44.92c.17-.15.32-.49.68-.42Z"/><polygon class="cls-1" points="239.08 326.84 239.59 327.06 239.43 326.73 239.08 326.84"/><path class="cls-1" d="M237.58,322a2.35,2.35,0,0,1-1.23-.87,6.4,6.4,0,0,0,.82,1.53C237.43,322.59,238,322.5,237.58,322Z"/><path class="cls-1" d="M238.65,323.86l-.1,0C238.53,323.91,238.54,324,238.65,323.86Z"/><path class="cls-1" d="M233.25,317l-.08.16.13-.07Z"/><path class="cls-1" d="M237.1,322.86c.12.44.44.52.8.56a4.2,4.2,0,0,1-.73-.73C237.05,322.73,237,322.78,237.1,322.86Z"/><path class="cls-1" d="M236,319.26a3.76,3.76,0,0,0,.06.88C236.17,319.8,236.24,319.19,236,319.26Z"/><path class="cls-1" d="M238.65,323.56s0,0,.07,0C238.79,323.37,238.72,323.43,238.65,323.56Z"/><path class="cls-1" d="M238.65,323.56a2.37,2.37,0,0,0-.75-.14,2.78,2.78,0,0,0,.65.4A1.39,1.39,0,0,1,238.65,323.56Z"/><path class="cls-1" d="M227.9,319a1.27,1.27,0,0,1,1.84,1.33c1,.41,2.76-1.65,3.43-3.19-.29.19-.55.38-1.51-.13-.14.53.49,2.35-.58,2.11-1.1-.79-.41-1-.45-1.77-.47,1-2.14-.47-3.14.63l1.09.6C228.42,318.74,227.88,318.62,227.9,319Z"/><path class="cls-1" d="M234.22,318.69l.32.26a3.47,3.47,0,0,1,0-1.76c-.71-.3-1-.24-1.27-.12l1.1,1.66Z"/><path class="cls-1" d="M235.63,320.4c-.88.27-1.76-.29-2.15.74.75.91,1.07.24,1.8.58-1.32-1.4.71.15.28-1.25a4.24,4.24,0,0,1,.79.69,6.14,6.14,0,0,1-.27-1l0,.06h0c0,.13-.07.19-.08.08l0,0a1,1,0,0,1-.31.13c-.19-.55.13-.2.31-.13l.12,0v0L234.54,319A4.84,4.84,0,0,0,235.63,320.4Z"/><path class="cls-1" d="M237.89,330.68a.34.34,0,0,1,.13-.17C237.86,330.48,237.77,330.48,237.89,330.68Z"/><path class="cls-1" d="M237.84,329.74c.18,0,.53-.07.72.34,0,.47-.33.25-.54.43.34.08,1.06.4.89-.54l-.18,0c-.22-.79.05-2.23.23-2.19A6.34,6.34,0,0,0,237.84,329.74Z"/><path class="cls-1" d="M236.52,325.16l-1.29-1-.11,1.1.33-.3C235.85,325.76,236.18,325.27,236.52,325.16Z"/><polygon class="cls-1" points="233.48 316.58 234.34 316.21 232.76 316.24 233.48 316.58"/><polygon class="cls-1" points="232.16 314.99 232.84 314.57 232.13 314.42 232.16 314.99"/><path class="cls-1" d="M154.51,227.21l-.46-.24A1.27,1.27,0,0,0,154.51,227.21Z"/><path class="cls-1" d="M156.49,230l.36-.17C156.59,229.8,156.42,229.84,156.49,230Z"/><path class="cls-1" d="M201.72,274.28c.18-1,.65-2.28,0-1.68l-.57.69A1.29,1.29,0,0,1,201.72,274.28Z"/><path class="cls-1" d="M176.77,249.47l-.09.32.94-.13C177.35,249.61,177.07,249.54,176.77,249.47Z"/><path class="cls-1" d="M173.6,251.23l-.09-1.06A3.21,3.21,0,0,0,173.6,251.23Z"/><path class="cls-1" d="M142.72,212.92l-1,.09C142.2,213.7,142.33,213.13,142.72,212.92Z"/><path class="cls-1" d="M219.24,298.18a3.74,3.74,0,0,0-.46-1.49C218.8,297.56,218.55,298.46,219.24,298.18Z"/><path class="cls-1" d="M162.69,222.78c-.3-.14-.51-.13-.66,0C162.32,222.92,162.55,223,162.69,222.78Z"/><path class="cls-1" d="M217.76,295.33c0,.14,0,.25,0,.37a3.14,3.14,0,0,1,1,1C218.77,296.05,218.59,295.43,217.76,295.33Z"/><path class="cls-1" d="M103.2,158.69a1.15,1.15,0,0,1,0-.19C103.09,158.56,103.13,158.62,103.2,158.69Z"/><path class="cls-1" d="M98.54,137.78a3.85,3.85,0,0,1,.54.61C99,138.23,98.89,138,98.54,137.78Z"/><path class="cls-1" d="M227.49,308.08c.3.32.11,0,0,0Z"/><path class="cls-1" d="M226,311.85a.59.59,0,0,0-.44.11A.7.7,0,0,1,226,311.85Z"/><path class="cls-1" d="M210.82,295.05l0,0C210.74,295.23,210.75,295.19,210.82,295.05Z"/><path class="cls-1" d="M227.56,308.85a2.13,2.13,0,0,0-.12-.6A2.31,2.31,0,0,0,227.56,308.85Z"/><path class="cls-1" d="M227.84,308.53c.06.15.11.26.16.36S228.19,308.76,227.84,308.53Z"/><path class="cls-1" d="M227.08,307.62a2.33,2.33,0,0,1,.36.63c0-.11,0-.17.05-.17S227.28,307.85,227.08,307.62Z"/><path class="cls-1" d="M126.54,186.13s0-.08,0-.12C126,185.87,126.16,186,126.54,186.13Z"/><path class="cls-1" d="M187.67,270.51h.06s0,0,0-.07Z"/><path class="cls-1" d="M186.21,269.63c1.26-.11,1.39.28,1.51.82l1.69-1.91Z"/><path class="cls-1" d="M149.46,220.86l0,1.35c-1.83-.31-2.05-1.35-2.31.14,2.27-1.49,2.79,3.29,5.06,1.79l0,.93c-.1-.19-.25-.12-.35-.3-.2,1.91,2.2-.33,3,1.37.22.63.17,1.23-.35,1.07l1.39.74c.2.36-.24.56-.44.2l1.47,1.61-.08,0a10,10,0,0,1,1.9.27c0,.68-.39-.05-.58.27l1.24.57c-.27.81-1.41.42-1.82-.31-1.51,2.52,1.14.39,1.31,3.28l-1-.7c-.8,1.5.18,1.88.17,3.48.22-.55.41-3.5,1.73-2.86.06.41.27.86,1.12,1.1-.77.58-.17,1,.39,1.64l-1.06.72c.85.52,1.33.07,2.12.17.51.9-.15,1.66-.68,2.36.83,1.45.59-1.87,2-.44.43,1.4,1.42,1.86,3,2.72.22,1-.73.34-.81.83l1.33.08c.1.18-.19.31-.34.38.75.34,1.06-.72,2,0,1.31-.6-.27,3.1,1.85,3.26-.08.5-.72.34-1.06.72a10.39,10.39,0,0,0,3.67,1.28l.13,1.58c.18-1.36,1.85-1,3.26-.7a10.75,10.75,0,0,0,.34-1.32l1.61,1c0,.3-.5.42-1.1.51a3.83,3.83,0,0,0,.43.07c0,.79-.78,1-1.63,1,.08-.33.16-.66.26-1a4.29,4.29,0,0,0-2.37.82,1.07,1.07,0,0,1,.62.26c-.23,0-.43.08-.5.2s.27.11.7.15l-.9,1.17.51-.26.66,2.38c2.14.47,4.69.36,6.73,2.11-1.23.1-1.45.91-2.47,1.62.63-1.36-1.66-1.3-2.26-2.54a.54.54,0,0,1-.52.85l2.4,1.23c-.84.56-.3.87-.26,1.63,1.32-1.58,2.15.65,3.23,1.07-.5.45-1.19.67-1.78-.39-.42,2,2.91,0,2.66,1.78-.19-.23-.2-.41-.54-.3.89.19,1.51,1.82.8,1.85l-.18-.23c1,1.71,3.53,4.77,5.07,4a17.81,17.81,0,0,1-2.15,1.13l6.67-.63c-1.35.62-3.44,3.65-5.07,2.84A2,2,0,0,0,189,272.1c0-.38,1.22-1.89,1.59-1.63-.6,1.93-.21,1.19-.45,3.19,0-.57,2.12-1.52,2.51-.87-.34.11-1.77,1.4-2.13,1.32l2.92.16c-.6-.14-1.58,1.07-1.84,1.78.24-.42.93,1.32,1.41,1.59l-.05-.95c1,1.9,3.78-.22,4.93,1.53-.52.07-2.67,1.21-2.26,2.23,1.22-.3,5.73-1.58,7.55-.63l-.32.68,1.45.69a40.08,40.08,0,0,1-8.27.28c.06.94-.49.64.26,1.55-.24.7-1.13,0-1.37-.21l1.33,2.44c1-.9,2.33.88,3.17.13l-2.9-1.57c1-.9,4.09-.89,5.06.81-.13.72-2.14,1.13-2.47,1.44.52-.08,1.81.95,1.65,1.29l-1.07-.23c.25,1.17,2.49.35,2.24,2.16.2.42-.58,2.11.1,1.7.79-1.5,4.51-4.45,5.73-4.75a14.56,14.56,0,0,1-.07,3.63c-.52,1.32-3,.83-3.41,1.95a1.81,1.81,0,0,1,1.13-.09c0,.56-1,.52-.28,1.25,1.2-.68,1.16,1.74,1.22-.3.91.57.41,1,1.16,1.93.48-.83,3-.94,4-.37a1.87,1.87,0,0,0-.64.82c1.13,1.73,1.3,3,2.43,4.53-.16.34.08,1.32-.63,1.35.36.08.88,0,1.26.46-.26,1.63-.93-.94-1.55.6.68-.41,1.79.58,2.69,1,.83-.94-1-1.71-1.87-2.09,1.35-1,3.64-.89,5.47.26,1.29,1-.46,1.2-.11,1.28,1.56,2.58,3.89.29,4.4,3-.27,1.43-1.69,1.31-2.18,1.95-1.1-.8-.64-2-1.2-2.69l.24,1.18c-.54-.12-1.27-.65-1.31-1.22-.28,1.24,2.88,4.17,3.55,6.56.53.11,1.25.45,1.4-.07l-.56-.5c.29-1.06,1.78.39,1.56-.6,1.07.43,2.5.74,2.93,2.14l-.83.94c.27-.24.05-1.16-.48-1.25.77.13-.07,2.69,1.59,2.23l.11-1.28c1.08.42,2.85.62,3.27,1.83.64-1.17-.28-.14.34-1.69-1,1.66-1.81-2.55-2.58-.47.79-1.7-.36-1.66.07-3.43-.3.27-.37.79-.83-.15a1.51,1.51,0,0,1-.42,0l0-.07v.07c-.08,0-.09,0,0,0a1.49,1.49,0,0,1-.18.79c-1,.14-2-1.18-2.72-1.34-.21-.6.53-.07.67-.6l-1.07-.23c.67-.6.23-2.19,1.51-1.35l-.74-1.06a2.52,2.52,0,0,0-1.2-2.16c-.21-.61-1.72-.65-.84-.64l-1.66-1.29.17-.15c-1.1-1.67-3.65-2.41-3.72-5.22a4,4,0,0,1-1.69-1.85l.5-.64c-.74-.53-.93-2.55-1.8-2.36,1.12-2-2.14-3.64-2.75-5.08l-.85.56a9.61,9.61,0,0,0-2.51-2.3l-.68.6c-1.26-.46-1.2-2.69-2.34-4.06.35-.11.55.31.57.69.36-2.91-3.85-2.7-3.81-5.12a.92.92,0,0,1-.69-.94.26.26,0,0,0,.11.07.69.69,0,0,0-.11-.17c0-.26,0-.54,0-.82a2,2,0,0,0-.05.74,4.88,4.88,0,0,0-1.17-1l.63-.76-.09-.09c0-.64-.63-.07-1,.59a2.62,2.62,0,0,0-.9-.24c1-1.28-1.28-.84-.3-2.31-.87.19-2.14-1.84-3.68-1.06.17-.15.16-.34.35-.11-.21-.61-.42-1.21-1.14-1.37l.83-.94-2.12-.08c.12-1.1.26-1.63,1.5-1.55-2.32-.69-1.38-.93-3.52-1.4l.68-.41c-.37-.46-1.79-.58-1.48-1.26.42-2-3.74-5.37-4.65-8.93-1.47,1.93-.1-1.88-1.63-.91.32-.49.29-1.06,1-.9-1.47-1.07-.85-2.61-2.79-2.66.33-.49.87-.19,1-.52-.18,0-.71-.16-.56-.5s.53-.07.88,0c-1.13-1.36-2.6-.49-3.95.36.07-1.17-.29-1.46-1.51-1.36.23-.56.36-1.3,1.16-.53-.31-.54-1.64-3.49-2.7-2.78.14-.35-.45-.75-.66-.79a14.09,14.09,0,0,0-1.66-2.34l.06.42c-1.56.49-1-.7-1.76-1.47l.15-.07c-.62-2.68-1.08-.55-1.55-3.3l-.69.68c-1.79,1-.34-2.5-1.83-3.18l-.13.74c-1-.21.93-3.44.67-4.23,0-.24.39.05.64.16-.26-2.38-1.17.54-2.32-.52.37-.64,1.6-.74,1.08-1.65.13-.74-3.57-1.1-3.37-3-.23.56-.47,1.12-1.21.78-.8-.77-.19-3.56-2.1-3.37a.62.62,0,0,1,.21-.41c-.85-.42-2.2-1.76-3.22-1.64,2.19-2.6-4.41-3.22-1.95-5l-1.67-2,.29-.13a2.67,2.67,0,0,0-2.7-1.5c-.06-.43.33-.38.48-.45-.95-2.3-1.19-2.42-3.62-3.13l.67-.76c-.79-.1-.84-3.73-3.18-4.94a.72.72,0,0,1,.51-.05c-2.53-1.44-1.61-6.76-5.08-5.38l-1.77-.88c1.14,2-1.46.66-1.38,1.77-.7-.59-.51-2.5.3-1.73l0,.24c1.75-.8-1.16-2.66-.09-3.38-2.75-3.53-4.52-7.65-7-11.06l-.88,1.27-.81-1.23c0-.51.61-1.09,1.19-.22.33-.94-1.61-1-1.88-.82-.74-2,1.85-.38,1.5-.9l-.6-.62,0,.25c-.89-.19-1.43.14-2.12-.91-.24-.81.48-.86.33-1.15.09-.06.06-.17-.25-.41l-1-1.55-.48,1.28c-.95-.31-1-1.42-1.53,0,.87-2.21-3.53-5.94-3.48-6.93a5,5,0,0,1-2.78-2.51c0,.42-.9,1.37-1.49.3,2.41-1.24-.39-2.46.58-4.39-.51,1.46-2.3-2.56-2.94-.38-.43-.94.76-.65.81-1.64-2.26-1.3-2.61-4.64-4.66-6.8-.31.17-.44.89-1.24.7l.48-2.31c-.49-.36-1.95.78-1.61-.8-.15.3-.37.74-.7.5-2.09-5.68-8.2-8.67-9.14-15.31-.07,1-.44.66-.82.19.1.41-.71.51-1,.85l-.41-2.76c-1.33.43-1.65-2.07-2.82-1.52l.65.49c-1.82.06-1.8,3.15-3.42,4.17,2-.08-.19,4,2.9,4-.06.57-.71.08-.93.52.95-.1,1.43.27,1.78,1.36l-.23,0c2,2.32,2.1,3.85,3.71,6.91l.61-.77a2.32,2.32,0,0,1,.21,1.38c1.65-.18-1.17-1.7.56-2-1,1.93,3.07,4.16,1.7,6,.67.91.68-.92,1.35,0l-.3.6.78-.23a1.47,1.47,0,0,1-.41,1.73c-.06-.18-.42-.32-.57-.45,0,1.19,1.81,2,1.82,2.43l-.35-1.09c2.28,2.14,3.91,5.62,6.65,7.29l.23-.45c2,1.33.69,1.75,2.49,3.52h-.14a2.54,2.54,0,0,1,1.6,1.12c-.8-.2-.11,1.55-1.07,1.24,2.19,1.44,1.29.56,3.6.87l-.37.75a2.22,2.22,0,0,1,2.08.75c-1.13-.44-.44,1.31-1.79.9.26,3.06,3.63,2.13,2.44,4.51,2.37-.26-.43-2.49.32-2.22.2-.85,1.82-.12,2.15.66s-1.26,2.71,0,4.37c-.12-.17-.25-.09-.37-.26,0,.94,1.49.81,1.38,2.09,1.32-.31.69,1.05,2.06.23l-1.45-1.33c1,.63,3.08.35,3.44,2.33a3.24,3.24,0,0,1-1.41-.26c-.06.7.86.63.8,1.35-1.36.82-1.68-1.67-3.34-1.89-.2.86,2.24,1.09.51,1.65,2.26-.63,1,1.82,3.2,2l-.81.49c.25.09.89.2,1.12.54l-1.44.14c1.53.29.59,2.33,1.71,2.87-1.4-1.84.61-1.1.58-2.3,2.72,1.53-1,2.8,1.26,5.09-.36-.26-.51-1.64.25-1.36a4,4,0,0,1,.22,2.06c1.42,1.58.58-.84,1.59-.47-.5,1.27,1,.56,1.85,1.08l-.77.58c.95,2.31,2-.69,2.69,1.5l-1.62.06,1,.71-1,.46c1.38.51,1.44.94,1.92,2.09a1.33,1.33,0,0,1,2.16-.08c0,.93-1,.22,0,1.35-.69.09-1.52.24-1.2-.82-.3.14-.69.09-1,.22-.06,1,1.06,1.67,1.39,2.11a1,1,0,0,1-.17-.61l2.38,1c-.08.49-.48.45-.87.4.35.3.89.28,1.35.75-.73.33-1.36.85-2.21.33l1.95,1.16c-.19.31-.11,1.42-.5,1.37.32,1.21,2.92,1.37,3.35,3a.91.91,0,0,1,.66.21c.72,1.27.72,2.87,2.6,3.6l-.54,1.62c1,.88.63-2.12,2.39-.64,1.31,1-.61,1.19-.59,1.87,1,.2,3,.44,3,2.29C149.87,221.58,149.81,221.15,149.46,220.86Zm10.39,12.89c-.36-.14-1.24-.28-.92-.8C160,232.58,159.77,233.12,159.85,233.75Zm16.89,18.78c-.4,0-.5-.39-.45-.94A1.24,1.24,0,0,1,176.74,252.53ZM224,304.7h-.06C223.8,303.9,223.83,304.19,224,304.7Zm.55,1.44a.31.31,0,0,0,.37-.18c-.26.06-.47-.2-.64-.54C224.12,305.65,224.1,305.91,224.53,306.14ZM129,178.49l0,.38C128.31,178.52,128.62,178.51,129,178.49Z"/><path class="cls-1" d="M174,251a1.4,1.4,0,0,1,.34-.42C174.11,250.6,174,250.71,174,251Z"/><path class="cls-1" d="M142.91,212.91s0,0,0,0a.67.67,0,0,0-.17.06Z"/><path class="cls-1" d="M204.23,292.58a1.27,1.27,0,0,1,.05-.77C204.08,291.94,204,292.17,204.23,292.58Z"/><path class="cls-1" d="M230.55,311.47l-.77-.62a1.11,1.11,0,0,1,.26.88C230.21,311.58,230.36,311.24,230.55,311.47Z"/><path class="cls-1" d="M230.69,321.65c.18.05.19.23.37.27l.34-.3C231,321.17,230.48,321.05,230.69,321.65Z"/><path class="cls-1" d="M228.5,314.09c-.6.54,0,.86.49,1.3a.71.71,0,0,1-.07-.09C230,314.78,229.23,314.43,228.5,314.09Z"/><path class="cls-1" d="M229.11,315.5a1.75,1.75,0,0,1,.38.48C229.91,315.77,229.42,315.72,229.11,315.5Z"/><path class="cls-1" d="M226.09,307.33c0,.37.95-.47.79-.12C227.92,306.87,224.62,306.26,226.09,307.33Z"/><polygon class="cls-1" points="226.68 316.12 227.34 315.33 226.47 315.51 226.68 316.12"/><path class="cls-1" d="M224.13,311.46l.41,1c.13-.11.29-.06.45,0C224.62,312,224.35,311.26,224.13,311.46Z"/><path class="cls-1" d="M225,312.5a1.23,1.23,0,0,0,.64.59A2.88,2.88,0,0,0,225,312.5Z"/><polygon class="cls-1" points="225.57 315.13 225.55 314.75 225.16 314.11 225.57 315.13"/><path class="cls-1" d="M217.45,302.17l-.93-.76c-.34.11-.32.49,0,.75C216.92,302.24,217.29,302.51,217.45,302.17Z"/><path class="cls-1" d="M217.35,306.63c0-.38.14-.53.3-.87l-1,.71Z"/><path class="cls-1" d="M215.09,304.08c-.35.11-1.8-.76-.86.37C214.57,304.34,215.5,305.11,215.09,304.08Z"/><polygon class="cls-1" points="205.89 289.1 206.08 289.33 207.69 288.08 205.89 289.1"/><path class="cls-1" d="M192.76,279.64c.43,1.4,1.2-.49,1.46.87.58,0-.21-1.11.32-1.09C193.64,279.06,193.61,278.53,192.76,279.64Z"/><path class="cls-1" d="M194.54,279.42a3,3,0,0,0,.5.15A1.28,1.28,0,0,0,194.54,279.42Z"/><polygon class="cls-1" points="97.48 134.53 97.29 133.56 97.09 134.43 97.48 134.53"/><path class="cls-1" d="M95.25,134.07l.92-.95-1.26.28C95.08,133.53,95.4,133.77,95.25,134.07Z"/><path class="cls-1" d="M159.22,237.29l.29-.14c.19-.31.08-.49-.12-.86Z"/><polygon class="cls-1" points="152.82 227.08 152.93 227.26 153.64 226.25 152.82 227.08"/><path class="cls-1" d="M145.6,219.89c.21.36.71.59.91,1C145.81,220.25,146.71,218.92,145.6,219.89Z"/><path class="cls-1" d="M342.52,352.47c-.31.27.44.68.52.82C343.31,352.64,342.34,352.35,342.52,352.47Z"/><polygon class="cls-1" points="345.15 346.07 345.35 346.38 345.3 345.09 345.15 346.07"/><path class="cls-1" d="M349,341.2c-1.49-.43-1.22,1.91-2.31,2.46l-.37-.05.6,1.1C347.64,343.54,348.13,341.7,349,341.2Z"/><path class="cls-1" d="M353.51,340.51c-.56-.18.07-.86-.62.5l.2,0A3.21,3.21,0,0,1,353.51,340.51Z"/><path class="cls-1" d="M353.09,341c-.38.54.63-.05,0,0Z"/><path class="cls-1" d="M354.72,338.42l-.15,1c.37.06.9-.49.91-.12C355.82,338.41,355.45,338.36,354.72,338.42Z"/><path class="cls-1" d="M354.41,337.13l-.12.48C354.45,337.63,354.56,337.57,354.41,337.13Z"/><path class="cls-1" d="M354.05,338.63l.24-1c-.25-.05-.63-.32-.14.44C353.87,337.73,354.07,338.13,354.05,338.63Z"/><path class="cls-1" d="M353.55,338.91c-.54.19-1.09.56-.94-.43C351.74,339.9,352.68,340.33,353.55,338.91Z"/><path class="cls-1" d="M348.07,340l-.73.25,0,.74C347.35,340.65,348.44,340.28,348.07,340Z"/><path class="cls-1" d="M358.63,334.66c-.2-.24-.81-.28-1.16-.47l-.12.72C357.72,334.78,358.25,334.41,358.63,334.66Z"/><path class="cls-1" d="M357.47,334.19l.19-1.07C357.08,333.75,357.18,334,357.47,334.19Z"/><polygon class="cls-1" points="353.26 336.02 353.15 337.93 353.44 335.78 353.26 336.02"/><polygon class="cls-1" points="360.92 331.82 361.14 332.68 360.9 331.27 360.92 331.82"/><path class="cls-1" d="M362.33,329.85c.2.67,1.11.18,1.13.73a3.74,3.74,0,0,0,.24-2C363.56,329.16,363.16,329.56,362.33,329.85Z"/><path class="cls-1" d="M363.71,327.51a5.36,5.36,0,0,0,0,1.07A2.54,2.54,0,0,0,363.71,327.51Z"/><path class="cls-1" d="M358.78,331.94a1.36,1.36,0,0,0,1.15-.05l-.9-.24Z"/><path class="cls-1" d="M359,331.64h0c.26-.31.45-.52.54-.61Z"/><path class="cls-1" d="M358.72,332l.06-.07C358.69,331.91,358.66,331.91,358.72,332Z"/><path class="cls-1" d="M355.42,334.54c0-.73.29-2-1-1.53C354.65,333.68,355.38,333.43,355.42,334.54Z"/><path class="cls-1" d="M357.59,331.71l-.78.68c.19.12.56.18.58.55Z"/><polygon class="cls-1" points="357.69 331.15 357.59 331.71 357.88 331.46 357.69 331.15"/><path class="cls-1" d="M362,328.37a2.43,2.43,0,0,1,.54-1.43,6.49,6.49,0,0,0-1.29,1.21C361.42,328.38,361.65,328.88,362,328.37Z"/><path class="cls-1" d="M360.48,329.92l0-.11C360.41,329.81,360.37,329.83,360.48,329.92Z"/><path class="cls-1" d="M365.86,322.77l-.18,0,.11.11Z"/><path class="cls-1" d="M361.08,328.13a.8.8,0,0,0-.35.93,5.36,5.36,0,0,1,.53-.91C361.19,328.05,361.13,328,361.08,328.13Z"/><path class="cls-1" d="M364.32,326.09a4.76,4.76,0,0,0-.84.31C363.83,326.39,364.44,326.3,364.32,326.09Z"/><path class="cls-1" d="M360.78,329.84a.22.22,0,0,1,0,.08C361,329.92,360.92,329.88,360.78,329.84Z"/><path class="cls-1" d="M360.78,329.84a2.3,2.3,0,0,0,0-.78,2.67,2.67,0,0,0-.22.75A.86.86,0,0,1,360.78,329.84Z"/><path class="cls-1" d="M362.55,318.1a1.3,1.3,0,0,1-.84,2.15c-.14,1.14,2.3,2.25,4,2.49-.25-.24-.5-.44-.25-1.51-.55,0-2.17,1.11-2.21,0,.51-1.3.9-.68,1.63-.93-1.12-.18-.08-2.21-1.4-2.89l-.32,1.23C362.94,318.53,362.92,318,362.55,318.1Z"/><path class="cls-1" d="M364.43,324.19l-.17.38a3.55,3.55,0,0,1,1.72-.45c.13-.78,0-1.07-.19-1.27l-1.35,1.52Z"/><path class="cls-1" d="M363.11,326c-.48-.78-.15-1.79-1.26-1.89-.7,1,0,1.11-.11,1.91,1-1.66,0,.74,1.28-.07a3.81,3.81,0,0,1-.47,1,6.24,6.24,0,0,1,.93-.54h-.08c-.14,0-.2,0-.1-.06l0,0a1.65,1.65,0,0,1-.21-.27c.49-.34.24.07.21.27l.08.1h0l.85-1.83A5,5,0,0,0,363.11,326Z"/><path class="cls-1" d="M353.63,331a.34.34,0,0,1,.2.07C353.83,331,353.8,330.87,353.63,331Z"/><path class="cls-1" d="M354.54,330.73c0,.19.2.49-.15.8-.45.15-.32-.26-.56-.42,0,.36-.12,1.15.75.73v-.19c.72-.43,2.2-.56,2.2-.37A6.25,6.25,0,0,0,354.54,330.73Z"/><path class="cls-1" d="M358.69,328.2l.68-1.54-1.1.18.37.25C357.93,327.71,358.49,327.89,358.69,328.2Z"/><polygon class="cls-1" points="366.31 322.89 366.89 323.62 366.46 322.09 366.31 322.89"/><polygon class="cls-1" points="367.54 321.16 368.11 321.71 368.08 320.98 367.54 321.16"/><path class="cls-1" d="M433.89,221.43l.12-.52A1.57,1.57,0,0,0,433.89,221.43Z"/><path class="cls-1" d="M431.7,224.11l.25.31C431.88,224.16,431.8,224,431.7,224.11Z"/><path class="cls-1" d="M399.7,280.35c1-.09,2.39,0,1.64-.47l-.81-.37A1.35,1.35,0,0,1,399.7,280.35Z"/><path class="cls-1" d="M417.71,249.23h-.34l.36.89C417.72,249.84,417.71,249.54,417.71,249.23Z"/><path class="cls-1" d="M415.2,246.61l1-.37A3.11,3.11,0,0,0,415.2,246.61Z"/><path class="cls-1" d="M444.9,206l-.34-1C444,205.72,444.61,205.7,444.9,206Z"/><path class="cls-1" d="M380.73,304a4,4,0,0,0,1.34-.85C381.23,303.38,380.28,303.37,380.73,304Z"/><path class="cls-1" d="M440.27,228.21c.06-.33,0-.54-.16-.65C440,227.89,440.06,228.12,440.27,228.21Z"/><path class="cls-1" d="M383.14,301.75c-.13,0-.23.09-.36.12a3.23,3.23,0,0,1-.71,1.25C382.69,302.93,383.25,302.59,383.14,301.75Z"/><path class="cls-1" d="M488,152.66a1,1,0,0,1,.18-.06C488.11,152.52,488.07,152.57,488,152.66Z"/><path class="cls-1" d="M507.28,142.41a4.41,4.41,0,0,1-.45.69A1.39,1.39,0,0,0,507.28,142.41Z"/><path class="cls-1" d="M373.11,314.72c-.23.39,0,.12,0,0Z"/><path class="cls-1" d="M369.07,314.3a.63.63,0,0,0-.22-.4A.85.85,0,0,1,369.07,314.3Z"/><path class="cls-1" d="M381.68,294.9l0,0C381.49,294.87,381.53,294.87,381.68,294.9Z"/><path class="cls-1" d="M372.38,315a2,2,0,0,0,.56-.29A3.34,3.34,0,0,0,372.38,315Z"/><path class="cls-1" d="M372.76,315.19l-.31.25C372.53,315.58,372.63,315.59,372.76,315.19Z"/><path class="cls-1" d="M373.46,314.2a2.1,2.1,0,0,1-.52.51c.1,0,.16,0,.17,0Z"/><path class="cls-1" d="M467,182.93l.12,0C467.16,182.33,467.08,182.52,467,182.93Z"/><path class="cls-1" d="M399.87,265.6s0,0,0,.07l.07,0Z"/><path class="cls-1" d="M400.37,263.94c.42,1.2.07,1.43-.43,1.69l2.29,1.14Z"/><path class="cls-1" d="M438.84,214.77l-1.31.4c-.16-1.87.8-2.37-.72-2.21,2,1.81-2.51,3.62-.48,5.43l-.91.23c.15-.15.05-.28.2-.43-1.92.33.87,2.06-.59,3.29-.57.38-1.16.49-1.14,0l-.37,1.55c-.31.3-.61-.07-.31-.37l-1.2,1.87-.06-.06a10.29,10.29,0,0,1,.22,1.93c-.66.2-.05-.4-.41-.5l-.24,1.37c-.87,0-.77-1.26-.17-1.87-2.83-.78-.09,1.23-2.87,2.18l.45-1.12c-1.67-.37-1.79.68-3.36,1.11.59.07,3.53-.55,3.23.91a1.35,1.35,0,0,0-.79,1.4c-.76-.59-1,.1-1.51.83l-1-.84c-.3,1,.26,1.31.37,2.11-.76.75-1.67.31-2.48,0-1.21,1.2,2,.07.92,1.79-1.26.8-1.46,1.9-1.91,3.7-.95.5-.5-.62-1-.57l.26,1.32c-.15.15-.36-.1-.46-.23-.15.83,1,.85.52,2,.91,1.12-3.09.58-2.72,2.7-.5,0-.51-.62-1-.84a10.58,10.58,0,0,0-.33,3.93l-1.52.56c1.38-.2,1.48,1.52,1.51,3a13.09,13.09,0,0,0,1.37,0L418.5,251c-.3,0-.53-.37-.77-.93,0,.16,0,.31,0,.45-.77.21-1.14-.51-1.42-1.32l1,0a4.23,4.23,0,0,0-1.39-2.08,1.23,1.23,0,0,1-.1.68c-.09-.23-.19-.4-.32-.44s0,.29,0,.72l-1.37-.56.38.43-2.16,1.3c.08,2.21.82,4.67-.38,7.14-.41-1.17-1.25-1.17-2.2-2,1.48.24.85-2,1.92-2.9a.54.54,0,0,1-1-.28l-.6,2.69c-.76-.68-.92-.06-1.65.18,1.87.86-.1,2.28-.24,3.45-.57-.37-1-1-.07-1.85-2,.13.76,2.84-1.07,3.09.17-.25.36-.31.16-.62,0,.92-1.4,2-1.61,1.29l.18-.24c-1.43,1.42-3.78,4.75-2.63,6a16.23,16.23,0,0,1-1.64-1.79l2.28,6.34c-.95-1.15-4.42-2.36-4.05-4.17a2.06,2.06,0,0,0-1.22,1.66c.36-.13,2.15.67,2,1.1-2-.05-1.2.12-3.22.44.55-.19,2,1.66,1.48,2.21-.2-.31-1.81-1.35-1.83-1.72l.58,2.89c0-.62-1.44-1.25-2.2-1.31.46.12-1.06,1.27-1.2,1.81l.91-.31c-1.6,1.48,1.16,3.63-.26,5.23-.2-.49-1.84-2.27-2.74-1.59.6,1.1,3,5.16,2.5,7.2l-.74-.13-.31,1.61a40.24,40.24,0,0,1-2.34-8c-.91.31-.75-.3-1.45.68-.75-.05-.33-1.09-.14-1.39L387.61,278c1.14.74-.27,2.53.67,3.14l.81-3.26c1.12.73,1.89,3.75.47,5.16-.73.07-1.64-1.78-2-2,.2.49-.48,2-.85,2l0-1.11c-1.08.56.28,2.52-1.56,2.77-.35.31-2.21,0-1.63.56,1.67.37,5.48,3.2,6.08,4.3a14.89,14.89,0,0,1-3.57.93c-1.42-.15-1.55-2.67-2.76-2.81a1.9,1.9,0,0,1,.38,1.09c-.55.18-.77-.86-1.29.06,1,1-1.42,1.61.59,1.11-.33,1-.89.68-1.6,1.66.93.25,1.68,2.71,1.35,3.76a1.73,1.73,0,0,0-1-.4c-1.4,1.57-2.59,2.07-3.82,3.6-.37-.06-1.27.44-1.48-.24a1.77,1.77,0,0,1-.13,1.35c-1.65.19.69-1.17-1-1.35.57.55-.12,1.91-.26,2.89,1.12.55,1.42-1.42,1.56-2.4,1.33,1,1.78,3.32,1.12,5.41-.68,1.54-1.29-.12-1.28.25-2.13,2.22.7,3.88-1.84,5.11-1.47.13-1.7-1.29-2.45-1.59.5-1.3,1.8-1.18,2.32-1.91l-1.08.55a1.78,1.78,0,0,1,.86-1.6c-1.28.06-3.35,3.94-5.52,5.24,0,.56-.13,1.36.42,1.35l.34-.68c1.11,0,.07,1.85,1,1.36-.15,1.17-.09,2.64-1.35,3.44l-1.13-.55c.3.2,1.15-.27,1.1-.81.06.8-2.64.67-1.79,2.17l1.28-.25c-.14,1.17.11,2.95-1,3.7,1.31.3.07-.32,1.74-.13-1.86-.49,2-2.47-.18-2.65,1.85.31,1.52-.8,3.36-.87-.34-.22-.86-.15-.06-.85a1.56,1.56,0,0,1-.13-.4l.06,0-.07,0c0-.07,0-.08,0,0a1.51,1.51,0,0,1-.81,0c-.4-1,.65-2.28.63-3,.53-.37.2.49.75.49l0-1.11c.76.49,2.2-.37,1.7,1.11l.85-1a2.63,2.63,0,0,0,1.81-1.77c.54-.37.2-1.85.41-1l.85-2,.19.13c1.36-1.54,1.44-4.23,4.16-5.06a4.23,4.23,0,0,1,1.39-2.15l.75.3c.34-.86,2.26-1.59,1.86-2.39,2.23.54,3-3.09,4.27-4.07l-.76-.68a10,10,0,0,0,1.63-3.08l-.76-.49c.13-1.36,2.33-1.92,3.38-3.39.19.31-.16.61-.53.74,2.93-.44,1.68-4.5,4.05-5.12a1,1,0,0,1,.75-.93.2.2,0,0,0,0,.13.67.67,0,0,0,.13-.15c.26-.08.53-.14.8-.24a2.44,2.44,0,0,0-.73.15,5,5,0,0,0,.65-1.4l.91.41c0-.05,0-.07.06-.12.62-.21-.09-.63-.84-.85a3,3,0,0,0,0-.94c1.49.61.5-1.48,2.18-.93-.4-.8,1.27-2.59.12-3.88.19.12.37.06.19.31.54-.37,1.08-.74,1.05-1.48l1.13.55-.45-2.09c1.1-.19,1.66-.19,1.89,1,.09-2.46.57-1.6.49-3.82l.57.56c.35-.5.12-1.91.86-1.79,2-.13,4.31-5.12,7.56-7-2.25-.92,1.82-.62.49-1.85.56.18,1.1,0,1.13.74.67-1.73,2.33-1.55,1.9-3.45.56.18.4.8.76.86,0-.19,0-.74.35-.68s.2.49.22.86c1.05-1.48-.17-2.68-1.34-3.77,1.16-.25,1.36-.67.95-1.84.61.07,1.36,0,.81,1,.46-.45,3-2.56,2-3.4.37.05.62-.63.61-.86a14.3,14.3,0,0,0,1.87-2.26l-.4.18c-.87-1.39.45-1.12,1-2.12l.1.12c2.47-1.33.28-1.2,2.85-2.4l-.84-.49c-1.47-1.47,2.35-1,2.65-2.66l-.76.08c-.06-1.07,3.59,0,4.3-.5.25,0,0,.4,0,.67,2.27-.9-.81-1-.06-2.41.71.19,1.12,1.36,1.87.61.76-.08.19-3.78,2.11-4.11-.61-.08-1.22-.15-1.07-1,.55-1,3.43-1.16,2.77-3a.62.62,0,0,1,.45.1c.2-.94,1.18-2.63.8-3.59,3.09,1.44,2-5.18,4.43-3.27l1.51-2.18.2.25a2.74,2.74,0,0,0,.8-3c.4-.18.45.22.55.35,2-1.56,2.07-1.83,2.16-4.4l.91.45c-.11-.8,3.43-1.83,4-4.45a.68.68,0,0,1,.19.49c.77-2.86,6.2-3.41,4-6.43l.42-2c-1.66,1.65-1-1.25-2.08-.87.4-.85,2.32-1.18,1.77-.18l-.25,0c1.22,1.49,2.32-1.86,3.28-1,2.77-3.65,6.35-6.5,9.07-9.81l-1.45-.52,1-1.12c.51-.09,1.22.3.51,1.1,1,.07.57-1.84.34-2.06,1.76-1.27.83,1.7,1.25,1.22l.46-.75-.26.05c0-.92-.49-1.37.36-2.33.74-.45,1,.24,1.21,0,.08.07.19,0,.34-.36l1.26-1.4-1.37-.12c.07-1,1.15-1.35-.42-1.48,2.37.25,4.93-5.06,5.9-5.29a5.18,5.18,0,0,1,1.76-3.39c-.41.13-1.56-.51-.67-1.38,1.82,2,2.31-1,4.44-.63-1.55-.1,1.93-2.95-.36-3,.81-.67.82.58,1.8.35.71-2.56,3.88-3.81,5.48-6.4-.25-.25-1-.19-1-1l2.37-.17c.24-.57-1.25-1.69.38-1.79-.32-.06-.82-.16-.66-.54,5-3.59,6.42-10.37,12.68-13.1-1,.22-.76-.25-.39-.75-.38.22-.68-.55-1.1-.78l2.6-1.16c-.75-1.18,1.61-2.17.78-3.16l-.32.77c-.51-1.76-3.52-.9-4.93-2.21.59,2-3.92.9-3.22,3.94-.57.09-.26-.67-.75-.77.34.9.1,1.47-.87,2.11l-.08-.22c-1.77,2.56-3.23,3.1-5.82,5.51l.9.38a2.39,2.39,0,0,1-1.3.58c.59,1.56,1.37-1.6,2.13,0-2.13-.41-3.31,4.14-5.44,3.3-.73.9,1.07.42.34,1.32l-.65-.13.41.7a1.48,1.48,0,0,1-1.79.07c.16-.11.21-.5.3-.68-1.16.34-1.53,2.32-1.92,2.44l1-.64c-1.52,2.81-4.52,5.34-5.46,8.48l.49.09c-.79,2.34-1.54,1.16-2.82,3.4l0-.14a2.62,2.62,0,0,1-.69,1.87c0-.83-1.55.32-1.48-.71-.87,2.53-.23,1.41,0,3.75l-.82-.16a2.26,2.26,0,0,1-.21,2.24c.15-1.22-1.39-.07-1.33-1.51-2.93,1.09-1.18,4.13-3.8,3.62.85,2.24,2.33-1.1,2.25-.29.88,0,.57,1.75-.11,2.28s-3-.49-4.26,1.22c.14-.17,0-.27.17-.44-.91.31-.43,1.68-1.7,1.93.63,1.2-.85,1,.29,2.06l.93-1.77c-.36,1.13.44,3.1-1.41,4a3.21,3.21,0,0,1-.1-1.44c-.7.13-.4,1-1.12,1.14-1.15-1.1,1.21-2.09,1-3.78-.88,0-.51,2.49-1.48,1,1.18,2-1.53,1.48-1.12,3.66l-.69-.66c0,.27,0,.92-.25,1.24l-.49-1.37c.09,1.58-2.13,1.21-2.38,2.46,1.44-1.88,1.23.29,2.39-.07-.81,3.08-3-.22-4.66,2.62.17-.43,1.48-.94,1.39-.13a3.88,3.88,0,0,1-2,.78c-1.19,1.82,1,.34.86,1.43-1.36-.14-.29,1.12-.59,2.09l-.76-.59c-2,1.55,1.17,1.76-.79,3l-.47-1.57-.45,1.13-.71-.87c-.14,1.49-.55,1.67-1.56,2.44a1.33,1.33,0,0,1,.62,2.09c-.91.23-.46-.89-1.31.41-.26-.65-.61-1.42.5-1.4-.2-.25-.26-.65-.46-.89-1,.22-1.37,1.48-1.71,1.93a1.12,1.12,0,0,1,.55-.34l-.34,2.59c-.5.06-.56-.34-.61-.74-.2.42-.05.94-.4,1.52-.5-.62-1.16-1.09-.87-2.06l-.64,2.21c-.36-.1-1.42.28-1.47-.11-1.1.64-.61,3.22-2.06,4.08a.94.94,0,0,1,0,.71c-1.06,1.05-2.62,1.48-2.87,3.52l-1.72-.1c-.6,1.28,2.23,0,1.23,2.17-.65,1.54-1.32-.27-2-.07.06,1.07.33,3.06-1.49,3.52C438.23,215.37,438.64,215.19,438.84,214.77Zm-10,13.65c0-.38,0-1.28.55-1.12C430,228.28,429.43,228.18,428.84,228.42ZM414.71,250c-.1-.39.26-.59.81-.7A1.28,1.28,0,0,1,414.71,250Zm-39.16,60.35a.42.42,0,0,0,0-.06C376.28,310,376,310.09,375.55,310.38Zm-1.27.93a.31.31,0,0,0,.27.31c-.13-.24.07-.52.36-.78C374.65,310.77,374.39,310.82,374.28,311.31ZM475.11,183.2l-.38.07C474.92,182.58,475,182.88,475.11,183.2Z"/><path class="cls-1" d="M415.48,246.92a1.32,1.32,0,0,1,.5.22C415.93,246.94,415.79,246.82,415.48,246.92Z"/><path class="cls-1" d="M445,206.2l0,0a.58.58,0,0,0-.11-.15Z"/><path class="cls-1" d="M382.45,287.79a1.31,1.31,0,0,1,.76-.17C383,287.46,382.79,287.45,382.45,287.79Z"/><path class="cls-1" d="M370.57,318.63l.41-.92c-.25.4-.52.4-.79.5C370.38,318.33,370.75,318.38,370.57,318.63Z"/><path class="cls-1" d="M360.65,321.55c0,.18-.17.24-.17.43l.38.25C361.21,321.73,361.19,321.18,360.65,321.55Z"/><path class="cls-1" d="M367.5,317.35c-.68-.44-.85.21-1.15.83l.07-.09C367.19,319,367.35,318.15,367.5,317.35Z"/><path class="cls-1" d="M366.27,318.33a1.8,1.8,0,0,1-.37.5C366.21,319.18,366.13,318.69,366.27,318.33Z"/><path class="cls-1" d="M373.51,313.15c-.37.12.68.8.31.74C374.41,314.81,374.18,311.43,373.51,313.15Z"/><polygon class="cls-1" points="365.06 316.12 366 316.55 365.6 315.75 365.06 316.12"/><path class="cls-1" d="M369,312.36l-.89.68c.14.09.13.26.09.44C368.61,313,369.22,312.53,369,312.36Z"/><path class="cls-1" d="M368.17,313.48a1.32,1.32,0,0,0-.41.79A3,3,0,0,0,368.17,313.48Z"/><polygon class="cls-1" points="365.75 314.77 366.11 314.65 366.65 314.09 365.75 314.77"/><path class="cls-1" d="M376.38,303.3l.52-1.11c-.2-.3-.56-.18-.73.25C376.18,302.81,376,303.24,376.38,303.3Z"/><path class="cls-1" d="M372,304.42c.37-.12.55,0,.93.06l-1-.8Z"/><path class="cls-1" d="M373.92,301.52c-.19-.3.3-2-.58-.73C373.54,301.09,373,302.2,373.92,301.52Z"/><polygon class="cls-1" points="386.26 288.46 386.08 288.71 387.71 289.94 386.26 288.46"/><path class="cls-1" d="M392.22,273.06c-1.25.8.78,1-.49,1.66.18.56,1-.5,1.15,0C393,273.76,393.52,273.59,392.22,273.06Z"/><path class="cls-1" d="M392.88,274.74a3,3,0,0,0,0,.53A1.22,1.22,0,0,0,392.88,274.74Z"/><polygon class="cls-1" points="510.2 140.49 511.09 140.04 510.19 140.08 510.2 140.49"/><path class="cls-1" d="M510.09,138.19l1.15.64-.58-1.16C510.58,137.87,510.42,138.25,510.09,138.19Z"/><path class="cls-1" d="M425.22,228.77l.21.25c.35.1.5-.05.8-.35Z"/><polygon class="cls-1" points="433.6 219.74 433.45 219.89 434.62 220.31 433.6 219.74"/><path class="cls-1" d="M438.82,210.73c-.3.3-.4.85-.7,1.15C438.52,211,440,211.55,438.82,210.73Z"/><path class="cls-1" d="M399.77,385.42a1.91,1.91,0,0,0,1.29-.6,1.5,1.5,0,0,1,1.61-.29,8.5,8.5,0,0,1,1.17-1,3.64,3.64,0,0,1,2-.41v1.37a4.62,4.62,0,0,1-.16.93,11.4,11.4,0,0,1-.48,1.53,15.94,15.94,0,0,1-.77,1.7,5.9,5.9,0,0,1-1,1.41,6,6,0,0,0-1.17.12,10.19,10.19,0,0,1-1.82.12,3.76,3.76,0,0,0-1.25.28,4.47,4.47,0,0,0-1.41.85,2.7,2.7,0,0,1-1.57.64,9.27,9.27,0,0,0-2.22.65,2,2,0,0,0-1.29.56,1.89,1.89,0,0,1-1.21.57,2.3,2.3,0,0,1-1.65.64c-.78.06-1.57.08-2.38.08h-.64c0-.37,0-1,.08-1.93a3.31,3.31,0,0,1,.56-1.94,28.71,28.71,0,0,0,3.39-2.05,13.24,13.24,0,0,1,3.39-1.74,2.11,2.11,0,0,1,1.45-.52,5.21,5.21,0,0,0,2.09-.61Z"/><path class="cls-1" d="M460.48,365.35c.16,0,.33.2.52.6a11.71,11.71,0,0,1,.53,1.41c.16.54.29,1.08.4,1.61a6.59,6.59,0,0,1,.16,1.13v5.81c0,.21,0,.62,0,1.21a11.69,11.69,0,0,1-.24,1.81,4.69,4.69,0,0,1-.69,1.65,1.47,1.47,0,0,1-1.29.73,2.72,2.72,0,0,1-2-.6,3.62,3.62,0,0,1-.89-1.54,12.67,12.67,0,0,1-.44-2,8,8,0,0,0-.57-2,3.57,3.57,0,0,0-1.25-1.53,4.39,4.39,0,0,0-2.54-.6h-4.43a4.81,4.81,0,0,0-.89.08,3.77,3.77,0,0,0-.88.24l-1,.32a3.24,3.24,0,0,0-2.62,1.09,4,4,0,0,0-.93,2.7v3.87c0,.43,0,.82,0,1.17a1.28,1.28,0,0,0,.44,1l-.4,3.14v13.06a11.62,11.62,0,0,0,.24,2.62,5.47,5.47,0,0,0,.65,1.66,5.1,5.1,0,0,0,.88,1.08c.33.3.62.58.89.85.81.27,1.53.52,2.18.77a6.69,6.69,0,0,0,2.34.36,7.1,7.1,0,0,1,3.62,1.49,3.4,3.4,0,0,1,1.29,2.26,2.81,2.81,0,0,1-.88,2.18,4.79,4.79,0,0,1-2.91,1.25,4.27,4.27,0,0,1-1.41-.25c-.45-.16-.9-.29-1.33-.4a15.61,15.61,0,0,0-1.61-.08c-.59,0-1.2,0-1.81,0a14.24,14.24,0,0,1-1.78-.2,4.36,4.36,0,0,1-1.49-.57h-7.66a8.85,8.85,0,0,0-2,.45,12,12,0,0,1-3.35.44c-.86,0-1.64,0-2.34-.08s-1.19-.1-1.81-.12-1,0-1.25,0a.8.8,0,0,0-.65.32c-.16.21-.69.32-1.61.32a.88.88,0,0,1-.32-.32,1,1,0,0,1-.24-.36,1.63,1.63,0,0,1-.08-.61,12.56,12.56,0,0,1,.8-1.77q.41-.72.93-1.53a8.83,8.83,0,0,1,1.17-1.45l2.1-.73c.53-.21,1.06-.4,1.57-.56a4,4,0,0,1,1-.25l3.87-.88c.37,0,.67-.26.88-.77a7.72,7.72,0,0,0,.49-1.65,17.78,17.78,0,0,0,.16-2.5V392a3.58,3.58,0,0,1,.32-1.13l.32-.64V379.94a7,7,0,0,1,.12-1.29,6.61,6.61,0,0,0,.12-1.21,1.93,1.93,0,0,0-.24-.73,4.86,4.86,0,0,0-.64-1,4.42,4.42,0,0,0-.93-.85,1.89,1.89,0,0,0-1.09-.36h-8.95a4.82,4.82,0,0,0-2.62.6,4.12,4.12,0,0,0-1.41,1.53,8.2,8.2,0,0,0-.72,2,15,15,0,0,1-.61,2,4.22,4.22,0,0,1-1,1.53,2.74,2.74,0,0,1-1.93.6,1.84,1.84,0,0,1-1.74-.93,3.9,3.9,0,0,1-.52-2c0-.21,0-.55.08-1s.12-.93.2-1.41.16-.94.24-1.37a5.11,5.11,0,0,0,.13-.89l1-3.87a10.64,10.64,0,0,1,.12-1.09,13.13,13.13,0,0,1,.41-1.81,7.73,7.73,0,0,1,.68-1.69c.27-.49.59-.73,1-.73a2.92,2.92,0,0,1,1.65.41c.41.26.85.56,1.33.88a4.67,4.67,0,0,0,1,.65,3.44,3.44,0,0,0,1.41.24,8.17,8.17,0,0,0,1.45-.2,7.41,7.41,0,0,1,1.45-.2h1.62a1.44,1.44,0,0,0,.56.2c.22,0,.46.07.73.12a4.71,4.71,0,0,0,.88.08h12.18l2.17-.4,2.26.4a32.91,32.91,0,0,0,3.51-.2,29.76,29.76,0,0,1,3.43-.2h3.87a7.67,7.67,0,0,0,2.58-.41,16.41,16.41,0,0,0,2-.84,9.51,9.51,0,0,0,1.37-.85A1.58,1.58,0,0,1,460.48,365.35Z"/><path class="cls-1" d="M495.07,366.07a4.51,4.51,0,0,1,3,1.25c.94.84,1.79,1.6,2.54,2.3a5.55,5.55,0,0,0,2,2.9c.33.38.65.78,1,1.21a3.65,3.65,0,0,1,.65,1.53c.21,0,.43.23.64.69a9.66,9.66,0,0,1,.57,1.61c.16.62.29,1.2.4,1.73a6.75,6.75,0,0,1,.16,1,8.81,8.81,0,0,1-.4,2.5,22.68,22.68,0,0,1-1,2.74c-.4.92-.83,1.79-1.29,2.62s-.85,1.52-1.17,2.06a2.51,2.51,0,0,1-.85.89l-1,.6a2.7,2.7,0,0,0-.85.77,2.1,2.1,0,0,0-.36,1.29,7.92,7.92,0,0,0,.48,2.34,22.91,22.91,0,0,0,1.21,2.9,22.57,22.57,0,0,0,1.49,2.58,4.28,4.28,0,0,0,1.25,1.37,7.52,7.52,0,0,1,1.73,1.61c.51.65,1.05,1.29,1.62,1.94a14,14,0,0,0,1.81,1.73,5.12,5.12,0,0,0,2.26,1q.48.16,1.53.6a5,5,0,0,1,1.61,1,1.92,1.92,0,0,1,.53.68,2.93,2.93,0,0,1-.12.85,2,2,0,0,1-1.17,1.29,7.23,7.23,0,0,1-2,.53,13.67,13.67,0,0,1-2,.08,4.37,4.37,0,0,1-1-.12,2.19,2.19,0,0,0-1.49-.49,5.58,5.58,0,0,1-1.5-.16,20,20,0,0,1-3.06-2.1,13.9,13.9,0,0,0-2.1-1.53,6.71,6.71,0,0,1-1.2-.84c-.49-.41-1-.88-1.58-1.42s-1.13-1.1-1.69-1.69-1.09-1.13-1.57-1.61a22.8,22.8,0,0,1-1.66-2.34c-.45-.75-.86-1.46-1.2-2.14s-.69-1.29-1-1.85a4.9,4.9,0,0,0-1.05-1.33,7,7,0,0,1-1.65-1.21,2.15,2.15,0,0,0-1.66-.56,1.88,1.88,0,0,0-1.49.6,4.08,4.08,0,0,0-.8,1.41,7.27,7.27,0,0,0-.37,1.69c0,.6-.08,1.08-.08,1.46l.89,3.78v1.62a3.45,3.45,0,0,0,1.25,2.9A13.12,13.12,0,0,0,488,410c1,.43,1.87.85,2.7,1.25a2,2,0,0,1,1.25,1.82,1.18,1.18,0,0,1-.56,1,1.87,1.87,0,0,1-1.05.41h-2.9l-4.52-.65H472.81c-.16,0-.68,0-1.57-.12s-1.83-.21-2.82-.4a12.59,12.59,0,0,1-2.7-.81c-.81-.35-1.21-.82-1.21-1.41a.69.69,0,0,1,.24-.48,5.6,5.6,0,0,1,.56-.49,3.31,3.31,0,0,1,.81-.56,5.59,5.59,0,0,1,.73.08l1,.16,1.21.16h1.62a4,4,0,0,0,2.7-.93,2.62,2.62,0,0,0,1.09-2V385.5l.64-5.8a8.9,8.9,0,0,1-.32-1.94,19.27,19.27,0,0,0-.28-2.13,5.23,5.23,0,0,0-.73-1.82,2.42,2.42,0,0,0-1.57-1.05H469a9.63,9.63,0,0,1-1.77-.16,5.46,5.46,0,0,1-1.65-.56,3.18,3.18,0,0,1-1.74-3.07c0-.16.12-.33.37-.52a6.79,6.79,0,0,1,.76-.52,5.19,5.19,0,0,1,1.13-.57l13.63-.64h8.3c.16,0,.46,0,.89-.08a11.73,11.73,0,0,0,1.29-.25l1.69-.32Zm-7.66,8.23-.73.16a7.82,7.82,0,0,1-.89.28,3.06,3.06,0,0,0-1,.52,1.55,1.55,0,0,0-1.09.53,2.25,2.25,0,0,0-.53,1.65v5.89a2.17,2.17,0,0,1-.32,1.16,1.89,1.89,0,0,0-.32,1l.32.16a1.72,1.72,0,0,1,.24.29,1.12,1.12,0,0,1,.08.52,1.79,1.79,0,0,0,.16,1.49,4,4,0,0,0,1.13,1.21A5.91,5.91,0,0,0,486,390a4.53,4.53,0,0,0,1.41.28l1.45-.65q.64-.24,1.17-.48a2.24,2.24,0,0,1,.92-.24l1.62.64a2.26,2.26,0,0,0,1.77-.84,7.27,7.27,0,0,0,1.17-1.94,14.9,14.9,0,0,0,.68-2.09,7.47,7.47,0,0,1,.41-1.33l-.49-2.26A4.86,4.86,0,0,0,496,380a2.59,2.59,0,0,0-.76-1.17,12.87,12.87,0,0,0-.12-1.45,2.05,2.05,0,0,0-.77-1.45,6.73,6.73,0,0,1-1.17-.24c-.62-.17-1.29-.35-2-.57s-1.46-.4-2.18-.56A8.4,8.4,0,0,0,487.41,374.3Z"/><path class="cls-1" d="M453.14,482.17a1.91,1.91,0,0,0,1.29-.6,1.5,1.5,0,0,1,1.61-.29,8.5,8.5,0,0,1,1.17-1,3.68,3.68,0,0,1,2-.41v1.37a5.51,5.51,0,0,1-.16.93,11.56,11.56,0,0,1-.49,1.53,15.84,15.84,0,0,1-.76,1.7,6.22,6.22,0,0,1-1,1.41,6,6,0,0,0-1.17.12,10.07,10.07,0,0,1-1.81.12,3.71,3.71,0,0,0-1.25.28,4.4,4.4,0,0,0-1.42.85,2.7,2.7,0,0,1-1.57.64,9.19,9.19,0,0,0-2.21.65,2,2,0,0,0-1.29.56,1.93,1.93,0,0,1-1.21.57,2.34,2.34,0,0,1-1.66.64c-.78.06-1.57.08-2.37.08h-.65c0-.37,0-1,.08-1.93a3.24,3.24,0,0,1,.57-1.94,29.39,29.39,0,0,0,3.38-2.05,13.24,13.24,0,0,1,3.39-1.74,2.11,2.11,0,0,1,1.45-.52,5.21,5.21,0,0,0,2.09-.61Z"/><path class="cls-1" d="M495.06,462.82a4.51,4.51,0,0,1,3,1.25c.94.84,1.78,1.6,2.54,2.3a5.55,5.55,0,0,0,2,2.9c.33.38.65.78,1,1.21a3.65,3.65,0,0,1,.65,1.53c.21,0,.43.23.64.69a9.66,9.66,0,0,1,.57,1.61c.16.62.29,1.2.4,1.73a6.75,6.75,0,0,1,.16,1,8.81,8.81,0,0,1-.4,2.5,22.68,22.68,0,0,1-1,2.74c-.4.92-.83,1.79-1.29,2.62s-.85,1.52-1.17,2.06a2.51,2.51,0,0,1-.85.89l-1,.6a2.7,2.7,0,0,0-.85.77,2.1,2.1,0,0,0-.36,1.29,7.92,7.92,0,0,0,.48,2.34,22.91,22.91,0,0,0,1.21,2.9,22.57,22.57,0,0,0,1.49,2.58,4.28,4.28,0,0,0,1.25,1.37,7.52,7.52,0,0,1,1.73,1.61c.51.65,1.05,1.29,1.62,1.94a14,14,0,0,0,1.81,1.73,5.12,5.12,0,0,0,2.26,1q.48.16,1.53.6a5,5,0,0,1,1.61,1,1.92,1.92,0,0,1,.53.68,2.93,2.93,0,0,1-.12.85,2,2,0,0,1-1.17,1.29,7.23,7.23,0,0,1-2,.53,13.73,13.73,0,0,1-2,.08,4.28,4.28,0,0,1-1-.12,2.19,2.19,0,0,0-1.49-.49,5.58,5.58,0,0,1-1.5-.16,20,20,0,0,1-3.06-2.1,13.9,13.9,0,0,0-2.1-1.53,6.71,6.71,0,0,1-1.2-.84c-.49-.41-1-.88-1.58-1.42s-1.13-1.1-1.69-1.69-1.09-1.13-1.57-1.61a22.8,22.8,0,0,1-1.66-2.34c-.45-.75-.86-1.46-1.2-2.14s-.69-1.29-1-1.85a5.32,5.32,0,0,0-1.05-1.33,7,7,0,0,1-1.65-1.21,2.15,2.15,0,0,0-1.66-.56,1.88,1.88,0,0,0-1.49.6,4.08,4.08,0,0,0-.8,1.41,7.27,7.27,0,0,0-.37,1.69c0,.6-.08,1.08-.08,1.46l.89,3.78v1.62a3.45,3.45,0,0,0,1.25,2.9,13.12,13.12,0,0,0,2.7,1.61c1,.43,1.87.85,2.7,1.25a2,2,0,0,1,1.25,1.82,1.18,1.18,0,0,1-.56,1,1.87,1.87,0,0,1-1.05.41h-2.9l-4.52-.65H472.81c-.16,0-.68,0-1.57-.12s-1.83-.21-2.82-.4a12.59,12.59,0,0,1-2.7-.81c-.81-.35-1.21-.82-1.21-1.41a.69.69,0,0,1,.24-.48,5.6,5.6,0,0,1,.56-.49,3.31,3.31,0,0,1,.81-.56,5.59,5.59,0,0,1,.73.08l1,.16,1.21.16h1.62a4,4,0,0,0,2.7-.93,2.6,2.6,0,0,0,1.08-2V482.25l.65-5.8a8.9,8.9,0,0,1-.32-1.94,19.27,19.27,0,0,0-.28-2.13,5.23,5.23,0,0,0-.73-1.82,2.42,2.42,0,0,0-1.57-1.05H469a9.63,9.63,0,0,1-1.77-.16,5.46,5.46,0,0,1-1.65-.56,3.32,3.32,0,0,1-1.25-1.13,3.38,3.38,0,0,1-.49-1.94c0-.16.12-.33.37-.52a6.79,6.79,0,0,1,.76-.52,5.19,5.19,0,0,1,1.13-.57l13.63-.64h8.3c.16,0,.46,0,.89-.08a11.73,11.73,0,0,0,1.29-.25l1.69-.32Zm-7.65,8.23-.73.16a7.82,7.82,0,0,1-.89.28,3.19,3.19,0,0,0-1.05.52,1.54,1.54,0,0,0-1.08.53,2.25,2.25,0,0,0-.53,1.65v5.89a2.17,2.17,0,0,1-.32,1.16,1.89,1.89,0,0,0-.32,1l.32.16a1.72,1.72,0,0,1,.24.29,1.12,1.12,0,0,1,.08.52,1.79,1.79,0,0,0,.16,1.49,4,4,0,0,0,1.13,1.21,6,6,0,0,0,1.57.81,4.63,4.63,0,0,0,1.42.28l1.45-.65q.64-.24,1.17-.48a2.21,2.21,0,0,1,.92-.24l1.62.64a2.26,2.26,0,0,0,1.77-.84,7.27,7.27,0,0,0,1.17-1.94,14.9,14.9,0,0,0,.68-2.09,6.69,6.69,0,0,1,.41-1.33l-.49-2.26a4.86,4.86,0,0,0-.12-1.09,2.59,2.59,0,0,0-.76-1.17,11.25,11.25,0,0,0-.13-1.45,2,2,0,0,0-.76-1.45,6.73,6.73,0,0,1-1.17-.24c-.62-.17-1.29-.35-2-.57s-1.45-.4-2.17-.56A8.4,8.4,0,0,0,487.41,471.05Z"/><path class="cls-1" d="M590.18,589.09h-580V10.91h580Zm-579-1h578V11.91h-578Z"/><path class="cls-1" d="M592.11,585.89c0,3.41.39,2.19.46,2.7C592.48,582.88,592,586,592.11,585.89Z"/><polygon class="cls-1" points="591.16 529.53 591.33 530.53 590.91 522.22 591.16 529.53"/><path class="cls-1" d="M591.17,476.84c-.71,5,.12,19.09-.14,28.48l-.16,1.55.57,4.23C591.35,499.69,591,484.87,591.17,476.84Z"/><path class="cls-1" d="M592.71,448.74c-.27,1.73-.24-6.08-.08,6.55,0-.63,0-.82.07-1.19C592.7,453,592.71,451.4,592.71,448.74Z"/><path class="cls-1" d="M592.7,454.1c0,5.55.23-3.63,0,0Z"/><path class="cls-1" d="M592.54,428.47l.25,7.31c.16-1.52.2-8,.32-5.61C593,422.67,592.81,424.21,592.54,428.47Z"/><path class="cls-1" d="M592,421.54l.1,3.79A19.87,19.87,0,0,0,592,421.54Z"/><path class="cls-1" d="M592.34,433.36l-.22-8a8.41,8.41,0,0,0,.08,3.69C592,428.36,592.19,430,592.34,433.36Z"/><path class="cls-1" d="M592.23,437.91c-.15,4.1-.25,9.4-.5,2.06C591.83,454,592.33,451.9,592.23,437.91Z"/><path class="cls-1" d="M590.43,474.15l-.21,5.48.24,4.74C590.34,482,590.66,473.81,590.43,474.15Z"/><path class="cls-1" d="M592.91,382.93c-.15-.45-.41,2.46-.6,3l.17,5.4C592.59,388.56,592.68,383.3,592.91,382.93Z"/><path class="cls-1" d="M592.31,385.94l-.26-8.08C592,385.08,592.14,386.39,592.31,385.94Z"/><polygon class="cls-1" points="591.23 420.24 591.77 433.51 591.22 417.68 591.23 420.24"/><polygon class="cls-1" points="592.93 352.08 593.28 356.66 592.75 348.5 592.93 352.08"/><path class="cls-1" d="M592.87,331.61c.29,3.39.49-4.64.67-1.06,0-5.56-.31-10.31-.53-14.58C593.14,320.51,593.1,325.35,592.87,331.61Z"/><path class="cls-1" d="M592.68,308.79c.07,2.27.2,4.62.33,7.18C592.94,313.56,592.85,311.18,592.68,308.79Z"/><path class="cls-1" d="M592.12,364.1a41.39,41.39,0,0,0,.44-6.36l-.43,3.18C592.13,361.89,592.13,363,592.12,364.1Z"/><path class="cls-1" d="M592.12,361v-.11c0-3.45,0-5.84,0-6.87C592.15,354.93,592.14,357,592.12,361Z"/><path class="cls-1" d="M592.12,364.9v-.8A2.39,2.39,0,0,0,592.12,364.9Z"/><path class="cls-1" d="M591.61,399.06c-.24-4.75-.49-14.64-.86-5.07C591,397.4,591.25,391.92,591.61,399.06Z"/><path class="cls-1" d="M591.59,368.84l-.1,8.59c.11-.17.28-1.72.4.63Z"/><polygon class="cls-1" points="591.45 364.64 591.59 368.84 591.62 365.66 591.45 364.64"/><path class="cls-1" d="M592.28,323.49c-.18-3.71-.2-7.76-.23-12.34-.08,4.91-.13,10-.13,14.8C592.06,326.63,592.3,328.75,592.28,323.49Z"/><path class="cls-1" d="M592.16,341.73c0-.25,0-.58,0-.82C592.1,341.41,592.09,341.82,592.16,341.73Z"/><path class="cls-1" d="M592.05,266.06c0,.25,0,.46-.07.72,0,.06,0,.1.07.17Z"/><path class="cls-1" d="M591.84,326.78c-.08,3.69,0,5.89.16,8,0-2.76-.07-5.68-.08-8.82C591.86,325.65,591.82,325.59,591.84,326.78Z"/><path class="cls-1" d="M592.48,296.21c-.07,1.92-.15,4.1-.23,6.39C592.38,300.72,592.59,296.89,592.48,296.21Z"/><path class="cls-1" d="M592.26,339.66c0,.19,0,.36,0,.56C592.37,339,592.32,339.16,592.26,339.66Z"/><path class="cls-1" d="M592.26,339.66c-.06-1.89-.17-3.39-.26-4.89,0,2.25.08,4.33.14,6.14C592.17,340.45,592.22,340,592.26,339.66Z"/><path class="cls-1" d="M589.31,252.39c.4.66.76,10.36.34,18.73.3,8.24,1.6,2.85,2.33-4.34-.18-.26-.34-.26-.57-8.74-.22,3-.51,18.82-.86,11.67-.21-11.24.14-9.21.35-14.67-.5,4.64-.72-14.29-1.45-11.84l.26,9.85C589.59,253.23,589.41,249.66,589.31,252.39Z"/><path class="cls-1" d="M591.94,282.94l0,3.49c.06-4,.22-6.83.53-12.07-.19-5.81-.34-7-.47-7.41l0,17.18Z"/><path class="cls-1" d="M592,302.09c-.43-2.72-.62-11.1-1.08-6,0,10.24.36,7.18.54,13.3-.1-16.53.24,4.74.49-7.2.07,3.25.09,6.17.11,8.93.07-3,.14-5.85.2-8.55l0,.38V303c-.06.71-.09.95-.06.15,0-.06,0-.26,0-.35a3.38,3.38,0,0,1-.16-.75c.09-4.78.11-.75.16.75,0,.06,0,.19.07.2V303L592,286.43C591.93,289.93,591.94,294.32,592,302.09Z"/><path class="cls-1" d="M589.83,385.16c0-.51.06-.49.1-.53C589.87,383.56,589.84,383.16,589.83,385.16Z"/><path class="cls-1" d="M590.09,378.35a58.85,58.85,0,0,1,.18,6.12c-.13,3.4-.2,0-.34.16.11,2.36.3,8.26.51.86l-.05-1.17c.14-6.66.68-15.22.74-14.06A64.31,64.31,0,0,0,590.09,378.35Z"/><path class="cls-1" d="M590.93,339.75,590.71,326l-.37,7,.23-.35C590.48,340.47,590.75,338.77,590.93,339.75Z"/><polygon class="cls-1" points="592.27 264.48 592.72 266.31 592.08 258.35 592.27 264.48"/><polygon class="cls-1" points="592.21 246.57 592.61 247.23 592.37 242.5 592.21 246.57"/><path class="cls-1" d="M13.09,208.16l.11,4.05C13.17,210.29,13.13,209.06,13.09,208.16Z"/><path class="cls-1" d="M13.12,178.83l-.2-.72C13,179.47,13.11,180,13.12,178.83Z"/><path class="cls-1" d="M384.89,8.92c-5.9-.37-12.49-.94-11.78-.5l1.81.43C379,8.78,382.2,8.82,384.89,8.92Z"/><path class="cls-1" d="M83.58,11.51l1.73.13,4-.41Z"/><path class="cls-1" d="M79.42,13.3,71.64,13C73.39,13.12,75.89,13.22,79.42,13.3Z"/><path class="cls-1" d="M13.55,368.31,14,373C14,365.64,13.77,368.9,13.55,368.31Z"/><path class="cls-1" d="M592.05,63.1c.17-5.09.25-9.15.27-12.71C592.07,56.53,591.69,61.48,592.05,63.1Z"/><path class="cls-1" d="M8.48,196.62c.08,2.48.17,3.53.27,3.46C8.67,197.53,8.59,196.09,8.48,196.62Z"/><path class="cls-1" d="M592.31,35.69c0,.9-.06,1.78-.1,2.69.08,3.72.13,7.47.11,12C592.5,45.86,592.62,40.68,592.31,35.69Z"/><path class="cls-1" d="M371.26,586.12l1.32,0C372.71,586.11,372.12,586.11,371.26,586.12Z"/><path class="cls-1" d="M540.48,590.49l-7,0C534.78,590.56,536.88,590.55,540.48,590.49Z"/><path class="cls-1" d="M592.4,174.49c0,3.8.05.6,0,0Z"/><path class="cls-1" d="M590.69,193a4.7,4.7,0,0,0-.21-1.52A6.93,6.93,0,0,1,590.69,193Z"/><path class="cls-1" d="M576.12,11.47h-.33C576.92,11.56,576.72,11.54,576.12,11.47Z"/><path class="cls-1" d="M592.21,180.21c0-1.43.09-3.07.12-4.86C592.3,176.13,592.26,177.61,592.21,180.21Z"/><path class="cls-1" d="M592.41,179.44c0,1.31,0,2.34,0,3.32C592.44,183.24,592.49,182.81,592.41,179.44Z"/><path class="cls-1" d="M592.38,169.2c0,2.17,0,4.2,0,6.15,0-.75.06-1.06.07-.86C592.4,173.38,592.39,171.8,592.38,169.2Z"/><path class="cls-1" d="M60.05,587.28l.82,0C64.7,587.14,63,587.17,60.05,587.28Z"/><path class="cls-1" d="M286,13.42l.44,0h-.56Z"/><path class="cls-1" d="M272.36,13.75a97.46,97.46,0,0,1,13.52-.36l-4.52-1.25Z"/><path class="cls-1" d="M13.21,278.37l.39-9.58c.65,11.56.42,19.93,1,10.94-1.36-1.36-.14-37.25-1.49-38.59l.28-6.31c0,1.81.07,2.1.06,3.89.65-12.29-1-9.13-.79-25,.1-5.52.3-9.37.46-5.6l-.34-12.3c0-3.57.27-2.7.24.86L12.88,178l0,.14c-.21-2.67-.54-8.73-.68-11.69.19-4.77.14,2.39.31,1.17l-.33-10.38c.35-4.23.7,4.37.65,11.54,1.35-9.69-.35-8.61.45-29.54l.17,9.81c.77-6.32.49-14,1-25.05-.25,2.62-1.21,22.18-1.55,10.92.1-3.18.15-7.36-.12-13.44.48-.06.36-6,.34-13.42l.64.51c-.19-8-.51-7.4-.8-12.12.06-9,.56-10.81,1-12.91.11-14.33-.79,9.89-.91-7.07.24-11.92,0-20.28-.4-34.54.22-8.34.39,1.46.57-1.53L12.69,33c0-1.81.17-1.22.25-.93-.2-6.23-.64-.51-.81-10.31A17.87,17.87,0,0,1,12,18.07c0-.87.06-1.86.09-3,0-.69.09-1.44.14-2.24L13.8,13l.81,0,1.36.05c1.83.06,3.72.11,5.62.15,3.8.06,7.63,0,11-.19,3,.18-1.44.39-.53.64,16.63-.52,14.26-.38,27.92-1.09L71.64,13c-8.55-.48,2.38-1,11.94-1.51-3-.23-5.62-.44-7.36-.53l15.27-.35c1.84.11.3.33-2.2.6l2.8-.16c5.46.24,2.63.61-1.28,1l-5.5-.39c-3.77.39-7.3.82-6.52,1.19,1-.07,2.91-.13,5-.17-1,.11-1.62.2-1.16.26s2.11-.07,4.61-.23l3.47.71.84-.28,20,.44c14.3-.71,26.73-1.77,49.41-2.07-5.63.53-1.21.86-1.52,1.48-6.18-.66-17.56.28-29.32.14,6.14.07,4.79.37,3.23.47l21-.6c-.47.51,4.45.38,9.93.59-4.14-1,15.63-.66,24.16-1,.53.34-1.51.68-11.92.6,11.48.75,14.84-1.18,26.11-.54a38.17,38.17,0,0,0-4.92.13c5.94-.3,20.45-.06,17,.23h-2.54c16.87.12,51.36,0,53.88-.85a10.45,10.45,0,0,1-3.23,1.2l30.1-2.86c-2.65.73,7.53,2.47-6.46,2.88,4,.11,9,.23,17.46,0-2.75-.1-6.84-1.06-3.09-1.12,10.28.81,7.14.43,19.81,1.13-4.11-.16.45-1.31,6.94-1.27-1,.17.54,1.13-1.83,1.25l16.16-1.12c-4,.2-.71.95,2.9,1.27-1.68-.22,14,0,18.28-.09l-6.85-.26c18.24.16,18-1.59,36.12-1.53-2.19.23-5.41,1.43,3.79,1.57A311.81,311.81,0,0,1,430.82,10l3.07.33,12.29-.38c-7.65.87-29.12,2.69-40.85,3.4,6.83.26,1.91.39,12.13.36,3.61.31-5.57.47-8.58.49l23.8.2c-1.06-.67,18.21-.68,17.3-1.24l-25.86.7c-1-.67,14.95-1.91,31.82-1.79,4.29.27-3.21,1.2-2.86,1.42,2.19-.23,16-.44,17.56-.28l-7.16.36c9.39.26,15.33-.89,26.61-.25,3.89,0,11.63.87,12.3.47C496,13,494.8,10.64,499,10.07c1.37,0,20.45.73,24.89,1.11,6.42.6-9.62,1.43-4.16,2a39.84,39.84,0,0,1,5.25-.49c4.09.16-1.69.57,7.19.49,1.49-.68,18.08.06,4.21-.58,8.69-.19,9.23.14,19.44.11-3.25-.44,9.17-1.49,17.88-1.69-.52.17,1.44.4,2.39.5l13.39.1c-.06,5.1-.12,9.69-.18,14.48s-.09,9.87-.09,15.8c-.17,1.53-.37,9.55-.66,6.13.12,2.39.35,4.59.37,9.71-.59,9.92-.09-11.42-.8-3.86.39.64.54,13.25.79,20.55.61-2.25.12-16.86-.13-24.17.85,0,1.73,12.69,2.12,30.05.21,13.81-.55,6-.43,8.38-.14,25.93,1.48,22.09.87,43.62-.54,8.54-1.07.39-1.46,2.28-.2-11.24.34-17.26.32-24.88L590,119c-.18-3.58-.32-11.08-.16-15.17-.49,7.16-.09,43.8-.54,63.8.18,3.55.37,9.69.58,6.79l-.07-6.33c.43-5.82.6,11.91.8,3.9.3,8.49.78,18,.54,30l-.62,2.24a94.82,94.82,0,0,0,.18-11.17c.27,5-.83,18.33,0,23.78l.42-8.37c.31,8.52,1,19.06.77,29.65.6-4.82-.07-2.44.64-10-.89,6.53,0-27.1-.89-16.61.82-7.73.35-13.37,1-23.47-.21.32-.39,3.58-.29-5.31-.06-.4-.14-1.35-.18-1.95,0-.27,0-.37,0-.6,0,.17,0,.31,0,.49,0-.39,0-.42,0,.18-.08,2.12-.19,3.83-.3,4.53-.47-4.41-.45-18.55-.69-23.34.09-5.27.23,2.21.44-.67l-.36-7.14c.45-.71.75-14,1-1.59l0-11.19c.26-6.58.36-15.64.17-21.23.09-5.28-.5-13.33-.15-8.73L592,94l.12-.16c.05-17.31-.75-35.64.06-55.43-.11-5.83-.25-11.85-.12-21.6l.19-1,.1-.48c0-.14.06-.5.1-.75,0-1.77,0-3.77,0-6l-9.19-.05-6.61-.09c-4.22,0-7.8,0-9.19.14-8.07-1.05-36.31-.23-49.47-.42l-.5.51c-9.06,0-17.75.12-29,.32l.69.45c-9.69.37-24.92-.32-40.26-.27a66.94,66.94,0,0,1,7.69,0c-18.32-1-38.65.74-55.27,0-4.14.16-7.14.11-10,0,.39,0,.73,0,1,0h-1.7l-5.75-.24c1.73.11,3.39.2,4.83.24-3.19,0-8,.06-12.78.18l-2-.49-1.1,0c-4.66-.18-3.74.23-1.26.59-2.39.08-4.58.17-6.28.29-3.78-.78-12.45.26-17.61-.57-3.2.41-23.87.31-26.4,1.16-.16-.11-1.56-.17,1-.17-5.29-.1-10.58-.2-15.32,0L305.7,9.6l-11.55.82c-7-.37-9.93-.59-3-1.06-16.84.73-13.66.27-28,1l.7-.39c-5.11,0-13.29.54-16.38.22-11.44-.76-56.63-.11-86-.81,5.7,1.17-13.66-.52-14.82.38-1.71-.27-5.81-.43-1-.67-15,.27-22.53-.44-32.88.33-1.71-.28,3.21-.41,1.68-.57a56.85,56.85,0,0,1-6.32.07c-1.53-.16,2.2-.23,4.57-.35-15.32,0-16.87.9-18,1.7a106.5,106.5,0,0,0-17.24.19c-2.7-.26-7.21-.53,2.31-.62-5.36,0-32.71-.39-33.25.25-1.68-.16-7.49,0-8.9,0l-12.51,0h-13l3.9.11c-.42.07-.84.13-1.26.17s-1,.09-1.56.12c-1.07.06-2.17.09-3.35.1,0,1.08,0,2.21,0,3.42s0,2.21-.06,3.44c-.05,2.28-.09,4.9-.06,8l-.08-.27c-.56,21.81.27,9.42-.37,30.93l.48-1.17c1,2-.61,19.06-.21,31.55l.27-4.51c.35,6.82-1.4,19.06-1.53,25.91-.09,1.49-.14-2.36-.21-4.44-.61,17.93.63,2.32.77,15.68-.34,2.47-.86-3.17-.92,5.82-.28,4.48,1.1,26.08.45,38.35.26-2.7.52-5.39.72.82.09,9.51-1,25.71-.17,34.3a6.08,6.08,0,0,1-.2,1.72c.21,7.27.35,23.63.8,28-1.66,6.72.8,45.2-.72,45l.08,22.37-.16-.59c-.1,14.3.27,19.35.63,24.38-.1,3.3-.24.89-.32.62-.31,20.89-.25,23,.51,40.48l-.49,1.82c.29,4.75-.78,30.2-.2,50.69a10.45,10.45,0,0,1-.22-2.26c.58,23.05-1.38,55.19.43,63.63l.44,15.22c.14-19.68.79,2.93,1.09-5.17.1,7.74-.55,20-.64,10.5l.09-1.49c-.94-3.49-.33,24.45-1,23.93q0,18.16-.09,36-.11,18.83-.23,37.25l43.35.19L47.94,590l12.65,0c3.32.17,4.46.57-4.57.54a82.16,82.16,0,0,0,9.39,0c3.22-.16,5.88-.39,6-.47,17.67.3-6.9.85-1.48.87l7.36-.05-1.66-.09c6-.3,6.49-.61,17.34-.58,6.87.15,3.52.45,6.23.48,0,0,.21,0,.84,0s1.68,0,3.3,0l15.94.06-6.37-.57c7.06-.29,15,0,7.63-.63,10.8,1,59.46.37,66.09.68,9.9-.42,19.67-.42,31.77-.36-3-.12-4.81-.77,5.63-.69-3.82,1.34,19.11.58,27.54,1.54-7.54-.64,29.67-.16,17.84-1.06,8.71.1.53.5,7.14.81,20.73-.52,45.68.34,71.3.16.4-.17-3.89-.44,1.6-.7l13.53.88c5.06-.09,4.66-1,13.9-.41-1.3-.15-3.25-.37.14-.42,50.19.85,102.56-.71,153.53.9-6.9-.34-2.3-.37,3-.38-3.43-.08.08-.44-.59-.68l21.33.67c3.89-.67,22.88,0,25.11-.68l-6.76.11c9-.74-12.57-1.66-11.26-2.61-10.06.84-26.53-1.26-43-.05-3.64-.19,3.11-.31,1.16-.53a161,161,0,0,1-18.6.31l1.05-.1c-26.31.1-37.59-.3-67.15-.57l2.19.47c-6.35-.06-7.69-.21-10.66-.33-7.29.72,17.84,0,11.2.83-8.43-1-44.79,0-50.49-1.11-9.77,0,2.87.55-6.9.55l-2.59-.3-2.47.38c-6.41-.06-9.64-.43-9.88-.68,1.55,0,4.42-.07,6.08-.09-8.3-.35-23.42.11-26.27,0l9.39.18c-26.67.28-59.23-.11-85,.49l2,.23c-19.67.41-15.76-.25-37.36-.06l.79-.05c-4.33.22-10.1.34-16,.31,5.45-.26-10.26-.51-3.11-.8-21.33.45-10.55.35-24.64,1.18l-3.25-.37c-4.8.34-5.21.51-16,.61,8.84-.32-6.89-.57,3-1-22.64-.81-33.61.82-44-.36-10.39,1,19.59.57,13.77.79,4.87.33-8.58.76-15.69.66s-12.29-1.31-30.48-1.29c1.81,0,1.93-.08,3.73-.07-6.8-.26-13.34.35-21.69-.07-4.68.62-10.84,0-12.19.75l16.69-.18c-9.46.21-18.33,1.13-33.92.68,1.22-.16,5.86-.37,9-.48-4.56-.24-8.77.15-13.5-.09,1.35-.79,20.28-.17,30.42-.77-4.89-.34-19.18.57-14.08-.29-7.32,1.09-17.93-.14-30.25.7l.82-.48c-1.95.08-6,.3-9.58.29l6.5-.62c-3.39.18-6.7.19-10,.12L15.55,586l-.61,0H14.5l-.38,0-.69-.07.05-.69,0-.32V584c0-1.52,0-3,0-4.58,0,2.28,0,4.06,0,5.44,0,.44,0,.78-.07,1,.66.09.45.23.15.39s-.63.32,1,.45l-2.11.08c0-.68,0-1.29,0-1.86v-2.65c0-1.73.05-3.15.1-4.38.1-2.45.27-4.14.44-6,.35-3.77.71-8.32.6-21.37.07,3.74-.28,14.06-.5,8.2.09-5.27.28-12.22.52-15.45-.09-18.33-.48,2.81-.77-5,.57-6.24-.24-9-.43-17l.49-.06c.31-20.88-1-5.53-.63-24.33l.66,7.94-.17-9.8.55,2c-.41-10.66-.3-14-.15-24.43-.34,2.43-.87-1.36-.89-10.61.29-6.31.46,3.53.39-9.58a57.88,57.88,0,0,1,.24,11.91c.16.58.3,2.92.46,3.52.33-6.8.07-17.07.07-21.82,0,1.83-.05,4-.12,5.13l-.66-19c.18-3,.32-.61.46,1.74-.05-3.85-.27-6.52-.31-12.18.39,1.47.8,1.12,1,9.13l-.43-18.11c.17-1.21.46-9.29.61-6.94.23-10-.76-24.63-.46-37.94-.07-.69-.15-2.08-.2-4.91.09-12.51.57-23.59,0-38.42l.7-8.41c-.16-11.61-.88,11.39-1.15-7.95-.22-13.68.6-5.11.8-9.91a311.4,311.4,0,0,1-.51-31.22C13.27,271.22,13.16,274.48,13.21,278.37ZM12.9,135.16c.1,2.77.42,8.31.13,10.34C12.48,142.33,12.74,139.89,12.9,135.16ZM104.67,12.44a77.8,77.8,0,0,1-8.86-.11C98.42,12.29,101.38,12.31,104.67,12.44ZM592,132.85l0-.3C592.18,126.36,592.1,128.56,592,132.85Zm-.21,12.85c.07,1.29.14,1.2.2.66-.12-.9-.13-3.79-.09-7.07A41.74,41.74,0,0,0,591.8,145.7ZM100.63,590.52l-2.5-.12C103.78,590.26,102.2,590.38,100.63,590.52Z"/><path class="cls-1" d="M80,13.1a3.36,3.36,0,0,1-1.19-.27C77.7,12.91,77.68,13,80,13.1Z"/><path class="cls-1" d="M13.47,367.44v.43a1.83,1.83,0,0,0,.09.44Z"/><path class="cls-1" d="M524.86,13.38c-2.64-.07-4.12-.16-5.1-.25C519.61,13.25,520.82,13.35,524.86,13.38Z"/><path class="cls-1" d="M592.62,213.81l-.12-8.23c0,4-.09,5.4-.16,7.41C592.45,212.81,592.61,211.24,592.62,213.81Z"/><path class="cls-1" d="M589.64,285.28c.05,1.2,0,2.55.06,3.74l.23-.33C589.91,283.56,589.73,280,589.64,285.28Z"/><path class="cls-1" d="M591,221.44c-.41.65-.27,5.81-.19,11.58v-1C591.39,233.7,591.21,227.56,591,221.44Z"/><path class="cls-1" d="M590.84,234.36c0,1.78,0,3.59,0,5.33C591.08,240.37,590.9,237.53,590.84,234.36Z"/><path class="cls-1" d="M592.07,162c-.1,2.74.52,1.72.35,3.27C592.94,168.32,591.8,147,592.07,162Z"/><polygon class="cls-1" points="589.68 226.11 590.18 224.04 589.78 220.81 589.68 226.11"/><path class="cls-1" d="M590.05,180.57l-.14,9.21a10.68,10.68,0,0,1,.17,2.47C590.1,186.57,590.2,180.35,590.05,180.57Z"/><path class="cls-1" d="M590.08,192.25c0,3,0,5.77.08,7.42C590.16,198.07,590.14,194.63,590.08,192.25Z"/><polygon class="cls-1" points="589.53 213.51 589.63 210.78 589.67 204.28 589.53 213.51"/><path class="cls-1" d="M590.15,81.5,590,71.44c-.17-1-.27,1.72-.21,5.46C589.91,79.31,590,83,590.15,81.5Z"/><path class="cls-1" d="M588.77,111.92a42.32,42.32,0,0,1,.38-4.44l-.62-.3Z"/><path class="cls-1" d="M588.63,82.59c-.17-1-.5-14.6-.46-1.85C588.34,81.76,588.49,91.83,588.63,82.59Z"/><polygon class="cls-1" points="509.31 11.67 511.87 11.67 511.5 10.65 509.31 11.67"/><path class="cls-1" d="M375.74,14.11c11.92.24,2.83-.63,13.6-.32,2.8-.24-8.8-.25-5.94-.46C376.21,13.58,372.43,13.44,375.74,14.11Z"/><path class="cls-1" d="M383.4,13.33l3.68-.15C385,13.24,384,13.29,383.4,13.33Z"/><polygon class="cls-1" points="568.56 591.04 576.22 591.25 571.27 590.91 568.56 591.04"/><path class="cls-1" d="M583.27,590.28l1.81.65,4.6-.58C588,590.38,584.59,590.43,583.27,590.28Z"/><path class="cls-1" d="M14.21,113.87l-.16-.59a59.93,59.93,0,0,0-.2,6.58Z"/><polygon class="cls-1" points="13.72 217.81 13.74 216.02 13.15 219.37 13.72 217.81"/><path class="cls-1" d="M14.47,305.05c0-3.56-.05-7.75-.08-11.32C14.5,301.49,13.74,306,14.47,305.05Z"/></svg>