<svg id="Laag_1" data-name="Laag 1" xmlns="http://www.w3.org/2000/svg" viewBox="0 0 600 600"><defs><style>.cls-1{fill:#1d1d1b;}</style></defs><title>Rebus 3 Een</title><path class="cls-1" d="M241.74,467.41l-.64-1.1c-7.3-12.43-8.23-38-2.77-76.07,3.73-26,9.32-49.2,10.23-52.89-7.44-8.57-99.82-115-101.73-118.27l-.4-.67.55-.54,69.88-69.38L340.22,241c55.46-23.51,134.07,0,134.86.22l1.63.5ZM149,218.68c6.09,7.77,68.2,79.5,101.41,117.76l.35.39-.13.51c-.25,1-24.11,96.7-8.42,126.85L472.84,242.7c-11.63-3.24-82-21.29-132.36.41l-.53.23-.47-.35L217,151.13Z"/><rect class="cls-1" x="237.8" y="289.47" width="116.69" height="2" transform="translate(-118.65 286.03) rotate(-43.83)"/><path class="cls-1" d="M148.06,219.61l-.46,0c-2-.18-48-4.5-60.8-17.68l-.7-.73L205.73,86.28l.63,1.12c.8,1.41,19.4,34.75,11.55,62.68l-.07.25-.18.19ZM89,201.19c12.59,11.46,53.54,15.86,58.36,16.35l68.74-68.26c3.86-14.07.59-29.79-2.84-40.53a126.35,126.35,0,0,0-8-19.22Z"/><polygon class="cls-1" points="518.49 518.17 337.6 374.14 338.85 372.58 506.47 506.04 375.02 337.89 376.6 336.66 518.49 518.17"/><path class="cls-1" d="M152,221.21c-1.1,1-.13,1.21-.19,1.47C153.38,220.81,151.75,221.1,152,221.21Z"/><polygon class="cls-1" points="167.88 202.71 167.81 203.26 169.77 200.14 167.88 202.71"/><path class="cls-1" d="M184,186.69c-2.54.5-5.69,6-8.93,8.47l-.7.24-.49,2.1C177.29,193.9,181.29,188.85,184,186.69Z"/><path class="cls-1" d="M194.82,180.33c-.92.13,1.53-2.19-2.13,1.87a5.31,5.31,0,0,1,.47-.26C193.5,181.59,194,181.11,194.82,180.33Z"/><path class="cls-1" d="M193.16,181.94c-1.68,1.72,1.44-.77,0,0Z"/><path class="cls-1" d="M200.79,173.92l-1.9,2.57c.7-.23,2.75-2.16,2.18-1.25C203.17,172.76,202.47,173,200.79,173.92Z"/><path class="cls-1" d="M202.18,171.07l-1,1.3C201.46,172.27,201.8,172,202.18,171.07Z"/><path class="cls-1" d="M199,175.13l2.15-2.76c-.48.16-.85-.14-1,1.24C200.05,173.11,199.85,173.88,199,175.13Z"/><path class="cls-1" d="M197.47,176.36c-1.48,1-3.24,2.5-1.34-.08C192,180.67,193.32,180.76,197.47,176.36Z"/><path class="cls-1" d="M183.82,184.82l-2,1.37L180.73,188C181.29,187.09,184.24,185,183.82,184.82Z"/><path class="cls-1" d="M215.26,160.58c-.07-.35-1.32.18-1.76.07l-1.41,1.89C213.08,161.84,214.83,160.38,215.26,160.58Z"/><path class="cls-1" d="M213.5,160.65l2.08-2.8C213.38,159.94,213.11,160.56,213.5,160.65Z"/><polygon class="cls-1" points="201.46 169.55 198.16 174.36 202.23 168.76 201.46 169.55"/><path class="cls-1" d="M218.12,158.8a1.44,1.44,0,0,0-.37.6,1.21,1.21,0,0,1,.76-.75A1.38,1.38,0,0,0,218.12,158.8Z"/><path class="cls-1" d="M223.82,162.93c-1.52-.41,1,2-.44,1.35a30.48,30.48,0,0,0,5.67,2.93A21.85,21.85,0,0,1,223.82,162.93Z"/><path class="cls-1" d="M231.92,168.55c-.86-.48-1.83-.88-2.87-1.34A17.89,17.89,0,0,0,231.92,168.55Z"/><path class="cls-1" d="M217.23,156.42a2.25,2.25,0,0,0,.2.34,4.42,4.42,0,0,0,.47,1,9.17,9.17,0,0,0-.29-1.28l-.21-.17Z"/><path class="cls-1" d="M217.59,156.38l0,.05.85.69Z"/><path class="cls-1" d="M217.14,156.51l.09-.09C217.18,156.35,217.15,156.34,217.14,156.51Z"/><path class="cls-1" d="M208.49,163.65c1.12-1.78,3.79-5.16.34-2.76C208.2,162.34,210.18,161,208.49,163.65Z"/><path class="cls-1" d="M216.33,155.8,214.87,157c.19.13.61.17.44.67C215.59,157.09,215.92,156.49,216.33,155.8Z"/><polygon class="cls-1" points="216.93 154.82 216.33 155.8 216.84 155.4 216.93 154.82"/><path class="cls-1" d="M227.33,164.1a27.74,27.74,0,0,1,4.54,2.83c-1.6-1.41-3.3-2.8-5-4C226.51,162.93,225.49,162.76,227.33,164.1Z"/><path class="cls-1" d="M221.17,159.18l.31.18C221.35,159.17,221.22,159.05,221.17,159.18Z"/><path class="cls-1" d="M247.44,178.62c-.05-.11-.1-.2-.16-.31l-.14.07Z"/><path class="cls-1" d="M226.72,162.55a8.09,8.09,0,0,0-2.95-1.83c1,.65,2,1.36,3.14,2.17C227.09,162.87,227.15,162.82,226.72,162.55Z"/><path class="cls-1" d="M236.51,171.49c-.56-.64-1.22-1.33-1.93-2C235.07,170.16,236.14,171.49,236.51,171.49Z"/><path class="cls-1" d="M221.77,159.87l-.21-.11C221.86,160.22,221.86,160.11,221.77,159.87Z"/><path class="cls-1" d="M221.77,159.87a15.89,15.89,0,0,0,2,.85c-.81-.53-1.59-1-2.29-1.36A2.43,2.43,0,0,1,221.77,159.87Z"/><path class="cls-1" d="M255.45,177.77c-.7.47-4.49-1.46-6.87-4.31-3.21-1.66-2.91,1.82-1.3,4.85.3-.21.49-.47,3.7,1.36-.77-1.12-5.89-5.69-3-4.41,4.12,2.59,3,2.61,4.65,4.36-1-2,5.79,2.56,5.82.76l-3.71-2.14C254.82,178,256.27,178.65,255.45,177.77Z"/><path class="cls-1" d="M241.75,174.06l-1.26-.83a25.8,25.8,0,0,1,3.52,4c2.24,1.19,2.83,1.27,3.13,1.16l-5.87-4.54Z"/><path class="cls-1" d="M235.07,169.17c1.46,0,4.57,1.9,3.36-.18-3.57-2.6-2.91-1.28-5.25-2.57,5.84,4.11-1.92-.84,1.91,2.64-1.21-.72-2.25-1.44-3.22-2.13,1,.85,1.88,1.7,2.71,2.53a.85.85,0,0,0-.1-.14l0,0a0,0,0,0,0,0,0c-.18-.27-.22-.38,0-.12a.49.49,0,0,0,.58,0c1.55,1.38.12.37-.45.06-.05,0-.12,0-.15,0s0,0,0,0l6,3.91C239.35,172.23,237.82,171.11,235.07,169.17Z"/><path class="cls-1" d="M210.23,156.89c.22-.1.25,0,.31,0C210.79,156.47,210.87,156.29,210.23,156.89Z"/><path class="cls-1" d="M212.69,155.19a5.87,5.87,0,0,1-1.61,2.12c-1.22.85-.29-.29-.54-.44-.56.88-2.1,2.95.47,1l.27-.44c.56-.46,1.2-.91,1.83-1.33a5.11,5.11,0,0,1,.46-.3l.36-.2.65-.31c.8-.34,1.25-.37,1.17-.2a2.25,2.25,0,0,0-1.15-.34A4.76,4.76,0,0,0,212.69,155.19Z"/><path class="cls-1" d="M223.34,157.72l5,3.23-2-2.41-.15.45C223.63,156.81,223.88,157.69,223.34,157.72Z"/><polygon class="cls-1" points="247.73 179.37 246.55 179.63 250.07 180.66 247.73 179.37"/><polygon class="cls-1" points="253.98 183.93 253.28 184.39 255.2 185.23 253.98 183.93"/><path class="cls-1" d="M337,381.16l-1.11,1.37A15.18,15.18,0,0,0,337,381.16Z"/><path class="cls-1" d="M346.14,372.43l-.05-.5C345.82,372.49,345.75,372.77,346.14,372.43Z"/><path class="cls-1" d="M424.34,237.79c2.42,1,5,2.44,4.85,1.53l-.66-1A17.13,17.13,0,0,1,424.34,237.79Z"/><path class="cls-1" d="M417.79,297.23l.72-.33c.24-.64.47-1.24.67-1.79Z"/><path class="cls-1" d="M419,301.07,416.17,303A26.62,26.62,0,0,0,419,301.07Z"/><path class="cls-1" d="M287.72,429.73l-.86,2C289.16,429.56,287.84,430.22,287.72,429.73Z"/><path class="cls-1" d="M317.55,231.22a43.65,43.65,0,0,0,4.07,3.71C319.8,232.94,318.54,231.06,317.55,231.22Z"/><path class="cls-1" d="M334.18,371.07c-.66.85-.87,1.3-.71,1.41C334.16,371.61,334.49,371.06,334.18,371.07Z"/><path class="cls-1" d="M326.7,238.74c-.26-.3-.53-.57-.8-.86a42.06,42.06,0,0,1-4.28-2.95A14,14,0,0,0,326.7,238.74Z"/><path class="cls-1" d="M205.29,293.45c-.09-.16-.22-.34-.29-.49C204.87,293,205,293.19,205.29,293.45Z"/><path class="cls-1" d="M164.23,232.39c.51.51,1.27,1.4,2,2.23A18.19,18.19,0,0,0,164.23,232.39Z"/><path class="cls-1" d="M278.65,202.91c-1.35-.94-.27-.08,0,0Z"/><path class="cls-1" d="M274.33,195.38c.34.13.62.19.77.05A1,1,0,0,1,274.33,195.38Z"/><path class="cls-1" d="M343.38,240.74l.13-.05C343,240.69,343.12,240.69,343.38,240.74Z"/><path class="cls-1" d="M276.91,201.11c.43.46.95.95,1.53,1.47C278.21,202.32,277.75,201.87,276.91,201.11Z"/><path class="cls-1" d="M276.93,201.64l-1.09-.93C275.58,200.7,275.67,200.89,276.93,201.64Z"/><path class="cls-1" d="M280.51,204.24c-.76-.55-1.44-1.11-2.07-1.66.22.24.3.36.21.33Z"/><path class="cls-1" d="M234.53,408.06c0-.11.07-.23.11-.35C234.44,406,234.43,406.75,234.53,408.06Z"/><path class="cls-1" d="M470.69,236.92l-.31,0,.32.11Z"/><path class="cls-1" d="M480.05,238.92a41.62,41.62,0,0,1-5.71-.77A26.62,26.62,0,0,1,470.7,237a5.7,5.7,0,0,1-.17,2.55A77.62,77.62,0,0,1,480.05,238.92Z"/><path class="cls-1" d="M315.27,402.34l3.52-2.3c-2.71,4.38-5.62,6.57-2.06,4.67-1.46-2.37,11.41-11.35,9.94-13.7l2.37-1.48c-.59.52-.57.73-1.14,1.24,4.73-2.74,1.48-4.15,6.68-8.6,1.86-1.5,3.33-2.37,2.39-1l3.36-4.16c1.15-1,1.2-.43.06.6l5.69-5.77v.1c.54-1.11,2-3.39,2.7-4.48,1.75-1.15-.55.92.07.8l2.77-3.58c1.81-.76-.4,2.31-2.7,4.38,4.9-.94,2.21-3.07,9.82-8.18l-2.81,3.18c3-.78,5-3.47,9.15-6.1-1.17.43-8.59,4.89-5.55,1a15.94,15.94,0,0,0,4-4.2c.68.68,2.37-1.27,4.64-3.53l.73,1.08c2.25-2.67,1.6-2.95,2.67-4.78,2.87-2.58,4.14-2.42,5.37-2.45,4.61-4.14-4.18,1.81.94-3.44,4-3.21,6.29-6.09,10.2-10.9,2.91-2.18.09,1,1.28.37l1.59-2.95c.58-.53.62-.13.63.08,1.67-2.15-.72-1.08,2.09-4.26-.15-1.8,7.69-4.53,10.36-9.31,1.18-.63.09,1,.72,1.08,4.45-5.73,3.91-4.81,7.19-9.92l4.2-2.87c-3.33,1.86-.71-2.22,1.62-5.76-1.27.57-2.35,1.06-3,1.44L419,293.6c.72-.4.55.38.14,1.51.25-.38.48-.75.66-1.05,2-1.3,1.65.08.93,1.77-.75.37-1.52.73-2.26,1.07-.64,1.69-1.14,3.37-.37,3.67a10.22,10.22,0,0,1,1.31-1.74c-.16.45-.22.77,0,.73s.55-.74,1.1-1.73h2.07l-.13-.66,6.84-5.33c3.46-5.31,5.87-10.55,12.53-17.76-1,2.44.8,1.6,1.57,2.58-2.84.91-5.09,5.66-8.94,9,2-1.73,2-.9,1.65-.29l5.71-7.13c.55.87,1.91-.78,3.91-2.12-2.68-.21,3.94-5.64,6.17-8.63.63.32.47,1.43-2.88,4.43,4.62-2.35,3-6.14,7.39-8.59-.78.78-1.28,1.11-1.35,1.66,1.43-2.21,6.28-6.21,5.62-4.76l-.78.77c1.36-1.22,3-2.79,4.78-4.49l2.78-2.75c1.26-1.25,2.49-2.49,3.63-3.68s2.24-2.3,3.09-3.3,1.59-1.87,2.14-2.6c1.11-1.47,1.5-2.31.95-2.34a5.26,5.26,0,0,1,1.63-.05c.66.06,1.25.23,1.32.4.13-.47.24-.92.33-1.33,0-.05,0-.1,0-.15l-.43,0-.85-.07-1.65-.11q-3.23-.21-5.94-.22a43.22,43.22,0,0,0-8.81.72,2.26,2.26,0,0,0,.89-1.23c.19-.52.26-1.11.44-1.66.38-1.08,1.32-2,6.12-1.19-1.17-.4-2.49-.89-4.31-1.34-.9-.22-1.91-.45-3-.67l-.86-.16-.66-.08c-.41,0-.85-.1-1.32-.13a3.25,3.25,0,0,1,1.45,1.5c.14.29.24.58.13.76s-.36.27-.75.22a23.16,23.16,0,0,0-3.57-2c-.86-.37-1.83-.74-4.42-1.95,1.7.66-.7,2.49-3.44,1.92.49-.25.17-2.26,1.24-2.31-2.46.3-4.9.64-7.33,1,1.8-.11.63-1.84-.84-2.71.66.53-6-1-7.94-1l2.9.93a15.13,15.13,0,0,0-8,.41,17.67,17.67,0,0,1-7.93.8c1-.38,2.61-2.64-1.38-3.27-2,1-8.51,4.9-15.31,5.62l-1.3-.68c-1.76.2-3.51.46-5.25.72.81-.43,2-1,3.4-1.6s3.05-1.21,4.75-1.83a80.54,80.54,0,0,1,9.71-2.81c-3-.69-.78-.87-5.27-1-1.56-.68,2.5-.84,3.83-.76-1.74-.2-3.49-.33-5.24-.47s-3.5-.26-5.26-.36c.22.69-1.79.95-3.81,1.27s-4,.61-3.82,1.17c1.89-.23,3.78-.5,5.68-.7s3.8-.41,5.7-.57c.39,1.35-6.64,3.56-13.94,3.51-1.88-.47,1.34-2.43,1.19-2.87a18.2,18.2,0,0,1-4,.69,16.9,16.9,0,0,1-3.75.17c1-.3,2.07-.62,3.11-.89a16.25,16.25,0,0,0-5.51.85,13.52,13.52,0,0,1-6.16.48c-1.7.09-5.32-1.1-5.52-.28,3,1.17,4.05,5.83,2.41,7.19-.29,0-2.5-.14-4.88-.19-1.19,0-2.44-.09-3.51-.15a20.22,20.22,0,0,1-2.47-.17c-3-.64,3.58-3.63,1.06-4.19,0,.38-1.48,1.13-2.09,1.4-1.83,0,.51-1.28-3.31-.32-.34,1.48-7.78,1.76-1.54,1.56a20.06,20.06,0,0,1-3.9,1,33.55,33.55,0,0,0-4.42,1c.82.24.05,1.17-1.29,2.38a22.36,22.36,0,0,1-2.36,1.79c-.87.58-1.75,1.08-2.69,1.59.12-.42-.81-.54-1.2-.6l-2.5.92c-.84.63-1.4-.37-2-.75l-3.36-2.84c-2.21-1.87-4.37-3.69-7.24-5.85-.33-.66-2.86-3.06-1.33-2.64a14.47,14.47,0,0,1-3.8-1.93c-2.72-3.51,4.06,2.81,2.3-.28-.7.47-5.24-2.56-8.05-4.05,0,1.56,5.68,4.55,8.5,6.05-1,1.36-6.45-.52-12.92-4.4-5-3.24-1.41-2.42-2.39-2.85-8.77-7-9.39-3.37-16.1-9.92-2.31-3.08,1.15-1.81,1-2.92,4.13,2.58,5.56,5,8.21,7l-2.93-2.84a21.27,21.27,0,0,1,5.43,3.68c-1.89-2.63-15-11.5-21.39-17.4-1.45-.63-3.79-1.93-3.05-.83l2.28,1.52c1.49,2.2-4.84-2.12-2.31.28-3.3-1.72-7.16-3.42-11-6.91l0-1.56c-.12.35,2.26,2.61,3.65,3.18-2.05-.86-5.34-6.08-8.19-6.21l2.39,2.85c-3.32-1.71-7.74-3.4-11.16-6.46.94,2.22.92.53,2.67,3.61-1.19-3.1,9.32,7.08,6.81,2.88,1.68,3.32,4.2,4,6.84,7.76.14-.4-.77-1.54,2.19.92a5.13,5.13,0,0,1,.88.22l.19.18-.14-.16c.17.05.19.05,0-.06a5.92,5.92,0,0,1-1.2-1.67c2.08.4,7,4.09,8.89,4.94,1.71,1.52-1-.2-.3.89l2.9,1.28c-.3.9,3.94,4.83-.67,2l3.84,2.93a32.67,32.67,0,0,0,7.14,5.76c1.71,1.53,5.2,2.66,3.19,2l6.4,4.1-.08.23c5.91,4.57,13.2,8,19.07,14.47a55.23,55.23,0,0,1,7.61,5.4,4.75,4.75,0,0,0,.5,1.35c1.15.78,2.52,1.82,4,3,.37.3.74.6,1.13.9.09.13.19,0,.29,0l.29-.11.6-.21,2.39-.84c1.58-.56,3.09-1.12,4.32-1.63l.67-.28.45-.21a2,2,0,0,0,.59-.44,9.09,9.09,0,0,0,3.9-.31A51.91,51.91,0,0,0,358,243c1.93-.5,3.9-1.12,5.75-1.59s3.57-.81,4.92-1l0-1c1.88-.26,3.69-.62,5.62-1s4-.82,6.32-1.23l-.38-.87c4-1.15,10.56-.21,17-.38-.44.34-2.08.28-3.25.12,3.89.89,7.94.55,12,.21,2-.18,4-.3,5.92-.31a21.09,21.09,0,0,1,5.52.68,10.91,10.91,0,0,1,4.25.36,3.12,3.12,0,0,0-.44,0l.72.08,2.39.71a11.83,11.83,0,0,0-2-.68c1.35.1,3.41.21,5.44.19l.75,1.06.46,0c1.92.59,1.64-.26.67-1.11a18.47,18.47,0,0,0,2.73-.25c1.39,1.75,5.35.18,7.28,2.18,1.48-.65,10.12,1.08,11.5-.36,0,.23.6.45-.48.25a23,23,0,0,0,6.45,1.21l.68,1.4,2.59-.27c.65-.14,1.26-.28,2-.38.9.59,1.32,1,1.23,1.31s-.73.51-1.75.75a17.61,17.61,0,0,1,2.72-.08c.71,0,1.21.1,1.7.16s1,.11,1.73.18l1.43.11h.23c.08,0,.17,0,.13.05s0,.11,0,.18-.06.27-.09.42l-1.32.17a8.37,8.37,0,0,0-1,1.64,3.3,3.3,0,0,1-1.63,1.52,11.2,11.2,0,0,0-1.65,1c-.29.2-.58.41-.88.64a13,13,0,0,0-1.09.91c-2,1.8-4.44,4.07-7,6.51-5.13,4.88-10.95,10.44-16,14.33,3.39,0-5,3.33-4.09,5-.92.11-2.41,1.11-1.26-.66-4.29,4.88-7.62,6.11-9.79,10.31-.92.11.44-1.55-.26-1.32-.29.44-1.15,1.77-1.87,2s.37-1,.94-1.88c-4.71,4.65-4,6.34-3.26,7.82-2.94,1.78-4.07,3-5.09,5.45-1.2.43-3,1.38-.15-1.6-1.72,1.55-10.72,9.23-10,10.32a10.36,10.36,0,0,0-2.74,2.7c-3.79,3.53-4.2,3.77-7.79,7.38l1.16-.82c-.38,2.5-2.81,3.18-5.65,6.15l0-.19c-7.56,5.72-2.56,3.2-10.14,8.72l1,.34c.81,2.09-6.78,4.82-10.12,9.13l1.79-.95c-1.64,2.54-7.89,3.67-10.2,5.54-.59.31.54-.92,1.1-1.64-6.43,4.49.14,1.61-3.82,5.81-1.23.25-.2-2.19-3.09.41-1.78.94-6.6,9.39-11.32,12.12,1.2-.43,2.4-.86.74,1.28-2.84,3-9.38,6.27-10.91,10-.48.26-.72.3-.82.22-2,2.48-6.87,7.58-7.62,9.53-4.39-.38-13,14.69-15,12.44l-6.85,6.8,0-.4c-4.59,4.13-5.66,6.17-6.71,8.21-1.18.83-.62-.09-.65-.29-6.93,5.8-7.49,6.52-11.89,12.86l-1.25-.18c-1.08,1.84-10.49,7.92-16.07,14.88,0-.14,0-.41.4-1-6.38,7.74-19.1,14.53-19.23,19.66a5.41,5.41,0,0,0-.36.5l-.28.43-.63.91c-.44.63-.93,1.3-1.46,2,2.13-1.85,2.26-1.44,1.87-.46s-1.37,2.57-.07,1.74a11.78,11.78,0,0,1-3.48,2.66c-.76.28-.77-.23.43-1.5l.36-.11c.25-.88,0-1-.47-.81a3.85,3.85,0,0,0-.8.5c-.28.13-.68.86-.83.06-.89-1.81-1.46-3.73-1-4.28a23.76,23.76,0,0,1-.93-3.5l-.24-1.27a14.08,14.08,0,0,1-.24-1.47c-.12-1-.25-2-.37-3a105.13,105.13,0,0,1-.47-11.9c.09-7.94.77-15.78,1.48-23.47l-1.6,1.65c.15-1.79.38-3.59.56-5.38.48-1.38,1.32-1.78.9,2.05,1-1.94-.05-6.5-.34-6.66,1.43-7.44,1.36,3.13,1.66.83l.24-3.14-.25.69c-.28-2.6-.91-2.91-.22-7.51.69-2.87,1.1-1.37,1.31-2.51.1,0,.2-.36.29-1.75.38-2.24.74-4.49,1.15-6.72l-1.56,2.52c-.1-3.09,1.07-6.35-.72-3.44,1.34-2.13,2.58-8.39,3.73-14.45s2.18-11.9,2.78-13.23c.06-4.34,1-8.45,2.25-13.48-.26.6-.75,1-1,.74a1.39,1.39,0,0,1-.21-1,15.56,15.56,0,0,1,.56-2.79c.76.58,1.39-.23,2.12-2.14a28.71,28.71,0,0,0-1.87-2.58l-1.21-1.54-.49-.65-.44-.59a14.66,14.66,0,0,1-2.55-4.56c1.17,3.29-8.63-9.48-6.66-4.43-2.3-3,.61-.83-.78-3.4-6.65-6.08-12.41-15.34-19.91-23.48-.38.1.42,1.86-1.53.4L214.77,290c-1.56-1.54-2.85-.19-4.54-4,.15.62.36,1.55-.68.51-12.88-17.51-30-32.59-41.9-51.39,1.42,2.71.07,1.24-1.42-.47.83,1.23-.69.54-.86,1.07l-5-7.86c-2.1-.42-6.44-7.45-8-7.38l2,2.08c-3.64-2,1,6.28-.86,7.09,4.1,2.22,5.53,10.36,12,14.2.73,1.44-1.34-.62-1.13.31,1.8.83,3.35,2.38,5.71,5.69l-.46-.22c7.57,8.49,10.14,12.71,18.07,22.73l.1-1.34a21.41,21.41,0,0,1,2.51,3.92c3.14,1.44-5-5.88-1.9-4.75.92,4,12.62,14.66,12.57,17.95,2.76,3.2,0-1.65,2.78,1.55l.28,1.23,1.27.31c1.72,2.17,2.07,3.71,1.76,4.12a23.4,23.4,0,0,0-1.86-1.87c1.82,3.17,6.8,7.5,7.44,8.58l-2.38-3.31c8,8.35,16.58,19.49,24.78,27.1l-.22-.93a34.16,34.16,0,0,1,5.17,5.79c.52.74,1,1.51,1.85,2.52.4.5.87,1.06,1.44,1.72l.93,1,.42.45.34.35-.22-.09a8.1,8.1,0,0,1,1.67,1.2,14,14,0,0,1-.43,2.35c0-.4-.17-.41-.33-.28a1,1,0,0,0-.27.31l-.36.68c-.49.94-1,1.79-.89.21-1.2,9.24-.35,4.63,0,10.95l-1,1.23c.23,2.17.53,2.41-.21,7,.14-3.88-1.7,2.71-1.67-1.67-3.53,9.34-1.12,14.62-4.21,18.67,1.25,4.78,2.57-8.2,2.58-5.63,1-2,.85,3.93.15,6.93s-3.49,4.83-4.57,12.68c.12-.77,0-.85.09-1.63-.93,2.87-.1,5.85-1.38,9.36,1,2.17-.61,4.69.89,5.45q.21-3.63.49-7.26c-.11,4.15,1.29,8.16-.22,14.81a18.27,18.27,0,0,1-.6-4c-.65,1.93-.07,3.82-.68,5.84-1.59-.73.42-8.84-.25-13.36-.92,2,.24,8.44-1.23,6.06,1.86,3.39-1,7.8.34,13.31l-.93-.41a24.75,24.75,0,0,1,.36,4.23c-.39-1-.74-1.94-1.09-2.91a18.39,18.39,0,0,1-.25,6.42,21.64,21.64,0,0,0-.42,6.32c0-8.9,1.15-2,1.88-5.72a25.41,25.41,0,0,1,.12,5.75,10.81,10.81,0,0,1-.8,3,11.85,11.85,0,0,0-.89,3.3,24.48,24.48,0,0,0,.21,6.67,14.07,14.07,0,0,1,0-3.51c.15-1.06.41-1.57.7-.28a60.71,60.71,0,0,1-.31,7.1c.7,4.17,1,3.81,1.07,2.83s.26-2.52.81-.81c-.34,1.57,0,2.28.65,4.06.63,1.56,1.65,2.85,2.52,5l-.73.78a17.61,17.61,0,0,0,1.41,3.72,18.16,18.16,0,0,0,1,1.9c.53.81.87.86,1.13.85s.51-.06,1,.54c.11.16.24.35.38.59l.23.4.12.24.07.12,0,.07s0,0,.06,0c.58-.49,1.32-1.07,2.29-1.77-.59.78-1.21,1.58-1.86,2.39l-.5.61-.25.31-.13.15-.08-.07-.69-.63.37.63.18.32c.06.09.11.28.22.11l1.16-1,2.27-2.07c-.34.75-.71,1.51-1.1,2.29,1.35-1.33,2.41-2.36,3.34-3.23l.68-.63.68-.7c.44-.46.87-.88,1.29-1.3.86-.83,1.72-1.62,2.72-2.5.5-.45,1-.92,1.61-1.42l.44-.39.38-.33.62-.52c-1.22.23-.78-1.67,2.08-4.46,2.36-1.48-.47,1.72,3.52-2.31a5.75,5.75,0,0,1-3.38,3.91c0,.4-.49,1.31-.46,1.71,2.57-1.56,5.42-5,6.89-6.42a12.76,12.76,0,0,1-1.75,1.37l5-6.65c1.18-.63.65.29.11,1.19,1.13-1.22,1.65-2.34,3.35-4.09.09,1,.76,1.48-1.48,4.14l5-6c.61-.12,3.54-2.1,3-1.19,3.45-2.67,6.62-8.47,11.18-12a6.58,6.58,0,0,1,1.25-1.76c4-3.62,8.14-6.24,12-11.45l3.59-1.5c3.4-3.7-4.77,2.13.89-4,3.95-4.42,2.42-.66,4.19-1.81,1.62-2.55,4.31-7.13,9-10.07C317.57,400.28,316.41,401.1,315.27,402.34Zm44.17-43.28c-.72,1-2,3.08-3,3.27C356.62,360.59,357.75,360.24,359.44,359.06Zm66.2-66.8a7.42,7.42,0,0,1-2.9,2.5A16.1,16.1,0,0,1,425.64,292.26ZM293.51,213.07l.13,0C295.55,215,294.88,214.33,293.51,213.07Zm-4.19-3.66c-.53-.23-.58-.1-.47.15a7.88,7.88,0,0,1,2.56,1.68C291.24,210.8,290.77,210.23,289.32,209.41Zm-46.25,182-.39,1C242.73,390.05,242.89,390.75,243.07,391.46Z"/><path class="cls-1" d="M418.87,300.6a.87.87,0,0,1-.73,0C417.91,301,418,301.16,418.87,300.6Z"/><path class="cls-1" d="M287.88,429.35l-.15.12a.47.47,0,0,0,0,.26Z"/><path class="cls-1" d="M363.87,230.89a8.23,8.23,0,0,1,2.31.05C366.2,230.7,365.64,230.6,363.87,230.89Z"/><path class="cls-1" d="M264.81,193.07l3,1.93a11.49,11.49,0,0,1-2.37-2.18C265.36,193.05,265.7,193.72,264.81,193.07Z"/><path class="cls-1" d="M243.7,169.77c-.48-.22-.89-.65-1.37-.86l-.15.44C244,170.66,245.42,171.29,243.7,169.77Z"/><path class="cls-1" d="M264.1,188.53c.26-.82-1.69-1.94-3.77-3.31a4,4,0,0,1,.35.26C259.41,186,261.76,187.24,264.1,188.53Z"/><path class="cls-1" d="M259.85,184.89c-.64-.43-1.28-.88-1.86-1.36C257.49,183.71,258.68,184.16,259.85,184.89Z"/><path class="cls-1" d="M283.36,205.61c-.82-.87-1.21.39-1.55-.28C280.14,205.37,288.86,209.06,283.36,205.61Z"/><polygon class="cls-1" points="264.09 185.18 264.2 186.51 265.8 186.71 264.09 185.18"/><path class="cls-1" d="M279.38,197.57l-3-2.61c-.05.17-.52-.06-1.06-.37C277.24,196.09,279.27,197.86,279.38,197.57Z"/><path class="cls-1" d="M275.3,194.59a16.21,16.21,0,0,0-2.66-1.79C273.2,193.21,274.41,194.07,275.3,194.59Z"/><polygon class="cls-1" points="268.62 188.2 269.44 189.07 271.64 190.82 268.62 188.2"/><path class="cls-1" d="M313.48,223.4l3.65,2.37c.56,0-.26-.88-1.64-1.75C314.52,223.59,313.15,222.73,313.48,223.4Z"/><path class="cls-1" d="M304.62,213.32a4.69,4.69,0,0,1,1.08,1.76l.85-.92Z"/><path class="cls-1" d="M314.93,220.69c.55,0,5.63,3,1.18-.25C315.55,220.45,311.9,218.07,314.93,220.69Z"/><polygon class="cls-1" points="371.17 233.06 370.08 233.25 370.56 235.24 371.17 233.06"/><path class="cls-1" d="M429.37,227.88c-5.16-1-1.37,1.11-6,0-1.26.36,3.79.88,2.5,1.17C429.05,228.88,430.66,229.38,429.37,227.88Z"/><path class="cls-1" d="M425.86,229.07c-.51,0-1.05.07-1.63.15A10.27,10.27,0,0,0,425.86,229.07Z"/><polygon class="cls-1" points="157.22 222.46 155.44 219.68 156.27 221.74 157.22 222.46"/><path class="cls-1" d="M152,218.6l.26-.71.33-.62-.92-.21-.48-.12-.24-.07-.13,0-.06,0h0l-.7.39-1.71,1,2-1.12.42-.24h0l0,0,.09.09.2.2.4.45A3.14,3.14,0,0,1,152,218.6Z"/><path class="cls-1" d="M367.89,354.57l0-.4c-.6.11-1.18.63-2.33,1.67Z"/><polygon class="cls-1" points="334.84 384.96 335.41 384.45 333.56 384.6 334.84 384.96"/><path class="cls-1" d="M308.7,412.14c1.15-1,2.27-2.47,3.42-3.51C309.85,411.11,307.39,411.37,308.7,412.14Z"/><path class="cls-1" d="M334.76,246.64c.17-.06-.45-.62-.54-.75C334.14,246.22,334.91,246.8,334.76,246.64Z"/><polygon class="cls-1" points="334.02 249.99 333.82 249.71 334.1 250.6 334.02 249.99"/><path class="cls-1" d="M332.09,251.82c1.17.85.54-.84,1.23-.8l.28.18-.64-1C332.67,250.76,332.66,251.82,332.09,251.82Z"/><path class="cls-1" d="M328.93,250.57c.45.34.11.56.36-.1l-.14-.06A.64.64,0,0,1,328.93,250.57Z"/><path class="cls-1" d="M329.15,250.41c.17-.22-.46-.21,0,0Z"/><path class="cls-1" d="M328.44,251.53l-.08-.61c-.28-.18-.57,0-.65-.27C327.63,251.11,327.91,251.29,328.44,251.53Z"/><path class="cls-1" d="M328.91,252.53v-.29C328.78,252.17,328.71,252.17,328.91,252.53Z"/><path class="cls-1" d="M328.89,251.64v.6c.2.13.52.46,0-.24C329.19,252.33,329,252,328.89,251.64Z"/><path class="cls-1" d="M329.2,251.64c.37.08.69,0,.77.65C330.34,251.66,329.57,251,329.2,251.64Z"/><path class="cls-1" d="M333,253l.49.11-.16-.52C333.43,252.83,332.7,252.66,333,253Z"/><path class="cls-1" d="M326.27,252.59a10.27,10.27,0,0,0,.94.76l0-.44A1.39,1.39,0,0,1,326.27,252.59Z"/><path class="cls-1" d="M327.21,253.35l.06.66C327.58,253.8,327.46,253.58,327.21,253.35Z"/><polygon class="cls-1" points="329.96 253.72 329.68 252.46 329.88 253.82 329.96 253.72"/><polygon class="cls-1" points="325.12 253.64 324.8 252.98 325.24 254.03 325.12 253.64"/><path class="cls-1" d="M324.46,254.45c-.28-.54-.85-.55-1-.93-.13.26,0,.79.2,1.27C323.68,254.45,323.9,254.32,324.46,254.45Z"/><path class="cls-1" d="M323.88,255.51a3.53,3.53,0,0,0-.19-.72A1.82,1.82,0,0,0,323.88,255.51Z"/><path class="cls-1" d="M326.67,254.38a1.66,1.66,0,0,0-.83-.4l.7.5Z"/><path class="cls-1" d="M326.57,254.5l0,0a2.41,2.41,0,0,1-.28.21Z"/><path class="cls-1" d="M326.7,254.36l0,0C326.74,254.43,326.77,254.45,326.7,254.36Z"/><path class="cls-1" d="M328.65,253.9c.16.51.15,1.22,1,1.42C329.38,254.77,328.89,254.67,328.65,253.9Z"/><path class="cls-1" d="M327.58,255l.45-.16c-.16-.16-.44-.34-.52-.59Z"/><polygon class="cls-1" points="327.62 255.33 327.58 254.99 327.42 255.05 327.62 255.33"/><path class="cls-1" d="M325,255.57a.77.77,0,0,1-.13.77,1.35,1.35,0,0,0,.72-.34C325.4,255.79,325.14,255.37,325,255.57Z"/><path class="cls-1" d="M325.8,255.11v.06C325.87,255.2,325.9,255.21,325.8,255.11Z"/><path class="cls-1" d="M323.2,257.91l.13.09-.1-.12Z"/><path class="cls-1" d="M325.7,256.09c.25,0,.18-.24.08-.5a.86.86,0,0,1-.22.41C325.63,256.1,325.68,256.16,325.7,256.09Z"/><path class="cls-1" d="M323.7,256.24a2.91,2.91,0,0,0,.56.11C324,256.22,323.57,256.05,323.7,256.24Z"/><path class="cls-1" d="M325.59,255v0C325.42,254.91,325.48,255,325.59,255Z"/><path class="cls-1" d="M325.59,255a2.41,2.41,0,0,0,.19.55,1.17,1.17,0,0,0,0-.42Z"/><path class="cls-1" d="M326.5,262.34c-.53-.59-.68-1.46.21-1.14-.11-.71-2.11-2.4-3.38-3.2a1.45,1.45,0,0,1,.47,1.12c.41.21,1.38.07,1.62.84-.13.68-.53.12-1,0,.85.55.48,1.53,1.57,2.49v-.71C326.14,261.91,326.26,262.29,326.5,262.34Z"/><path class="cls-1" d="M324,257.49l.06-.19a2.57,2.57,0,0,1-1.18-.36,1.73,1.73,0,0,0,.38.94l.71-.52Z"/><path class="cls-1" d="M324.6,256.75c.5.71.45,1.27,1.28,1.76.33-.4-.24-.77-.27-1.25-.46.73-.16-.51-.94-.45a1,1,0,0,1,.17-.47,2.23,2.23,0,0,1-.58,0l.05,0h0c.1.06.15.09.08.08a0,0,0,0,1,0,0c.08.09.14.18.2.26-.3,0-.18-.13-.2-.26l-.08-.1h0l-.28.92C324.24,257.26,324.39,257.09,324.6,256.75Z"/><path class="cls-1" d="M330.62,257a.7.7,0,0,1-.16-.13C330.5,257,330.53,257,330.62,257Z"/><path class="cls-1" d="M330,256.82c0-.13-.24-.41,0-.48s.29.3.49.49c-.07-.24-.13-.73-.69-.77l0,.12a3.19,3.19,0,0,1-1.54-.58A11.8,11.8,0,0,0,330,256.82Z"/><path class="cls-1" d="M327.44,257l-.21.79.77.29-.32-.31C328.09,257.58,327.64,257.24,327.44,257Z"/><polygon class="cls-1" points="322.84 257.65 322.28 256.93 322.88 258.14 322.84 257.65"/><polygon class="cls-1" points="322.27 258.36 321.74 257.76 321.9 258.27 322.27 258.36"/><path class="cls-1" d="M292.27,300.78v.3A.6.6,0,0,0,292.27,300.78Z"/><path class="cls-1" d="M293.38,299.79l-.25-.31C293.23,299.69,293.32,299.82,293.38,299.79Z"/><path class="cls-1" d="M306.31,273.8c-.72-.32-1.76-.92-1.11-.3l.66.56C305.91,273.8,306.09,273.76,306.31,273.8Z"/><path class="cls-1" d="M298.94,288.07l.24.13c-.15-.26-.29-.51-.43-.74C298.81,287.65,298.87,287.86,298.94,288.07Z"/><path class="cls-1" d="M301.27,290.81l-.67-.14A2,2,0,0,0,301.27,290.81Z"/><path class="cls-1" d="M287.08,307l.44.8C287.79,307.58,287.36,307.37,287.08,307Z"/><path class="cls-1" d="M315.81,265a1.32,1.32,0,0,0-.83.07C315.55,265.21,316.25,265.58,315.81,265Z"/><path class="cls-1" d="M286.32,293.73a.72.72,0,0,0,.24.5A.68.68,0,0,0,286.32,293.73Z"/><path class="cls-1" d="M314.45,265.59c.09,0,.16,0,.24.05a.73.73,0,0,1,.29-.57C314.56,265,314.22,265,314.45,265.59Z"/><path class="cls-1" d="M265.44,326.82l-.12,0C265.4,326.88,265.43,326.87,265.44,326.82Z"/><path class="cls-1" d="M253.22,326.42a.84.84,0,0,1,.21-.29C253.34,326.13,253.27,326.21,253.22,326.42Z"/><path class="cls-1" d="M319.38,260.61c.1-.18,0-.09,0,0Z"/><path class="cls-1" d="M322.43,262.44a1.2,1.2,0,0,0,.24.35A1.26,1.26,0,0,1,322.43,262.44Z"/><path class="cls-1" d="M316.81,270.8h0C317,270.9,316.93,270.88,316.81,270.8Z"/><path class="cls-1" d="M319.86,260.69a1.06,1.06,0,0,0-.35,0A.87.87,0,0,0,319.86,260.69Z"/><path class="cls-1" d="M319.55,260.42l.18-.05C319.65,260.25,319.57,260.19,319.55,260.42Z"/><path class="cls-1" d="M319.22,260.82a.54.54,0,0,1,.29-.15.19.19,0,0,1-.13-.06Z"/><path class="cls-1" d="M275.16,314.27l-.08,0C275.19,314.63,275.21,314.53,275.16,314.27Z"/><path class="cls-1" d="M309,283.76s0,0,0-.05h0Z"/><path class="cls-1" d="M308.91,284.7c-.54-1-.33-1,0-1l-1.9-1.65Z"/><path class="cls-1" d="M289.89,303.41l.89.23c.47,1.33-.14,1.3.94,1.78-1.83-2,1.17-1.5-.66-3.51l.62.19c-.08,0,0,.17-.07.22,1.35.5-1-1.74-.18-2a.72.72,0,0,1,.84.47v-.92c.16-.08.46.29.29.37l.53-.81.05.06a10.09,10.09,0,0,1-.51-1.39c.44.12.11.29.39.49l-.08-.83c.64.36.8,1.15.47,1.33,2.23,1.62-.16-.8,1.7-.39l-.12.6c1.3.89,1.19.22,2.26.52-.45-.27-2.49-1-2.55-1.85.26,0,.48,0,.32-.65.68.7.73.32,1,0l.87.94c0-.55-.44-1-.67-1.57.42-.23,1.17.42,1.82.95.67-.35-1.46-.8-1-1.56.78-.07.72-.74.71-1.79.61,0,.49.62.85.78l-.44-1c.08,0,.28.2.38.33-.05-.51-.87-.94-.75-1.54-.88-1.1,2.16.79,1.49-.79.36.16.49.62.87.94a7.11,7.11,0,0,0-.49-2.54l1,.19c-1-.39-1.37-1.59-1.66-2.6-.44-.23-.81-.43-1-.51l.08-1a2.51,2.51,0,0,1,.74.93,3,3,0,0,0-.11-.32c.53.15.94.79,1.29,1.44l-.75-.38a8.58,8.58,0,0,0,1.42,1.95.64.64,0,0,1-.06-.42,1.75,1.75,0,0,0,.32.42c.12.08,0-.18-.16-.51l1.12.91-.37-.44,1.35-.05c-.47-1.54-1.49-3.5-1.07-4.71a10.46,10.46,0,0,0,2,2.17c-1.14-.72-.26,1-.87,1.24.32-.12.68.36.77.56l-.07-1.59c.69.75.69.39,1.18.5-1.54-1.3-.35-1.51-.47-2.25.49.47.89,1,.4,1.28,1.46.69-1.09-2.21.2-1.68-.08.1-.2.07,0,.35-.2-.64.66-.8.94-.26l-.08.1a2.05,2.05,0,0,0,.79-3.1c.16.15,1.34,1.55,1.54,1.84l-2.87-5.18c.92,1.14,3.7,3.3,3.76,4.38.29,0,.64,0,.59-.65-.24-.06-1.71-1.29-1.66-1.52a9.67,9.67,0,0,0,2.28.94c-.37-.08-1.79-1.9-1.5-2.07a24.82,24.82,0,0,1,1.66,1.87l-1-2.19a6,6,0,0,0,1.87,1.73c-.37-.26.54-.46.54-.77l-.61-.13c.9-.4-1.54-2.92-.79-3.46.24.41,1.78,2.25,2.31,2.13-.64-1-3.16-4.65-3.19-5.85l.57.37-.07-1a60,60,0,0,1,3.22,6.33c.61.14.61.5.94.09a.77.77,0,0,1,.36,1l1.14-.55c-1-.93-.27-1.61-1.08-2.38l0,1.91c-1-.94-2.09-3.28-1.32-3.7.53.24,1.54,1.84,1.87,2.15-.24-.41,0-1.2.25-1l.24.77c.69,0-.68-1.83.62-1.29.2-.08,1.62.84,1.1.24a34.38,34.38,0,0,1-5.27-5.24,10.79,10.79,0,0,1,2.44.73c1.07.64,1.64,2.41,2.55,3a2.63,2.63,0,0,1-.47-.88c.36.08.72.88.93.45-.89-1,.74-.55-.64-1,0-.58.53-.12.86-.52a5.84,5.84,0,0,1-1.7-3.07,3.67,3.67,0,0,0,.78.64c.74-.53,1.52-.42,2.13-1,.28.18.85.19,1.13.73-.08-.25-.32-.66-.15-.87,1.17.51-.29.54,1,1.29-.52-.59-.27-1.25-.35-1.86-.93-.81-.77.42-.7,1A6.11,6.11,0,0,1,318,266c.21-.79,1,.57.9.32,1.14-.7-1.24-2.9.39-2.78,1.05.48,1.49,1.53,2.1,2-.13.68-1.1.11-1.35.41l.69,0c.12.39,0,.85-.33.76.93.45,1.72-1.39,3.07-1.45-.12-.38-.16-.87-.56-1.08l-.13.33c-.81-.42-.39-1.28-1-1.29-.11-.74-.43-1.76.35-1.83l.93.81c-.26-.25-.79-.25-.66.13-.19-.56,1.82.56.91-.79l-.89-.32c-.12-.74-.64-2.05,0-2.14-1-.7,0,.19-1.24-.57,1.45,1-1,.89.62,1.86-1.42-.92-1,0-2.31-.69.3.28.67.43.21.6a1.68,1.68,0,0,1,.17.32h0l.05,0c0,.06,0,.07,0,0a1.8,1.8,0,0,1,.59.29c.48.82,0,1.3.11,1.81-.33.05-.24-.41-.65-.62l.24.77c-.65-.63-1.54-.59-1.45-1.4l-.44.36c-.59-.14-1.06,0-1,.5-.33.05.2,1.19-.11.52l-.26,1-.16-.15c-.71.52-.27,2.32-2.11,1.84-.05.37-.08.78-.61.93l-.61-.49c-.09.46-1.36.22-.91.92-1.75-1.23-1.64.94-2.38,1.13l.69.75a2.29,2.29,0,0,0-.62,1.48l.65.62c.16.87-1.35.41-1.84,1-.2-.28,0-.35.24-.3-2.07-.82-.38,2.41-2,1.93.08.38-.11.4-.37.34a.08.08,0,0,0,0-.07l-.07.06a4.77,4.77,0,0,0-.54-.15,2,2,0,0,0,.51.18,1.27,1.27,0,0,0-.22.7l-.74-.62s0,0,0,.06c-.41-.1.18.46.77.89a2.49,2.49,0,0,0,.18.64c-1.22-1-.09.81-1.43-.2.44.69-.45,1.27.64,2.59-.16-.16-.28-.19-.2-.28-.33,0-.65.09-.49.6l-.93-.81.72,1.59a2.21,2.21,0,0,1-1.58-1.42c.39,1.63-.12.87.35,2.4l-.52-.59c-.17.2.27,1.25-.29.89-1.46-.69-2.21,1.83-4.25,1.84,1.82,1.49-1.22-.27,0,1.07-.44-.34-.81-.42-1-.93-.17.92-1.42.16-.74,1.62-.45-.34-.45-.7-.73-.88,0,.13.16.51-.13.33s-.24-.41-.32-.67c-.49.6.63,1.88,1.7,3.07-.81-.27-.88-.06-.36.89-.46-.28-1-.51-.78-1-.25.13-1.72.59-.86,1.53-.28-.18-.33.19-.28.35-.49.36-.61.32-1,.82l.27,0c.89,1.28-.12.59-.34,1.06l-.1-.12c-1.56,0,0,.71-1.64.55l.71.65c1.36,1.56-1.54-.21-1.44.79l.54.24c.24.75-2.64-1.36-3.06-1.3-.18-.08-.12-.29-.13-.46-1.5-.25.78,1,.5,1.66-.56-.4-1.08-1.35-1.5-1.13-.54-.24.58,2.5-.77,2,.46.28.92.57,1,1.07-.22.46-2.31-.53-1.48,1a1,1,0,0,1-.34-.24c0,.56-.38,1.34.08,2.14-2.54-2.16-.53,2.74-2.64.53l-.7.9-.19-.25c-.66.36-.34,1.06,0,1.77-.27,0-.38-.33-.48-.45-1.19.28-1.17.45-.76,2.16l-.75-.65c.23.58-2.17-.07-2.12,1.48a1,1,0,0,1-.22-.4c0,1.65-3.92,0-1.72,2.85l.06,1.17c.91-.48,1,1.23,1.69,1.38-.14.43-1.49-.08-1.27-.55l.18.08c-1.18-1.48-1.35.37-2.22-.57-1.35,1.42-3.44,2-4.82,3.2l1.17.91-.52.38c-.36-.13-.95-.67-.58-.94-.75-.43-.07,1,.14,1.27-1.06.19-.93-1.48-1.15-1.31l-.2.33.18.07c.2.64.62,1.11.17,1.44-.45,0-.75-.53-.89-.47s-.14-.08-.18.11l-.66.47,1,.61c.13.66-.59.48.58,1.17-1.79-1.08-2.66,1.55-3.34,1.33a1.29,1.29,0,0,1-.65,1.64c.28.06,1.24.94.75,1.19-1.72-2.07-1.5-.17-3.14-1.27,1.16.66-.86,1.27.82,2.16-.46.15-.71-.7-1.39-.93,0,1.48-2.13,1.11-2.82,2.26.23.27.76.51.92,1.08l-1.71-.8c-.06.3,1.24,1.63.06,1.07.25.17.63.42.58.62-3,.52-2.76,4.6-6.84,4.06.72.25.6.46.43.66.23,0,.59.63.95.95l-1.69-.21c.77,1.09-.77.87,0,1.86l.09-.4c.71,1.39,2.75,1.95,4,3.38-.81-1.58,2.71.88,1.63-1.45.4.16.31.56.69.81-.41-.74-.35-1,.25-1.1l.1.18c.82-1.06,1.79-.87,3.24-1.52L262,328c.32-.13.58,0,.85.1-.73-1.29-.71.57-1.56-.81,1.64,1.1,1.65-1.54,3.37-.16.37-.33-.86-.69-.5-1l.51.33-.44-.63c.32-.14.95.28,1.31.64-.1,0-.07.25-.1.34.79.22.69-1,.95-.92l-.59.06c.58-1.33,2.31-1.91,2.41-3.68l-.38-.25c.14-1.29.91-.2,1.43-1.23l.05.11c-.15-.48-.1-.84.15-1,.17.57,1.08.37,1.22,1,.16-1.38-.1-.87-.73-2.56l.63.42c-.29-.65-.52-.92-.26-1.44.12.77,1,.58,1.25,1.53,1.95.38.09-2.35,2.11-1-1-1.84-1.5-.13-1.59-.65-.64-.32-.75-1.41-.35-1.51s2.27,1.46,2.9.8c-.07.06,0,.17,0,.23.61.14,0-1,.89-.66-.69-1.06.44-.32-.61-1.51l-.35.84c.06-.63-.9-2.27.29-2.17a3.07,3.07,0,0,1,.34,1c.49.18.11-.53.61-.35,1.05,1.19-.5,1,0,2.18.64.32-.1-1.49.91-.08-1.25-1.83.84-.43.13-2.06l.63.71c0-.17-.2-.64-.05-.74L278,315c-.37-1.11,1.33,0,1.29-.76-.71.73-1-.66-1.75-.87,0-1.78,2.24,1.3,2.93,0,0,.23-.91.08-1-.44a2.3,2.3,0,0,1,1.3.22c.53-.78-.78-.6-.9-1.3,1,.62,0-.65,0-1.2l.67.7c1.19-.29-1.19-1.65,0-1.77l.64,1.25.11-.59.69.86c-.18-1,.09-.93.68-1.07-.55-.41-1.16-1.31-.84-1.66.62.2.5.79.89.23.31.54.71,1.2-.11.76.2.25.31.54.51.78.7.24.72-.49.89-.66a.4.4,0,0,1-.34,0l-.24-1.63a1.13,1.13,0,0,1,.59.74c.07-.21-.15-.63,0-.88.49.61,1.07,1.19,1,1.73l.06-1.26c.28.2,1,.35,1.1.64.68,0-.16-2,.75-2a.75.75,0,0,1-.11-.47c.58-.31,1.65,0,1.44-1.3l1.29.72c.2-.63-1.65-.88-1.31-1.93.19-.81,1,.68,1.46.8-.24-.75-.81-2.21.44-1.82C290.22,303.24,290,303.2,289.89,303.41Zm4.78-5.45c0,.24.27.88-.19.54C293.82,297.6,294.28,297.89,294.67,298Zm6.32-9.29c.14.3-.08.3-.47.16C300.56,288.69,300.7,288.61,301,288.67Zm17.42-26,0,0C317.94,262.62,318.13,262.65,318.41,262.63Zm.76-.15a.62.62,0,0,0-.26-.31c.14.2,0,.32-.12.38C319,262.7,319.18,262.77,319.17,262.48Zm-50,48.52.26.1C269.44,311.5,269.32,311.26,269.19,311Z"/><path class="cls-1" d="M301,290.49a3.14,3.14,0,0,1-.4-.34A.6.6,0,0,0,301,290.49Z"/><path class="cls-1" d="M287,306.89h0l.1.14Z"/><path class="cls-1" d="M317.59,275.34a1.16,1.16,0,0,1-.54-.18C317.21,275.34,317.39,275.44,317.59,275.34Z"/><path class="cls-1" d="M320.51,258.92l-.13.47c.12-.18.31-.08.49,0C320.71,259.2,320.43,259,320.51,258.92Z"/><path class="cls-1" d="M327.25,260.73c0-.13.08-.1,0-.23l-.32-.31A.33.33,0,0,0,327.25,260.73Z"/><path class="cls-1" d="M323,261c.58.57.58.19.69-.12,0,0,0,0,0,0C322.93,260,323,260.48,323,261Z"/><path class="cls-1" d="M323.73,260.77a.3.3,0,0,1,.18-.2C323.62,260.22,323.76,260.58,323.73,260.77Z"/><path class="cls-1" d="M319.39,261.52c.24.06-.66-.81-.37-.62C318.41,260.05,319.22,262.44,319.39,261.52Z"/><polygon class="cls-1" points="325.03 262.73 324.26 262.08 324.7 262.77 325.03 262.73"/><path class="cls-1" d="M322.86,263.79l.53-.12a.45.45,0,0,1-.15-.34C323,263.51,322.65,263.58,322.86,263.79Z"/><path class="cls-1" d="M323.24,263.33a.32.32,0,0,0,.16-.37A.67.67,0,0,0,323.24,263.33Z"/><polygon class="cls-1" points="324.78 263.39 324.54 263.33 324.25 263.5 324.78 263.39"/><path class="cls-1" d="M319.12,267.11l-.16.56c.2.29.44.34.48.11S319.41,267.3,319.12,267.11Z"/><path class="cls-1" d="M322.13,268a2.42,2.42,0,0,1-.69-.4l.85.91Z"/><path class="cls-1" d="M321.26,269.26c.21.29.16,1.23.57.73C321.63,269.7,321.8,269.14,321.26,269.26Z"/><polygon class="cls-1" points="314.66 273.43 314.74 273.33 313.32 271.87 314.66 273.43"/><path class="cls-1" d="M313.17,281.61c.78-.06-.76-1,.05-.94-.23-.45-.66-.05-.85-.45C312.46,280.84,312.13,280.76,313.17,281.61Z"/><path class="cls-1" d="M312.37,280.22a2.1,2.1,0,0,0-.08-.35A.9.9,0,0,0,312.37,280.22Z"/><polygon class="cls-1" points="251.44 326.62 250.87 326.58 251.52 326.9 251.44 326.62"/><path class="cls-1" d="M252,328.22l-1-.87.64,1C251.65,328.25,251.7,328.05,252,328.22Z"/><path class="cls-1" d="M297.26,299.1l-.2-.25c-.27-.2-.36-.16-.52-.07Z"/><polygon class="cls-1" points="292.8 302.03 292.89 301.99 291.95 301.26 292.8 302.03"/><path class="cls-1" d="M290.66,306.16c.17-.09.14-.42.3-.51C290.83,306.07,289.62,305.14,290.66,306.16Z"/><path class="cls-1" d="M84.45,205c-.48-.55-.89.21-1.08.24C84.42,206,84.57,204.79,84.45,205Z"/><path class="cls-1" d="M94.44,209.37l-.31.23c.57,0,1.13-.09,1.69-.14Z"/><path class="cls-1" d="M103,212.82c-.35-1.62-3.2-.87-4.55-2l-.13-.41-1.13.78C99.13,211.86,101.81,212,103,212.82Z"/><path class="cls-1" d="M106.76,217.24c-.14-.62,1.16-.16-1.06-.49a1.79,1.79,0,0,1,.16.19A7.56,7.56,0,0,1,106.76,217.24Z"/><path class="cls-1" d="M105.86,216.94c-1-.24.48.63,0,0Z"/><path class="cls-1" d="M110.28,217.86l-1.36.14c.17.39,1.25.76.78.88C111.05,219,110.86,218.57,110.28,217.86Z"/><path class="cls-1" d="M111.71,217.15l-.69,0C111.1,217.35,111.26,217.44,111.71,217.15Z"/><path class="cls-1" d="M109.56,217.26l1.46-.07c-.12-.27,0-.72-.66,0C110.58,216.8,110.21,217.12,109.56,217.26Z"/><path class="cls-1" d="M108.85,216.84c-.61-.49-1.44-.93-.08-1.06C106.39,215.29,106.44,216.36,108.85,216.84Z"/><path class="cls-1" d="M103.91,211.57l-.75-.7-.93.19C102.69,211,103.82,212,103.91,211.57Z"/><path class="cls-1" d="M117.82,220.43c.14-.28-.24-.89-.25-1.29l-1,.14C117,219.59,117.85,220,117.82,220.43Z"/><path class="cls-1" d="M117.57,219.14l1.47-.21C117.84,218.61,117.56,218.8,117.57,219.14Z"/><path class="cls-1" d="M112.32,215.67q-1.23.26-2.49.48c1-.12,2-.25,2.92-.39Z"/><polygon class="cls-1" points="123.05 221.54 122.14 222.07 123.72 221.3 123.05 221.54"/><path class="cls-1" d="M126.55,222.06c-.68.47.62,1.11-.06,1.36a6.2,6.2,0,0,0,2.67-.61A3.63,3.63,0,0,1,126.55,222.06Z"/><path class="cls-1" d="M130.48,222.36a6.66,6.66,0,0,0-1.32.45A3.76,3.76,0,0,0,130.48,222.36Z"/><path class="cls-1" d="M121.33,219.56a1.54,1.54,0,0,0,.9,1.06l-.37-.94Z"/><path class="cls-1" d="M121.85,219.65v0L123,220Z"/><path class="cls-1" d="M121.19,219.53l.14,0C121.29,219.47,121.27,219.43,121.19,219.53Z"/><path class="cls-1" d="M115.67,217.28c.91-.27,2.66-.41,1.23-1.47C116.2,216.25,117,216.86,115.67,217.28Z"/><path class="cls-1" d="M120.74,218.34l-1.39-.49c0,.23.17.61-.28.76Z"/><polygon class="cls-1" points="121.5 218.22 120.74 218.34 121.26 218.53 121.5 218.22"/><path class="cls-1" d="M128.13,221.15a4.87,4.87,0,0,1,2.16-.1,13.64,13.64,0,0,0-2.46-.68C127.67,220.62,127.23,221,128.13,221.15Z"/><path class="cls-1" d="M125.09,220.37l.14,0C125.16,220.26,125.1,220.22,125.09,220.37Z"/><path class="cls-1" d="M137.92,222.2l-.1-.17a.78.78,0,0,0,0,.14Z"/><path class="cls-1" d="M127.72,220.19a1.45,1.45,0,0,0-1.4.07,10,10,0,0,1,1.51.11C127.91,220.26,127.93,220.18,127.72,220.19Z"/><path class="cls-1" d="M132.68,222.3a8.75,8.75,0,0,0-1-.63C132,222,132.53,222.51,132.68,222.3Z"/><path class="cls-1" d="M125.4,220.62l-.1,0C125.47,220.86,125.46,220.76,125.4,220.62Z"/><path class="cls-1" d="M125.4,220.62a3.92,3.92,0,0,0,.92-.36,4.72,4.72,0,0,0-1.09.09A.83.83,0,0,1,125.4,220.62Z"/><path class="cls-1" d="M140.93,217.07c-.2.77-1.93,1.28-3.21.25-1.45.39-.93,3.1.1,4.71.09-.34.13-.65,1.62-.92-.44-.5-3-1.44-1.73-2,1.94-.15,1.51.49,2.37,1-.65-1.08,2.59-1.12,2.35-2.61l-1.71.3C140.72,217.61,141.36,217.33,140.93,217.07Z"/><path class="cls-1" d="M135.09,221.56h-.6a5.64,5.64,0,0,1,1.89,1.36c1-.24,1.28-.5,1.39-.76l-2.9-.52Z"/><path class="cls-1" d="M131.84,221.17c.6-.78,2.06-.92,1.34-2-1.73-.21-1.32.53-2.41.73,2.82.23-.87.35,1.06,1.15a7.81,7.81,0,0,1-1.54,0,11.55,11.55,0,0,1,1.38.62l0-.06h0c-.11-.13-.14-.2,0-.12h.06a1.14,1.14,0,0,1,.18-.3c.78.31.09.24-.18.3,0,0,0,.08,0,.13h0l2.87,0A11.46,11.46,0,0,0,131.84,221.17Z"/><path class="cls-1" d="M118.77,214.32a.26.26,0,0,1,0,.22C119,214.47,119.09,214.42,118.77,214.32Z"/><path class="cls-1" d="M119.78,215.08a1.16,1.16,0,0,1-1.09.14c-.51-.38.09-.4.12-.68-.44.13-1.5.3-.36,1l.21-.07c1,.54,2.25,1.87,2,2A5.8,5.8,0,0,0,119.78,215.08Z"/><path class="cls-1" d="M125.87,218h2.38l-1-.94v.45C125.91,217.09,126.09,217.69,125.87,218Z"/><polygon class="cls-1" points="138.13 222.66 137.69 223.52 139.22 222.43 138.13 222.66"/><polygon class="cls-1" points="141.18 222.95 140.97 223.72 141.84 223.35 141.18 222.95"/><path class="cls-1" d="M203.44,96.45l-.2.5A2.9,2.9,0,0,0,203.44,96.45Z"/><path class="cls-1" d="M204.51,96.89l.21-.48A.8.8,0,0,0,204.51,96.89Z"/><path class="cls-1" d="M199.52,174.13c1.23-.17,2.82-.14,2.11-.69l-.83-.4A2.63,2.63,0,0,1,199.52,174.13Z"/><path class="cls-1" d="M218.3,128.82l-.24.31.88.6Z"/><path class="cls-1" d="M214.66,128.49l.41-1.3A4.63,4.63,0,0,0,214.66,128.49Z"/><path class="cls-1" d="M188.43,112.15l0,1.19C189.36,112.47,188.65,112.53,188.43,112.15Z"/><path class="cls-1" d="M168.74,204.37a6.86,6.86,0,0,0,1.89-1.14C169.54,203.61,168.43,203.66,168.74,204.37Z"/><path class="cls-1" d="M206.49,81.23a3.32,3.32,0,0,0-.76,1.36C206.22,82,206.54,81.47,206.49,81.23Z"/><path class="cls-1" d="M172.38,201.49c-.17,0-.3.12-.47.17a6.14,6.14,0,0,1-1.28,1.57A2.26,2.26,0,0,0,172.38,201.49Z"/><path class="cls-1" d="M117.45,179.31a2.09,2.09,0,0,1-.23.08C117.29,179.49,117.36,179.42,117.45,179.31Z"/><path class="cls-1" d="M90.85,192.71a11.21,11.21,0,0,1,.8-.86A2.93,2.93,0,0,0,90.85,192.71Z"/><path class="cls-1" d="M155.94,218.07c-.42.49,0,.14,0,0Z"/><path class="cls-1" d="M151.21,217.93a.6.6,0,0,0-.06-.54A.7.7,0,0,1,151.21,217.93Z"/><path class="cls-1" d="M173.09,193.17l0,0C172.88,193.15,172.92,193.15,173.09,193.17Z"/><path class="cls-1" d="M155,218.46a3.72,3.72,0,0,0,.77-.39A4.86,4.86,0,0,0,155,218.46Z"/><path class="cls-1" d="M155.36,218.66l-.46.34C154.94,219.16,155.06,219.17,155.36,218.66Z"/><path class="cls-1" d="M156.53,217.41a4.77,4.77,0,0,1-.79.66c.13,0,.2,0,.2,0Z"/><path class="cls-1" d="M153.6,141.37l-.15,0C153.23,142.11,153.4,141.88,153.6,141.37Z"/><path class="cls-1" d="M205,156s0,0,0,.08l.09,0Z"/><path class="cls-1" d="M206.15,153.94c.07,1.46-.42,1.75-1.11,2.11l2.3,1.24Z"/><path class="cls-1" d="M198.87,101.18l1.71-.55c-.52,2.27-1.84,2.93,0,2.67-.86-1.06.22-2.19,1.31-3.33l.19-.2,0,0,.06-.11a.76.76,0,0,0,0-.32,4.14,4.14,0,0,0-.33-1.38,2,2,0,0,1,.48.33c-.08,0,0,.22-.11.25.44.48.3-.07.32-.92s.1-1.94.61-2.16c.35,0,.47.39.25,1,.21-.51.47-1.07.77-1.67,0,0,0,0,0,.07V95a1.46,1.46,0,0,1,0,.31c-.05.21-.1.19-.19.29.09-.18.14,0,.2,0l.17.21.36.45,0,.1a1.91,1.91,0,0,1,1.18-.78c0,.85-.27.11-.42.61a3.23,3.23,0,0,1,.84.21,1,1,0,0,1-.69.78.45.45,0,0,1-.55-.35c-.64,1.86-.55,1.64-.25,1.55.15-.07.34-.12.46,0s.17.45,0,1a2.44,2.44,0,0,0-.47-.22c-.53.73-.7.95-.81,1.13a.58.58,0,0,1-.18.23l-.08,0c0,.08,0,.21,0,.31s0,.45,0,.7a7.24,7.24,0,0,0,.28-.88.91.91,0,0,1,.1-.28l.19-.12a3.25,3.25,0,0,0,.37-.3c.5-.42,1-1,1.42-.8a.5.5,0,0,0,0,.46,3,3,0,0,0,.86,1c-.89.38-.3,1.17.18,2.28l-1.22.38c.81,1.07,1.38.75,2.19,1.26.39,1.41-.46,2-1.13,2.62.57,2.23,1-2,2.1.47.15,2,1.07,3.09,2.44,5.11-.05,1.42-.82,0-1,.55l1.31.88c.05.29-.27.28-.44.27.64.88,1.26-.25,2,1.21,1.49.1-1.23,3.65.71,5.23-.26.54-.82-.08-1.27.16a19.47,19.47,0,0,0,2.9,4.09c-.18.66-.38,1.32-.59,2,.79-1.49,2.14.11,3.23,1.63a10.18,10.18,0,0,0,.93-1.34c.34.83.62,1.68.92,2.53-.18.33-.64.1-1.21-.28a4.74,4.74,0,0,0,.35.45c-.4,1-1.18.52-1.94-.07.22-.33.47-.65.71-1a3.34,3.34,0,0,0-2.48-.83,1.69,1.69,0,0,1,.43.77c-.23-.14-.42-.22-.54-.14s.17.33.53.7l-1.38.68.58.09c-.19,1.09-.48,2.16-.72,3.22,1.45,2.19,3.64,4.29,3.83,8.16-1-1.05-1.68-.38-2.91-.56.69-.43.62-1.15.42-2a6.09,6.09,0,0,1-.42-2.69c-.18,1-.76.73-1,.49.37,1.1.72,2.22,1,3.36-1-.17-.79.64-1.33,1.43,2.07-.42,1,2.61,1.32,4-.68,0-1.28-.5-.83-2.06-.9.76-.44,1.4.06,2.1s1,1.32.23,1.79c.06-.3.2-.43-.1-.64a1.67,1.67,0,0,1-.15,1.44c-.43.26-.84.3-1,0l.17-.18a7,7,0,0,0-.54.44l-.33.31-.49.49a26.13,26.13,0,0,0-1.92,2.17c-1.15,1.48-1.91,2.92-1.46,3.67a12,12,0,0,1-1.3-2.08l.44,7.63c-.72-1.35-4.38-2.62-3.3-4.86a4,4,0,0,0-2,2.11c.47-.17,2.3.69,2,1.23-2.38.07-1.47.23-4,.75.71-.27,1.78,1.9,1,2.62-.12-.37-1.66-1.54-1.55-2l-.34,3.51c.2-.77-1.26-1.44-2.14-1.46.51.11-1.69,1.62-2.05,2.29l1.18-.44c-2.41,1.92.08,4.38-2.16,6.44-.07-.59-1.37-2.67-2.67-1.78.31,1.32,1.67,6.15.39,8.68l-.83-.11-.94,2a44.15,44.15,0,0,1,.08-9.67c-1.18.44-.77-.32-2,.93-.86,0,0-1.32.34-1.7L186.11,172c1.07.83-1.22,3.12-.33,3.81l2.11-4.06c1.07.83.9,4.48-1.28,6.31-.89.13-1.3-2.08-1.66-2.35.06.59-1.29,2.52-1.7,2.47l.34-1.35c-1.47.75-.57,3.08-2.82,3.5-.53.4-2.61.15-2.13.8,1.84.33,5.33,3.55,5.64,4.87a22.2,22.2,0,0,1-4.54,1.38c-1.61-.1-.87-3.18-2.25-3.27a1.91,1.91,0,0,1,0,1.31c-.71.26-.6-1-1.54.17.78,1.14-2.24,2.06.31,1.31-.76,1.31-1.3.9-2.48,2.15,1,.24,1,3.21.25,4.52-.18-.31-.73-.39-1-.43-2.21,2-3.79,2.72-5.78,4.68-.42,0-1.66.62-1.66-.2a2.86,2.86,0,0,1-.64,1.67c-2,.34,1.23-1.49-.67-1.59.48.63-.81,2.34-1.33,3.56,1.13.6,2.18-1.83,2.7-3,1.19,1.19.92,3.95-.6,6.57-1.36,1.93-1.49-.07-1.6.39-3.31,2.86-.56,4.71-4,6.39-1.78.25-1.56-1.47-2.33-1.79,1.06-1.63,2.54-1.57,3.42-2.5l-1.48.75a3.42,3.42,0,0,1,1.59-2c-1.53.16-5.36,5.06-8.37,6.8-.17.67-.64,1.66,0,1.63l.65-.86c1.3-.07-.58,2.26.66,1.6a22.63,22.63,0,0,1-1,2.3,4.65,4.65,0,0,1-.34.56c-.17.23-.38.48-.59.71a8.84,8.84,0,0,1-1.48,1.3c-.33-.25-.65-.51-1-.79.19.33,1.58-.52,1.86-1.33-.21.59-1.18,1-2,1.35a4.18,4.18,0,0,0-1.06.71.87.87,0,0,0-.9.51l1,.52.27.13c.09.06.14,0,.22,0l.42-.12-.22.38-.11.21c0,.07-.07.14-.14.14L148,222a15.84,15.84,0,0,1-1.68.42,11.23,11.23,0,0,1-2,.2,7.52,7.52,0,0,1-1-.06,3.11,3.11,0,0,1-.66-.14c.76,1.3.11-.12,2.2,1.53-.9-1,1-.75,2.64-.59l1.2.1.49,0c.07,0,.15,0,.19,0l.11-.16c.26-.43.19-.63-.48-.7,2.09.34,2.88-1.82,5.61-2.54-.32-.25-1-.13.23-1a1.6,1.6,0,0,1,0-.49l.09,0-.09,0c0-.09,0-.1,0,0a1.75,1.75,0,0,1-1,.1c-.12-1.18,1.59-2.84,1.82-3.75.76-.48.06.6.71.56l.35-1.36c.71.56,2.72-.6,1.61,1.25l1.36-1.3a5.13,5.13,0,0,0,2.77-2.29c.76-.48.89-2.28.83-1.24L165,208l.17.14c2.15-2,3.21-5.28,6.71-6.48a8.34,8.34,0,0,1,2.41-2.73l.77.32c.7-1.08,3.23-2.11,3-3.06,2.43.52,4.65-4,6.48-5.28l-.65-.78a19.36,19.36,0,0,0,3-3.89l-.71-.55c.64-1.67,3.42-2.51,5.19-4.39.11.37-.41.77-.89.95,3.62-.74,3.58-5.63,6.6-6.55a1.83,1.83,0,0,1,1.21-1.19.29.29,0,0,0-.09.16c.06,0,.13-.12.21-.19.33-.11.68-.21,1-.35a3.25,3.25,0,0,0-.91.23,10.21,10.21,0,0,0,1.27-1.76l.92.44a.83.83,0,0,0,.11-.15c.81-.3.13-.77-.68-1a4,4,0,0,0,.34-1.16c1.55.65,1.12-1.85,2.9-1.28-.18-1,2.42-3.26,1.53-4.77.17.14.42.05.12.36a3.4,3.4,0,0,0,1.76-1.88l1.13.6.22-2.54c1.37-.3,2-.34,1.85,1.16,1-3,1.25-2,1.94-4.73l.48.65c.59-.63.82-2.35,1.65-2.25a4.89,4.89,0,0,0,2.17-1.19c.42-.33.86-.72,1.32-1.15l2-1.92.26-.26c.08-.09.08-.23.12-.34l.18-.7c.13-.47.26-.95.38-1.43l.2-.72c.07-.24.14-.5.17-.67l.28-1.12a39.16,39.16,0,0,1,1.29-4.23c-2.41.78,1.26-2.35-.53-2.71.58-.27.91-1,1.35-.11a10.43,10.43,0,0,1,.17-3.28,3.15,3.15,0,0,0-.71-2.64c.55-.32.82.56,1.14.28-.11-.22-.51-.85-.19-1.14s.48.38.74.81c-.21-2.8-1.93-3-3.54-3,.64-1.39.5-2.09-.66-2.93.47-.52.92-1.37,1.3.27,0-.47,0-1.92-.15-3.24s-.5-2.49-1.15-2.43c.27-.34-.14-1.29-.33-1.5a23.16,23.16,0,0,0-.81-4.22l-.08.59c-1.69-.43-.69-1.56-1.3-3.1h.17c.07-2-.19-2.31-.41-2.66s-.4-.7-.34-2.65l-.86.47c-2.06.3.2-3.48-1.29-5.26l-.27.91c-1-.84,1.54-4,1.33-5.25.07-.31.42.28.68.57,0-3.37-1.31.07-2.45-2,.47-.65,1.81-.13,1.33-1.64a.59.59,0,0,0-.1-.42c-.1-.19-.2-.27-.46-.68-.47-.7-1.08-1.47-1.69-2.26A11.55,11.55,0,0,1,210.72,88c0,1.18-.06,2.19-.95,1.3a30.2,30.2,0,0,1-1.57-4.48,12.85,12.85,0,0,0-1-2.29,2.2,2.2,0,0,0-.54-.63s0,0-.07,0l-.1.14-.19.3c-.12.21-.25.43-.36.67-.18,0-.24-.16-.22-.34-1.41,1.8-4.23,4.68-4.71,6.37-.87-1.47-3,1.12-4.46,3.15l-.55.75-.26.35-.17.26a5.06,5.06,0,0,1-.69.83.92.92,0,0,1-1.46-.06L190.83,97l-.14-.29a4.58,4.58,0,0,0-2.09,3.75c-.54.23-.45-.25-.53-.4-3,2-3.12,2.32-4.19,5.46L183,105c-.17,1-4.74,2.4-6.42,5.62a.68.68,0,0,1,0-.59c-2,3.53-8.6,4.45-7.12,8l-1.23,2.41c2.58-2.09.73,1.48,2.13,1-.8,1.06-3.19,1.55-2.16.31l.3,0c-.87-1.77-3.42,2.36-4.25,1.38-4.63,4.58-9.93,8.22-14.39,12.39l1.52.57-1.59,1.41c-.64.15-1.34-.3-.2-1.31-1.15,0-1.36,2.26-1.17,2.52-2.55,1.64-.34-2-1-1.42l-.82.93.32-.07c-.31,1.13.06,1.65-1.3,2.86-1,.59-1.05-.24-1.42,0-.07-.07-.22,0-.53.46l-2,1.76,1.57.09c-.46,1.24-1.86,1.71-.06,1.79-2.71-.19-7.72,6.41-9,6.73a9.89,9.89,0,0,1-3.35,4.22c.53-.17,1.65.55.27,1.66-1.39-2.38-3.12,1.38-5.48,1,1.8,0-3.38,3.68-.69,3.61-1.2.86-.76-.66-2-.34-1.79,3.16-6,4.83-8.87,8.07.19.3,1.09.19.78,1.21l-2.86.3c-.49.72.84,2-1.12,2.21.36.06.91.15.57.63-7.27,4.61-11.47,13-19.88,16.58,1.31-.31.79.27.17.9.53-.28.59.64,1,.91l-3.51,1.53c.44,1.4-2.71,2.73-2.11,3.9l.66-.95c0,2.12,3.83.93,5,2.46,0-2.4,5-1.28,5.28-4.95.71-.15,0,.8.59.9-.06-1.08.43-1.8,1.83-2.62v.27c3-3.21,5-3.94,8.94-7l-.92-.43a4,4,0,0,1,1.75-.76c-.11-1.89-2.22,2-2.51.1,2.36.41,5.45-5.2,7.66-4.28,1.2-1.13-1.1-.46.09-1.59l.72.13-.22-.84a1.74,1.74,0,0,1,2.14-.16c-.23.14-.44.61-.61.84,1.49-.47,2.68-2.9,3.18-3.07l-1.39.83c2.85-3.51,7.34-6.74,9.63-10.61l-.54-.1c1.81-2.88,2.25-1.48,4.6-4.27l0,.17a4.73,4.73,0,0,1,1.52-2.31c-.3,1,1.95-.47,1.48.79,2-3.13.8-1.74,1.36-4.58l.9.16a3.5,3.5,0,0,1,1.1-2.74c-.63,1.49,1.62,0,1,1.77,3.87-1.47,2.94-5.1,5.85-4.6-.16-2.69-3.17,1.47-2.77.47-1,.08,0-2.11,1-2.79s3.31.47,5.49-1.68c-.23.2-.14.33-.36.53,1.19-.41,1.13-2.06,2.73-2.42-.29-1.44,1.36-1.22.43-2.51l-1.77,2.2c.86-1.4.65-3.77,3.17-4.93a4.32,4.32,0,0,1-.43,1.75c.88-.19.85-1.24,1.76-1.45.93,1.3-2.22,2.61-2.61,4.66,1.05-.08,1.53-3.06,2.1-1.23-.63-2.42,2.36-1.89,2.7-4.52l.56.78a3.8,3.8,0,0,1,.77-1.53l.06,1.64c.48-1.92,3-1.58,3.74-3.1-2.41,2.35-1.34-.3-2.85.18,2.12-3.79,3.44.14,6.48-3.41-.36.53-2.1,1.22-1.69.22a6.36,6.36,0,0,1,2.61-1c2.08-2.28-1-.38-.48-1.71,1.56.11.77-1.39,1.49-2.59l.67.69c3-2-.72-2.1,2.08-3.75l0,1.89,1-1.39.52,1c.73-1.83,1.28-2.07,2.76-3.06-.77-.21-1.05-1.42,0-2.52,1.16-.32.21,1.07,1.7-.56.06.78.19,1.71-1.12,1.73.15.3.07.78.21,1.07,1.28-.31,2.18-1.88,2.75-2.44a2.08,2.08,0,0,1-.78.44l1.38-3.18c.61-.09.53.4.44.88.39-.53.41-1.16,1-1.88.36.74,1,1.28.25,2.48l1.6-2.73c.38.1,1.77-.41,1.69.07,1.53-.84,1.93-4,4-5.08a1.38,1.38,0,0,1,.31-.87c1.64-1.33,3.65-1.92,4.71-4.43l2,0c1.19-1.59-2.61.05-.63-2.59,1.35-1.92,1.45.27,2.3,0,.34-1.3.78-3.72,3.1-4.36C199.81,100.43,199.27,100.66,198.87,101.18Zm7.18-2c-.26-.11-.9,0-.5-.51C206.51,98.12,206.21,98.74,206.05,99.19Zm10.64,33.24c-.34-.32-.19-.84.13-1.46A2.29,2.29,0,0,1,216.69,132.43Zm-56.34,80.14a.13.13,0,0,0,0-.06C161.36,212,161,212.19,160.35,212.57Zm-1.83,1.23c-.06.25,0,.33.21.36-.07-.27.27-.63.71-1C159.15,213.12,158.83,213.19,158.52,213.8Zm-14.34-72.38.48-.11C144.17,142.16,144.19,141.8,144.18,141.42Z"/><path class="cls-1" d="M215.09,128.54a1.07,1.07,0,0,1,.49-.24C215.4,128.14,215.22,128.16,215.09,128.54Z"/><path class="cls-1" d="M188.42,111.93s0,0-.06,0a.36.36,0,0,0,.07.18Z"/><path class="cls-1" d="M176.53,184.4a1.82,1.82,0,0,1,1-.26C177.34,184,177.06,184,176.53,184.4Z"/><path class="cls-1" d="M149.13,224.62h.58c.11,0,.16-.09.23-.16l.21-.24.8-1a4.37,4.37,0,0,1-.95.81c-.13.07-.23.17-.37.16l-.45-.16C149.3,224.29,149.88,224.68,149.13,224.62Z"/><path class="cls-1" d="M135.37,217c-.22.09-.43,0-.64,0v.45C135.58,217.54,136.22,217.27,135.37,217Z"/><path class="cls-1" d="M146.41,221.14c-.28-.84-1.29-.67-2.57-.67a1.46,1.46,0,0,1,.22,0C143.56,221.58,145.09,221.38,146.41,221.14Z"/><path class="cls-1" d="M143.58,220.47a3.4,3.4,0,0,1-.9-.09C142.51,220.82,143,220.52,143.58,220.47Z"/><path class="cls-1" d="M157,216.11c-.48.18.52.94.1.89C157.43,218.1,158.36,214,157,216.11Z"/><path class="cls-1" d="M145.23,218.33c.13.35.28.7.44,1a6.88,6.88,0,0,0,.48-.76Z"/><path class="cls-1" d="M151.89,215.45l-1.3.89c.14.1.06.32-.08.57C151.28,216.19,152.11,215.65,151.89,215.45Z"/><path class="cls-1" d="M150.51,216.91a3.31,3.31,0,0,0-.89,1.11A6.93,6.93,0,0,0,150.51,216.91Z"/><path class="cls-1" d="M147.24,218.23l.26.13.13.07a.16.16,0,0,0,.1,0l.8-.69-.6.4-.3.2A1.55,1.55,0,0,1,147.24,218.23Z"/><path class="cls-1" d="M163.85,203.84l1-1.39c-.12-.37-.59-.19-.94.35C163.79,203.25,163.44,203.79,163.85,203.84Z"/><path class="cls-1" d="M158.29,205.5c.47-.18.65,0,1.07,0l-.84-.91Z"/><path class="cls-1" d="M161.59,201.82c-.13-.37,1-2.44-.42-.87C161.28,201.31,160.28,202.71,161.59,201.82Z"/><polygon class="cls-1" points="180.78 184.97 180.49 185.28 181.97 186.69 180.78 184.97"/><path class="cls-1" d="M193.3,165.68c-1.77,1.07.54,1.23-1.17,2.07,0,.67,1.4-.69,1.35-.05C194,166.48,194.64,166.24,193.3,165.68Z"/><path class="cls-1" d="M193.48,167.7a4.11,4.11,0,0,0-.22.65A2,2,0,0,0,193.48,167.7Z"/><polygon class="cls-1" points="86.69 195.19 85.47 195.78 86.54 195.7 86.69 195.19"/><path class="cls-1" d="M86,198l-1.12-.73.26,1.39C85.26,198.41,85.59,197.94,86,198Z"/><path class="cls-1" d="M204.75,102.9l.33,0c.24-.3.16-.58,0-1.13Z"/><path class="cls-1" d="M203.05,98.59h0c0-.51-.1-1-.17-1.46Q203,97.84,203.05,98.59Z"/><path class="cls-1" d="M197.38,106.11c.47-.38.79-1.06,1.26-1.44C197.85,105.73,196.25,105.17,197.38,106.11Z"/><path class="cls-1" d="M372.29,340.68c-.35-.56-.86.14-1,.15C372.07,341.59,372.45,340.52,372.29,340.68Z"/><polygon class="cls-1" points="380.46 348.05 380.08 348.11 381.72 348.85 380.46 348.05"/><path class="cls-1" d="M386.69,356c.54-1.63-2.44-2.75-3.15-4.49l.07-.43-1.41.07C383.7,352.8,386.06,354.58,386.69,356Z"/><path class="cls-1" d="M387.59,362.2c.23-.61,1.1.63-.64-1.1a1.57,1.57,0,0,1,0,.27A8.62,8.62,0,0,1,387.59,362.2Z"/><path class="cls-1" d="M387,361.37c-.69-.82.06.83,0,0Z"/><path class="cls-1" d="M390.27,365.05l-1.26-.8c-.08.43.63,1.47.16,1.25C390.27,366.47,390.35,366,390.27,365.05Z"/><path class="cls-1" d="M391.91,365.46l-.62-.44C391.26,365.2,391.34,365.38,391.91,365.46Z"/><path class="cls-1" d="M390,364.07l1.3.95c.06-.31.41-.61-.56-.46C391.14,364.4,390.63,364.4,390,364.07Z"/><path class="cls-1" d="M389.62,363.25c-.24-.81-.71-1.74.55-.93C388.36,360.32,387.81,361.25,389.62,363.25Z"/><path class="cls-1" d="M388.18,355.54l-.32-1.09-.94-.42C387.38,354.24,387.86,355.87,388.18,355.54Z"/><path class="cls-1" d="M395.08,372.41c.29-.12.34-.87.58-1.2l-.91-.6C394.92,371.16,395.39,372.07,395.08,372.41Z"/><path class="cls-1" d="M395.66,371.21l1.37.91C396.23,371,395.87,370.94,395.66,371.21Z"/><polygon class="cls-1" points="393.31 364.68 390.88 363.35 393.62 365.06 393.31 364.68"/><polygon class="cls-1" points="398.7 377.11 397.6 376.84 399.41 377.43 398.7 377.11"/><path class="cls-1" d="M401.22,380.13c-.86-.15-.22,1.31-.93,1a7.33,7.33,0,0,0,2.56,1.56A4.49,4.49,0,0,1,401.22,380.13Z"/><path class="cls-1" d="M404.21,383.36a9.06,9.06,0,0,0-1.36-.68A4.44,4.44,0,0,0,404.21,383.36Z"/><path class="cls-1" d="M398.54,374.29a1.74,1.74,0,0,0,.07,1.5l.3-1Z"/><path class="cls-1" d="M398.92,374.75v0l.78,1.07Z"/><path class="cls-1" d="M398.45,374.17l.09.12C398.57,374.2,398.57,374.15,398.45,374.17Z"/><path class="cls-1" d="M395.21,368.37c.94.42,2.51,1.61,2-.29C396.3,367.92,396.62,369,395.21,368.37Z"/><path class="cls-1" d="M398.83,372.91l-.87-1.42c-.15.17-.23.61-.7.4Z"/><polygon class="cls-1" points="399.54 373.38 398.83 372.92 399.15 373.44 399.54 373.38"/><path class="cls-1" d="M403.1,380.64a5.93,5.93,0,0,1,1.83,1.59,16.43,16.43,0,0,0-1.55-2.4C403.08,379.89,402.45,379.86,403.1,380.64Z"/><path class="cls-1" d="M401.13,377.73l.13.1C401.26,377.71,401.23,377.63,401.13,377.73Z"/><path class="cls-1" d="M410.26,389.06a1.42,1.42,0,0,0,0-.2l-.14.06Z"/><path class="cls-1" d="M403.4,379.6a1.77,1.77,0,0,0-1.19-1,11.79,11.79,0,0,1,1.17,1.25C403.51,379.8,403.58,379.76,403.4,379.6Z"/><path class="cls-1" d="M406,385a9.88,9.88,0,0,0-.39-1.25C405.64,384.22,405.76,385.06,406,385Z"/><path class="cls-1" d="M401.22,378.16l-.09-.06C401.13,378.4,401.18,378.32,401.22,378.16Z"/><path class="cls-1" d="M401.22,378.16a4.38,4.38,0,0,0,1,.42,5.29,5.29,0,0,0-.95-.75A.93.93,0,0,1,401.22,378.16Z"/><path class="cls-1" d="M416.2,387.75c-.7.39-2.42-.63-2.75-2.42-1.44-.88-2.85,1.54-3.15,3.53.3-.18.55-.37,1.93.62,0-.71-1.43-3.47,0-2.83,1.65,1.45.87,1.57,1.18,2.65.23-1.31,2.83,1.29,3.68,0l-1.57-1.18C415.66,388,416.37,388.3,416.2,387.75Z"/><path class="cls-1" d="M408.45,386.36l-.49-.47a6.51,6.51,0,0,1,.58,2.49c1,.64,1.37.64,1.62.54l-1.94-2.67Z"/><path class="cls-1" d="M406.1,383.52c1-.12,2.28.93,2.41-.43-1.26-1.51-1.42-.64-2.43-1.34,2.12,2.38-.95-.42.08,1.69a10.11,10.11,0,0,1-1.23-1.21,13.11,13.11,0,0,1,.7,1.54v-.1h0c0-.18,0-.25.07-.09l.05,0a1.06,1.06,0,0,1,.35-.09c.42.84-.09.26-.35.09a.61.61,0,0,0-.12.05h0l2.33,2.22A13.59,13.59,0,0,0,406.1,383.52Z"/><path class="cls-1" d="M399.67,368.27a.24.24,0,0,1-.1.21C399.78,368.57,399.89,368.59,399.67,368.27Z"/><path class="cls-1" d="M400.07,369.62a1.37,1.37,0,0,1-1-.69c-.19-.67.33-.25.53-.45-.46-.22-1.46-.87-.91.5l.23.11c.55,1.19.72,3.15.49,3.05A5.87,5.87,0,0,0,400.07,369.62Z"/><path class="cls-1" d="M403.31,376.51l2,1.83-.24-1.53-.32.33C403.93,375.85,403.7,376.44,403.31,376.51Z"/><polygon class="cls-1" points="410.11 389.57 409.18 389.85 411.13 390.26 410.11 389.57"/><polygon class="cls-1" points="412.32 392.21 411.62 392.6 412.55 393.02 412.32 392.21"/><path class="cls-1" d="M492.68,502.41l-.52-.13C492.49,502.46,492.63,502.47,492.68,502.41Z"/><path class="cls-1" d="M500,508.27l-.88-1.2A4.19,4.19,0,0,0,500,508.27Z"/><path class="cls-1" d="M464.5,458.81c.11,1.35,0,3.05.61,2.4l.46-.81A3.44,3.44,0,0,1,464.5,458.81Z"/><path class="cls-1" d="M505.08,502.32l1.09,1-4.52-4.43Z"/><path class="cls-1" d="M523.5,520c-.48-.3-1-.63-1.49-1A4.62,4.62,0,0,0,523.5,520Z"/><path class="cls-1" d="M454.93,473.53l-1.26.13C454.79,474.54,454.57,473.8,454.93,473.53Z"/><path class="cls-1" d="M434.3,419.81a9.25,9.25,0,0,0,1.09,2.25C435.06,420.82,435.06,419.61,434.3,419.81Z"/><path class="cls-1" d="M473.79,475.6a14.64,14.64,0,0,0,1,1.46A9.47,9.47,0,0,0,473.79,475.6Z"/><path class="cls-1" d="M437.14,424.28c0-.19-.11-.35-.16-.53a8.37,8.37,0,0,1-1.59-1.69A2.92,2.92,0,0,0,437.14,424.28Z"/><path class="cls-1" d="M368,403.4c0-.08-.1-.16-.13-.24C367.78,403.24,367.86,403.31,368,403.4Z"/><path class="cls-1" d="M348,376.28a12,12,0,0,1,1.08.78A3.45,3.45,0,0,0,348,376.28Z"/><path class="cls-1" d="M420.56,403.37c-.5-.55-.15,0,0,0Z"/><path class="cls-1" d="M421.07,398.45a.54.54,0,0,0,.52,0A.68.68,0,0,1,421.07,398.45Z"/><path class="cls-1" d="M445.87,426.69l0,.05C445.91,426.47,445.91,426.52,445.87,426.69Z"/><path class="cls-1" d="M420.19,402.26a5.83,5.83,0,0,0,.37.89A4.77,4.77,0,0,0,420.19,402.26Z"/><path class="cls-1" d="M420,402.63l-.33-.56C419.46,402.09,419.44,402.21,420,402.63Z"/><path class="cls-1" d="M421.22,404.14a6.09,6.09,0,0,1-.66-1c.05.15,0,.23,0,.22Z"/><path class="cls-1" d="M416.27,438.86c0-.05-.06-.1-.08-.16C415.39,438.52,415.68,438.68,416.27,438.86Z"/><path class="cls-1" d="M487.45,473.54l-.16-.13,0,.11Z"/><path class="cls-1" d="M491.22,477.31c-3.27-2.42-3.49-2.91-3.88-3.79-1.25-.24-2.55-.55-3.91-.94Q487.11,474.67,491.22,477.31Z"/><path class="cls-1" d="M475.8,489.29l3.12,3.48c-1.91.12-4.93-2.85-1.45,1.32-.76-2.34,1.69-.48,4.14,1.38s4.91,3.74,3,.49l2.46,2.69c-.5-.43-.33-.09-.83-.52,2.61,2.9,2.48,2.17,2.07,1.08s-1-2.5,1.13-.55c1.64,1.57,3.44,3.51,3.23,3.75a9.59,9.59,0,0,0,1.39.25c.95.82,1.9,2.18.92,1.34l3.89,2.82.19.25c-.51-.95-1-2.21-1.26-2.75,2.17,2.23.34.64,1.59,2.07a1.46,1.46,0,0,0,.25-.64,16.86,16.86,0,0,1,2.61,3.28c.19.47-.31.26-1.3-.59,5.11,5.8,5.29,5.72,5.19,5.24,0-.23-.12-.54.43-.16a42.15,42.15,0,0,1,4.43,4.07l-1.33-.63c3.35,3.66,5.18,5.43,6.93,7s3.43,3.09,6.87,6.44c-1.34-1.39-5.21-5.24-8.45-8.62s-5.94-6.36-5.81-6.69c1.47,1.42,2.9,2.7,2.24,1.47,3.69,4.17,4.28,4.33,5.86,5.52l5.08,5.69c.64,0-2.28-3.13-3.61-4.92,2.65,2.27,7.58,7.47,12,12,2.46,2.09-.1-.45-2.75-3.14s-5.37-5.5-3.9-4.49c5.2,4.76,4.94,3.89,4,2.18,2.13,2,3.13,3,3.9,3.87s1.3,1.5,2.65,2.82l-3.83-4.36c.55.47,2.17,2.16,3,3-.37-.54-2.15-2.36-3.78-4.07a26.83,26.83,0,0,1-3.15-3.52c-3.77-3.9.08-.19,4.33,3.82,2,1.71,3.29,2.64-2.35-3.27,1.55,1.4,4.73,4.77,7.4,7.39l-8.06-8.76c-1.83-2-3.89-4.14-8.7-9.15.88.67,1.71,1.27,2.48,1.81-1.73-1.44-4.59-4.24-7.67-7.33l-9.26-9.4-4.46-4-4.9-5.15c.84.72,3.07,2.86,5.93,5.66l-1.78-1.79c1.67,1.37,5.41,5,9.4,8.91l-3.1-2.69c4.26,4.19,9.11,9,12.74,12.42-.9-.91-1.83-1.9-2.51-2.65,1.19,1.18,2.23,2.2,2.78,2.71s-1.09-1.16-3.07-3.16l6.32,5.76-2.87-2.75a1,1,0,0,0,.6-.68c-4.55-4.65-9.52-9.57-13.92-13.92s-8.2-8.13-10.66-10.8c2.3,2.09,4,3.55,5.63,4.92s3.28,2.7,5.63,4.7c-1.95-1.43-.78-.16,1.12,1.83a64.57,64.57,0,0,1,5,5.5c-.46-.82,2.19,1.61,3.34,2.75L507.82,501c4,3.44,2.14,1.5,2.69,1.52-6.71-5.32-7.51-7.44-10.93-10.81a30.15,30.15,0,0,1,6,5.78c1.61.84-1.14-1.73-3.76-4.08s-5.21-4.62-4.08-4.22a6.45,6.45,0,0,0,1.58,1.61,13.72,13.72,0,0,1-2.57-2.94c-.27-.53,0-.57,1.17.41l.47.57a83,83,0,0,0-5.72-7.13,33.66,33.66,0,0,0-6.92-6.3c.42.19,4.71,2.7,5.66,3.36a122.73,122.73,0,0,0-15.18-10.13,46.22,46.22,0,0,0,5.2,1.58,13.07,13.07,0,0,1,5.82,3.16c-.32-.75-.9-1.88-3.23-4,.09.28-.44.46-1.13.42a3.33,3.33,0,0,1-1.89-.63,1.52,1.52,0,0,0,.47-1.38c-.08-.41-.2-.82-.42-2.23.17.47-.73.38-1.74.07a5.2,5.2,0,0,1-2.49-1.37c.56.16,2.57-.38,3.27.13a45.7,45.7,0,0,0-5-2.79c1,.59,2-.51,1.9-1.69-.05.29-.66-.51-1.4-1.51-.26-.37-.55-.76-.81-1.12a3.53,3.53,0,0,0-.62-.7l.4,1.35c-1.9-3-4.63-.78-6.68-3.59.63,0,2.89-.94,2-2.51-1.41.07-6.58.58-9.18-1.3l.16-.87-2-1.4a48.2,48.2,0,0,1,10.2,2c-.4-1.35.38-.77-.87-2.28.05-.92,1.39.27,1.78.7l-2.51-3.85c-.93,1-3.22-1.93-4-1.1l4.16,3.06c-.93,1-4.78.09-6.59-2.61-.08-1,2.27-1,2.58-1.32-.62-.05-2.59-1.88-2.52-2.32l1.42.64c-.72-1.73-3.22-1.22-3.55-3.72-.39-.64,0-2.83-.72-2.44-.45,1.91-4.05,5-5.46,5.08-.08-.27-1.26-4-1.19-5.14.19-1.71,3.4-.3,3.56-1.77-.31.19-1.09-.06-1.38-.2-.24-.81,1.1-.44-.08-1.69-1.25.62-2.06-2.81-1.41.08-1.34-1.08-.87-1.58-2.13-3.09-.31,1-3.45.46-4.78-.62.33-.13.45-.71.5-1-2-2.77-2.66-4.6-4.61-7.13.07-.43-.56-1.89.31-1.74a3.38,3.38,0,0,1-1.73-1c-.25-2.23,1.49,1.62,1.71-.4-.7.39-2.43-1.33-3.68-2.13-.7,1.09,1.81,2.7,3.07,3.5-1.33,1-4.23.21-6.9-1.95-2-1.83.15-1.57-.32-1.79-2.84-4.11-4.94-1.53-6.53-5.54-.17-2,1.64-1.38,2-2.14,1.65,1.45,1.5,3,2.44,4.16l-.71-1.73a4.4,4.4,0,0,1,2.05,2.1c-.09-1.68-5.05-6.75-6.71-10.33-.71-.32-1.73-1-1.72-.31l.86.87c0,1.41-2.35-1.07-1.72.39-1.49-.91-3.37-1.76-4.4-3.87l.7-1.1c-.25.26.35,1.64,1,1.92-1-.42-.86-3.8-2.77-3.64l.32,1.79c-1.49-.91-3.77-1.71-4.72-3.55-.38,1.48.4.29.18,2.3.61-2.07,3.15,4.15,3.37,1.42-.39,2.18,1,2.46,1.12,4.85.28-.3.19-1,1.08.45a1.81,1.81,0,0,1,.51.08l.05.11,0-.11c.09,0,.11,0,0,0a2,2,0,0,1-.05-1.06c1.26.1,2.91,2.26,3.85,2.69.48.91-.63-.05-.62.65l1.41.64c-.63.66.48,3-1.4,1.48l1.29,1.72a6.59,6.59,0,0,0,2.26,3.42c.47.92,2.36,1.41,1.26,1.14l2.52,2.32-.16.16c2,2.69,5.39,4.48,6.46,8.48a10.83,10.83,0,0,1,2.75,3.12l-.38.77c1.1,1,2,3.88,3.06,3.87-.69,2.51,3.94,5.78,5.21,8l.86-.55a25,25,0,0,0,3.94,4l.62-.65c1.73,1,2.45,4.16,4.34,6.43-.4.05-.79-.59-.95-1.13.57,4,5.74,4.94,6.55,8.37a2.38,2.38,0,0,1,1.18,1.53.61.61,0,0,0-.16-.13,2.33,2.33,0,0,0,.19.27c.1.37.18.76.31,1.16a3.92,3.92,0,0,0-.2-1,12.5,12.5,0,0,0,1.79,1.72l-.52.9.16.15c.27.92.8.29,1.08-.54a4.64,4.64,0,0,0,1.2.6c-.39.76.08,1.15.56,1.58a2.5,2.5,0,0,1,.63.71c.05.17,0,.39-.3.69.87-.2,1.84,1.36,4.23,1.67-.26,0-.28.16-.51-.1a2.34,2.34,0,0,0,1.37,1.6l-1.67-.15c1.07.48,2.24,1.08,3.51,1.81-.63.41-1.37.16-3.42-.93a19.64,19.64,0,0,1,2.78,1.95c.5.42.92.73,3.06,2.31l-1.76-1c.22.25,1.07.9,1.75,1.47s1.17,1,.51.71c-1.35-.5-.58.56.42,1.91a16.28,16.28,0,0,1,1.28,1.85c.23.45.13.63-.76,0,4.15,3.42,3.42,2.91,2.47,2.22s-2.25-1.7,1.37,1.46c-2-1.72-3.11-2.58-5.26-4.54,1.45,1.4.86,1,.67.92s.09.23,3.79,3.72l-5.15-4.75c.57.54,2.35,2.24.93.95s-2.19-2.05-3.34-3.13c.44.48,2.64,2.58,5.75,5.53l10.9,10.28c-2.95-2.56-2.32-1.92,3.43,3.73-2.36-2.17-4.86-4.47-6.46-6.22,0,.07-.41-.15,0,.37a71.77,71.77,0,0,0,5.18,5.38c-1.66-1.59,0,.2,1,1.18a7.27,7.27,0,0,0,1.51,2.05h0l0,.05,1,.9,4.23,4.34c1,1.1.36.46-.56-.4a24.94,24.94,0,0,0-2.05-1.85l-.88-.9c-4.31-4.15-3.72-3.5-3.37-3.08.18.22.34.41-.11,0s-1.53-1.43-3.66-3.54l5,5.22c5.18,5.45,2.92,3.26-.06.29s-6.62-6.65-5.47-5.23l3,3.08c1.22,1.42-2.58-2.51-6.58-6.74L478,478.5c-.81-.87-1.05-1.2-1.5-1.73a17.84,17.84,0,0,0-1.65-1.71l2,2.27c2,2.23,4.83,5.37,4.86,5.58l-4.4-5c-1.4-1.58-2.57-2.89-3-3.31-1.12-1.24.7.91,1.83,2.39s1.59,2.32-.75-.38c1.71,2,3.6,4.21,4.24,5.22-.16,0-2.15-2.23-3.43-3.64s-1.92-2.1-.36.2c-.42-.52-.77-1-1.07-1.38.45.9-.35.63.72,2.62-3.26-4.71-3.24-4.18-3.67-4s-1.05.32-2.31-2.64l-1.65-1.1-.09-.47c-.57-.58-.86-.64-1.12-.54a3.24,3.24,0,0,0-.73.68c-.31-.51-.05-.67,0-.86-.87-1.09-1.21-1.51-1.71-1.72a3.52,3.52,0,0,0-.94-.2c-.58-.19-1.28-.37-2.17-.6l.34-1c-1.07-.12-3.58-4.83-7.38-6.38a.69.69,0,0,1,.62-.08c-4.2-1.85-6.59-8.76-10.11-6.95l-2.84-1.13c2.78,2.58-1.42.88-.58,2.32-1.29-.76-2.33-3.25-.78-2.26l.11.32c1.7-1.05-3.26-3.45-2.39-4.39-5.88-4.56-10.91-9.9-16.32-14.31l-.28,1.65-1.85-1.58c-.29-.67,0-1.43,1.36-.3-.19-1.22-2.71-1.27-2.94-1.06-2.29-2.58,2.1-.5,1.3-1.18l-1.17-.8.14.34c-1.27-.25-1.74.18-3.33-1.17-.85-1.06,0-1.13-.34-1.5.07-.08,0-.23-.6-.53l-2.32-2,.24,1.67c-1.41-.4-2.21-1.84-1.92.06-.37-2.87-8.5-7.69-9.1-9a12.88,12.88,0,0,1-5.23-3.24c.3.55-.24,1.78-1.71.41,2.24-1.64-2.15-3.2-2.22-5.72.34,1.9-4.66-3.31-4-.47-1.18-1.21.54-.85-.06-2.13-3.76-1.67-6.45-6-10.52-8.8-.28.23,0,1.16-1.12.92l-.94-3c-.87-.47-2,1-2.6-1,0,.39,0,1-.55.65-6.48-7.35-16.3-11.19-22-19.81.62,1.36-.12.86-.93.25.42.54-.55.67-.74,1.12L346,374.59c-1.41.57-3.5-2.67-4.62-1.95l1.16.63c-2.28.1-.18,4.11-1.57,5.45,2.57-.12,2.43,5.14,6.43,5.22.3.74-.86.11-.84.69,1.14-.14,2,.33,3.19,1.74l-.29,0c4.08,3,5.28,5,9.39,9l.26-1a4.9,4.9,0,0,1,1.19,1.8c2-.25-2.63-2.2-.65-2.65.07,2.52,6.72,5.39,6.22,7.79,1.46,1.18.25-1.2,1.71,0l0,.77.85-.3A1.93,1.93,0,0,1,369,404a4.66,4.66,0,0,0-1-.58c.82,1.54,3.67,2.62,4,3.14l-1.18-1.41c4.35,2.76,8.77,7.27,13.39,9.41V414c3.47,1.71,2.06,2.28,5.55,4.56h-.18a6.14,6.14,0,0,1,2.79,1.44c-1.15-.25.91,2-.53,1.62,3.77,1.86,2,.72,5.18,1.1l0,1a4.21,4.21,0,0,1,3.16,1c-1.73-.56.33,1.71-1.68,1.18,2.39,4,6.07,2.74,6.16,5.84,2.84-.36-2.24-3.24-1.09-2.88-.31-1.11,2.25-.17,3.19.84s.21,3.52,3,5.67c-.26-.22-.38-.11-.64-.34.69,1.23,2.44,1,3.17,2.71,1.48-.41,1.59,1.36,2.78.28l-2.74-1.71c1.68.81,4.17.42,6,3a5.1,5.1,0,0,1-2-.32c.39.91,1.51.81,1.92,1.75-1.19,1.08-3.26-2.16-5.54-2.43.32,1.11,3.6,1.4,1.76,2.13,2.46-.83,2.53,2.36,5.42,2.54l-.72.64a4.78,4.78,0,0,1,1.8.7l-1.74.18c2.15.38,2.32,3,4.11,3.72-3-2.37,0-1.43-.8-3,4.51,2,.59,3.65,5,6.61-.64-.35-1.76-2.13-.6-1.78a7.94,7.94,0,0,1,1.66,2.68c2.88,2,.19-1.1,1.73-.62.21,1.65,1.64.71,3.08,1.38l-.59.76c2.75,3,2.08-.91,4.45,1.93l-2,.09,1.69.91-1,.61c2.11.64,2.48,1.21,3.86,2.7.06-.82,1.3-1.21,2.71-.12.59,1.2-1.11.29.95,1.75-.82.12-1.78.33-2.08-1.05-.29.17-.82.12-1.1.29.61,1.33,2.47,2.17,3.19,2.73a2.69,2.69,0,0,1-.63-.79l3.69,1.23c.22.64-.31.58-.85.52a16.24,16.24,0,0,1,2.23,1c-.71.44-1.16,1.11-2.6.44l3.27,1.49c0,.41.81,1.84.28,1.79,1.22,1.56,4.65,1.76,6.28,3.83a1.59,1.59,0,0,1,1,.27c.44.41.84.84,1.24,1.28.2.23.37.43.61.68l1.12,1a20.72,20.72,0,0,0,5.27,3.64c.64,1.1,1.35,2.27,2.14,3.5,1.61,1.08.75-.17.25-1.17s-.66-1.76,1.55-.34c1.53.94,1.91,1.62,2.1,2.28a3.76,3.76,0,0,0,.81,2.07,11.7,11.7,0,0,1,2.79.69c1.12.5,2.38,1.41,4.47,3.81A20.77,20.77,0,0,1,475.8,489.29ZM509.09,515c.1.34.85,1.73-1.57-.92C504.55,510.31,506.83,512.79,509.09,515Zm2-8.05c1.78,1.75,1.57,1.73.36.79C510.66,506.9,510.41,506.52,511.05,507Zm-84.94-97.76.07,0C426.62,410.38,426.47,410,426.11,409.19Zm-1.19-2.2c-.26-.12-.36,0-.4.14.3,0,.65.42,1,1C425.6,407.79,425.54,407.43,424.92,407Zm-10.71,21.93.22.49C413.4,429,413.8,429,414.21,428.92Z"/><path class="cls-1" d="M521.33,517.94c-.68-.6-1.54-1.41-2.42-2.24A24.09,24.09,0,0,0,521.33,517.94Z"/><path class="cls-1" d="M455.17,473.51s-.05,0-.06-.06a.61.61,0,0,0-.18.08Z"/><path class="cls-1" d="M454.94,432.11a2.07,2.07,0,0,1,.21,1.08C455.36,433.07,455.37,432.76,454.94,432.11Z"/><path class="cls-1" d="M415.56,397.68l1.17,1.09a2.54,2.54,0,0,1-.63-1.32C416,397.62,415.87,398.06,415.56,397.68Z"/><path class="cls-1" d="M411.8,383.17c-.24-.11-.31-.38-.55-.48l-.31.32C411.57,383.77,412.27,384.09,411.8,383.17Z"/><path class="cls-1" d="M417.18,394.55c.56-.6-.27-1.21-1.07-2a.61.61,0,0,1,.12.16C415.14,393.15,416.16,393.85,417.18,394.55Z"/><path class="cls-1" d="M415.93,392.37a5,5,0,0,1-.65-.8C414.85,391.75,415.47,392,415.93,392.37Z"/><path class="cls-1" d="M422.56,404.85c-.16-.55-1,.38-.94-.06C420.44,405,424.76,406.78,422.56,404.85Z"/><polygon class="cls-1" points="418.73 392.19 418.19 393.12 419.21 393.12 418.73 392.19"/><path class="cls-1" d="M423.55,399.54l-.87-1.56c-.12.12-.34,0-.57-.17C422.76,398.69,423.34,399.76,423.55,399.54Z"/><path class="cls-1" d="M422.11,397.81a3.15,3.15,0,0,0-1-1A7.39,7.39,0,0,0,422.11,397.81Z"/><polygon class="cls-1" points="420.46 393.92 420.62 394.46 421.33 395.49 420.46 393.92"/><path class="cls-1" d="M435.13,414.67l1.42,1.35c.39-.06.23-.6-.32-1.09C435.75,414.72,435.21,414.23,435.13,414.67Z"/><path class="cls-1" d="M433.69,408.37c.16.54,0,.71-.08,1.15l1-.72Z"/><path class="cls-1" d="M437.39,412.64c.39-.06,2.51,1.6.94-.28C437.94,412.41,436.52,411.06,437.39,412.64Z"/><polygon class="cls-1" points="454.1 436.57 453.79 436.19 452.22 437.5 454.1 436.57"/><path class="cls-1" d="M473.76,453.8c-1-2.11-1.33.35-2.12-1.66-.71-.13.65,1.64,0,1.46C472.87,454.38,473.1,455.13,473.76,453.8Z"/><path class="cls-1" d="M471.62,453.6a5.34,5.34,0,0,0-.68-.36A2.64,2.64,0,0,0,471.62,453.6Z"/><polygon class="cls-1" points="344.46 372.06 343.57 370.81 343.88 371.94 344.46 372.06"/><path class="cls-1" d="M341.3,371.48l.54-1.23-1.43.37C340.71,370.78,341.29,371.09,341.3,371.48Z"/><path class="cls-1" d="M524.49,530.61l-1.07-1.26a37.26,37.26,0,0,0-3.45-3.28Z"/><polygon class="cls-1" points="492.8 504.13 493.33 504.59 490.19 500.59 492.8 504.13"/><path class="cls-1" d="M469.8,487.73c1.08.92,2.22,1.5,3.29,2.41a15.9,15.9,0,0,1-2.74-2.67C469.74,486.76,469.49,486.55,469.8,487.73Z"/><path class="cls-1" d="M100.85,482.17a1.91,1.91,0,0,0,1.29-.6,1.5,1.5,0,0,1,1.61-.29,8.5,8.5,0,0,1,1.17-1,3.7,3.7,0,0,1,2-.41v1.37a5.51,5.51,0,0,1-.16.93,11.56,11.56,0,0,1-.49,1.53,15.84,15.84,0,0,1-.76,1.7,5.92,5.92,0,0,1-1,1.41,6,6,0,0,0-1.17.12,10.07,10.07,0,0,1-1.81.12,3.71,3.71,0,0,0-1.25.28,4.47,4.47,0,0,0-1.41.85,2.76,2.76,0,0,1-1.58.64,9.19,9.19,0,0,0-2.21.65,2,2,0,0,0-1.29.56,1.91,1.91,0,0,1-1.21.57,2.32,2.32,0,0,1-1.65.64c-.78.06-1.58.08-2.38.08h-.65c0-.37,0-1,.08-1.93a3.24,3.24,0,0,1,.57-1.94,29.39,29.39,0,0,0,3.38-2.05,13.24,13.24,0,0,1,3.39-1.74,2.13,2.13,0,0,1,1.45-.52,5.25,5.25,0,0,0,2.1-.61Z"/><path class="cls-1" d="M115.36,463.71a1.41,1.41,0,0,1,.73.12,5.34,5.34,0,0,1,.65.77H130.6l6.77,1.29h2.26a5.12,5.12,0,0,1,3.83,1.61,12.73,12.73,0,0,1,2.54,3.75,19.56,19.56,0,0,1,1.41,4.31,17.93,17.93,0,0,1,.45,3.39,27.11,27.11,0,0,1-.2,3.06,15.29,15.29,0,0,1-.81,3.35,9.31,9.31,0,0,1-1.82,3,6.47,6.47,0,0,1-3.22,1.93,2.75,2.75,0,0,0-.89.21,9.8,9.8,0,0,0-1.13.48c-.37.19-.72.35-1,.48a2.13,2.13,0,0,1-.73.21,12.34,12.34,0,0,1-1.57-.13,9.12,9.12,0,0,1-2-.48,6.85,6.85,0,0,1-1.73-.89,1.62,1.62,0,0,1-.73-1.41,1.67,1.67,0,0,1,.65-1.53,4.82,4.82,0,0,1,1.65-.6c.67-.14,1.4-.3,2.18-.49a5.1,5.1,0,0,0,2.17-1.13,5.94,5.94,0,0,0,1.66-2.66,15.63,15.63,0,0,0,.64-5,8.87,8.87,0,0,0-.08-1.08,2.19,2.19,0,0,0-.56-1.17,6.27,6.27,0,0,0-1.86-1.62,15.19,15.19,0,0,0-2.54-1.21,18.26,18.26,0,0,0-2.46-.72,9.32,9.32,0,0,0-1.45-.24H130.6a1.45,1.45,0,0,0-.72.24,4,4,0,0,0-.73.56,1.79,1.79,0,0,0-.44.73.77.77,0,0,0,.12.72v19l.89,3.63c-.17.75-.33,1.43-.49,2s-.2,1.06-.28,1.57a8.05,8.05,0,0,0-.12,1.09c0,1.5.4,2.46,1.21,2.86a6.1,6.1,0,0,0,2.62.64,25.54,25.54,0,0,1,2.62.21,1.29,1.29,0,0,1,1.21,1.45v.88a2.17,2.17,0,0,1-.24.85,10.83,10.83,0,0,1-.57,1.05,4.31,4.31,0,0,1-.72.89,1.18,1.18,0,0,1-.73.36h-1.37a7.4,7.4,0,0,1-2-.45,7.56,7.56,0,0,0-2-.44h-5.16c-.22,0-.66,0-1.33.12s-1.41.19-2.22.32-1.58.25-2.34.33-1.31.12-1.69.12c-.59,0-1.16,0-1.69,0a3.41,3.41,0,0,1-1.41-.36,2.81,2.81,0,0,1-1-.93,3.32,3.32,0,0,1-.4-1.82c0-.37,0-.82,0-1.33a4.19,4.19,0,0,1,.32-1.45,3.24,3.24,0,0,1,.84-1.17,2.57,2.57,0,0,1,1.7-.48l.88.64h3c1.45,0,2.17-.75,2.17-2.25v-2.42l.89-3-.89-1.54a8.59,8.59,0,0,1,.41-1.21c.1-.32.21-.64.32-1a2.54,2.54,0,0,0,.16-.73,4.07,4.07,0,0,0-.44-1.53,4,4,0,0,1-.45-1.61.61.61,0,0,1,.13-.41c.08-.1.18-.27.32-.48a2.91,2.91,0,0,0,.32-.81,6.44,6.44,0,0,0,.12-1.45v-4.51a1.92,1.92,0,0,0-.44-1.09,3,3,0,0,1-.45-1.82v-2.25a5.28,5.28,0,0,1,.41-1.86c.16-.37.32-.78.48-1.21a2.66,2.66,0,0,0-1-2.09,4.1,4.1,0,0,0-2.74-.89h-.88a5.22,5.22,0,0,1-1-.16,15,15,0,0,1-1.53-.44,6.17,6.17,0,0,1-1.41-.69,1.1,1.1,0,0,1-.61-.89,2.36,2.36,0,0,1,.36-1.29,4.07,4.07,0,0,1,.89-1,5.45,5.45,0,0,1,1-.65A2.18,2.18,0,0,1,115.36,463.71Z"/><path class="cls-1" d="M590.18,589.09h-580V10.91h580Zm-579-1h578V11.91h-578Z"/><path class="cls-1" d="M592.11,585.89c0,3.41.39,2.19.46,2.7C592.48,582.88,592,586,592.11,585.89Z"/><polygon class="cls-1" points="591.16 529.53 591.33 530.53 590.91 522.22 591.16 529.53"/><path class="cls-1" d="M591.17,476.84c-.71,5,.12,19.09-.14,28.48l-.16,1.55.57,4.23C591.35,499.69,591,484.87,591.17,476.84Z"/><path class="cls-1" d="M592.71,448.74c-.27,1.73-.24-6.08-.08,6.55,0-.63,0-.82.07-1.19C592.7,453,592.71,451.4,592.71,448.74Z"/><path class="cls-1" d="M592.7,454.1c0,5.55.23-3.63,0,0Z"/><path class="cls-1" d="M592.54,428.47l.25,7.31c.16-1.52.2-8,.32-5.61C593,422.67,592.81,424.21,592.54,428.47Z"/><path class="cls-1" d="M592,421.54l.1,3.79A19.87,19.87,0,0,0,592,421.54Z"/><path class="cls-1" d="M592.34,433.36l-.22-8a8.41,8.41,0,0,0,.08,3.69C592,428.36,592.19,430,592.34,433.36Z"/><path class="cls-1" d="M592.23,437.91c-.15,4.1-.25,9.4-.5,2.06C591.83,454,592.33,451.9,592.23,437.91Z"/><path class="cls-1" d="M590.43,474.15l-.21,5.48.24,4.74C590.34,482,590.66,473.81,590.43,474.15Z"/><path class="cls-1" d="M592.91,382.93c-.15-.45-.41,2.46-.6,3l.17,5.4C592.59,388.56,592.68,383.3,592.91,382.93Z"/><path class="cls-1" d="M592.31,385.94l-.26-8.08C592,385.08,592.14,386.39,592.31,385.94Z"/><polygon class="cls-1" points="591.23 420.24 591.77 433.51 591.22 417.68 591.23 420.24"/><polygon class="cls-1" points="592.93 352.08 593.28 356.66 592.75 348.5 592.93 352.08"/><path class="cls-1" d="M592.87,331.61c.29,3.39.49-4.64.67-1.06,0-5.56-.31-10.31-.53-14.58C593.14,320.51,593.1,325.35,592.87,331.61Z"/><path class="cls-1" d="M592.68,308.79c.07,2.27.2,4.62.33,7.18C592.94,313.56,592.85,311.18,592.68,308.79Z"/><path class="cls-1" d="M592.12,364.1a41.39,41.39,0,0,0,.44-6.36l-.43,3.18C592.13,361.89,592.13,363,592.12,364.1Z"/><path class="cls-1" d="M592.12,361v-.11c0-3.45,0-5.84,0-6.87C592.15,354.93,592.14,357,592.12,361Z"/><path class="cls-1" d="M592.12,364.9v-.8A2.39,2.39,0,0,0,592.12,364.9Z"/><path class="cls-1" d="M591.61,399.06c-.24-4.75-.49-14.64-.86-5.07C591,397.4,591.25,391.92,591.61,399.06Z"/><path class="cls-1" d="M591.59,368.84l-.1,8.59c.11-.17.28-1.72.4.63Z"/><polygon class="cls-1" points="591.45 364.64 591.59 368.84 591.62 365.66 591.45 364.64"/><path class="cls-1" d="M592.28,323.49c-.18-3.71-.2-7.76-.23-12.34-.08,4.91-.13,10-.13,14.8C592.06,326.63,592.3,328.75,592.28,323.49Z"/><path class="cls-1" d="M592.16,341.73c0-.25,0-.58,0-.82C592.1,341.41,592.09,341.82,592.16,341.73Z"/><path class="cls-1" d="M592.05,266.06c0,.25,0,.46-.07.72,0,.06,0,.1.07.17Z"/><path class="cls-1" d="M591.84,326.78c-.08,3.69,0,5.89.16,8,0-2.76-.07-5.68-.08-8.82C591.86,325.65,591.82,325.59,591.84,326.78Z"/><path class="cls-1" d="M592.48,296.21c-.07,1.92-.15,4.1-.23,6.39C592.38,300.72,592.59,296.89,592.48,296.21Z"/><path class="cls-1" d="M592.26,339.66c0,.19,0,.36,0,.56C592.37,339,592.32,339.16,592.26,339.66Z"/><path class="cls-1" d="M592.26,339.66c-.06-1.89-.17-3.39-.26-4.89,0,2.25.08,4.33.14,6.14C592.17,340.45,592.22,340,592.26,339.66Z"/><path class="cls-1" d="M589.31,252.39c.4.66.76,10.36.34,18.73.3,8.24,1.6,2.85,2.33-4.34-.18-.26-.34-.26-.57-8.74-.22,3-.51,18.82-.86,11.67-.21-11.24.14-9.21.35-14.67-.5,4.64-.72-14.29-1.45-11.84l.26,9.85C589.59,253.23,589.41,249.66,589.31,252.39Z"/><path class="cls-1" d="M591.94,282.94l0,3.49c.06-4,.22-6.83.53-12.07-.19-5.81-.34-7-.47-7.41l0,17.18Z"/><path class="cls-1" d="M592,302.09c-.43-2.72-.62-11.1-1.08-6,0,10.24.36,7.18.54,13.3-.1-16.53.24,4.74.49-7.2.07,3.25.09,6.17.11,8.93.07-3,.14-5.85.2-8.55,0,.15,0,.26,0,.38V303c-.06.71-.09.95-.06.15,0-.06,0-.26,0-.35a3.38,3.38,0,0,1-.16-.75c.09-4.78.11-.75.16.75,0,.06,0,.19.07.2V303L592,286.43C591.93,289.93,591.94,294.32,592,302.09Z"/><path class="cls-1" d="M589.83,385.16c0-.51.06-.49.1-.53C589.87,383.56,589.84,383.16,589.83,385.16Z"/><path class="cls-1" d="M590.09,378.35a58.85,58.85,0,0,1,.18,6.12c-.13,3.4-.2,0-.34.16.11,2.36.3,8.26.51.86l-.05-1.17c.14-6.66.68-15.22.74-14.06A64.31,64.31,0,0,0,590.09,378.35Z"/><path class="cls-1" d="M590.93,339.75,590.71,326l-.37,7,.23-.35C590.48,340.47,590.75,338.77,590.93,339.75Z"/><polygon class="cls-1" points="592.27 264.48 592.72 266.31 592.08 258.35 592.27 264.48"/><polygon class="cls-1" points="592.21 246.57 592.61 247.23 592.37 242.5 592.21 246.57"/><path class="cls-1" d="M13.09,208.16l.11,4.05C13.17,210.29,13.13,209.06,13.09,208.16Z"/><path class="cls-1" d="M13.12,178.83l-.2-.72C13,179.47,13.11,180,13.12,178.83Z"/><path class="cls-1" d="M384.89,8.92c-5.9-.37-12.49-.94-11.78-.5l1.81.43C379,8.78,382.2,8.82,384.89,8.92Z"/><path class="cls-1" d="M83.58,11.51l1.73.13,4-.41Z"/><path class="cls-1" d="M79.42,13.3,71.64,13C73.39,13.12,75.89,13.22,79.42,13.3Z"/><path class="cls-1" d="M13.55,368.31,14,373C14,365.64,13.77,368.9,13.55,368.31Z"/><path class="cls-1" d="M592.05,63.1c.17-5.09.24-9.15.27-12.71C592.07,56.53,591.69,61.48,592.05,63.1Z"/><path class="cls-1" d="M8.48,196.62c.08,2.48.17,3.53.27,3.46C8.67,197.53,8.59,196.09,8.48,196.62Z"/><path class="cls-1" d="M592.31,35.69c0,.9-.06,1.78-.1,2.69.08,3.72.13,7.47.11,12C592.5,45.86,592.62,40.68,592.31,35.69Z"/><path class="cls-1" d="M371.27,586.12l1.31,0C372.71,586.11,372.12,586.11,371.27,586.12Z"/><path class="cls-1" d="M540.48,590.49l-7,0C534.78,590.56,536.88,590.55,540.48,590.49Z"/><path class="cls-1" d="M592.4,174.49c0,3.8.05.6,0,0Z"/><path class="cls-1" d="M590.69,193a4.7,4.7,0,0,0-.21-1.52A6.93,6.93,0,0,1,590.69,193Z"/><path class="cls-1" d="M576.12,11.47h-.33C576.92,11.56,576.72,11.54,576.12,11.47Z"/><path class="cls-1" d="M592.21,180.21c0-1.43.09-3.07.12-4.86C592.3,176.13,592.26,177.61,592.21,180.21Z"/><path class="cls-1" d="M592.41,179.44c0,1.31,0,2.34,0,3.32C592.44,183.24,592.49,182.81,592.41,179.44Z"/><path class="cls-1" d="M592.38,169.2c0,2.17,0,4.2,0,6.15,0-.75.06-1.06.07-.86C592.4,173.38,592.39,171.8,592.38,169.2Z"/><path class="cls-1" d="M60.05,587.28l.82,0C64.7,587.14,63,587.17,60.05,587.28Z"/><path class="cls-1" d="M286,13.42l.44,0h-.56Z"/><path class="cls-1" d="M272.36,13.75a97.46,97.46,0,0,1,13.52-.36l-4.52-1.25Z"/><path class="cls-1" d="M13.21,278.37l.39-9.58c.65,11.56.42,19.93,1,10.94-1.36-1.36-.14-37.25-1.49-38.59l.28-6.31c0,1.81.07,2.1.06,3.89.65-12.29-1-9.13-.79-25,.1-5.52.3-9.37.46-5.6l-.34-12.3c0-3.57.27-2.7.24.86L12.88,178l0,.14c-.21-2.67-.54-8.73-.68-11.69.19-4.77.14,2.39.31,1.17l-.33-10.38c.35-4.23.7,4.37.65,11.54,1.35-9.69-.35-8.61.45-29.54l.17,9.81c.77-6.32.49-14,1-25.05-.25,2.62-1.21,22.18-1.55,10.92.1-3.18.15-7.36-.12-13.44.48-.06.36-6,.34-13.42l.64.51c-.19-8-.51-7.4-.8-12.12.06-9,.56-10.81,1-12.91.1-14.33-.79,9.89-.91-7.07.24-11.92,0-20.28-.4-34.54.22-8.34.39,1.46.57-1.53L12.69,33c0-1.81.17-1.22.25-.93-.2-6.23-.64-.51-.81-10.31A17.87,17.87,0,0,1,12,18.07c0-.87.06-1.86.09-3,0-.69.09-1.44.14-2.24L13.8,13l.8,0,1.37.05c1.83.06,3.72.11,5.62.15,3.8.06,7.63,0,11-.19,3,.18-1.44.39-.53.64,16.63-.52,14.26-.38,27.92-1.09L71.64,13c-8.55-.48,2.38-1,11.94-1.51-3-.23-5.62-.44-7.36-.53l15.27-.35c1.84.11.3.33-2.2.6l2.8-.16c5.46.24,2.63.61-1.28,1l-5.5-.39c-3.77.39-7.3.82-6.52,1.19,1-.07,2.91-.13,5-.17-1,.11-1.62.2-1.16.26s2.11-.07,4.61-.23l3.47.71.84-.28,20,.44c14.29-.71,26.72-1.77,49.4-2.07-5.63.53-1.21.86-1.52,1.48-6.18-.66-17.56.28-29.32.14,6.14.07,4.79.37,3.23.47l21-.6c-.47.51,4.45.38,9.93.59-4.14-1,15.63-.66,24.16-1,.53.34-1.51.68-11.92.6,11.48.75,14.84-1.18,26.11-.54a38.17,38.17,0,0,0-4.92.13c5.94-.3,20.45-.06,17,.23h-2.54c16.87.12,51.36,0,53.88-.85a10.45,10.45,0,0,1-3.23,1.2l30.1-2.86c-2.65.73,7.53,2.47-6.46,2.88,4,.11,9,.23,17.45,0-2.74-.1-6.83-1.06-3.08-1.12,10.28.81,7.14.43,19.81,1.13-4.11-.16.45-1.31,6.94-1.27-1,.17.54,1.13-1.83,1.25l16.16-1.12c-4,.2-.71.95,2.9,1.27-1.68-.22,14,0,18.28-.09l-6.85-.26c18.24.16,18-1.59,36.12-1.53-2.19.23-5.41,1.43,3.79,1.57A311.81,311.81,0,0,1,430.82,10l3.07.33,12.29-.38c-7.65.87-29.12,2.69-40.85,3.4,6.83.26,1.91.39,12.13.36,3.61.31-5.57.47-8.58.49l23.8.2c-1.06-.67,18.21-.68,17.3-1.24l-25.86.7c-1-.67,14.95-1.91,31.82-1.79,4.29.27-3.21,1.2-2.86,1.42,2.19-.23,16-.44,17.56-.28l-7.16.36c9.39.26,15.33-.89,26.61-.25,3.89,0,11.63.87,12.3.47C496,13,494.8,10.64,499,10.07c1.37,0,20.45.73,24.89,1.11,6.42.6-9.62,1.43-4.16,2a39.84,39.84,0,0,1,5.25-.49c4.09.16-1.69.57,7.19.49,1.49-.68,18.08.06,4.21-.58,8.69-.19,9.23.14,19.44.11-3.25-.44,9.17-1.49,17.88-1.69-.52.17,1.44.4,2.39.5l13.39.1c-.06,5.1-.12,9.69-.18,14.48s-.09,9.87-.09,15.8c-.17,1.53-.37,9.55-.66,6.13.12,2.39.35,4.59.37,9.71-.59,9.92-.09-11.42-.8-3.86.39.64.54,13.25.79,20.55.61-2.25.12-16.86-.13-24.17.85,0,1.73,12.69,2.12,30.05.21,13.81-.55,6-.43,8.38-.14,25.93,1.48,22.09.87,43.62-.54,8.54-1.07.39-1.46,2.28-.2-11.24.34-17.26.32-24.88L590,119c-.18-3.58-.32-11.08-.16-15.17-.49,7.16-.09,43.8-.54,63.8.18,3.55.37,9.69.58,6.79l-.07-6.33c.43-5.82.6,11.91.8,3.9.3,8.49.78,18,.54,30l-.62,2.24a94.82,94.82,0,0,0,.18-11.17c.27,5-.83,18.33,0,23.78l.42-8.37c.31,8.52,1,19.06.77,29.65.6-4.82-.07-2.44.64-10-.89,6.53,0-27.1-.89-16.61.82-7.73.35-13.37,1-23.47-.21.32-.39,3.58-.29-5.31-.06-.4-.14-1.35-.18-1.95l0-.6c0,.17,0,.31,0,.49,0-.39,0-.42,0,.18-.08,2.12-.19,3.83-.3,4.53-.47-4.41-.45-18.55-.69-23.34.09-5.27.23,2.21.44-.67l-.36-7.14c.45-.71.75-14,1-1.59l0-11.19c.26-6.58.36-15.64.17-21.23.09-5.28-.5-13.33-.15-8.73L592,94l.12-.16c.05-17.31-.75-35.64.06-55.43-.11-5.83-.25-11.85-.12-21.6l.19-1,.1-.48c0-.14.06-.5.1-.75,0-1.77,0-3.77,0-6l-9.19-.05-6.61-.09c-4.22,0-7.8,0-9.19.14-8.07-1.05-36.31-.23-49.47-.42l-.5.51c-9.06,0-17.74.12-29,.32l.69.45c-9.69.37-24.92-.32-40.26-.27a66.94,66.94,0,0,1,7.69,0c-18.32-1-38.65.74-55.27,0-4.14.16-7.14.11-10,0,.39,0,.73,0,1,0h-1.7l-5.75-.24c1.73.11,3.39.2,4.83.24-3.19,0-8,.06-12.78.18l-2-.49-1.1,0c-4.66-.18-3.74.23-1.26.59-2.39.08-4.58.17-6.28.29-3.78-.78-12.45.26-17.61-.57-3.2.41-23.87.31-26.4,1.16-.16-.11-1.56-.17,1-.17-5.29-.1-10.58-.2-15.32,0L305.7,9.6l-11.55.82c-7-.37-9.93-.59-3-1.06-16.84.73-13.66.27-28,1l.7-.39c-5.11,0-13.29.54-16.38.22-11.44-.76-56.63-.11-86-.81,5.7,1.17-13.66-.52-14.82.38-1.71-.27-5.81-.43-1-.67-15,.27-22.53-.44-32.88.33-1.71-.28,3.21-.41,1.68-.57a56.85,56.85,0,0,1-6.32.07c-1.53-.16,2.2-.23,4.57-.35-15.32,0-16.87.9-18,1.7a106.5,106.5,0,0,0-17.24.19c-2.7-.26-7.21-.53,2.31-.62-5.36,0-32.71-.39-33.25.25-1.68-.16-7.49,0-8.9,0l-12.51,0h-13l3.9.11c-.42.07-.84.13-1.26.17s-1,.09-1.56.12c-1.07.06-2.17.09-3.35.1,0,1.08,0,2.21,0,3.42s0,2.21-.06,3.44c-.05,2.28-.09,4.9-.06,8l-.08-.27c-.56,21.81.27,9.42-.37,30.93l.48-1.17c1,2-.61,19.06-.21,31.55l.27-4.51c.35,6.82-1.4,19.06-1.53,25.91-.09,1.49-.14-2.36-.21-4.44-.61,17.93.63,2.32.77,15.68-.34,2.47-.86-3.17-.92,5.82-.28,4.48,1.1,26.08.45,38.35.26-2.7.52-5.39.72.82.09,9.51-1,25.71-.17,34.3a6.08,6.08,0,0,1-.2,1.72c.21,7.27.35,23.63.8,28-1.66,6.72.8,45.2-.72,45l.08,22.37-.16-.59c-.1,14.3.27,19.35.63,24.38-.1,3.3-.24.89-.32.62-.31,20.89-.25,23,.51,40.48l-.49,1.82c.29,4.75-.78,30.2-.2,50.69a10.45,10.45,0,0,1-.22-2.26c.58,23.05-1.38,55.19.43,63.63l.44,15.22c.14-19.68.79,2.93,1.09-5.17.1,7.74-.55,20-.64,10.5l.09-1.49c-.94-3.49-.33,24.45-1,23.93q0,18.16-.09,36-.11,18.83-.23,37.25l43.35.19L47.94,590l12.65,0c3.32.17,4.46.57-4.57.54a82.16,82.16,0,0,0,9.39,0c3.22-.16,5.88-.39,6-.47,17.67.3-6.9.85-1.48.87l7.36-.05-1.66-.09c6-.3,6.49-.61,17.34-.58,6.87.15,3.52.45,6.23.48,0,0,.21,0,.84,0s1.68,0,3.3,0l15.94.06-6.37-.57c7.06-.29,15,0,7.63-.63,10.8,1,59.46.37,66.09.68,9.9-.42,19.67-.42,31.77-.36-3-.12-4.81-.77,5.63-.69-3.82,1.34,19.11.58,27.54,1.54-7.54-.64,29.67-.16,17.84-1.06,8.71.1.53.5,7.14.81,20.73-.52,45.68.34,71.3.16.4-.17-3.89-.44,1.6-.7l13.53.88c5.06-.09,4.66-1,13.9-.41-1.3-.15-3.25-.37.14-.42,50.19.85,102.56-.71,153.53.9-6.9-.34-2.3-.37,3-.38-3.43-.08.08-.44-.59-.68l21.33.67c3.89-.67,22.88,0,25.11-.68l-6.76.11c9-.74-12.57-1.66-11.26-2.61-10.06.84-26.53-1.26-43-.05-3.64-.19,3.11-.31,1.16-.53a161,161,0,0,1-18.6.31l1.06-.1c-26.32.1-37.6-.3-67.16-.57l2.19.47c-6.35-.06-7.69-.21-10.66-.33-7.29.72,17.84,0,11.2.83-8.43-1-44.79,0-50.49-1.11-9.77,0,2.87.55-6.9.55l-2.59-.3-2.47.38c-6.41-.06-9.64-.43-9.88-.68,1.55,0,4.42-.07,6.09-.09-8.31-.35-23.43.11-26.28,0l9.39.18c-26.67.28-59.23-.11-85,.49l2,.23c-19.67.41-15.76-.25-37.36-.06l.79-.05c-4.33.22-10.1.34-16,.31,5.45-.26-10.26-.51-3.11-.8-21.33.45-10.55.35-24.64,1.18l-3.25-.37c-4.8.34-5.21.51-16,.61,8.84-.32-6.89-.57,3-1-22.64-.81-33.61.82-44-.36-10.39,1,19.59.57,13.77.79,4.87.33-8.58.76-15.69.66s-12.29-1.31-30.48-1.29c1.81,0,1.93-.08,3.73-.07-6.8-.26-13.33.35-21.69-.07-4.68.62-10.84,0-12.19.75l16.69-.18c-9.46.21-18.33,1.13-33.92.68,1.22-.16,5.86-.37,9-.48-4.56-.24-8.77.15-13.5-.09,1.35-.79,20.28-.17,30.42-.77-4.89-.34-19.18.57-14.08-.29-7.32,1.09-17.93-.14-30.25.7l.82-.48c-1.95.08-6,.3-9.58.29l6.5-.62c-3.39.18-6.7.19-10,.12L15.55,586l-.61,0H14.5l-.38,0-.69-.07.05-.69,0-.32V584c0-1.52,0-3,0-4.58,0,2.28,0,4.06,0,5.44,0,.44,0,.78-.07,1,.66.09.45.23.15.39s-.63.32,1,.45l-2.11.08c0-.68,0-1.29,0-1.86v-2.65c0-1.73.05-3.15.1-4.38.1-2.45.27-4.14.44-6,.35-3.77.71-8.32.6-21.37.07,3.74-.28,14.06-.5,8.2.09-5.27.28-12.22.52-15.45-.09-18.33-.48,2.81-.78-5,.58-6.24-.23-9-.42-17l.49-.06c.31-20.88-1-5.53-.63-24.33l.66,7.94-.17-9.8.55,2c-.41-10.66-.3-14-.15-24.43-.34,2.43-.87-1.36-.89-10.61.29-6.31.46,3.53.39-9.58a57.88,57.88,0,0,1,.24,11.91c.16.58.3,2.92.46,3.52.33-6.8.07-17.07.07-21.82,0,1.83-.05,4-.12,5.13l-.66-19c.18-3,.32-.61.46,1.74-.05-3.85-.27-6.52-.31-12.18.39,1.47.8,1.12,1,9.13l-.43-18.11c.17-1.21.46-9.29.61-6.94.23-10-.76-24.63-.46-37.94-.07-.69-.15-2.08-.2-4.91.09-12.51.57-23.59,0-38.42l.7-8.41c-.16-11.61-.88,11.39-1.15-7.95-.22-13.68.6-5.11.8-9.91a311.4,311.4,0,0,1-.51-31.22C13.27,271.22,13.16,274.48,13.21,278.37ZM12.9,135.16c.1,2.77.42,8.31.13,10.34C12.48,142.33,12.74,139.89,12.9,135.16ZM104.67,12.44a77.8,77.8,0,0,1-8.86-.11C98.42,12.29,101.38,12.31,104.67,12.44ZM592,132.85c0-.12,0-.2,0-.3C592.18,126.36,592.1,128.56,592,132.85Zm-.21,12.85c.07,1.29.14,1.2.2.66-.12-.9-.13-3.79-.09-7.07A41.74,41.74,0,0,0,591.8,145.7ZM100.63,590.52l-2.5-.12C103.78,590.26,102.2,590.38,100.63,590.52Z"/><path class="cls-1" d="M80,13.1a3.36,3.36,0,0,1-1.19-.27C77.7,12.91,77.68,13,80,13.1Z"/><path class="cls-1" d="M13.47,367.44v.43a1.83,1.83,0,0,0,.09.44Z"/><path class="cls-1" d="M524.86,13.38c-2.64-.07-4.12-.16-5.1-.25C519.61,13.25,520.82,13.35,524.86,13.38Z"/><path class="cls-1" d="M592.62,213.81l-.12-8.23c0,4-.09,5.4-.16,7.41C592.45,212.81,592.61,211.24,592.62,213.81Z"/><path class="cls-1" d="M589.64,285.28c.05,1.2,0,2.55.06,3.74l.23-.33C589.91,283.56,589.73,280,589.64,285.28Z"/><path class="cls-1" d="M591,221.44c-.41.65-.27,5.81-.19,11.58v-1C591.39,233.7,591.21,227.56,591,221.44Z"/><path class="cls-1" d="M590.84,234.36c0,1.78,0,3.59,0,5.33C591.08,240.37,590.9,237.53,590.84,234.36Z"/><path class="cls-1" d="M592.07,162c-.1,2.74.52,1.72.35,3.27C592.94,168.32,591.8,147,592.07,162Z"/><polygon class="cls-1" points="589.68 226.11 590.18 224.04 589.78 220.81 589.68 226.11"/><path class="cls-1" d="M590.05,180.57l-.14,9.21a10.68,10.68,0,0,1,.17,2.47C590.1,186.57,590.2,180.35,590.05,180.57Z"/><path class="cls-1" d="M590.08,192.25c0,3,0,5.77.08,7.42C590.16,198.07,590.14,194.63,590.08,192.25Z"/><polygon class="cls-1" points="589.53 213.51 589.63 210.78 589.67 204.28 589.53 213.51"/><path class="cls-1" d="M590.15,81.5,590,71.44c-.17-1-.27,1.72-.21,5.46C589.91,79.31,590,83,590.15,81.5Z"/><path class="cls-1" d="M588.77,111.92a42.32,42.32,0,0,1,.38-4.44l-.62-.3Z"/><path class="cls-1" d="M588.63,82.59c-.17-1-.5-14.6-.46-1.85C588.34,81.76,588.49,91.83,588.63,82.59Z"/><polygon class="cls-1" points="509.31 11.67 511.87 11.67 511.5 10.65 509.31 11.67"/><path class="cls-1" d="M375.74,14.11c11.92.24,2.83-.63,13.6-.32,2.8-.24-8.8-.25-5.94-.46C376.21,13.58,372.43,13.44,375.74,14.11Z"/><path class="cls-1" d="M383.4,13.33l3.68-.15C385,13.24,384,13.29,383.4,13.33Z"/><polygon class="cls-1" points="568.56 591.04 576.22 591.25 571.27 590.91 568.56 591.04"/><path class="cls-1" d="M583.27,590.28l1.81.65,4.6-.58C588,590.38,584.59,590.43,583.27,590.28Z"/><path class="cls-1" d="M14.21,113.87l-.16-.59a59.93,59.93,0,0,0-.2,6.58Z"/><polygon class="cls-1" points="13.72 217.81 13.74 216.02 13.15 219.37 13.72 217.81"/><path class="cls-1" d="M14.47,305.05c0-3.56-.05-7.75-.08-11.32C14.5,301.49,13.74,306,14.47,305.05Z"/></svg>