<svg id="Laag_1" data-name="Laag 1" xmlns="http://www.w3.org/2000/svg" viewBox="0 0 600 600"><defs><style>.cls-1{fill:#1d1d1b;}</style></defs><title>Rebus 3 Sommige</title><path class="cls-1" d="M90,517c-2.22-.07-1.43.77-1.76.92C92,517.7,89.93,516.76,90,517Z"/><polygon class="cls-1" points="126.66 515.07 126.01 515.41 131.41 514.58 126.66 515.07"/><path class="cls-1" d="M160.92,515.09c-3.24-1.43-12.41.23-18.52-.28l-1-.33-2.76,1.15C146.06,515.45,155.7,514.69,160.92,515.09Z"/><path class="cls-1" d="M179.19,518.17c-1.13-.55,3.95-.47-4.26-.17.41.06.53.1.77.14C176.44,518.13,177.45,518.13,179.19,518.17Z"/><path class="cls-1" d="M175.7,518.14c-3.61,0,2.36.47,0,0Z"/><path class="cls-1" d="M192.36,517.82l-4.75.5c1,.33,5.22.4,3.65.64C196.13,518.69,195.13,518.36,192.36,517.82Z"/><path class="cls-1" d="M196.86,516.78l-2.46.21A4.14,4.14,0,0,0,196.86,516.78Z"/><path class="cls-1" d="M189.18,517.43l5.22-.44c-.69-.23-.76-.69-2.4.16C192.43,516.73,191.4,517.13,189.18,517.43Z"/><path class="cls-1" d="M186.22,517.22c-2.66-.31-6.11-.51-1.34-1C175.79,516.41,177.13,517.42,186.22,517.22Z"/><path class="cls-1" d="M162.67,513.61l-3.56-.42-3.09.48C157.56,513.43,162.89,514.06,162.67,513.61Z"/><path class="cls-1" d="M222,518.56c.3-.3-1.6-.81-2-1.2l-3.51.35C218.3,517.92,221.72,518.11,222,518.56Z"/><path class="cls-1" d="M220,517.36l5.25-.52C220.57,516.78,219.71,517,220,517.36Z"/><polygon class="cls-1" points="197.71 515.2 189.08 516.29 199.38 515.18 197.71 515.2"/><polygon class="cls-1" points="242.02 518.6 239.04 519.3 244.35 518.24 242.02 518.6"/><path class="cls-1" d="M255.33,518.48c-2.21.58,3,1,.69,1.34a68.86,68.86,0,0,0,9.48-1.05A49.93,49.93,0,0,1,255.33,518.48Z"/><path class="cls-1" d="M270.16,518.11c-1.47.14-3,.39-4.66.66A39,39,0,0,0,270.16,518.11Z"/><path class="cls-1" d="M234.21,517c.4.19,1.19.67,4.13.87l-2.06-.85Z"/><path class="cls-1" d="M236.2,517l.08,0,4.46,0Z"/><path class="cls-1" d="M233.69,517h.52A.51.51,0,0,0,233.69,517Z"/><path class="cls-1" d="M211.48,516c3.09-.48,9.52-1,3.29-1.72C212.56,514.84,216.12,515.25,211.48,516Z"/><path class="cls-1" d="M231.12,515.92l-5.58-.19c.11.22,1.12.55-.41.79Z"/><polygon class="cls-1" points="233.85 515.65 231.12 515.92 233.19 515.99 233.85 515.65"/><path class="cls-1" d="M260.61,517.31a62.77,62.77,0,0,1,8-.46c-3.19-.17-6.49-.26-9.63-.26C258.56,516.86,257.19,517.34,260.61,517.31Z"/><path class="cls-1" d="M248.75,517.07l.53,0C249,517,248.69,516.93,248.75,517.07Z"/><path class="cls-1" d="M297.94,516.86l-.47-.16a1.43,1.43,0,0,1-.11.15Z"/><path class="cls-1" d="M258.47,516.43a18.52,18.52,0,0,0-5.2.31c1.79-.09,3.69-.14,5.73-.15C259.2,516.47,259.24,516.39,258.47,516.43Z"/><path class="cls-1" d="M278.34,517.71c-1.25-.18-2.67-.33-4.15-.47C275.41,517.51,277.9,517.94,278.34,517.71Z"/><path class="cls-1" d="M250.09,517.26l-.36,0C250.52,517.48,250.42,517.39,250.09,517.26Z"/><path class="cls-1" d="M250.09,517.26a30.63,30.63,0,0,0,3.18-.52c-1.46.07-2.81.16-4,.29A5.37,5.37,0,0,1,250.09,517.26Z"/><path class="cls-1" d="M306.82,511.37c-.42.79-6.73,1.52-12.17.67-5.36.6-1.85,3.2,2.82,4.66.17-.35.17-.67,5.68-1.13-1.93-.44-12.23-1-7.58-1.73,7.3-.41,6,.28,9.53.7-3-1,9.29-1.44,7.7-2.89l-6.4.51C306.28,511.94,308.6,511.57,306.82,511.37Z"/><path class="cls-1" d="M287,516.62l-2.27.1a56.7,56.7,0,0,1,7.84,1.07c3.78-.39,4.56-.68,4.82-.94l-11.17-.11Z"/><path class="cls-1" d="M274.51,516.72c1.78-.86,7.22-1.23,3.89-2.16-6.66.06-4.67.72-8.65,1.09,10.75-.21-3.08.48,4.68,1-2.11.15-4,.19-5.8.23,1.93.1,3.8.23,5.56.39l-.25,0h0c-.46-.11-.62-.17-.09-.11l.22,0a1.17,1.17,0,0,1,.48-.32c3.12.17.49.22-.48.32,0,0-.12.08-.13.13h0l10.76-.47C282.42,516.6,279.57,516.62,274.51,516.72Z"/><path class="cls-1" d="M220.51,512.4c.34.07.32.13.35.2C221.55,512.49,221.82,512.42,220.51,512.4Z"/><path class="cls-1" d="M224.94,512.92a12.84,12.84,0,0,1-4,.37c-2.2-.26,0-.41-.1-.69-1.54.23-5.37.62-.56,1l.76-.11c4.33.29,9.9,1.37,9.14,1.49A16.76,16.76,0,0,0,224.94,512.92Z"/><path class="cls-1" d="M250,514.6l9-.42-4.57-.75.24.45C249.57,513.7,250.67,514.25,250,514.6Z"/><polygon class="cls-1" points="298.97 517.28 297.78 518.19 302.95 516.91 298.97 517.28"/><polygon class="cls-1" points="310.61 517.17 310.18 517.97 313.25 517.49 310.61 517.17"/><path class="cls-1" d="M225.33,92.65l-2.63.22C223.94,92.8,224.75,92.73,225.33,92.65Z"/><path class="cls-1" d="M240.14,92.7l.54-.39C240.11,92.52,239.87,92.68,240.14,92.7Z"/><path class="cls-1" d="M351.11,272.83c.56-3.85,1.51-8.16.64-7.67l-.81,1.2A37.81,37.81,0,0,1,351.11,272.83Z"/><path class="cls-1" d="M333.38,88.1l1.12.26,2.62-.83Z"/><path class="cls-1" d="M330.67,91.69l-5.06-.56C326.75,91.32,328.38,91.51,330.67,91.69Z"/><path class="cls-1" d="M154.83,127.18c-.28.07-.45.14-.82.22l-1.38.22-2.89.44,2.77,0,1,0,.41,0,.29,0c.49,0,.68-.12.75-.2S154.64,127.39,154.83,127.18Z"/><path class="cls-1" d="M358.6,439.32c.18-3.31.2-5.95.14-8.26C358.42,435.06,357.83,438.3,358.6,439.32Z"/><path class="cls-1" d="M232.83,83.44c-1.61.16-2.3.33-2.25.53C232.24,83.82,233.18,83.65,232.83,83.44Z"/><path class="cls-1" d="M358.29,421.51c-.06.59-.07,1.16-.12,1.76.26,2.41.49,4.84.57,7.79A31.68,31.68,0,0,0,358.29,421.51Z"/><path class="cls-1" d="M98.27,370.39c0,.27-.08.6-.14.85C98.25,371.32,98.27,370.94,98.27,370.39Z"/><path class="cls-1" d="M85.61,480c0-1.09,0-2.85.09-4.52A39.69,39.69,0,0,0,85.61,480Z"/><path class="cls-1" d="M362.9,517.12c0,.19,0,.36,0,.44-2.94.05-1,.08,0,0C362.94,517.39,362.92,517.23,362.9,517.12Z"/><path class="cls-1" d="M345.46,514.12c.52-.1.92-.22,1-.42A1.82,1.82,0,0,1,345.46,514.12Z"/><path class="cls-1" d="M351.76,397.15a1.41,1.41,0,0,1,0-.21C351.61,397.68,351.64,397.55,351.76,397.15Z"/><path class="cls-1" d="M356.78,517.16c1.59.11,3.46.19,5.48.26C361.34,517.35,359.64,517.27,356.78,517.16Z"/><path class="cls-1" d="M357.88,517.57l-3.72-.09C353.67,517.63,354.2,517.72,357.88,517.57Z"/><path class="cls-1" d="M362.58,511.23c.12,2.23.18,4.29.21,6.2h-.53a3.86,3.86,0,0,1,.57.05c0-.43,0-.52.07-.35C362.83,515.88,362.74,514.13,362.58,511.23Z"/><path class="cls-1" d="M98.94,167.93a4.81,4.81,0,0,1-.07.53C99.33,170.94,99.23,169.85,98.94,167.93Z"/><path class="cls-1" d="M340.1,208.81c0,.12,0,.18,0,.28l0-.36Z"/><path class="cls-1" d="M339.46,199.94a21.1,21.1,0,0,1,.71,8.79l2.51-3Z"/><path class="cls-1" d="M200.85,104.06l.78-6.23c1.28,7.52.84,13,1.94,7.11-.86-.28-1.2-2.76-1.36-6.06,0-.82-.05-1.7-.08-2.6,0-.23,0-.45,0-.67v-.13l0-.28c0-.37,0-.75-.09-1.16a2.2,2.2,0,0,0,1-.37,4.91,4.91,0,0,0,.89-1l4.1.57c-1.17,0-1.36.14-2.53.11,8,1.3,5.94-2,16.23-1.58,3.58.21,6.09.6,3.64.93l8-.68c2.33.06,1.76.53-.56.48l3.05-.06,1.52,0,.78,0,2.69-.11-.12.08a1.64,1.64,0,0,1,.25-.07,3,3,0,0,1,.71,1.18,15.39,15.39,0,0,1,.59,1.87l-.07.3c0,.13,0,.24-.06.32s-.06.24-.09.25-.08-.27-.12-.57-.12-.9-.29-.65l.08.43,0,.23,0,.41.17,1.69.33,3.37c-.35,1.38-.7.67-.95-1-.12-.82-.22-1.87-.28-3,0-.52,0-1.06-.06-1.6q0-.39,0-.78c-.34.44-.58.68-.75.93a8.77,8.77,0,0,0-.31,1.67,13.48,13.48,0,0,0,.19,3.12,43.37,43.37,0,0,1,0,12.34l-.34-6.37a22.77,22.77,0,0,0-1.16,6.53l-.06,1c0,.6,0,1.22-.06,1.84,0,1.27-.08,2.57-.12,3.93-.09,2.74-.21,5.73-.4,9.13l2.17.15c-.39-.07-1.12-.16-2-.26.17-1.81.42-4.29.66-6.79s.53-4.69.8-6.33a14.92,14.92,0,0,1,.41-1.89c.13-.26.25-.41.37-.4s.23.13.33.58a25.53,25.53,0,0,1,.26,2.69,85.33,85.33,0,0,0-.06,9.36c1.42-.06,3-.16,4.63-.3-.3.48,1.16.66,3.72.72l2.1,0h2.14l3.4-.06-.33,1.28c5.22-.37,4.81-1,7.88-1.6,5.81.13,7,1.12,8.39,2,9.31.2-6.43-1.59,4.59-1.83,1.18.07,2.31.12,3.41.15l1.62,0h2.43c3.42,0,6.74-.1,10.11-.24-.1-2.28-.21-4.65-.32-7.19-.13-2.37-.27-5.43-.42-6.84.44-5.42.78,1,1.15-1l-1-4.8c0-1.18.34-.8.5-.61-.4-4-1.28-.33-1.63-6.7a2.43,2.43,0,0,1-.34-1.42c0-.34,0-.72,0-1.14,0-.21,0-.43,0-.66s0-.33.06-.51c.2-1.3.58-2.68.83-3.87a18.72,18.72,0,0,0,2.89.27,7.92,7.92,0,0,0,1.29-.1l1.12-.13c.39,0,.78-.12,1.16-.2,1.94.37-.94.79-.35,1.28,10.82-1,9.27-.76,18.15-2.17l7.56.84c-5.55-1,1.55-2.1,7.77-3-2-.47-3.66-.87-4.79-1.07l5-.34,2.48-.17,2.91-.17c1.39.21-.07.64-1.82,1.18l2-.31c1.85.24,2.05.54,1.53.87a15.47,15.47,0,0,1-2.86,1.06l-1.53-.39-1.77-.4c-2.45.78-4.75,1.64-4.24,2.39a22.34,22.34,0,0,1,3.26-.35c-.64.21-1,.4-.76.53a10.94,10.94,0,0,0,3-.48l.56.36a1.82,1.82,0,0,1,.37.36,4,4,0,0,1,.5.71q.19-.28.42-.57l2.72.38c-.17,1.43-.34,2.69-.51,3.79.4,2.27.78,4.46,1.17,6.7s.83,4.64,1.22,7.15a153.38,153.38,0,0,1,1.75,18.1c-1-3.65-1.71-.78-2.95-1,1.31-4-.56-11.42-.29-19.07-.14,4-.73,3.11-.93,2.1L341,123.12c-1-.3-.76,2.9-1.18,6.47,2-2.71,1.34,10.16,1.95,15.7-.67.35-1.36-1-1.2-7.75-1.51,7.49,2.35,9.63,1.07,17,0-1.66.09-2.55-.25-3.2.6,3.86.12,13.3-.46,11.09l0-1.65c-.23,11,0,33.41,1.69,35-.22.12-2.05-1.4-2.39-2.06l5.72,19.47c-1.46-1.7-4.94,5-5.77-4.09a59.18,59.18,0,0,0,.07,11.36c.21-1.79,2.11-4.49,2.24-2.06a52.84,52.84,0,0,0-1.21,5.88c-.09.68-.19,1.41-.33,2.49-.08.53-.17,1.16-.28,1.91s-.26,1.62-.37,2.65c.19-2.67,2.62.24,2.74,4.45-.37-.65-2.24.41-2.55-1.13l2.73,10.44c-.52-2.61-1.92-.41-2.45,1.95.39-1.1.38,9.08.73,11.87l.32-4.46c.21,11.86,3.7,11.62,4.13,23.38-.53-1.41-3-3.44-3,2.54,1.28,2.71,6.1,12,7.47,22.35l-.57,2,1.12,8a262.89,262.89,0,0,1-8-26.33c-.32,4.45-.72,1.26-.35,7.9-.51,2.36-1.11-3.6-1.24-5.55l.32,15.48c1.32-.73,1.9,11.78,3,11.16l-2.17-16.75c1.31-.72,4.27,9.59,4.54,20.55-.41,2.81-2.49-2-2.93-1.77.53,1.41,1.36,10.37,1.08,11.39l-.93-4.62c-.22,6.11,2.24,9.89,1.3,17.26,0,2.54-1.38,7.61-.57,8,1.35-4.17,6.05-5.13,7.33-2.42-.06.89-.85,13.32-1.47,16.24-1,4.2-3.16-6.16-4-2.58.38.14.94,2.43,1.13,3.38-.19,2.67-1.19-1.06-.76,4.71,1.41.91.43,11.74,1.28,2.69.65,5.63,0,6,.37,12.64.78-2.15,3.27,5.84,3.92,11.48-.36-.32-.76,1-.93,1.59.41,11.58.08,17.81.57,28.6-.29,1-.44,6.23-1.13,4a31.76,31.76,0,0,1,1,6.28c-.88,6.48-.53-7.42-1.72-2.45.81.39,1.49,8.56,2.21,13.28,1.15-1.5-.28-11-1-15.69,1.68-.09,3.83,8.11,5.14,19.35.83,8.94-.91,3.93-.6,5.48.48,16.84,3.61,14.21,3,28.24-.82,5.59-2.13.34-2.85,1.61-.74-7.29.17-11.24-.11-16.19l-.22,6.12a48.12,48.12,0,0,1-.78-9.84c-.37,2.34-.09,9.46.25,17.61.17,4.08.36,8.42.48,12.55.07,2.07.11,4.08.13,6s0,3.56,0,5c.33,1.53.7,4.05,1,5-.16.09-.11.18.29.27,0,0,.06-.07.09-.19l-.36-4.37c.18-.88.36-.85.55-.27a21.9,21.9,0,0,1,.54,2.77c.35,2.17.63,4.37.7,1.33.1.82.21,1.65.32,2.5-2.86.29-6.26.62-10.24.82a73.06,73.06,0,0,1-9.51,0l-1.46-1.22c.17.35,5.08.73,7.26.35-3.23.55-11.91-1.66-15.46,0l5.45.85c-5.54.61-12.39,1.92-19.28,1.53,3.14,1.21,1.59-.14,6.48,1.28-4.24-1.76,17.62.07,10.8-1.78,5,1.64,8.69.7,15.26,2.1-.11-.2-.69-.4-.52-.51a2.5,2.5,0,0,1,1-.12c1,0,2.62,0,5.08.05.4-.11,1.36-.26,1.95-.35l.67,0-.56,0c.38-.06.41-.07-.2,0a31.4,31.4,0,0,1-4.95-.61,74.9,74.9,0,0,1,9.87-.82c-.2-2.4-.4-4.86-.58-7-.1-1.06-.19-2-.27-2.9,0-.43-.1-.83-.14-1.19s-.09-.72-.13-.89c0-3.43.53,1.41.87-.47l-.93-4.61c.88-.5,1.07-9.17,2-1.12l-.3-7.27a72.55,72.55,0,0,0-.31-13.79c0-3.44-1.39-8.61-.55-5.66l-1.09-11.36.22-.12c-.4-11.24-2.56-23.07-1.53-36a123.33,123.33,0,0,1-.9-14L358,408c-.5-4.84.1-14.61-.8-16.67,1.84-5.31-.64-23.58-.67-32.14l-1-.29c-.21-5.88-.76-11.51-1.51-18.79l-.87.47c-1-6.27-.11-16.2-.67-26.15.38.67.41,3.2.28,5,1.47-12-2.64-25.05-1.66-35.88a25.4,25.4,0,0,1-.29-6.51,4,4,0,0,0,.08.66c0-.27,0-.68,0-1.1.1-1.19.22-2.42.3-3.75a28.11,28.11,0,0,0-.33,3.16c-.12-2.08-.38-5.22-.74-8.29l.9-1.34c0-.25,0-.45-.06-.71.21-3-.57-2.42-1.22-.79-.23-1.55-.49-3-.77-4.06,1.44-2.5-.9-8.07.6-11.47-.9-2.05-1.32-15.47-3.1-17.08.22-.11.28-1,.37.65,0-3.44.27-6.88-.24-10l1.23-1.48L346.1,214c.75-4.57,1.18-6.47,2.12-2-1.44-10.91-.54-8.86-2-18.14l.79.44c0-3.32-1.09-8.62-.43-10.64,1.5-7.45.21-36.8,1.6-55.9-2.33,3.72,1.05-8.87-.76-9.62.55-1.11.87-3.78,1.34-.69-.54-9.73.88-14.63-.64-21.35.55-1.12.8,2.08,1.13,1.09l-.12-.83c0-.39-.09-.6-.12-1.37a17.29,17.29,0,0,1,.09-3.54c.16-.87.28-.33.39.79,0,.56.09,1.26.15,2,0,.37,0,.74.08,1.11l0,.27,0,.15c0,.1,0,.2,0,.3,0-.75,0-1.46,0-2.14s0-1.53-.05-2.25c0-1.41-.09-2.67-.16-3.77a40.07,40.07,0,0,0-.54-4.93c-4.82.66-6.06,1.65-7.18,2.61-1.53-.19-3-.32-4.33-.4l-1.73-.08q-.68,0-1.32,0a20.38,20.38,0,0,0-5.08.88c-1.76-.52-4.69-1.07,1.5-1.26-3.48-.07-21.26-.76-21.62.52a23.21,23.21,0,0,0-5.78,0l-7.57-.1c-2.5,0-4.83,0-8.31,0,0,.52,0,2.13,0,4.08l.21-2.68a19.79,19.79,0,0,1,.78,6.9c0,.6-.06,1.24-.09,1.91s-.07,1.16-.1,1.79c-.06,1.23-.1,2.6-.06,4.14l-.16-.17c-.55,7.08-.42,8.61-.31,10.12,0,.38.06.75.08,1.21,0,.23,0,.48,0,.77s0,.52,0,.83a39.47,39.47,0,0,1-.49,4.44,5.3,5.3,0,0,0,1,.35,3.41,3.41,0,0,1,.56,1.33,8.31,8.31,0,0,1-2.8,0c-.63-.06-1.31-.14-2-.23l-1-.15-.52-.08-.65-.07a55.46,55.46,0,0,0-11.19-.51l2.93.55c-4.43.71-12.39-2.8-16.84-3.06-1-.18,1.53-.29,2.89-.42-5.83-.61-6.21-.3-6.22.21,0,.25.09.55-.36.8a6.59,6.59,0,0,1-.71.34,6.14,6.14,0,0,1-1.31.2c-.25-.34.24-.77.38-1.13s.11-.66-.64-.72a.14.14,0,0,0-.1-.06,2.25,2.25,0,0,0-.24-1.1c-.09-.25-.19-.55-.3-.92a.7.7,0,0,1,0-.19l0-.42-.09-.84c0-.56-.1-1.14-.16-1.72-.42-4.67-.71-9.81-.09-13.58-.53,1.76-1,3.5-1.44-.53,0-.31,0-.62,0-.94s0-.91,0-1.38c0-1,.06-2,.1-3.06.12-2.23.25-4.61.38-7-3.44-.22-7.26-.42-10.88-.45H237l-.85,0c-.56,0-1.11,0-1.63.1a14.53,14.53,0,0,0-2.85.5c-.79-.14-1.09-.27-1.12-.4-4.73.42-15.36.7-18.21,1.59-1.1-.83-3.52-1.14-6.52-1.19-.76,0-1.51,0-2.38,0l-3.6.08c-2.43.08-4.87.19-7.16.3.1,2.4.2,4.74.3,6.9s.12,4.18.11,5.15c0,2.36-.29,3.87-1.05,3.84l.17,13.89-.32-.25a27.4,27.4,0,0,0,0,3.33,12.21,12.21,0,0,0-2.53.49l-1.09.35a5.73,5.73,0,0,1-.77.19l-.87.2c-2.15-.21-.58-.5-.4-.66-13.58-.61-14.93-.48-26.32,1l-1.18-1a25.88,25.88,0,0,1-4.49,0l-.31,0-.24,0-.49,0-1-.11-2.14-.23c.07-.85.15-1.73.22-2.65,0-.42.05-.85.08-1.28,0-.82,0-1.66,0-2.49,0-3.52-.05-7.11-.34-10.49.11.13.3.41.44,1.47-.08-1.13-.14-2.28-.18-3.46l0-1.79c0-.65,0-1.31,0-2,0-3.67.09-7.46.21-11.39l-12.66-.44c-2.76-.15-5.4-.26-7.79-.28-4.78,0-8.59.3-10.51,1.56l-9.89.89c12.79.28-1.9,1.57,3.36,2.17-5,.21-13-1.09-6.83-1.27l1,.18c.91-.76-1.45-1-4.58-1.13l-1.2,0-1.65,0-3.34,0c-2.21,0-4.28-.09-5.87-.19,0,1.43-.17,2.25-.44,2,.4,10.1.52,14.86.68,21.37q.17,9.31.34,18.49c.19,12.23.35,24.26.75,36l1.36-2.77.22,8.23c-.26,2.17-1,2.93-1.2-2.93-.71,3.11,1.06,9.81,1.38,10-.17,11.51-1.87-4.42-1.77-.9l.28,4.78.14-1.08c.73,3.85,1.38,4.17,1.57,11.22-.13,4.47-.82,2.32-.81,4.08-.11,0-.13.59.06,2.69l.25,10.36,1-4.18c.74,4.57.3,9.74,1.43,4.91a39.87,39.87,0,0,0-.62,7.53c0,1.65,0,3.46,0,5.36s.08,3.81.13,5.79c-.1,2.59-.19,5.23-.29,7.77s-.16,5-.22,7.25c-.15,4.42-.3,7.84-.52,9.05.62,6.46.38,12.8,0,20.66.3-1.94,1.64-3.07,1.24,3.71-2.59-2.58-1.6,12.37-3.72,17.78,1.45-4.85-.37,19.29,1.72,11.67-.42,5.65-1,.31-1.8,4.58.56,13.5-1.73,29.65-2,46.31.34.27,1-2.5,1.37,1.09L89,364.67c.06,3.3,1.92,3.1.49,9.06.32-.83.82-2.08.85.13-2.87,32.54-1,66.67-5.36,99.67.84-4.46.8-1.47.7,2,.24-2.22.87.08,1.36-.34L85.24,489c1.24,2.57-.44,14.86.78,16.36l-.08-4.4c1.29,5.89,3.61-8.05,5.5-7.13-1.47-6.6,3.12-17.15,1.07-28,.48-2.36.55,2,1,.79-.73-2.75-.78-6-.2-12.11l.18.7c.41-17.11,1.48-24.41,2.7-43.59l-1,1.39a48.59,48.59,0,0,1,.9-6.9c-1.26-4.79-.49,11.58-1.92,7.21,2.12-5.4,1.07-29.1,3.39-32.72.23-6.35-1.17,1.82-.93-4.52l.65-1.66-.7-1.64c.27-4.15,1.09-6.23,1.59-6.36-.09,1,0,2.87,0,4,.89-5.38.3-15.23.59-17.08l-.58,6.09c.06-17.34,1.59-38.47,1-55.25l-.5,1.25c-.37-12.81.86-10.22,1-24.26l.08.51a66.28,66.28,0,0,1-.25-10.42c.4,3.56,1.26-6.63,1.67-2-.39-13.89-.45-6.88-1.78-16.1l.81-2.08c-.56-3.14-.9-3.42-.85-10.43.44,5.77,1.29-4.44,1.9,2a75.71,75.71,0,0,0,.8-9.21c0-1.36,0-2.64,0-3.85s-.06-2.43-.08-3.55-.25-2.44-.36-3.56-.17-2.11-.19-3.09a17.3,17.3,0,0,1,.69-5.6c-2.3-6.68-.67,12.77-1.25,9-.55,3.19-1.74-5.52-1.7-10.14-.13-4.7,2.33-8.08,1.86-19.9,0,1.18.19,1.25.22,2.42.36-4.44-1-8.64-.38-14.09-1.35-3-.18-7.05-1.8-7.87l.77,10.83c-.64-6.13-2.71-11.82-2.18-22a38.78,38.78,0,0,1,1.19,5.83c.35-3-.52-5.69-.16-8.77,1.62.81.83,13.16,2.28,19.7.55-3.2-1.6-12.41.23-9.17-2.35-4.67-.15-11.65-2.11-19.59l1,.49a46.55,46.55,0,0,1-.8-6.2l1.38,4.17c-1.29-6.44.46-12.52-.34-18.72.51,13-1,3-1.52,8.49-1.87-16,2.14-9.32,1-27.27.22,2.43-.23,9.15-.81,5.37a77.17,77.17,0,0,1,.68-10.08c-.63-11.9-.9,1.86-1.67-3.18a10,10,0,0,0,0-5.1c-.1-.4-.2-.81-.3-1.24-.06-.21-.11-.43-.17-.65a3.17,3.17,0,0,0-.16-.56,8.06,8.06,0,0,1-.52-1.92l1,.4a12.7,12.7,0,0,0,0-1.83c1.41-.06,1.26-.56,1.45-1,.1-.21.29-.38.91-.47l.54,0h.81c.86,0,1.92,0,3.24.13l-2.58.67-.65.17a1.48,1.48,0,0,0-.29.08l-.15.08a6.36,6.36,0,0,0-.54.34l.69-.09,1.54-.09,3.19-.17L104.75,93c6.93-.82,9.08-.6,15.88-.3-1.58-.68.88-1.75,6.9-1.78,4.1.58-2.3.92,6.22.78a12.54,12.54,0,0,1-7.74.47c-.38.32-1.9.61-2.29.92,4.42.66,11.1.15,14.19.14a28.45,28.45,0,0,1-3.34-.22l3-.32.74-.08.37,0,.19,0,.63-.17c.87-.21,1.92-.42,3.12-.64l.06.21c-.31,1.12-.57.8-.82.56l-.36.12.27,0a10.44,10.44,0,0,1,.6,2.83c-.39-.19-.79-.22-1.14-.38a1.5,1.5,0,0,1-.82-.79,8.25,8.25,0,0,1,.43,1.24,9,9,0,0,1,.11,1.13l.11,1.48.22,2.94c-.34.78-.94,6-1.23,4.51a54.06,54.06,0,0,0,.17,7.41l0,.51c0,.18,0,.3,0,.67q0,.91.09,1.86c.06,1.22.12,2.46.18,3.71q.16,3.63.33,7.37c2.58-.09,5.11-.16,7.58-.18,1.24,0,2.47,0,3.7,0l1.83,0,.61,0,.54,0a15,15,0,0,1,3.19-.41c8.13.18,15.33,1.14,25,.07l2.74.7,1.36.35.69.18c.31.06.8.12,1.21.17,7-.16,3.23-.6,1.11-1.07s-2.84-1,6.72-1.23l2.92-.07c-.05-4.71.27-5.16.66-5s.83,1.14,1-1.29c-.09-1-.18-2.06-.29-3.23-.05-.56-.1-1.14-.16-1.74l0-.44,0-.22,0-.14c0-.18-.06-.36-.08-.54-.22-1.47-.43-3.11-.58-4.86a51.21,51.21,0,0,1,.19-11.55C201,99.41,200.74,101.53,200.85,104.06Zm40.05,12.26c-.06-.71-.13-1.59-.21-2.54-.08-.61-.15-1.27-.21-1.92a7.94,7.94,0,0,1,.16-3.18,5.47,5.47,0,0,1,.66,3,15.74,15.74,0,0,1-.15,1.69c0,.15,0,.32-.06.48s0,.51-.07.78Q241,115.41,240.9,116.32Zm101.18-24.2a4.6,4.6,0,0,1-.13-2,16.22,16.22,0,0,1-1.8-.33,17.07,17.07,0,0,1,2.15,0A23.85,23.85,0,0,1,342.08,92.12ZM360.61,484.6a1.39,1.39,0,0,0-.06-.19C360.74,480.38,360.66,481.81,360.61,484.6Zm0,8.37c.17.83.3.77.42.4a17.5,17.5,0,0,1-.41-4.58C360.37,489.4,360.25,490.48,360.58,493ZM93.42,194.53l.19-1.63C94,196.56,93.73,195.54,93.42,194.53Z"/><path class="cls-1" d="M331,91.27a1.23,1.23,0,0,1-.78-.52C329.55,90.91,329.54,91.1,331,91.27Z"/><path class="cls-1" d="M155.4,127h-.28a.65.65,0,0,0-.29.18Z"/><path class="cls-1" d="M346.41,364a17.83,17.83,0,0,1,.34-3.33C346.51,360.58,346.35,361.37,346.41,364Z"/><path class="cls-1" d="M331.9,518l5.36-.25a26.28,26.28,0,0,1-4.82-.32C332.55,517.65,333.58,518,331.9,518Z"/><path class="cls-1" d="M285.45,512c-.79.12-1.66,0-2.43.13l.21.45C286.56,512.57,288.89,512.21,285.45,512Z"/><path class="cls-1" d="M327,514.78c-.43-.81-3.78-.53-7.53-.38h.66C319,515.53,323,515.16,327,514.78Z"/><path class="cls-1" d="M318.55,514.42c-1.16,0-2.34.06-3.47,0C314.64,514.9,316.49,514.54,318.55,514.42Z"/><path class="cls-1" d="M361.6,503.53c0,.11,0,.2,0,.31s0,.29,0,.41a3.79,3.79,0,0,0,.12.62,1.82,1.82,0,0,0,.36.7,1.31,1.31,0,0,1,.37,1.34c.61,2,0-4.11-.41-5.25C361.59,499.68,361.11,498.68,361.6,503.53Z"/><polygon class="cls-1" points="323.91 512.11 325.26 513.11 327.36 512.3 323.91 512.11"/><path class="cls-1" d="M353.94,512.84l-6.41-.27c.09.16-.68.26-1.61.34l5.47.09C353,513,354.1,513,353.94,512.84Z"/><path class="cls-1" d="M345.92,512.91a36.65,36.65,0,0,0-4.82.16C342.14,513.06,344.38,513,345.92,512.91Z"/><polygon class="cls-1" points="332.1 511.81 333.87 512.02 338.1 512.09 332.1 511.81"/><path class="cls-1" d="M355.34,451.43l-.59-6.52c-.38-.65-.5,1.14-.26,3.56C354.81,450,355.05,452.44,355.34,451.43Z"/><path class="cls-1" d="M353.51,471.3a9.09,9.09,0,0,1,.63-2.92l-1.25-.14Z"/><path class="cls-1" d="M352.34,452.26c-.38-.64-1.43-9.44-1-1.16C351.74,451.75,352.33,458.28,352.34,452.26Z"/><polygon class="cls-1" points="349.35 353.78 349.44 355.44 351.46 355.13 349.35 353.78"/><path class="cls-1" d="M340.45,267.17c-.12,7.75,1.35,1.8,1.06,8.81.57,1.81.23-5.73.74-3.88C341.52,267.45,341.69,265,340.45,267.17Z"/><path class="cls-1" d="M342.25,272.1c.11.75.24,1.54.42,2.38A23.26,23.26,0,0,0,342.25,272.1Z"/><polygon class="cls-1" points="83.86 498.21 83.26 503.17 84.06 499.98 83.86 498.21"/><path class="cls-1" d="M85,507.82,83.69,509l1.07,3A16.7,16.7,0,0,1,85,507.82Z"/><path class="cls-1" d="M253,128.5l.38-.31a8.32,8.32,0,0,0-2.5-.32c-1.23-.05-2.81-.07-4.92-.1Z"/><polygon class="cls-1" points="219.05 93.92 220.22 93.94 218.04 92.77 219.05 93.92"/><path class="cls-1" d="M203.37,128.81c0-4.56-.22-10-.17-14.53a105.15,105.15,0,0,1-.39,11C202.65,127.62,202.63,128.68,203.37,128.81Z"/><path class="cls-1" d="M198.76,198.77c-.26-.07-.17.76-.21.92C199,199.5,198.75,198.55,198.76,198.77Z"/><polygon class="cls-1" points="203.1 196.87 203.03 197.21 203.67 196.37 203.1 196.87"/><path class="cls-1" d="M207.16,196.88c-.38-1.42-1.47.23-2.19-.27l-.12-.33-.33,1.15C205.4,197.25,206.54,196.48,207.16,196.88Z"/><path class="cls-1" d="M209.33,200c-.14-.55.47-.48-.51-.17a.94.94,0,0,1,.1.14A1.32,1.32,0,0,1,209.33,200Z"/><path class="cls-1" d="M208.92,199.94c-.43,0,.27.46,0,0Z"/><path class="cls-1" d="M210.89,199.62l-.56.5c.11.32.62.4.43.64C211.34,200.48,211.22,200.16,210.89,199.62Z"/><path class="cls-1" d="M211.42,198.58l-.29.21C211.18,198.93,211.26,199,211.42,198.58Z"/><path class="cls-1" d="M210.51,199.23l.62-.44c-.08-.23-.09-.7-.28.16C210.9,198.52,210.78,198.93,210.51,199.23Z"/><path class="cls-1" d="M210.16,199c-.31-.31-.72-.5-.16-1C208.93,198.21,209.08,199.21,210.16,199Z"/><path class="cls-1" d="M207.37,195.41,207,195l-.37.48C206.77,195.23,207.4,195.85,207.37,195.41Z"/><path class="cls-1" d="M214.4,200.36a9.58,9.58,0,0,0-.23-1.2l-.42.35C214,199.72,214.37,199.91,214.4,200.36Z"/><path class="cls-1" d="M214.17,199.16l.62-.52C214.23,198.58,214.13,198.83,214.17,199.16Z"/><polygon class="cls-1" points="211.52 196.99 210.5 198.09 211.72 196.98 211.52 196.99"/><polygon class="cls-1" points="216.78 200.4 216.42 201.1 217.05 200.04 216.78 200.4"/><path class="cls-1" d="M218.35,200.27c-.26.59.36,1,.08,1.35.43-.11.8-.61,1.13-1.06C219.21,200.81,218.83,200.75,218.35,200.27Z"/><path class="cls-1" d="M220.11,199.91a3.86,3.86,0,0,0-.55.65A1.86,1.86,0,0,0,220.11,199.91Z"/><path class="cls-1" d="M215.85,198.79a1.37,1.37,0,0,0,.49.87l-.25-.86Z"/><path class="cls-1" d="M216.09,198.77v0l.53,0Z"/><path class="cls-1" d="M215.79,198.79h.06C215.83,198.71,215.81,198.68,215.79,198.79Z"/><path class="cls-1" d="M213.16,197.77c.36-.48,1.12-1,.39-1.72C213.28,196.63,213.71,197.05,213.16,197.77Z"/><path class="cls-1" d="M215.48,197.72l-.66-.2c0,.23.13.56,0,.79Z"/><polygon class="cls-1" points="215.81 197.45 215.48 197.72 215.73 197.79 215.81 197.45"/><path class="cls-1" d="M219,199.11a1.25,1.25,0,0,1,1-.46,2.82,2.82,0,0,0-1.14-.26C218.74,198.66,218.57,199.14,219,199.11Z"/><path class="cls-1" d="M217.57,198.87l.07-.05C217.6,198.75,217.57,198.73,217.57,198.87Z"/><path class="cls-1" d="M223.4,198.65c0-.05,0-.1-.05-.15l0,.14Z"/><path class="cls-1" d="M218.72,198.23c-.28-.17-.45,0-.61.31a1.93,1.93,0,0,1,.68-.15C218.81,198.27,218.82,198.19,218.72,198.23Z"/><path class="cls-1" d="M221.08,199.51a3.61,3.61,0,0,0-.49-.47C220.73,199.31,221,199.73,221.08,199.51Z"/><path class="cls-1" d="M217.73,199.06l0,0C217.78,199.28,217.77,199.19,217.73,199.06Z"/><path class="cls-1" d="M217.73,199.06a2.12,2.12,0,0,0,.38-.52,1.4,1.4,0,0,0-.47.28A1.34,1.34,0,0,1,217.73,199.06Z"/><path class="cls-1" d="M224.45,193.17c0,.79-.79,1.52-1.44.67-.63.59-.22,3.2.34,4.66a1.24,1.24,0,0,1,.67-1.14c-.23-.43-1.45-1-.9-1.72.87-.41.71.28,1.13.69-.36-1,1.1-1.43.91-2.88l-.76.51C224.39,193.73,224.67,193.37,224.45,193.17Z"/><path class="cls-1" d="M222.1,198.42l-.27.09c.31.14.53.46.93,1.08a1.37,1.37,0,0,0,.57-1l-1.32-.11Z"/><path class="cls-1" d="M220.63,198.52c.21-.87.85-1.23.46-2.16-.79.06-.56.72-1,1.09,1.27-.21-.36.48.56,1a2.15,2.15,0,0,1-.69.23,3.18,3.18,0,0,1,.66.39l0,0h0c-.05-.11-.07-.18,0-.12h0a1.61,1.61,0,0,1,.06-.33c.36.18.05.23-.06.33a.51.51,0,0,0,0,.13h0l1.27-.48A2.16,2.16,0,0,0,220.63,198.52Z"/><path class="cls-1" d="M214.23,194.19a.54.54,0,0,1,0,.2C214.35,194.29,214.38,194.22,214.23,194.19Z"/><path class="cls-1" d="M214.75,194.71c-.09.12-.17.47-.47.38-.26-.26,0-.41,0-.7-.18.23-.64.62-.07,1l.09-.12a3,3,0,0,1,1.08,1.49A8.73,8.73,0,0,0,214.75,194.71Z"/><path class="cls-1" d="M217.73,196.4l1.06-.43-.54-.74,0,.45C217.67,195.5,217.8,196.05,217.73,196.4Z"/><polygon class="cls-1" points="223.52 199.08 223.38 199.99 224 198.71 223.52 199.08"/><polygon class="cls-1" points="224.9 198.97 224.85 199.76 225.22 199.29 224.9 198.97"/><path class="cls-1" d="M223.05,248.07l-.31.22A.88.88,0,0,0,223.05,248.07Z"/><path class="cls-1" d="M225.31,248.12l.06-.39C225.26,247.94,225.22,248.1,225.31,248.12Z"/><path class="cls-1" d="M233.23,214.49c-.74.45-1.89,1-1,.91l.87-.14A.63.63,0,0,1,233.23,214.49Z"/><path class="cls-1" d="M238.41,237.76l.26-.07c-.3-.2-.57-.36-.83-.51C238,237.35,238.21,237.54,238.41,237.76Z"/><path class="cls-1" d="M242,239.21c-.19.24-.37.47-.56.68A1.67,1.67,0,0,0,242,239.21Z"/><path class="cls-1" d="M210.71,249l-.36.88C210.92,249.86,210.67,249.42,210.71,249Z"/><path class="cls-1" d="M233.46,199a4.81,4.81,0,0,0-.53.78C233.43,199.23,234.18,198.38,233.46,199Z"/><path class="cls-1" d="M223.94,238.86a.66.66,0,0,0-.27.53A.53.53,0,0,0,223.94,238.86Z"/><path class="cls-1" d="M232.94,200.1l.2-.19c-.14,0-.26,0-.21-.16C232.56,200.15,232.33,200.36,232.94,200.1Z"/><path class="cls-1" d="M193.6,210.73s.06-.07.11-.1C193.59,210.62,193.58,210.66,193.6,210.73Z"/><path class="cls-1" d="M202.36,197.69a2.06,2.06,0,0,1,.06.54C202.48,198.13,202.48,198,202.36,197.69Z"/><path class="cls-1" d="M230.46,199.35c-.3.06-.05.1,0,0Z"/><path class="cls-1" d="M229,195.92a.75.75,0,0,0,.12-.42A1,1,0,0,1,229,195.92Z"/><path class="cls-1" d="M238.34,199.73v0C238.5,199.62,238.47,199.65,238.34,199.73Z"/><path class="cls-1" d="M230,199a1.34,1.34,0,0,0,.37.25A1.4,1.4,0,0,0,230,199Z"/><path class="cls-1" d="M230.08,199.37l-.26-.09C229.78,199.43,229.82,199.52,230.08,199.37Z"/><path class="cls-1" d="M230.6,199.3a.09.09,0,0,1-.07,0s0,0-.14-.08c.06.06.08.11.07.14S230.53,199.32,230.6,199.3Z"/><path class="cls-1" d="M195.92,234.7l.09-.06C195.65,234.35,195.7,234.48,195.92,234.7Z"/><path class="cls-1" d="M242.24,222.11l0,0,0,.05Z"/><path class="cls-1" d="M242.88,223.16c-1.08-.45-.94-.7-.71-1l-2.51.35Z"/><path class="cls-1" d="M217.64,248.32l.74.78c-.89,1.28-1.54.84-.84,1.93.1-2.71,2.87-.28,3-3l.49.57c-.14,0-.17.14-.3.11.94,1.3.7-2,1.92-1.58.42.21.72.6.43.93l.95-.68c.27.06.21.53-.07.48l1.45-.22v.08a8.79,8.79,0,0,1,.9-1.37c.36.39-.19.29-.09.63l.8-.66a.91.91,0,0,1-.89,1.29c.74,2.71.66-.68,2.27.9l-.75.34c.48,1.55,1.07,1,1.93,1.95-.21-.5-1.71-2.42-.84-3.1.24.21.56.3,1-.24,0,.48.12.66.31.72a4.09,4.09,0,0,0,.9-.05l0,1.28c1.09-.37.93-1,1.43-1.6,1.1.13,1.59,1.12,2.12,2,1.06.11.56-.29.14-.74s-.78-1,.22-1.09a3.8,3.8,0,0,0,3.7-.79c1.3.44.38.78,1,1.14a7.11,7.11,0,0,0,.13-1c.23,0,.42.34.51.5.41-.4-.95-1.28-.21-1.63-.43-.61.24-.29,1.21.13.54-.14,1.23-.6.34-2.07.36-.06.78.77,1.28,1.06-.53-1.42-.72-1.93-1-2.45a13.59,13.59,0,0,0-1.22-2.08,11.09,11.09,0,0,0,.84-.84c-.48.27-1,0-1.53-.52s-1-1.11-1.5-1.61c-.47.11-.87.16-1.07.21-.22-.43-.45-.82-.68-1.18a2,2,0,0,1,1.18.39,3.25,3.25,0,0,0-.3-.26c.47-.3,1.21,0,1.92.48a6.74,6.74,0,0,1-.79.29,8.66,8.66,0,0,0,2.39,1.29,1.5,1.5,0,0,1-.35-.62,1,1,0,0,0,.53.27c.13,0-.15-.27-.47-.61.47,0,.95,0,1.42-.07l-.57-.2c.3-.67.6-1.46.9-2.2-1.44-1.1-3.55-2.06-4.14-3.81,1.05.44,1.71.1,3,.12-1.31.48.55,1.35.29,2.26.14-.47.73-.37.93-.25l-1.19-1.62c1,0,.76-.34,1.18-.76-2,.32-1.34-1.2-1.95-1.86.67,0,1.36.12,1.2.92,1.5-.89-2.36-1.15-1.07-2,0,.19-.09.3.25.37-.6-.45-.12-1.57.46-1.31l0,.2c.23-1.3,0-4-1.69-4.15a22.11,22.11,0,0,1,2.39.25l-5.72-2.32c1.46.2,4.94-.58,5.77.49a1,1,0,0,0-.07-1.34c-.21.21-2.11.53-2.24.24,1.62-.8.87-.55,2.25-1.53-.31.32-2.6,0-2.53-.53a16.68,16.68,0,0,1,2.5.14l-2.25-1.25a3.89,3.89,0,0,0,2.54-.22c-.44.13,0-1.08-.18-1.41l-.52.53c.34-1.41-3.16-1.39-3-2.78.46.16,2.86.41,3.14-.3-1.15-.32-5.54-1.44-6.43-2.67l.66-.24-.75-.94a45.52,45.52,0,0,1,6.8,3.14c.52-.52.78-.14.72-.93.61-.28.93.43,1,.66l.4-1.83c-1.35.08-1.35-1.41-2.47-1.34l1.39,2c-1.34.08-3.81-1.15-3.58-2.45.54-.33,2.4.24,2.84.22-.46-.17-.88-1.24-.55-1.36l.72.55c.5-.72-1.78-1.18-.5-2.05.08-.3,1.73-.89.93-.94a23.25,23.25,0,0,1-7.43.26,11,11,0,0,1,2.23-1.92c1.2-.5,2.86.74,3.9.32a2.09,2.09,0,0,1-1-.41c.31-.31,1.14.13,1-.55-1.36-.11.12-1.39-1.15-.32a.59.59,0,0,1,0-.71,1.25,1.25,0,0,0,.23-.89,3.09,3.09,0,0,1-1.88-.3,4.31,4.31,0,0,1-1.51-.79,3.13,3.13,0,0,0,1-.4c.12-1.4.74-2.5.75-4,.33-.34.73-1.39,1.32-1.51-.24-.06-.7.1-.74-.34,1.18-2,.19,1,1.6-.93-.77.54-1.08-.41-1.55-.6l-.08,0a.63.63,0,0,0-.11.15c-1,1.24-.06,1.47.41,1.82a9.05,9.05,0,0,1-3.87,1.64,7.81,7.81,0,0,1-.7.36c-1.08.42.63-1.09.29-.85-.68-.15-1.56.59-2.17,1.21s-1,1.13-1.19.52a4.4,4.4,0,0,1,.44-1.57,9.25,9.25,0,0,0,.61-1.34c1-.41.9.68,1.39.64a5,5,0,0,0-.34-.51c.44-.36,1.21-.63,1.3-.32.08-.48-.78-.53-1.77-.57a6.6,6.6,0,0,1-2.9-.51c-.33.36-.79.74-.57,1.17l.47-.15a.91.91,0,0,1-.23,1c-.19.25-.32.43-.09.63-.58.61-1.37,1.57-2.27,1.08l-.17-1.23c0,.36.6.73.86.36-.39.54-1.42-1.66-1.84-.05l.65.85c-.66.61-1.47,1.91-2.29,1.53.38,1.21.19-.14.77,1.27-.5-1.76,2.09.08,1.28-1.77.6,1.64,1,.69,1.81,2.1,0-.41-.28-.78.41-.58a1.42,1.42,0,0,1,.15-.35l.05,0,0-.05c0-.06,0-.08,0,0a1.43,1.43,0,0,1-.34-.61,1.52,1.52,0,0,1,.88-.86,2.3,2.3,0,0,0,.56-.52c.21.19-.16.46-.09.89.13-.24.26-.48.42-.72-.09.9.11,1.49-.36,2l.27,0c0,.51,0,.71.35.33,0,.19.93-1,.37-.29a9.64,9.64,0,0,1,.88-.56l-.18.22c.14,0,.5-.15.89-.33.3,0,.54.39-.47,1.41.23,0,.51.06.25.46l-.78.38c.14,0-.06.22-.18.35s-.19.21.22.18c-.53.13-.82.21-1,.26s-.11,0-.13.1a2.48,2.48,0,0,0,0,.54,5.69,5.69,0,0,1,.23,2.06l1,0a4.61,4.61,0,0,0,.64,2.24l.9-.06c.73.75-.64,1.92-.55,3.11-.34-.09-.25-.38,0-.6-2,1.41,1.47,3,0,4.26a.46.46,0,0,1,0,.77.1.1,0,0,0,0-.07.27.27,0,0,0,0,.13,5,5,0,0,0-.48.44,1.9,1.9,0,0,0,.48-.37,2.43,2.43,0,0,0,.35,1l-1,.16a.26.26,0,0,0,0,.08c-.36.36.45.29,1.18.1a2.29,2.29,0,0,0,.58.48c-1.56.29.52,1-1.14,1.36.81.25.61,1.84,2.31,2-.22,0-.32.12-.34-.07-.19.4-.39.81.09,1.18l-1.22.17,1.65.89c-.75.54-1.18.77-2.13.23,1.45,1.29.55,1,2,2.15l-.8-.05c0,.39,1.1,1,.44,1.26-1.5.88-.21,4.36-1.61,6.63,2.34-.44-1,1.05.77,1.14-.55.13-.87.45-1.35.08.55,1.16-.87,1.74.65,2.53-.55.14-.8-.24-1.13-.13a1.09,1.09,0,0,1,.24.24c.07.08.07.09-.09.11a.94.94,0,0,1-.39,0l-.15,0-.16-.14c0,.19,0,.16.1.21a1.45,1.45,0,0,0,.24.1c.2.07.47.14.79.22.63.16,1.45.33,2.25.48-.75.29-.65.39.4,1.07-.52,0-1.07,0-1.26-.53a3,3,0,0,0-.25.72c0,.31.13.69.77,1.12-.33-.12-.1.31.05.49a2.46,2.46,0,0,0-.07,1.2l.21,0a3.45,3.45,0,0,1,.79,1.07c-.15.07-.83-.38-1.07-.26l-.12-.16c-1.07-.56-1-.42-1.09-.31s-.15.21-1.06-.43l.6,1c.54,1,0,.73-.57.26s-1.15-1.08-1.38-.69c.13.19.27.37.41.55-.1.35-.61-.35-1-1.17s-.59-1.76-.69-1.89.06-.29.1-.42c-.14-.31-.18-.38-.21-.32s-.1.27-.1.53c0,.5,0,1.19-.48,1.34-.19-.68.25-1.73-.44-1.85-.35-.55-2,2.2-3,.9.21.52.42,1-.06,1.43-.73.19-2-2-2.64-.33a.75.75,0,0,1-.14-.4c-.56.42-1.82.7-2.15,1.59-.52-3.31-3.49,1.62-3.47-1.44l-1.73.16.05-.31c-1.1-.2-1.49.53-1.88,1.26-.25-.2-.07-.49-.05-.65-1.61-.61-1.77-.48-3.12,1l-.14-1c-.36.57-2.32-1.56-3.9-.4a.84.84,0,0,1,.17-.45,1.29,1.29,0,0,1-.69.23,1.18,1.18,0,0,1-.61-.11,2.43,2.43,0,0,1-.56-.6c-.3-.39-.4-.46-1.47,1.34a14.18,14.18,0,0,1-1.24.89c.43.14.2.54-.18,1s-.93.9-.81,1.2c-.36.11-.57-.17-.54-.49a.91.91,0,0,1,.63-.78l0,.18c.73-.94.5-1.11.24-1.2s-.6-.11,0-.75h-.4a10.89,10.89,0,0,1,.51-2.6c.12-.37.23-.73.34-1.1a4.64,4.64,0,0,0,.12-.47l0-.22c0-.05,0-.05,0-.13v-.25c-.49.11-1,.23-1.46.31l.08-1c.34-.25,1.15-.34,1.09.35.83-.36-.7-1.16-1-1.18.6-1.36,1.71.53,1.75.11l-.11-.56-.18.12c-.59-.46-1.23-.5-1.15-1.33.29-.53.9-.27,1-.48.11,0,.16-.07,0-.32l.12-1.23-1.15.49c-.57-.54.06-1.15-1.25-.59,2-.83.72-4.58,1.35-5.09a2.46,2.46,0,0,1-.73-2.45c-.24.24-1.54.37-1.38-.43,2.68.29,1.17-1.47,3.09-2.12-1.27.58-.31-2.29-2.13-1.38.22-.67,1,0,1.64-.55-1-1.59.67-3.52.32-5.49-.35,0-.89.3-1.41-.12l1.76-1c-.18-.39-2-.36-.81-1.08-.3.1-.74.25-.86,0,1.72-3.86-1.4-7.9,1.82-11.82-.68.53-.75.17-.78-.23-.16.26-.86,0-1.34,0l1.32-1.64c-1.32-.3-.09-1.76-1.35-1.94l.23.52c-1.5-.69-3.32,1-5.24.87,1.7.78-2.51,2-.08,3.32-.39.28-.62-.24-1.06-.09.82.32,1,.71.62,1.43l-.2-.08c.2,2-.61,2.9-1.15,5.17l1-.16c-.13.48-.43.59-.66.82,1.43.56.08-1.38,1.66-.87-1.93.65,0,3.46-2.22,3.89,0,.76,1.1-.22,1.08.54l-.59.2.77.19c-.13.49-.87.74-1.37.76.06-.12-.14-.34-.19-.47-.7.64.24,1.8,0,2L194,212c.55,2.05-.22,4.56,1,6.55l.45-.15c.82,1.51-.49,1.21-.11,2.87l-.11-.06a1.37,1.37,0,0,1,.62,1.24c-.52-.42-1,.79-1.59.24.88,1.64.69.81,2.35,1.89l-.74.26c.67.37,1,.4,1.22,1.23-.64-.68-1.13.53-2-.24-1.62,1.75,1.64,2.59-.74,3.39,2.06.8,1.14-1.51,1.58-1.06.67-.37,1.54.66,1.33,1.21-.05.56-2.63.95-2.59,2.35,0-.14-.14-.15-.13-.29-.53.53.71,1-.15,1.67,1.25.36-.07.84,1.52.94l-.37-1.28c.41.73,2.27,1.41,1.37,2.61a2.77,2.77,0,0,1-1-.7c-.46.38.31.63-.16,1.1-1.59-.21-.35-1.6-1.56-2.4-.67.38,1.15,1.48-.57,1.09,1.1.28,1,.62.89,1a1.51,1.51,0,0,0,.5,1.86l-.94,0c.14.22.59.61.57,1a13,13,0,0,1-1.23-.53c.52.53.29,1.15,0,1.86s-.63,1.49-.35,2c0-1.32.27-1.56.65-1.66a1.38,1.38,0,0,0,1.19-.67c.63,1.15,0,1.75-.71,2.63a4.43,4.43,0,0,0-1.32,3.66c-.13-.43.57-2.24,1-1.78a11.58,11.58,0,0,1-1.06,2.78c.1,1.15.35.82.64.3s.63-1.21.92-1c-.89,1.37-.13,1.06.43,1a5.34,5.34,0,0,1,1-.41l-.91,1c2,.62,2.38-2,3.81-1.26-.6.45-1.24.89-1.91,1.34l1.42-.35-1,1.1c1.91-.82,2.09-.6,3.26-.3a2.31,2.31,0,0,1,2-1.78c.5.58-.72.92.82.78-.48.6-1.18,1.36-1.55.47-.19.32-.59.61-.8.92.62.66,2.19.15,2.78.14a1.06,1.06,0,0,1-.61-.22c.92-.45,1.76-.9,2.52-1.34.32.36,0,.65-.27.94a2.25,2.25,0,0,0,.68-.33l.34-.18a.69.69,0,0,1,.29-.12c-.06.39-.08.79-.16,1.13a1.16,1.16,0,0,1-.21.48,1.63,1.63,0,0,1-.63.35l.62-.22a2.13,2.13,0,0,0,.37-.22l.7-.43c.09.34.72.94.53,1.23.78.46,1.9-1.53,2.93-.92a.72.72,0,0,1,.37-.41c1,.18,1.82,1.14,3,.07l.65,1.4c.9-.32-.87-1.77.62-2.3,1.05-.45.39,1.2.76,1.59.52-.71,1.43-2.15,2.4-1C218.19,248.42,217.94,248.21,217.64,248.32Zm11-.63c-.22.21-.64.83-.8.26C228.12,246.85,228.31,247.37,228.68,247.69Zm11.58-11.48c.32.22.16.54-.2.83A.85.85,0,0,1,240.26,236.21Zm-8.51-37.65,0,0C231.8,198.89,231.8,198.75,231.75,198.56Zm-.28-.41a1,1,0,0,0-.13.4c.09-.24.2-.26.28-.19C231.68,198.1,231.67,197.93,231.47,198.15Zm-29.05,33.43-.25.19C201.89,231.33,202.14,231.46,202.42,231.58Z"/><path class="cls-1" d="M241.58,239a1.17,1.17,0,0,1-.52,0C241.22,239.15,241.41,239.22,241.58,239Z"/><path class="cls-1" d="M210.78,248.82h0a1.16,1.16,0,0,0,0,.18Z"/><path class="cls-1" d="M242.14,203.71a1.07,1.07,0,0,1-.49.39A.43.43,0,0,0,242.14,203.71Z"/><path class="cls-1" d="M227.43,199.79l.63-.26c-.31.05-.42-.16-.57-.31C227.5,199.44,227.63,199.77,227.43,199.79Z"/><path class="cls-1" d="M221.92,193.81c-.09.12-.2,0-.29.14l0,.45C222.05,194.37,222.33,194,221.92,193.81Z"/><path class="cls-1" d="M226.84,196.58c-.05-.81-.45-.54-.89-.39H226C225.89,197.33,226.37,197,226.84,196.58Z"/><path class="cls-1" d="M225.84,196.22a.71.71,0,0,1-.41,0C225.38,196.7,225.6,196.34,225.84,196.22Z"/><path class="cls-1" d="M230.84,198.68c-.06-.2-.15,1-.15.71-.07.52,0,.21.16-.17S231.11,198.41,230.84,198.68Z"/><polygon class="cls-1" points="226.48 193.91 226.64 194.91 226.89 194.1 226.48 193.91"/><path class="cls-1" d="M230,194.64l-.71-.28a.38.38,0,0,1-.19.35C229.53,194.74,230,194.94,230,194.64Z"/><path class="cls-1" d="M229.09,194.71a.61.61,0,0,0-.57.16A1.3,1.3,0,0,0,229.09,194.71Z"/><polygon class="cls-1" points="227.45 193.6 227.66 193.81 228.16 193.89 227.45 193.6"/><path class="cls-1" d="M236.76,194.83l.73-.21.07.1a1.19,1.19,0,0,0,.45-.62.44.44,0,0,0-.26,0C237.34,194.37,237,194.5,236.76,194.83Z"/><path class="cls-1" d="M236.4,192.09c.13.21,0,.43-.08.76l.85-1.24Z"/><path class="cls-1" d="M239.45,191.8c.39-.34,2.47-1,1-.91C240,191.23,238.79,191.52,239.45,191.8Z"/><polygon class="cls-1" points="238.74 204.9 238.72 204.71 236.69 204.74 238.74 204.9"/><path class="cls-1" d="M243.61,215.19c.49-.91-1.26-.21-.65-1-.48-.22-.49.67-.91.45C242.56,215.16,242.27,215.45,243.61,215.19Z"/><path class="cls-1" d="M242.05,214.6a2.22,2.22,0,0,0-.31-.28A1,1,0,0,0,242.05,214.6Z"/><polygon class="cls-1" points="203.45 195.53 203.88 194.94 203.19 195.32 203.45 195.53"/><path class="cls-1" d="M201.94,194.39l1.3-.13-1.18-.36C202.12,194,202.23,194.29,201.94,194.39Z"/><path class="cls-1" d="M230.32,250.31l0-.31c-.09-.34-.23-.37-.51-.42Z"/><polygon class="cls-1" points="222.31 249.34 222.44 249.36 222.19 248.19 222.31 249.34"/><path class="cls-1" d="M215.59,250.83c.27,0,.59-.21.87-.16C215.86,250.88,215.51,249.37,215.59,250.83Z"/><path class="cls-1" d="M198.76,288.21c-.26-.08-.17.76-.21.91C199,288.94,198.75,288,198.76,288.21Z"/><polygon class="cls-1" points="203.1 286.31 203.03 286.65 203.67 285.81 203.1 286.31"/><path class="cls-1" d="M207.16,286.32c-.38-1.43-1.47.23-2.19-.28l-.12-.32-.33,1.15C205.4,286.69,206.54,285.92,207.16,286.32Z"/><path class="cls-1" d="M209.33,289.41c-.14-.56.47-.48-.51-.18l.1.15A1.32,1.32,0,0,1,209.33,289.41Z"/><path class="cls-1" d="M208.92,289.38c-.43,0,.27.46,0,0Z"/><path class="cls-1" d="M210.89,289.06l-.56.49c.11.33.62.41.43.64C211.34,289.92,211.22,289.6,210.89,289.06Z"/><path class="cls-1" d="M211.42,288l-.29.21C211.18,288.36,211.26,288.41,211.42,288Z"/><path class="cls-1" d="M210.51,288.67l.62-.44c-.08-.24-.09-.7-.28.16C210.9,288,210.78,288.37,210.51,288.67Z"/><path class="cls-1" d="M210.16,288.45c-.31-.31-.72-.51-.16-1C208.93,287.65,209.08,288.65,210.16,288.45Z"/><path class="cls-1" d="M207.37,284.84l-.42-.41-.37.47C206.77,284.67,207.4,285.29,207.37,284.84Z"/><path class="cls-1" d="M214.4,289.8a9.25,9.25,0,0,0-.23-1.2l-.42.35C214,289.15,214.37,289.35,214.4,289.8Z"/><path class="cls-1" d="M214.17,288.6l.62-.52C214.23,288,214.13,288.26,214.17,288.6Z"/><polygon class="cls-1" points="211.52 286.43 210.5 287.53 211.72 286.42 211.52 286.43"/><polygon class="cls-1" points="216.78 289.83 216.42 290.54 217.05 289.48 216.78 289.83"/><path class="cls-1" d="M218.35,289.71c-.26.58.36,1,.08,1.35.43-.11.8-.61,1.13-1.06C219.21,290.25,218.83,290.19,218.35,289.71Z"/><path class="cls-1" d="M220.11,289.35a3.86,3.86,0,0,0-.55.65A2,2,0,0,0,220.11,289.35Z"/><path class="cls-1" d="M215.85,288.23a1.33,1.33,0,0,0,.49.86l-.25-.85Z"/><path class="cls-1" d="M216.09,288.21v0l.53.05Z"/><path class="cls-1" d="M215.79,288.22h.06C215.83,288.14,215.81,288.11,215.79,288.22Z"/><path class="cls-1" d="M213.16,287.2c.36-.47,1.12-1,.39-1.72C213.28,286.07,213.71,286.48,213.16,287.2Z"/><path class="cls-1" d="M215.48,287.15l-.66-.19c0,.23.13.55,0,.79Z"/><polygon class="cls-1" points="215.81 286.88 215.48 287.15 215.73 287.23 215.81 286.88"/><path class="cls-1" d="M219,288.55a1.23,1.23,0,0,1,1-.47,2.8,2.8,0,0,0-1.14-.25C218.74,288.1,218.57,288.58,219,288.55Z"/><path class="cls-1" d="M217.57,288.31l.07-.05C217.6,288.19,217.57,288.16,217.57,288.31Z"/><path class="cls-1" d="M223.4,288.09s0-.1-.05-.16l0,.15Z"/><path class="cls-1" d="M218.72,287.67c-.28-.17-.45,0-.61.31a1.73,1.73,0,0,1,.68-.15C218.81,287.71,218.82,287.63,218.72,287.67Z"/><path class="cls-1" d="M221.08,289a3.61,3.61,0,0,0-.49-.47C220.73,288.75,221,289.17,221.08,289Z"/><path class="cls-1" d="M217.73,288.5l0,0C217.78,288.72,217.77,288.63,217.73,288.5Z"/><path class="cls-1" d="M217.73,288.5a2.58,2.58,0,0,0,.38-.52,1.25,1.25,0,0,0-.47.28A1.1,1.1,0,0,1,217.73,288.5Z"/><path class="cls-1" d="M224.45,282.6c0,.8-.79,1.53-1.44.68-.63.59-.22,3.2.34,4.65a1.24,1.24,0,0,1,.67-1.13c-.23-.43-1.45-1-.9-1.73.87-.41.71.28,1.13.7-.36-1,1.1-1.43.91-2.89l-.76.52C224.39,283.17,224.67,282.81,224.45,282.6Z"/><path class="cls-1" d="M222.1,287.85l-.27.1c.31.14.53.46.93,1.08a1.37,1.37,0,0,0,.57-.95L222,288Z"/><path class="cls-1" d="M220.63,288c.21-.86.85-1.22.46-2.16-.79.06-.56.72-1,1.1,1.27-.22-.36.48.56,1a1.89,1.89,0,0,1-.69.22,3.75,3.75,0,0,1,.66.4l0-.06h0v0c-.05-.1-.07-.17,0-.11l0,0a1.52,1.52,0,0,1,.06-.32c.36.18.05.22-.06.32a.69.69,0,0,0,0,.13h0l1.27-.47A2.23,2.23,0,0,0,220.63,288Z"/><path class="cls-1" d="M214.23,283.63a.54.54,0,0,1,0,.2C214.35,283.73,214.38,283.65,214.23,283.63Z"/><path class="cls-1" d="M214.75,284.15c-.09.12-.17.47-.47.38-.26-.26,0-.42,0-.7-.18.23-.64.62-.07,1l.09-.12a2.92,2.92,0,0,1,1.08,1.49A8.6,8.6,0,0,0,214.75,284.15Z"/><path class="cls-1" d="M217.73,285.83l1.06-.42-.54-.75,0,.45C217.67,284.94,217.8,285.49,217.73,285.83Z"/><polygon class="cls-1" points="223.52 288.52 223.38 289.43 224 288.14 223.52 288.52"/><polygon class="cls-1" points="224.9 288.41 224.85 289.2 225.22 288.72 224.9 288.41"/><path class="cls-1" d="M223.05,337.5l-.31.23A.89.89,0,0,0,223.05,337.5Z"/><path class="cls-1" d="M225.31,337.56l.06-.39C225.26,337.38,225.22,337.54,225.31,337.56Z"/><path class="cls-1" d="M233.23,303.93c-.74.45-1.89,1-1,.9l.87-.13A.62.62,0,0,1,233.23,303.93Z"/><path class="cls-1" d="M238.41,327.19l.26-.07c-.3-.19-.57-.36-.83-.5C238,326.78,238.21,327,238.41,327.19Z"/><path class="cls-1" d="M242,328.65c-.19.24-.37.46-.56.68A1.67,1.67,0,0,0,242,328.65Z"/><path class="cls-1" d="M210.71,338.42l-.36.89C210.92,339.3,210.67,338.86,210.71,338.42Z"/><path class="cls-1" d="M233.46,288.41a4.38,4.38,0,0,0-.53.78C233.43,288.67,234.18,287.81,233.46,288.41Z"/><path class="cls-1" d="M223.94,328.3a.64.64,0,0,0-.27.52A.52.52,0,0,0,223.94,328.3Z"/><path class="cls-1" d="M232.94,289.54a1.89,1.89,0,0,0,.2-.2c-.14,0-.26,0-.21-.15C232.56,289.59,232.33,289.8,232.94,289.54Z"/><path class="cls-1" d="M193.6,300.17a.57.57,0,0,1,.11-.11C193.59,300.05,193.58,300.1,193.6,300.17Z"/><path class="cls-1" d="M202.36,287.13a2,2,0,0,1,.06.53C202.48,287.57,202.48,287.41,202.36,287.13Z"/><path class="cls-1" d="M230.46,288.79c-.3,0-.05.09,0,0Z"/><path class="cls-1" d="M229,285.36a.79.79,0,0,0,.12-.43A1,1,0,0,1,229,285.36Z"/><path class="cls-1" d="M238.34,289.16v0C238.5,289.06,238.47,289.08,238.34,289.16Z"/><path class="cls-1" d="M230,288.39a1.18,1.18,0,0,0,.37.26A1.36,1.36,0,0,0,230,288.39Z"/><path class="cls-1" d="M230.08,288.8l-.26-.08C229.78,288.86,229.82,289,230.08,288.8Z"/><path class="cls-1" d="M230.6,288.74a.07.07,0,0,1-.07,0,.3.3,0,0,0-.14-.07c.06.06.08.11.07.14Z"/><path class="cls-1" d="M195.92,324.14l.09-.06C195.65,323.78,195.7,323.91,195.92,324.14Z"/><path class="cls-1" d="M242.24,311.55l0,0,0,0Z"/><path class="cls-1" d="M242.88,312.6c-1.08-.45-.94-.71-.71-1.05l-2.51.35Z"/><path class="cls-1" d="M217.64,337.75l.74.78c-.89,1.29-1.54.84-.84,1.94.1-2.72,2.87-.28,3-3l.49.57c-.14,0-.17.13-.3.11.94,1.3.7-2,1.92-1.58.42.21.72.6.43.92l.95-.67c.27.05.21.53-.07.47l1.45-.21v.08a8.34,8.34,0,0,1,.9-1.37c.36.39-.19.29-.09.63l.8-.66a.91.91,0,0,1-.89,1.29c.74,2.71.66-.69,2.27.9l-.75.34c.48,1.54,1.07,1,1.93,1.95-.21-.51-1.71-2.43-.84-3.1.24.2.56.3,1-.25,0,.49.12.67.31.72a3.34,3.34,0,0,0,.9,0l0,1.28c1.09-.37.93-1,1.43-1.6,1.1.13,1.59,1.12,2.12,1.95,1.06.1.56-.29.14-.75s-.78-1,.22-1.08a3.78,3.78,0,0,0,3.7-.8c1.3.44.38.79,1,1.15a7.11,7.11,0,0,0,.13-1c.23,0,.42.34.51.5.41-.4-.95-1.28-.21-1.63-.43-.62.24-.3,1.21.12.54-.13,1.23-.59.34-2.07.36-.05.78.78,1.28,1.07-.53-1.42-.72-1.94-1-2.46a14.16,14.16,0,0,0-1.22-2.07,11.09,11.09,0,0,0,.84-.84c-.48.27-1-.05-1.53-.53s-1-1.1-1.5-1.61c-.47.12-.87.17-1.07.22-.22-.43-.45-.82-.68-1.18a2,2,0,0,1,1.18.39,3.25,3.25,0,0,0-.3-.26c.47-.3,1.21,0,1.92.47a4.4,4.4,0,0,1-.79.29,8.71,8.71,0,0,0,2.39,1.3,1.57,1.57,0,0,1-.35-.62,1,1,0,0,0,.53.27c.13,0-.15-.28-.47-.61.47,0,.95,0,1.42-.07l-.57-.21c.3-.67.6-1.45.9-2.19-1.44-1.1-3.55-2.06-4.14-3.81,1.05.43,1.71.09,3,.12-1.31.47.55,1.35.29,2.26.14-.48.73-.37.93-.25l-1.19-1.62c1,0,.76-.34,1.18-.76-2,.32-1.34-1.21-1.95-1.86.67,0,1.36.11,1.2.91,1.5-.88-2.36-1.14-1.07-2,0,.2-.09.3.25.38-.6-.46-.12-1.57.46-1.31l0,.19c.23-1.3,0-4-1.69-4.15.22,0,2.05.17,2.39.25L236.43,311c1.46.21,4.94-.58,5.77.5a1,1,0,0,0-.07-1.34c-.21.21-2.11.52-2.24.23,1.62-.79.87-.55,2.25-1.52-.31.32-2.6,0-2.53-.54a19.83,19.83,0,0,1,2.5.14l-2.25-1.24c.41.31,1.91.05,2.54-.22-.44.13,0-1.08-.18-1.41l-.52.53c.34-1.41-3.16-1.39-3-2.79.46.17,2.86.42,3.14-.29-1.15-.32-5.54-1.44-6.43-2.67l.66-.24-.75-.94a44.54,44.54,0,0,1,6.8,3.14c.52-.52.78-.14.72-.93.61-.28.93.43,1,.66l.4-1.84c-1.35.09-1.35-1.4-2.47-1.33l1.39,2c-1.34.09-3.81-1.15-3.58-2.45.54-.33,2.4.25,2.84.22-.46-.17-.88-1.23-.55-1.35l.72.55c.5-.72-1.78-1.18-.5-2.05.08-.3,1.73-.89.93-.95a23,23,0,0,1-7.43.26,11.35,11.35,0,0,1,2.23-1.91c1.2-.5,2.86.74,3.9.32a2.09,2.09,0,0,1-1-.41c.31-.31,1.14.13,1-.55-1.36-.12.12-1.39-1.15-.33a.58.58,0,0,1,0-.7,1.25,1.25,0,0,0,.23-.89,3.16,3.16,0,0,1-1.88-.3,4.49,4.49,0,0,1-1.51-.79,2.92,2.92,0,0,0,1-.41c.12-1.39.74-2.49.75-4,.33-.34.73-1.38,1.32-1.5-.24-.06-.7.09-.74-.34,1.18-2,.19,1,1.6-.93-.77.54-1.08-.41-1.55-.6l-.08,0a.66.66,0,0,0-.11.16c-1,1.23-.06,1.47.41,1.82a9.18,9.18,0,0,1-3.87,1.64c-.24.13-.48.26-.7.36-1.08.42.63-1.09.29-.85-.68-.15-1.56.59-2.17,1.21s-1,1.13-1.19.52a4.4,4.4,0,0,1,.44-1.57,8.85,8.85,0,0,0,.61-1.35c1-.4.9.69,1.39.64a5,5,0,0,0-.34-.51c.44-.35,1.21-.62,1.3-.31.08-.49-.78-.53-1.77-.57a6.75,6.75,0,0,1-2.9-.51c-.33.36-.79.73-.57,1.17l.47-.15a.91.91,0,0,1-.23,1c-.19.24-.32.43-.09.63-.58.61-1.37,1.57-2.27,1.08l-.17-1.23c0,.36.6.73.86.36-.39.54-1.42-1.66-1.84-.06l.65.85c-.66.62-1.47,1.92-2.29,1.53.38,1.21.19-.13.77,1.28-.5-1.76,2.09.08,1.28-1.78.6,1.65,1,.7,1.81,2.1,0-.4-.28-.77.41-.57a1.69,1.69,0,0,1,.15-.36l.05,0,0,0c0-.07,0-.08,0,0a1.41,1.41,0,0,1-.34-.62,1.5,1.5,0,0,1,.88-.85,2.34,2.34,0,0,0,.56-.53c.21.2-.16.47-.09.9.13-.24.26-.48.42-.72-.09.9.11,1.49-.36,2l.27,0c0,.5,0,.7.35.33,0,.19.93-1,.37-.3a9.66,9.66,0,0,1,.88-.55l-.18.22a2.39,2.39,0,0,0,.89-.33c.3,0,.54.39-.47,1.4.23,0,.51.06.25.47l-.78.37c.14,0-.06.23-.18.36s-.19.21.22.18c-.53.13-.82.21-1,.26s-.11,0-.13.09a2.57,2.57,0,0,0,0,.55,5.65,5.65,0,0,1,.23,2.05l1,0a4.55,4.55,0,0,0,.64,2.23l.9-.05c.73.75-.64,1.92-.55,3.1-.34-.08-.25-.38,0-.59-2,1.41,1.47,3,0,4.26a.46.46,0,0,1,0,.77s0-.05,0-.08a.28.28,0,0,0,0,.13,5.11,5.11,0,0,0-.48.45,1.9,1.9,0,0,0,.48-.38,2.46,2.46,0,0,0,.35,1l-1,.16a.41.41,0,0,0,0,.08c-.36.36.45.29,1.18.1a2.29,2.29,0,0,0,.58.48c-1.56.29.52,1-1.14,1.36.81.24.61,1.84,2.31,2-.22,0-.32.12-.34-.08-.19.41-.39.82.09,1.18l-1.22.18,1.65.89a1.61,1.61,0,0,1-2.13.23c1.45,1.29.55,1.05,2,2.15l-.8-.05c0,.39,1.1,1,.44,1.26-1.5.88-.21,4.36-1.61,6.63,2.34-.44-1,1.05.77,1.14-.55.13-.87.44-1.35.08.55,1.15-.87,1.73.65,2.53-.55.13-.8-.25-1.13-.13a1.28,1.28,0,0,1,.24.23c.07.09.07.09-.09.12a.94.94,0,0,1-.39,0l-.15,0-.16-.14c0,.19,0,.16.1.21l.24.1c.2.07.47.14.79.22.63.16,1.45.32,2.25.48-.75.29-.65.39.4,1.06-.52,0-1.07,0-1.26-.52a2.91,2.91,0,0,0-.25.71c0,.31.13.7.77,1.13-.33-.12-.1.3.05.49a2.45,2.45,0,0,0-.07,1.2l.21,0a3.56,3.56,0,0,1,.79,1.08c-.15.07-.83-.39-1.07-.27l-.12-.15c-1.07-.56-1-.43-1.09-.31s-.15.2-1.06-.43l.6,1c.54,1,0,.73-.57.26s-1.15-1.08-1.38-.69l.41.55c-.1.35-.61-.35-1-1.17s-.59-1.77-.69-1.89.06-.29.1-.43c-.14-.3-.18-.37-.21-.31s-.1.27-.1.52c0,.51,0,1.2-.48,1.34-.19-.67.25-1.72-.44-1.85-.35-.55-2,2.2-3,.9.21.53.42,1.05-.06,1.44-.73.19-2-2-2.64-.33a.78.78,0,0,1-.14-.41c-.56.43-1.82.71-2.15,1.6C221,327.11,218,332,218.05,329l-1.73.16.05-.31c-1.1-.2-1.49.53-1.88,1.26-.25-.21-.07-.49-.05-.65-1.61-.62-1.77-.49-3.12,1l-.14-1c-.36.58-2.32-1.55-3.9-.39a.82.82,0,0,1,.17-.45,1.28,1.28,0,0,1-.69.22,1.1,1.1,0,0,1-.61-.1,2.46,2.46,0,0,1-.56-.61c-.3-.38-.4-.45-1.47,1.35-.37.3-.79.59-1.24.89.43.14.2.53-.18,1s-.93.91-.81,1.21c-.36.1-.57-.17-.54-.49a.93.93,0,0,1,.63-.79l0,.18c.73-.94.5-1.1.24-1.2s-.6-.1,0-.74h-.4a10.89,10.89,0,0,1,.51-2.6c.12-.37.23-.74.34-1.1a4.64,4.64,0,0,0,.12-.47l0-.22c0-.05,0-.05,0-.14v-.24c-.49.1-1,.23-1.46.31l.08-1c.34-.26,1.15-.34,1.09.35.83-.36-.7-1.16-1-1.18.6-1.37,1.71.53,1.75.11l-.11-.57-.18.13c-.59-.46-1.23-.5-1.15-1.34.29-.52.9-.27,1-.48.11,0,.16-.06,0-.31l.12-1.23-1.15.49c-.57-.55.06-1.16-1.25-.59,2-.83.72-4.58,1.35-5.09a2.47,2.47,0,0,1-.73-2.45c-.24.23-1.54.37-1.38-.43,2.68.29,1.17-1.47,3.09-2.12-1.27.58-.31-2.29-2.13-1.38.22-.67,1,0,1.64-.55-1-1.6.67-3.52.32-5.49-.35,0-.89.3-1.41-.13l1.76-1c-.18-.39-2-.36-.81-1.07-.3.1-.74.25-.86,0,1.72-3.87-1.4-7.9,1.82-11.83-.68.53-.75.18-.78-.23-.16.27-.86,0-1.34,0l1.32-1.64c-1.32-.3-.09-1.77-1.35-1.94l.23.52c-1.5-.69-3.32,1-5.24.87,1.7.78-2.51,2-.08,3.32-.39.28-.62-.24-1.06-.09.82.32,1,.71.62,1.43l-.2-.08c.2,2-.61,2.89-1.15,5.17l1-.17c-.13.49-.43.6-.66.82,1.43.57.08-1.37,1.66-.86-1.93.65,0,3.45-2.22,3.89,0,.75,1.1-.22,1.08.53l-.59.2.77.19c-.13.5-.87.75-1.37.76.06-.12-.14-.34-.19-.46-.7.64.24,1.8,0,2l.37-.72c.55,2-.22,4.56,1,6.54l.45-.15c.82,1.52-.49,1.22-.11,2.88l-.11-.06a1.35,1.35,0,0,1,.62,1.23c-.52-.42-1,.8-1.59.24.88,1.65.69.82,2.35,1.9l-.74.25c.67.37,1,.4,1.22,1.23-.64-.68-1.13.54-2-.23-1.62,1.75,1.64,2.59-.74,3.39,2.06.8,1.14-1.51,1.58-1.06.67-.37,1.54.66,1.33,1.21-.05.56-2.63,1-2.59,2.35,0-.14-.14-.15-.13-.29-.53.52.71,1-.15,1.67,1.25.36-.07.84,1.52.94l-.37-1.29c.41.73,2.27,1.42,1.37,2.62a2.9,2.9,0,0,1-1-.7c-.46.38.31.62-.16,1.09-1.59-.2-.35-1.59-1.56-2.39-.67.37,1.15,1.48-.57,1.08,1.1.28,1,.63.89,1a1.53,1.53,0,0,0,.5,1.87l-.94.05c.14.22.59.61.57,1a10.86,10.86,0,0,1-1.23-.53c.52.54.29,1.16,0,1.87s-.63,1.49-.35,2c0-1.32.27-1.57.65-1.66a1.42,1.42,0,0,0,1.19-.67c.63,1.15,0,1.75-.71,2.63a4.41,4.41,0,0,0-1.32,3.65c-.13-.43.57-2.23,1-1.77a11.74,11.74,0,0,1-1.06,2.78c.1,1.15.35.82.64.3s.63-1.21.92-1c-.89,1.37-.13,1.06.43,1a5.43,5.43,0,0,1,1-.42l-.91,1c2,.62,2.38-2,3.81-1.26-.6.44-1.24.89-1.91,1.33l1.42-.34-1,1.1c1.91-.82,2.09-.61,3.26-.3a2.31,2.31,0,0,1,2-1.78c.5.57-.72.92.82.78-.48.6-1.18,1.36-1.55.47-.19.32-.59.61-.8.92.62.66,2.19.15,2.78.14a1.06,1.06,0,0,1-.61-.23c.92-.44,1.76-.89,2.52-1.33.32.36,0,.65-.27.94a2.51,2.51,0,0,0,.68-.33l.34-.19a1.1,1.1,0,0,1,.29-.12c-.06.4-.08.79-.16,1.14a1.22,1.22,0,0,1-.21.48,1.63,1.63,0,0,1-.63.35l.62-.22a3,3,0,0,0,.37-.22l.7-.43c.09.34.72.93.53,1.22.78.46,1.9-1.52,2.93-.91a.72.72,0,0,1,.37-.41c1,.18,1.82,1.14,3,.06l.65,1.41c.9-.32-.87-1.77.62-2.3,1.05-.45.39,1.2.76,1.59.52-.71,1.43-2.15,2.4-1C218.19,337.86,217.94,337.65,217.64,337.75Zm11-.62c-.22.2-.64.83-.8.26C228.12,336.28,228.31,336.81,228.68,337.13Zm11.58-11.49c.32.22.16.55-.2.84A.87.87,0,0,1,240.26,325.64ZM231.75,288l0,0C231.8,288.33,231.8,288.18,231.75,288Zm-.28-.42a1.09,1.09,0,0,0-.13.41c.09-.25.2-.26.28-.2C231.68,287.54,231.67,287.37,231.47,287.58ZM202.42,321l-.25.2C201.89,320.77,202.14,320.89,202.42,321Z"/><path class="cls-1" d="M241.58,328.46a1.34,1.34,0,0,1-.52,0C241.22,328.59,241.41,328.66,241.58,328.46Z"/><path class="cls-1" d="M210.78,338.26h0a1.36,1.36,0,0,0,0,.17Z"/><path class="cls-1" d="M242.14,293.14a1,1,0,0,1-.49.4A.43.43,0,0,0,242.14,293.14Z"/><path class="cls-1" d="M227.43,289.22l.63-.25c-.31,0-.42-.16-.57-.31C227.5,288.88,227.63,289.21,227.43,289.22Z"/><path class="cls-1" d="M221.92,283.25c-.09.12-.2,0-.29.14l0,.44C222.05,283.8,222.33,283.44,221.92,283.25Z"/><path class="cls-1" d="M226.84,286c-.05-.81-.45-.54-.89-.39H226C225.89,286.77,226.37,286.39,226.84,286Z"/><path class="cls-1" d="M225.84,285.66a.71.71,0,0,1-.41,0C225.38,286.13,225.6,285.77,225.84,285.66Z"/><path class="cls-1" d="M230.84,288.12c-.06-.21-.15,1-.15.71-.07.52,0,.2.16-.17S231.11,287.85,230.84,288.12Z"/><polygon class="cls-1" points="226.48 283.34 226.64 284.35 226.89 283.54 226.48 283.34"/><path class="cls-1" d="M230,284.08l-.71-.28a.36.36,0,0,1-.19.34C229.53,284.18,230,284.38,230,284.08Z"/><path class="cls-1" d="M229.09,284.14a.61.61,0,0,0-.57.17A1.21,1.21,0,0,0,229.09,284.14Z"/><polygon class="cls-1" points="227.45 283.04 227.66 283.25 228.16 283.32 227.45 283.04"/><path class="cls-1" d="M236.76,284.27l.73-.22.07.11a1.17,1.17,0,0,0,.45-.63.6.6,0,0,0-.26,0C237.34,283.81,237,283.94,236.76,284.27Z"/><path class="cls-1" d="M236.4,281.53c.13.21,0,.43-.08.76l.85-1.24Z"/><path class="cls-1" d="M239.45,281.24c.39-.35,2.47-1,1-.91C240,280.67,238.79,281,239.45,281.24Z"/><polygon class="cls-1" points="238.74 294.34 238.72 294.14 236.69 294.17 238.74 294.34"/><path class="cls-1" d="M243.61,304.63c.49-.92-1.26-.22-.65-1.05-.48-.21-.49.68-.91.46C242.56,304.6,242.27,304.89,243.61,304.63Z"/><path class="cls-1" d="M242.05,304a2.22,2.22,0,0,0-.31-.28A1.17,1.17,0,0,0,242.05,304Z"/><polygon class="cls-1" points="203.45 284.97 203.88 284.38 203.19 284.76 203.45 284.97"/><path class="cls-1" d="M201.94,283.83l1.3-.14-1.18-.35C202.12,283.47,202.23,283.73,201.94,283.83Z"/><path class="cls-1" d="M230.32,339.75l0-.32c-.09-.33-.23-.36-.51-.41Z"/><polygon class="cls-1" points="222.31 338.77 222.44 338.8 222.19 337.63 222.31 338.77"/><path class="cls-1" d="M215.59,340.27c.27.05.59-.21.87-.16C215.86,340.32,215.51,338.81,215.59,340.27Z"/><path class="cls-1" d="M198.76,389c-.26-.07-.17.76-.21.91C199,389.71,198.75,388.76,198.76,389Z"/><polygon class="cls-1" points="203.1 387.08 203.03 387.42 203.67 386.58 203.1 387.08"/><path class="cls-1" d="M207.16,387.09c-.38-1.43-1.47.23-2.19-.28l-.12-.32-.33,1.15C205.4,387.46,206.54,386.69,207.16,387.09Z"/><path class="cls-1" d="M209.33,390.18c-.14-.56.47-.48-.51-.17l.1.14A1.32,1.32,0,0,1,209.33,390.18Z"/><path class="cls-1" d="M208.92,390.15c-.43,0,.27.46,0,0Z"/><path class="cls-1" d="M210.89,389.83l-.56.49c.11.33.62.41.43.65C211.34,390.69,211.22,390.37,210.89,389.83Z"/><path class="cls-1" d="M211.42,388.79l-.29.21C211.18,389.13,211.26,389.18,211.42,388.79Z"/><path class="cls-1" d="M210.51,389.44l.62-.44c-.08-.23-.09-.7-.28.16C210.9,388.73,210.78,389.14,210.51,389.44Z"/><path class="cls-1" d="M210.16,389.22c-.31-.31-.72-.5-.16-1C208.93,388.42,209.08,389.42,210.16,389.22Z"/><path class="cls-1" d="M207.37,385.62l-.42-.42-.37.48C206.77,385.44,207.4,386.06,207.37,385.62Z"/><path class="cls-1" d="M214.4,390.57a9.25,9.25,0,0,0-.23-1.2l-.42.35C214,389.93,214.37,390.12,214.4,390.57Z"/><path class="cls-1" d="M214.17,389.37l.62-.52C214.23,388.79,214.13,389,214.17,389.37Z"/><polygon class="cls-1" points="211.52 387.2 210.5 388.3 211.72 387.19 211.52 387.2"/><polygon class="cls-1" points="216.78 390.61 216.42 391.31 217.05 390.25 216.78 390.61"/><path class="cls-1" d="M218.35,390.48c-.26.58.36,1,.08,1.35.43-.11.8-.61,1.13-1.06C219.21,391,218.83,391,218.35,390.48Z"/><path class="cls-1" d="M220.11,390.12a3.86,3.86,0,0,0-.55.65A2,2,0,0,0,220.11,390.12Z"/><path class="cls-1" d="M215.85,389a1.37,1.37,0,0,0,.49.87l-.25-.86Z"/><path class="cls-1" d="M216.09,389v0l.53.05Z"/><path class="cls-1" d="M215.79,389h.06C215.83,388.91,215.81,388.89,215.79,389Z"/><path class="cls-1" d="M213.16,388c.36-.48,1.12-1,.39-1.72C213.28,386.84,213.71,387.26,213.16,388Z"/><path class="cls-1" d="M215.48,387.93l-.66-.2c0,.23.13.56,0,.79Z"/><polygon class="cls-1" points="215.81 387.65 215.48 387.93 215.73 388 215.81 387.65"/><path class="cls-1" d="M219,389.32a1.22,1.22,0,0,1,1-.46,2.82,2.82,0,0,0-1.14-.26C218.74,388.87,218.57,389.35,219,389.32Z"/><path class="cls-1" d="M217.57,389.08l.07-.05C217.6,389,217.57,388.94,217.57,389.08Z"/><path class="cls-1" d="M223.4,388.86c0-.05,0-.1-.05-.15l0,.14Z"/><path class="cls-1" d="M218.72,388.44c-.28-.17-.45,0-.61.31a1.93,1.93,0,0,1,.68-.15C218.81,388.48,218.82,388.4,218.72,388.44Z"/><path class="cls-1" d="M221.08,389.72a3.61,3.61,0,0,0-.49-.47C220.73,389.52,221,389.94,221.08,389.72Z"/><path class="cls-1" d="M217.73,389.27l0,0C217.78,389.49,217.77,389.4,217.73,389.27Z"/><path class="cls-1" d="M217.73,389.27a2.33,2.33,0,0,0,.38-.52,1.4,1.4,0,0,0-.47.28A1.1,1.1,0,0,1,217.73,389.27Z"/><path class="cls-1" d="M224.45,383.37c0,.8-.79,1.53-1.44.68-.63.59-.22,3.2.34,4.66a1.24,1.24,0,0,1,.67-1.14c-.23-.43-1.45-1-.9-1.73.87-.4.71.28,1.13.7-.36-1,1.1-1.43.91-2.88l-.76.51C224.39,383.94,224.67,383.58,224.45,383.37Z"/><path class="cls-1" d="M222.1,388.62l-.27.1c.31.14.53.46.93,1.08a1.37,1.37,0,0,0,.57-.95l-1.32-.11Z"/><path class="cls-1" d="M220.63,388.73c.21-.87.85-1.23.46-2.17-.79.06-.56.72-1,1.1,1.27-.22-.36.48.56,1a2.15,2.15,0,0,1-.69.23,3.18,3.18,0,0,1,.66.39l0-.06h0v0c-.05-.1-.07-.17,0-.11h0a1.61,1.61,0,0,1,.06-.33c.36.18.05.22-.06.33a.5.5,0,0,0,0,.12h0l1.27-.47A2.16,2.16,0,0,0,220.63,388.73Z"/><path class="cls-1" d="M214.23,384.4a.54.54,0,0,1,0,.2C214.35,384.5,214.38,384.43,214.23,384.4Z"/><path class="cls-1" d="M214.75,384.92c-.09.12-.17.47-.47.38-.26-.26,0-.41,0-.7-.18.23-.64.62-.07,1l.09-.12a2.92,2.92,0,0,1,1.08,1.49A8.6,8.6,0,0,0,214.75,384.92Z"/><path class="cls-1" d="M217.73,386.61l1.06-.43-.54-.74,0,.44C217.67,385.71,217.8,386.26,217.73,386.61Z"/><polygon class="cls-1" points="223.52 389.29 223.38 390.2 224 388.92 223.52 389.29"/><polygon class="cls-1" points="224.9 389.18 224.85 389.97 225.22 389.5 224.9 389.18"/><path class="cls-1" d="M223.05,438.27l-.31.23A.89.89,0,0,0,223.05,438.27Z"/><path class="cls-1" d="M225.31,438.33l.06-.39C225.26,438.15,225.22,438.31,225.31,438.33Z"/><path class="cls-1" d="M233.23,404.7c-.74.45-1.89,1-1,.91l.87-.14A.63.63,0,0,1,233.23,404.7Z"/><path class="cls-1" d="M238.41,428l.26-.07c-.3-.2-.57-.36-.83-.51C238,427.56,238.21,427.75,238.41,428Z"/><path class="cls-1" d="M242,429.42c-.19.24-.37.47-.56.68A1.67,1.67,0,0,0,242,429.42Z"/><path class="cls-1" d="M210.71,439.19l-.36.89C210.92,440.07,210.67,439.63,210.71,439.19Z"/><path class="cls-1" d="M233.46,389.18a4.81,4.81,0,0,0-.53.78C233.43,389.44,234.18,388.59,233.46,389.18Z"/><path class="cls-1" d="M223.94,429.07a.64.64,0,0,0-.27.52A.51.51,0,0,0,223.94,429.07Z"/><path class="cls-1" d="M232.94,390.31l.2-.19c-.14,0-.26,0-.21-.16C232.56,390.36,232.33,390.57,232.94,390.31Z"/><path class="cls-1" d="M193.6,400.94s.06-.08.11-.1C193.59,400.83,193.58,400.87,193.6,400.94Z"/><path class="cls-1" d="M202.36,387.9a2.06,2.06,0,0,1,.06.54C202.48,388.34,202.48,388.18,202.36,387.9Z"/><path class="cls-1" d="M230.46,389.56c-.3.06-.05.09,0,0Z"/><path class="cls-1" d="M229,386.13a.75.75,0,0,0,.12-.42A1,1,0,0,1,229,386.13Z"/><path class="cls-1" d="M238.34,389.93v0C238.5,389.83,238.47,389.85,238.34,389.93Z"/><path class="cls-1" d="M230,389.16a1.18,1.18,0,0,0,.37.26A1.63,1.63,0,0,0,230,389.16Z"/><path class="cls-1" d="M230.08,389.57l-.26-.08C229.78,389.64,229.82,389.73,230.08,389.57Z"/><path class="cls-1" d="M230.6,389.51a.09.09,0,0,1-.07,0s0-.05-.14-.08c.06.06.08.11.07.14S230.53,389.53,230.6,389.51Z"/><path class="cls-1" d="M195.92,424.91l.09-.06C195.65,424.55,195.7,424.68,195.92,424.91Z"/><path class="cls-1" d="M242.24,412.32s0,0,0,0l0,.05Z"/><path class="cls-1" d="M242.88,413.37c-1.08-.45-.94-.7-.71-1l-2.51.34Z"/><path class="cls-1" d="M217.64,438.52l.74.78c-.89,1.29-1.54.85-.84,1.94.1-2.72,2.87-.28,3-3l.49.57c-.14,0-.17.13-.3.11.94,1.3.7-2,1.92-1.58.42.21.72.6.43.92l.95-.67c.27.06.21.53-.07.48l1.45-.22v.08a8.34,8.34,0,0,1,.9-1.37c.36.39-.19.29-.09.63l.8-.66a.91.91,0,0,1-.89,1.29c.74,2.71.66-.68,2.27.9l-.75.34c.48,1.54,1.07,1,1.93,1.95-.21-.5-1.71-2.42-.84-3.1.24.2.56.3,1-.24,0,.48.12.66.31.72a4.09,4.09,0,0,0,.9,0l0,1.28c1.09-.37.93-1,1.43-1.6,1.1.13,1.59,1.12,2.12,2,1.06.11.56-.29.14-.74s-.78-1,.22-1.09a3.78,3.78,0,0,0,3.7-.8c1.3.45.38.79,1,1.15a7.11,7.11,0,0,0,.13-1c.23,0,.42.34.51.5.41-.4-.95-1.28-.21-1.63-.43-.61.24-.29,1.21.12.54-.13,1.23-.59.34-2.06.36-.06.78.77,1.28,1.06-.53-1.42-.72-1.93-1-2.45a13.59,13.59,0,0,0-1.22-2.08,11.09,11.09,0,0,0,.84-.84c-.48.27-1-.05-1.53-.52s-1-1.11-1.5-1.61c-.47.11-.87.16-1.07.21-.22-.43-.45-.82-.68-1.18a2,2,0,0,1,1.18.39,3.25,3.25,0,0,0-.3-.26c.47-.3,1.21,0,1.92.48a6.74,6.74,0,0,1-.79.29,8.93,8.93,0,0,0,2.39,1.29,1.57,1.57,0,0,1-.35-.62,1,1,0,0,0,.53.27c.13,0-.15-.28-.47-.61.47,0,.95,0,1.42-.07l-.57-.2c.3-.67.6-1.46.9-2.2-1.44-1.1-3.55-2.06-4.14-3.81,1.05.44,1.71.09,3,.12-1.31.48.55,1.35.29,2.26.14-.48.73-.37.93-.25l-1.19-1.62c1,0,.76-.34,1.18-.76-2,.32-1.34-1.21-1.95-1.86.67,0,1.36.11,1.2.92,1.5-.89-2.36-1.15-1.07-2,0,.2-.09.31.25.38-.6-.45-.12-1.57.46-1.31l0,.2c.23-1.3,0-4-1.69-4.15.22,0,2.05.17,2.39.24l-5.72-2.31c1.46.2,4.94-.58,5.77.49a1,1,0,0,0-.07-1.34c-.21.21-2.11.52-2.24.24,1.62-.8.87-.55,2.25-1.53-.31.32-2.6,0-2.53-.54a18.06,18.06,0,0,1,2.5.15L239.86,408a3.89,3.89,0,0,0,2.54-.22c-.44.13,0-1.08-.18-1.41l-.52.53c.34-1.41-3.16-1.39-3-2.79.46.17,2.86.42,3.14-.29-1.15-.32-5.54-1.44-6.43-2.67l.66-.24-.75-.94a45.52,45.52,0,0,1,6.8,3.14c.52-.52.78-.14.72-.93.61-.28.93.43,1,.66l.4-1.83c-1.35.08-1.35-1.41-2.47-1.34l1.39,2c-1.34.08-3.81-1.16-3.58-2.46.54-.33,2.4.25,2.84.22-.46-.16-.88-1.23-.55-1.35l.72.55c.5-.72-1.78-1.18-.5-2.05.08-.3,1.73-.89.93-.94a23,23,0,0,1-7.43.25,11.35,11.35,0,0,1,2.23-1.91c1.2-.5,2.86.74,3.9.32a2.09,2.09,0,0,1-1-.41c.31-.31,1.14.13,1-.55-1.36-.12.12-1.39-1.15-.32a.59.59,0,0,1,0-.71,1.25,1.25,0,0,0,.23-.89,3.09,3.09,0,0,1-1.88-.3,4.31,4.31,0,0,1-1.51-.79,2.92,2.92,0,0,0,1-.41c.12-1.39.74-2.49.75-3.95.33-.34.73-1.39,1.32-1.51-.24-.06-.7.1-.74-.34,1.18-2,.19,1,1.6-.93-.77.54-1.08-.41-1.55-.6l-.08,0a.63.63,0,0,0-.11.15c-1,1.24-.06,1.47.41,1.82a9.05,9.05,0,0,1-3.87,1.64,7.81,7.81,0,0,1-.7.36c-1.08.42.63-1.09.29-.85-.68-.15-1.56.59-2.17,1.21s-1,1.13-1.19.52a4.4,4.4,0,0,1,.44-1.57,8.85,8.85,0,0,0,.61-1.35c1-.4.9.69,1.39.64a4.91,4.91,0,0,0-.34-.5c.44-.36,1.21-.63,1.3-.32.08-.48-.78-.53-1.77-.57a6.75,6.75,0,0,1-2.9-.51c-.33.36-.79.73-.57,1.17l.47-.15a.91.91,0,0,1-.23,1c-.19.24-.32.43-.09.63-.58.61-1.37,1.57-2.27,1.08l-.17-1.23c0,.36.6.73.86.36-.39.54-1.42-1.66-1.84-.06l.65.85c-.66.62-1.47,1.92-2.29,1.54.38,1.21.19-.14.77,1.27-.5-1.76,2.09.08,1.28-1.77.6,1.64,1,.69,1.81,2.09,0-.4-.28-.77.41-.57a1.69,1.69,0,0,1,.15-.36l.05,0,0,0c0-.06,0-.08,0,0a1.41,1.41,0,0,1-.34-.62,1.53,1.53,0,0,1,.88-.85,2.3,2.3,0,0,0,.56-.52c.21.19-.16.46-.09.89.13-.24.26-.48.42-.72-.09.9.11,1.49-.36,2l.27,0c0,.5,0,.7.35.33,0,.19.93-1,.37-.29a7.88,7.88,0,0,1,.88-.56l-.18.22c.14,0,.5-.15.89-.33.3,0,.54.39-.47,1.41.23,0,.51.05.25.46l-.78.37c.14,0-.06.23-.18.36s-.19.21.22.18c-.53.13-.82.21-1,.26s-.11,0-.13.09a2.57,2.57,0,0,0,0,.55,5.65,5.65,0,0,1,.23,2.05l1,0a4.61,4.61,0,0,0,.64,2.24l.9-.06c.73.75-.64,1.92-.55,3.1-.34-.08-.25-.38,0-.59-2,1.41,1.47,3,0,4.26a.46.46,0,0,1,0,.77s0-.05,0-.08a.32.32,0,0,0,0,.14,5,5,0,0,0-.48.44,2.16,2.16,0,0,0,.48-.37,2.48,2.48,0,0,0,.35,1l-1,.16a.26.26,0,0,0,0,.08c-.36.36.45.29,1.18.1a2.29,2.29,0,0,0,.58.48c-1.56.29.52,1-1.14,1.36.81.25.61,1.84,2.31,2-.22,0-.32.12-.34-.07-.19.4-.39.81.09,1.18l-1.22.17,1.65.89a1.61,1.61,0,0,1-2.13.23c1.45,1.29.55,1.05,2,2.15l-.8-.05c0,.39,1.1,1,.44,1.26-1.5.88-.21,4.36-1.61,6.63,2.34-.44-1,1,.77,1.14-.55.13-.87.45-1.35.08.55,1.15-.87,1.73.65,2.53-.55.13-.8-.24-1.13-.13a1.09,1.09,0,0,1,.24.24c.07.08.07.08-.09.11a.94.94,0,0,1-.39,0l-.15,0-.16-.14c0,.19,0,.16.1.21a1.45,1.45,0,0,0,.24.1c.2.07.47.14.79.22.63.16,1.45.32,2.25.48-.75.29-.65.39.4,1.06-.52,0-1.07,0-1.26-.52a3.08,3.08,0,0,0-.25.71c0,.31.13.7.77,1.13-.33-.12-.1.3.05.49a2.46,2.46,0,0,0-.07,1.2l.21,0a3.45,3.45,0,0,1,.79,1.07c-.15.07-.83-.38-1.07-.26l-.12-.16c-1.07-.56-1-.43-1.09-.31s-.15.21-1.06-.43l.6,1c.54,1,0,.73-.57.26s-1.15-1.08-1.38-.69l.41.55c-.1.35-.61-.35-1-1.17s-.59-1.76-.69-1.89.06-.29.1-.42c-.14-.31-.18-.38-.21-.32s-.1.27-.1.52c0,.51,0,1.2-.48,1.34-.19-.67.25-1.72-.44-1.85-.35-.54-2,2.2-3,.91.21.52.42,1-.06,1.43-.73.19-2-2-2.64-.33a.78.78,0,0,1-.14-.41c-.56.43-1.82.71-2.15,1.6-.52-3.31-3.49,1.61-3.47-1.44l-1.73.16.05-.31c-1.1-.2-1.49.53-1.88,1.26-.25-.2-.07-.49-.05-.65-1.61-.62-1.77-.49-3.12,1l-.14-1c-.36.57-2.32-1.56-3.9-.4a.82.82,0,0,1,.17-.45,1.38,1.38,0,0,1-.69.23,1.18,1.18,0,0,1-.61-.11,2.43,2.43,0,0,1-.56-.6c-.3-.39-.4-.46-1.47,1.34a14.18,14.18,0,0,1-1.24.89c.43.14.2.53-.18,1s-.93.9-.81,1.2c-.36.1-.57-.17-.54-.49a.93.93,0,0,1,.63-.79l0,.18c.73-.94.5-1.1.24-1.19s-.6-.11,0-.75h-.4a10.89,10.89,0,0,1,.51-2.6c.12-.37.23-.74.34-1.1a4.64,4.64,0,0,0,.12-.47l0-.22s0,0,0-.13v-.25c-.49.1-1,.23-1.46.31l.08-1c.34-.25,1.15-.34,1.09.35.83-.36-.7-1.16-1-1.18.6-1.36,1.71.53,1.75.11l-.11-.57-.18.13c-.59-.46-1.23-.5-1.15-1.33.29-.53.9-.28,1-.48.11,0,.16-.07,0-.32l.12-1.23-1.15.49c-.57-.54.06-1.15-1.25-.59,2-.83.72-4.58,1.35-5.09a2.46,2.46,0,0,1-.73-2.45c-.24.23-1.54.37-1.38-.43,2.68.29,1.17-1.47,3.09-2.12-1.27.58-.31-2.29-2.13-1.38.22-.67,1,0,1.64-.55-1-1.59.67-3.52.32-5.49-.35,0-.89.3-1.41-.12l1.76-1.05c-.18-.39-2-.35-.81-1.07-.3.1-.74.25-.86,0,1.72-3.86-1.4-7.9,1.82-11.83-.68.54-.75.18-.78-.22-.16.26-.86,0-1.34,0l1.32-1.64c-1.32-.3-.09-1.77-1.35-1.94l.23.52c-1.5-.69-3.32,1-5.24.87,1.7.78-2.51,2-.08,3.32-.39.28-.62-.24-1.06-.09.82.32,1,.71.62,1.43l-.2-.08c.2,2-.61,2.9-1.15,5.17l1-.17c-.13.49-.43.6-.66.83,1.43.56.08-1.38,1.66-.87-1.93.65,0,3.45-2.22,3.89,0,.76,1.1-.22,1.08.53l-.59.2.77.19c-.13.5-.87.75-1.37.77.06-.12-.14-.35-.19-.47-.7.64.24,1.8,0,2l.37-.72c.55,2.05-.22,4.56,1,6.55l.45-.16c.82,1.52-.49,1.22-.11,2.88l-.11-.06a1.37,1.37,0,0,1,.62,1.24c-.52-.42-1,.79-1.59.24.88,1.64.69.81,2.35,1.89l-.74.25c.67.37,1,.41,1.22,1.24-.64-.69-1.13.53-2-.24-1.62,1.75,1.64,2.59-.74,3.39,2.06.8,1.14-1.51,1.58-1.06.67-.37,1.54.66,1.33,1.21-.05.56-2.63.95-2.59,2.35,0-.14-.14-.15-.13-.29-.53.53.71,1-.15,1.67,1.25.36-.07.84,1.52.94l-.37-1.28c.41.72,2.27,1.41,1.37,2.61a2.77,2.77,0,0,1-1-.7c-.46.38.31.63-.16,1.09-1.59-.2-.35-1.59-1.56-2.39-.67.38,1.15,1.48-.57,1.08,1.1.29,1,.63.89,1a1.53,1.53,0,0,0,.5,1.87l-.94.05c.14.22.59.61.57,1a11,11,0,0,1-1.23-.54c.52.54.29,1.16,0,1.87s-.63,1.49-.35,2c0-1.32.27-1.56.65-1.66a1.42,1.42,0,0,0,1.19-.67c.63,1.15,0,1.75-.71,2.63a4.41,4.41,0,0,0-1.32,3.65c-.13-.43.57-2.23,1-1.77a11.74,11.74,0,0,1-1.06,2.78c.1,1.15.35.82.64.3s.63-1.21.92-1c-.89,1.37-.13,1.06.43,1a5.34,5.34,0,0,1,1-.41l-.91,1c2,.62,2.38-2,3.81-1.26-.6.44-1.24.89-1.91,1.34l1.42-.35-1,1.1c1.91-.82,2.09-.61,3.26-.3a2.31,2.31,0,0,1,2-1.78c.5.57-.72.92.82.78-.48.6-1.18,1.36-1.55.47-.19.32-.59.61-.8.92.62.66,2.19.15,2.78.14a1.13,1.13,0,0,1-.61-.22c.92-.45,1.76-.9,2.52-1.34.32.36,0,.65-.27.94a2.51,2.51,0,0,0,.68-.33l.34-.19a.83.83,0,0,1,.29-.11c-.06.39-.08.79-.16,1.13a1.16,1.16,0,0,1-.21.48,1.63,1.63,0,0,1-.63.35l.62-.22a2.13,2.13,0,0,0,.37-.22l.7-.43c.09.34.72.94.53,1.22.78.47,1.9-1.52,2.93-.91a.72.72,0,0,1,.37-.41c1,.18,1.82,1.14,3,.07l.65,1.4c.9-.32-.87-1.77.62-2.3,1.05-.45.39,1.2.76,1.59.52-.71,1.43-2.15,2.4-1C218.19,438.63,217.94,438.42,217.64,438.52Zm11-.62c-.22.2-.64.83-.8.26C228.12,437.05,228.31,437.58,228.68,437.9Zm11.58-11.49c.32.23.16.55-.2.84A.87.87,0,0,1,240.26,426.41Zm-8.51-37.64,0,0C231.8,389.1,231.8,389,231.75,388.77Zm-.28-.41a1,1,0,0,0-.13.4c.09-.25.2-.26.28-.19C231.68,388.31,231.67,388.14,231.47,388.36Zm-29.05,33.43-.25.19C201.89,421.54,202.14,421.67,202.42,421.79Z"/><path class="cls-1" d="M241.58,429.23a1.17,1.17,0,0,1-.52,0C241.22,429.36,241.41,429.43,241.58,429.23Z"/><path class="cls-1" d="M210.78,439h0a1.36,1.36,0,0,0,0,.17Z"/><path class="cls-1" d="M242.14,393.91a1,1,0,0,1-.49.4A.43.43,0,0,0,242.14,393.91Z"/><path class="cls-1" d="M227.43,390l.63-.25c-.31.05-.42-.16-.57-.31C227.5,389.65,227.63,390,227.43,390Z"/><path class="cls-1" d="M221.92,384c-.09.12-.2,0-.29.14l0,.45C222.05,384.58,222.33,384.21,221.92,384Z"/><path class="cls-1" d="M226.84,386.79c-.05-.81-.45-.54-.89-.39H226C225.89,387.54,226.37,387.16,226.84,386.79Z"/><path class="cls-1" d="M225.84,386.43a.71.71,0,0,1-.41,0C225.38,386.91,225.6,386.55,225.84,386.43Z"/><path class="cls-1" d="M230.84,388.89c-.06-.21-.15,1-.15.71-.07.52,0,.2.16-.17S231.11,388.62,230.84,388.89Z"/><polygon class="cls-1" points="226.48 384.12 226.64 385.12 226.89 384.31 226.48 384.12"/><path class="cls-1" d="M230,384.85l-.71-.28a.36.36,0,0,1-.19.34C229.53,385,230,385.15,230,384.85Z"/><path class="cls-1" d="M229.09,384.91a.64.64,0,0,0-.57.17A1.21,1.21,0,0,0,229.09,384.91Z"/><polygon class="cls-1" points="227.45 383.81 227.66 384.02 228.16 384.1 227.45 383.81"/><path class="cls-1" d="M236.76,385l.73-.21.07.1a1.19,1.19,0,0,0,.45-.62.44.44,0,0,0-.26,0C237.34,384.58,237,384.71,236.76,385Z"/><path class="cls-1" d="M236.4,382.3c.13.21,0,.43-.08.76l.85-1.24Z"/><path class="cls-1" d="M239.45,382c.39-.35,2.47-1,1-.91C240,381.44,238.79,381.73,239.45,382Z"/><polygon class="cls-1" points="238.74 395.11 238.72 394.92 236.69 394.94 238.74 395.11"/><path class="cls-1" d="M243.61,405.4c.49-.91-1.26-.21-.65-1-.48-.22-.49.67-.91.45C242.56,405.37,242.27,405.66,243.61,405.4Z"/><path class="cls-1" d="M242.05,404.81a2.22,2.22,0,0,0-.31-.28A1,1,0,0,0,242.05,404.81Z"/><polygon class="cls-1" points="203.45 385.74 203.88 385.15 203.19 385.53 203.45 385.74"/><path class="cls-1" d="M201.94,384.6l1.3-.14-1.18-.35C202.12,384.24,202.23,384.5,201.94,384.6Z"/><path class="cls-1" d="M230.32,440.52l0-.32c-.09-.33-.23-.36-.51-.41Z"/><polygon class="cls-1" points="222.31 439.55 222.44 439.57 222.19 438.4 222.31 439.55"/><path class="cls-1" d="M215.59,441c.27,0,.59-.21.87-.16C215.86,441.09,215.51,439.58,215.59,441Z"/><path class="cls-1" d="M358.26,513.1h-271l0-1L97.45,226,92.32,86.9h55.1v33.61h47.43V86.9h51.43v33.61h43.06V86.9h55.79V229.81Zm-268.95-2H356.17l-13-281.24V88.9H291.34v33.61H244.28V88.9H196.85v33.61H145.42V88.9h-51l5,137.14Z"/><path class="cls-1" d="M239.21,244.32H197.55V192.9h41.66Zm-39.66-2h37.66V194.9H199.55Z"/><path class="cls-1" d="M239.21,333.75H197.55V282.34h41.66Zm-39.66-2h37.66V284.34H199.55Z"/><path class="cls-1" d="M239.21,434.52H197.55V383.11h41.66Zm-39.66-2h37.66V385.11H199.55Z"/><path class="cls-1" d="M453.14,108.12a1.91,1.91,0,0,0,1.29-.6,1.5,1.5,0,0,1,1.61-.29,8.5,8.5,0,0,1,1.17-1,3.65,3.65,0,0,1,2-.41v1.37a5.51,5.51,0,0,1-.16.93,11.56,11.56,0,0,1-.49,1.53,15.84,15.84,0,0,1-.76,1.7,6.22,6.22,0,0,1-1,1.41,6,6,0,0,0-1.17.12,10.07,10.07,0,0,1-1.81.12,3.71,3.71,0,0,0-1.25.28,4.4,4.4,0,0,0-1.42.85,2.7,2.7,0,0,1-1.57.64,9.4,9.4,0,0,0-2.22.65A2,2,0,0,0,446,116a1.89,1.89,0,0,1-1.2.57,2.34,2.34,0,0,1-1.66.64c-.78.06-1.57.08-2.38.08h-.64c0-.37,0-1,.08-1.93a3.31,3.31,0,0,1,.56-1.94,28.71,28.71,0,0,0,3.39-2,13.24,13.24,0,0,1,3.39-1.74,2.11,2.11,0,0,1,1.45-.52,5.21,5.21,0,0,0,2.09-.61Z"/><path class="cls-1" d="M495.06,88.77a4.51,4.51,0,0,1,3,1.25c.94.84,1.78,1.6,2.54,2.3a5.55,5.55,0,0,0,2,2.9c.33.38.65.78,1,1.21a3.65,3.65,0,0,1,.65,1.53c.21,0,.42.23.64.69a9.69,9.69,0,0,1,.56,1.61c.17.62.3,1.2.41,1.73A6.75,6.75,0,0,1,506,103a9.18,9.18,0,0,1-.4,2.5,22.68,22.68,0,0,1-1,2.74c-.4.92-.84,1.79-1.29,2.62s-.85,1.52-1.17,2.06a2.51,2.51,0,0,1-.85.89l-1,.6a2.7,2.7,0,0,0-.85.77,2.1,2.1,0,0,0-.36,1.29,7.92,7.92,0,0,0,.48,2.34,22.91,22.91,0,0,0,1.21,2.9,22.57,22.57,0,0,0,1.49,2.58,4.28,4.28,0,0,0,1.25,1.37,7.73,7.73,0,0,1,1.73,1.61c.51.65,1.05,1.29,1.62,1.94a13.41,13.41,0,0,0,1.81,1.73,5.07,5.07,0,0,0,2.26,1q.48.16,1.53.6a5,5,0,0,1,1.61,1,1.92,1.92,0,0,1,.53.68,2.93,2.93,0,0,1-.12.85,2,2,0,0,1-1.17,1.29,7.23,7.23,0,0,1-2,.53,13.81,13.81,0,0,1-2,.08,4.24,4.24,0,0,1-1-.12,2.19,2.19,0,0,0-1.49-.49,5.58,5.58,0,0,1-1.5-.16,20,20,0,0,1-3.06-2.1,13.9,13.9,0,0,0-2.1-1.53,7.09,7.09,0,0,1-1.21-.84c-.48-.41-1-.88-1.57-1.42s-1.13-1.1-1.69-1.69-1.09-1.13-1.57-1.61a22.8,22.8,0,0,1-1.66-2.34c-.45-.75-.86-1.46-1.2-2.14s-.69-1.29-1-1.85a5.32,5.32,0,0,0-1.05-1.33,6.63,6.63,0,0,1-1.65-1.21,2.16,2.16,0,0,0-1.66-.56,1.88,1.88,0,0,0-1.49.6,4.08,4.08,0,0,0-.8,1.41,7.27,7.27,0,0,0-.37,1.69c0,.6-.08,1.08-.08,1.46l.89,3.78v1.62a3.41,3.41,0,0,0,1.25,2.9,12.69,12.69,0,0,0,2.7,1.61c1,.43,1.87.85,2.7,1.25a2,2,0,0,1,1.25,1.82,1.18,1.18,0,0,1-.56,1,1.87,1.87,0,0,1-1.05.41h-2.9l-4.52-.65H472.81c-.16,0-.68,0-1.57-.12s-1.83-.21-2.82-.4a12.59,12.59,0,0,1-2.7-.81c-.81-.35-1.21-.82-1.21-1.41a.69.69,0,0,1,.24-.48,5.6,5.6,0,0,1,.56-.49,3.31,3.31,0,0,1,.81-.56,5.59,5.59,0,0,1,.73.08l1,.16,1.21.16h1.61a4,4,0,0,0,2.71-.93,2.6,2.6,0,0,0,1.08-2V108.2l.65-5.8a8.9,8.9,0,0,1-.32-1.94,17.11,17.11,0,0,0-.29-2.13,5,5,0,0,0-.72-1.82,2.49,2.49,0,0,0-1.57-1.05H469a9.63,9.63,0,0,1-1.77-.16,5.46,5.46,0,0,1-1.65-.56,3.32,3.32,0,0,1-1.25-1.13,3.38,3.38,0,0,1-.49-1.94c0-.16.12-.33.37-.52a6.79,6.79,0,0,1,.76-.52,5.19,5.19,0,0,1,1.13-.57l13.63-.64h8.3c.16,0,.46,0,.89-.08a11.73,11.73,0,0,0,1.29-.25l1.69-.32ZM487.41,97l-.73.16a6.65,6.65,0,0,1-.89.28,3.19,3.19,0,0,0-1.05.52,1.53,1.53,0,0,0-1.08.53,2.25,2.25,0,0,0-.53,1.65V106a2.17,2.17,0,0,1-.32,1.16,1.89,1.89,0,0,0-.32,1l.32.16a1.72,1.72,0,0,1,.24.29,1.12,1.12,0,0,1,.08.52,1.79,1.79,0,0,0,.16,1.49,4,4,0,0,0,1.13,1.21,6,6,0,0,0,1.57.81,4.63,4.63,0,0,0,1.42.28l1.45-.65c.43-.16.81-.32,1.17-.48a2.21,2.21,0,0,1,.92-.24l1.62.64a2.27,2.27,0,0,0,1.77-.84,7.27,7.27,0,0,0,1.17-1.94,14.9,14.9,0,0,0,.68-2.09,6.69,6.69,0,0,1,.41-1.33l-.49-2.26a4.86,4.86,0,0,0-.12-1.09,2.59,2.59,0,0,0-.76-1.17,11.25,11.25,0,0,0-.13-1.45,2,2,0,0,0-.76-1.45,6.73,6.73,0,0,1-1.17-.24c-.62-.16-1.29-.35-2-.57s-1.45-.4-2.17-.56A8.4,8.4,0,0,0,487.41,97Z"/><path class="cls-1" d="M590.18,589.09h-580V10.91h580Zm-579-1h578V11.91h-578Z"/><path class="cls-1" d="M592.11,585.89c0,3.41.39,2.19.46,2.7C592.48,582.88,592,586,592.11,585.89Z"/><polygon class="cls-1" points="591.16 529.53 591.33 530.53 590.91 522.23 591.16 529.53"/><path class="cls-1" d="M591.17,476.84c-.71,5,.12,19.09-.14,28.48l-.16,1.55.57,4.23C591.35,499.69,591,484.87,591.17,476.84Z"/><path class="cls-1" d="M592.71,448.74c-.27,1.73-.24-6.08-.08,6.55,0-.63,0-.82.07-1.19C592.7,453,592.71,451.4,592.71,448.74Z"/><path class="cls-1" d="M592.7,454.1c0,5.55.23-3.63,0,0Z"/><path class="cls-1" d="M592.54,428.47l.25,7.31c.16-1.52.2-8,.32-5.61C593,422.67,592.81,424.21,592.54,428.47Z"/><path class="cls-1" d="M592,421.54l.1,3.79A19.87,19.87,0,0,0,592,421.54Z"/><path class="cls-1" d="M592.34,433.36l-.22-8a8.41,8.41,0,0,0,.08,3.69C592,428.36,592.19,430,592.34,433.36Z"/><path class="cls-1" d="M592.23,437.91c-.15,4.1-.25,9.4-.5,2.06C591.83,454,592.33,451.9,592.23,437.91Z"/><path class="cls-1" d="M590.43,474.15l-.21,5.48.24,4.74C590.34,482,590.66,473.81,590.43,474.15Z"/><path class="cls-1" d="M592.91,382.93c-.15-.45-.41,2.46-.6,3l.17,5.4C592.59,388.56,592.68,383.3,592.91,382.93Z"/><path class="cls-1" d="M592.31,385.94l-.26-8.08C592,385.08,592.14,386.39,592.31,385.94Z"/><polygon class="cls-1" points="591.23 420.24 591.77 433.51 591.22 417.68 591.23 420.24"/><polygon class="cls-1" points="592.93 352.08 593.28 356.66 592.75 348.5 592.93 352.08"/><path class="cls-1" d="M592.87,331.61c.29,3.39.49-4.64.67-1.06,0-5.56-.31-10.31-.53-14.58C593.14,320.51,593.1,325.35,592.87,331.61Z"/><path class="cls-1" d="M592.68,308.79c.07,2.27.2,4.62.33,7.18C592.94,313.56,592.85,311.18,592.68,308.79Z"/><path class="cls-1" d="M592.12,364.1a41.39,41.39,0,0,0,.44-6.36l-.43,3.18C592.13,361.89,592.13,363,592.12,364.1Z"/><path class="cls-1" d="M592.12,361v-.11c0-3.45,0-5.84,0-6.87C592.15,354.93,592.14,357,592.12,361Z"/><path class="cls-1" d="M592.12,364.9v-.8A2.39,2.39,0,0,0,592.12,364.9Z"/><path class="cls-1" d="M591.61,399.06c-.24-4.75-.49-14.64-.86-5.07C591,397.4,591.25,391.92,591.61,399.06Z"/><path class="cls-1" d="M591.59,368.84l-.1,8.59c.11-.17.28-1.72.4.63Z"/><polygon class="cls-1" points="591.45 364.64 591.59 368.84 591.62 365.66 591.45 364.64"/><path class="cls-1" d="M592.28,323.49c-.18-3.71-.2-7.76-.23-12.34-.08,4.91-.13,10-.13,14.8C592.06,326.63,592.3,328.75,592.28,323.49Z"/><path class="cls-1" d="M592.16,341.73c0-.25,0-.58,0-.82C592.1,341.41,592.09,341.82,592.16,341.73Z"/><path class="cls-1" d="M592.05,266.06c0,.25,0,.46-.07.72,0,.06,0,.1.07.17Z"/><path class="cls-1" d="M591.84,326.78c-.08,3.69,0,5.89.16,8,0-2.76-.07-5.68-.08-8.82C591.86,325.65,591.82,325.59,591.84,326.78Z"/><path class="cls-1" d="M592.48,296.21c-.07,1.92-.15,4.1-.23,6.39C592.38,300.72,592.59,296.89,592.48,296.21Z"/><path class="cls-1" d="M592.26,339.66c0,.19,0,.36,0,.56C592.37,339,592.32,339.16,592.26,339.66Z"/><path class="cls-1" d="M592.26,339.66c-.06-1.89-.17-3.39-.26-4.89,0,2.25.08,4.33.14,6.14C592.17,340.45,592.22,340,592.26,339.66Z"/><path class="cls-1" d="M589.31,252.39c.4.66.76,10.36.34,18.73.3,8.24,1.6,2.85,2.33-4.34-.18-.26-.34-.26-.57-8.74-.22,3-.51,18.82-.86,11.67-.21-11.24.14-9.21.35-14.67-.5,4.64-.72-14.29-1.45-11.84l.26,9.85C589.59,253.23,589.41,249.66,589.31,252.39Z"/><path class="cls-1" d="M591.94,282.94l0,3.49c.06-4,.22-6.83.53-12.07-.19-5.81-.34-7-.47-7.41l0,17.18Z"/><path class="cls-1" d="M592,302.09c-.43-2.72-.62-11.1-1.08-6,0,10.24.36,7.18.54,13.3-.1-16.53.24,4.74.49-7.2.07,3.25.09,6.17.11,8.93.07-3,.14-5.85.2-8.55,0,.15,0,.26,0,.38V303c-.06.71-.09.95-.06.15,0-.06,0-.26,0-.35a3.38,3.38,0,0,1-.16-.75c.09-4.78.11-.75.16.75,0,.06,0,.19.07.2V303L592,286.43C591.93,289.93,591.94,294.32,592,302.09Z"/><path class="cls-1" d="M589.83,385.16c0-.51.06-.49.1-.53C589.87,383.56,589.84,383.16,589.83,385.16Z"/><path class="cls-1" d="M590.09,378.35a58.85,58.85,0,0,1,.18,6.12c-.13,3.4-.2,0-.34.16.11,2.36.3,8.26.51.86l-.05-1.17c.14-6.66.68-15.22.74-14.06A64.31,64.31,0,0,0,590.09,378.35Z"/><path class="cls-1" d="M590.93,339.75,590.71,326l-.37,7,.23-.35C590.48,340.47,590.75,338.77,590.93,339.75Z"/><polygon class="cls-1" points="592.27 264.48 592.72 266.31 592.08 258.35 592.27 264.48"/><polygon class="cls-1" points="592.21 246.57 592.61 247.23 592.37 242.5 592.21 246.57"/><path class="cls-1" d="M13.09,208.16l.11,4.05C13.17,210.29,13.13,209.06,13.09,208.16Z"/><path class="cls-1" d="M13.12,178.83l-.2-.72C13,179.47,13.11,180,13.12,178.83Z"/><path class="cls-1" d="M384.89,8.92c-5.9-.37-12.49-.94-11.78-.5l1.81.43C379,8.78,382.2,8.82,384.89,8.92Z"/><path class="cls-1" d="M83.58,11.51l1.73.13,4-.41Z"/><path class="cls-1" d="M79.42,13.3,71.64,13C73.39,13.12,75.89,13.22,79.42,13.3Z"/><path class="cls-1" d="M13.55,368.31,14,373C14,365.64,13.77,368.9,13.55,368.31Z"/><path class="cls-1" d="M592.05,63.1c.17-5.09.24-9.15.27-12.71C592.07,56.53,591.69,61.48,592.05,63.1Z"/><path class="cls-1" d="M8.48,196.62c.08,2.48.17,3.53.27,3.46C8.67,197.53,8.59,196.09,8.48,196.62Z"/><path class="cls-1" d="M592.31,35.69c0,.9-.06,1.78-.1,2.69.08,3.72.13,7.47.11,12C592.5,45.86,592.62,40.68,592.31,35.69Z"/><path class="cls-1" d="M371.27,586.12l1.31,0C372.71,586.11,372.12,586.11,371.27,586.12Z"/><path class="cls-1" d="M540.48,590.49l-7,0C534.78,590.56,536.88,590.55,540.48,590.49Z"/><path class="cls-1" d="M592.4,174.49c0,3.8.05.6,0,0Z"/><path class="cls-1" d="M590.69,193a4.7,4.7,0,0,0-.21-1.52A6.93,6.93,0,0,1,590.69,193Z"/><path class="cls-1" d="M576.12,11.47h-.33C576.92,11.56,576.72,11.54,576.12,11.47Z"/><path class="cls-1" d="M592.21,180.21c0-1.43.09-3.07.12-4.86C592.3,176.13,592.26,177.61,592.21,180.21Z"/><path class="cls-1" d="M592.41,179.44c0,1.31,0,2.34,0,3.32C592.44,183.24,592.49,182.81,592.41,179.44Z"/><path class="cls-1" d="M592.38,169.2c0,2.17,0,4.2,0,6.15,0-.75.06-1.06.07-.86C592.4,173.38,592.39,171.8,592.38,169.2Z"/><path class="cls-1" d="M60.05,587.28l.82,0C64.7,587.14,63,587.17,60.05,587.28Z"/><path class="cls-1" d="M286,13.42l.44,0h-.56Z"/><path class="cls-1" d="M272.36,13.75a97.46,97.46,0,0,1,13.52-.36l-4.52-1.25Z"/><path class="cls-1" d="M13.21,278.37l.39-9.58c.65,11.56.42,19.93,1,10.94-1.36-1.36-.14-37.25-1.49-38.59l.28-6.31c0,1.81.07,2.1.06,3.89.65-12.29-1-9.13-.79-25,.1-5.52.3-9.37.46-5.6l-.34-12.3c0-3.57.27-2.7.24.86L12.88,178l0,.14c-.21-2.67-.54-8.73-.68-11.69.19-4.77.14,2.39.31,1.17l-.33-10.38c.35-4.23.7,4.37.65,11.54,1.35-9.69-.35-8.61.45-29.54l.17,9.81c.77-6.32.49-14,1-25.05-.25,2.62-1.21,22.18-1.55,10.92.1-3.18.15-7.36-.12-13.44.48-.06.36-6,.34-13.42l.64.51c-.19-8-.51-7.4-.8-12.12.06-9,.56-10.81,1-12.91.1-14.33-.79,9.89-.91-7.07.24-11.92,0-20.28-.4-34.54.22-8.34.39,1.46.57-1.53L12.69,33c0-1.81.17-1.22.25-.93-.2-6.23-.64-.51-.81-10.31A17.87,17.87,0,0,1,12,18.07c0-.87.06-1.86.09-3,0-.69.09-1.44.14-2.24L13.8,13l.8,0,1.37.05c1.83.06,3.72.11,5.62.15,3.8.06,7.63,0,11-.19,3,.18-1.44.39-.53.64,16.63-.52,14.26-.38,27.92-1.09L71.64,13c-8.55-.48,2.38-1,11.94-1.51-3-.23-5.62-.44-7.36-.53l15.27-.35c1.84.11.3.33-2.2.6l2.8-.16c5.46.24,2.63.61-1.28,1l-5.5-.39c-3.77.39-7.3.82-6.52,1.19,1-.07,2.91-.13,5-.17-1,.11-1.62.2-1.16.26s2.11-.07,4.61-.23l3.47.71.84-.28,20,.44c14.29-.71,26.72-1.77,49.4-2.07-5.63.53-1.21.86-1.52,1.48-6.18-.66-17.56.28-29.32.14,6.14.07,4.79.37,3.23.47l21-.6c-.47.51,4.45.38,9.93.59-4.14-1,15.63-.66,24.16-1,.53.34-1.51.68-11.92.6,11.48.75,14.84-1.18,26.11-.54a38.17,38.17,0,0,0-4.92.13c5.94-.3,20.45-.06,17,.23h-2.54c16.87.12,51.36,0,53.88-.85a10.45,10.45,0,0,1-3.23,1.2l30.1-2.86c-2.65.73,7.53,2.47-6.46,2.88,4,.11,9,.23,17.45,0-2.74-.1-6.83-1.06-3.08-1.12,10.28.81,7.14.43,19.81,1.13-4.11-.16.45-1.31,6.94-1.27-1,.17.54,1.13-1.83,1.25l16.16-1.12c-4,.2-.71.95,2.9,1.27-1.68-.22,14,0,18.28-.09l-6.85-.26c18.24.16,18-1.59,36.12-1.53-2.19.24-5.41,1.43,3.79,1.57A311.81,311.81,0,0,1,430.82,10l3.07.33,12.29-.38c-7.65.87-29.12,2.69-40.85,3.4,6.83.26,1.91.39,12.13.36,3.61.31-5.57.47-8.58.49l23.8.2c-1.06-.67,18.21-.68,17.3-1.24l-25.86.7c-1-.67,14.95-1.91,31.82-1.79,4.29.27-3.21,1.2-2.86,1.42,2.19-.23,16-.44,17.56-.28l-7.16.36c9.39.26,15.33-.89,26.61-.25,3.89,0,11.63.87,12.3.47C496,13,494.8,10.64,499,10.07c1.37,0,20.45.73,24.89,1.11,6.42.6-9.62,1.43-4.16,2a39.84,39.84,0,0,1,5.25-.49c4.09.16-1.69.57,7.19.49,1.49-.68,18.08.06,4.21-.58,8.69-.19,9.23.14,19.44.11-3.25-.44,9.17-1.49,17.88-1.69-.52.17,1.44.4,2.39.5l13.39.1c-.06,5.1-.12,9.69-.18,14.48s-.09,9.87-.09,15.8c-.17,1.53-.37,9.55-.66,6.13.12,2.39.35,4.59.37,9.71-.59,9.92-.09-11.42-.8-3.86.39.64.54,13.25.79,20.55.61-2.25.12-16.86-.13-24.17.85,0,1.73,12.69,2.12,30.05.21,13.81-.55,6-.43,8.38-.14,25.93,1.48,22.09.87,43.62-.54,8.54-1.07.39-1.46,2.28-.2-11.24.34-17.26.32-24.88L590,119c-.18-3.58-.32-11.08-.16-15.17-.49,7.16-.09,43.8-.54,63.8.18,3.55.37,9.69.58,6.79l-.07-6.33c.43-5.82.6,11.91.8,3.9.3,8.49.78,18,.54,30l-.62,2.24a94.82,94.82,0,0,0,.18-11.17c.27,5-.83,18.33,0,23.78l.42-8.37c.31,8.52,1,19.06.77,29.65.6-4.82-.07-2.44.64-10-.89,6.53,0-27.1-.89-16.61.82-7.73.35-13.37,1-23.47-.21.32-.39,3.58-.29-5.31-.06-.4-.14-1.35-.18-1.95l0-.6c0,.17,0,.31,0,.49,0-.39,0-.42,0,.18-.08,2.12-.19,3.83-.3,4.53-.47-4.41-.45-18.55-.69-23.34.09-5.27.23,2.21.44-.67l-.36-7.14c.45-.71.75-14,1-1.59l0-11.19c.26-6.58.36-15.64.17-21.23.09-5.28-.5-13.33-.15-8.73L592,94l.12-.16c.05-17.31-.75-35.64.06-55.43-.11-5.83-.25-11.85-.12-21.6l.19-1,.1-.48c0-.14.06-.5.1-.75,0-1.77,0-3.77,0-6l-9.19-.05-6.61-.09c-4.22,0-7.8,0-9.19.14-8.07-1.05-36.31-.23-49.47-.42l-.5.51c-9.06,0-17.74.12-29,.32l.69.45c-9.69.37-24.92-.32-40.26-.27a66.94,66.94,0,0,1,7.69,0c-18.32-1-38.65.74-55.27,0-4.14.16-7.14.11-10,0,.39,0,.73,0,1,0h-1.7l-5.75-.24c1.73.11,3.39.2,4.83.24-3.19,0-8,.06-12.78.18l-2-.49-1.1,0c-4.66-.18-3.74.23-1.26.59-2.39.08-4.58.17-6.28.29-3.78-.78-12.45.26-17.61-.57-3.2.41-23.87.31-26.4,1.16-.16-.11-1.56-.17,1-.17-5.29-.1-10.58-.2-15.32,0L305.7,9.6l-11.55.82c-7-.37-9.93-.59-3-1.06-16.84.73-13.66.27-28,1l.7-.39c-5.11,0-13.29.54-16.38.22-11.44-.76-56.63-.11-86-.81,5.7,1.17-13.66-.52-14.82.38-1.71-.27-5.81-.43-1-.67-15,.27-22.53-.44-32.88.33-1.71-.28,3.21-.41,1.68-.57a56.85,56.85,0,0,1-6.32.07c-1.53-.16,2.2-.23,4.57-.35-15.32,0-16.87.9-18,1.7a106.5,106.5,0,0,0-17.24.19c-2.7-.26-7.21-.53,2.31-.62-5.36,0-32.71-.39-33.25.25-1.68-.16-7.49,0-8.9,0l-12.51,0h-13l3.9.11c-.42.07-.84.13-1.26.17s-1,.09-1.56.12c-1.07.06-2.17.09-3.35.1,0,1.08,0,2.21,0,3.42s0,2.21-.06,3.44c-.05,2.28-.09,4.9-.06,8l-.08-.27c-.56,21.81.27,9.42-.37,30.93l.48-1.17c1,2-.61,19.06-.21,31.55l.27-4.51c.35,6.82-1.4,19.06-1.53,25.91-.09,1.49-.14-2.36-.21-4.44-.61,17.93.63,2.32.77,15.68-.34,2.47-.86-3.17-.92,5.82-.28,4.48,1.1,26.08.45,38.35.26-2.7.52-5.39.72.82.09,9.51-1,25.71-.17,34.3a6.08,6.08,0,0,1-.2,1.72c.21,7.27.35,23.63.8,28-1.66,6.72.8,45.2-.72,45l.08,22.37-.16-.59c-.1,14.3.27,19.35.63,24.38-.1,3.3-.24.89-.32.62-.31,20.89-.25,23,.51,40.48l-.49,1.82c.29,4.75-.78,30.2-.2,50.69a10.45,10.45,0,0,1-.22-2.26c.58,23.05-1.38,55.19.43,63.63l.44,15.22c.14-19.68.79,2.93,1.09-5.17.1,7.74-.55,20-.64,10.5l.09-1.49c-.94-3.49-.33,24.45-1,23.93q0,18.16-.09,36-.11,18.83-.23,37.25l43.35.19L47.94,590l12.65,0c3.32.17,4.46.57-4.57.54a82.16,82.16,0,0,0,9.39,0c3.22-.16,5.88-.39,6-.47,17.67.3-6.9.85-1.48.87l7.36-.05-1.66-.09c6-.3,6.49-.61,17.34-.58,6.87.15,3.52.45,6.23.48,0,0,.21,0,.84,0s1.68,0,3.3,0l15.94.06-6.37-.57c7.06-.29,15,0,7.63-.63,10.8,1,59.46.37,66.09.68,9.9-.42,19.67-.42,31.77-.36-3-.12-4.81-.77,5.63-.69-3.82,1.34,19.11.58,27.54,1.54-7.54-.64,29.67-.16,17.84-1.06,8.71.1.53.5,7.14.81,20.73-.52,45.68.34,71.3.16.4-.17-3.89-.44,1.6-.7l13.53.88c5.06-.09,4.66-1,13.9-.41-1.3-.15-3.25-.37.14-.42,50.19.85,102.56-.71,153.53.9-6.9-.34-2.3-.37,3-.38-3.43-.08.08-.44-.59-.68l21.33.67c3.89-.67,22.88,0,25.11-.68l-6.76.11c9-.74-12.57-1.66-11.26-2.61-10.06.84-26.53-1.26-43-.05-3.64-.19,3.11-.31,1.16-.53a161,161,0,0,1-18.6.31l1.06-.1c-26.32.1-37.6-.3-67.16-.57l2.19.47c-6.35-.06-7.69-.21-10.66-.33-7.29.72,17.84,0,11.2.83-8.43-1-44.79,0-50.49-1.11-9.77,0,2.87.55-6.9.55l-2.59-.3-2.47.38c-6.41-.06-9.64-.43-9.88-.68,1.55,0,4.42-.07,6.09-.09-8.31-.35-23.43.11-26.28,0l9.39.18c-26.67.28-59.23-.11-85,.49l2,.23c-19.67.41-15.76-.25-37.36-.06l.79-.05c-4.33.22-10.1.34-16,.31,5.45-.26-10.26-.51-3.11-.8-21.33.45-10.55.35-24.64,1.18l-3.25-.37c-4.8.34-5.21.51-16,.61,8.84-.32-6.89-.57,3-1-22.64-.81-33.61.82-44-.36-10.39,1,19.59.57,13.77.79,4.87.33-8.58.76-15.69.66s-12.29-1.31-30.48-1.29c1.81,0,1.93-.08,3.73-.07-6.8-.26-13.33.35-21.69-.07-4.68.62-10.84,0-12.19.75l16.69-.18c-9.46.21-18.33,1.13-33.92.68,1.22-.16,5.86-.37,9-.48-4.56-.24-8.77.15-13.5-.09,1.35-.79,20.28-.17,30.42-.77-4.89-.34-19.18.57-14.08-.29-7.32,1.09-17.93-.14-30.25.7l.82-.48c-1.95.08-6,.3-9.58.29l6.5-.62c-3.39.18-6.7.19-10,.12L15.55,586l-.61,0H14.5l-.38,0-.69-.07.05-.69,0-.32V584c0-1.52,0-3,0-4.58,0,2.28,0,4.06,0,5.44,0,.44,0,.78-.07,1,.66.09.45.23.15.39s-.63.32,1,.45l-2.11.08c0-.68,0-1.29,0-1.86v-2.65c0-1.73.05-3.15.1-4.38.1-2.45.27-4.14.44-6,.35-3.77.71-8.32.6-21.37.07,3.74-.28,14.06-.5,8.2.09-5.27.28-12.22.52-15.45-.09-18.33-.48,2.81-.78-5,.58-6.24-.23-9-.42-17l.49-.06c.31-20.88-1-5.53-.63-24.33l.66,7.94-.17-9.8.55,2c-.41-10.66-.3-14-.15-24.43-.34,2.43-.87-1.36-.89-10.61.29-6.31.46,3.53.39-9.58a57.88,57.88,0,0,1,.24,11.91c.16.58.3,2.92.46,3.52.33-6.8.07-17.07.07-21.82,0,1.83-.05,4-.12,5.13l-.66-19c.18-3,.32-.61.46,1.74-.05-3.85-.27-6.52-.31-12.18.39,1.47.8,1.12,1,9.13l-.43-18.11c.17-1.21.46-9.29.61-6.94.23-10-.76-24.63-.46-37.94-.07-.69-.15-2.08-.2-4.91.09-12.51.57-23.59,0-38.42l.7-8.41c-.16-11.61-.88,11.39-1.15-7.95-.22-13.68.6-5.11.8-9.91a311.4,311.4,0,0,1-.51-31.22C13.27,271.22,13.16,274.48,13.21,278.37ZM12.9,135.16c.1,2.77.42,8.31.13,10.34C12.48,142.33,12.74,139.89,12.9,135.16ZM104.67,12.44a77.8,77.8,0,0,1-8.86-.11C98.42,12.29,101.38,12.31,104.67,12.44ZM592,132.85c0-.12,0-.2,0-.3C592.18,126.36,592.1,128.56,592,132.85Zm-.21,12.85c.07,1.29.14,1.2.2.66-.12-.9-.13-3.79-.09-7.07A41.74,41.74,0,0,0,591.8,145.7ZM100.63,590.52l-2.5-.12C103.78,590.26,102.2,590.38,100.63,590.52Z"/><path class="cls-1" d="M80,13.1a3.36,3.36,0,0,1-1.19-.27C77.7,12.91,77.68,13,80,13.1Z"/><path class="cls-1" d="M13.47,367.44v.43a1.83,1.83,0,0,0,.09.44Z"/><path class="cls-1" d="M524.86,13.38c-2.64-.07-4.12-.16-5.1-.25C519.61,13.25,520.82,13.35,524.86,13.38Z"/><path class="cls-1" d="M592.62,213.81l-.12-8.23c0,4-.09,5.4-.16,7.41C592.45,212.81,592.61,211.24,592.62,213.81Z"/><path class="cls-1" d="M589.64,285.28c.05,1.2,0,2.55.06,3.74l.23-.33C589.91,283.56,589.73,280,589.64,285.28Z"/><path class="cls-1" d="M591,221.44c-.41.65-.27,5.81-.19,11.58v-1C591.39,233.7,591.21,227.56,591,221.44Z"/><path class="cls-1" d="M590.84,234.36c0,1.78,0,3.59,0,5.33C591.08,240.37,590.9,237.53,590.84,234.36Z"/><path class="cls-1" d="M592.07,162c-.1,2.74.52,1.72.35,3.27C592.94,168.32,591.8,147,592.07,162Z"/><polygon class="cls-1" points="589.68 226.11 590.18 224.04 589.78 220.81 589.68 226.11"/><path class="cls-1" d="M590.05,180.57l-.14,9.21a10.68,10.68,0,0,1,.17,2.47C590.1,186.57,590.2,180.35,590.05,180.57Z"/><path class="cls-1" d="M590.08,192.25c0,3,0,5.77.08,7.42C590.16,198.07,590.14,194.63,590.08,192.25Z"/><polygon class="cls-1" points="589.53 213.51 589.63 210.78 589.67 204.28 589.53 213.51"/><path class="cls-1" d="M590.15,81.5,590,71.44c-.17-1-.27,1.72-.21,5.46C589.91,79.31,590,83,590.15,81.5Z"/><path class="cls-1" d="M588.77,111.92a42.32,42.32,0,0,1,.38-4.44l-.62-.3Z"/><path class="cls-1" d="M588.63,82.59c-.17-1-.5-14.6-.46-1.85C588.34,81.76,588.49,91.83,588.63,82.59Z"/><polygon class="cls-1" points="509.31 11.67 511.87 11.67 511.5 10.65 509.31 11.67"/><path class="cls-1" d="M375.74,14.11c11.92.24,2.83-.63,13.6-.32,2.8-.24-8.8-.25-5.94-.46C376.21,13.58,372.43,13.44,375.74,14.11Z"/><path class="cls-1" d="M383.4,13.33l3.68-.15C385,13.24,384,13.29,383.4,13.33Z"/><polygon class="cls-1" points="568.56 591.04 576.22 591.25 571.27 590.91 568.56 591.04"/><path class="cls-1" d="M583.27,590.28l1.81.65,4.6-.58C588,590.38,584.59,590.43,583.27,590.28Z"/><path class="cls-1" d="M14.21,113.87l-.16-.59a59.93,59.93,0,0,0-.2,6.58Z"/><polygon class="cls-1" points="13.72 217.81 13.74 216.02 13.15 219.37 13.72 217.81"/><path class="cls-1" d="M14.47,305.05c0-3.56-.05-7.75-.08-11.32C14.5,301.49,13.74,306,14.47,305.05Z"/></svg>