<svg id="Laag_1" data-name="Laag 1" xmlns="http://www.w3.org/2000/svg" viewBox="0 0 600 600"><defs><style>.cls-1{fill:#1d1d1b;}</style></defs><title>Rebus 3 Sommige</title><path class="cls-1" d="M223.83,385.68c-1.36-.08-.88.76-1.08.91C225,386.42,223.77,385.46,223.83,385.68Z"/><polygon class="cls-1" points="246.29 383.95 245.89 384.29 249.21 383.48 246.29 383.95"/><path class="cls-1" d="M267.28,384.12c-2-1.44-7.61.18-11.34-.36l-.62-.33-1.69,1.14C258.18,384.42,264.08,383.7,267.28,384.12Z"/><path class="cls-1" d="M278.45,387.29c-.68-.56,2.43-.46-2.61-.19a2.92,2.92,0,0,1,.47.15C276.77,387.24,277.39,387.25,278.45,387.29Z"/><path class="cls-1" d="M276.31,387.25c-2.21,0,1.45.47,0,0Z"/><path class="cls-1" d="M286.53,387l-2.92.48c.61.33,3.2.42,2.23.66C288.83,387.89,288.22,387.56,286.53,387Z"/><path class="cls-1" d="M289.29,386l-1.51.2C288.05,386.32,288.45,386.37,289.29,386Z"/><path class="cls-1" d="M284.58,386.6l3.2-.42c-.42-.23-.46-.7-1.47.15C286.58,385.91,285.94,386.31,284.58,386.6Z"/><path class="cls-1" d="M282.77,386.37c-1.63-.32-3.74-.54-.81-1C276.38,385.52,277.2,386.53,282.77,386.37Z"/><path class="cls-1" d="M268.37,382.65l-2.18-.43-1.9.46C265.24,382.45,268.5,383.1,268.37,382.65Z"/><path class="cls-1" d="M304.66,387.88c.18-.3-1-.82-1.19-1.21l-2.15.33C302.42,387.22,304.52,387.43,304.66,387.88Z"/><path class="cls-1" d="M303.47,386.67l3.22-.5C303.82,386.09,303.29,386.34,303.47,386.67Z"/><polygon class="cls-1" points="289.83 384.4 284.53 385.46 290.85 384.39 289.83 384.4"/><polygon class="cls-1" points="316.95 388.01 315.12 388.7 318.38 387.66 316.95 388.01"/><path class="cls-1" d="M325.1,388c-1.35.57,1.85,1,.42,1.34a19.64,19.64,0,0,0,3.1-.37c.48-.09.94-.2,1.4-.31l.17,0,.08,0v0l0-.08.1-.17-.1.08,0,0-.32,0a14.67,14.67,0,0,1-1.48,0A22.8,22.8,0,0,1,325.1,388Z"/><path class="cls-1" d="M331.14,387.63a2.06,2.06,0,0,0-.73.65Z"/><path class="cls-1" d="M312.18,386.37a4.17,4.17,0,0,0,2.52.88l-1.26-.86Z"/><path class="cls-1" d="M313.4,386.36l0,0,2.74.07Z"/><path class="cls-1" d="M311.86,386.36h.32C312.05,386.28,312,386.25,311.86,386.36Z"/><path class="cls-1" d="M298.26,385.24c1.89-.47,5.84-.95,2-1.71C298.93,384.11,301.11,384.54,298.26,385.24Z"/><path class="cls-1" d="M310.29,385.28l-3.41-.22c.06.22.68.56-.26.79Z"/><polygon class="cls-1" points="311.97 385.02 310.29 385.28 311.56 385.36 311.97 385.02"/><path class="cls-1" d="M328.35,386.81a10.71,10.71,0,0,1,1.13-.21c.36-.06.91-.1.95-.13a7.35,7.35,0,0,1,1-.1,7.28,7.28,0,0,0-1.14-.2c-1-.05-2-.08-2.92-.09C327.1,386.35,326.25,386.82,328.35,386.81Z"/><path class="cls-1" d="M321.08,386.52l.33,0C321.21,386.4,321.05,386.37,321.08,386.52Z"/><path class="cls-1" d="M336.68,387.1l.42-.2-.3.1Z"/><path class="cls-1" d="M327.05,385.92a6.89,6.89,0,0,0-3.19.28c1.1-.08,2.26-.12,3.51-.12C327.5,386,327.52,385.88,327.05,385.92Z"/><path class="cls-1" d="M332.72,387.24a.61.61,0,0,0-.31-.47C332.47,387,332.4,387.46,332.72,387.24Z"/><path class="cls-1" d="M321.91,386.71l-.22,0C322.17,386.93,322.11,386.84,321.91,386.71Z"/><path class="cls-1" d="M321.91,386.71a12.81,12.81,0,0,0,1.95-.51c-.9.06-1.73.15-2.45.27A2.11,2.11,0,0,1,321.91,386.71Z"/><path class="cls-1" d="M344.35,387.19c-.55,0-.45-.65.18-1.53a18.16,18.16,0,0,1,4-3.61c.06-.12.08-.2,0-.22a20.72,20.72,0,0,0-7.17,2.93l-4.3,2.14a3.33,3.33,0,0,1,1-.23c.24,0,.37.16.16.71.63-.32,1.9-1.24,3.18-2.11S344,383.59,344,384c-1.6,2.18-2.64,2.25-4.43,3.44,1.34-.64,1.3-.09,1,.78s-.76,2,.54,1.75c.75-1,1.44-1.93,2.07-2.8C343.67,387.07,343.18,388.07,344.35,387.19Z"/><path class="cls-1" d="M336.19,386.17l-.75.1c.39.14.32.45-.53,1.07.26-.07.51-.13.68-.19a2.68,2.68,0,0,0,1.21-.15l.67-.62-1.69-.09Z"/><path class="cls-1" d="M332.93,386.25a10.49,10.49,0,0,1,2.18-1c.74-.31,1.44-.63,1.31-1.1a6.15,6.15,0,0,0-2.55.41,7,7,0,0,1-1.59.66c1.86-.1,1.5,0,1,.23s-1.06.49-.26.74a11.75,11.75,0,0,1-1.56.22,3,3,0,0,1,1,.4v-.06h0l0,0c0-.1,0-.17.07-.11h.06a2.52,2.52,0,0,1,.39-.33c.59.19-.1.23-.39.33l-.13.12h0c.87-.15,1.89-.3,3-.44A8.46,8.46,0,0,0,332.93,386.25Z"/><path class="cls-1" d="M303.82,381.71c.2.08.19.14.21.2C304.45,381.81,304.62,381.74,303.82,381.71Z"/><path class="cls-1" d="M306.53,382.25a5,5,0,0,1-2.44.36c-1.35-.27,0-.42-.06-.7-.94.22-3.29.59-.35,1l.47-.11c2.65.32,6.05,1.42,5.59,1.53A8.79,8.79,0,0,0,306.53,382.25Z"/><path class="cls-1" d="M321.89,384.05l5.5-.39-2.79-.76.13.45C321.61,383.15,322.28,383.7,321.89,384.05Z"/><path class="cls-1" d="M335.61,387.57c-.59.15-1.19.33-1.81.52a5.44,5.44,0,0,1,1.95-.13A.86.86,0,0,0,335.61,387.57Z"/><path class="cls-1" d="M334.11,389.22H333a1,1,0,0,1,.3.37C333.56,389.48,333.82,389.36,334.11,389.22Z"/><path class="cls-1" d="M132.93,376.06l1.61-.23A12.84,12.84,0,0,0,132.93,376.06Z"/><path class="cls-1" d="M121.25,376l-.29.39C121.5,376.18,121.72,376,121.25,376Z"/><path class="cls-1" d="M218.49,504a6.9,6.9,0,0,1-.29-1.86c0-.38,0-.48-.27-.11a5.54,5.54,0,0,0-.36.86A2.08,2.08,0,0,1,218.49,504Z"/><path class="cls-1" d="M132.55,425.33l.3.68,1.71.53Z"/><path class="cls-1" d="M128.84,426.7l-1.79-2.58A21.63,21.63,0,0,0,128.84,426.7Z"/><path class="cls-1" d="M196.72,375.14l1.89-.89C195.66,374.26,197,374.7,196.72,375.14Z"/><path class="cls-1" d="M286.45,437.34a34.71,34.71,0,0,0-3.95,3.21C284.58,439.17,286.5,438.31,286.45,437.34Z"/><path class="cls-1" d="M128.33,385.26c1-.15,1.41-.33,1.38-.52C128.7,384.88,128.12,385.05,128.33,385.26Z"/><path class="cls-1" d="M278.36,444.69c.31-.19.59-.41.9-.61a36.1,36.1,0,0,1,3.24-3.53A11.89,11.89,0,0,0,278.36,444.69Z"/><path class="cls-1" d="M217.84,175.5c0-.17.06-.37.1-.52C217.82,174.93,217.82,175.16,217.84,175.5Z"/><path class="cls-1" d="M226.59,108.1c.06.66.06,1.74.07,2.76A15.24,15.24,0,0,0,226.59,108.1Z"/><path class="cls-1" d="M317.33,405.47c1-1.11.1-.24,0,0Z"/><path class="cls-1" d="M325,402.69c-.16.3-.25.56-.13.73A1,1,0,0,1,325,402.69Z"/><path class="cls-1" d="M271.52,459.17l-.1.09C271.86,459.06,271.78,459.09,271.52,459.17Z"/><path class="cls-1" d="M319.22,404.14a16.83,16.83,0,0,0-1.55,1.18C317.93,405.15,318.41,404.79,319.22,404.14Z"/><path class="cls-1" d="M318.71,404.06l1-.87C319.74,403,319.55,403,318.71,404.06Z"/><path class="cls-1" d="M315.87,407c.6-.62,1.2-1.16,1.8-1.67-.26.17-.38.23-.34.15Z"/><path class="cls-1" d="M220.16,299.47c0-.1.05-.22.08-.32C219.88,297.62,219.94,298.29,220.16,299.47Z"/><path class="cls-1" d="M186.86,485.06l.15.09-.13-.18Z"/><path class="cls-1" d="M182.56,481.67a8.26,8.26,0,0,1,4.32,3.3l.49-3Z"/><path class="cls-1" d="M160.9,375.81l-3.82-.78c4.61-1.29,7.94-.84,4.36-1.94-.54,2.72-14.84.28-15.37,3l-2.52-.57c.73,0,.84-.13,1.55-.11-4.89-1.3-3.63,2-9.94,1.58-2.2-.21-3.73-.6-2.23-.92l-4.9.67c-1.42-.06-1.07-.53.34-.48l-7.46.22,0-.08a44.27,44.27,0,0,1-4.66,1.37c-1.89-.39,1-.29.47-.63l-4.14.66c-1.68-.71,1.75-1.39,4.6-1.29a4.24,4.24,0,0,0-4.2-.87,15.11,15.11,0,0,1-2.75.4,14.93,14.93,0,0,1-2.07,0c-.4,0-.82-.07-1.28-.14-.75-.06-1.56-.14-2.45-.24l1.63-.08.82,0,.49,0,2-.17a7,7,0,0,0-2-.82l-.27-.07a1.68,1.68,0,0,0-.36-.05l-1-.1q-1.06-.09-2.22-.15c-3.12-.18-6.63-.28-11.42-.76,1.31.25,6.09.86,9,1.49s4.23,1.27.84,1.61a30.65,30.65,0,0,0-8.13.25c-1.06-1-4.75-.73-9.43-.68l-1.94-1.28c-2.54.19-3.29.44-3.66.72s-.35.59-1.15.88h-.2c3.5,3.7,2.36,3.95,1.83,4.59,3.54,3.68,2.92,2.5,2.71,1.65s0-1.32,4,2.52a89.61,89.61,0,0,0,7.31,7.41c1.31,1.19,2.67,2.37,4.09,3.59l1.09.92.76.58,1.62,1.24c2,2.66-1,.14-.38,1.24l2.81,1.36c.49.53.1.59-.09.62,2,1.47,1.05-.76,4.05,1.75,1.74-.25,4.21,7.12,8.76,9.4.58,1.1-1,.15-1.06.76,5.43,3.94,4.56,3.48,9.4,6.32l2.69,3.88c-1.73-3.09,2.15-.82,5.5,1.21-.52-1.18-1-2.19-1.32-2.82l4.79,3.81c.37.67-.38.55-1.46.22.37.22.72.43,1,.57,1.2,1.88-.12,1.6-1.73,1-.34-.7-.67-1.41-1-2.1-1.61-.51-3.21-.9-3.52-.15A8.81,8.81,0,0,1,131,427c-.42-.13-.73-.18-.69,0s.69.49,1.63,1l0,2,.64-.16,5,6.25c5,3,10,5,16.84,11-2.32-.84-1.55.87-2.51,1.66-.81-2.67-5.34-4.55-8.46-8.05,1.63,1.82.83,1.86.24,1.57l6.75,5.06c-.85.58.72,1.79,2,3.63.25-2.58,5.34,3.46,8.18,5.43-.33.62-1.39.53-4.21-2.52,2.17,4.3,5.85,2.52,8.12,6.6-.73-.7-1-1.16-1.57-1.2,2.1,1.25,5.85,5.67,4.47,5.12l-.72-.7c4.58,4.92,14.46,14.47,16.37,14a6.89,6.89,0,0,1-2.61.78l12.53,4.44c-1.78.28-1.37,5.61-5.9,2.25a22.25,22.25,0,0,0,5,4.87c-.63-.92-.43-3.41.71-2.45,1.75,4,1.4,2.62,4,7.17-.94-1.38,2-1.71,3.74.17-.52-.05-1.44,1.75-2.28,1.25l6.14,3c-1.42-.85-1.55,1.15-1,2.62-.16-.79,3.91,4,5.28,5L207,504.46a15.1,15.1,0,0,0,3.15,2.71,14.62,14.62,0,0,0,1.39.74c.52.27,1.08.56,1.57.78,2,.94,3.56,1.28,5.87,3.45l.7-.7a8.63,8.63,0,0,0-.7,2.87.8.8,0,0,0,0,.22c0,.92.63,1.22,2.53-.48a61.14,61.14,0,0,0,3-7.72,25.88,25.88,0,0,1,3.93-8.33l1.33-.4,2.93-4a81.11,81.11,0,0,1-2.83,7.8c-.64,1.56-1.31,3.15-2,4.62-.34.72-.66,1.43-1,2.09a12,12,0,0,1-.69,1.17l-.79,1.2a17.67,17.67,0,0,1,1.64-1.16,4,4,0,0,1,.43-.25l.25-.1a10.28,10.28,0,0,0,2.17-2c.73-.29.5.27,0,1-.26.37-.58.78-.9,1.16l-.45.53-.2.22-.27.28,7.09-6.52c-1.25-.65,4.17-6.08,3.12-6.62l-6.29,8.27c-1.25-.65,1.51-6.91,6.43-11.49,1.58-.83.79,2.6,1.2,2.81.29-.94,3.89-5.13,4.55-5.33l-1.5,2.52c3-2.29,3.05-5.58,7.14-7.85,1.16-1,4.5-2.05,4.12-2.8-2.87.7-6.57-2.3-6.2-4.31.46-.31,6.8-4.72,8.59-5.44,2.65-1-.69,4.74,1.58,3.93-.19-.32.49-1.64.8-2.16,1.37-.93.33,1.28,2.71-1.34-.54-1.38,5.17-5,.37-2,2.17-2.72,2.8-2.4,5.63-5.32-1.53.29.47-4.7,2.64-7.43.1.39,1,.16,1.39,0,5.1-4.93,8.23-7.19,12.92-11.86.67-.2,3.21-2.18,2.66-.8a12.62,12.62,0,0,1,2.22-3.26c3.62-2-3.09,3.35,0,2.22-.38-.74,3-4.5,4.67-6.91-1.5-.23-4.92,4.59-6.63,7-1.2-1.19,1.13-6,5.47-11.47,3.59-4.18,2.46-.91,3-1.75,7.51-7.1,4.14-8.31,11.07-13.51,3.16-1.65,1.62,1.4,2.7,1.42-2.88,3.45-5.35,4.38-7.46,6.55l3-2.28a18,18,0,0,1-4.05,4.5c2.7-1.34,12.47-12.21,18.73-17.21.75-1.26,2.21-3.25,1.09-2.74L319.23,411c-2.25,1,2.51-4.2,0-2.23,2-2.82,4-6.18,7.68-9.2l1.5.23c-.33-.18-2.72,1.69-3.4,2.9,1-1.79,6.33-4,6.73-6.66l-3,1.75c1-1.41,2-3.09,3.15-4.76l.87-1.21c.12-.21.24-.4.36-.58a3.77,3.77,0,0,1,1-1c-1,.12-.95.14-1.05.26s-.3.29-1.17.16c.48.14.6.32.46.61a1.17,1.17,0,0,1-.08.13l-.24.28-.57.61-1.3,1.31c-1.78,1.76-3.4,3.39-1.27,2.57-3.34,1-4.26,3.27-8.09,5.13.37.19,1.55-.47-1.1,1.9a4.34,4.34,0,0,1-.29.8l-.19.15.17-.11c-.07.15-.07.17.06,0a5.25,5.25,0,0,1,1.71-.84c-.58,1.9-4.59,5.86-5.59,7.55-1.63,1.35.29-.95-.83-.44l-1.5,2.52c-.84-.44-5,2.89-1.88-1l-3.18,3.12a27.85,27.85,0,0,0-6.21,5.75c-1.62,1.35-3.05,4.46-2.25,2.67l-4.55,5.33-.2-.11c-5,4.79-9,11.09-15.71,15.52a46.23,46.23,0,0,1-5.91,6.26l-1.08,0c-1.92,2.3-6.88,5.78-7.22,7.26-3.75.8-10.55,9.91-14.52,13.35l.58.86a106.58,106.58,0,0,0-7.71,8.62l.83.43c-2.21,3.26-7.48,6.57-11.73,11,.05-.54,1.21-1.57,2.13-2.2-3.29,1.86-5.76,4.85-8.11,7.82-1.17,1.48-2.32,3-3.54,4.3-.3.34-.61.66-.92,1l-.47.46-.24.2a2.54,2.54,0,0,1-1,.51c-.37.83-.86,1.16-1.2,1.19a1.57,1.57,0,0,0,.12-.19,1.65,1.65,0,0,0-.2.19H219l-.51-1.11a5.24,5.24,0,0,0,.48,1.15,8.6,8.6,0,0,0-1.67-1.16,7.08,7.08,0,0,1,.27-1.1l-.12-.08c-.12-.37-.25-.33-.47-.21a2.08,2.08,0,0,0-.41,1l-.33-.16-.53-.34c-.37-.23-.72-.43-1-.59,0-2.16-3.88-3.13-4.16-5.76-1.47-.33-7.15-6.29-9.07-5.8.11-.2-.21-.67.53,0a18.55,18.55,0,0,0-4.39-4.25l.24-1.5-4.42-2.09c-1.45-2.51-2-3.63.67-2.34-5.77-3.71-4.24-3.46-9.29-6.47l.76-.37c-1.46-1.42-4.51-3-4.92-4.3-2.16-4.29-15.81-16.1-23.09-25.36-.05,3.25-3.11-4.59-4.72-3.64-.09-.87-1-2.25.66-1.24-4.61-3.84-5.73-7-9.72-8.81-.09-.87,1.47.34,1.28-.33-.43-.25-1.69-1-1.89-1.67s.94.29,1.78.79c-4.38-4.25-6-3.48-7.46-2.67-1.65-2.72-2.82-3.74-5.13-4.57-.4-1.13-1.28-2.79,1.53-.24-1.45-1.56-8.67-9.76-9.73-9a8.85,8.85,0,0,0-2.54-2.46c-3.33-3.44-3.54-3.82-7-7.06l.77,1.07c-2.4-.22-3-2.52-5.82-5.06l.19,0c-2.67-3.46-3.43-4-4.16-4.61a8.56,8.56,0,0,1-1.32-1.22c-.3-.32-.66-.75-1.09-1.28-.28-.4-.6-.88-.93-1.43q-.34.33-.66.69c-1.13.34-2.16-1.12-2.88-2.51-.38-.7-.67-1.37-1.06-2a6.66,6.66,0,0,0-1.92-2,2,2,0,0,0-.14.63c-.77-.5-1.07-1-1-1.28s.57-.45,1.24-.43c2.9.76,5.14,1.56,5.79,1.67s.18.29.19.42c1.18.31,1.5.38,1.55.32s-.26-.27-.64-.52c-.76-.51-2-1.2-.8-1.34a7.87,7.87,0,0,1,1.46,1.13,3,3,0,0,0,1.47.72c.5.27.63-.28,1.77-.74l.21-.08.06,0,.15,0,.28,0,1.16-.15c.77-.08,1.55-.15,2.31-.19a14.38,14.38,0,0,1,4.2.34c-1.08-.53-2.15-1.05.32-1.44,3.79-.19,10.25,2,13.67.33.48.14.66.28.68.41,2.9-.43,9.42-.71,11.16-1.6,2.68,3.31,18-1.61,17.94,1.44l8.91-.16-.23.31c5.69.2,7.71-.53,9.71-1.26,1.31.2.35.49.24.65,8.33.62,9.15.49,16.13-1l.73,1c1.89-.58,12,1.55,20.19.39-.08.12-.25.31-.9.45a48.42,48.42,0,0,1,6-.22c2.33,0,4.78.1,7.32.22.15-2.63.3-5.26.44-7.76.06-1.32.12-2.61.18-3.85,0-.42,0-.83.05-1.24l0-1.1c0-2.87-.32-5.15-1.57-6.31l-.89-6.06c-.28,7.84-1.56-1.17-2.16,2.06-.22-3.08,1.08-8,1.27-4.18l-.18.59c1.88,1.39.67-9.74,1.95-9.53-.09-15.43.95-30.46,1-44.91l-1.47,1.66.09-5c.34-1.32,1.14-1.77,1.08,1.82.83-1.89-.69-6-1-6.13.59-7,1.71,2.75,1.74.59l-.11-2.93-.17.66c-.6-2.37-1.23-2.59-1.16-6.91.29-2.73.9-1.4,1-2.48.1,0,.15-.35,0-1.65l.13-6.35L226,278.41c-.57-2.81.06-6-1.25-3,2-4.3.73-23.69,1.35-26.33-.84-3.94-.82-7.83-.72-12.65-.24,1.2-1.54,1.92-1.38-2.24,2.68,1.52,1.16-7.61,3.09-11-1.28,3-.32-11.82-2.13-7.11.22-3.47,1-.21,1.63-2.84-1-8.26.68-18.2.33-28.4-.35-.16-.89,1.55-1.42-.64l1.76-5.39c-.17-2-2-1.86-.81-5.54-.29.52-.74,1.3-.85-.06,1.71-20-1.41-40.85,1.82-61.15-.69,2.75-.75.91-.78-1.19-.16,1.37-.87,0-1.34.24l1.32-8.5c-1.32-1.55-.09-9.11-1.36-10l.23,2.69c-1.49-3.58-3.32,5-5.23,4.49,1.7,4-2.52,10.57-.09,17.14-.39,1.46-.61-1.23-1.06-.46.82,1.67,1,3.68.63,7.41l-.21-.42c.2,10.48-.61,15-1.15,26.75l.95-.87a18.1,18.1,0,0,1-.66,4.25c1.44,2.9.08-7.11,1.67-4.47-1.93,3.36,0,17.85-2.22,20.12,0,3.89,1.09-1.15,1.08,2.75l-.59,1,.76,1c-.12,2.55-.87,3.84-1.37,3.94a20.62,20.62,0,0,0-.18-2.43c-.7,3.31.24,9.33,0,10.47l.36-3.74c.56,10.62-.22,23.59,1,33.85l.44-.77c.83,7.83-.49,6.27-.11,14.88l-.1-.32a25,25,0,0,1,.62,6.38c-.53-2.17-1,4.09-1.6,1.24.89,8.5.7,4.2,2.36,9.82l-.74,1.29c.67,1.91,1,2.07,1.21,6.37-.63-3.52-1.13,2.74-2-1.21-1.62,9,1.64,13.39-.73,17.53,2,4.14,1.14-7.8,1.58-5.48.67-1.94,1.53,3.42,1.33,6.25s-2.63,4.89-2.59,12.14c0-.72-.15-.77-.14-1.49-.52,2.71.71,5.31-.14,8.64,1.24,1.87-.07,4.32,1.51,4.86l-.36-6.65c.41,3.77,2.26,7.3,1.36,13.51a16.64,16.64,0,0,1-1-3.6c-.47,1.82.31,3.5-.17,5.38-1.58-.54-.34-8.08-1.55-12.12-.67,1.95,1.15,7.64-.57,5.61,2.18,2.92-.28,7.14,1.39,12.05l-.95-.33a17.94,17.94,0,0,1,.57,3.82l-1.23-2.59c1,4-.91,7.66-.34,11.47,0-8,1.14-1.79,1.83-5.16,1.27,9.84-2.48,5.66-2,16.67-.14-1.49.57-5.6,1-3.26a29.93,29.93,0,0,1-1.06,6.15c.2,7.3,1-1.12,1.56,2-1.16,2.48.47,3.58.84,6.78l-1,0c-.62,8.32,2,2.21,1.27,9.7l-1.34-3.17.34,3.91-1.09-.81c.81,4.25.6,5.57.29,9.73.68-1,1.75.55,1.78,4.23-.28,1.26-.51.91-.65.89s-.12.08-.14.48c0,.21,0,.49,0,.89s0,.83,0,1.43a2.53,2.53,0,0,1-.45-.79,5.51,5.51,0,0,1-.34-1,4.79,4.79,0,0,1,.32-2.79c-.31-.23-.6-1.16-.91-1.4a18.85,18.85,0,0,0-.33,4.65c0,.4,0,.8.05,1.18,0,.18,0,.24.06.36a3.29,3.29,0,0,1,.07.55,1.18,1.18,0,0,1,.23-.6,19.51,19.51,0,0,1,1.23,3.56l-.21.11c-.9-.35-.66-.64-.6-.92l0,0v0c-.45.11-.58.54-1.62.62-.08-.78-.35-1.59,0-2a2.47,2.47,0,0,1-.61.44l-.46.21-.27.11-.07,0-.2,0-.45.05c-.48-.34-3.7-.93-2.77-1.22-4-.46-9.81,1.52-15.11.91a5.65,5.65,0,0,1-2,.41c-5-.18-9.39-1.14-15.3-.06l-3.35-1.41c-4.62.32,4.54,1.77-3.16,2.3-5.46.45-2-1.2-3.95-1.59-2.72.71-7.43,2.15-12.44,1A40.91,40.91,0,0,1,160.9,375.81Zm-58.8.62c.82-.1,2.08-.31,3.35-.42l.94-.06h.75a1.63,1.63,0,0,1,.83.23,2.63,2.63,0,0,1-.91.55,2.86,2.86,0,0,1-.62.1,5.43,5.43,0,0,1-.7,0C104.77,376.8,103.65,376.59,102.1,376.43Zm35.08,56.15a6.38,6.38,0,0,1-2.35-2.63A13.69,13.69,0,0,1,137.18,432.58Zm169-14.83,0,.12C304.09,419.35,304.82,418.83,306.15,417.75Zm3.92-3.32c.27-.46.15-.53-.1-.47a6.74,6.74,0,0,1-1.86,2.13C308.55,416,309.14,415.66,310.07,414.43ZM226.65,283.31l-.25,1C226.12,282.05,226.38,282.68,226.65,283.31Z"/><path class="cls-1" d="M129.29,426.57a.91.91,0,0,1,0-.71C128.91,425.67,128.77,425.79,129.29,426.57Z"/><path class="cls-1" d="M196.38,375.3h.17a.38.38,0,0,0,.17-.17Z"/><path class="cls-1" d="M259.77,476.3a7.05,7.05,0,0,1-1.79,1.08C258.11,477.59,258.59,477.39,259.77,476.3Z"/><path class="cls-1" d="M328.1,394.08l-2.15,2.5a9.86,9.86,0,0,1,2.32-1.86C328.06,394.61,327.38,394.82,328.1,394.08Z"/><path class="cls-1" d="M343.76,381.63c-.69.11-1.05,0-1.71.12l-.57.44C343.39,382.18,345.53,381.83,343.76,381.63Z"/><path class="cls-1" d="M332.51,394.2c.38.2.88-.12,1.48-.7l.23-.22.17-.19.35-.4c.23-.28.47-.59.73-.9l-.21.21c-.36-.44-.75-.32-1.1,0a6.27,6.27,0,0,0-.57.74Z"/><path class="cls-1" d="M335.7,391.52a10.25,10.25,0,0,1,1-1.06C336.31,390.24,336.22,390.84,335.7,391.52Z"/><path class="cls-1" d="M314.28,409.46c.92-.63-.25-1.22.42-1.42C314.83,406.45,310.45,414.06,314.28,409.46Z"/><polygon class="cls-1" points="335.72 394.78 334.43 394.65 334.09 396.13 335.72 394.78"/><path class="cls-1" d="M322.37,407.09l2.79-2.4c-.16-.08.1-.48.45-.94C324,405.33,322.1,406.94,322.37,407.09Z"/><path class="cls-1" d="M325.61,403.75a13.64,13.64,0,0,0,2-2.21C327.14,402,326.2,403,325.61,403.75Z"/><polygon class="cls-1" points="332.38 398.54 331.46 399.16 329.58 400.94 332.38 398.54"/><path class="cls-1" d="M294.33,434.85l-2.63,3c-.05.53.87-.09,1.83-1.24C294,435.8,295,434.65,294.33,434.85Z"/><path class="cls-1" d="M304.84,428.23a4.15,4.15,0,0,1-1.79.71l.79,1Z"/><path class="cls-1" d="M296.78,436.69c0,.53-3.41,4.81.12,1.17C297,437.33,299.58,434.29,296.78,436.69Z"/><polygon class="cls-1" points="252.98 478.27 253.69 477.54 252.15 476.2 252.98 478.27"/><path class="cls-1" d="M212.17,512.31c5.57,6.26,1.75,0,6.53,5.62.64.29-.36-.88-1.3-2s-1.84-2.16-1.18-1.8C213,511.68,211.36,509.6,212.17,512.31Z"/><path class="cls-1" d="M216.22,514.15c.51.4,1,.79,1.58,1.15A14.24,14.24,0,0,0,216.22,514.15Z"/><polygon class="cls-1" points="227.69 96.91 228.11 93.86 227.43 95.83 227.69 96.91"/><path class="cls-1" d="M226.18,91.05l1.3-.72L226.3,88.5A6.13,6.13,0,0,1,226.18,91.05Z"/><path class="cls-1" d="M84.89,373.81l0,.32a25.13,25.13,0,0,0,5.38.41Z"/><polygon class="cls-1" points="136.78 374.79 136.06 374.76 137.4 375.93 136.78 374.79"/><path class="cls-1" d="M171.53,373.29c-1.42-.05-3.09.21-4.51.16C170.11,373.24,171.91,374.75,171.53,373.29Z"/><path class="cls-1" d="M219,512.92,85.89,379.81h135.9V88.5h2V379.81l127.36,1ZM90.72,381.81,219,510.09,346.35,382.73l-123.56-.92Z"/><path class="cls-1" d="M405,92.36h3.55a1.41,1.41,0,0,0,1,.64,7.35,7.35,0,0,0,1,.08h1.37a20.23,20.23,0,0,1,4.27.45,13.26,13.26,0,0,1,7.42,4.39,17.05,17.05,0,0,1,2.66,4.36v4.27a4.77,4.77,0,0,1-.72,2.54,20.89,20.89,0,0,1-1.57,2.18l-1.54,1.81a2.36,2.36,0,0,0-.68,1.29,1,1,0,0,0,.36.6c.24.25.5.5.77.77s.69.56,1.13.89a2.24,2.24,0,0,1,1.57.76,6.69,6.69,0,0,1,1.29,1.86,12.5,12.5,0,0,1,.84,2.29,8,8,0,0,1,.33,2v2.26a11.52,11.52,0,0,0-.29,2.7,6,6,0,0,1-.84,2.86,2.6,2.6,0,0,0-.77,1c-.13.35-.27.67-.4,1a2.73,2.73,0,0,1-.57.8,2.78,2.78,0,0,1-1.16.61,28,28,0,0,1-5.33,2.74,17,17,0,0,1-6.12,1.05H402.27l-2.18-.89-.81.48a2.3,2.3,0,0,1-1.21.41h-1.61c.11-.11.11-.2,0-.29A2.12,2.12,0,0,0,396,138a4.28,4.28,0,0,0-.77-.2c-.29-.05-.55-.11-.76-.16a2.37,2.37,0,0,1-1.58-.4,1.28,1.28,0,0,1-.44-1,6.94,6.94,0,0,1,.44-2.34,1.6,1.6,0,0,1,1.58-1.21h1.37a9.23,9.23,0,0,0,1.77-.32,9.23,9.23,0,0,1,1.77-.32.82.82,0,0,0,.69-.25.92.92,0,0,0,.2-.6,4.29,4.29,0,0,0-.08-.77,3.68,3.68,0,0,1-.08-.64.92.92,0,0,0,.24-1,1,1,0,0,0-.24-.4v-2a6.74,6.74,0,0,0,.56-2.09c.06-.65.09-1.13.09-1.45v-2.26c.1-.59.24-1.18.4-1.78.11-.43.21-.87.32-1.33a4.67,4.67,0,0,0,.16-.92q0-.57-.12-.57c-.08,0-.15,0-.2-.16a2.67,2.67,0,0,1,0-.93c0-.51.15-1.46.36-2.86v-2.66a4.25,4.25,0,0,1,.32-1.41,4.16,4.16,0,0,0,.33-1.49,7.18,7.18,0,0,0-.73-3.43,7.6,7.6,0,0,0-1.81-2.22,9.4,9.4,0,0,0-2.38-1.41c-.86-.34-1.65-.68-2.38-1a9.4,9.4,0,0,1-1.81-1A1.78,1.78,0,0,1,393,94.7a4.72,4.72,0,0,1,1.28-.93,6,6,0,0,1,1.54-.52,6.72,6.72,0,0,1,1.29-.17h1.61l3.55-.72Zm6.45,26.28a2.26,2.26,0,0,0-1.82.81,5.79,5.79,0,0,0-1,1.85,11.54,11.54,0,0,0-.53,2.1,10.9,10.9,0,0,0-.16,1.53v4.92a2.19,2.19,0,0,0,.2.72,4.69,4.69,0,0,0,1.41,1.82,1.71,1.71,0,0,0,1.05.36,4.57,4.57,0,0,0,1.65-.24,10.7,10.7,0,0,1,1.25-.4,9.65,9.65,0,0,0,2.22-.85,10.88,10.88,0,0,0,2.14-1.45,7.19,7.19,0,0,0,1.53-1.86,3.31,3.31,0,0,0,.4-2.13c-.05-.7-.08-1.25-.08-1.65a4.24,4.24,0,0,1,.08-.93,1.76,1.76,0,0,0,0-1,2.7,2.7,0,0,0-.8-1.77,4.56,4.56,0,0,0-1.78-1.09,11.76,11.76,0,0,0-2.3-.53,19.49,19.49,0,0,0-2.29-.16h-1.13Zm.48-18.38a2.05,2.05,0,0,0-1.17.56,7.42,7.42,0,0,0-2.13,3,1.62,1.62,0,0,0-.08,1.33v4.92c.1.75.21,1.38.32,1.89a4.72,4.72,0,0,0,.48,1.33,1.84,1.84,0,0,0,.89.81,4.52,4.52,0,0,0,1.69.24,4.21,4.21,0,0,0,1.53-.4,13.84,13.84,0,0,0,1.94-1,7.71,7.71,0,0,0,1.65-1.37,2.28,2.28,0,0,0,.69-1.49v-4.28a3.94,3.94,0,0,0-.49-1.69,6.64,6.64,0,0,0-1.33-1.81,9,9,0,0,0-1.89-1.46A4.2,4.2,0,0,0,411.94,100.26Z"/><path class="cls-1" d="M455.16,120.66a3.59,3.59,0,0,0,1.77-.49,2.75,2.75,0,0,1,2.26,0,7.75,7.75,0,0,1,1.61-.88,5.62,5.62,0,0,1,2.66-.24,2.19,2.19,0,0,0-.16.48,5.59,5.59,0,0,0-.08,1.13,3.06,3.06,0,0,1-.24.88,8.7,8.7,0,0,1-.69,1.42,10.35,10.35,0,0,1-1.13,1.57,5.79,5.79,0,0,1-1.49,1.29h-4c-.22,0-.56,0-1.05,0L453,126a10.2,10.2,0,0,0-1.61.28,4.54,4.54,0,0,0-1.17.45,4.41,4.41,0,0,1-2.26.44,8.75,8.75,0,0,0-2.9.44,9.26,9.26,0,0,0-2.34.41,5,5,0,0,1-2.18.24,4.24,4.24,0,0,1-2.3.52c-.88,0-1.89,0-3,0l-1.13-.24a6.41,6.41,0,0,1,.08-.77c.06-.35.14-.72.25-1.13a6.44,6.44,0,0,1,.4-1.12,2,2,0,0,1,.56-.77c1.72-.59,3.46-1.14,5.2-1.65s3.46-.93,5.12-1.25a4.19,4.19,0,0,1,2.22-.25,8,8,0,0,0,2.94-.24Zm6.53-11.45a7.49,7.49,0,0,0,1.13-.08l.88-.16a2.88,2.88,0,0,1,.89,0,4.12,4.12,0,0,1,1.13.28,7.1,7.1,0,0,0,1.09,1.17,1,1,0,0,1,.44,1.09,1.72,1.72,0,0,1-.4.8c-.27.38-.57.78-.89,1.21s-.64.89-1,1.37a4.78,4.78,0,0,0-.64,1.29c-1.13,0-2.26,0-3.39,0s-2.53.1-4.19.2c-1.13.17-2.37.33-3.71.49s-2.69.34-4,.52-2.61.39-3.79.61-2.21.43-3.07.64a1.12,1.12,0,0,0-1,.24.56.56,0,0,0-.16.41c-1.13.11-2.09.19-2.87.24a8.9,8.9,0,0,0-2.94.89.61.61,0,0,0-.24-.77.7.7,0,0,1-.24-.85,2.4,2.4,0,0,1,.24-.8,8.58,8.58,0,0,1,.65-1.21,15.3,15.3,0,0,1,.92-1.33,5.11,5.11,0,0,1,1.09-1.09,6.08,6.08,0,0,1,1.85-.61q1.14-.2,2.34-.36c.81-.11,1.59-.24,2.34-.4a5.34,5.34,0,0,0,2-.89,4.68,4.68,0,0,0,1.61,0c.37-.08,1-.17,1.77-.28l.81-.32a7.82,7.82,0,0,0,1.61-.81q0-.24.81-.36a15.39,15.39,0,0,1,1.85-.16q1.05,0,2,0a5.61,5.61,0,0,1,1.17.12c.69-.32,1.31-.59,1.85-.81A5.59,5.59,0,0,1,461.69,109.21Z"/><path class="cls-1" d="M502,92.2h3.79a3.58,3.58,0,0,1,2.86,1.41,11.19,11.19,0,0,1,1.85,3.18,20.51,20.51,0,0,1,1,3.35,14.16,14.16,0,0,1,.32,1.89,4.4,4.4,0,0,0,.09,1,2.82,2.82,0,0,0,.24.69,4.14,4.14,0,0,0,.32.56,2.67,2.67,0,0,1-.08.57,2.24,2.24,0,0,1-.57,1,6.43,6.43,0,0,1-.08,1.09.53.53,0,0,1-.56.53q-.4,0-1.29-.93c-.59-.62-1.21-1.3-1.85-2.06-.76-.91-1.59-1.93-2.5-3.06a21.76,21.76,0,0,0-2.38-1c-1-.37-1.95-.73-2.86-1-1.13-.37-2.29-.72-3.47-1.05a14.38,14.38,0,0,0-5.12,1,14.9,14.9,0,0,0-4.6,2.82,16.25,16.25,0,0,0-3.46,4.52,15.19,15.19,0,0,0-1.66,6,8.29,8.29,0,0,1-.32,2.58,6.68,6.68,0,0,0-.32,2.09c0,.75,0,1.39.08,1.9a6.74,6.74,0,0,0,.56,1.89,23.18,23.18,0,0,0,1.62,3.63,19.67,19.67,0,0,0,2.46,3.59,13.52,13.52,0,0,0,3.18,2.74,7.18,7.18,0,0,0,3.79,1.09l2.9-1a4.64,4.64,0,0,0,2.46-.85,2.72,2.72,0,0,0,1.33-2.46v-1.61c-.11-.64-.24-1.3-.4-2a10.39,10.39,0,0,0-.73-2.06,18.47,18.47,0,0,0-1.57-2.3,5.54,5.54,0,0,0-1.57-1.49c-.75-.27-1.13-.64-1.13-1.13a.59.59,0,0,1,.36-.52,2.43,2.43,0,0,1,.85-.28,8.24,8.24,0,0,1,1.29-.09h9a4.12,4.12,0,0,0,.93-.08c.24,0,.49-.12.76-.2a10.73,10.73,0,0,1,1-.24,10.18,10.18,0,0,1,1.77-.12,6.19,6.19,0,0,1,1.05.4,2.57,2.57,0,0,1,.77.49.89.89,0,0,1,.36.64,5.17,5.17,0,0,1-.4,1.57c-.27.73-.57,1.09-.89,1.09h-.89a3.48,3.48,0,0,0-2.78,1.29,3.85,3.85,0,0,0-1.09,2.34v4.68a3.23,3.23,0,0,1-.32,1.61,3.79,3.79,0,0,0-.32,1.77,9.74,9.74,0,0,1,.24,1.29,6.35,6.35,0,0,1,0,1.25,3.76,3.76,0,0,1-.28,1.25,1.26,1.26,0,0,1-.36.93,9.85,9.85,0,0,1-.77.68,8.91,8.91,0,0,1-1.13.65l-5.4.89h-1.29a6.53,6.53,0,0,1-1-.12c-.46-.08-.94-.19-1.45-.33a15.28,15.28,0,0,0-1.61-.32,11.33,11.33,0,0,0-1.57-.12H489a5.36,5.36,0,0,1-1.13-.16,5.88,5.88,0,0,1-1.37-.49,14.1,14.1,0,0,0-2.42-.56,14.6,14.6,0,0,0-1.85-.16,1.66,1.66,0,0,0-.77-.52l-1.13-.45a7.92,7.92,0,0,1-1.13-.56,1.88,1.88,0,0,1-.76-.89,4.66,4.66,0,0,1-1.66-1.65,29.85,29.85,0,0,1-2-3.19,32.22,32.22,0,0,1-1.69-3.58,8.41,8.41,0,0,1-.73-3v-1.37a3.88,3.88,0,0,0-.44-1.57,3.76,3.76,0,0,1-.45-1.57V112.6c.33-.86.62-1.67.89-2.42s.42-1.31.6-2a6.36,6.36,0,0,0,.29-1.65l.64-1.37a6.86,6.86,0,0,1,1.37-3.79,22.67,22.67,0,0,1,3.27-3.79,21,21,0,0,1,3.95-2.94A7.44,7.44,0,0,1,486,93.49l1.21-.16,1-.16a4.52,4.52,0,0,1,.81-.09h.89a8.73,8.73,0,0,0,1.73-.12,5.93,5.93,0,0,0,1-.32,5.74,5.74,0,0,1,1.17-.32A13.56,13.56,0,0,1,496,92.2H502Z"/><path class="cls-1" d="M376.71,189.11a17.34,17.34,0,0,1,1.77.08,2.47,2.47,0,0,1,1.37.64,3.71,3.71,0,0,1,1.33,1.17,4,4,0,0,0,.93,1.09,2.86,2.86,0,0,0,1.69,2,6.16,6.16,0,0,1,2.1,1.17,12.32,12.32,0,0,1,1.89,2c.62.78,1.25,1.6,1.9,2.46s1.26,1.69,1.85,2.5a13.53,13.53,0,0,0,1.78,2,16.72,16.72,0,0,1,2.05,2.86,6.47,6.47,0,0,0,2.71,2.46c.32.27.93.88,1.85,1.85s1.92,2,3,3.11,2.17,2.08,3.19,2.94a4.38,4.38,0,0,0,2.42,1.29,1,1,0,0,0,.76-.24.92.92,0,0,0,.2-.61,2.27,2.27,0,0,0-.12-.72,2.09,2.09,0,0,1-.12-.61v-6.05a4.14,4.14,0,0,1,.45-1.69,5.65,5.65,0,0,0,.44-2.34v-6.77a8.54,8.54,0,0,1-.89-.81l-1.13-1.16c-.37-.41-.74-.77-1.09-1.09s-.6-.49-.76-.49h-1.53a2.82,2.82,0,0,1-1.13-.28,6.5,6.5,0,0,1-1.21-.68,7.31,7.31,0,0,1-.93-.77c-.24-.24-.36-.42-.36-.52v-2.5a2.1,2.1,0,0,1,.36-1.29,1.94,1.94,0,0,1,.93-.69,4.64,4.64,0,0,1,1.21-.24c.43,0,.8,0,1.13,0h1.53a12.29,12.29,0,0,1,1.49.12l1.94.24,1.93.24a13.06,13.06,0,0,0,1.65.12h11.21a6.57,6.57,0,0,1,3,.73A2.51,2.51,0,0,1,429,193a5.71,5.71,0,0,1-.08,1.09,3.49,3.49,0,0,1-.56,1.17,6.07,6.07,0,0,1-3.59,1c-1.15-.08-2.27-.12-3.34-.12l-2.26.65h-1.37c-.43,0-.8.31-1.09.93a4.41,4.41,0,0,0-.44,2V212a5,5,0,0,0,.32,1.45,5.25,5.25,0,0,1,.32,1.45v4.51l-1.37,7.82a5.73,5.73,0,0,0,.2,1.29c.14.54.3,1.09.48,1.66s.35,1.1.49,1.61a5.37,5.37,0,0,1,.2,1.25c0,.21,0,.59,0,1.13s-.08,1.07-.16,1.61a5,5,0,0,1-.41,1.41.86.86,0,0,1-.76.61H414.4c-.51,0-1,0-1.57-.08a9.25,9.25,0,0,1-1.41-.25c-.41-.1-.61-.24-.61-.4a9.8,9.8,0,0,1-1.89-2.74,7.47,7.47,0,0,0-1.9-2.58,17.09,17.09,0,0,0-1.69-2l-1.57-1.53a17.48,17.48,0,0,1-1.45-1.53,7.46,7.46,0,0,1-1.17-1.93,12.76,12.76,0,0,0-2.74-3.87q-1.86-1.86-3.91-3.71c-1.37-1.24-2.72-2.49-4-3.75a19.37,19.37,0,0,1-3.19-3.91,2.17,2.17,0,0,0-.24-.77,4.67,4.67,0,0,0-.65-1,5.93,5.93,0,0,0-.92-.88,1.79,1.79,0,0,0-1.09-.41c-1,0-1.53.81-1.53,2.42v9.19l.64,4.52a13.59,13.59,0,0,1-.12,2.22,10,10,0,0,0-.12,1.81,2.81,2.81,0,0,0,.93,2.3,6.35,6.35,0,0,0,2.29,1.17,18.54,18.54,0,0,0,3,.6c1,.14,2,.31,2.94.52a6.47,6.47,0,0,1,2.3,1,2.34,2.34,0,0,1,.93,2c0,.43-.14.68-.41.76a3.43,3.43,0,0,1-1,.12H385l-5.16.73a2.65,2.65,0,0,0-1.61-.64c-.64-.06-1.16-.09-1.53-.09h-1.53a5.32,5.32,0,0,1-2.5-.44,4.22,4.22,0,0,0-2-.44h-2.9l-.65.88H365.5c0-.21,0-.57,0-1.08s0-1,0-1.5-.08-1.2-.08-1.85a1.36,1.36,0,0,1,.73-1.13,2.4,2.4,0,0,1,1.29-.48h1.73a2.17,2.17,0,0,0,.56,0l.17,0,.48,0c.29,0,.81,0,1.53,0h3.35a1.36,1.36,0,0,0,1-.37,2.79,2.79,0,0,0,.65-.84,3.39,3.39,0,0,0,.32-1,4.71,4.71,0,0,0,.08-.77,2.78,2.78,0,0,1-.24-.64,2.51,2.51,0,0,1-.24-1.13,13.33,13.33,0,0,0-.12-2,7.88,7.88,0,0,0-.32-1.33c-.14-.37-.25-.71-.33-1a4.26,4.26,0,0,1-.12-1.09,9.52,9.52,0,0,1,.12-1.37,14.27,14.27,0,0,1,.29-1.45l.48-1.62v-5.4a6.31,6.31,0,0,0-.12-1.13,2.54,2.54,0,0,0-.77-1.29c0-.64.14-1,.41-1.21a.92.92,0,0,1,.48-.16,5.88,5.88,0,0,0-.32-.88c-.16-.38-.34-.76-.53-1.13s-.35-.73-.48-1.05a2,2,0,0,1-.2-.73,2.93,2.93,0,0,0-1.29-2.58A26.51,26.51,0,0,0,371,197a17.33,17.33,0,0,1-2.86-1.85,3.72,3.72,0,0,1-1.29-3.07c.22-.53.43-1,.65-1.45a11.12,11.12,0,0,1,.68-1,1.11,1.11,0,0,1,.93-.48Z"/><path class="cls-1" d="M455.16,217.41a3.59,3.59,0,0,0,1.77-.49,2.75,2.75,0,0,1,2.26,0,7.75,7.75,0,0,1,1.61-.88,5.62,5.62,0,0,1,2.66-.24,2.19,2.19,0,0,0-.16.48,5.59,5.59,0,0,0-.08,1.13,3.06,3.06,0,0,1-.24.88,8.7,8.7,0,0,1-.69,1.42,10.35,10.35,0,0,1-1.13,1.57,5.79,5.79,0,0,1-1.49,1.29h-4c-.22,0-.56,0-1.05,0l-1.57.12a10.2,10.2,0,0,0-1.61.28,4.54,4.54,0,0,0-1.17.45,4.41,4.41,0,0,1-2.26.44,8.75,8.75,0,0,0-2.9.44,9.26,9.26,0,0,0-2.34.41,5,5,0,0,1-2.18.24,4.24,4.24,0,0,1-2.3.52c-.88,0-1.89,0-3,0l-1.13-.24a6.41,6.41,0,0,1,.08-.77c.06-.35.14-.72.25-1.13a6.44,6.44,0,0,1,.4-1.12,2,2,0,0,1,.56-.77c1.72-.59,3.46-1.14,5.2-1.65s3.46-.93,5.12-1.25a4.19,4.19,0,0,1,2.22-.25,8,8,0,0,0,2.94-.24ZM461.69,206a7.49,7.49,0,0,0,1.13-.08l.88-.16a2.88,2.88,0,0,1,.89,0,4.12,4.12,0,0,1,1.13.28,7.1,7.1,0,0,0,1.09,1.17,1,1,0,0,1,.44,1.09,1.72,1.72,0,0,1-.4.8c-.27.38-.57.78-.89,1.21s-.64.89-1,1.37a4.78,4.78,0,0,0-.64,1.29c-1.13,0-2.26,0-3.39,0s-2.53.1-4.19.2c-1.13.17-2.37.33-3.71.49s-2.69.34-4,.52-2.61.39-3.79.61-2.21.43-3.07.64a1.12,1.12,0,0,0-1,.24.56.56,0,0,0-.16.41c-1.13.11-2.09.19-2.87.24a8.9,8.9,0,0,0-2.94.89.61.61,0,0,0-.24-.77.7.7,0,0,1-.24-.85,2.4,2.4,0,0,1,.24-.8,8.58,8.58,0,0,1,.65-1.21,15.3,15.3,0,0,1,.92-1.33,5.11,5.11,0,0,1,1.09-1.09,6.08,6.08,0,0,1,1.85-.61q1.14-.19,2.34-.36c.81-.11,1.59-.24,2.34-.4a5.34,5.34,0,0,0,2-.89,4.68,4.68,0,0,0,1.61,0c.37-.08,1-.17,1.77-.28l.81-.32a7.82,7.82,0,0,0,1.61-.81q0-.24.81-.36a15.39,15.39,0,0,1,1.85-.16q1.05,0,2,0a5.61,5.61,0,0,1,1.17.12c.69-.32,1.31-.59,1.85-.81A5.59,5.59,0,0,1,461.69,206Z"/><path class="cls-1" d="M502,189h3.79a3.58,3.58,0,0,1,2.86,1.41,11.19,11.19,0,0,1,1.85,3.18,20.51,20.51,0,0,1,1,3.35,14.16,14.16,0,0,1,.32,1.89,4.4,4.4,0,0,0,.09,1,2.82,2.82,0,0,0,.24.69,4.14,4.14,0,0,0,.32.56,2.67,2.67,0,0,1-.08.57,2.24,2.24,0,0,1-.57,1,6.43,6.43,0,0,1-.08,1.09.53.53,0,0,1-.56.53q-.4,0-1.29-.93c-.59-.62-1.21-1.3-1.85-2.06s-1.59-1.93-2.5-3.06a21.76,21.76,0,0,0-2.38-1c-1-.37-1.95-.73-2.86-1.05-1.13-.37-2.29-.72-3.47-1a14.38,14.38,0,0,0-5.12,1,14.9,14.9,0,0,0-4.6,2.82,16.25,16.25,0,0,0-3.46,4.52,15.19,15.19,0,0,0-1.66,6,8.29,8.29,0,0,1-.32,2.58,6.68,6.68,0,0,0-.32,2.09c0,.75,0,1.39.08,1.9a6.74,6.74,0,0,0,.56,1.89,23.18,23.18,0,0,0,1.62,3.63,19.67,19.67,0,0,0,2.46,3.59,13.52,13.52,0,0,0,3.18,2.74,7.18,7.18,0,0,0,3.79,1.09l2.9-1a4.64,4.64,0,0,0,2.46-.85,2.72,2.72,0,0,0,1.33-2.46V223c-.11-.64-.24-1.3-.4-2a10.39,10.39,0,0,0-.73-2.06,18.47,18.47,0,0,0-1.57-2.3,5.54,5.54,0,0,0-1.57-1.49c-.75-.27-1.13-.64-1.13-1.13a.59.59,0,0,1,.36-.52,2.43,2.43,0,0,1,.85-.28,8.24,8.24,0,0,1,1.29-.09h9a4.12,4.12,0,0,0,.93-.08c.24-.05.49-.12.76-.2a10.73,10.73,0,0,1,1-.24,10.18,10.18,0,0,1,1.77-.12,6.19,6.19,0,0,1,1.05.4,2.57,2.57,0,0,1,.77.49.89.89,0,0,1,.36.64,5.17,5.17,0,0,1-.4,1.57c-.27.73-.57,1.09-.89,1.09h-.89a3.48,3.48,0,0,0-2.78,1.29,3.85,3.85,0,0,0-1.09,2.34V225a3.23,3.23,0,0,1-.32,1.61,3.79,3.79,0,0,0-.32,1.77,9.74,9.74,0,0,1,.24,1.29,6.35,6.35,0,0,1,0,1.25,3.76,3.76,0,0,1-.28,1.25,1.26,1.26,0,0,1-.36.93,9.85,9.85,0,0,1-.77.68,8.91,8.91,0,0,1-1.13.65l-5.4.89h-1.29a6.53,6.53,0,0,1-1-.12c-.46-.08-.94-.19-1.45-.33a15.28,15.28,0,0,0-1.61-.32,11.33,11.33,0,0,0-1.57-.12H489a5.36,5.36,0,0,1-1.13-.16,5.88,5.88,0,0,1-1.37-.49,14.1,14.1,0,0,0-2.42-.56,14.6,14.6,0,0,0-1.85-.16,1.66,1.66,0,0,0-.77-.52l-1.13-.45a7.92,7.92,0,0,1-1.13-.56,1.88,1.88,0,0,1-.76-.89A4.66,4.66,0,0,1,476.8,229a29.85,29.85,0,0,1-2-3.19,32.22,32.22,0,0,1-1.69-3.58,8.41,8.41,0,0,1-.73-3v-1.37a3.88,3.88,0,0,0-.44-1.57,3.76,3.76,0,0,1-.45-1.57v-5.32c.33-.86.62-1.67.89-2.42s.42-1.31.6-2a6.36,6.36,0,0,0,.29-1.65l.64-1.37a6.86,6.86,0,0,1,1.37-3.79,22.67,22.67,0,0,1,3.27-3.79,21,21,0,0,1,3.95-2.94,7.44,7.44,0,0,1,3.51-1.17l1.21-.16,1-.16a4.52,4.52,0,0,1,.81-.09h.89a8.73,8.73,0,0,0,1.73-.12,5.93,5.93,0,0,0,1-.32,5.74,5.74,0,0,1,1.17-.32A13.56,13.56,0,0,1,496,189H502Z"/><path class="cls-1" d="M394.77,286.58a24.51,24.51,0,0,1,8.14,1.38,22.62,22.62,0,0,1,7.06,3.91,18.87,18.87,0,0,1,4.95,6.2,17.88,17.88,0,0,1,1.86,8.19l-.65,3.87v5.32a3.8,3.8,0,0,1-.48,1.53,3.8,3.8,0,0,0-.48,1.61c-.33.7-.62,1.4-.89,2.1s-.56,1.22-.89,1.89a11.62,11.62,0,0,1-1.13,1.9,6.19,6.19,0,0,1-1.08,1.45,12.28,12.28,0,0,1-1.78,1.53,12.79,12.79,0,0,1-2,1.21,4.84,4.84,0,0,1-2,.48H403.8a6.36,6.36,0,0,0-1.77.25c-.6.16-1.17.33-1.74.52l-1.49.52a2.89,2.89,0,0,1-.89.25h-2.17a7.05,7.05,0,0,0-2.38.36,5.29,5.29,0,0,1-1.74.36h-11.2c-.32.16-.62.32-.89.49a3.56,3.56,0,0,1-1.53.4l-2.26-.89h-2.26l-2.17.89a3.27,3.27,0,0,1-1.49-.53,7.27,7.27,0,0,1-1.5-1.08l-1,0a4.78,4.78,0,0,1-1.25-.25,2.81,2.81,0,0,1-1.09-.64,1.63,1.63,0,0,1-.49-1.25,1.7,1.7,0,0,1,.57-1.21,5.67,5.67,0,0,1,1.29-1c.59-.32,1.23-.64,1.93-1h2.26l3.79-.88c.43.16.83.32,1.21.48a5.08,5.08,0,0,0,1.77.4,1.53,1.53,0,0,0,1.25-.52,3.31,3.31,0,0,0,.65-1.25,7.35,7.35,0,0,0,.24-1.49c0-.51,0-.93,0-1.25v-4.92a2.64,2.64,0,0,0-.32-1c-.11-.21-.22-.4-.32-.56v-5a5.1,5.1,0,0,1,.32-1.61,7,7,0,0,0,.32-2.18v-6.93a8.39,8.39,0,0,0-.72-3.67c-.49-1-1.51-1.49-3.07-1.49a2.29,2.29,0,0,0-.8.12l-.61.24a3.84,3.84,0,0,1-.6.2,3.6,3.6,0,0,1-.89.08l-2.26-.64h-1.53a2.85,2.85,0,0,1-1.41-.53c-.56-.34-.85-.68-.85-1a2.54,2.54,0,0,1,1.33-2.1,13.79,13.79,0,0,1,3-1.49,20.55,20.55,0,0,1,3.3-.89,15.27,15.27,0,0,1,2.18-.28H378a2,2,0,0,1,1.21.44,1.89,1.89,0,0,0,1.21.45,8.59,8.59,0,0,0,1.21-.41l1-.32a3,3,0,0,1,.92-.16h4.52c1.07-.11,2.07-.21,3-.32q1.13-.17,2.22-.24C394,286.61,394.5,286.58,394.77,286.58ZM391,294.4a3.18,3.18,0,0,0-1,.33,8.15,8.15,0,0,0-1.49.88,10.11,10.11,0,0,0-1.37,1.21,1.87,1.87,0,0,0-.6,1.21,3.09,3.09,0,0,1,.32.41,2,2,0,0,1,.32,1.12V320a3.86,3.86,0,0,1,.4,1.37c.06.49.12.94.2,1.37a3,3,0,0,0,.45,1.13,1.73,1.73,0,0,0,1.21.65h.88a8.25,8.25,0,0,0,.85-.08c.4-.06.83-.11,1.29-.16l1.33-.17a9.44,9.44,0,0,1,1-.08,11.19,11.19,0,0,0,5.84-1.57,12.85,12.85,0,0,0,3.91-3.75,16.14,16.14,0,0,0,2.26-4.83,20.73,20.73,0,0,0,.81-4.84,11.66,11.66,0,0,0-.81-4.27,25.67,25.67,0,0,0-2.17-4.64,13.44,13.44,0,0,0-2.67-3.31c-.91-.78-1.64-.9-2.17-.36-.32-.21-.62-.43-.89-.64l-.76-.49a1.23,1.23,0,0,0-.61-.24h-.73Z"/><path class="cls-1" d="M444.11,314.16a3.59,3.59,0,0,0,1.77-.49,2.75,2.75,0,0,1,2.26,0,7.75,7.75,0,0,1,1.61-.88,5.68,5.68,0,0,1,2.67-.24,2.11,2.11,0,0,0-.17.48,5.59,5.59,0,0,0-.08,1.13,3.06,3.06,0,0,1-.24.88,9.48,9.48,0,0,1-.68,1.42,12,12,0,0,1-1.13,1.57,6.14,6.14,0,0,1-1.49,1.29h-4c-.21,0-.56,0-1,0l-1.58.12a10.2,10.2,0,0,0-1.61.28,4.54,4.54,0,0,0-1.17.45,4.38,4.38,0,0,1-2.25.44,8.77,8.77,0,0,0-2.91.44,9.26,9.26,0,0,0-2.34.41,5,5,0,0,1-2.17.24,4.26,4.26,0,0,1-2.3.52c-.89,0-1.89,0-3,0l-1.13-.24a4.82,4.82,0,0,1,.08-.77,9.61,9.61,0,0,1,.24-1.13,7.39,7.39,0,0,1,.4-1.12,2,2,0,0,1,.57-.77q2.58-.88,5.2-1.65t5.12-1.25a4.19,4.19,0,0,1,2.22-.25,8,8,0,0,0,2.94-.24Zm6.53-11.45a7.4,7.4,0,0,0,1.13-.08l.89-.16a2.82,2.82,0,0,1,.88,0,4,4,0,0,1,1.13.28,8.08,8.08,0,0,0,1.09,1.17,1,1,0,0,1,.45,1.09,1.77,1.77,0,0,1-.41.8l-.88,1.21c-.33.43-.65.89-1,1.37a4.85,4.85,0,0,0-.65,1.29c-1.13,0-2.26,0-3.38,0s-2.53.1-4.2.2c-1.13.17-2.36.33-3.71.49s-2.68.34-4,.52-2.6.39-3.79.61-2.2.43-3.06.64a1.14,1.14,0,0,0-1,.24.56.56,0,0,0-.16.41c-1.13.11-2.08.19-2.86.24a8.83,8.83,0,0,0-2.94.89.63.63,0,0,0-.24-.77.7.7,0,0,1-.25-.85,2.25,2.25,0,0,1,.25-.8,8.45,8.45,0,0,1,.64-1.21c.27-.43.58-.87.93-1.33a5.11,5.11,0,0,1,1.09-1.09,6.08,6.08,0,0,1,1.85-.61q1.13-.19,2.34-.36c.8-.11,1.58-.24,2.34-.4a5.23,5.23,0,0,0,2-.89,4.68,4.68,0,0,0,1.61,0c.38-.08,1-.17,1.78-.28l.8-.32a7.91,7.91,0,0,0,1.62-.81c0-.16.27-.28.8-.36a15.76,15.76,0,0,1,1.86-.16c.7,0,1.35,0,2,0a5.52,5.52,0,0,1,1.17.12q1.05-.48,1.86-.81A5.5,5.5,0,0,1,450.64,302.71Z"/><path class="cls-1" d="M510,284.08c.16,0,.34.21.53.61a11.17,11.17,0,0,1,.52,1.41,16.44,16.44,0,0,1,.4,1.61,6.59,6.59,0,0,1,.16,1.13v5.81c0,.21,0,.62,0,1.21a9.68,9.68,0,0,1-.24,1.81,4.68,4.68,0,0,1-.68,1.65,1.49,1.49,0,0,1-1.29.73,2.68,2.68,0,0,1-2-.61,3.63,3.63,0,0,1-.89-1.53,15.72,15.72,0,0,1-.44-2,8,8,0,0,0-.56-2,3.64,3.64,0,0,0-1.25-1.53,4.4,4.4,0,0,0-2.54-.61h-4.44a5.75,5.75,0,0,0-.88.08,4.43,4.43,0,0,0-.89.25l-1,.32a3.24,3.24,0,0,0-2.62,1.09,4,4,0,0,0-.93,2.7v3.87c0,.43,0,.82,0,1.17a1.33,1.33,0,0,0,.45,1l-.41,3.14v13.06a11.54,11.54,0,0,0,.25,2.62,5.52,5.52,0,0,0,.64,1.65,5,5,0,0,0,.89,1.09l.88.85c.81.27,1.54.52,2.18.77a6.77,6.77,0,0,0,2.34.36,7.09,7.09,0,0,1,3.63,1.49,3.48,3.48,0,0,1,1.29,2.26,2.78,2.78,0,0,1-.89,2.17,4.62,4.62,0,0,1-2.9,1.25,4.18,4.18,0,0,1-1.41-.24c-.46-.16-.9-.29-1.33-.4a13.33,13.33,0,0,0-1.61-.08c-.6,0-1.2,0-1.82,0a13.87,13.87,0,0,1-1.77-.2,4.21,4.21,0,0,1-1.49-.57h-7.66a8.78,8.78,0,0,0-2,.45,11.92,11.92,0,0,1-3.35.44c-.86,0-1.64,0-2.33-.08s-1.2-.1-1.82-.12-1,0-1.25,0a.74.74,0,0,0-.64.32c-.16.21-.7.32-1.61.32a.89.89,0,0,1-.33-.32,1,1,0,0,1-.24-.36,1.87,1.87,0,0,1-.08-.61,11.59,11.59,0,0,1,.81-1.77c.27-.49.57-1,.92-1.53a9.36,9.36,0,0,1,1.17-1.46c.76-.26,1.45-.51,2.1-.72s1.06-.4,1.57-.57a4.46,4.46,0,0,1,1-.24l3.87-.88c.37,0,.67-.26.89-.77a8.33,8.33,0,0,0,.48-1.65,16.39,16.39,0,0,0,.16-2.5v-8.55a3.89,3.89,0,0,1,.32-1.13l.33-.64V298.68a7,7,0,0,1,.12-1.29,6.61,6.61,0,0,0,.12-1.21,1.93,1.93,0,0,0-.24-.73,5.42,5.42,0,0,0-.65-1,4.42,4.42,0,0,0-.93-.85,1.89,1.89,0,0,0-1.09-.36h-8.94a4.79,4.79,0,0,0-2.62.6,4.15,4.15,0,0,0-1.42,1.53,8.2,8.2,0,0,0-.72,2,12.47,12.47,0,0,1-.61,2,4.15,4.15,0,0,1-1,1.54,2.77,2.77,0,0,1-1.94.6,1.83,1.83,0,0,1-1.73-.93,3.91,3.91,0,0,1-.53-2,8.63,8.63,0,0,1,.09-1c.05-.46.12-.93.2-1.41s.16-.94.24-1.37a5.9,5.9,0,0,0,.12-.89l1-3.87a10.64,10.64,0,0,1,.12-1.09,12.7,12.7,0,0,1,.4-1.81,8,8,0,0,1,.69-1.69,1.13,1.13,0,0,1,1-.73,3.06,3.06,0,0,1,1.66.4l1.33.89a4.75,4.75,0,0,0,1,.65,3.46,3.46,0,0,0,1.42.24,8.28,8.28,0,0,0,1.45-.2,7.51,7.51,0,0,1,1.45-.21h1.61a1.31,1.31,0,0,0,.56.21,5.8,5.8,0,0,1,.73.12,4.91,4.91,0,0,0,.89.08h12.17l2.18-.41,2.26.41a32.87,32.87,0,0,0,3.5-.2,29.86,29.86,0,0,1,3.43-.21h3.87a7.6,7.6,0,0,0,2.58-.4,14.9,14.9,0,0,0,2-.85,8.88,8.88,0,0,0,1.38-.84A1.61,1.61,0,0,1,510,284.08Z"/><path class="cls-1" d="M590.18,589.09h-580V10.91h580Zm-579-1h578V11.91h-578Z"/><path class="cls-1" d="M592.11,585.89c0,3.41.39,2.19.46,2.7C592.48,582.88,592,586,592.11,585.89Z"/><polygon class="cls-1" points="591.16 529.53 591.33 530.53 590.91 522.23 591.16 529.53"/><path class="cls-1" d="M591.17,476.84c-.71,5,.12,19.09-.14,28.48l-.16,1.55.57,4.23C591.35,499.69,591,484.87,591.17,476.84Z"/><path class="cls-1" d="M592.71,448.74c-.27,1.73-.24-6.08-.08,6.55,0-.63,0-.82.07-1.19C592.7,453,592.71,451.4,592.71,448.74Z"/><path class="cls-1" d="M592.7,454.1c0,5.55.23-3.63,0,0Z"/><path class="cls-1" d="M592.54,428.47l.25,7.31c.16-1.52.2-8,.32-5.61C593,422.67,592.81,424.21,592.54,428.47Z"/><path class="cls-1" d="M592,421.54l.1,3.79A19.87,19.87,0,0,0,592,421.54Z"/><path class="cls-1" d="M592.34,433.36l-.22-8a8.41,8.41,0,0,0,.08,3.69C592,428.36,592.19,430,592.34,433.36Z"/><path class="cls-1" d="M592.23,437.91c-.15,4.1-.25,9.4-.5,2.06C591.83,454,592.33,451.9,592.23,437.91Z"/><path class="cls-1" d="M590.43,474.15l-.21,5.48.24,4.74C590.34,482,590.66,473.81,590.43,474.15Z"/><path class="cls-1" d="M592.91,382.93c-.15-.45-.41,2.46-.6,3l.17,5.4C592.59,388.56,592.68,383.3,592.91,382.93Z"/><path class="cls-1" d="M592.31,385.94l-.26-8.08C592,385.08,592.14,386.39,592.31,385.94Z"/><polygon class="cls-1" points="591.23 420.24 591.77 433.51 591.22 417.68 591.23 420.24"/><polygon class="cls-1" points="592.93 352.08 593.28 356.66 592.75 348.5 592.93 352.08"/><path class="cls-1" d="M592.87,331.61c.29,3.39.49-4.64.67-1.06,0-5.56-.31-10.31-.53-14.58C593.14,320.51,593.1,325.35,592.87,331.61Z"/><path class="cls-1" d="M592.68,308.79c.07,2.27.2,4.62.33,7.18C592.94,313.56,592.85,311.18,592.68,308.79Z"/><path class="cls-1" d="M592.12,364.1a41.39,41.39,0,0,0,.44-6.36l-.43,3.18C592.13,361.89,592.13,363,592.12,364.1Z"/><path class="cls-1" d="M592.12,361v-.11c0-3.45,0-5.84,0-6.87C592.15,354.93,592.14,357,592.12,361Z"/><path class="cls-1" d="M592.12,364.9v-.8A2.39,2.39,0,0,0,592.12,364.9Z"/><path class="cls-1" d="M591.61,399.06c-.24-4.75-.49-14.64-.86-5.07C591,397.4,591.25,391.92,591.61,399.06Z"/><path class="cls-1" d="M591.59,368.84l-.1,8.59c.11-.17.28-1.72.4.63Z"/><polygon class="cls-1" points="591.45 364.64 591.59 368.84 591.62 365.66 591.45 364.64"/><path class="cls-1" d="M592.28,323.49c-.18-3.71-.2-7.76-.23-12.34-.08,4.91-.13,10-.13,14.8C592.06,326.63,592.3,328.75,592.28,323.49Z"/><path class="cls-1" d="M592.16,341.73c0-.25,0-.58,0-.82C592.1,341.41,592.09,341.82,592.16,341.73Z"/><path class="cls-1" d="M592.05,266.06c0,.25,0,.46-.07.72,0,.06,0,.1.07.17Z"/><path class="cls-1" d="M591.84,326.78c-.08,3.69,0,5.89.16,8,0-2.76-.07-5.68-.08-8.82C591.86,325.65,591.82,325.59,591.84,326.78Z"/><path class="cls-1" d="M592.48,296.21c-.07,1.92-.15,4.1-.23,6.39C592.38,300.72,592.59,296.89,592.48,296.21Z"/><path class="cls-1" d="M592.26,339.66c0,.19,0,.36,0,.56C592.37,339,592.32,339.16,592.26,339.66Z"/><path class="cls-1" d="M592.26,339.66c-.06-1.89-.17-3.39-.26-4.89,0,2.25.08,4.33.14,6.14C592.17,340.45,592.22,340,592.26,339.66Z"/><path class="cls-1" d="M589.31,252.39c.4.66.76,10.36.34,18.73.3,8.24,1.6,2.85,2.33-4.34-.18-.26-.34-.26-.57-8.74-.22,3-.51,18.82-.86,11.67-.21-11.24.14-9.21.35-14.67-.5,4.64-.72-14.29-1.45-11.84l.26,9.85C589.59,253.23,589.41,249.66,589.31,252.39Z"/><path class="cls-1" d="M591.94,282.94l0,3.49c.06-4,.22-6.83.53-12.07-.19-5.81-.34-7-.47-7.41l0,17.18Z"/><path class="cls-1" d="M592,302.09c-.43-2.72-.62-11.1-1.08-6,0,10.24.36,7.18.54,13.3-.1-16.53.24,4.74.49-7.2.07,3.25.09,6.17.11,8.93.07-3,.14-5.85.2-8.55,0,.15,0,.26,0,.38V303c-.06.71-.09.95-.06.15,0-.06,0-.26,0-.35a3.38,3.38,0,0,1-.16-.75c.09-4.78.11-.75.16.75,0,.06,0,.19.07.2V303L592,286.43C591.93,289.93,591.94,294.32,592,302.09Z"/><path class="cls-1" d="M589.83,385.16c0-.51.06-.49.1-.53C589.87,383.56,589.84,383.16,589.83,385.16Z"/><path class="cls-1" d="M590.09,378.35a58.85,58.85,0,0,1,.18,6.12c-.13,3.4-.2,0-.34.16.11,2.36.3,8.26.51.86l-.05-1.17c.14-6.66.68-15.22.74-14.06A64.31,64.31,0,0,0,590.09,378.35Z"/><path class="cls-1" d="M590.93,339.75,590.71,326l-.37,7,.23-.35C590.48,340.47,590.75,338.77,590.93,339.75Z"/><polygon class="cls-1" points="592.27 264.48 592.72 266.31 592.08 258.35 592.27 264.48"/><polygon class="cls-1" points="592.21 246.57 592.61 247.23 592.37 242.5 592.21 246.57"/><path class="cls-1" d="M13.09,208.16l.11,4.05C13.17,210.29,13.13,209.06,13.09,208.16Z"/><path class="cls-1" d="M13.12,178.83l-.2-.72C13,179.47,13.11,180,13.12,178.83Z"/><path class="cls-1" d="M384.89,8.92c-5.9-.37-12.49-.94-11.78-.5l1.81.43C379,8.78,382.2,8.82,384.89,8.92Z"/><path class="cls-1" d="M83.58,11.51l1.73.13,4-.41Z"/><path class="cls-1" d="M79.42,13.3,71.64,13C73.39,13.12,75.89,13.22,79.42,13.3Z"/><path class="cls-1" d="M13.55,368.31,14,373C14,365.64,13.77,368.9,13.55,368.31Z"/><path class="cls-1" d="M592.05,63.1c.17-5.09.24-9.15.27-12.71C592.07,56.53,591.69,61.48,592.05,63.1Z"/><path class="cls-1" d="M8.48,196.62c.08,2.48.17,3.53.27,3.46C8.67,197.53,8.59,196.09,8.48,196.62Z"/><path class="cls-1" d="M592.31,35.69c0,.9-.06,1.78-.1,2.69.08,3.72.13,7.47.11,12C592.5,45.86,592.62,40.68,592.31,35.69Z"/><path class="cls-1" d="M371.27,586.12l1.31,0C372.71,586.11,372.12,586.11,371.27,586.12Z"/><path class="cls-1" d="M540.48,590.49l-7,0C534.78,590.56,536.88,590.55,540.48,590.49Z"/><path class="cls-1" d="M592.4,174.49c0,3.8.05.6,0,0Z"/><path class="cls-1" d="M590.69,193a4.7,4.7,0,0,0-.21-1.52A6.93,6.93,0,0,1,590.69,193Z"/><path class="cls-1" d="M576.12,11.47h-.33C576.92,11.56,576.72,11.54,576.12,11.47Z"/><path class="cls-1" d="M592.21,180.21c0-1.43.09-3.07.12-4.86C592.3,176.13,592.26,177.61,592.21,180.21Z"/><path class="cls-1" d="M592.41,179.44c0,1.31,0,2.34,0,3.32C592.44,183.24,592.49,182.81,592.41,179.44Z"/><path class="cls-1" d="M592.38,169.2c0,2.17,0,4.2,0,6.15,0-.75.06-1.06.07-.86C592.4,173.38,592.39,171.8,592.38,169.2Z"/><path class="cls-1" d="M60.05,587.28l.82,0C64.7,587.14,63,587.17,60.05,587.28Z"/><path class="cls-1" d="M286,13.42l.44,0h-.56Z"/><path class="cls-1" d="M272.36,13.75a97.46,97.46,0,0,1,13.52-.36l-4.52-1.25Z"/><path class="cls-1" d="M13.21,278.37l.39-9.58c.65,11.56.42,19.93,1,10.94-1.36-1.36-.14-37.25-1.49-38.59l.28-6.31c0,1.81.07,2.1.06,3.89.65-12.29-1-9.13-.79-25,.1-5.52.3-9.37.46-5.6l-.34-12.3c0-3.57.27-2.7.24.86L12.88,178l0,.14c-.21-2.67-.54-8.73-.68-11.69.19-4.77.14,2.39.31,1.17l-.33-10.38c.35-4.23.7,4.37.65,11.54,1.35-9.69-.35-8.61.45-29.54l.17,9.81c.77-6.32.49-14,1-25.05-.25,2.62-1.21,22.18-1.55,10.92.1-3.18.15-7.36-.12-13.44.48-.06.36-6,.34-13.42l.64.51c-.19-8-.51-7.4-.8-12.12.06-9,.56-10.81,1-12.91.1-14.33-.79,9.89-.91-7.07.24-11.92,0-20.28-.4-34.54.22-8.34.39,1.46.57-1.53L12.69,33c0-1.81.17-1.22.25-.93-.2-6.23-.64-.51-.81-10.31A17.87,17.87,0,0,1,12,18.07c0-.87.06-1.86.09-3,0-.69.09-1.44.14-2.24L13.8,13l.8,0,1.37.05c1.83.06,3.72.11,5.62.15,3.8.06,7.63,0,11-.19,3,.18-1.44.39-.53.64,16.63-.52,14.26-.38,27.92-1.09L71.64,13c-8.55-.48,2.38-1,11.94-1.51-3-.23-5.62-.44-7.36-.53l15.27-.35c1.84.11.3.33-2.2.6l2.8-.16c5.46.24,2.63.61-1.28,1l-5.5-.39c-3.77.39-7.3.82-6.52,1.19,1-.07,2.91-.13,5-.17-1,.11-1.62.2-1.16.26s2.11-.07,4.61-.23l3.47.71.84-.28,20,.44c14.29-.71,26.72-1.77,49.4-2.07-5.63.53-1.21.86-1.52,1.48-6.18-.66-17.56.28-29.32.14,6.14.07,4.79.37,3.23.47l21-.6c-.47.51,4.45.38,9.93.59-4.14-1,15.63-.66,24.16-1,.53.34-1.51.68-11.92.6,11.48.75,14.84-1.18,26.11-.54a38.17,38.17,0,0,0-4.92.13c5.94-.3,20.45-.06,17,.23h-2.54c16.87.12,51.36,0,53.88-.85a10.45,10.45,0,0,1-3.23,1.2l30.1-2.86c-2.65.73,7.53,2.47-6.46,2.88,4,.11,9,.23,17.45,0-2.74-.1-6.83-1.06-3.08-1.12,10.28.81,7.14.43,19.81,1.13-4.11-.16.45-1.31,6.94-1.27-1,.17.54,1.13-1.83,1.25l16.16-1.12c-4,.2-.71.95,2.9,1.27-1.68-.22,14,0,18.28-.09l-6.85-.26c18.24.16,18-1.59,36.12-1.53-2.19.24-5.41,1.43,3.79,1.57A311.81,311.81,0,0,1,430.82,10l3.07.33,12.29-.38c-7.65.87-29.12,2.69-40.85,3.4,6.83.26,1.91.39,12.13.36,3.61.31-5.57.47-8.58.49l23.8.2c-1.06-.67,18.21-.68,17.3-1.24l-25.86.7c-1-.67,14.95-1.91,31.82-1.79,4.29.27-3.21,1.2-2.86,1.42,2.19-.23,16-.44,17.56-.28l-7.16.36c9.39.26,15.33-.89,26.61-.25,3.89,0,11.63.87,12.3.47C496,13,494.8,10.64,499,10.07c1.37,0,20.45.73,24.89,1.11,6.42.6-9.62,1.43-4.16,2a39.84,39.84,0,0,1,5.25-.49c4.09.16-1.69.57,7.19.49,1.49-.68,18.08.06,4.21-.58,8.69-.19,9.23.14,19.44.11-3.25-.44,9.17-1.49,17.88-1.69-.52.17,1.44.4,2.39.5l13.39.1c-.06,5.1-.12,9.69-.18,14.48s-.09,9.87-.09,15.8c-.17,1.53-.37,9.55-.66,6.13.12,2.39.35,4.59.37,9.71-.59,9.92-.09-11.42-.8-3.86.39.64.54,13.25.79,20.55.61-2.25.12-16.86-.13-24.17.85,0,1.73,12.69,2.12,30.05.21,13.81-.55,6-.43,8.38-.14,25.93,1.48,22.09.87,43.62-.54,8.54-1.07.39-1.46,2.28-.2-11.24.34-17.26.32-24.88L590,119c-.18-3.58-.32-11.08-.16-15.17-.49,7.16-.09,43.8-.54,63.8.18,3.55.37,9.69.58,6.79l-.07-6.33c.43-5.82.6,11.91.8,3.9.3,8.49.78,18,.54,30l-.62,2.24a94.82,94.82,0,0,0,.18-11.17c.27,5-.83,18.33,0,23.78l.42-8.37c.31,8.52,1,19.06.77,29.65.6-4.82-.07-2.44.64-10-.89,6.53,0-27.1-.89-16.61.82-7.73.35-13.37,1-23.47-.21.32-.39,3.58-.29-5.31-.06-.4-.14-1.35-.18-1.95l0-.6c0,.17,0,.31,0,.49,0-.39,0-.42,0,.18-.08,2.12-.19,3.83-.3,4.53-.47-4.41-.45-18.55-.69-23.34.09-5.27.23,2.21.44-.67l-.36-7.14c.45-.71.75-14,1-1.59l0-11.19c.26-6.58.36-15.64.17-21.23.09-5.28-.5-13.33-.15-8.73L592,94l.12-.16c.05-17.31-.75-35.64.06-55.43-.11-5.83-.25-11.85-.12-21.6l.19-1,.1-.48c0-.14.06-.5.1-.75,0-1.77,0-3.77,0-6l-9.19-.05-6.61-.09c-4.22,0-7.8,0-9.19.14-8.07-1.05-36.31-.23-49.47-.42l-.5.51c-9.06,0-17.74.12-29,.32l.69.45c-9.69.37-24.92-.32-40.26-.27a66.94,66.94,0,0,1,7.69,0c-18.32-1-38.65.74-55.27,0-4.14.16-7.14.11-10,0,.39,0,.73,0,1,0h-1.7l-5.75-.24c1.73.11,3.39.2,4.83.24-3.19,0-8,.06-12.78.18l-2-.49-1.1,0c-4.66-.18-3.74.23-1.26.59-2.39.08-4.58.17-6.28.29-3.78-.78-12.45.26-17.61-.57-3.2.41-23.87.31-26.4,1.16-.16-.11-1.56-.17,1-.17-5.29-.1-10.58-.2-15.32,0L305.7,9.6l-11.55.82c-7-.37-9.93-.59-3-1.06-16.84.73-13.66.27-28,1l.7-.39c-5.11,0-13.29.54-16.38.22-11.44-.76-56.63-.11-86-.81,5.7,1.17-13.66-.52-14.82.38-1.71-.27-5.81-.43-1-.67-15,.27-22.53-.44-32.88.33-1.71-.28,3.21-.41,1.68-.57a56.85,56.85,0,0,1-6.32.07c-1.53-.16,2.2-.23,4.57-.35-15.32,0-16.87.9-18,1.7a106.5,106.5,0,0,0-17.24.19c-2.7-.26-7.21-.53,2.31-.62-5.36,0-32.71-.39-33.25.25-1.68-.16-7.49,0-8.9,0l-12.51,0h-13l3.9.11c-.42.07-.84.13-1.26.17s-1,.09-1.56.12c-1.07.06-2.17.09-3.35.1,0,1.08,0,2.21,0,3.42s0,2.21-.06,3.44c-.05,2.28-.09,4.9-.06,8l-.08-.27c-.56,21.81.27,9.42-.37,30.93l.48-1.17c1,2-.61,19.06-.21,31.55l.27-4.51c.35,6.82-1.4,19.06-1.53,25.91-.09,1.49-.14-2.36-.21-4.44-.61,17.93.63,2.32.77,15.68-.34,2.47-.86-3.17-.92,5.82-.28,4.48,1.1,26.08.45,38.35.26-2.7.52-5.39.72.82.09,9.51-1,25.71-.17,34.3a6.08,6.08,0,0,1-.2,1.72c.21,7.27.35,23.63.8,28-1.66,6.72.8,45.2-.72,45l.08,22.37-.16-.59c-.1,14.3.27,19.35.63,24.38-.1,3.3-.24.89-.32.62-.31,20.89-.25,23,.51,40.48l-.49,1.82c.29,4.75-.78,30.2-.2,50.69a10.45,10.45,0,0,1-.22-2.26c.58,23.05-1.38,55.19.43,63.63l.44,15.22c.14-19.68.79,2.93,1.09-5.17.1,7.74-.55,20-.64,10.5l.09-1.49c-.94-3.49-.33,24.45-1,23.93q0,18.16-.09,36-.11,18.83-.23,37.25l43.35.19L47.94,590l12.65,0c3.32.17,4.46.57-4.57.54a82.16,82.16,0,0,0,9.39,0c3.22-.16,5.88-.39,6-.47,17.67.3-6.9.85-1.48.87l7.36-.05-1.66-.09c6-.3,6.49-.61,17.34-.58,6.87.15,3.52.45,6.23.48,0,0,.21,0,.84,0s1.68,0,3.3,0l15.94.06-6.37-.57c7.06-.29,15,0,7.63-.63,10.8,1,59.46.37,66.09.68,9.9-.42,19.67-.42,31.77-.36-3-.12-4.81-.77,5.63-.69-3.82,1.34,19.11.58,27.54,1.54-7.54-.64,29.67-.16,17.84-1.06,8.71.1.53.5,7.14.81,20.73-.52,45.68.34,71.3.16.4-.17-3.89-.44,1.6-.7l13.53.88c5.06-.09,4.66-1,13.9-.41-1.3-.15-3.25-.37.14-.42,50.19.85,102.56-.71,153.53.9-6.9-.34-2.3-.37,3-.38-3.43-.08.08-.44-.59-.68l21.33.67c3.89-.67,22.88,0,25.11-.68l-6.76.11c9-.74-12.57-1.66-11.26-2.61-10.06.84-26.53-1.26-43-.05-3.64-.19,3.11-.31,1.16-.53a161,161,0,0,1-18.6.31l1.06-.1c-26.32.1-37.6-.3-67.16-.57l2.19.47c-6.35-.06-7.69-.21-10.66-.33-7.29.72,17.84,0,11.2.83-8.43-1-44.79,0-50.49-1.11-9.77,0,2.87.55-6.9.55l-2.59-.3-2.47.38c-6.41-.06-9.64-.43-9.88-.68,1.55,0,4.42-.07,6.09-.09-8.31-.35-23.43.11-26.28,0l9.39.18c-26.67.28-59.23-.11-85,.49l2,.23c-19.67.41-15.76-.25-37.36-.06l.79-.05c-4.33.22-10.1.34-16,.31,5.45-.26-10.26-.51-3.11-.8-21.33.45-10.55.35-24.64,1.18l-3.25-.37c-4.8.34-5.21.51-16,.61,8.84-.32-6.89-.57,3-1-22.64-.81-33.61.82-44-.36-10.39,1,19.59.57,13.77.79,4.87.33-8.58.76-15.69.66s-12.29-1.31-30.48-1.29c1.81,0,1.93-.08,3.73-.07-6.8-.26-13.33.35-21.69-.07-4.68.62-10.84,0-12.19.75l16.69-.18c-9.46.21-18.33,1.13-33.92.68,1.22-.16,5.86-.37,9-.48-4.56-.24-8.77.15-13.5-.09,1.35-.79,20.28-.17,30.42-.77-4.89-.34-19.18.57-14.08-.29-7.32,1.09-17.93-.14-30.25.7l.82-.48c-1.95.08-6,.3-9.58.29l6.5-.62c-3.39.18-6.7.19-10,.12L15.55,586l-.61,0H14.5l-.38,0-.69-.07.05-.69,0-.32V584c0-1.52,0-3,0-4.58,0,2.28,0,4.06,0,5.44,0,.44,0,.78-.07,1,.66.09.45.23.15.39s-.63.32,1,.45l-2.11.08c0-.68,0-1.29,0-1.86v-2.65c0-1.73.05-3.15.1-4.38.1-2.45.27-4.14.44-6,.35-3.77.71-8.32.6-21.37.07,3.74-.28,14.06-.5,8.2.09-5.27.28-12.22.52-15.45-.09-18.33-.48,2.81-.78-5,.58-6.24-.23-9-.42-17l.49-.06c.31-20.88-1-5.53-.63-24.33l.66,7.94-.17-9.8.55,2c-.41-10.66-.3-14-.15-24.43-.34,2.43-.87-1.36-.89-10.61.29-6.31.46,3.53.39-9.58a57.88,57.88,0,0,1,.24,11.91c.16.58.3,2.92.46,3.52.33-6.8.07-17.07.07-21.82,0,1.83-.05,4-.12,5.13l-.66-19c.18-3,.32-.61.46,1.74-.05-3.85-.27-6.52-.31-12.18.39,1.47.8,1.12,1,9.13l-.43-18.11c.17-1.21.46-9.29.61-6.94.23-10-.76-24.63-.46-37.94-.07-.69-.15-2.08-.2-4.91.09-12.51.57-23.59,0-38.42l.7-8.41c-.16-11.61-.88,11.39-1.15-7.95-.22-13.68.6-5.11.8-9.91a311.4,311.4,0,0,1-.51-31.22C13.27,271.22,13.16,274.48,13.21,278.37ZM12.9,135.16c.1,2.77.42,8.31.13,10.34C12.48,142.33,12.74,139.89,12.9,135.16ZM104.67,12.44a77.8,77.8,0,0,1-8.86-.11C98.42,12.29,101.38,12.31,104.67,12.44ZM592,132.85c0-.12,0-.2,0-.3C592.18,126.36,592.1,128.56,592,132.85Zm-.21,12.85c.07,1.29.14,1.2.2.66-.12-.9-.13-3.79-.09-7.07A41.74,41.74,0,0,0,591.8,145.7ZM100.63,590.52l-2.5-.12C103.78,590.26,102.2,590.38,100.63,590.52Z"/><path class="cls-1" d="M80,13.1a3.36,3.36,0,0,1-1.19-.27C77.7,12.91,77.68,13,80,13.1Z"/><path class="cls-1" d="M13.47,367.44v.43a1.83,1.83,0,0,0,.09.44Z"/><path class="cls-1" d="M524.86,13.38c-2.64-.07-4.12-.16-5.1-.25C519.61,13.25,520.82,13.35,524.86,13.38Z"/><path class="cls-1" d="M592.62,213.81l-.12-8.23c0,4-.09,5.4-.16,7.41C592.45,212.81,592.61,211.24,592.62,213.81Z"/><path class="cls-1" d="M589.64,285.28c.05,1.2,0,2.55.06,3.74l.23-.33C589.91,283.56,589.73,280,589.64,285.28Z"/><path class="cls-1" d="M591,221.44c-.41.65-.27,5.81-.19,11.58v-1C591.39,233.7,591.21,227.56,591,221.44Z"/><path class="cls-1" d="M590.84,234.36c0,1.78,0,3.59,0,5.33C591.08,240.37,590.9,237.53,590.84,234.36Z"/><path class="cls-1" d="M592.07,162c-.1,2.74.52,1.72.35,3.27C592.94,168.32,591.8,147,592.07,162Z"/><polygon class="cls-1" points="589.68 226.11 590.18 224.04 589.78 220.81 589.68 226.11"/><path class="cls-1" d="M590.05,180.57l-.14,9.21a10.68,10.68,0,0,1,.17,2.47C590.1,186.57,590.2,180.35,590.05,180.57Z"/><path class="cls-1" d="M590.08,192.25c0,3,0,5.77.08,7.42C590.16,198.07,590.14,194.63,590.08,192.25Z"/><polygon class="cls-1" points="589.53 213.51 589.63 210.78 589.67 204.28 589.53 213.51"/><path class="cls-1" d="M590.15,81.5,590,71.44c-.17-1-.27,1.72-.21,5.46C589.91,79.31,590,83,590.15,81.5Z"/><path class="cls-1" d="M588.77,111.92a42.32,42.32,0,0,1,.38-4.44l-.62-.3Z"/><path class="cls-1" d="M588.63,82.59c-.17-1-.5-14.6-.46-1.85C588.34,81.76,588.49,91.83,588.63,82.59Z"/><polygon class="cls-1" points="509.31 11.67 511.87 11.67 511.5 10.65 509.31 11.67"/><path class="cls-1" d="M375.74,14.11c11.92.24,2.83-.63,13.6-.32,2.8-.24-8.8-.25-5.94-.46C376.21,13.58,372.43,13.44,375.74,14.11Z"/><path class="cls-1" d="M383.4,13.33l3.68-.15C385,13.24,384,13.29,383.4,13.33Z"/><polygon class="cls-1" points="568.56 591.04 576.22 591.25 571.27 590.91 568.56 591.04"/><path class="cls-1" d="M583.27,590.28l1.81.65,4.6-.58C588,590.38,584.59,590.43,583.27,590.28Z"/><path class="cls-1" d="M14.21,113.87l-.16-.59a59.93,59.93,0,0,0-.2,6.58Z"/><polygon class="cls-1" points="13.72 217.81 13.74 216.02 13.15 219.37 13.72 217.81"/><path class="cls-1" d="M14.47,305.05c0-3.56-.05-7.75-.08-11.32C14.5,301.49,13.74,306,14.47,305.05Z"/></svg>