<svg id="Laag_1" data-name="Laag 1" xmlns="http://www.w3.org/2000/svg" viewBox="0 0 600 600"><defs><style>.cls-1{fill:#1d1d1b;}</style></defs><title>Rebus 3 Sommige</title><path class="cls-1" d="M339.86,84.05c.43-.31-.29-.78-.33-1C339,83.85,340,84.19,339.86,84.05Z"/><polygon class="cls-1" points="334.95 91.48 334.82 91.13 334.49 92.62 334.95 91.48"/><path class="cls-1" d="M329.1,97.14c1.55.49,2-2.22,3.35-2.87l.4.07-.33-1.28C331.38,94.42,330.27,96.56,329.1,97.14Z"/><path class="cls-1" d="M323.84,98c.58.21-.34,1,.85-.58l-.23,0A5.92,5.92,0,0,1,323.84,98Z"/><path class="cls-1" d="M324.46,97.39c.58-.62-.73.06,0,0Z"/><path class="cls-1" d="M321.84,100.38l.47-1.14c-.4-.07-1.17.57-1.07.14C320.6,100.38,321,100.45,321.84,100.38Z"/><path class="cls-1" d="M321.8,101.87l.27-.56C321.9,101.29,321.76,101.36,321.8,101.87Z"/><path class="cls-1" d="M322.65,100.13l-.58,1.18c.28.06.62.38.3-.51C322.59,101.18,322.49,100.71,322.65,100.13Z"/><path class="cls-1" d="M323.31,99.8c.67-.22,1.39-.65.92.49C325.65,98.65,324.72,98.15,323.31,99.8Z"/><path class="cls-1" d="M329.83,98.49l.9-.29.19-.86C330.83,97.77,329.49,98.2,329.83,98.49Z"/><path class="cls-1" d="M316.28,104.75c.17.27.84.32,1.17.54l.36-.84C317.35,104.6,316.64,105,316.28,104.75Z"/><path class="cls-1" d="M317.45,105.29l-.53,1.24C317.76,105.8,317.74,105.48,317.45,105.29Z"/><polygon class="cls-1" points="322.76 103.15 323.47 100.94 322.49 103.44 322.76 103.15"/><polygon class="cls-1" points="312.84 108.04 312.86 107.05 312.69 108.68 312.84 108.04"/><path class="cls-1" d="M310.66,110.33c0-.78-1.2-.2-1.05-.85a5.24,5.24,0,0,0-.88,2.33A2.93,2.93,0,0,1,310.66,110.33Z"/><path class="cls-1" d="M308.39,113.05a6.88,6.88,0,0,0,.34-1.24A3.06,3.06,0,0,0,308.39,113.05Z"/><path class="cls-1" d="M315.29,107.9A1.49,1.49,0,0,0,314,108l.95.27Z"/><path class="cls-1" d="M315,108.24h0l-.79.71Z"/><path class="cls-1" d="M315.38,107.82l-.09.08C315.38,107.93,315.42,107.93,315.38,107.82Z"/><path class="cls-1" d="M319.88,104.87c-.2.86-.93,2.29.63,1.78C320.48,105.87,319.59,106.16,319.88,104.87Z"/><path class="cls-1" d="M316.56,108.16l1.09-.78c-.17-.15-.58-.22-.48-.64Z"/><polygon class="cls-1" points="316.29 108.81 316.56 108.16 316.16 108.45 316.29 108.81"/><path class="cls-1" d="M310.57,112a3.86,3.86,0,0,1-1,1.66,11,11,0,0,0,1.82-1.41C311.24,112,311.13,111.45,310.57,112Z"/><path class="cls-1" d="M312.76,110.25a.67.67,0,0,0-.06.12C312.81,110.37,312.87,110.34,312.76,110.25Z"/><path class="cls-1" d="M304.53,118.55l.19,0-.08-.12Z"/><path class="cls-1" d="M311.55,112.32a1.23,1.23,0,0,0,.67-1.08,7.56,7.56,0,0,1-.87,1.05C311.4,112.41,311.45,112.48,311.55,112.32Z"/><path class="cls-1" d="M307.27,114.69a6.36,6.36,0,0,0,1-.35C307.91,114.35,307.19,114.46,307.27,114.69Z"/><path class="cls-1" d="M312.4,110.34l0-.09C312.17,110.25,312.25,110.3,312.4,110.34Z"/><path class="cls-1" d="M312.4,110.34a3.13,3.13,0,0,0-.18.9,4.19,4.19,0,0,0,.48-.87A1,1,0,0,1,312.4,110.34Z"/><path class="cls-1" d="M306.84,124c-.48-.63.09-2.2,1.61-2.49.49-1.32-1.92-2.61-3.73-2.88.21.28.44.51-.18,1.76.63,0,2.79-1.3,2.5,0-1,1.5-1.22.79-2.11,1.08,1.2.21-.58,2.56.7,3.34l.73-1.42C306.54,123.46,306.4,124.1,306.84,124Z"/><path class="cls-1" d="M306.57,116.9l.31-.44a4.61,4.61,0,0,1-2.08.52c-.37.91-.3,1.25-.16,1.48l2-1.77Z"/><path class="cls-1" d="M308.62,114.77c.3.91-.38,2.07.84,2.19,1.09-1.14.29-1.29.71-2.21-1.68,1.93.19-.86-1.47.08a6.62,6.62,0,0,1,.83-1.13,9.51,9.51,0,0,1-1.22.64h.09c.16,0,.23,0,.09.06s0,0,0,0a1.06,1.06,0,0,1,.14.31c-.65.39-.24-.07-.14-.31a.67.67,0,0,0-.07-.11h0l-1.51,2.12A8.52,8.52,0,0,0,308.62,114.77Z"/><path class="cls-1" d="M320.83,108.93a.27.27,0,0,1-.2-.09C320.58,109,320.59,109.13,320.83,108.93Z"/><path class="cls-1" d="M319.71,109.29c.05-.22-.08-.57.42-.93.55-.18.28.3.5.48.1-.41.48-1.33-.63-.83l-.05.21c-.94.5-2.64.65-2.59.44A5.84,5.84,0,0,0,319.71,109.29Z"/><path class="cls-1" d="M314.26,112.24,313,114l1.3-.22-.35-.28C315,112.8,314.4,112.59,314.26,112.24Z"/><polygon class="cls-1" points="304.06 118.41 303.63 117.56 303.64 119.34 304.06 118.41"/><polygon class="cls-1" points="302.15 120.42 301.67 119.78 301.48 120.63 302.15 120.42"/><path class="cls-1" d="M197.06,236.23l-.29.6A2,2,0,0,0,197.06,236.23Z"/><path class="cls-1" d="M200.35,233.11l-.19-.35C200.16,233.06,200.2,233.23,200.35,233.11Z"/><path class="cls-1" d="M253.5,167.82c-1.17.11-2.7,0-2,.55l.81.43A2.26,2.26,0,0,1,253.5,167.82Z"/><path class="cls-1" d="M223.75,204h.37c-.05-.37-.09-.71-.14-1C223.92,203.25,223.83,203.59,223.75,204Z"/><path class="cls-1" d="M225.79,207l-1.25.44A4.6,4.6,0,0,0,225.79,207Z"/><path class="cls-1" d="M180,254.12l.09,1.15C180.88,254.47,180.21,254.5,180,254.12Z"/><path class="cls-1" d="M282.06,140.39a6,6,0,0,0-1.77,1C281.31,141.08,282.38,141.08,282.06,140.39Z"/><path class="cls-1" d="M191.92,228.39c-.16.38-.15.62,0,.75C192.09,228.76,192.13,228.48,191.92,228.39Z"/><path class="cls-1" d="M278.66,143a3.22,3.22,0,0,0,.44-.14,5.59,5.59,0,0,1,1.19-1.44A2,2,0,0,0,278.66,143Z"/><path class="cls-1" d="M115.16,316.11c-.08,0-.15.06-.22.06S115.07,316.21,115.16,316.11Z"/><path class="cls-1" d="M90.32,328a6.7,6.7,0,0,1,.72-.79A2.26,2.26,0,0,0,90.32,328Z"/><path class="cls-1" d="M293.91,127.9c.38-.45,0-.13,0,0Z"/><path class="cls-1" d="M298.34,128.37a.56.56,0,0,0,.13.47A.72.72,0,0,1,298.34,128.37Z"/><path class="cls-1" d="M278.23,150.91l0,0C278.44,150.94,278.4,150.94,278.23,150.91Z"/><path class="cls-1" d="M294.81,127.57a3.52,3.52,0,0,0-.71.34A4.28,4.28,0,0,0,294.81,127.57Z"/><path class="cls-1" d="M294.44,127.36l.43-.3C294.82,126.91,294.71,126.89,294.44,127.36Z"/><path class="cls-1" d="M293.35,128.5a3.74,3.74,0,0,1,.75-.59c-.13,0-.2,0-.19,0Z"/><path class="cls-1" d="M148,281a.66.66,0,0,1-.15,0C147.68,281.65,147.82,281.43,148,281Z"/><path class="cls-1" d="M248.83,184.92s0,0,0-.07l-.09,0Z"/><path class="cls-1" d="M247.77,186.85c-.11-1.4.35-1.66,1-2l-2.24-1.3Z"/><path class="cls-1" d="M189.46,244l1.61-.48c-.39,2.17-1.62,2.75.14,2.57-1.75-2.09,3.93-4.21,2.18-6.3l1.1-.27c-.22.18-.14.32-.36.5,2.27-.39-.35-2.39,1.67-3.82.75-.44,1.46-.57,1.26.06l.9-1.8c.43-.35.66.08.23.43l1.93-2.17,0,.07a11.4,11.4,0,0,1,.34-2.24c.8-.23-.06.46.31.58l.69-1.59c1,.05.48,1.46-.38,2.16,3,.9.47-1.42,3.89-2.53l-.84,1.3c1.77.43,2.23-.8,4.13-1.3-.64-.08-4.15.65-3.37-1a2.17,2.17,0,0,0,1.32-1.62c.68.69,1.17-.12,1.95-1l.84,1c.63-1.13.1-1.52.23-2.45,1.08-.87,2-.36,2.79,0,1.72-1.39-2.21-.07-.5-2.07,1.66-.93,2.23-2.2,3.27-4.29,1.23-.58.39.72,1,.66l.11-1.53c.22-.17.37.11.45.26.41-1-.84-1,0-2.28-.69-1.29,3.66-.68,3.89-3.14.58-.06.38.72.83,1a14.45,14.45,0,0,0,1.57-4.57l1.88-.64c-1.62.23-1.2-1.76-.79-3.46a11.94,11.94,0,0,0-1.56,0l1.21-2.14c.35,0,.49.43.58,1.09a4,4,0,0,0,.1-.53c.93-.24,1.13.59,1.2,1.52-.38,0-.77,0-1.16,0a3.62,3.62,0,0,0,.94,2.41,1.66,1.66,0,0,1,.32-.78c0,.25.1.46.24.5s.13-.33.17-.84l1.38.65-.3-.5,2.83-1.5c.59-2.57.49-5.42,2.59-8.29.11,1.36,1.06,1.36,1.89,2.28-1.6-.28-1.56,2.29-3.05,3.36.78-.56,1,0,1,.33l1.49-3.12c.66.78,1,.07,1.92-.22-1.85-1,.8-2.64,1.32-4,.53.43.78,1.14-.49,2.15,2.33-.16,0-3.29,2.15-3.58-.27.28-.49.36-.37.71.24-1.07,2.18-2.29,2.21-1.5l-.27.28c2-1.64,5.7-5.51,4.79-7a13.2,13.2,0,0,1,1.31,2.07l-.65-7.34c.72,1.33,4.27,2.73,3.3,4.83a3.49,3.49,0,0,0,1.89-1.93c-.45.15-2.23-.78-1.91-1.28,2.27.06,1.4-.14,3.76-.51-.67.22-1.76-1.92-1-2.56.13.35,1.64,1.56,1.54,2l.22-3.35c-.16.72,1.25,1.44,2.09,1.51-.49-.14,1.58-1.48,1.9-2.1l-1.12.36c2.26-1.72-.21-4.21,1.88-6.07.08.57,1.39,2.63,2.61,1.85-.34-1.28-1.8-6-.64-8.34l.8.14.83-1.86a42,42,0,0,1,.22,9.27c1.12-.36.75.35,1.84-.79.83,0,0,1.27-.27,1.62l2.91-2.28c-1.05-.85,1.08-2.92.2-3.63l-1.89,3.78c-1.05-.85-1-4.34,1-6,.84-.08,1.31,2.06,1.66,2.35-.08-.57,1.16-2.36,1.56-2.29l-.29,1.29c1.39-.65.45-2.93,2.59-3.22.49-.36,2.5,0,2-.66-1.77-.41-5.22-3.68-5.55-5a20.15,20.15,0,0,1,4.3-1.08c1.55.17.94,3.09,2.26,3.25a1.9,1.9,0,0,1-.09-1.26c.67-.22.6,1,1.47-.08-.78-1.14,2.08-1.86-.34-1.28.7-1.21,1.22-.79,2.31-1.93-1-.28-1.07-3.14-.38-4.35.18.3.72.41,1,.46,2.06-1.83,3.55-2.42,5.4-4.2.4.08,1.57-.5,1.6.29a2.55,2.55,0,0,1,.56-1.57c1.92-.23-1.14,1.36.69,1.56-.48-.64.7-2.21,1.17-3.35-1.1-.64-2,1.65-2.5,2.79-1.18-1.21-1-3.85.38-6.28,1.23-1.78,1.42.14,1.52-.29,3.07-2.58.39-4.49,3.62-5.93,1.7-.15,1.54,1.49,2.29,1.84-1,1.51-2.39,1.37-3.2,2.22l1.39-.64a2.91,2.91,0,0,1-1.46,1.86c1.47-.08,5-4.58,7.82-6.09.14-.64.56-1.57-.07-1.57l-.59.79c-1.25,0,.48-2.14-.69-1.57.52-1.35.9-3.06,2.57-4l1.1.64c-.28-.23-1.37.32-1.48,1,.17-.93,3.18-.79,2.67-2.52l-1.52.29c.51-1.36.77-3.43,2.21-4.29-1.37-.35-.17.36-2,.15,1.95.57-3.05,2.87-.6,3.07-2-.35-2,.94-4.06,1,.31.25.93.17-.19,1a1.49,1.49,0,0,1,0,.47l-.09,0,.09,0c0,.09,0,.1,0,0a1.58,1.58,0,0,1,.93,0c.16,1.14-1.42,2.64-1.62,3.5-.72.43-.08-.57-.7-.57l-.29,1.28c-.7-.57-2.59.44-1.58-1.28l-1.27,1.18a4.33,4.33,0,0,0-2.57,2c-.72.43-.79,2.15-.77,1.15l-1.55,2.29-.18-.15c-2,1.78-2.91,4.9-6.23,5.87a7,7,0,0,1-2.22,2.5l-.75-.35c-.64,1-3,1.86-2.82,2.79-2.35-.63-4.34,3.58-6.06,4.73l.66.78a16,16,0,0,0-2.77,3.58l.7.56c-.56,1.58-3.2,2.23-4.84,3.94-.12-.35.37-.71.82-.86-3.44.52-3.25,5.22-6.12,5.95a1.53,1.53,0,0,1-1.12,1.07.29.29,0,0,0,.08-.14l-.19.17c-.31.09-.65.16-1,.28a2.83,2.83,0,0,0,.87-.18,8.52,8.52,0,0,0-1.17,1.63l-.89-.47-.11.14c-.76.25-.09.73.69,1a3.28,3.28,0,0,0-.29,1.09c-1.51-.7-1,1.72-2.75,1.09.21.92-2.21,3-1.31,4.49-.17-.14-.4-.06-.13-.35-.72.43-1.44.86-1.63,1.71l-1.1-.63-.13,2.42c-1.3.22-1.92.22-1.81-1.2-.85,2.85-1.13,1.86-1.71,4.43l-.48-.64c-.54.57-.71,2.21-1.51,2.07-2.31.15-6.41,5.95-10.64,8.11,2.25,1.05-2.24.72-1.11,2.14-.58-.21-1.25,0-1-.85-1.29,2-3.11,1.79-3.19,4-.58-.21-.21-.92-.61-1-.05.21-.19.85-.59.78s-.08-.56,0-1c-1.63,1.71-.62,3.1.37,4.36-1.38.29-1.74.79-1.63,2.14-.66-.08-1.54,0-.62-1.15-.64.52-4.15,3-3.32,4-.41-.05-.9.74-.95,1a25,25,0,0,0-2.8,2.63l.51-.2c.55,1.6-.85,1.3-1.77,2.46l-.08-.15c-3.19,1.55-.68,1.4-3.94,2.8l.8.56c1.21,1.7-3,1.18-3.8,3.09l.88-.09c-.26,1.24-4.06,0-5,.59-.29,0,.06-.46.2-.78-2.83,1.06.62,1.15-.66,2.8-.74-.22-.85-1.58-1.93-.7-.88.09-1.36,4.38-3.62,4.77.66.09,1.32.17.91,1.12-.92,1.16-4.22,1.35-4,3.46a.61.61,0,0,1-.47-.11c-.51,1.08-2.13,3.05-2,4.16-3-1.66-3.88,6-6,3.81l-2.37,2.52-.15-.28a4,4,0,0,0-1.82,3.52c-.51.21-.44-.25-.52-.4-2.74,1.81-2.88,2.12-3.76,5.1l-.89-.51c-.13.92-4.43,2.13-5.89,5.16a.63.63,0,0,1-.06-.56c-1.75,3.32-8,4-6.45,7.47L161,261.4c2.37-1.91.76,1.44,2.08,1-.71,1-3,1.37-2,.22l.29,0c-.93-1.72-3.18,2.16-4,1.18-4.22,4.23-9.13,7.55-13.2,11.39l1.48.6-1.46,1.31c-.6.11-1.29-.35-.25-1.27-1.1-.09-1.19,2.12-1,2.38-2.37,1.48-.42-2-1.05-1.41l-.73.87.3-.05c-.25,1.07.14,1.58-1.11,2.69-1,.53-1-.27-1.36,0-.07-.07-.21,0-.49.42l-1.85,1.63,1.51.14c-.39,1.17-1.7,1.57,0,1.72-2.6-.29-7.09,5.87-8.26,6.14a8.52,8.52,0,0,1-3,3.94c.5-.15,1.61.58.34,1.59-1.44-2.33-2.93,1.22-5.2.75,1.72.1-3.07,3.42-.49,3.45-1.12.78-.76-.67-1.93-.41-1.57,3-5.53,4.43-8.12,7.44.2.3,1,.22.8,1.19l-2.72.19c-.44.67.9,2-1,2.08.36.07.88.18.58.63-6.75,4.17-10.37,12-18.26,15.21,1.24-.25.78.29.21.88.49-.25.6.63,1,.9l-3.28,1.35c.49,1.36-2.47,2.52-1.84,3.67l.59-.89c0,2,3.71,1,4.9,2.54-.07-2.3,4.69-1.05,4.82-4.57.68-.11.09.78.61.89-.11-1,.33-1.71,1.63-2.45l0,.26c2.78-3,4.59-3.61,8.24-6.41l-.9-.44a3.46,3.46,0,0,1,1.64-.67c-.2-1.82-2,1.86-2.4,0,2.27.47,5-4.8,7.13-3.84,1.09-1-1.08-.48,0-1.52l.7.14-.26-.81a1.67,1.67,0,0,1,2-.08c-.21.12-.39.58-.54.79,1.4-.4,2.42-2.7,2.9-2.84l-1.3.75c2.57-3.27,6.72-6.21,8.73-9.85l-.53-.11c1.6-2.71,2.09-1.34,4.21-3.94v.16a4.1,4.1,0,0,1,1.34-2.17c-.24,1,1.85-.37,1.46.81,1.74-2.93.68-1.63,1.08-4.34l.88.18a3.1,3.1,0,0,1,.92-2.59c-.53,1.41,1.55.07,1,1.74,3.64-1.27,2.58-4.79,5.39-4.21-.28-2.59-3,1.29-2.63.35-1,0-.12-2,.81-2.64s3.19.56,5.18-1.43c-.21.19-.11.32-.32.5,1.12-.35,1-1.94,2.5-2.23-.34-1.39,1.25-1.11.3-2.39l-1.59,2.05c.76-1.31.45-3.59,2.8-4.63A3.92,3.92,0,0,1,148,281c.83-.15.75-1.16,1.61-1.33,1,1.28-2,2.43-2.29,4.39,1-.05,1.33-2.89,2-1.11-.71-2.35,2.18-1.73,2.38-4.25l.57.77a3.35,3.35,0,0,1,.66-1.44l.14,1.58c.37-1.83,2.77-1.41,3.43-2.85-2.2,2.18-1.29-.34-2.72.08,1.86-3.57,3.31.25,6-3.05-.32.5-1.95,1.1-1.61.15a5.74,5.74,0,0,1,2.45-.9c1.89-2.11-1-.4-.53-1.65,1.49.15.66-1.31,1.29-2.44l.68.69c2.75-1.81-.78-2,1.82-3.53l.05,1.82.85-1.31.54,1c.61-1.73,1.12-1.94,2.5-2.84-.75-.23-1.07-1.41-.07-2.42,1.1-.27.25,1,1.6-.47.1.75.27,1.64-1,1.62.16.28.1.74.25,1,1.21-.26,2-1.73,2.52-2.24a1.94,1.94,0,0,1-.73.39l1.17-3c.59-.06.53.4.47.86.35-.49.34-1.09.9-1.76.39.72,1,1.26.36,2.39l1.4-2.57c.37.11,1.68-.33,1.62.13,1.44-.75,1.67-3.74,3.57-4.74a1.22,1.22,0,0,1,.26-.82c1.51-1.22,3.4-1.72,4.3-4.09l1.91.1c1.06-1.47-2.5,0-.73-2.5,1.21-1.8,1.4.31,2.21.07.26-1.24.56-3.55,2.75-4.08C190.33,243.27,189.82,243.47,189.46,244Zm15.43-15.86c-.17.44-.35,1.49-1,1.3C203.5,228.27,204.14,228.39,204.89,228.11ZM227.37,203c0,.45-.47.68-1.12.8A2.12,2.12,0,0,1,227.37,203ZM289.84,133V133C288.89,133.41,289.24,133.28,289.84,133Zm1.72-1.09a.26.26,0,0,0-.21-.36c.07.27-.24.6-.65.9C291,132.48,291.28,132.43,291.56,131.86ZM139,280.66l.45-.09C139,281.38,139,281,139,280.66Z"/><path class="cls-1" d="M225.56,206.62a1.13,1.13,0,0,1-.5-.25C225.06,206.61,225.18,206.74,225.56,206.62Z"/><path class="cls-1" d="M180,253.91l0,0a.44.44,0,0,0,.07.17Z"/><path class="cls-1" d="M275.21,159.15a1.67,1.67,0,0,1-.91.2C274.45,159.53,274.72,159.54,275.21,159.15Z"/><path class="cls-1" d="M298,123.36l-.74,1.06a1.76,1.76,0,0,1,1-.57C298.08,123.71,297.68,123.65,298,123.36Z"/><path class="cls-1" d="M310,120c.05-.21.28-.28.32-.5l-.35-.28C309.46,119.74,309.31,120.38,310,120Z"/><path class="cls-1" d="M301,124.84c.63.51,1-.24,1.55-1a.63.63,0,0,1-.12.11C301.87,123,301.45,123.91,301,124.84Z"/><path class="cls-1" d="M302.72,123.7a2.9,2.9,0,0,1,.57-.59C303.05,122.72,303,123.28,302.72,123.7Z"/><path class="cls-1" d="M293,129.72c.45-.14-.54-.93-.13-.86C292.47,127.79,291.71,131.72,293,129.72Z"/><polygon class="cls-1" points="303.42 126.25 302.49 125.76 302.69 126.68 303.42 126.25"/><path class="cls-1" d="M297.86,130.62l1.21-.79c-.13-.1-.07-.3,0-.51C298.46,129.91,297.63,130.43,297.86,130.62Z"/><path class="cls-1" d="M299.11,129.32a2.12,2.12,0,0,0,.71-.92A5,5,0,0,0,299.11,129.32Z"/><polygon class="cls-1" points="302.23 127.82 301.78 127.97 301.01 128.61 302.23 127.82"/><path class="cls-1" d="M286.76,141.15l-.92,1.28c.13.36.58.22.9-.28C286.84,141.71,287.16,141.22,286.76,141.15Z"/><path class="cls-1" d="M292,139.84c-.45.14-.62,0-1-.07l.83.93Z"/><path class="cls-1" d="M289,143.2c.13.36-.93,2.28.43.86C289.3,143.7,290.21,142.41,289,143.2Z"/><polygon class="cls-1" points="271.12 158.38 271.39 158.1 269.93 156.68 271.12 158.38"/><path class="cls-1" d="M259.72,176.25c1.66-.93-.56-1.2,1.06-1.93,0-.64-1.32.59-1.3,0C259,175.45,258.42,175.65,259.72,176.25Z"/><path class="cls-1" d="M259.48,174.31a3.24,3.24,0,0,0,.19-.62A1.93,1.93,0,0,0,259.48,174.31Z"/><polygon class="cls-1" points="86.45 330.27 85.3 330.79 86.33 330.75 86.45 330.27"/><path class="cls-1" d="M85.87,332.94l-1.11-.74.31,1.34C85.23,333.31,85.52,332.87,85.87,332.94Z"/><path class="cls-1" d="M209.07,227.69l-.16-.28c-.36-.12-.58.06-1,.41Z"/><polygon class="cls-1" points="196.88 238.18 197.1 238.01 195.91 237.53 196.88 238.18"/><path class="cls-1" d="M188.26,248.64c.43-.35.71-1,1.14-1.33C188.69,248.29,187.14,247.7,188.26,248.64Z"/><path class="cls-1" d="M178.86,134.32c.09-.4-.75-.26-.9-.31C178.11,134.65,179.08,134.3,178.86,134.32Z"/><polygon class="cls-1" points="180.13 141.08 179.81 140.91 180.49 142.05 180.13 141.08"/><path class="cls-1" d="M178.65,147.24c1.57-.14.38-2.29,1.17-3.24l.36-.11-1-.74C179,144.48,179.33,146.44,178.65,147.24Z"/><path class="cls-1" d="M174.61,149.22c.58,0,.2.82.41-.62l-.18.07A2.39,2.39,0,0,1,174.61,149.22Z"/><path class="cls-1" d="M174.84,148.67c.18-.59-.57.21,0,0Z"/><path class="cls-1" d="M174,151.43l-.09-1c-.37,0-.76.62-.85.28C172.91,151.62,173.27,151.62,174,151.43Z"/><path class="cls-1" d="M174.55,152.6v-.49C174.4,152.12,174.3,152.2,174.55,152.6Z"/><path class="cls-1" d="M174.56,151.1v1c.26,0,.69.19,0-.45C175,151.92,174.66,151.57,174.56,151.1Z"/><path class="cls-1" d="M175,150.72c.5-.28,1-.77,1,.2.28-.77.07-1.24-.17-1.27S175.29,150,175,150.72Z"/><path class="cls-1" d="M179.93,148c.21-.17.44-.34.64-.52l-.31-.71c.07.17-.09.47-.25.72S179.71,148,179.93,148Z"/><path class="cls-1" d="M170.82,155.49c.23.21.83.21,1.19.37l0-.71C171.69,155.31,171.22,155.71,170.82,155.49Z"/><path class="cls-1" d="M172,155.86l-.06,1.07C172.44,156.26,172.32,156,172,155.86Z"/><polygon class="cls-1" points="175.89 153.46 175.61 151.57 175.77 153.74 175.89 153.46"/><polygon class="cls-1" points="168.79 158.25 168.54 157.42 168.83 158.79 168.79 158.25"/><path class="cls-1" d="M167.45,160.09c-.18-.65-1.09-.28-1.09-.8a3.5,3.5,0,0,0-.31,1.88C166.21,160.62,166.61,160.29,167.45,160.09Z"/><path class="cls-1" d="M166,162.21a4.11,4.11,0,0,0,.08-1A2.42,2.42,0,0,0,166,162.21Z"/><path class="cls-1" d="M170.9,158.14a1.39,1.39,0,0,0-1.14.06l.91.22Z"/><path class="cls-1" d="M170.7,158.43h0l-.52.6Z"/><path class="cls-1" d="M171,158.07l-.06.07C171,158.16,171,158.16,171,158.07Z"/><path class="cls-1" d="M174,155.3c.12.71-.09,2,1.15,1.4C174.87,156.05,174.17,156.39,174,155.3Z"/><path class="cls-1" d="M172.11,158.33a5.68,5.68,0,0,0,.74-.73c-.2-.11-.56-.14-.62-.5A8.4,8.4,0,0,1,172.11,158.33Z"/><polygon class="cls-1" points="172.03 158.88 172.11 158.33 171.82 158.59 172.03 158.88"/><path class="cls-1" d="M167.69,161.54a2.37,2.37,0,0,1-.64,1.36,6.34,6.34,0,0,0,1.37-1.08C168.27,161.58,168.08,161.08,167.69,161.54Z"/><path class="cls-1" d="M169.27,160.14a.36.36,0,0,0,0,.1C169.34,160.24,169.39,160.22,169.27,160.14Z"/><polygon class="cls-1" points="163.19 166.43 163.36 166.5 163.28 166.37 163.19 166.43"/><path class="cls-1" d="M168.6,161.85A.75.75,0,0,0,169,161a4.64,4.64,0,0,1-.59.85C168.48,161.93,168.54,162,168.6,161.85Z"/><path class="cls-1" d="M165.23,163.49a3.67,3.67,0,0,0,.87-.14C165.76,163.3,165.14,163.28,165.23,163.49Z"/><path class="cls-1" d="M169,160.21a.19.19,0,0,1,0-.08C168.76,160.12,168.84,160.17,169,160.21Z"/><path class="cls-1" d="M169,160.21a3.87,3.87,0,0,0,0,.76,1.8,1.8,0,0,0,.24-.73A.86.86,0,0,1,169,160.21Z"/><path class="cls-1" d="M165.17,171.77a1.5,1.5,0,0,1,1.52-2c.42-1.16-1.81-2.67-3.33-3.26.19.29.4.53-.14,1.5a7.82,7.82,0,0,0,1.4-.1c.49-.05.91,0,.8.59-.83,1.2-1.09.47-1.87.54,1.07.44-.59,2.2.49,3.21l.73-1.16C164.92,171.25,164.76,171.81,165.17,171.77Z"/><path class="cls-1" d="M164.82,165.31l.24-.34a3.4,3.4,0,0,1-1.74.11c-.25.73-.17,1.06,0,1.29l1.57-1.24Z"/><path class="cls-1" d="M166.43,163.76c.36.82-.15,1.76,1,2,.9-.86.13-1.12.38-1.9-1.19,1.59,0-.75-1.26-.07a4,4,0,0,1,.54-.92,5.88,5.88,0,0,1-1,.45h.08c.13,0,.2.05.09.07s0,0,0,0a1.46,1.46,0,0,1,.16.3c-.54.23-.21-.1-.16-.3a1,1,0,0,1-.08-.11h0c-.35.55-.74,1.07-1.11,1.62A5.16,5.16,0,0,0,166.43,163.76Z"/><path class="cls-1" d="M176.13,158.63a.28.28,0,0,1-.2-.06C175.94,158.75,176,158.83,176.13,158.63Z"/><path class="cls-1" d="M175.24,159.08c0-.2-.24-.5.09-.87.45-.22.35.23.6.36,0-.38,0-1.21-.82-.65l0,.19c-.69.56-2.15.81-2.18.61A5.31,5.31,0,0,0,175.24,159.08Z"/><path class="cls-1" d="M171,161.91c-.24.53-.55,1-.82,1.53l1.15-.14L171,163C171.8,162.44,171.2,162.21,171,161.91Z"/><polygon class="cls-1" points="162.78 166.2 162.38 165.37 162.43 166.91 162.78 166.2"/><polygon class="cls-1" points="161.17 167.5 160.77 166.81 160.61 167.51 161.17 167.5"/><path class="cls-1" d="M90.39,107.45l.12-.6A1.84,1.84,0,0,0,90.39,107.45Z"/><path class="cls-1" d="M88.3,111.05l.3.27C88.49,111.05,88.39,110.91,88.3,111.05Z"/><path class="cls-1" d="M113.15,169.6c-.22-1-.23-2.32-.64-1.53l-.29.83A1.29,1.29,0,0,1,113.15,169.6Z"/><path class="cls-1" d="M88.29,143.37a2.55,2.55,0,0,0-.21.28L89,144C88.79,143.79,88.53,143.59,88.29,143.37Z"/><path class="cls-1" d="M84.68,143.53l.38-1.17A4.1,4.1,0,0,0,84.68,143.53Z"/><path class="cls-1" d="M105.57,90.53l.11-1.1C104.75,90,105.41,90.13,105.57,90.53Z"/><path class="cls-1" d="M141.74,175.54a3.58,3.58,0,0,0-1.52-.3C141,175.63,141.65,176.28,141.74,175.54Z"/><path class="cls-1" d="M97.51,113.44c0-.32-.07-.52-.24-.61C97.23,113.16,97.29,113.39,97.51,113.44Z"/><path class="cls-1" d="M138.53,175.34c.11.08.22.12.33.19a3.48,3.48,0,0,1,1.36-.29C139.67,174.93,139.06,174.7,138.53,175.34Z"/><path class="cls-1" d="M179.37,104.75a.76.76,0,0,1,0,.21C179.51,104.91,179.46,104.84,179.37,104.75Z"/><path class="cls-1" d="M179.49,128.21a3.93,3.93,0,0,1-.2-.79A1.38,1.38,0,0,0,179.49,128.21Z"/><path class="cls-1" d="M153.84,171.31c.37-.23,0-.11,0,0Z"/><path class="cls-1" d="M157.34,173.47a.55.55,0,0,0,0,.45A.71.71,0,0,1,157.34,173.47Z"/><path class="cls-1" d="M134,180.81h0C134.1,181,134.07,181,134,180.81Z"/><path class="cls-1" d="M154.6,171.39a2.14,2.14,0,0,0-.62,0A2,2,0,0,0,154.6,171.39Z"/><path class="cls-1" d="M154.34,171.06l.39-.09C154.71,170.82,154.63,170.76,154.34,171.06Z"/><path class="cls-1" d="M153.31,171.61a2.19,2.19,0,0,1,.67-.22c-.1,0-.15,0-.14-.08Z"/><path class="cls-1" d="M142.18,85.08a.47.47,0,0,1,.1.1C142.84,84.89,142.61,84.92,142.18,85.08Z"/><path class="cls-1" d="M97.74,168.82s.05,0,.07,0l0-.08Z"/><path class="cls-1" d="M96,167.86c1.36-.12,1.56.29,1.82.9l1.39-2.18C98.12,167,97.05,167.46,96,167.86Z"/><path class="cls-1" d="M96.23,99.38l-1.51.48c.18-2.08,1.38-2.71-.34-2.48.93,1,0,2-.8,3.1s-1.56,2.24-.53,3.13L92,104c.18-.19.08-.32.26-.5-1.06.31-.87.87-.61,1.52s.65,1.45-.1,2.28c-.58.54-1.21.8-1.2.17l-.34,1.82c-.31.4-.65.07-.34-.34a24.07,24.07,0,0,0-1,2.45l-.06-.06a12.3,12.3,0,0,1,.5,2.06c-.64.43-.11-.42-.49-.41l0,1.56c-.89.25-1-1.11-.46-2-1.53,0-1.52.41-1.46,1a2.37,2.37,0,0,1-1,2.52l.18-1.44c-1.75.28-1.63,1.54-3.12,2.78.63-.25,3.42-2.23,3.49-.48a1.83,1.83,0,0,0-.44,1.86c-.93-.3-.92.6-1.14,1.64L83.4,120c0,1.23.71,1.3,1.1,2.09-.44,1.2-1.5,1.24-2.36,1.38-.53,2,1.78-1.09,1.63,1.36a4.6,4.6,0,0,0-.43,2.29,10,10,0,0,0,.57,2.63c-.5,1.14-.77-.26-1.16.12l1,1.12c0,.25-.34.15-.5.1.35.9,1.27.15,1.55,1.5.71.21.12.86-.35,1.72s-.87,1.92,0,2.72c-.34.43-.8-.16-1.28,0,.58,1.14.8,1.61,1.06,2a11.12,11.12,0,0,0,1.47,1.6l-.58,1.7c.77-1.31,2.12,0,3.23,1,.39-.48.74-.88.9-1.13l.48.88c.18.29.38.57.57.85-.14.27-.62.19-1.22,0,.14.1.27.2.39.27-.28.78-1.09.62-1.92.28.18-.3.39-.59.59-.87a4,4,0,0,0-2.49-.38,1.39,1.39,0,0,1,.45.6c-.23-.09-.43-.13-.54-.05s.18.26.6.52l-1.27.78.58,0L85.26,148a13.26,13.26,0,0,0,1.52,1.07c.56.33,1.13.65,1.68,1A12,12,0,0,1,90,151.29a12.65,12.65,0,0,1,1.4,1.56c-1.28-.23-1.63.56-2.77,1,.82-1.27-1.4-2-1.75-3.66.17.84-.45.87-.72.74l2.14,2.29c-1,.35-.45.87-.48,1.73,1.56-1.35,2.16,1.37,3.22,2.12-.55.39-1.28.46-1.79-.91-.31,1.06.45,1.26,1.21,1.41s1.61.23,1.46,1.21c-.2-.28-.21-.49-.58-.44.94.38,1.58,2.3.85,2.23l-.2-.29a15.43,15.43,0,0,0,1.06,1.81,16.62,16.62,0,0,0,1.59,1.76c1.11,1.06,2.25,1.74,3,1.28a14.3,14.3,0,0,1-2.12,1.24,65.63,65.63,0,0,0,6.91-1c-1.29.76-2.77,4.26-4.69,3.43a2.53,2.53,0,0,0,1.78,1.67c-.15-.42.75-2.15,1.22-1.92-.07,2.11.12,1.27.51,3.47-.22-.61,1.75-1.93,2.34-1.32-.32.18-1.38,1.8-1.78,1.77a28.2,28.2,0,0,0,3.13-.4c-.68,0-1.25,1.45-1.21,2.26.07-.49,1.55,1.18,2.17,1.35l-.47-1a1.89,1.89,0,0,0,1.4.58,4.39,4.39,0,0,0,1.44-.4c1-.38,1.89-.81,2.87-.16-.47.26-2.06,2.1-1.1,3,.54-.37,1.73-1.22,3.08-2.11A8.44,8.44,0,0,1,117,174l.08.76.82,0,.85-.1a14.57,14.57,0,0,1-1.52,1.14c-.6.38-1.3.79-2,1.17a21.86,21.86,0,0,1-4.11,1.69c.62.87-.11.81,1.22,1.37.19.77-1.13.5-1.54.35l2.94,1.81c.2-.65.91-.66,1.63-.71s1.42-.12,1.56-.66a29.45,29.45,0,0,1-3.87-.13,3.4,3.4,0,0,1,2.13-1.63,4.47,4.47,0,0,1,3.26,0c.36.69-1.22,2.1-1.34,2.54.45-.33,2.38-.1,2.48.29l-1.16.35c.54.46,1.19.21,1.82.07a1.46,1.46,0,0,1,1.87.51c.49.22,1.18,2.08,1.45,1.33-.54-1.71.5-6.35,1.26-7.34.07.07.59.57,1.16,1.18a10.18,10.18,0,0,1,1.43,1.62c.65,1.31-1.74,2.63-1.22,3.76.1-.36.66-.73.88-.85.5.39-.42,1.09.82,1.11.4-1.32,2.43.47.73-1.06a1.68,1.68,0,0,1,1.22.17,2.53,2.53,0,0,0,1.36.36c-.34-.89,1.46-2.92,2.55-3.26a1.68,1.68,0,0,0,.27,1,14.94,14.94,0,0,1,1.55.24l1.36.19a13.75,13.75,0,0,0,2.83.2c.22.32,1.32.66.93,1.27.29-.27.53-.78,1.2-.91,1.46,1-1.49.41-.33,1.66,0-.8,1.65-1.34,2.52-2-.49-1.17-2.21.09-3.14.72-.16-1.67,1.26-3.68,3.2-4.75.8-.31,1-.12,1.09.17s0,.64.09.49a3.14,3.14,0,0,0,2.52-1.88,1.88,1.88,0,0,1,2.18-1.19c1.31.67.72,2,1.18,2.67-1.22.91-2.29,0-3.2.29l1.29.2a2.06,2.06,0,0,1-1.8.78,2.29,2.29,0,0,0,1.38.12q.47-.06,1-.18a11.51,11.51,0,0,0,1.11-.34c.78-.25,1.6-.53,2.4-.74.4-.11.8-.2,1.18-.27a7.47,7.47,0,0,1,1.07-.21c.28-.53.84-1.2.32-1.44l-.67.48c-1-.48.87-1.73-.21-1.67a18.08,18.08,0,0,1,1.12-1.57,3.27,3.27,0,0,1,1.69-1l.84.94c-.22-.31-1.17-.13-1.38.36.28-.73,2.79.3,2.57-1.42l-1.31-.21c.29-.53.54-1.24.86-1.84a2.71,2.71,0,0,1,1.33-1.32c-1.14-.69-.14.32-1.66-.42,1.6,1.11-2.73,1.52-.73,2.5a2,2,0,0,0-1.65-.35,2.19,2.19,0,0,1-1.73-.19c.21.35.72.52-.29.77a1.86,1.86,0,0,1,0,.42h-.08l.07,0c0,.07,0,.09,0,0a1.44,1.44,0,0,1,.75.33c-.06,1.05-1.61,1.74-1.95,2.43-.65.1.06-.54-.42-.79a10,10,0,0,1-.52,1c-.43-.8-2.08-.85-.92-1.82l-1.22.4a2.61,2.61,0,0,0-2.4.47c-.64,0-1.23,1.33-.9.52l-1.83,1-.07-.22c-1,.24-1.94.67-3,1a3.58,3.58,0,0,1-3.38-.25,4.09,4.09,0,0,1-2.5.37l-.23-.76a3,3,0,0,1-1.64-.22c-.58-.16-1.09-.25-1.3.15a1.66,1.66,0,0,0-1-1,6.21,6.21,0,0,0-1.5-.23,12,12,0,0,1-3-.21l-.24,1a11.85,11.85,0,0,0-3.4-.15l-.16.89a1.56,1.56,0,0,1-1,0,3.4,3.4,0,0,1-1.05-.57,8,8,0,0,0-2.3-1.37c.24-.28.63,0,.87.26a2.1,2.1,0,0,0-1.31-1.15,6.94,6.94,0,0,0-1.68-.27c-1.16-.08-2.42-.06-2.93-1.17a.94.94,0,0,1-1-.61.2.2,0,0,0,.13,0,.83.83,0,0,0-.17-.11,8.15,8.15,0,0,0-.33-.75,2.27,2.27,0,0,0,.24.7,4.72,4.72,0,0,0-1.47-.46l.3-.94-.12,0c-.27-.57-.62.17-.76.92a3.6,3.6,0,0,0-1,.1c.51-1.56-1.51-.46-1-2.16-.39.21-1-.08-1.78-.28a2.15,2.15,0,0,0-2.14.13c.13-.18.07-.37.31-.17-.36-.58-.7-1.15-1.46-1.18l.62-1.08c-.7.09-1.47.22-2.16.24-.07-1.16,0-1.7,1.25-1.76-2.41-.46-1.49-.8-3.76-1.12l.66-.45c-.43-.43-1.84-.59-1.56-1.29.18-1-.9-2.33-1.84-4.06l-.77-1.3A6.63,6.63,0,0,1,96,154a10.65,10.65,0,0,1-.71-2.84c-.91.78-.85.31-.78-.28s.27-1.31-.6-1c.44-.4.57-1,1.2-.62a4.09,4.09,0,0,1-.7-2,1.68,1.68,0,0,0-.32-.78,1.77,1.77,0,0,0-.85-.64c.48-.35.86.13,1.13-.13-.15-.1-.6-.4-.33-.66s.51.11.81.3c-.52-1.63-2.22-1.4-3.81-1.16.25-.55.32-.92.17-1.21s-.44-.53-1-.77c.46-.43.91-1,1.27,0,0-.67.14-4-1.11-3.89.31-.24,0-.91-.11-1.08a15.19,15.19,0,0,0-.09-3l-.19.4c-1.6-.55-.34-1.21-.47-2.37l.16,0c.62-1.31.5-1.59.41-1.89s-.25-.6.61-1.81l-1,0c-1-.25-.61-.82,0-1.49s1.31-1.45,1.08-2.27c-.24.14-.43.28-.64.43-.31-.49.57-.92,1.51-1.28s2-.66,2.22-1c.22-.11.21.34.28.61,1.69-1.65-1.15-.59-1-2.2.74-.06,1.51.85,2-.06.35-.15.09-1,0-2s-.14-2.07.81-2.42c-.61.06-1.24.14-1.26-.69.17-.55,1-1,1.56-1.55a2.27,2.27,0,0,0,.68-.86,1.15,1.15,0,0,0-.07-1.07.66.66,0,0,1,.47,0c.09-.94.87-2.75.44-3.71,1.61.62,2.09-.65,2.52-1.92s.91-2.43,2-1.41l1.69-2.05.17.27a2.87,2.87,0,0,0,1.32-2.88c.43-.11.4.3.48.44a13,13,0,0,0,1.33-.77,2.86,2.86,0,0,0,.84-.64,7.66,7.66,0,0,0,1.08-2.42l.74.69c0-.2.28-.36.67-.51s.94-.23,1.51-.38a8,8,0,0,0,1.74-.65,5.66,5.66,0,0,0,.79-.52,3.4,3.4,0,0,0,.71-.66.67.67,0,0,1,0,.51,3.78,3.78,0,0,1,1.93-1,11,11,0,0,1,2.26-.3c1.46-.11,2.55-.42,2.5-2.32.48-.49,1-.88,1.54-1.33-2.44.32-.06-1.6-1.2-1.93.92-.45,2.73.44,1.61.91l-.22-.13c0,2,3.08-.13,3.28,1.23,1.15-.19,2.31-.32,3.45-.4a9.88,9.88,0,0,1,1.72,0l1.7.1,1.68.11c.55.07,1.1.18,1.65.25,1.08.18,2.16.27,3.22.39-.11-.51-.23-1-.35-1.51.51.06,1,.2,1.51.29.36.4.37,1.22-.67,1,.44.9,1.86-.43,2-.73,2,.89-1.09,1.56-.44,1.69l.87,0-.17-.2c.4-.24.64-.52.95-.7a1.39,1.39,0,0,1,1.3-.07c.73.49.21,1,.5,1.11,0,.11.07.18.47.16l1.78.58-.42-1.3c1-.34,1.75.5,1.24-1,.38,1.11,2,2,3.6,2.51l.61.21.57.25,1,.46a2.77,2.77,0,0,1,1.18.77c1.48-.3,2.49.39,3.71,1.21a.8.8,0,0,1,1.33-.82c-.92,1-.56,1.56,0,2.12a2.86,2.86,0,0,1,1,2.33c0-.78.77-.33,1.53,0s1.45.74,1.5-.46c.66.87-.59.82-.4,1.83a4.8,4.8,0,0,1,1.68,1,6.93,6.93,0,0,1,1.34,1.62c.4.61.78,1.24,1.22,1.84.22.3.44.6.69.88a8.41,8.41,0,0,0,.72.86c.31-.18.41-.93,1.22-.73-.13.8-.26,1.58-.41,2.34.48.37,2-.77,1.63.85.16-.3.4-.75.71-.47a14.8,14.8,0,0,0,.84,2.17c.32.7.74,1.33,1.05,2s.7,1.35,1.08,2l.58,1c.17.35.32.7.47,1.06a15.17,15.17,0,0,1,1.43,4.39,14,14,0,0,1,.13,2.33,4.48,4.48,0,0,1-.16,1.19c-.1.4-.21.8-.35,1.2.54-.91.69-.4.81.22.1-.43.86-.13,1.32-.29-.31.93-.58,1.82-.93,2.7,1.34.35.22,2.7,1.5,2.92l-.27-.81c.78.51,1.59.11,2.44-.47a5.4,5.4,0,0,1,2.71-1.31,1,1,0,0,1-.42-1.13,8.19,8.19,0,0,1,.45-1.49c.38-1.07.64-2.31-.73-3.19.3-.57.67.3,1.06,0a2.12,2.12,0,0,1-1.21-2.36l.23.09a35.86,35.86,0,0,1-1-4.37c-.12-.69-.24-1.39-.38-2.18q-.1-.58-.24-1.26c-.12-.44-.27-.89-.44-1.39l-.72.67a3,3,0,0,1-.07-1.62c-1.73-.26,1,2.26-.81,2.11.62-.92-.07-2.32-.7-3.68s-1.45-2.57-.73-3.52c-.73-1.17-.71.94-1.42-.22l.29-.64-.81.14a1.59,1.59,0,0,1,.29-1.9c.09.21.5.42.67.58-.15-1.36-2.22-2.51-2.28-3l.52,1.28-4.14-4.38a13.71,13.71,0,0,0-2.32-2,12.42,12.42,0,0,0-2.51-1.43l-.08.52c-2.63-1-1.43-1.68-4.06-3.14l.14,0a3.73,3.73,0,0,1-2.2-.62c.92-.06-.69-1.6.45-1.59-1.51-.38-1.9-.4-2.24-.29a9.94,9.94,0,0,1-1.84.7l-.07-.85a2.66,2.66,0,0,1-2.46.19c1.34-.07-.39-1.43,1.18-1.62a3.72,3.72,0,0,0-1.7-1.3,6.27,6.27,0,0,0-1.66-.19c-1,0-1.75,0-2.07-1.42-2,1.48,2.17,2,1.28,2.13.38.85-1.6,1.06-2.41.55-.44-.19-.64-.93-1.05-1.69a3.32,3.32,0,0,0-2.27-1.86c.25.07.3-.08.54,0-.82-.72-1.93.19-2.93-.78-.85,1.12-1.48-.3-1.9,1.24l2.31,0c-1.38.21-2.8,1.87-4.73.68a3.14,3.14,0,0,1,1.31-.79c-.56-.54-1.2.09-1.8-.4.35-1.63,2.78,0,4.36-1-.58-.77-2.81.74-1.87-.86a1.38,1.38,0,0,1-2,.62,2.28,2.28,0,0,0-2.39.38l.17-.94a3.1,3.1,0,0,1-1.36.51l1-1.19c-1.44,1-2.72-1.09-4.1-.41,1.43-.08,1.59.21,1.54.59s-.28.83.3,1.2c-3.37,1.36-2-2.42-6-1.76.53-.18,2.05.46,1.25.94-.38-.08-.82-.21-1.23-.34A2.9,2.9,0,0,1,129,82c-2.57.58.52.91-.5,1.65-1-1-1.19.65-2.21,1.18l-.18-1c-1.51-.11-1.58.52-1.64,1s0,1-1.39.94l.77-1.57-1.25.67V83.76c-1.27,1.18-1.77,1-3.27,1.18a1.41,1.41,0,0,1-.83,2.19c-1-.25.16-1-1.51-.29.17-.71.36-1.58,1.4-1,0-.32.2-.71.18-1-1.12-.3-2.35.68-3,.91a1.57,1.57,0,0,1,.77,0l-1,1.07c-.33.37-.64.78-1,1.16-.52-.15-.34-.56-.15-1-.46.33-.62.89-1.3,1.3-.14-.8-.54-1.51.37-2.34l-2,1.9c-.31-.24-1.64-.27-1.46-.67-1.53.32-2.34,3.11-4.27,3.57a1.24,1.24,0,0,1-.34.75c-.77.45-1.62.71-2.42,1.14a3.81,3.81,0,0,0-2,2.12l-1.83-.26c-1,1.35,2.38.26.69,2.47-1.13,1.6-1.37-.4-2.15-.22-.21,1.23-.27,3.42-2.33,4C95.46,100.05,95.93,99.85,96.23,99.38Zm-10,17.51c-.06-.43-.36-1.4.27-1.46C87.36,116.26,86.75,116.37,86.22,116.89Zm1,29.61c-.38-.18-.34-.65-.11-1.2A1.64,1.64,0,0,1,87.19,146.5Zm62.47,27.31,0,.05C148.85,173.75,149.13,173.8,149.66,173.81Zm1.56-.11a.33.33,0,0,0-.07-.41c0,.27-.33.4-.72.46C150.62,174,150.86,174.05,151.22,173.7Zm-5.11-81.32-.23-.32C146.6,92,146.35,92.15,146.11,92.38Z"/><path class="cls-1" d="M85.1,143.53a1.23,1.23,0,0,1,.49-.26C85.41,143.15,85.22,143.18,85.1,143.53Z"/><path class="cls-1" d="M105.56,90.74l.06,0a.48.48,0,0,0-.05-.18Z"/><path class="cls-1" d="M126.79,183.91a1.48,1.48,0,0,1-.62-.59C126.11,183.55,126.24,183.77,126.79,183.91Z"/><path class="cls-1" d="M157.6,168.85l-.68.7a1.06,1.06,0,0,1,.88-.16C157.67,169.21,157.35,169,157.6,168.85Z"/><path class="cls-1" d="M168.08,168.57c0-.19.24-.23.27-.42l-.33-.3C167.55,168.3,167.44,168.88,168.08,168.57Z"/><path class="cls-1" d="M160,171.14c.49.64.91.11,1.42-.41l-.1.08C160.9,169.75,160.48,170.45,160,171.14Z"/><path class="cls-1" d="M161.56,170.61a2,2,0,0,1,.52-.4C161.89,169.79,161.81,170.29,161.56,170.61Z"/><path class="cls-1" d="M152.8,172.54c.37.05-.22-1,.07-.82-.05-.55-.39,0-.57.46S152.11,173.13,152.8,172.54Z"/><polygon class="cls-1" points="161.96 173.11 161.19 172.4 161.26 173.29 161.96 173.11"/><path class="cls-1" d="M156.5,175.27l1.18-.25c-.09-.14,0-.3.13-.44C157.14,174.86,156.35,175,156.5,175.27Z"/><path class="cls-1" d="M157.81,174.58a1.23,1.23,0,0,0,.75-.59A7.27,7.27,0,0,0,157.81,174.58Z"/><polygon class="cls-1" points="160.71 174.19 160.3 174.19 159.54 174.56 160.71 174.19"/><path class="cls-1" d="M144.56,179l-1.22.47c-.07.36.31.51.76.31C144.37,179.48,144.81,179.28,144.56,179Z"/><path class="cls-1" d="M149,180.75c-.41-.11-.49-.32-.77-.59l.27,1.21Z"/><path class="cls-1" d="M145.26,181.94c-.06.36-1.79,1.27-.08.93C145.26,182.52,146.54,182,145.26,181.94Z"/><polygon class="cls-1" points="125.36 180.21 125.68 180.27 126.04 178.27 125.36 180.21"/><path class="cls-1" d="M106.72,177.86c1.21,1.28,1-.87,2,.43.58-.22-.82-1.06-.25-1.21C107.34,177,107,176.48,106.72,177.86Z"/><path class="cls-1" d="M108.47,177.08a4,4,0,0,0,.59,0A1.5,1.5,0,0,0,108.47,177.08Z"/><polygon class="cls-1" points="178.71 131.58 178.34 132.47 178.99 131.88 178.71 131.58"/><path class="cls-1" d="M180.32,133.24l-1.29.23,1.2.54C180.17,133.8,180,133.4,180.32,133.24Z"/><path class="cls-1" d="M82.75,119l.27.18c.37-.08.47-.32.65-.82Z"/><polygon class="cls-1" points="90.06 105.59 89.9 105.8 91.14 106.04 90.06 105.59"/><path class="cls-1" d="M97.18,94.84a13.45,13.45,0,0,0-1.11,1.27C96.72,95.11,98.3,95.83,97.18,94.84Z"/><path class="cls-1" d="M337.8,297.17c.1-.39-.75-.25-.89-.31C337.05,297.5,338,297.16,337.8,297.17Z"/><polygon class="cls-1" points="339.08 303.94 338.76 303.76 339.43 304.9 339.08 303.94"/><path class="cls-1" d="M337.59,310.1c1.57-.15.38-2.3,1.17-3.25l.37-.1-1-.75C338,307.33,338.27,309.29,337.59,310.1Z"/><path class="cls-1" d="M333.55,312.07c.58,0,.2.83.42-.62a.6.6,0,0,1-.18.07A2.91,2.91,0,0,1,333.55,312.07Z"/><path class="cls-1" d="M333.79,311.52c.18-.59-.58.21,0,0Z"/><path class="cls-1" d="M332.91,314.28l-.08-.95c-.38,0-.76.63-.86.29C331.85,314.47,332.21,314.48,332.91,314.28Z"/><path class="cls-1" d="M333.49,315.45V315C333.34,315,333.25,315.05,333.49,315.45Z"/><path class="cls-1" d="M333.51,314v1c.26,0,.68.18,0-.45C333.89,314.77,333.61,314.43,333.51,314Z"/><path class="cls-1" d="M333.94,313.58c.49-.29.95-.77,1,.19.28-.77.06-1.23-.17-1.27S334.23,312.83,333.94,313.58Z"/><path class="cls-1" d="M338.88,310.87c.21-.17.43-.34.63-.52l-.31-.71c.08.17-.09.47-.24.72S338.66,310.82,338.88,310.87Z"/><path class="cls-1" d="M329.77,318.35c.22.21.82.21,1.18.36l0-.71C330.64,318.16,330.16,318.56,329.77,318.35Z"/><path class="cls-1" d="M331,318.71l-.05,1.08C331.39,319.11,331.26,318.85,331,318.71Z"/><polygon class="cls-1" points="334.83 316.31 334.55 314.42 334.71 316.6 334.83 316.31"/><polygon class="cls-1" points="327.74 321.1 327.49 320.27 327.77 321.64 327.74 321.1"/><path class="cls-1" d="M326.4,323c-.19-.66-1.09-.28-1.09-.81A3.43,3.43,0,0,0,325,324C325.15,323.48,325.56,323.14,326.4,323Z"/><path class="cls-1" d="M324.92,325.06a4.68,4.68,0,0,0,.07-1A2.62,2.62,0,0,0,324.92,325.06Z"/><path class="cls-1" d="M329.85,321a1.39,1.39,0,0,0-1.14.06l.9.23Z"/><path class="cls-1" d="M329.64,321.28h0l-.52.6Z"/><path class="cls-1" d="M329.91,320.92l-.06.07C329.94,321,330,321,329.91,320.92Z"/><path class="cls-1" d="M333,318.15c.11.71-.09,2,1.15,1.4C333.81,318.9,333.11,319.24,333,318.15Z"/><path class="cls-1" d="M331.06,321.18a7.2,7.2,0,0,0,.74-.72c-.2-.11-.57-.14-.62-.51A9.67,9.67,0,0,1,331.06,321.18Z"/><polygon class="cls-1" points="330.97 321.74 331.06 321.18 330.77 321.44 330.97 321.74"/><path class="cls-1" d="M326.63,324.39a2.27,2.27,0,0,1-.63,1.36,6.05,6.05,0,0,0,1.36-1.08C327.22,324.43,327,323.93,326.63,324.39Z"/><path class="cls-1" d="M328.21,323s0,.07,0,.11S328.33,323.07,328.21,323Z"/><polygon class="cls-1" points="322.14 329.28 322.3 329.35 322.23 329.23 322.14 329.28"/><path class="cls-1" d="M327.55,324.71a.77.77,0,0,0,.4-.89,3.83,3.83,0,0,1-.59.85C327.43,324.78,327.48,324.84,327.55,324.71Z"/><path class="cls-1" d="M324.18,326.34a3.84,3.84,0,0,0,.87-.14C324.7,326.15,324.08,326.13,324.18,326.34Z"/><path class="cls-1" d="M327.92,323.06a.22.22,0,0,0,0-.08C327.71,323,327.79,323,327.92,323.06Z"/><path class="cls-1" d="M327.92,323.06a3.81,3.81,0,0,0,0,.76,1.76,1.76,0,0,0,.24-.72A1.36,1.36,0,0,1,327.92,323.06Z"/><path class="cls-1" d="M324.12,334.62a1.49,1.49,0,0,1,1.52-2c.42-1.17-1.81-2.68-3.34-3.27.19.29.4.53-.14,1.5a8.73,8.73,0,0,0,1.41-.09c.49-.06.9,0,.79.58-.83,1.2-1.09.47-1.87.54,1.07.45-.58,2.2.49,3.22l.73-1.17C323.87,334.1,323.7,334.66,324.12,334.62Z"/><path class="cls-1" d="M323.76,328.16l.24-.34a3.27,3.27,0,0,1-1.74.11c-.24.73-.17,1.06,0,1.3l1.56-1.25Z"/><path class="cls-1" d="M325.37,326.61c.37.83-.14,1.77,1,2,.91-.87.13-1.13.38-1.91-1.19,1.59,0-.75-1.26-.06a4.23,4.23,0,0,1,.55-.93,6.31,6.31,0,0,1-.95.45h.08c.13,0,.19,0,.09.06a.08.08,0,0,1,0,.05,1,1,0,0,1,.17.29c-.55.24-.22-.1-.17-.29a.41.41,0,0,0-.07-.11h0c-.36.55-.74,1.08-1.12,1.62A4.87,4.87,0,0,0,325.37,326.61Z"/><path class="cls-1" d="M335.08,321.48a.33.33,0,0,1-.21-.05C334.89,321.6,334.92,321.69,335.08,321.48Z"/><path class="cls-1" d="M334.18,321.93c0-.2-.24-.5.1-.86s.34.22.59.36c0-.38,0-1.21-.81-.66l0,.19c-.68.56-2.14.82-2.17.62A5.42,5.42,0,0,0,334.18,321.93Z"/><path class="cls-1" d="M330,324.76c-.23.54-.54,1-.82,1.53l1.16-.14-.37-.26C330.75,325.3,330.15,325.07,330,324.76Z"/><polygon class="cls-1" points="321.72 329.05 321.32 328.22 321.38 329.76 321.72 329.05"/><polygon class="cls-1" points="320.12 330.35 319.72 329.66 319.56 330.37 320.12 330.35"/><path class="cls-1" d="M249.34,270.31l.11-.61A2.18,2.18,0,0,0,249.34,270.31Z"/><path class="cls-1" d="M247.24,273.91l.3.26C247.44,273.91,247.33,273.76,247.24,273.91Z"/><path class="cls-1" d="M272.09,332.45c-.21-1-.23-2.32-.64-1.53l-.28.84A1.28,1.28,0,0,1,272.09,332.45Z"/><path class="cls-1" d="M247.23,306.23l-.21.27.94.32C247.74,306.64,247.48,306.45,247.23,306.23Z"/><path class="cls-1" d="M243.63,306.39l.38-1.17A3.4,3.4,0,0,0,243.63,306.39Z"/><path class="cls-1" d="M264.52,253.38l.1-1.09C263.7,252.85,264.36,253,264.52,253.38Z"/><path class="cls-1" d="M300.68,338.39a3.54,3.54,0,0,0-1.51-.3C299.91,338.48,300.59,339.14,300.68,338.39Z"/><path class="cls-1" d="M256.45,276.29a.59.59,0,0,0-.24-.61C256.18,276,256.23,276.24,256.45,276.29Z"/><path class="cls-1" d="M297.48,338.19c.11.08.21.12.32.19a3.67,3.67,0,0,1,1.37-.29C298.61,337.79,298,337.55,297.48,338.19Z"/><path class="cls-1" d="M338.32,267.6c0,.07,0,.14,0,.21S338.41,267.69,338.32,267.6Z"/><path class="cls-1" d="M338.43,291.07a5.26,5.26,0,0,1-.19-.8A1.38,1.38,0,0,0,338.43,291.07Z"/><path class="cls-1" d="M312.78,334.17c.37-.24,0-.12,0,0Z"/><path class="cls-1" d="M316.28,336.32a.59.59,0,0,0,0,.45A.71.71,0,0,1,316.28,336.32Z"/><path class="cls-1" d="M292.94,343.66h0C293,343.83,293,343.8,292.94,343.66Z"/><path class="cls-1" d="M313.55,334.24a2.58,2.58,0,0,0-.62,0A2.58,2.58,0,0,0,313.55,334.24Z"/><path class="cls-1" d="M313.29,333.91l.38-.08C313.66,333.67,313.57,333.61,313.29,333.91Z"/><path class="cls-1" d="M312.25,334.47a2.16,2.16,0,0,1,.68-.22c-.1,0-.15-.05-.15-.08Z"/><path class="cls-1" d="M301.13,247.93l.1.1C301.79,247.75,301.56,247.77,301.13,247.93Z"/><path class="cls-1" d="M256.69,331.68h.07l0-.08Z"/><path class="cls-1" d="M254.9,330.72c1.36-.13,1.57.28,1.83.89l1.38-2.18Q256.53,330.11,254.9,330.72Z"/><path class="cls-1" d="M255.18,262.23l-1.52.48c.18-2.08,1.38-2.71-.34-2.47.93,1,0,2-.8,3.09s-1.55,2.24-.52,3.13l-1,.38c.18-.19.07-.32.25-.51-1.06.32-.87.87-.6,1.53s.65,1.45-.1,2.27c-.58.54-1.21.8-1.2.18l-.34,1.81c-.31.4-.66.07-.35-.33a22.92,22.92,0,0,0-1,2.44l-.07-.06a13.44,13.44,0,0,1,.51,2.06c-.65.43-.12-.41-.5-.41l0,1.56c-.9.25-1-1.1-.46-2-1.53,0-1.52.4-1.46,1a2.42,2.42,0,0,1-1,2.53l.18-1.45c-1.76.28-1.64,1.54-3.12,2.78.62-.25,3.42-2.23,3.48-.47a1.8,1.8,0,0,0-.43,1.85c-.93-.29-.92.6-1.14,1.64l-1.22-.42c.06,1.23.71,1.31,1.1,2.09-.43,1.2-1.5,1.24-2.35,1.38-.54,2,1.78-1.08,1.63,1.36a4.51,4.51,0,0,0-.43,2.29,10,10,0,0,0,.56,2.64c-.5,1.13-.77-.27-1.15.12l1,1.11c0,.26-.35.16-.5.11.35.89,1.27.14,1.55,1.5.71.2.11.86-.36,1.72s-.86,1.92,0,2.71c-.34.44-.79-.15-1.28,0,.59,1.14.8,1.62,1.06,2a12.65,12.65,0,0,0,1.48,1.6l-.58,1.7c.76-1.32,2.12,0,3.22,1,.4-.49.74-.89.9-1.14l.49.88c.18.29.38.57.57.85-.15.27-.62.19-1.23,0l.39.27c-.28.78-1.08.62-1.91.28.18-.3.38-.59.58-.87a4,4,0,0,0-2.49-.38,1.35,1.35,0,0,1,.45.61c-.23-.09-.42-.14-.54-.05s.19.26.6.51l-1.27.78.58,0-.15,2.93a14.34,14.34,0,0,0,1.53,1.07c.55.33,1.12.65,1.67,1a11.8,11.8,0,0,1,1.58,1.18,14.66,14.66,0,0,1,1.4,1.57c-1.28-.23-1.63.55-2.78,1,.82-1.27-1.39-2-1.74-3.66.17.84-.45.88-.73.74l2.15,2.3c-1,.34-.45.86-.49,1.73,1.57-1.35,2.17,1.36,3.23,2.11-.56.39-1.29.47-1.79-.91-.32,1.06.44,1.27,1.21,1.42s1.61.22,1.45,1.2c-.2-.28-.2-.49-.57-.43.94.38,1.58,2.29.84,2.22l-.19-.29A15.23,15.23,0,0,0,252,325a17.88,17.88,0,0,0,1.6,1.76c1.11,1.06,2.25,1.74,3,1.28a14.16,14.16,0,0,1-2.11,1.24,62.93,62.93,0,0,0,6.9-1c-1.28.77-2.77,4.26-4.68,3.43a2.51,2.51,0,0,0,1.77,1.67c-.15-.41.76-2.15,1.23-1.91-.08,2.1.11,1.26.51,3.46-.22-.61,1.75-1.93,2.34-1.31-.32.17-1.39,1.79-1.79,1.76A28.2,28.2,0,0,0,264,335c-.68,0-1.24,1.45-1.21,2.27.07-.5,1.56,1.18,2.17,1.35l-.47-1a1.89,1.89,0,0,0,1.4.58,4.55,4.55,0,0,0,1.44-.39c1-.39,1.9-.82,2.88-.17-.47.26-2.07,2.1-1.1,3,.53-.37,1.73-1.21,3.08-2.11s2.75-1.66,3.8-1.65l.08.76.83,0,.84-.1a14.33,14.33,0,0,1-1.51,1.14c-.61.39-1.3.79-2,1.17a21.73,21.73,0,0,1-4.11,1.69c.62.87-.12.81,1.21,1.37.2.77-1.13.5-1.54.35l2.94,1.82c.2-.66.92-.67,1.63-.72s1.43-.12,1.57-.66a29.39,29.39,0,0,1-3.87-.12,3.36,3.36,0,0,1,2.12-1.64,4.61,4.61,0,0,1,3.27,0c.36.7-1.23,2.11-1.35,2.54.46-.33,2.38-.09,2.48.29l-1.16.35c.54.46,1.19.22,1.82.07a1.47,1.47,0,0,1,1.88.52c.49.21,1.17,2.08,1.45,1.32-.54-1.71.49-6.34,1.25-7.34.07.07.59.58,1.16,1.18a10.88,10.88,0,0,1,1.44,1.62c.64,1.31-1.75,2.64-1.22,3.76.1-.36.65-.73.87-.84.5.39-.41,1.08.83,1.1.39-1.32,2.42.47.72-1.06a1.75,1.75,0,0,1,1.23.17,2.49,2.49,0,0,0,1.36.37c-.35-.9,1.45-2.93,2.54-3.27a1.73,1.73,0,0,0,.27,1c.58.06,1.08.15,1.56.24l1.35.2a13.85,13.85,0,0,0,2.83.19c.22.32,1.33.67.93,1.27.3-.26.54-.78,1.21-.91,1.46,1-1.5.41-.33,1.67,0-.8,1.64-1.35,2.52-2-.49-1.16-2.22.09-3.15.73-.16-1.68,1.26-3.68,3.21-4.76.79-.31,1-.12,1.09.17s0,.64.09.49a3.11,3.11,0,0,0,2.51-1.88,1.89,1.89,0,0,1,2.18-1.19c1.32.68.73,2,1.19,2.68-1.23.9-2.3,0-3.21.28l1.29.2a2,2,0,0,1-1.8.78,2.32,2.32,0,0,0,1.39.12c.31,0,.65-.1,1-.17s.73-.22,1.12-.35c.77-.25,1.59-.53,2.39-.74.4-.11.8-.2,1.19-.27a7.47,7.47,0,0,1,1.07-.21c.28-.52.84-1.2.32-1.43l-.68.48c-1-.49.88-1.73-.2-1.68a16,16,0,0,1,1.11-1.57,3.24,3.24,0,0,1,1.7-1l.83.93c-.21-.31-1.16-.12-1.37.36.28-.72,2.78.3,2.57-1.42l-1.32-.21c.29-.53.54-1.23.87-1.83a2.71,2.71,0,0,1,1.32-1.33c-1.13-.68-.14.32-1.65-.41,1.6,1.1-2.73,1.51-.74,2.49a2,2,0,0,0-1.65-.34,2.28,2.28,0,0,1-1.73-.19c.22.34.72.51-.29.77a1.4,1.4,0,0,1-.05.41h-.07l.07,0c0,.08,0,.09,0,0a1.48,1.48,0,0,1,.75.33c-.06,1-1.61,1.75-1.94,2.43-.65.1.06-.54-.42-.79-.16.36-.35.65-.53,1-.42-.8-2.08-.84-.91-1.81l-1.23.39a2.58,2.58,0,0,0-2.4.48c-.63,0-1.22,1.32-.89.52l-1.84,1-.07-.21c-1,.24-1.94.66-3,1a3.61,3.61,0,0,1-3.38-.26,4,4,0,0,1-2.49.37l-.23-.76c-.43.19-1.08-.07-1.65-.22s-1.09-.24-1.29.15a1.61,1.61,0,0,0-1-1,6.12,6.12,0,0,0-1.5-.24,11.6,11.6,0,0,1-3-.21l-.24,1a11.53,11.53,0,0,0-3.4-.14l-.15.88a1.59,1.59,0,0,1-1,0,3.16,3.16,0,0,1-1-.57,8.11,8.11,0,0,0-2.3-1.37c.24-.27.63,0,.86.26a2.15,2.15,0,0,0-1.3-1.15,7,7,0,0,0-1.68-.26c-1.17-.08-2.43-.07-2.94-1.18a.93.93,0,0,1-1-.61.17.17,0,0,0,.12,0l-.16-.11c-.11-.24-.21-.51-.34-.75a2.27,2.27,0,0,0,.24.7,5.32,5.32,0,0,0-1.47-.46l.31-.93-.13,0c-.26-.57-.62.16-.76.92a3.69,3.69,0,0,0-.95.09c.51-1.55-1.51-.46-1-2.16-.39.21-1.05-.08-1.78-.28a2.13,2.13,0,0,0-2.14.14c.13-.18.07-.38.32-.18-.36-.58-.71-1.14-1.47-1.17l.63-1.08c-.71.09-1.47.21-2.17.24-.07-1.17,0-1.71,1.26-1.77-2.41-.46-1.49-.79-3.76-1.12l.66-.45c-.43-.43-1.84-.58-1.57-1.29.19-1-.9-2.33-1.84-4.06l-.77-1.3a7,7,0,0,1-.67-1.38,9.92,9.92,0,0,1-.71-2.85c-.91.79-.86.31-.79-.28s.27-1.31-.59-1c.44-.4.56-.95,1.2-.61a4,4,0,0,1-.7-2,1.9,1.9,0,0,0-.32-.78,1.78,1.78,0,0,0-.86-.63c.48-.35.87.12,1.14-.14-.15-.1-.6-.4-.33-.66s.51.12.81.31c-.53-1.63-2.23-1.41-3.81-1.17a1.47,1.47,0,0,0,.17-1.21,1.78,1.78,0,0,0-1-.77c.46-.43.92-1.05,1.28,0,0-.67.13-3.95-1.12-3.89.31-.23,0-.91-.1-1.07a15.17,15.17,0,0,0-.09-3l-.19.4c-1.6-.56-.35-1.21-.47-2.38l.15,0c.63-1.31.51-1.59.41-1.88s-.25-.6.62-1.81l-1,0c-1-.25-.61-.81,0-1.49s1.31-1.44,1.07-2.27c-.23.14-.43.29-.64.44-.31-.5.58-.93,1.51-1.29a7.19,7.19,0,0,0,2.23-1c.21-.12.2.34.27.6,1.69-1.64-1.14-.59-1-2.19.74-.07,1.5.85,2-.07.35-.15.09-1,0-2s-.14-2.08.82-2.43c-.62.06-1.24.14-1.27-.69.17-.55,1-1,1.57-1.55a2.25,2.25,0,0,0,.68-.85,1.2,1.2,0,0,0-.07-1.08.62.62,0,0,1,.46,0c.1-.93.88-2.75.45-3.71,1.61.62,2.08-.65,2.51-1.92s.91-2.42,2-1.4l1.7-2.06.17.27a2.86,2.86,0,0,0,1.31-2.88c.44-.11.41.3.49.44a14.48,14.48,0,0,0,1.33-.76A3.16,3.16,0,0,0,267,263a7.25,7.25,0,0,0,1.08-2.41l.74.68c0-.2.29-.36.68-.51s.94-.23,1.51-.38a8.44,8.44,0,0,0,1.73-.64,5.19,5.19,0,0,0,.79-.53,3.17,3.17,0,0,0,.72-.65.67.67,0,0,1,0,.51,3.61,3.61,0,0,1,1.92-1,9.83,9.83,0,0,1,2.27-.3c1.46-.11,2.55-.43,2.49-2.32.49-.5,1-.88,1.54-1.33-2.43.31-.06-1.6-1.2-1.94.93-.45,2.74.44,1.62.91l-.23-.13c.05,1.95,3.09-.13,3.29,1.23,1.15-.19,2.3-.31,3.45-.4a9.77,9.77,0,0,1,1.71,0l1.71.1,1.67.11c.56.07,1.11.18,1.65.25,1.09.18,2.17.27,3.22.39-.11-.51-.22-1-.35-1.5.51.05,1,.19,1.52.28.35.4.37,1.22-.68,1,.45.91,1.87-.42,2-.73,2,.89-1.08,1.56-.44,1.69l.87,0-.16-.2c.39-.24.64-.52.94-.7a1.43,1.43,0,0,1,1.3-.07c.74.49.21,1,.51,1.12,0,.1.07.17.46.16l1.79.57-.43-1.29c1-.35,1.75.49,1.24-1,.38,1.11,2,1.94,3.61,2.5l.61.21.56.26,1,.46a3,3,0,0,1,1.18.76c1.48-.3,2.49.39,3.71,1.22a.79.79,0,0,1,1.32-.82c-.91,1-.55,1.55,0,2.11s1.22,1.26,1.05,2.33c0-.78.77-.33,1.53,0s1.45.74,1.49-.46c.66.88-.58.83-.39,1.84a4.68,4.68,0,0,1,1.67,1,6.66,6.66,0,0,1,1.34,1.62c.4.61.79,1.25,1.22,1.85.22.3.45.59.7.87a7.29,7.29,0,0,0,.72.86c.3-.18.4-.93,1.21-.73-.12.8-.26,1.58-.41,2.35.48.36,2-.77,1.63.84.17-.3.41-.75.72-.47a13.36,13.36,0,0,0,.83,2.17c.32.7.75,1.33,1.05,2s.71,1.35,1.09,2l.58,1c.17.34.31.7.47,1.05a15.11,15.11,0,0,1,1.42,4.4,13.89,13.89,0,0,1,.14,2.33,4.49,4.49,0,0,1-.17,1.18,10.86,10.86,0,0,1-.35,1.2c.55-.91.7-.39.82.22.1-.43.86-.13,1.32-.29-.32.93-.59,1.83-.94,2.7,1.34.35.23,2.71,1.51,2.93l-.27-.82c.77.51,1.58.11,2.43-.47A5.46,5.46,0,0,1,345,293a1,1,0,0,1-.42-1.14,8.54,8.54,0,0,1,.46-1.49c.38-1.06.63-2.31-.74-3.19.3-.57.67.3,1.07-.05a2.11,2.11,0,0,1-1.22-2.36l.23.09a40.06,40.06,0,0,1-1-4.37c-.12-.69-.24-1.39-.37-2.17l-.25-1.27c-.11-.43-.27-.89-.43-1.39l-.73.67a3,3,0,0,1-.06-1.61c-1.74-.27,1,2.26-.82,2.1.63-.91-.06-2.32-.7-3.68s-1.44-2.57-.73-3.51c-.72-1.18-.71.93-1.42-.23l.3-.64-.81.14a1.59,1.59,0,0,1,.28-1.9c.09.21.5.42.68.58-.16-1.35-2.23-2.5-2.29-3l.53,1.29-4.15-4.39a14,14,0,0,0-2.31-2,13.35,13.35,0,0,0-2.52-1.44l-.08.53c-2.62-1-1.43-1.69-4.06-3.14l.15,0a3.64,3.64,0,0,1-2.2-.62c.92-.06-.7-1.59.45-1.59-1.51-.37-1.91-.4-2.24-.28a10.7,10.7,0,0,1-1.85.7l-.06-.85a2.69,2.69,0,0,1-2.47.18c1.34-.07-.39-1.42,1.18-1.62a3.64,3.64,0,0,0-1.7-1.29,6.2,6.2,0,0,0-1.65-.19c-1,0-1.75-.06-2.07-1.43-2,1.48,2.17,2,1.28,2.13.38.85-1.6,1.06-2.41.56-.44-.2-.64-.93-1.05-1.69a3.36,3.36,0,0,0-2.27-1.87c.24.07.29-.08.54,0-.82-.72-1.94.19-2.93-.78-.86,1.13-1.49-.29-1.91,1.25l2.31,0c-1.38.21-2.79,1.87-4.72.68a3.24,3.24,0,0,1,1.31-.79c-.56-.53-1.21.09-1.8-.39.34-1.64,2.78,0,4.36-1-.58-.77-2.82.74-1.88-.85a1.37,1.37,0,0,1-1.94.61,2.28,2.28,0,0,0-2.39.38l.16-.94a2.79,2.79,0,0,1-1.36.51l1-1.19c-1.43,1-2.71-1.09-4.09-.4,1.43-.09,1.59.2,1.54.58s-.29.83.29,1.21c-3.37,1.36-2-2.43-6-1.77.53-.18,2.05.46,1.25.94a11.5,11.5,0,0,1-1.23-.34,3.16,3.16,0,0,1-1.06-.49c-2.57.57.52.91-.5,1.64-1-1-1.19.66-2.21,1.18l-.17-.95c-1.51-.1-1.59.52-1.64,1s-.06,1-1.39,1l.76-1.57-1.25.66v-1.13c-1.26,1.18-1.77,1-3.26,1.19a1.41,1.41,0,0,1-.84,2.18c-1-.25.16-1-1.51-.29.17-.7.36-1.57,1.41-1,0-.33.19-.71.18-1-1.13-.3-2.36.68-3,.92a1.51,1.51,0,0,1,.78,0l-1,1.07c-.33.37-.63.78-.95,1.17-.52-.16-.34-.56-.15-1-.45.33-.61.89-1.29,1.3-.15-.79-.54-1.51.36-2.33l-2,1.89c-.3-.24-1.63-.26-1.46-.66-1.52.32-2.33,3.1-4.27,3.57a1.15,1.15,0,0,1-.34.75c-.77.44-1.62.71-2.41,1.13a3.84,3.84,0,0,0-2,2.13l-1.83-.27c-1,1.35,2.39.26.69,2.47-1.13,1.6-1.36-.39-2.15-.22-.2,1.24-.27,3.42-2.33,4C254.4,262.91,254.88,262.7,255.18,262.23Zm-10,17.52c0-.44-.36-1.4.28-1.47C246.31,279.11,245.7,279.23,245.16,279.75Zm1,29.6c-.38-.18-.34-.64-.11-1.2A1.59,1.59,0,0,1,246.13,309.35Zm62.47,27.31s0,0,0,.06C307.79,336.6,308.08,336.66,308.6,336.66Zm1.56-.11a.29.29,0,0,0-.07-.4c0,.26-.33.39-.71.45C309.56,336.81,309.81,336.9,310.16,336.55Zm-5.11-81.32-.23-.32C305.54,254.81,305.3,255,305.05,255.23Z"/><path class="cls-1" d="M244.05,306.38a1.19,1.19,0,0,1,.48-.26C244.35,306,244.17,306,244.05,306.38Z"/><path class="cls-1" d="M264.51,253.59l.05,0a.58.58,0,0,0,0-.19Z"/><path class="cls-1" d="M285.73,346.77a1.45,1.45,0,0,1-.61-.6C285.06,346.4,285.19,346.62,285.73,346.77Z"/><path class="cls-1" d="M316.54,331.71l-.68.69a1.09,1.09,0,0,1,.89-.16C316.62,332.06,316.3,331.87,316.54,331.71Z"/><path class="cls-1" d="M327,331.43c0-.2.24-.23.27-.42l-.33-.31C326.49,331.16,326.38,331.73,327,331.43Z"/><path class="cls-1" d="M319,334c.49.64.92.1,1.42-.42a.39.39,0,0,1-.1.08C319.84,332.61,319.42,333.3,319,334Z"/><path class="cls-1" d="M320.51,333.47a1.89,1.89,0,0,1,.52-.41C320.83,332.64,320.76,333.14,320.51,333.47Z"/><path class="cls-1" d="M311.75,335.39c.37.06-.23-1,.06-.81-.05-.55-.38,0-.56.45S311.05,336,311.75,335.39Z"/><polygon class="cls-1" points="320.9 335.96 320.14 335.25 320.21 336.14 320.9 335.96"/><path class="cls-1" d="M315.44,338.12l1.19-.25c-.09-.14,0-.29.13-.44C316.09,337.71,315.29,337.86,315.44,338.12Z"/><path class="cls-1" d="M316.76,337.43a1.24,1.24,0,0,0,.75-.58A5.28,5.28,0,0,0,316.76,337.43Z"/><polygon class="cls-1" points="319.65 337.05 319.25 337.05 318.49 337.41 319.65 337.05"/><path class="cls-1" d="M303.5,341.83l-1.21.47c-.08.36.3.52.76.31C303.31,342.33,303.76,342.13,303.5,341.83Z"/><path class="cls-1" d="M308,343.61c-.41-.12-.49-.33-.77-.6l.27,1.22Z"/><path class="cls-1" d="M304.2,344.79c-.06.36-1.79,1.27-.08.94C304.2,345.37,305.49,344.88,304.2,344.79Z"/><polygon class="cls-1" points="284.3 343.06 284.63 343.13 284.99 341.12 284.3 343.06"/><path class="cls-1" d="M265.66,340.71c1.22,1.29,1-.87,2,.43.58-.22-.81-1.06-.25-1.21C266.29,339.86,266,339.33,265.66,340.71Z"/><path class="cls-1" d="M267.41,339.93a3.05,3.05,0,0,0,.6,0A1.79,1.79,0,0,0,267.41,339.93Z"/><polygon class="cls-1" points="337.66 294.43 337.28 295.33 337.94 294.73 337.66 294.43"/><path class="cls-1" d="M339.26,296.09l-1.29.24,1.21.53C339.11,296.65,339,296.26,339.26,296.09Z"/><path class="cls-1" d="M241.69,281.85l.28.17c.37-.08.46-.32.65-.81Z"/><polygon class="cls-1" points="249 268.45 248.84 268.65 250.08 268.89 249 268.45"/><path class="cls-1" d="M256.12,257.69A15.2,15.2,0,0,0,255,259C255.66,258,257.25,258.68,256.12,257.69Z"/><rect class="cls-1" x="37.03" y="210.65" width="357.01" height="2" transform="translate(-86.54 210.13) rotate(-44.19)"/><path class="cls-1" d="M135.63,181.76c-27.08,0-49.11-21.42-49.11-47.76s22-47.75,49.11-47.75,49.12,21.42,49.12,47.75S162.71,181.76,135.63,181.76Zm0-93.51c-26,0-47.11,20.53-47.11,45.75s21.14,45.76,47.11,45.76,47.12-20.53,47.12-45.76S161.61,88.25,135.63,88.25Z"/><path class="cls-1" d="M294.58,344.61c-27.08,0-49.12-21.42-49.12-47.75s22-47.76,49.12-47.76,49.11,21.43,49.11,47.76S321.66,344.61,294.58,344.61Zm0-93.51c-26,0-47.12,20.53-47.12,45.76s21.14,45.75,47.12,45.75,47.11-20.52,47.11-45.75S320.56,251.1,294.58,251.1Z"/><path class="cls-1" d="M396.22,367a1.44,1.44,0,0,1,.73.12,5.56,5.56,0,0,1,.64.77h13.87l6.77,1.29h2.26a5.14,5.14,0,0,1,3.83,1.61,12.93,12.93,0,0,1,2.54,3.75,20.68,20.68,0,0,1,1.41,4.31,18.61,18.61,0,0,1,.44,3.39,27.11,27.11,0,0,1-.2,3.06,14.23,14.23,0,0,1-.81,3.35,9.28,9.28,0,0,1-1.81,3,6.5,6.5,0,0,1-3.23,1.93,2.71,2.71,0,0,0-.88.21,8.51,8.51,0,0,0-1.13.48q-.57.28-1,.48a2,2,0,0,1-.72.21,12.47,12.47,0,0,1-1.58-.13,9.17,9.17,0,0,1-2-.48,6.92,6.92,0,0,1-1.74-.89,1.65,1.65,0,0,1-.72-1.41,1.66,1.66,0,0,1,.64-1.53,4.8,4.8,0,0,1,1.66-.6c.67-.14,1.39-.3,2.17-.49a5.14,5.14,0,0,0,2.18-1.13,6,6,0,0,0,1.65-2.66,15.59,15.59,0,0,0,.65-5,8.87,8.87,0,0,0-.08-1.08,2.21,2.21,0,0,0-.57-1.17,6.35,6.35,0,0,0-1.85-1.62,16,16,0,0,0-2.54-1.21,19.14,19.14,0,0,0-2.46-.72,9.51,9.51,0,0,0-1.45-.24h-1.37a1.46,1.46,0,0,0-.73.24,3.65,3.65,0,0,0-.72.56,1.71,1.71,0,0,0-.45.73.77.77,0,0,0,.12.72v19l.89,3.63c-.16.75-.32,1.43-.48,2s-.2,1.06-.29,1.57a8.05,8.05,0,0,0-.12,1.09c0,1.5.41,2.46,1.21,2.86a6.14,6.14,0,0,0,2.62.64,25.31,25.31,0,0,1,2.62.21,1.28,1.28,0,0,1,1.21,1.45v.88a2.17,2.17,0,0,1-.24.85,10.71,10.71,0,0,1-.56,1.05,4.34,4.34,0,0,1-.73.89,1.16,1.16,0,0,1-.72.36h-1.38a7.28,7.28,0,0,1-2-.45,7.61,7.61,0,0,0-2-.44h-5.16c-.21,0-.65,0-1.33.12s-1.41.19-2.21.32-1.59.25-2.34.33-1.32.12-1.69.12c-.6,0-1.16,0-1.7,0a3.41,3.41,0,0,1-1.41-.36,2.89,2.89,0,0,1-1-.93,3.32,3.32,0,0,1-.4-1.82c0-.37,0-.82,0-1.33a4.43,4.43,0,0,1,.32-1.45,3.15,3.15,0,0,1,.85-1.17,2.54,2.54,0,0,1,1.69-.48l.89.64h3a2,2,0,0,0,2.18-2.25v-2.42l.89-3-.89-1.54a8.58,8.58,0,0,1,.4-1.21l.33-1a2.94,2.94,0,0,0,.16-.73,3.94,3.94,0,0,0-.45-1.53,4.16,4.16,0,0,1-.44-1.61.66.66,0,0,1,.12-.41,5.58,5.58,0,0,0,.32-.48,2.91,2.91,0,0,0,.33-.81,6.44,6.44,0,0,0,.12-1.45v-4.51a1.87,1.87,0,0,0-.45-1.09,3.11,3.11,0,0,1-.44-1.82v-2.25a5.25,5.25,0,0,1,.4-1.86c.16-.37.33-.78.49-1.21a2.66,2.66,0,0,0-1-2.09,4.1,4.1,0,0,0-2.74-.89h-.89a5.48,5.48,0,0,1-1-.16c-.48-.11-1-.26-1.53-.44a6.17,6.17,0,0,1-1.41-.69,1.11,1.11,0,0,1-.6-.89,2.36,2.36,0,0,1,.36-1.29,3.69,3.69,0,0,1,.89-1,5.1,5.1,0,0,1,1-.65A2.17,2.17,0,0,1,396.22,367Z"/><path class="cls-1" d="M455.16,395.42a3.68,3.68,0,0,0,1.77-.48,2.68,2.68,0,0,1,2.26,0,7.1,7.1,0,0,1,1.61-.89,5.62,5.62,0,0,1,2.66-.24,2.65,2.65,0,0,0-.16.48,5.66,5.66,0,0,0-.08,1.13,3.18,3.18,0,0,1-.24.89,9,9,0,0,1-.69,1.41,10.35,10.35,0,0,1-1.13,1.57,5.79,5.79,0,0,1-1.49,1.29h-4c-.22,0-.56,0-1.05,0l-1.57.12a10.2,10.2,0,0,0-1.61.28,4.54,4.54,0,0,0-1.17.45,4.41,4.41,0,0,1-2.26.44,8.75,8.75,0,0,0-2.9.44,9.26,9.26,0,0,0-2.34.41,4.84,4.84,0,0,1-2.18.24,4.24,4.24,0,0,1-2.3.52c-.88,0-1.89,0-3,0l-1.13-.24a6.41,6.41,0,0,1,.08-.77c.06-.35.14-.72.25-1.12a6.27,6.27,0,0,1,.4-1.13,2,2,0,0,1,.56-.77c1.72-.59,3.46-1.14,5.2-1.65s3.46-.93,5.12-1.25a4.1,4.1,0,0,1,2.22-.24,8.25,8.25,0,0,0,2.94-.25ZM461.69,384a7.49,7.49,0,0,0,1.13-.08l.88-.16a3.23,3.23,0,0,1,.89,0,4.51,4.51,0,0,1,1.13.28,7.1,7.1,0,0,0,1.09,1.17,1,1,0,0,1,.44,1.09,1.72,1.72,0,0,1-.4.8c-.27.38-.57.78-.89,1.21s-.65.89-1,1.37a4.78,4.78,0,0,0-.64,1.29c-1.13,0-2.26,0-3.39,0s-2.53.1-4.19.21c-1.13.16-2.37.32-3.71.48s-2.69.34-4,.52-2.61.39-3.79.61-2.21.43-3.07.64a1.08,1.08,0,0,0-1,.25.52.52,0,0,0-.16.4c-1.13.11-2.09.19-2.87.24a8.83,8.83,0,0,0-2.94.89.61.61,0,0,0-.24-.77.7.7,0,0,1-.24-.85,2.46,2.46,0,0,1,.24-.8,9.59,9.59,0,0,1,.64-1.21c.27-.43.58-.87.93-1.33a5.11,5.11,0,0,1,1.09-1.09,5.83,5.83,0,0,1,1.85-.6c.76-.14,1.54-.26,2.34-.37s1.59-.24,2.34-.4a5.34,5.34,0,0,0,2-.89,4.68,4.68,0,0,0,1.61,0c.37-.08,1-.17,1.77-.28l.81-.32a7.82,7.82,0,0,0,1.61-.81q0-.24.81-.36a17.76,17.76,0,0,1,1.85-.16q1.05,0,2,0a6.46,6.46,0,0,1,1.17.12c.69-.32,1.31-.59,1.85-.81A5.59,5.59,0,0,1,461.69,384Z"/><path class="cls-1" d="M502,367h3.79a3.58,3.58,0,0,1,2.86,1.41,11.19,11.19,0,0,1,1.85,3.18,20.51,20.51,0,0,1,1,3.35,14.16,14.16,0,0,1,.32,1.89,4.35,4.35,0,0,0,.09,1,2.82,2.82,0,0,0,.24.69,4.14,4.14,0,0,0,.32.56,2.67,2.67,0,0,1-.08.57,2.18,2.18,0,0,1-.57,1,6.43,6.43,0,0,1-.08,1.09.53.53,0,0,1-.56.53q-.4,0-1.29-.93c-.59-.62-1.21-1.3-1.85-2.06s-1.59-1.93-2.5-3.06a21.76,21.76,0,0,0-2.38-1l-2.86-1.05c-1.13-.37-2.29-.72-3.47-1a14.37,14.37,0,0,0-5.12,1,14.79,14.79,0,0,0-4.6,2.82,16.39,16.39,0,0,0-3.46,4.52,15.19,15.19,0,0,0-1.66,6.05,8.29,8.29,0,0,1-.32,2.58,6.68,6.68,0,0,0-.32,2.09c0,.76,0,1.39.08,1.9a6.74,6.74,0,0,0,.56,1.89,23.18,23.18,0,0,0,1.62,3.63,19.67,19.67,0,0,0,2.46,3.59,13.52,13.52,0,0,0,3.18,2.74,7.09,7.09,0,0,0,3.79,1.09l2.9-1a4.64,4.64,0,0,0,2.46-.85,2.72,2.72,0,0,0,1.33-2.46V401c-.11-.64-.24-1.3-.4-2a10.62,10.62,0,0,0-.73-2.06,18.47,18.47,0,0,0-1.57-2.3,5.69,5.69,0,0,0-1.57-1.49c-.76-.27-1.13-.64-1.13-1.13a.59.59,0,0,1,.36-.52,2.66,2.66,0,0,1,.85-.28,8.33,8.33,0,0,1,1.29-.08h9a4.8,4.8,0,0,0,.93-.08l.76-.21a10.73,10.73,0,0,1,1-.24,10.18,10.18,0,0,1,1.77-.12,6.19,6.19,0,0,1,1.05.4,2.57,2.57,0,0,1,.77.49.89.89,0,0,1,.36.64,5.1,5.1,0,0,1-.4,1.57c-.27.73-.57,1.09-.89,1.09h-.89a3.48,3.48,0,0,0-2.78,1.29,3.85,3.85,0,0,0-1.09,2.34V403a3.21,3.21,0,0,1-.32,1.61,3.79,3.79,0,0,0-.32,1.77,9.74,9.74,0,0,1,.24,1.29,6.35,6.35,0,0,1,0,1.25,3.76,3.76,0,0,1-.28,1.25,1.26,1.26,0,0,1-.36.93c-.25.24-.5.47-.77.69a10.35,10.35,0,0,1-1.13.64l-5.4.89h-1.29a6.53,6.53,0,0,1-1-.12c-.46-.08-.94-.19-1.45-.33a15.28,15.28,0,0,0-1.61-.32,11.33,11.33,0,0,0-1.57-.12H489a5.36,5.36,0,0,1-1.13-.16,6.35,6.35,0,0,1-1.37-.48,13.26,13.26,0,0,0-2.42-.57,14.6,14.6,0,0,0-1.85-.16,1.74,1.74,0,0,0-.77-.52l-1.13-.45a7.92,7.92,0,0,1-1.13-.56,1.88,1.88,0,0,1-.76-.89A4.66,4.66,0,0,1,476.8,407a29.85,29.85,0,0,1-2-3.19,33.29,33.29,0,0,1-1.7-3.58,8.58,8.58,0,0,1-.72-3v-1.37a3.88,3.88,0,0,0-.44-1.57,3.76,3.76,0,0,1-.45-1.57v-5.32c.33-.86.62-1.67.89-2.42s.42-1.3.6-2a6.36,6.36,0,0,0,.29-1.65l.64-1.37a6.86,6.86,0,0,1,1.37-3.79,22.67,22.67,0,0,1,3.27-3.79,21,21,0,0,1,3.95-2.94,7.44,7.44,0,0,1,3.51-1.17l1.2-.16,1-.16a4.39,4.39,0,0,1,.81-.08h.89a7.85,7.85,0,0,0,1.73-.13,5.93,5.93,0,0,0,1-.32,5.74,5.74,0,0,1,1.17-.32A13.47,13.47,0,0,1,496,367H502Z"/><path class="cls-1" d="M471.28,482.17a1.91,1.91,0,0,0,1.29-.6,1.5,1.5,0,0,1,1.61-.29,8.5,8.5,0,0,1,1.17-1,3.68,3.68,0,0,1,2-.41v1.37a5.51,5.51,0,0,1-.16.93,11.56,11.56,0,0,1-.49,1.53,15.84,15.84,0,0,1-.76,1.7,5.92,5.92,0,0,1-1,1.41,6,6,0,0,0-1.17.12,10.07,10.07,0,0,1-1.81.12,3.71,3.71,0,0,0-1.25.28,4.47,4.47,0,0,0-1.41.85,2.76,2.76,0,0,1-1.58.64,9.19,9.19,0,0,0-2.21.65,2,2,0,0,0-1.29.56,1.91,1.91,0,0,1-1.21.57,2.34,2.34,0,0,1-1.66.64c-.78.06-1.57.08-2.37.08h-.65c0-.37,0-1,.08-1.93a3.24,3.24,0,0,1,.57-1.94,29.39,29.39,0,0,0,3.38-2.05,13.24,13.24,0,0,1,3.39-1.74,2.11,2.11,0,0,1,1.45-.52,5.3,5.3,0,0,0,2.1-.61Z"/><path class="cls-1" d="M507.56,462.82a2.73,2.73,0,0,1,1.82.53,3.35,3.35,0,0,1,.92,1.33,5,5,0,0,1,.37,1.65c0,.56,0,1,0,1.41v1.53a9.58,9.58,0,0,1-1.66,3.39,3.63,3.63,0,0,1-3,1.53,5.21,5.21,0,0,1-2.58-.77,6.17,6.17,0,0,0-3.06-.76,5.8,5.8,0,0,0-3.47,1.25,16.35,16.35,0,0,0-3.06,2.94,17.51,17.51,0,0,0-2.22,3.43,6.66,6.66,0,0,0-.85,2.7v5.32a28.93,28.93,0,0,0,.32,3.3,34,34,0,0,0,1.05,4.8,18.28,18.28,0,0,0,1.9,4.36,3.41,3.41,0,0,0,2.94,1.89l1.61-.64a12.88,12.88,0,0,0,3.47-.45,6.72,6.72,0,0,0,3-1.81,21.18,21.18,0,0,1,3.39-3.31,2.79,2.79,0,0,1,1.13-.56,4.57,4.57,0,0,1,1.13-.16c.1.11.24.27.4.48a2,2,0,0,1,.48,1.13,8.55,8.55,0,0,1-1.29,4.07,25.24,25.24,0,0,1-3.1,4.35,26.79,26.79,0,0,1-3.71,3.51,5.66,5.66,0,0,1-3.1,1.45h-.65c-.75.16-1.45.33-2.09.49s-1.16.21-1.7.32a6.47,6.47,0,0,1-1.13.16,4.69,4.69,0,0,1-1.81-.56c-.78-.38-1.6-.82-2.46-1.33a20.44,20.44,0,0,1-2.34-1.62,4,4,0,0,1-1.29-1.49,4.25,4.25,0,0,1-.84-1.57c-.35-.89-.7-1.88-1.05-3s-.65-2.19-.89-3.27a12.18,12.18,0,0,1-.36-2.42v-2.5c-.16-.32-.32-.61-.49-.88a3.2,3.2,0,0,1-.4-1.37c.11-.65.24-1.27.4-1.86s.22-1,.33-1.53a7.68,7.68,0,0,0,.16-1.29v-1.77a1.67,1.67,0,0,0-.16-.61c-.11-.24-.22-.5-.33-.77a4.44,4.44,0,0,1-.4-.88l.89-2.5V479c.43-.92.83-1.75,1.21-2.5s.65-1.26,1-1.86a6.39,6.39,0,0,1,.92-1.29,5.81,5.81,0,0,1,1.21-2.74,14.51,14.51,0,0,1,2.3-2.26,25.53,25.53,0,0,1,2.86-1.93l3.07-1.77c.59-.11,1.18-.25,1.77-.41l1.33-.32a4.73,4.73,0,0,1,.93-.16h4.67Z"/><path class="cls-1" d="M454.28,119.77c0-.7-.21-1.14-.64-1.33a4.51,4.51,0,0,0-1.78-.28,4.67,4.67,0,0,0-.92.16c-.46.11-.94.24-1.45.4s-1,.3-1.5.41a6.14,6.14,0,0,1-1,.16,3.57,3.57,0,0,1-1.58-.28,1.48,1.48,0,0,1-.72-.85,4.13,4.13,0,0,1-.2-1.41v-2a13.61,13.61,0,0,1,.12-1.73.93.93,0,0,1,1-.93,21.16,21.16,0,0,1,3.54.32,19.55,19.55,0,0,0,3.39.33,2.8,2.8,0,0,0,1.57-.45,1.46,1.46,0,0,0,.69-1.33,5.17,5.17,0,0,0-.33-1.89c-.21-.57-.44-1.12-.68-1.65s-.47-1.08-.69-1.62a4.81,4.81,0,0,1-.32-1.77c0-1.13.42-1.75,1.25-1.86a23.3,23.3,0,0,1,2.78-.16,3.47,3.47,0,0,0,1.21-.24l1.21-.44a1.94,1.94,0,0,1,.89-.16c.21,0,.32.23.32.6a9.75,9.75,0,0,1-.24,1.82,10,10,0,0,0-.24,2c0,.48,0,1-.08,1.65a12.38,12.38,0,0,0,0,1.82,4.47,4.47,0,0,0,.32,1.57,1.32,1.32,0,0,0,.92.85,4.57,4.57,0,0,0,1.42.08,5.77,5.77,0,0,1,1-.08,13.8,13.8,0,0,0,3.35-.37,13.53,13.53,0,0,1,3.18-.36c.7,0,1.11.27,1.21.81a8.42,8.42,0,0,1,.17,1.69,10.51,10.51,0,0,1-.09,1.29,5,5,0,0,1-.32,1.33,3,3,0,0,1-.64,1,1.33,1.33,0,0,1-1,.4q-2.1,0-3.51-.12t-3.42-.12a2.44,2.44,0,0,1-1.05-.12q-.17-.12-.57.36a4.13,4.13,0,0,1-.88,1c-.16.08-.25.42-.25,1a6.27,6.27,0,0,0,.13,1.29,6.61,6.61,0,0,1,.12,1.21,1.07,1.07,0,0,1-.25.76,1.16,1.16,0,0,0-.24.77,2.28,2.28,0,0,0,.12.89,2.12,2.12,0,0,0,.25.4,2.17,2.17,0,0,1,.24.44,2.6,2.6,0,0,1,.12.93,8.1,8.1,0,0,0,.16,1.77c.11.49-.19.73-.89.73h-2.9a3.54,3.54,0,0,0-1.09.24,13.17,13.17,0,0,1-1.33.4,7.26,7.26,0,0,1-1.13.21c-.32,0-.48-.1-.48-.37a9.56,9.56,0,0,1,.28-2.05c.19-.84.39-1.7.61-2.58l.6-2.54A9.09,9.09,0,0,0,454.28,119.77Z"/><path class="cls-1" d="M495.08,93.08a4.56,4.56,0,0,1,.92.09q.45.08,1.05.12c.41,0,.89.06,1.45.12s1.31.08,2.22.08l2.66-.65c.43-.1.83-.21,1.21-.32a5.72,5.72,0,0,1,1-.24,5.26,5.26,0,0,1,.73-.08,3.47,3.47,0,0,1,1.41.4,9.17,9.17,0,0,1,1.49.89,7,7,0,0,1,.72,2.5,8.3,8.3,0,0,0,.65,2.5,3.47,3.47,0,0,1,.56.92c.22.46.43.9.65,1.33a12.17,12.17,0,0,0,.8,1.78q0,1.53-2,1.53a2.88,2.88,0,0,1-1.45-.77,26,26,0,0,0-2.5-1.69A20.53,20.53,0,0,0,503,99.9a14.6,14.6,0,0,0-5-.77l-1.53.4a8.82,8.82,0,0,1-.93,1.21,1.36,1.36,0,0,0-.44.81v.73c-.11.43-.22.83-.32,1.2a7.29,7.29,0,0,0-.25,1,5.42,5.42,0,0,0-.08.73V111a5.46,5.46,0,0,0,.49,2.3,1.59,1.59,0,0,0,1.53,1.09,7.18,7.18,0,0,0,.8-.08,10.32,10.32,0,0,0,1.21-.24l1.54-.33h1.61a2.15,2.15,0,0,0,1.17-.32c.35-.21.68-.44,1-.68l.92-.69a1.61,1.61,0,0,1,.93-.32.89.89,0,0,1,.56.32,9.58,9.58,0,0,1,.65.73l.81,1v5.33c0,1.5-.68,2.25-2,2.25a3.09,3.09,0,0,1-1.53-.36,7.19,7.19,0,0,1-1.13-.77,6.68,6.68,0,0,1-1.49-.72,2.63,2.63,0,0,0-1.49-.4h-2.91q-2,0-2.58.72a5.16,5.16,0,0,0-.56,2.9v2a15.76,15.76,0,0,1,.32,2.26,15.78,15.78,0,0,0,.28,2.09,3.8,3.8,0,0,0,.77,1.66,3,3,0,0,0,1.77.92h4.52a7.72,7.72,0,0,0,2.46-.44,18.85,18.85,0,0,0,2.7-1.17l2.54-.89a6.84,6.84,0,0,1,2.14-.4,5.47,5.47,0,0,1,.64.57l.48.48a.71.71,0,0,1,.25.48,1.6,1.6,0,0,1-.41,1.05,8.74,8.74,0,0,1-1,1,6.62,6.62,0,0,0-1.62,2.13c-.32.73-.63,1.4-.93,2a4.88,4.88,0,0,1-1.08,1.53,2.72,2.72,0,0,1-1.94.61,3.14,3.14,0,0,1-.89-.12,5.6,5.6,0,0,1-.84-.33,5.22,5.22,0,0,0-1-.32,7.79,7.79,0,0,0-1.49-.12l-7.82.24-2.74.65h-6.7l-1.61.48-2.42.16a1.64,1.64,0,0,1-.88-.32,4.65,4.65,0,0,1-.89-.77,6.63,6.63,0,0,1-.69-.88,1.58,1.58,0,0,1-.28-.69c0-1.34,1-2,3-2,.43-.17.85-.35,1.29-.57a17.53,17.53,0,0,1,2-.81,3.89,3.89,0,0,0,2.3-1q.6-.74.6-3.39a1.6,1.6,0,0,1,.29-.85c.18-.29.09-.6-.29-.92a4.27,4.27,0,0,0-.08-.85,4.13,4.13,0,0,0-.24-.85c-.11-.32-.21-.67-.32-1v-6.45l.64-5.65v-1.37a1.15,1.15,0,0,1,.12-.64,1.19,1.19,0,0,0,.13-.65v-9a1.33,1.33,0,0,0-.81-1.17,3,3,0,0,0-1.21-.44h-2.26a2.31,2.31,0,0,1-2.21-1.29,6.21,6.21,0,0,1-.69-3,1.2,1.2,0,0,1,.44-.89,1.38,1.38,0,0,1,.93-.4h4.27a13.79,13.79,0,0,0,1.49-.12,19.93,19.93,0,0,1,2.54-.13Z"/><path class="cls-1" d="M590.18,589.09h-580V10.91h580Zm-579-1h578V11.91h-578Z"/><path class="cls-1" d="M592.11,585.89c0,3.41.39,2.19.46,2.7C592.48,582.88,592,586,592.11,585.89Z"/><polygon class="cls-1" points="591.16 529.53 591.33 530.53 590.91 522.23 591.16 529.53"/><path class="cls-1" d="M591.17,476.84c-.71,5,.12,19.09-.14,28.48l-.16,1.55.57,4.23C591.35,499.69,591,484.87,591.17,476.84Z"/><path class="cls-1" d="M592.71,448.74c-.27,1.73-.24-6.08-.08,6.55,0-.63,0-.82.07-1.19C592.7,453,592.71,451.4,592.71,448.74Z"/><path class="cls-1" d="M592.7,454.1c0,5.55.23-3.63,0,0Z"/><path class="cls-1" d="M592.54,428.47l.25,7.31c.16-1.52.2-8,.32-5.61C593,422.67,592.81,424.21,592.54,428.47Z"/><path class="cls-1" d="M592,421.54l.1,3.79A19.87,19.87,0,0,0,592,421.54Z"/><path class="cls-1" d="M592.34,433.36l-.22-8a8.41,8.41,0,0,0,.08,3.69C592,428.36,592.19,430,592.34,433.36Z"/><path class="cls-1" d="M592.23,437.91c-.15,4.1-.25,9.4-.5,2.06C591.83,454,592.33,451.9,592.23,437.91Z"/><path class="cls-1" d="M590.43,474.15l-.21,5.48.24,4.74C590.34,482,590.66,473.81,590.43,474.15Z"/><path class="cls-1" d="M592.91,382.93c-.15-.45-.41,2.46-.6,3l.17,5.4C592.59,388.56,592.68,383.3,592.91,382.93Z"/><path class="cls-1" d="M592.31,385.94l-.26-8.08C592,385.08,592.14,386.39,592.31,385.94Z"/><polygon class="cls-1" points="591.23 420.24 591.77 433.51 591.22 417.68 591.23 420.24"/><polygon class="cls-1" points="592.93 352.08 593.28 356.66 592.75 348.5 592.93 352.08"/><path class="cls-1" d="M592.87,331.61c.29,3.39.49-4.64.67-1.06,0-5.56-.31-10.31-.53-14.58C593.14,320.51,593.1,325.35,592.87,331.61Z"/><path class="cls-1" d="M592.68,308.79c.07,2.27.2,4.62.33,7.18C592.94,313.56,592.85,311.18,592.68,308.79Z"/><path class="cls-1" d="M592.12,364.1a41.39,41.39,0,0,0,.44-6.36l-.43,3.18C592.13,361.89,592.13,363,592.12,364.1Z"/><path class="cls-1" d="M592.12,361v-.11c0-3.45,0-5.84,0-6.87C592.15,354.93,592.14,357,592.12,361Z"/><path class="cls-1" d="M592.12,364.9v-.8A2.39,2.39,0,0,0,592.12,364.9Z"/><path class="cls-1" d="M591.61,399.06c-.24-4.75-.49-14.64-.86-5.07C591,397.4,591.25,391.92,591.61,399.06Z"/><path class="cls-1" d="M591.59,368.84l-.1,8.59c.11-.17.28-1.72.4.63Z"/><polygon class="cls-1" points="591.45 364.64 591.59 368.84 591.62 365.66 591.45 364.64"/><path class="cls-1" d="M592.28,323.49c-.18-3.71-.2-7.76-.23-12.34-.08,4.91-.13,10-.13,14.8C592.06,326.63,592.3,328.75,592.28,323.49Z"/><path class="cls-1" d="M592.16,341.73c0-.25,0-.58,0-.82C592.1,341.41,592.09,341.82,592.16,341.73Z"/><path class="cls-1" d="M592.05,266.06c0,.25,0,.46-.07.72,0,.06,0,.1.07.17Z"/><path class="cls-1" d="M591.84,326.78c-.08,3.69,0,5.89.16,8,0-2.76-.07-5.68-.08-8.82C591.86,325.65,591.82,325.59,591.84,326.78Z"/><path class="cls-1" d="M592.48,296.21c-.07,1.92-.15,4.1-.23,6.39C592.38,300.72,592.59,296.89,592.48,296.21Z"/><path class="cls-1" d="M592.26,339.66c0,.19,0,.36,0,.56C592.37,339,592.32,339.16,592.26,339.66Z"/><path class="cls-1" d="M592.26,339.66c-.06-1.89-.17-3.39-.26-4.89,0,2.25.08,4.33.14,6.14C592.17,340.45,592.22,340,592.26,339.66Z"/><path class="cls-1" d="M589.31,252.39c.4.66.76,10.36.34,18.73.3,8.24,1.6,2.85,2.33-4.34-.18-.26-.34-.26-.57-8.74-.22,3-.51,18.82-.86,11.67-.21-11.24.14-9.21.35-14.67-.5,4.64-.72-14.29-1.45-11.84l.26,9.85C589.59,253.23,589.41,249.66,589.31,252.39Z"/><path class="cls-1" d="M591.94,282.94l0,3.49c.06-4,.22-6.83.53-12.07-.19-5.81-.34-7-.47-7.41l0,17.18Z"/><path class="cls-1" d="M592,302.09c-.43-2.72-.62-11.1-1.08-6,0,10.24.36,7.18.54,13.3-.1-16.53.24,4.74.49-7.2.07,3.25.09,6.17.11,8.93.07-3,.14-5.85.2-8.55l0,.38V303c-.06.71-.09.95-.06.15,0-.06,0-.26,0-.35a3.38,3.38,0,0,1-.16-.75c.09-4.78.11-.75.16.75,0,.06,0,.19.07.2V303L592,286.43C591.93,289.93,591.94,294.32,592,302.09Z"/><path class="cls-1" d="M589.83,385.16c0-.51.06-.49.1-.53C589.87,383.56,589.84,383.16,589.83,385.16Z"/><path class="cls-1" d="M590.09,378.35a58.85,58.85,0,0,1,.18,6.12c-.13,3.4-.2,0-.34.16.11,2.36.3,8.26.51.86l-.05-1.17c.14-6.66.68-15.22.74-14.06A64.31,64.31,0,0,0,590.09,378.35Z"/><path class="cls-1" d="M590.93,339.75,590.71,326l-.37,7,.23-.35C590.48,340.47,590.75,338.77,590.93,339.75Z"/><polygon class="cls-1" points="592.27 264.48 592.72 266.31 592.08 258.35 592.27 264.48"/><polygon class="cls-1" points="592.21 246.57 592.61 247.23 592.37 242.5 592.21 246.57"/><path class="cls-1" d="M13.09,208.16l.11,4.05C13.17,210.29,13.13,209.06,13.09,208.16Z"/><path class="cls-1" d="M13.12,178.83l-.2-.72C13,179.47,13.11,180,13.12,178.83Z"/><path class="cls-1" d="M384.89,8.92c-5.9-.37-12.49-.94-11.78-.5l1.81.43C379,8.78,382.2,8.82,384.89,8.92Z"/><path class="cls-1" d="M83.58,11.51l1.73.13,4-.41Z"/><path class="cls-1" d="M79.42,13.3,71.64,13C73.39,13.12,75.89,13.22,79.42,13.3Z"/><path class="cls-1" d="M13.55,368.31,14,373C14,365.64,13.77,368.9,13.55,368.31Z"/><path class="cls-1" d="M592.05,63.1c.17-5.09.25-9.15.27-12.71C592.07,56.53,591.69,61.48,592.05,63.1Z"/><path class="cls-1" d="M8.48,196.62c.08,2.48.17,3.53.27,3.46C8.67,197.53,8.59,196.09,8.48,196.62Z"/><path class="cls-1" d="M592.31,35.69c0,.9-.06,1.78-.1,2.69.08,3.72.13,7.47.11,12C592.5,45.86,592.62,40.68,592.31,35.69Z"/><path class="cls-1" d="M371.26,586.12l1.32,0C372.71,586.11,372.12,586.11,371.26,586.12Z"/><path class="cls-1" d="M540.48,590.49l-7,0C534.78,590.56,536.88,590.55,540.48,590.49Z"/><path class="cls-1" d="M592.4,174.49c0,3.8.05.6,0,0Z"/><path class="cls-1" d="M590.69,193a4.7,4.7,0,0,0-.21-1.52A6.93,6.93,0,0,1,590.69,193Z"/><path class="cls-1" d="M576.12,11.47h-.33C576.92,11.56,576.72,11.54,576.12,11.47Z"/><path class="cls-1" d="M592.21,180.21c0-1.43.09-3.07.12-4.86C592.3,176.13,592.26,177.61,592.21,180.21Z"/><path class="cls-1" d="M592.41,179.44c0,1.31,0,2.34,0,3.32C592.44,183.24,592.49,182.81,592.41,179.44Z"/><path class="cls-1" d="M592.38,169.2c0,2.17,0,4.2,0,6.15,0-.75.06-1.06.07-.86C592.4,173.38,592.39,171.8,592.38,169.2Z"/><path class="cls-1" d="M60.05,587.28l.82,0C64.7,587.14,63,587.17,60.05,587.28Z"/><path class="cls-1" d="M286,13.42l.43,0h-.56Z"/><path class="cls-1" d="M272.36,13.75a97.46,97.46,0,0,1,13.52-.36l-4.52-1.25Z"/><path class="cls-1" d="M13.21,278.37l.39-9.58c.65,11.56.42,19.93,1,10.94-1.36-1.36-.14-37.25-1.49-38.59l.28-6.31c0,1.81.07,2.1.06,3.89.65-12.29-1-9.13-.79-25,.1-5.52.3-9.37.46-5.6l-.34-12.3c0-3.57.27-2.7.24.86L12.88,178l0,.14c-.21-2.67-.54-8.73-.68-11.69.19-4.77.14,2.39.31,1.17l-.33-10.38c.35-4.23.7,4.37.65,11.54,1.35-9.69-.35-8.61.45-29.54l.17,9.81c.77-6.32.49-14,1-25.05-.25,2.62-1.21,22.18-1.55,10.92.1-3.18.15-7.36-.12-13.44.48-.06.36-6,.34-13.42l.64.51c-.19-8-.51-7.4-.8-12.12.06-9,.56-10.81,1-12.91.11-14.33-.79,9.89-.91-7.07.24-11.92,0-20.28-.4-34.54.22-8.34.39,1.46.57-1.53L12.69,33c0-1.81.17-1.22.25-.93-.2-6.23-.64-.51-.81-10.31A17.87,17.87,0,0,1,12,18.07c0-.87.06-1.86.09-3,0-.69.09-1.44.14-2.24L13.8,13l.81,0,1.36.05c1.83.06,3.72.11,5.62.15,3.8.06,7.63,0,11-.19,3,.18-1.44.39-.53.64,16.63-.52,14.26-.38,27.92-1.09L71.64,13c-8.55-.48,2.38-1,11.94-1.51-3-.23-5.62-.44-7.36-.53l15.27-.35c1.84.11.3.33-2.2.6l2.8-.16c5.46.24,2.63.61-1.28,1l-5.5-.39c-3.77.39-7.3.82-6.52,1.19,1-.07,2.91-.13,5-.17-1,.11-1.62.2-1.16.26s2.11-.07,4.61-.23l3.47.71.84-.28,20,.44c14.3-.71,26.73-1.77,49.41-2.07-5.63.53-1.21.86-1.52,1.48-6.18-.66-17.56.28-29.32.14,6.14.07,4.79.37,3.23.47l21-.6c-.47.51,4.45.38,9.93.59-4.14-1,15.63-.66,24.16-1,.53.34-1.51.68-11.92.6,11.48.75,14.84-1.18,26.11-.54a38.17,38.17,0,0,0-4.92.13c5.94-.3,20.45-.06,17,.23h-2.54c16.87.12,51.36,0,53.88-.85a10.45,10.45,0,0,1-3.23,1.2l30.1-2.86c-2.65.73,7.53,2.47-6.46,2.88,4,.11,9,.23,17.46,0-2.75-.1-6.84-1.06-3.09-1.12,10.28.81,7.14.43,19.81,1.13-4.11-.16.45-1.31,6.94-1.27-1,.17.54,1.13-1.83,1.25l16.16-1.12c-4,.2-.71.95,2.9,1.27-1.68-.22,14,0,18.28-.09l-6.85-.26c18.24.16,18-1.59,36.12-1.53-2.19.24-5.41,1.43,3.79,1.57A311.81,311.81,0,0,1,430.82,10l3.07.33,12.29-.38c-7.65.87-29.12,2.69-40.85,3.4,6.83.26,1.91.39,12.13.36,3.61.31-5.57.47-8.58.49l23.8.2c-1.06-.67,18.21-.68,17.3-1.24l-25.86.7c-1-.67,14.95-1.91,31.82-1.79,4.29.27-3.21,1.2-2.86,1.42,2.19-.23,16-.44,17.56-.28l-7.16.36c9.39.26,15.33-.89,26.61-.25,3.89,0,11.63.87,12.3.47C496,13,494.8,10.64,499,10.07c1.37,0,20.45.73,24.89,1.11,6.42.6-9.62,1.43-4.16,2a39.84,39.84,0,0,1,5.25-.49c4.09.16-1.69.57,7.19.49,1.49-.68,18.08.06,4.21-.58,8.69-.19,9.23.14,19.44.11-3.25-.44,9.17-1.49,17.88-1.69-.52.17,1.44.4,2.39.5l13.39.1c-.06,5.1-.12,9.69-.18,14.48s-.09,9.87-.09,15.8c-.17,1.53-.37,9.55-.66,6.13.12,2.39.35,4.59.37,9.71-.59,9.92-.09-11.42-.8-3.86.39.64.54,13.25.79,20.55.61-2.25.12-16.86-.13-24.17.85,0,1.73,12.69,2.12,30.05.21,13.81-.55,6-.43,8.38-.14,25.93,1.48,22.09.87,43.62-.54,8.54-1.07.39-1.46,2.28-.2-11.24.34-17.26.32-24.88L590,119c-.18-3.58-.32-11.08-.16-15.17-.49,7.16-.09,43.8-.54,63.8.18,3.55.37,9.69.58,6.79l-.07-6.33c.43-5.82.6,11.91.8,3.9.3,8.49.78,18,.54,30l-.62,2.24a94.82,94.82,0,0,0,.18-11.17c.27,5-.83,18.33,0,23.78l.42-8.37c.31,8.52,1,19.06.77,29.65.6-4.82-.07-2.44.64-10-.89,6.53,0-27.1-.89-16.61.82-7.73.35-13.37,1-23.47-.21.32-.39,3.58-.29-5.31-.06-.4-.14-1.35-.18-1.95,0-.27,0-.37,0-.6,0,.17,0,.31,0,.49,0-.39,0-.42,0,.18-.08,2.12-.19,3.83-.3,4.53-.47-4.41-.45-18.55-.69-23.34.09-5.27.23,2.21.44-.67l-.36-7.14c.45-.71.75-14,1-1.59l0-11.19c.26-6.58.36-15.64.17-21.23.09-5.28-.5-13.33-.15-8.73L592,94l.12-.16c.05-17.31-.75-35.64.06-55.43-.11-5.83-.25-11.85-.12-21.6l.19-1,.1-.48c0-.14.06-.5.1-.75,0-1.77,0-3.77,0-6l-9.19-.05-6.61-.09c-4.22,0-7.8,0-9.19.14-8.07-1.05-36.31-.23-49.47-.42l-.5.51c-9.06,0-17.75.12-29,.32l.69.45c-9.69.37-24.92-.32-40.26-.27a66.94,66.94,0,0,1,7.69,0c-18.32-1-38.65.74-55.27,0-4.14.16-7.14.11-10,0,.39,0,.73,0,1,0h-1.7l-5.75-.24c1.73.11,3.39.2,4.83.24-3.19,0-8,.06-12.78.18l-2-.49-1.1,0c-4.66-.18-3.74.23-1.26.59-2.39.08-4.58.17-6.28.29-3.78-.78-12.45.26-17.61-.57-3.2.41-23.87.31-26.4,1.16-.16-.11-1.56-.17,1-.17-5.29-.1-10.58-.2-15.32,0L305.7,9.6l-11.55.82c-7-.37-9.93-.59-3-1.06-16.84.73-13.66.27-28,1l.7-.39c-5.11,0-13.29.54-16.38.22-11.44-.76-56.63-.11-86-.81,5.7,1.17-13.66-.52-14.82.38-1.71-.27-5.81-.43-1-.67-15,.27-22.53-.44-32.88.33-1.71-.28,3.21-.41,1.68-.57a56.85,56.85,0,0,1-6.32.07c-1.53-.16,2.2-.23,4.57-.35-15.32,0-16.87.9-18,1.7a106.5,106.5,0,0,0-17.24.19c-2.7-.26-7.21-.53,2.31-.62-5.36,0-32.71-.39-33.25.25-1.68-.16-7.49,0-8.9,0l-12.51,0h-13l3.9.11c-.42.07-.84.13-1.26.17s-1,.09-1.56.12c-1.07.06-2.17.09-3.35.1,0,1.08,0,2.21,0,3.42s0,2.21-.06,3.44c-.05,2.28-.09,4.9-.06,8l-.08-.27c-.56,21.81.27,9.42-.37,30.93l.48-1.17c1,2-.61,19.06-.21,31.55l.27-4.51c.35,6.82-1.4,19.06-1.53,25.91-.09,1.49-.14-2.36-.21-4.44-.61,17.93.63,2.32.77,15.68-.34,2.47-.86-3.17-.92,5.82-.28,4.48,1.1,26.08.45,38.35.26-2.7.52-5.39.72.82.09,9.51-1,25.71-.17,34.3a6.08,6.08,0,0,1-.2,1.72c.21,7.27.35,23.63.8,28-1.66,6.72.8,45.2-.72,45l.08,22.37-.16-.59c-.1,14.3.27,19.35.63,24.38-.1,3.3-.24.89-.32.62-.31,20.89-.25,23,.51,40.48l-.49,1.82c.29,4.75-.78,30.2-.2,50.69a10.45,10.45,0,0,1-.22-2.26c.58,23.05-1.38,55.19.43,63.63l.44,15.22c.14-19.68.79,2.93,1.09-5.17.1,7.74-.55,20-.64,10.5l.09-1.49c-.94-3.49-.33,24.45-1,23.93q0,18.16-.09,36-.11,18.83-.23,37.25l43.35.19L47.94,590l12.65,0c3.32.17,4.46.57-4.57.54a82.16,82.16,0,0,0,9.39,0c3.22-.16,5.88-.39,6-.47,17.67.3-6.9.85-1.48.87l7.36-.05-1.66-.09c6-.3,6.49-.61,17.34-.58,6.87.15,3.52.45,6.23.48,0,0,.21,0,.84,0s1.68,0,3.3,0l15.94.06-6.37-.57c7.06-.29,15,0,7.63-.63,10.8,1,59.46.37,66.09.68,9.9-.42,19.67-.42,31.77-.36-3-.12-4.81-.77,5.63-.69-3.82,1.34,19.11.58,27.54,1.54-7.54-.64,29.67-.16,17.84-1.06,8.71.1.53.5,7.14.81,20.73-.52,45.68.34,71.3.16.4-.17-3.89-.44,1.6-.7l13.53.88c5.06-.09,4.66-1,13.9-.41-1.3-.15-3.25-.37.14-.42,50.19.85,102.56-.71,153.53.9-6.9-.34-2.3-.37,3-.38-3.43-.08.08-.44-.59-.68l21.33.67c3.89-.67,22.88,0,25.11-.68l-6.76.11c9-.74-12.57-1.66-11.26-2.61-10.06.84-26.53-1.26-43-.05-3.64-.19,3.11-.31,1.16-.53a161,161,0,0,1-18.6.31l1.05-.1c-26.31.1-37.59-.3-67.15-.57l2.19.47c-6.35-.06-7.69-.21-10.66-.33-7.29.72,17.84,0,11.2.83-8.43-1-44.79,0-50.49-1.11-9.77,0,2.87.55-6.9.55l-2.59-.3-2.47.38c-6.41-.06-9.64-.43-9.88-.68,1.55,0,4.42-.07,6.08-.09-8.3-.35-23.42.11-26.27,0l9.39.18c-26.67.28-59.23-.11-85,.49l1.95.23c-19.67.41-15.76-.25-37.36-.06l.79-.05c-4.33.22-10.1.34-16,.31,5.45-.26-10.26-.51-3.11-.8-21.33.45-10.55.35-24.64,1.18l-3.25-.37c-4.8.34-5.21.51-16,.61,8.84-.32-6.89-.57,3-1-22.64-.81-33.61.82-44-.36-10.39,1,19.59.57,13.77.79,4.87.33-8.58.76-15.69.66s-12.29-1.31-30.48-1.29c1.81,0,1.93-.08,3.73-.07-6.8-.26-13.34.35-21.69-.07-4.68.62-10.84,0-12.19.75l16.69-.18c-9.46.21-18.33,1.13-33.92.68,1.22-.16,5.86-.37,9-.48-4.56-.24-8.77.15-13.5-.09,1.35-.79,20.28-.17,30.42-.77-4.89-.34-19.18.57-14.08-.29-7.32,1.09-17.93-.14-30.25.7l.82-.48c-1.95.08-6,.3-9.58.29l6.5-.62c-3.39.18-6.7.19-10,.12L15.55,586l-.61,0H14.5l-.38,0-.69-.07.05-.69,0-.32V584c0-1.52,0-3,0-4.58,0,2.28,0,4.06,0,5.44,0,.44,0,.78-.07,1,.66.09.45.23.15.39s-.63.32,1,.45l-2.11.08c0-.68,0-1.29,0-1.86v-2.65c0-1.73.05-3.15.1-4.38.1-2.45.27-4.14.44-6,.35-3.77.71-8.32.6-21.37.07,3.74-.28,14.06-.5,8.2.09-5.27.28-12.22.52-15.45-.09-18.33-.48,2.81-.77-5,.57-6.24-.24-9-.43-17l.49-.06c.31-20.88-1-5.53-.63-24.33l.66,7.94-.17-9.8.55,2c-.41-10.66-.3-14-.15-24.43-.34,2.43-.87-1.36-.89-10.61.29-6.31.46,3.53.39-9.58a57.88,57.88,0,0,1,.24,11.91c.16.58.3,2.92.46,3.52.33-6.8.07-17.07.07-21.82,0,1.83-.05,4-.12,5.13l-.66-19c.18-3,.32-.61.46,1.74-.05-3.85-.27-6.52-.31-12.18.39,1.47.8,1.12,1,9.13l-.43-18.11c.17-1.21.46-9.29.61-6.94.23-10-.76-24.63-.46-37.94-.07-.69-.15-2.08-.2-4.91.09-12.51.57-23.59,0-38.42l.7-8.41c-.16-11.61-.88,11.39-1.15-7.95-.22-13.68.6-5.11.8-9.91a311.4,311.4,0,0,1-.51-31.22C13.27,271.22,13.16,274.48,13.21,278.37ZM12.9,135.16c.1,2.77.42,8.31.13,10.34C12.48,142.33,12.74,139.89,12.9,135.16ZM104.67,12.44a77.8,77.8,0,0,1-8.86-.11C98.42,12.29,101.38,12.31,104.67,12.44ZM592,132.85l0-.3C592.18,126.36,592.1,128.56,592,132.85Zm-.21,12.85c.07,1.29.14,1.2.2.66-.12-.9-.13-3.79-.09-7.07A41.74,41.74,0,0,0,591.8,145.7ZM100.63,590.52l-2.5-.12C103.78,590.26,102.2,590.38,100.63,590.52Z"/><path class="cls-1" d="M80,13.1a3.36,3.36,0,0,1-1.19-.27C77.7,12.91,77.68,13,80,13.1Z"/><path class="cls-1" d="M13.47,367.44v.43a1.83,1.83,0,0,0,.09.44Z"/><path class="cls-1" d="M524.86,13.38c-2.64-.07-4.12-.16-5.1-.25C519.61,13.25,520.82,13.35,524.86,13.38Z"/><path class="cls-1" d="M592.62,213.81l-.12-8.23c0,4-.09,5.4-.16,7.41C592.45,212.81,592.61,211.24,592.62,213.81Z"/><path class="cls-1" d="M589.64,285.28c.05,1.2,0,2.55.06,3.74l.23-.33C589.91,283.56,589.73,280,589.64,285.28Z"/><path class="cls-1" d="M591,221.44c-.41.65-.27,5.81-.19,11.58v-1C591.39,233.7,591.21,227.56,591,221.44Z"/><path class="cls-1" d="M590.84,234.36c0,1.78,0,3.59,0,5.33C591.08,240.37,590.9,237.53,590.84,234.36Z"/><path class="cls-1" d="M592.07,162c-.1,2.74.52,1.72.35,3.27C592.94,168.32,591.8,147,592.07,162Z"/><polygon class="cls-1" points="589.68 226.11 590.18 224.04 589.78 220.81 589.68 226.11"/><path class="cls-1" d="M590.05,180.57l-.14,9.21a10.68,10.68,0,0,1,.17,2.47C590.1,186.57,590.2,180.35,590.05,180.57Z"/><path class="cls-1" d="M590.08,192.25c0,3,0,5.77.08,7.42C590.16,198.07,590.14,194.63,590.08,192.25Z"/><polygon class="cls-1" points="589.53 213.51 589.63 210.78 589.67 204.28 589.53 213.51"/><path class="cls-1" d="M590.15,81.5,590,71.44c-.17-1-.27,1.72-.21,5.46C589.91,79.31,590,83,590.15,81.5Z"/><path class="cls-1" d="M588.77,111.92a42.32,42.32,0,0,1,.38-4.44l-.62-.3Z"/><path class="cls-1" d="M588.63,82.59c-.17-1-.5-14.6-.46-1.85C588.34,81.76,588.49,91.83,588.63,82.59Z"/><polygon class="cls-1" points="509.31 11.67 511.87 11.67 511.5 10.65 509.31 11.67"/><path class="cls-1" d="M375.74,14.11c11.92.24,2.83-.63,13.6-.32,2.8-.24-8.8-.25-5.94-.46C376.21,13.58,372.43,13.44,375.74,14.11Z"/><path class="cls-1" d="M383.4,13.33l3.68-.15C385,13.24,384,13.29,383.4,13.33Z"/><polygon class="cls-1" points="568.56 591.04 576.22 591.25 571.27 590.91 568.56 591.04"/><path class="cls-1" d="M583.27,590.28l1.81.65,4.6-.58C588,590.38,584.59,590.43,583.27,590.28Z"/><path class="cls-1" d="M14.21,113.87l-.16-.59a59.93,59.93,0,0,0-.2,6.58Z"/><polygon class="cls-1" points="13.72 217.81 13.74 216.02 13.15 219.37 13.72 217.81"/><path class="cls-1" d="M14.47,305.05c0-3.56-.05-7.75-.08-11.32C14.5,301.49,13.74,306,14.47,305.05Z"/></svg>