<svg id="Laag_1" data-name="Laag 1" xmlns="http://www.w3.org/2000/svg" viewBox="0 0 600 600"><defs><style>.cls-1{fill:#1d1d1b;}</style></defs><title>Rebus 3 Sommige</title><path class="cls-1" d="M212.2,512.12c-.07.79.76.51.91.63C212.93,511.42,212,512.15,212.2,512.12Z"/><polygon class="cls-1" points="210.3 499.04 210.64 499.28 209.8 497.35 210.3 499.04"/><path class="cls-1" d="M210.31,486.82c-1.42,1.15.23,4.43-.27,6.61l-.33.35,1.15,1C210.68,492.12,209.91,488.68,210.31,486.82Z"/><path class="cls-1" d="M213.4,480.3c-.55.4-.48-1.41-.17,1.52a1.79,1.79,0,0,1,.14-.28A11.8,11.8,0,0,1,213.4,480.3Z"/><path class="cls-1" d="M213.37,481.54c0,1.29.46-.84,0,0Z"/><path class="cls-1" d="M213.05,475.59l.5,1.7c.32-.35.4-1.86.64-1.3C213.91,474.25,213.59,474.6,213.05,475.59Z"/><path class="cls-1" d="M212,474l.21.88C212.35,474.71,212.4,474.48,212,474Z"/><path class="cls-1" d="M212.66,476.73l-.44-1.87c-.23.25-.7.28.16.86C212,475.57,212.36,475.94,212.66,476.73Z"/><path class="cls-1" d="M212.44,477.78c-.31,1-.5,2.18-1,.48C211.64,481.51,212.64,481,212.44,477.78Z"/><path class="cls-1" d="M208.84,486.19l-.42,1.27.48,1.1C208.66,488,209.28,486.11,208.84,486.19Z"/><path class="cls-1" d="M213.79,465c-.31-.11-.81.57-1.2.69l.35,1.26C213.15,466.33,213.34,465.11,213.79,465Z"/><path class="cls-1" d="M212.59,465.72l-.52-1.87C212,465.52,212.26,465.83,212.59,465.72Z"/><polygon class="cls-1" points="210.42 473.68 211.52 476.76 210.41 473.09 210.42 473.68"/><path class="cls-1" d="M211.89,455.32l.72.61a7.79,7.79,0,0,1,.7.62c-.23-.26-.43-.42-.65-.64l-1.77-1.64Z"/><path class="cls-1" d="M210.15,452.45a2.55,2.55,0,0,0,.72-.22,4.33,4.33,0,0,1,.56-.16,1.49,1.49,0,0,1-1-.21C210.63,452.09,210.56,452.08,210.15,452.45Z"/><path class="cls-1" d="M209.92,451.18c0,.14.11.25.18.37s.15.24.3.31c-.08-.05-.09-.17-.18-.27A4,4,0,0,1,209.92,451.18Z"/><path class="cls-1" d="M212.22,459.78a2.46,2.46,0,0,0,.26-.43,3.2,3.2,0,0,0-.21-2,10.29,10.29,0,0,1-.32,1.3l.27.71Z"/><path class="cls-1" d="M211.94,458.74v-.05l-.4-1.07c-.07-.17-.13-.37-.21-.52l-.29-.44-.06-.09.06.1.29.44c.08.16.13.36.2.53Z"/><path class="cls-1" d="M212.22,460.09v-.31C212.14,459.92,212.11,460,212.22,460.09Z"/><path class="cls-1" d="M211.2,468.77c-.48-1.1-1-3.4-1.72-1.18C210.06,468.38,210.48,467.11,211.2,468.77Z"/><path class="cls-1" d="M211.15,461.62l0,.37,0,.26,0,.5-.1,1c.23,0,.56-.4.79.14l-.29-1.06-.15-.54-.08-.27Z"/><polygon class="cls-1" points="210.88 460.21 211.15 461.62 211.22 460.51 210.88 460.21"/><path class="cls-1" d="M208.93,452.19a1.61,1.61,0,0,1-.23-.22,1,1,0,0,1-.09-.27,1.52,1.52,0,0,1,0-.69l-.23.38a3,3,0,0,0-.12.36.66.66,0,0,0-.07.36c0,.11,0,.24,0,.35C208.52,452.5,209,452.57,208.93,452.19Z"/><path class="cls-1" d="M209.18,453.67l-.08-.05C209.05,453.71,209.07,453.75,209.18,453.67Z"/><path class="cls-1" d="M213.44,445.06l-.22,0,.07.13Z"/><path class="cls-1" d="M208.08,452.56a.41.41,0,0,0,.1.46.7.7,0,0,0,.4.21,1.52,1.52,0,0,1-.35-.77C208.1,452.45,208,452.45,208.08,452.56Z"/><path class="cls-1" d="M210.29,449.6a6.84,6.84,0,0,0-.87.55C209.82,450,210.43,449.81,210.29,449.6Z"/><path class="cls-1" d="M209.24,453.4l.06,0C209.41,453.23,209.34,453.29,209.24,453.4Z"/><path class="cls-1" d="M209.24,453.4a3.55,3.55,0,0,0-.66-.17,1.46,1.46,0,0,0,.52.39A1,1,0,0,1,209.24,453.4Z"/><path class="cls-1" d="M212.47,438.89c.3.73-1,2.61-3,3.25-1,1.75,1.76,2.7,3.76,2.9-.18-.3-.4-.53.71-2-.37,0-1.31.46-2.08.7s-1.29.36-1-.44c1.67-1.89,1.75-1.1,3-1.47-1.45-.18,1.79-3,.56-3.92l-1.59,1.74C212.64,439.46,213.11,438.69,212.47,438.89Z"/><path class="cls-1" d="M210.87,447.16l-.36.54a5,5,0,0,1,2.34-.86c.52-1,.54-1.42.44-1.67-.48.35-.86.74-1.3,1.1a12.76,12.76,0,0,0-1.18,1.13Z"/><path class="cls-1" d="M209,449.85a4.08,4.08,0,0,1-.41-1.38c-.06-.44-.22-.77-.92-.62-.95,1.71,0,1.53-.1,2.56.43-1.24.46-1,.53-.67s.21.75.81.08c-.09.25-.07.46-.14.66a2.46,2.46,0,0,0-.12.53,2.29,2.29,0,0,1,.36-.45,5.28,5.28,0,0,1,.41-.41l-.07,0h0c-.14,0-.2,0-.11,0a.11.11,0,0,1,0,0,.9.9,0,0,1-.23-.25c.53-.55.25,0,.23.25,0,0,0,.06.09.08h0c.17-.38.23-.78.46-1.2a13.69,13.69,0,0,1,.7-1.28,3.56,3.56,0,0,0-.75.82c-.11.17-.28.37-.4.59S209.14,449.57,209,449.85Z"/><path class="cls-1" d="M207.62,465.54a.22.22,0,0,1,.2-.12C207.72,465.17,207.65,465.08,207.62,465.54Z"/><path class="cls-1" d="M208.14,464a1.91,1.91,0,0,1,.38,1.42c-.26.79-.41,0-.7,0,.23.55.62,1.92,1,.2l-.12-.27c.3-1.55,1.37-3.54,1.49-3.27A6.14,6.14,0,0,0,208.14,464Z"/><path class="cls-1" d="M207,454.75a5.26,5.26,0,0,1-1.12-2l-.28.68-.16.73.4-.21c.16.69.39.9.59.92S206.76,454.76,207,454.75Z"/><path class="cls-1" d="M214,445.19l.3.93c.13-.65.28-1.32.44-2Z"/><path class="cls-1" d="M216.86,442.9l.34.73c.18-.32.34-.65.54-.95C217.43,442.74,217.16,442.82,216.86,442.9Z"/><path class="cls-1" d="M294.66,292.47l-.67-.73A5.22,5.22,0,0,0,294.66,292.47Z"/><path class="cls-1" d="M298.13,298.52l.42-.06C298.2,298.3,298,298.26,298.13,298.52Z"/><path class="cls-1" d="M311.27,405.62c1.62-.15,3.67-.09,3-.73l-.87-.48A5.58,5.58,0,0,1,311.27,405.62Z"/><path class="cls-1" d="M332.61,341.5c-.06.15-.11.3-.16.46l1,.69Z"/><path class="cls-1" d="M328.89,341.56l0-1.8A7.79,7.79,0,0,0,328.89,341.56Z"/><path class="cls-1" d="M276.79,259.5l-1.27-.61C276.27,260.44,276.34,259.57,276.79,259.5Z"/><path class="cls-1" d="M254.36,426.25a12.45,12.45,0,0,0,2.94-.38C255.81,425.82,254.5,425.45,254.36,426.25Z"/><path class="cls-1" d="M304,290.24c-.42-.41-.69-.54-.85-.42C303.55,290.25,303.86,290.44,304,290.24Z"/><path class="cls-1" d="M260.51,424.86c-.22,0-.43,0-.65,0a11.11,11.11,0,0,1-2.56,1A4,4,0,0,0,260.51,424.86Z"/><path class="cls-1" d="M222.44,135.9c0-.1,0-.22,0-.32S222.35,135.73,222.44,135.9Z"/><path class="cls-1" d="M215.23,96.32c.2.34.44.92.68,1.46A5.11,5.11,0,0,0,215.23,96.32Z"/><path class="cls-1" d="M230.93,435.76c-.74.4-.08.14,0,0Z"/><path class="cls-1" d="M225.7,434.4a.56.56,0,0,0,.13-.53A.75.75,0,0,1,225.7,434.4Z"/><path class="cls-1" d="M267.36,417.22l.08,0C267.14,417.11,267.19,417.13,267.36,417.22Z"/><path class="cls-1" d="M229.61,435.93a6.19,6.19,0,0,0,1.09-.22A7.59,7.59,0,0,0,229.61,435.93Z"/><path class="cls-1" d="M229.94,436.23l-.71.24C229.19,436.65,229.32,436.69,229.94,436.23Z"/><path class="cls-1" d="M232,435.24a11.45,11.45,0,0,1-1.3.47c.18,0,.26,0,.23.05C231.15,435.63,231.47,435.48,232,435.24Z"/><path class="cls-1" d="M253.38,201.26a1.33,1.33,0,0,1,0-.2C252.69,200.39,252.9,200.72,253.38,201.26Z"/><path class="cls-1" d="M322.32,383.75s0,.07,0,.1l.1-.07Z"/><path class="cls-1" d="M323.46,381a2.5,2.5,0,0,1-.16,1.74,3.45,3.45,0,0,1-.91,1c.86.23,1.74.46,2.62.67A35.79,35.79,0,0,0,323.46,381Z"/><path class="cls-1" d="M286.69,278l.33,2.35c-2.39-1.82-2.87-3.78-2.89-1.4,2.53-1,4.27,7.66,6.83,6.66l.2,1.58c-.18-.39-.35-.38-.53-.76.22,3.17,2.74,1,4.19,4.4.45,1.24.56,2.22-.16,1.61l2,2.19c.38.76-.13.82-.51.06.81,1.25,1.62,2.49,2.47,3.73h-.09a24.94,24.94,0,0,1,2.65,1.65c.28,1.17-.55-.33-.68.1.62.59,1.27,1.16,1.93,1.73,0,1.25-1.79-.1-2.61-1.63-.52,1.72-.07,2.09.68,2.64a7,7,0,0,1,1.32,1.19,12.42,12.42,0,0,1,1.58,2.78c-.64-.61-1.3-1.24-1.86-1.85a4.53,4.53,0,0,0,.85,3c.34.53.78,1.1,1.22,1.73a18.09,18.09,0,0,0,2.27,2.41,12.1,12.1,0,0,1-1.21-1.59c-.23-.38-.45-.77-.65-1.16s-.24-.71-.33-1c-.16-.65-.23-1.19,0-1.43s.51-.21,1.19.28a4.41,4.41,0,0,0,1.12,1.35,3.92,3.92,0,0,0,1.06.71l.69.3a1.54,1.54,0,0,1,.38.17l.34.16h.1a3,3,0,0,0-.12.29.73.73,0,0,0,.41.73c.29.17.75.52,1.22.82l-.86.95a3.64,3.64,0,0,0,.44.14,2.43,2.43,0,0,0,.39.12,2.09,2.09,0,0,0,.64,0,4.22,4.22,0,0,1,1.29,0,2.63,2.63,0,0,1,.41,3.22c.87,1.18.85.54.9-.1s.17-1.27,1.43,0c1.26,2.24,2.7,3.36,5.1,5.53.59,1.8-.82.16-.79.91l1.72.83c.18.36-.15.41-.32.44,1,1,1.19-.6,2.56,1.13.75-.08.86,1.16,1.08,2.6s.51,3.11,1.76,4c-.07.76-.84,0-1.21.42l2.18,2.67a27.55,27.55,0,0,0,2.14,2.26c.06.9,0,1.82,0,2.73.35-2.11,2.17-.16,3.69,1.74a13.13,13.13,0,0,0,.53-1.94c.6,1.07,1.1,2.19,1.6,3.31-.1.47-.62.22-1.27-.22.16.21.31.41.45.56-.16,1.35-1,.86-1.94.16.16-.47.31-.95.47-1.41-.94-.66-2-1.17-2.7-.79a2.51,2.51,0,0,1,.64,1c-.25-.16-.47-.25-.57-.11s.26.41.7.87l-1.2,1.09.59.05c0,.75.07,1.49.07,2.23l-.07,2.22c1.93,2.79,4.37,5.4,4.87,10.69-1-1.32-1.69-.31-2.92-.43.73-.65.51-1.64.23-2.75-.15-.56-.34-1.15-.47-1.75a7.92,7.92,0,0,1-.29-1.88c0,1.35-.62,1.09-.86.78a20.33,20.33,0,0,1,.72,2.21l.66,2.27c-.51-.05-.68.19-.81.59s-.21.95-.45,1.52c1-.4,1.31.46,1.4,1.68a10.68,10.68,0,0,1,0,1.95,8.5,8.5,0,0,0,0,1.77c-.68,0-1.3-.54-.81-2.73-.93,1.13-.46,2,0,2.87a4.09,4.09,0,0,1,.57,1.38,1.93,1.93,0,0,1-.53,1.51c.11-.54.28-.81,0-1.1.28,1.4-.93,4.4-1.33,3.48a4.56,4.56,0,0,0,.13-.53c-.29.87-.75,1.92-1.11,3.08s-.87,2.35-1.26,3.48-.68,2.23-.93,3.06-.23,1.52.06,1.86a10.48,10.48,0,0,1-1.69-1.83c.14.7.27,1.42.39,2.15a20.67,20.67,0,0,1,.28,2.2c.1,1.45.17,3,.2,4.51-.38-.7-1.62-1.11-2.58-1.75a2.24,2.24,0,0,1-1.12-2.94,7.2,7.2,0,0,0-1.08,1.07,13.09,13.09,0,0,0-1.21,1.89c.55-.29,2.62.26,2.16,1-2.77.62-1.75.62-4.6,1.7.41-.22.86.25,1.07.91a1.8,1.8,0,0,1-.45,1.94c-.07-.41-1.64-1.57-1.42-2.09-.35,1.33-.73,2.69-1.15,4.07.41-.91-1.13-1.54-2.11-1.51.59.13-2.46,1.8-3.07,2.55l1.51-.49a5.41,5.41,0,0,0-2.41,3.56,5.46,5.46,0,0,1-2.62,3.53c.2-.67-.47-3.08-2.34-2.24-.05.37-.11,1-.26,1.76a21.7,21.7,0,0,1-.67,2.55,11.48,11.48,0,0,1-3.12,5.14l-.94-.3-2.37,1.85c.48-1.18,1.54-3,2.56-5s2.08-4,2.88-5.22c-1.59.25-.74-.49-2.72.61-1-.18.65-1.39,1.22-1.73-1.61.68-3.18,1.4-4.8,2,.8,1.12-3.13,2.84-2.5,3.79l2.37-1.8,1.17-.89,1.11-1c.39.53.12,1.83-.8,3.06a9.53,9.53,0,0,1-4.24,3.16c-1.1-.1-.25-2.5-.51-2.88a5.06,5.06,0,0,1-1.63,1.34,3.56,3.56,0,0,1-1.81.66l1.25-1.22c-2.15.24-2.62,2.84-5.46,2.5-.85.23-3-.75-2.91,0,1.84,1.06,3.62,5.39,3,6.84-.34,0-5.05,0-6.24-.46-1.75-.74,1.32-3.38-.18-4,.06.37-.59,1-.87,1.27-1,0,.05-1.2-1.84-.47.06,1.42-4,1-.61,1.38-1.84.93-2.15.31-4.42,1,1,.65-1.26,3.45-3.1,4.36,0-.37-.54-.68-.81-.82-4,1.06-6.32,1-10,2.19-.44-.21-2.34,0-1.75-.83a4.8,4.8,0,0,1-1.94,1.38c-2.57-.43,2.48-1,.37-1.8.1.81-2.63,1.95-4.08,3,.88,1,3.81-1,5.29-2,.52,1.63-1.79,4.14-5.32,6.18-2.88,1.41-1.66-.59-2.1-.19a8.21,8.21,0,0,0-4.69,2.94,5.56,5.56,0,0,1-4.15,2.1c-2.21-.29-.85-2-1.54-2.53,2.28-1.35,4-.77,5.62-1.41l-2.22.26A6.26,6.26,0,0,1,244,425c-1.9-.35-9.61,3.28-14.2,4.4-.63.64-1.77,1.58-1,1.69.42-.26.86-.48,1.29-.72,1.57.26-2,2.19-.18,1.82-.77.68-1.53,1.48-2.45,2.17a8.69,8.69,0,0,1-1.49,1,8.14,8.14,0,0,1-1.77.76l-1-.86c.22.29,1.91-.16,2.43-.83-.39.49-1.5.6-2.57.83s-2.11.59-2.26,1.61c.69-.07,1.37-.12,2.07-.15-.73.69-1.4,1.67-2.2,2.51a8.62,8.62,0,0,1-2.73,2.09c1.52.48.38-.41,2.49,0-2.15-.83,5.21-2.82,2.31-3.33,2.31.69,3-.78,5.61-.45-.24-.34-1.06-.37.83-1a1.86,1.86,0,0,1,.25-.51l.13,0h-.12c0-.1.06-.11,0,0a2.22,2.22,0,0,1-1.18-.13,5.47,5.47,0,0,1,2-1.88,16.23,16.23,0,0,0,2.26-1.53c1.18-.3-.28.62.49.76l1.22-1.3c.49.75,3.5.18,1.1,1.73.77-.33,1.58-.6,2.36-.9a9.58,9.58,0,0,0,4.61-1.43c1.19-.22,2.51-2,1.76-.95,1.19-.62,2.37-1.27,3.58-1.87l.11.2a56.1,56.1,0,0,0,5.65-2.42,15.09,15.09,0,0,1,6.45-1.37,14.85,14.85,0,0,1,4.68-1.65l.64.63c1.57-.76,5.15-.7,5.65-1.66,1.18.76,3.21.32,5.34-.37.53-.17,1.05-.35,1.6-.55l1.62-.6a16.88,16.88,0,0,1,2.81-.84l-.17-1a26.46,26.46,0,0,0,6.42-2.73l-.45-.79c1.92-1.5,5.85-1.31,9.19-3-.09.42-1,.71-1.68.78,2.41,0,4.46-1.2,6.33-2.58s3.57-2.93,5.71-3.23a4,4,0,0,1,2.1-1.27.79.79,0,0,0-.19.17,2.05,2.05,0,0,0,.36-.21c.46-.1.95-.2,1.45-.34a5.29,5.29,0,0,0-1.26.22,19.87,19.87,0,0,0,2.45-2l1,.53.21-.16c1.17-.34.5-.9-.4-1.14a6.11,6.11,0,0,0,.9-1.38c1.66.69,2.1-2.24,4.13-1.7a14.08,14.08,0,0,1,2-2.79c.9-1.17,1.69-2.39,1.32-3.2.18.13.5,0,.06.41a6.15,6.15,0,0,0,2.48-2.76l1.28.41a28.59,28.59,0,0,0,.58-3.2c1.6-.88,2.4-1.24,2.1.74a21,21,0,0,1,1.41-3.56,11.29,11.29,0,0,0,.83-3.25l.59.55a11.69,11.69,0,0,0,.71-2.12c.19-.75.36-1.42.82-1.62a9.33,9.33,0,0,0,2.09-2.88,46.36,46.36,0,0,0,1.89-5.16c.49-2,1.11-4.07,1.43-6.17.18-1,.46-2.07.62-3.07s.34-2,.57-2.88c-1.21.66-.9-.16-.51-1.21s.66-2.34-.24-2.46c.54-.43.82-1.48,1.33-.3a33.72,33.72,0,0,1-.27-4.55,7.69,7.69,0,0,0-.21-1.82,4.42,4.42,0,0,0-1-1.71c.48-.51.94.66,1.2.23-.17-.28-.68-1.09-.42-1.54s.55.46.89,1c-.73-3.83-2.58-3.79-4.17-3.7.28-2,0-2.91-1.43-3.88.32-.76.52-2,1.37.18-.17-.62-.51-2.6-1.11-4.34s-1.34-3.27-1.95-3.09c.14-.49-.63-1.69-.89-1.94a35,35,0,0,0-2.48-5.42l.16.8c-1.84-.3-1.41-1.89-2.66-3.8l.17,0c-1.8-5-1.54-1.65-3.41-6.63l-.62.79c-1,.39-1.39-.66-1.9-2.1a13.09,13.09,0,0,0-1-2.24,4.64,4.64,0,0,0-1.57-1.82c.12.39.25.77.34,1.17-.8-.38-1.09-1.65-1.33-3.1s-.58-3-1.29-3.68c-.23-.4.74.19,1.21.47a6.79,6.79,0,0,0-1-1.18,2.89,2.89,0,0,0-.66-.52c-.33-.17-.48,0-.63.18s-.29.47-.59.56a2.63,2.63,0,0,1-1.66-.4c-.24-.77,1-.94.27-1.77l-.19-.19-.13-.1,0,0h0l.07,0,.27.15a.33.33,0,0,0-.1-.14c0-.13-.11-.2-.45-.27-.18-.05-.45-.22-.72-.34a5.34,5.34,0,0,1-.9-.54c-1.28-.83-2.65-2.22-2.84-3.68-.11.77-.21,1.57-1.3.63-1.35-1.69-1.36-5.95-3.76-6.81,0-.31.06-.47.16-.54-1.19-1.23-3.25-4.38-4.52-4.84,1.09-1.48-.49-3.56-2-5.5s-2.93-3.69-1.56-4.36l-2.49-4.53.34,0c-1.29-3-2.47-3.76-3.64-4.48-.15-.78.35-.4.52-.42-1.58-4.6-1.9-5-5-8l.71-.81c-1-.74-1.62-7-4.69-10.76a.78.78,0,0,1,.63.28c-3.34-4.33-2.92-12.73-7-13l-2.28-2.83c1.65,4.26-1.71,0-1.47,2-.94-1.54-.95-4.67.14-2.74l0,.39c2-.05-1.76-5.43-.54-5.86-3.81-8.12-6.44-16.53-9.79-24.24l-.94,1.48-1.12-2.71c0-.85.63-1.41,1.42.52.31-1.34-2.06-2.92-2.37-2.85-1.12-4,2.21.77,1.73-.39l-.79-1.51v.42c-1.11-1-1.74-.88-2.69-3.21-.38-1.57.49-1.11.29-1.71.1,0,.06-.25-.35-.89l-1.37-3.44-.46,1.82c-1.19-1.27-1.35-3.2-1.86-1.11.83-3.11-4.87-12.92-4.91-14.59-1.69-1.76-2.58-3.85-3.6-6.46.05.73-1,1.63-1.79-.65,2.81-.25-.7-4.53.3-7.09-.48,2.11-3-6.19-3.6-3-.6-1.94.87-.51.85-2.17-2.86-4-3.57-10-6.23-15.32-.36,0-.46,1.18-1.44.21l.38-3.57c-.62-1-2.29-.2-2-2.65-.15.39-.38,1-.79.3-3-11.37-10.59-21.35-12.19-33.5,0,1.74-.48.78-1-.34.16.8-.8.32-1.18.65L214,93.35c-1.57-.32-2.12-4.86-3.49-4.85l.81,1.36c-2.18-1.35-1.94,4-3.83,4.43,2.47,1.5.06,6.65,3.78,9.25,0,.93-.84-.43-1.08.16,1.13.58,1.74,1.59,2.25,3.74l-.28-.15c2.55,5.56,2.82,8.28,5,14.82l.67-.84a6.81,6.81,0,0,1,.36,2.54c2,1-1.54-3.85.52-3-1,2.56,4,9.59,2.53,11.66.88,2.09.75-1,1.63,1.05l-.31.79.93.23c.46,1.41.08,2.39-.36,2.64a7.5,7.5,0,0,0-.73-1.23c.12,2,2.36,4.91,2.41,5.61l-.52-2.15c2.94,5.48,5.21,12.74,8.68,17.75l.23-.59c2.57,3.87,1,3.55,3.35,8l-.17-.13a8.9,8.9,0,0,1,2,3.16c-1-.95,0,2.6-1.17,1.3,2.78,4.19,1.61,2,4.44,4.31l-.38,1a5.64,5.64,0,0,1,2.6,2.91c-1.4-1.62-.39,1.92-2.09.15.62,5.47,4.63,6.49,3.43,9.65,2.85,1.39-.78-4.62.16-3.56.16-1.3,2.21,1.21,2.68,2.8.64,1.56-1.25,3.67.49,7.52-.16-.39-.31-.35-.48-.74.16,1.66,1.9,2.55,1.91,4.67,1.58.49,1,2.33,2.53,2l-1.9-3.4c1.27,1.84,3.79,3,4.44,6.64a6.6,6.6,0,0,1-1.74-1.52c0,1.16,1.11,1.74,1.12,2.94-1.57.35-2.23-4.17-4.29-5.83-.15,1.31,2.86,3.61.81,3.22,2.69.67,1.44,3.92,4.13,5.85l-.94.22a6.65,6.65,0,0,1,1.43,1.79l-1.74-.87c1.9,1.69,1,4.45,2.42,6.25-1.93-4.24.62-1.42.44-3.5,3.51,4.71-.91,4,2.15,9.7-.48-.74-.83-3.21.14-2.15a11.32,11.32,0,0,1,.51,3.71c1.94,3.8.62-1,1.9.41-.45,1.8,1.29,1.71,2.41,3.25l-.88.42c1.46,4.67,2.36.33,3.5,4.62l-2-1.13,1.26,1.93-1.19,0c1.78,1.92,1.9,2.71,2.64,5,.38-.8,1.73-.45,2.66,1.49.09,1.57-1.18-.36.23,2.35-.84-.37-1.85-.73-1.6-2.31-.34,0-.83-.36-1.17-.36.06,1.71,1.53,3.67,2,4.66a3.54,3.54,0,0,1-.3-1.17l3.08,3.44c0,.78-.53.4-1,0a25,25,0,0,1,1.77,2.3c-.85,0-1.55.44-2.68-1.09l2.58,3.44c-.19.4.08,2.36-.42,2,.59,2.31,3.84,4.53,4.63,7.59a2.28,2.28,0,0,1,.87.85c1.1,2.7,1.37,5.45,3.86,8.08l-.39,2.39c1.49,2.29.41-3.17,2.89.64,1.83,2.65-.54,1.6-.39,2.78,1.35,1.11,3.88,2.92,4.21,6.05A14.2,14.2,0,0,1,286.69,278Zm18.12,29.22-.64-.4c-.23-.15-.45-.31-.67-.48-.41-.34-.75-.74-.68-1.12a1.33,1.33,0,0,1,1.27.54C304.32,306.13,304.44,306.63,304.81,307.25Zm27.06,39.36c-.38-.4-.36-1.13-.21-2A3.59,3.59,0,0,1,331.87,346.61Zm-92.55,84.84.05-.07C240.81,431.22,240.29,431.26,239.32,431.45Zm-2.87.67c-.23.23-.16.35,0,.43.1-.3.7-.56,1.42-.76C237.6,431.63,237.18,431.6,236.45,432.12ZM255.5,190v.64C254.73,189.57,255.1,189.8,255.5,190Z"/><path class="cls-1" d="M329.33,341.56a.87.87,0,0,1,.42-.39C329.52,341,329.34,341,329.33,341.56Z"/><path class="cls-1" d="M277,259.61l0-.09a.35.35,0,0,0-.2,0Z"/><path class="cls-1" d="M277.76,410.35a2.82,2.82,0,0,1,1.25.15C279,410.27,278.66,410.15,277.76,410.35Z"/><path class="cls-1" d="M223.31,440c.47-.36,1-.7,1.48-1a3.47,3.47,0,0,1-1.6.47C223.34,439.56,223.79,439.68,223.31,440Z"/><path class="cls-1" d="M207.12,444.45c-.1.29-.41.44-.47.74l.39.23C207.78,444.53,208.09,443.67,207.12,444.45Z"/><path class="cls-1" d="M220.29,438c-.51-.61-1.45.15-2.44,1l.19-.13C218.31,440,219.26,439,220.29,438Z"/><path class="cls-1" d="M217.61,439.15a6.33,6.33,0,0,1-1,.65C216.72,440.26,217.06,439.62,217.61,439.15Z"/><path class="cls-1" d="M233.25,434c-.65,0,.05,1.1-.4.93C232.62,436.19,236.14,432.22,233.25,434Z"/><polygon class="cls-1" points="218.03 436.19 218.94 436.82 219.19 435.75 218.03 436.19"/><path class="cls-1" d="M227.74,432.05l-2.05.64c.1.14-.1.34-.37.55C226.52,432.72,227.91,432.3,227.74,432.05Z"/><path class="cls-1" d="M225.32,433.24a4.37,4.37,0,0,0-1.46.91A12.14,12.14,0,0,0,225.32,433.24Z"/><path class="cls-1" d="M220.43,434.49l.66-.11,1.38-.62C221.79,434,221.1,434.23,220.43,434.49Z"/><path class="cls-1" d="M249.15,424l2.12-1c.11-.4-.55-.4-1.33,0C249.48,423.35,248.71,423.75,249.15,424Z"/><path class="cls-1" d="M241.57,423.69a2.11,2.11,0,0,1,1.23.37l-.35-1.2Z"/><path class="cls-1" d="M247.94,421.16c.11-.4,2.93-2,.12-1C247.94,420.56,245.8,421.58,247.94,421.16Z"/><polygon class="cls-1" points="282.15 412.61 281.59 412.79 282.27 414.71 282.15 412.61"/><path class="cls-1" d="M307.39,395.79c-2.45,1,.17,1.38-2.15,2.12-.27.74,1.89-.61,1.59.08C307.9,396.72,308.75,396.52,307.39,395.79Z"/><path class="cls-1" d="M306.83,398a6.9,6.9,0,0,0-.53.69A3,3,0,0,0,306.83,398Z"/><polygon class="cls-1" points="213.73 89.89 213.44 88.09 213.25 89.41 213.73 89.89"/><path class="cls-1" d="M211,87.33l1-.89-1.5-.53C210.78,86.26,211.18,86.93,211,87.33Z"/><path class="cls-1" d="M308,313l.25-.2c0-.42-.15-.55-.53-.84C307.83,312.3,307.89,312.58,308,313Z"/><polygon class="cls-1" points="292.44 291.09 292.62 291.47 293.27 290.21 292.44 291.09"/><path class="cls-1" d="M281.63,273.59c.33.77,1,1.53,1.33,2.3C282,274.36,282.84,272.73,281.63,273.59Z"/><path class="cls-1" d="M253.8,396.72c-.46.08,0,.82-.06,1C254.42,397.28,253.71,396.52,253.8,396.72Z"/><polygon class="cls-1" points="260.16 392.5 260.15 392.86 260.89 391.71 260.16 392.5"/><path class="cls-1" d="M266.63,390.11c-1.12-1.1-2.25,1.11-3.59,1.06l-.3-.24-.12,1.27C264,391.52,265.51,390.12,266.63,390.11Z"/><path class="cls-1" d="M271.22,391.62c-.42-.43.57-.74-.88.17a1.11,1.11,0,0,1,.2.07A4,4,0,0,1,271.22,391.62Z"/><path class="cls-1" d="M270.54,391.86c-.67.31.62.25,0,0Z"/><path class="cls-1" d="M273.6,390.26l-.72.84c.31.22,1.15-.05.95.3C274.66,390.75,274.33,390.53,273.6,390.26Z"/><path class="cls-1" d="M274,388.94l-.38.39C273.79,389.42,273.94,389.41,274,388.94Z"/><path class="cls-1" d="M272.84,390.16l.82-.83c-.22-.16-.41-.58-.39.34C273.18,389.25,273.15,389.7,272.84,390.16Z"/><path class="cls-1" d="M272.19,390.19c-.62-.08-1.34,0-.63-.82C269.92,390.25,270.54,391.08,272.19,390.19Z"/><path class="cls-1" d="M266.43,388.61l-.82-.14-.41.67C265.41,388.81,266.63,389,266.43,388.61Z"/><path class="cls-1" d="M279.61,388.35c-.08-.3-.67-.57-.91-.89l-.53.64C278.61,388.13,279.36,388,279.61,388.35Z"/><path class="cls-1" d="M278.7,387.46l.78-1C278.55,386.89,278.5,387.19,278.7,387.46Z"/><polygon class="cls-1" points="273.58 387.41 272.38 389.11 273.88 387.27 273.58 387.41"/><polygon class="cls-1" points="283.73 386.13 283.45 387.13 284.05 385.49 283.73 386.13"/><path class="cls-1" d="M287.19,383.11c-.16.62.27.52.74.29s1-.62.6.19l.28-.42c.09-.15.21-.36.3-.53s.18-.35.29-.59.2-.5.29-.75.17-.55.25-.88a10,10,0,0,0,.16-1,8.07,8.07,0,0,0-.11-2.48,7.56,7.56,0,0,0-.89-2.38,7.38,7.38,0,0,0-.62-.89,6.78,6.78,0,0,0-.65-.71,6.32,6.32,0,0,0-2.14-1.35,3.75,3.75,0,0,1,.46.25,5.39,5.39,0,0,1,.5.33,4.39,4.39,0,0,1,.56.45,7.94,7.94,0,0,1,.57.59,6,6,0,0,1,.61.82,6.61,6.61,0,0,1,.54,1,7.17,7.17,0,0,1,.6,2.46,7,7,0,0,1-.88,3.87l-.19.33-.18.25c-.12.16-.24.32-.38.48A7.35,7.35,0,0,1,287.19,383.11Z"/><path class="cls-1" d="M283,371.17a7.58,7.58,0,0,1,2.69.44A4,4,0,0,0,283,371.17Z"/><path class="cls-1" d="M281.29,385.7a1.41,1.41,0,0,0,1.27.28l-.85-.5Z"/><path class="cls-1" d="M281.68,385.47h0l.93-.49Z"/><path class="cls-1" d="M281.19,385.76l.1-.06C281.21,385.65,281.18,385.64,281.19,385.76Z"/><path class="cls-1" d="M276.48,387c.38-.7,1.36-1.73-.11-1.84C276.2,385.85,277.05,385.91,276.48,387Z"/><path class="cls-1" d="M280.18,385.09l-1.15.38c.12.19.46.39.28.75Z"/><polygon class="cls-1" points="280.57 384.57 280.18 385.09 280.61 384.94 280.57 384.57"/><path class="cls-1" d="M288,378a6.4,6.4,0,0,0-1-2.75,6.08,6.08,0,0,0-1.54-1.6,7.15,7.15,0,0,0-2.23-1.08,8.73,8.73,0,0,1,2.45,1.69,5.74,5.74,0,0,1,.41.45c.15.2.3.42.43.63a5.31,5.31,0,0,1,.44,4.5c.06.26.08.66.22.71s.19-.06.35-.34A4.76,4.76,0,0,0,288,378Z"/><path class="cls-1" d="M284.38,383.82l.1-.13C284.36,383.69,284.28,383.72,284.38,383.82Z"/><path class="cls-1" d="M275.81,371.76l.11.15,0-.14Z"/><path class="cls-1" d="M286.63,380.2c-.48.86-.76,1.16-1,1.53a5,5,0,0,0-.39.88c.21-.27.45-.56.73-1a7.27,7.27,0,0,0,.94-1.81c0-.12-.06-.19-.1-.14A2.28,2.28,0,0,0,286.63,380.2Z"/><path class="cls-1" d="M280.39,371.09a11.47,11.47,0,0,0,1.08.63C281.16,371.38,280.54,370.88,280.39,371.09Z"/><path class="cls-1" d="M284.82,383.72a.61.61,0,0,1-.07.1C285.06,383.8,285,383.75,284.82,383.72Z"/><path class="cls-1" d="M284.82,383.72a4.72,4.72,0,0,0,.46-1.11,12.7,12.7,0,0,0-.8,1.08A1.34,1.34,0,0,1,284.82,383.72Z"/><path class="cls-1" d="M274.12,377.29a1.45,1.45,0,0,1,2.4-.72c1.07-.58.44-3.21-.6-4.66,0,.35,0,.67-1.19,1.16.42.41,2.57,1,1.6,1.7-1.49.42-1.23-.26-2-.66.63,1-1.84,1.51-1.44,2.95l1.25-.57C274.2,376.72,273.76,377.1,274.12,377.29Z"/><path class="cls-1" d="M278.23,372l.52-.08a4.88,4.88,0,0,1-1.75-1.13c-.85.38-1,.68-1.06.95.8,0,1.62.07,2.47.15Z"/><path class="cls-1" d="M281.29,372.22c-.67.74-1.93,1-1.26,2a1.82,1.82,0,0,0,1.33-.23,1.62,1.62,0,0,1,1.09-.42,6.65,6.65,0,0,1-1.19-.27c-.07-.05.06-.12.24-.19.36-.13.86-.34-.2-.79a5.16,5.16,0,0,1,1.92.24l-1.75-.84.07.06h0v0c.11.12.14.2,0,.11h-.06a1,1,0,0,1-.2.3c-.82-.31-.11-.25.2-.3,0,0,0-.07.06-.11v0a19.52,19.52,0,0,0-2.79.17A16.91,16.91,0,0,0,281.29,372.22Z"/><path class="cls-1" d="M276.62,383a.31.31,0,0,1,.15.15C276.85,383,276.86,382.86,276.62,383Z"/><path class="cls-1" d="M277.65,383c-.09.18,0,.55-.56.7-.51,0-.18-.37-.32-.62-.18.34-.71,1,.35,1l.09-.17c.91-.11,2.44.29,2.36.47A7,7,0,0,0,277.65,383Z"/><path class="cls-1" d="M283.13,381.66a11.29,11.29,0,0,0,.77-1,4.93,4.93,0,0,0,.76-1.61,2.55,2.55,0,0,1-1.48,1l.37.25c-.55.46-.67.65-.65.85S283.08,381.47,283.13,381.66Z"/><polygon class="cls-1" points="275.59 371.33 275.83 370.42 274.74 371.73 275.59 371.33"/><polygon class="cls-1" points="273.11 371.52 273.17 370.72 272.54 371.23 273.11 371.52"/><path class="cls-1" d="M143.11,396.48l-.56.18A1.93,1.93,0,0,0,143.11,396.48Z"/><path class="cls-1" d="M147,396.8l.12-.39C147,396.62,146.88,396.77,147,396.8Z"/><path class="cls-1" d="M216,379.43c-.89-.6-1.93-1.58-1.68-.72l.38.82A1.63,1.63,0,0,1,216,379.43Z"/><path class="cls-1" d="M178.39,390.9l.26.23c.14-.32.28-.62.41-.89Z"/><path class="cls-1" d="M178.27,394.53l-1.08-.43A3.4,3.4,0,0,0,178.27,394.53Z"/><path class="cls-1" d="M121.38,393.19l-.92.62C121.46,394.15,121.17,393.58,121.38,393.19Z"/><path class="cls-1" d="M249,374.4a4.57,4.57,0,0,0-1.71-.28C248.19,374.5,248.94,375.15,249,374.4Z"/><path class="cls-1" d="M145.31,387.42c-.32.14-.46.31-.47.51C145.17,387.8,145.36,387.64,145.31,387.42Z"/><path class="cls-1" d="M245.43,374.4c.13.07.25.09.38.15a3.8,3.8,0,0,1,1.52-.43A1.44,1.44,0,0,0,245.43,374.4Z"/><path class="cls-1" d="M90.18,325.54c0-.05.09-.11.14-.15C90.21,325.35,90.19,325.42,90.18,325.54Z"/><path class="cls-1" d="M105.27,307.28a7.37,7.37,0,0,1-.28.83A1.56,1.56,0,0,0,105.27,307.28Z"/><path class="cls-1" d="M263.46,371.9c.5-.11.07-.1,0,0Z"/><path class="cls-1" d="M266.22,375.08a.57.57,0,0,0-.16.44A.7.7,0,0,1,266.22,375.08Z"/><path class="cls-1" d="M241.36,380.46h0C241.49,380.61,241.46,380.58,241.36,380.46Z"/><path class="cls-1" d="M264.26,372.22a2.37,2.37,0,0,0-.67-.19A3.08,3.08,0,0,0,264.26,372.22Z"/><path class="cls-1" d="M264.11,371.82l.45,0C264.61,371.71,264.54,371.62,264.11,371.82Z"/><path class="cls-1" d="M262.77,372a2.8,2.8,0,0,1,.82,0c-.1,0-.15-.1-.13-.13Z"/><path class="cls-1" d="M94.65,367.3a.79.79,0,0,1,0-.13C94.13,366.83,94.27,367,94.65,367.3Z"/><path class="cls-1" d="M205,390.53l.05,0-.08,0Z"/><path class="cls-1" d="M203.36,391.48c.54-1.2,1-1.14,1.59-1l-1-2.36Z"/><path class="cls-1" d="M133.63,395.54l1.17,1c-1.78,1-2.87.34-1.82,1.64.33-1.33,1.61-1.13,2.89-1.05s2.56.21,2.81-1.12l.78.68c-.24-.06-.3.09-.53,0,1.52,1.49,1.45-1.82,3.51-1.23.72.28,1.2.72.67,1,.57-.17,1.14-.33,1.7-.54.47.08.32.55-.15.47l2.52-.07,0,.07a11.54,11.54,0,0,1,1.62-1.27c.62.42-.33.27-.18.62.47-.19.94-.41,1.4-.62.54.71-.62,1.4-1.58,1.23,1.2,2.79,1.17-.64,3.92,1l-1.32.32c.82,1.55,1.86,1,3.36,2-.36-.49-3-2.48-1.45-3.12a1.61,1.61,0,0,0,1.8-.22c0,1,.8.72,1.79.65l-.06,1.28c1.07-.38,1-1,1.6-1.62,1.19.11,1.47,1.11,1.77,1.93,1.92.12-1.36-1.53.89-1.87,1.6.42,2.7-.15,4.53-1,1.13.36-.14.79.27,1.13l.92-1.09c.24,0,.18.33.15.49.8-.45,0-1.28,1.25-1.72.23-1.44,2.8,1.89,4.26.12.42.33-.12.8,0,1.28a11.52,11.52,0,0,0,3.44-2.52l1.61.68c-1.22-.84.09-2.11,1.2-3.2a10.56,10.56,0,0,0-1.07-.94l1.88-.93c.26.18.12.64-.14,1.21.12-.12.23-.24.32-.35.76.39.49,1.16.07,1.94-.27-.22-.54-.46-.8-.7a4,4,0,0,0-.57,2.48,1.39,1.39,0,0,1,.61-.43c-.1.23-.16.43-.09.55s.26-.19.54-.55l.63,1.36,0-.58,2.72.56c1.68-1.64,3-4,5.8-5-.57,1.14.1,1.71.25,2.94-1-1.18-2.19.89-3.76.85.82,0,.73.63.55.87l2.55-1.59c.09,1,.69.66,1.47,1-.85-1.89,1.82-1.62,2.81-2.43.18.65,0,1.38-1.34,1.45,1.73,1.23,1.53-2.65,3.19-1.64-.33.08-.52,0-.59.36.66-.72,2.61-.57,2.27.08l-.32.07c2.24-.13,6.56-1.16,6.58-2.89a13.93,13.93,0,0,1,0,2.43l2.82-6.32c-.08,1.5,1.83,4.69.2,5.82a2.47,2.47,0,0,0,2.21-.46c-.39-.14-1.24-1.93-.79-2.14,1.6,1.37,1.06.69,2.92,1.77-.58-.22-.4-2.57.44-2.65-.07.36.47,2.22.2,2.5l1.67-2.57c-.44.48.24,1.89.81,2.43-.29-.39,1.79-.27,2.3-.58l-1-.36c2.38-.07,1.75-3.52,4.08-3.8-.2.5-.2,2.93,1,3,.34-1.23,1.44-5.87,3.35-7.09l.5.58,1.45-1a42.08,42.08,0,0,1-4.08,7.58c1,.37.37.73,1.66.45.57.53-.55,1-.92,1.14l3.09-.12c-.36-1.3,2.1-1.72,1.8-2.8l-3.07,1.92c-.36-1.3,1.27-4.08,3.47-4.21.63.44,0,2.43.1,2.87.2-.51,1.9-1.21,2.15-.92l-.8.86c1.28.3,1.67-2.09,3.31-1.05.51,0,1.76,1.46,1.72.66-1-1.38-2-6-1.62-7.26a15.63,15.63,0,0,1,3.54,1.68c1,1.06-.78,3,.09,3.94a1.83,1.83,0,0,1,.51-1.06c.58.22,0,1.15,1.07.81,0-1.38,2.33-.25.36-1.22,1-.56,1.22.09,2.52-.17-.55-.81.71-3.15,1.77-3.7a1.71,1.71,0,0,0,.46.94c2.3-.22,3.62.21,5.74-.09.25.3,1.33.55,1,1.19.27-.28.48-.78,1.14-.9,1.43,1-1.44.39-.27,1.65,0-.8,1.54-1.32,2.4-1.94-.45-1.17-2.19.07-3,.69-.25-1.67,1.13-3.65,3.27-4.73,1.72-.66.92,1,1.19.69,3.38-.15,2.48-3.3,5.42-2.44,1.24.94.31,2.12.65,2.86-1.4.58-2.31-.4-3.29-.23l1.28.35a2.13,2.13,0,0,1-1.92.56c1,.84,5.66-.53,8.33.09.42-.41,1.17-.86.75-1.25l-.8.23c-.84-.78,1.42-1.35.34-1.65,1-.72,2.19-1.8,3.8-1.45l.4,1.2c-.06-.36-1.08-.64-1.49-.23.61-.6,2.53,1.44,3.11-.21l-1.16-.76c1.06-.7,2.37-2.11,3.82-1.8-.72-1.17-.31.15-1.42-1.19,1,1.68-3.63.19-2.08,1.93-1.16-1.55-1.83-.54-3.29-1.81.08.4.54.72-.65.64a1.79,1.79,0,0,1-.22.38l-.08,0,.06,0c0,.06,0,.08,0,0a1.49,1.49,0,0,1,.66.56c-.49,1-2.34,1.14-2.91,1.69-.71-.12.24-.5-.19-.88l-.85.81c-.19-.88-2-1.27-.43-2l-1.47.13a3.17,3.17,0,0,0-2.81,0c-.71-.11-1.6,1.2-1.1.43l-2.2.85-.05-.22c-2.27.19-4.41,2.1-7.19.87a5.18,5.18,0,0,1-2.76.65l-.36-.73c-.92.42-3-.33-3.3.54-1.36-1.91-4.75.27-6.5.18l.09,1a11.75,11.75,0,0,0-3.62,1.23l.23.87c-1.12.93-3.3-.1-5.25.32.08-.36.59-.36,1-.21-2.69-1.61-4.71,2.28-7.08,1.2a1.15,1.15,0,0,1-1.29.21.24.24,0,0,0,.12-.07l-.22,0c-.26-.11-.53-.24-.81-.34a2.39,2.39,0,0,0,.7.37,5.86,5.86,0,0,0-1.58.63l-.42-.9a.78.78,0,0,0-.14.05c-.66-.25-.4.53,0,1.19a2.94,2.94,0,0,0-.7.71c-.75-1.45-1.5.79-2.45-.72-.27.86-3,1.13-3,2.87-.06-.22-.26-.29.07-.36a2.1,2.1,0,0,0-2,.44l-.5-1.16L205,384.44c-1-.58-1.48-.94-.76-2-1.89,1.81-1.64.85-3.22,2.59l0-.79c-.65.14-1.5,1.38-2,.8-1.75-1.2-7.23,1.09-11.17.28,1.08,2.2-1.88-.78-1.76,1-.3-.51-.86-.74-.33-1.3-1.82.81-3-.43-4.06,1.23-.29-.52.3-.85.06-1.15-.14.13-.54.55-.78.25s.22-.5.48-.77c-1.91.33-1.9,2-1.84,3.64-1.08-.62-1.56-.46-2.15.67-.41-.47-1-.94.15-1.28-.69,0-4.24-.34-4.18.95-.25-.3-1,0-1.13.17a23.82,23.82,0,0,0-3.18.2l.43.18c-.47,1.58-1.22.43-2.43.71l0-.16c-2.86-.92-1.18.64-4-.5l.2.95c-.17,2.07-2.5-1.11-4-.26l.59.53c-.87.74-2.5-2.77-3.35-3-.19-.18.29-.3.55-.43-2.26-1.19-.28,1.26-2,1.57-.31-.67.4-1.73-.73-1.84-.53-.55-3.3,2.13-4.81.8.32.53.64,1.06-.16,1.44-1.22.11-3.12-2.16-4.3-.57a.61.61,0,0,1-.19-.42c-.94.34-3,.42-3.66,1.26-.25-1.67-1.68-1.45-3-1.21s-2.64.54-2.37-1l-2.77-.33.14-.29a3,3,0,0,0-3.23.58c-.36-.29,0-.5.07-.65a7.24,7.24,0,0,0-2.5-.94,8.07,8.07,0,0,0-2.64.6l.09-1c-.36.18-1.13-.49-2.12-1.16a5.92,5.92,0,0,0-3.52-1.41.67.67,0,0,1,.43-.29c-1.49-.06-2.73-1.37-3.74-2.42s-1.93-1.71-3.37-.46c-.68-.07-1.34-.19-2-.32,1.79,1.67-1.21,1.06-.74,2.14-1-.43-1.41-2.38-.33-1.82l0,.26c.74-.64.21-1.19-.34-1.76s-1.17-1.13-.72-1.59a19.65,19.65,0,0,1-4.29-5.2c-.6-.93-1-1.94-1.57-2.87s-.93-1.91-1.35-2.87l-1.09,1.1-.6-1.39c.14-.51.81-.94,1.22,0,.48-.83-1.35-1.32-1.67-1.24-.27-2.15,1.89.09,1.67-.53l-.43-.73-.09.24c-.83-.4-1.43-.25-1.8-1.5,0-.86.72-.68.66-1,.1,0,.12-.14-.09-.47l-.4-1.83c-.32.34-.61.68-.91,1-.81-.65-.38-1.78-1.45-.57a2.78,2.78,0,0,0,.55-1.89,14,14,0,0,0-.25-2.51c-.13-.87-.26-1.71-.36-2.4a2.85,2.85,0,0,1,.06-1.43,3.63,3.63,0,0,1-.84-1.8,8.24,8.24,0,0,1-.08-2.07.79.79,0,0,1-1.39-.69c2.67.46,1.17-2.41,3.16-3.36-1.35.87-.09-3.67-2-2.34.31-1.08,1,0,1.7-.75-.81-2.68,1.31-5.54,1.57-8.69-.33-.12-1,.31-1.35-.47.69-.44,1.37-.88,2.07-1.3,0-.65-1.86-1-.42-1.87-.33.09-.81.23-.83-.21,1.55-2.88,2.08-6.06,2.93-9.21s2-6.24,4.71-8.58c-1,.54-.81,0-.58-.64-.31.33-.8-.34-1.27-.45.75-.66,1.51-1.32,2.27-2-1-1,1.1-2.65.09-3.43l-.16.86c-.87-1.68-3.69.06-5.37-.86,1,1.88-3.73,2.25-2.29,5.22-.54.3-.42-.61-.93-.54.56.82.48,1.5-.31,2.53l-.14-.2c-1,3.34-2.28,4.48-4,8.11h1a2.86,2.86,0,0,1-1,1.17c1.1,1.34.77-2.25,2-.95-2.21.52-1.65,5.7-3.93,5.91-.32,1.28,1.16-.11.84,1.16l-.66.2.67.5a1.59,1.59,0,0,1-1.62,1c.1-.2,0-.62,0-.85-.94.95-.42,3.16-.71,3.5l.6-1.18c-.18,3.61-1.59,7.92-.65,11.53l.47-.23c.65,2.7-.66,2.09-.35,5l-.1-.11a3.51,3.51,0,0,1,.62,2.17c-.53-.74-1,1.42-1.59.46,1,2.9.75,1.45,2.51,3.24l-.7.49a2.7,2.7,0,0,1,1.42,2c-.78-1.11-1,1.06-2-.18a4,4,0,0,0,.45,3.65c.49.89.83,1.54-.15,2.51,1.17.48,1.29-.25,1.2-1s-.33-1.54,0-1.19c.55-.76,1.69.85,1.74,1.8.08.47-.46,1-.94,1.78a3.39,3.39,0,0,0-.44,2.94c-.08-.24-.22-.21-.29-.46-.21,1.09,1.29,1.55.88,3,1.41.15.54,1.45,2.07,1-.4-.66-.86-1.32-1.21-2a9.48,9.48,0,0,0,1.85,1.43,3.48,3.48,0,0,1,.84.91,2.65,2.65,0,0,1,.43,1.37,3.38,3.38,0,0,1-1.43-.68c-.13.77.82.95.69,1.75-.74.29-1.14-.32-1.57-1.08a4.72,4.72,0,0,0-1.64-2.17c-.34.92,2.12,2.06.27,2.1a1.48,1.48,0,0,1,1.65,1.33,2.23,2.23,0,0,0,1.61,1.88l-.88.38c.27.17,1,.44,1.19.89-.51-.05-1-.1-1.53-.17A2.2,2.2,0,0,1,95.6,374c.16.73.24,1.54.92,1.93-1.75-2.41.54-1.21.41-2.61,1.48,1.11,1.33,1.81,1.1,2.72a2.82,2.82,0,0,0,1.09,3.32c-.48-.33-1-1.93-.05-1.57a5.75,5.75,0,0,1,.74,2.41c2.08,1.76.4-1,1.64-.58-.17,1.45,1.25.59,2.32,1.06l-.63.73c1.9,2.39,1.87-1,3.46,1.21-.57.14-1.15.27-1.72.37.43.22.89.39,1.33.58l-.9.7c1.74.25,2,.74,3.06,1.79a1.38,1.38,0,0,1,2.21-.7c.45.94-.91.56.75,1.35-.66.33-1.47.74-1.68-.46-.24.22-.68.29-.92.5A2.56,2.56,0,0,0,110,388c.53.24,1.07.39,1.37.55a1.55,1.55,0,0,1-.53-.56c1,.05,2,.11,3,.11.21.5-.21.62-.64.73.54.14,1.07-.1,1.82.17-.52.62-.82,1.37-2,1.21l2.72.32c0,.4.84,1.38.42,1.52a4.23,4.23,0,0,0,2.55.48,4.67,4.67,0,0,1,2.83.57,1.08,1.08,0,0,1,.78-.17c.79.38,1.51.85,2.3,1.21a4,4,0,0,0,2.81.31l.81,1.63c1.64.05-1.12-2.08,1.58-2,1.91,0,.44,1.33,1,1.85,1.08-.53,2.9-1.65,4.4-.24C134.58,395.82,134.17,395.52,133.63,395.54Zm19.27,1c-.37.2-1.13.81-1.39.23C152,395.7,152.27,396.23,152.9,396.56Zm28.44-4.16c-.22.35-.66.24-1.17-.06A1.55,1.55,0,0,1,181.34,392.4Zm76.76-19.1,0,.05C257.22,373.08,257.52,373.19,258.1,373.3Zm1.73.22a.29.29,0,0,0,0-.41c-.09.25-.47.31-.9.3C259.12,373.64,259.35,373.79,259.83,373.52Zm-161-13.41a2.75,2.75,0,0,0-.15.36C98.18,359.92,98.48,360,98.8,360.11Z"/><path class="cls-1" d="M178.3,394.11a1.24,1.24,0,0,1-.22-.5C178,393.79,178,394,178.3,394.11Z"/><path class="cls-1" d="M121.55,393.08l0,0a.53.53,0,0,0-.12.14Z"/><path class="cls-1" d="M235.4,385.25a1.43,1.43,0,0,1-.73-.39C234.68,385.09,234.87,385.27,235.4,385.25Z"/><path class="cls-1" d="M268.64,371l-1.08.34a1.31,1.31,0,0,1,1,.23C268.53,371.34,268.29,371,268.64,371Z"/><path class="cls-1" d="M278.35,376.64c.16-.11.33,0,.49-.11l0-.45C278.14,376.07,277.67,376.42,278.35,376.64Z"/><path class="cls-1" d="M269.89,374.1c.15.81.8.48,1.55.29h-.13C271.46,373.25,270.67,373.67,269.89,374.1Z"/><path class="cls-1" d="M271.62,374.35a2.08,2.08,0,0,1,.7-.06C272.39,373.83,272,374.21,271.62,374.35Z"/><path class="cls-1" d="M261.9,372.74c.38.17.11-1.06.35-.75C262.53,370.92,260,373.5,261.9,372.74Z"/><polygon class="cls-1" points="270.69 376.73 270.35 375.75 269.99 376.58 270.69 376.73"/><path class="cls-1" d="M264.74,376.51l1.22.15c0-.16.1-.27.28-.37C265.5,376.33,264.68,376.21,264.74,376.51Z"/><path class="cls-1" d="M266.24,376.29a1.54,1.54,0,0,0,.95-.25A3.44,3.44,0,0,0,266.24,376.29Z"/><polygon class="cls-1" points="269.08 377.15 268.72 376.97 267.87 376.97 269.08 377.15"/><path class="cls-1" d="M251.94,377.86l-1.25.46c-.09.36.29.52.76.32C251.72,378.36,252.18,378.16,251.94,377.86Z"/><path class="cls-1" d="M256.2,380.06c-.37-.16-.42-.38-.66-.68l.12,1.24Z"/><path class="cls-1" d="M252.49,380.85c-.08.35-1.73,1.23-.11.93C252.46,381.42,253.71,381,252.49,380.85Z"/><polygon class="cls-1" points="232.87 382.2 233.19 382.13 232.82 380.13 232.87 382.2"/><path class="cls-1" d="M216.64,389.86c1.6.22.15-1.3,1.62-.93.28-.54-1.2-.3-.91-.77C216.52,388.82,216,388.62,216.64,389.86Z"/><path class="cls-1" d="M217.35,388.16a4.74,4.74,0,0,0,.42-.39A1.34,1.34,0,0,0,217.35,388.16Z"/><polygon class="cls-1" points="107.68 304.52 108.46 303.85 107.58 304.1 107.68 304.52"/><path class="cls-1" d="M107.09,302.23l1.26.38c-.27-.33-.53-.69-.82-1C107.51,301.79,107.42,302.22,107.09,302.23Z"/><path class="cls-1" d="M155.75,399.19l.08-.32c-.17-.33-.41-.36-.89-.4Z"/><polygon class="cls-1" points="141.69 397.63 141.93 397.68 141.59 396.46 141.69 397.63"/><path class="cls-1" d="M129.52,397.31c.48.17,1.11,0,1.59.16C130,397.5,129.69,395.84,129.52,397.31Z"/><path class="cls-1" d="M208.33,512.75h-2V459.31a9.25,9.25,0,0,1-3.51-8.66c1.94-11.77,27.13-24.44,72.86-36.62,35.69-9.51,55.78-27.41,58.11-51.78,2.47-25.9-15.44-51-24-55.16C294.21,299.53,210,96.28,206.41,87.63l1.84-.76c30.21,73,90.49,212.64,102.43,218.42,8.92,4.32,27.66,30.39,25.1,57.15-1.68,17.62-13.39,41.21-59.58,53.52-25.62,6.83-69,20.45-71.4,35a7.36,7.36,0,0,0,3.09,7l.44.83Z"/><path class="cls-1" d="M154.81,393.21c-26.56,0-44.92-6.69-54.78-20-8.36-11.31-10.4-27.66-5.88-47.26a124.87,124.87,0,0,1,9.38-26.38l1.77.92c-.23.45-23.08,45.28-3.66,71.54,14,18.88,46,23.89,95.22,14.89,85.23-15.58,86.32-11.3,86.85-9.24.43,1.68-1.17,4-15.64,9.77-7.77,3.08-15.75,5.72-15.83,5.74l-.63-1.9c13.87-4.57,29.14-10.82,30.12-13.11-1.47-1.23-12.94-2.37-84.51,10.71A239.28,239.28,0,0,1,154.81,393.21Z"/><path class="cls-1" d="M455.65,110.66a1.91,1.91,0,0,0,1.29-.6,1.51,1.51,0,0,1,1.62-.29,7.87,7.87,0,0,1,1.16-1,3.7,3.7,0,0,1,2-.41v1.37a4.73,4.73,0,0,1-.16.93,11.56,11.56,0,0,1-.49,1.53,15.84,15.84,0,0,1-.76,1.7,5.92,5.92,0,0,1-1,1.41,6,6,0,0,0-1.17.12,10.07,10.07,0,0,1-1.81.12,3.76,3.76,0,0,0-1.25.28,4.47,4.47,0,0,0-1.41.85,2.73,2.73,0,0,1-1.57.64,8.71,8.71,0,0,0-2.22.65,2,2,0,0,0-1.29.56,1.91,1.91,0,0,1-1.21.57,2.32,2.32,0,0,1-1.65.64c-.78.06-1.58.08-2.38.08h-.65c0-.37,0-1,.08-1.93a3.38,3.38,0,0,1,.57-1.94,29.39,29.39,0,0,0,3.38-2,13.24,13.24,0,0,1,3.39-1.74,2.13,2.13,0,0,1,1.45-.52,5.25,5.25,0,0,0,2.1-.61Z"/><path class="cls-1" d="M484.52,93.08a4.56,4.56,0,0,1,.92.09q.45.08,1.05.12c.4,0,.89.06,1.45.12s1.31.08,2.22.08l2.66-.65c.43-.1.83-.21,1.21-.32a5.72,5.72,0,0,1,1-.24,5.31,5.31,0,0,1,.72-.08,3.39,3.39,0,0,1,1.41.4,8.38,8.38,0,0,1,1.49.89,6.8,6.8,0,0,1,.73,2.5,8,8,0,0,0,.65,2.5,3.47,3.47,0,0,1,.56.92c.22.46.43.9.65,1.33a12.17,12.17,0,0,0,.8,1.78q0,1.53-2,1.53a2.9,2.9,0,0,1-1.46-.77,24.47,24.47,0,0,0-2.49-1.69,21.22,21.22,0,0,0-3.63-1.69,14.64,14.64,0,0,0-5-.77l-1.53.4a10.75,10.75,0,0,1-.93,1.21,1.36,1.36,0,0,0-.44.81v.73q-.16.64-.33,1.2a7.22,7.22,0,0,0-.24,1,5.42,5.42,0,0,0-.08.73V111a5.46,5.46,0,0,0,.49,2.3,1.59,1.59,0,0,0,1.53,1.09,7.18,7.18,0,0,0,.8-.08,10.32,10.32,0,0,0,1.21-.24l1.53-.33h1.62a2.15,2.15,0,0,0,1.17-.32c.34-.21.68-.44,1-.68l.93-.69a1.61,1.61,0,0,1,.93-.32.89.89,0,0,1,.56.32,9.58,9.58,0,0,1,.65.73l.8,1v5.33q0,2.25-2,2.25a3.09,3.09,0,0,1-1.53-.36,7.19,7.19,0,0,1-1.13-.77,6.68,6.68,0,0,1-1.49-.72,2.64,2.64,0,0,0-1.5-.4h-2.9q-2,0-2.58.72a5.16,5.16,0,0,0-.56,2.9v2a15.76,15.76,0,0,1,.32,2.26A15.78,15.78,0,0,0,484,129a3.8,3.8,0,0,0,.77,1.66,3,3,0,0,0,1.77.92h4.52a7.72,7.72,0,0,0,2.46-.44,19.35,19.35,0,0,0,2.7-1.17l2.54-.89a6.83,6.83,0,0,1,2.13-.4,5.52,5.52,0,0,1,.65.57l.48.48a.69.69,0,0,1,.24.48,1.59,1.59,0,0,1-.4,1.05,8.06,8.06,0,0,1-1,1,6.73,6.73,0,0,0-1.61,2.13c-.32.73-.63,1.4-.93,2a4.91,4.91,0,0,1-1.09,1.53,2.69,2.69,0,0,1-1.93.61,3.14,3.14,0,0,1-.89-.12,5.6,5.6,0,0,1-.84-.33,5.22,5.22,0,0,0-1-.32,7.87,7.87,0,0,0-1.49-.12l-7.82.24-2.75.65h-6.69l-1.61.48-2.42.16a1.64,1.64,0,0,1-.88-.32,4.65,4.65,0,0,1-.89-.77,6.63,6.63,0,0,1-.69-.88,1.46,1.46,0,0,1-.28-.69c0-1.34,1-2,3-2,.43-.17.86-.35,1.29-.57a18.33,18.33,0,0,1,2-.81,3.92,3.92,0,0,0,2.3-1q.6-.74.6-3.39a1.58,1.58,0,0,1,.28-.85c.19-.29.1-.6-.28-.92a5.18,5.18,0,0,0-.08-.85,4.13,4.13,0,0,0-.24-.85c-.11-.32-.22-.67-.32-1v-6.45l.64-5.65v-1.37a1.15,1.15,0,0,1,.12-.64,1.21,1.21,0,0,0,.12-.65v-9a1.34,1.34,0,0,0-.8-1.17,3,3,0,0,0-1.21-.44h-2.26A2.34,2.34,0,0,1,470,97.6a6.33,6.33,0,0,1-.68-3,1.2,1.2,0,0,1,.44-.89,1.38,1.38,0,0,1,.93-.4h4.27a14,14,0,0,0,1.49-.12,19.82,19.82,0,0,1,2.54-.13Z"/><path class="cls-1" d="M455.65,207.41a1.91,1.91,0,0,0,1.29-.6,1.51,1.51,0,0,1,1.62-.29,7.87,7.87,0,0,1,1.16-1,3.7,3.7,0,0,1,2-.41v1.37a4.73,4.73,0,0,1-.16.93,11.56,11.56,0,0,1-.49,1.53,15.84,15.84,0,0,1-.76,1.7,5.92,5.92,0,0,1-1,1.41,6,6,0,0,0-1.17.12,10.07,10.07,0,0,1-1.81.12,3.76,3.76,0,0,0-1.25.28,4.47,4.47,0,0,0-1.41.85,2.73,2.73,0,0,1-1.57.64,8.71,8.71,0,0,0-2.22.65,2,2,0,0,0-1.29.56,1.91,1.91,0,0,1-1.21.57,2.32,2.32,0,0,1-1.65.64c-.78.06-1.58.08-2.38.08h-.65c0-.37,0-1,.08-1.93a3.38,3.38,0,0,1,.57-1.94,29.39,29.39,0,0,0,3.38-2,13.24,13.24,0,0,1,3.39-1.74,2.13,2.13,0,0,1,1.45-.52,5.25,5.25,0,0,0,2.1-.61Z"/><path class="cls-1" d="M473.55,196.12a5.12,5.12,0,0,1,.44-2.21,5.76,5.76,0,0,1,1.21-1.66,13,13,0,0,1,1.74-1.37q1-.65,2-1.29,2.18-1.36,4-2.26a10.16,10.16,0,0,1,4.48-.88c1.13,0,2.12,0,3,0a4.67,4.67,0,0,1,2.66,1.09,4.9,4.9,0,0,1,1.57,1.93,6.55,6.55,0,0,1,.45,2.58,5.8,5.8,0,0,1-.28,1.69,5.72,5.72,0,0,1-.81,1.62,4.24,4.24,0,0,1-1.29,1.17,3.29,3.29,0,0,1-1.65.44,2.12,2.12,0,0,1-1.41-.44,10.76,10.76,0,0,1-1-.93,12.28,12.28,0,0,0-1-.93,2,2,0,0,0-1.33-.44,12.18,12.18,0,0,0-2.14.2,6.31,6.31,0,0,0-2,.69,4.53,4.53,0,0,0-1.45,1.2,2.81,2.81,0,0,0-.57,1.78,1.5,1.5,0,0,0,.65,1.37,4.17,4.17,0,0,0,1.57.56l2,.33a5.78,5.78,0,0,1,1.93.64c1.45.75,2.7,1.43,3.75,2s2.24,1.34,3.59,2.25q.72.41,1.29.69c.37.19.74.36,1.09.52s.71.35,1.08.57a9.79,9.79,0,0,1,1.29.89,20.38,20.38,0,0,1,3.75,3.74,8.12,8.12,0,0,1,1.41,5v1.86a4.34,4.34,0,0,0,.33,1.73,4.76,4.76,0,0,1,.32,1.81,4.94,4.94,0,0,1-.69,2.75,20.37,20.37,0,0,0-1.33,2.41,2,2,0,0,0,0,1.09.91.91,0,0,1-.24.93,2,2,0,0,1-1.05,1.37,3.81,3.81,0,0,0-1.37,1.13c-.48.43-.94.81-1.37,1.13s-.86.63-1.29.93-.87.57-1.33.84-1,.57-1.65.89a13.26,13.26,0,0,1-2.74,1.25c-.81.24-1.75.49-2.82.76a2.47,2.47,0,0,0-1,.53,1.52,1.52,0,0,1-1.05.36,4.18,4.18,0,0,1-1.13-.12,3.07,3.07,0,0,0-.88-.12,6,6,0,0,0-1.9.24,5.34,5.34,0,0,1-1.73.24,1.6,1.6,0,0,1-1-.28,2.56,2.56,0,0,0-1-.44,3.81,3.81,0,0,0-1.57-.28,7,7,0,0,1-1.57-.13,2,2,0,0,1-1.45-.52,10.24,10.24,0,0,0-1.46-1.09,7,7,0,0,0-1.69-.68,3.86,3.86,0,0,1-1.69-1.09,1.63,1.63,0,0,1-1-1.25,4.42,4.42,0,0,0-.56-1.65,20.41,20.41,0,0,0-1.13-2.14,4.47,4.47,0,0,1-.49-2.38,5.49,5.49,0,0,1,1.78-4.07,5.86,5.86,0,0,1,4.27-1.73,6.34,6.34,0,0,1,2.9.68,2.19,2.19,0,0,1,1.37,2.06,1.67,1.67,0,0,1-.12.72,1.26,1.26,0,0,0-.12.57,1.44,1.44,0,0,0,.24.88,1.15,1.15,0,0,1,.25.73,1.08,1.08,0,0,1-.13.44,1.25,1.25,0,0,0-.12.45,3.28,3.28,0,0,0,.65,2,5.67,5.67,0,0,0,1.65,1.45,7.45,7.45,0,0,0,2.3.89,11.92,11.92,0,0,0,2.58.28,9.4,9.4,0,0,0,4.72-1.21,14,14,0,0,0,3.83-3.22,12.36,12.36,0,0,0,1.61-2.18,5.6,5.6,0,0,0,.64-2.82,3.58,3.58,0,0,0-.48-1.81,3.52,3.52,0,0,1-.48-1.74c0-.27,0-.41.12-.44a.18.18,0,0,0,.12-.2,3.27,3.27,0,0,0-.69-2.14,6.85,6.85,0,0,0-1.73-1.49,21.49,21.49,0,0,0-2.3-1.21c-.83-.38-1.65-.78-2.46-1.21a1.19,1.19,0,0,1-.52-.56,1.17,1.17,0,0,0-.61-.57,4,4,0,0,0-1.61-.44,2.48,2.48,0,0,1-1.53-.69,2.5,2.5,0,0,1-.89-.84,3,3,0,0,0-.89-.93,4.31,4.31,0,0,0-1.57-.44,3.17,3.17,0,0,1-1.57-.69c-.32-.38-.6-.7-.85-1a4.43,4.43,0,0,1-.68-1.05,5.17,5.17,0,0,0-1.57-1.29,1.73,1.73,0,0,1-.93-1.69v-2a6.24,6.24,0,0,0-.08-1,5.74,5.74,0,0,1-.08-1,1.29,1.29,0,0,1,.08-.52,1.56,1.56,0,0,0,.08-.53,1.72,1.72,0,0,1,.12-.68A1.25,1.25,0,0,0,473.55,196.12Z"/><path class="cls-1" d="M590.18,589.09h-580V10.91h580Zm-579-1h578V11.91h-578Z"/><path class="cls-1" d="M592.11,585.89c0,3.41.39,2.19.46,2.7C592.48,582.88,592,586,592.11,585.89Z"/><polygon class="cls-1" points="591.16 529.53 591.33 530.53 590.91 522.23 591.16 529.53"/><path class="cls-1" d="M591.17,476.84c-.71,5,.12,19.09-.14,28.48l-.16,1.55.57,4.23C591.35,499.69,591,484.87,591.17,476.84Z"/><path class="cls-1" d="M592.71,448.74c-.27,1.73-.24-6.08-.08,6.55,0-.63,0-.82.07-1.19C592.7,453,592.71,451.4,592.71,448.74Z"/><path class="cls-1" d="M592.7,454.1c0,5.55.23-3.63,0,0Z"/><path class="cls-1" d="M592.54,428.47l.25,7.31c.16-1.52.2-8,.32-5.61C593,422.67,592.81,424.21,592.54,428.47Z"/><path class="cls-1" d="M592,421.54l.1,3.79A19.87,19.87,0,0,0,592,421.54Z"/><path class="cls-1" d="M592.34,433.36l-.22-8a8.41,8.41,0,0,0,.08,3.69C592,428.36,592.19,430,592.34,433.36Z"/><path class="cls-1" d="M592.24,437.91c-.16,4.1-.26,9.4-.5,2.06C591.83,454,592.33,451.9,592.24,437.91Z"/><path class="cls-1" d="M590.43,474.15l-.21,5.48.24,4.74C590.34,482,590.66,473.81,590.43,474.15Z"/><path class="cls-1" d="M592.91,382.93c-.15-.45-.41,2.46-.6,3l.17,5.4C592.59,388.56,592.68,383.3,592.91,382.93Z"/><path class="cls-1" d="M592.31,385.94l-.26-8.08C592,385.08,592.14,386.39,592.31,385.94Z"/><polygon class="cls-1" points="591.23 420.24 591.77 433.51 591.22 417.68 591.23 420.24"/><polygon class="cls-1" points="592.93 352.08 593.28 356.66 592.75 348.5 592.93 352.08"/><path class="cls-1" d="M592.87,331.61c.29,3.39.49-4.64.67-1.06,0-5.56-.3-10.31-.53-14.58C593.14,320.51,593.1,325.35,592.87,331.61Z"/><path class="cls-1" d="M592.68,308.79c.07,2.27.2,4.62.33,7.18C592.94,313.56,592.85,311.18,592.68,308.79Z"/><path class="cls-1" d="M592.12,364.1a41.39,41.39,0,0,0,.44-6.36l-.43,3.18C592.13,361.89,592.13,363,592.12,364.1Z"/><path class="cls-1" d="M592.12,361v-.11c0-3.45,0-5.84,0-6.87C592.15,354.93,592.14,357,592.12,361Z"/><path class="cls-1" d="M592.12,364.9v-.8A2.39,2.39,0,0,0,592.12,364.9Z"/><path class="cls-1" d="M591.61,399.06c-.24-4.75-.49-14.64-.86-5.07C591,397.4,591.25,391.92,591.61,399.06Z"/><path class="cls-1" d="M591.59,368.84l-.1,8.59c.11-.17.28-1.72.4.63Z"/><polygon class="cls-1" points="591.45 364.64 591.59 368.84 591.62 365.66 591.45 364.64"/><path class="cls-1" d="M592.28,323.49c-.18-3.71-.2-7.76-.23-12.34-.08,4.91-.13,10-.13,14.8C592.06,326.63,592.3,328.75,592.28,323.49Z"/><path class="cls-1" d="M592.16,341.73l0-.82C592.1,341.41,592.09,341.82,592.16,341.73Z"/><path class="cls-1" d="M592.05,266.06c0,.25,0,.46-.07.72,0,.06,0,.1.07.17Z"/><path class="cls-1" d="M591.84,326.78c-.08,3.69,0,5.89.16,8,0-2.76-.07-5.68-.08-8.82C591.86,325.65,591.82,325.59,591.84,326.78Z"/><path class="cls-1" d="M592.48,296.21c-.07,1.92-.15,4.1-.23,6.39C592.38,300.72,592.59,296.89,592.48,296.21Z"/><path class="cls-1" d="M592.26,339.66c0,.19,0,.36,0,.56C592.37,339,592.32,339.16,592.26,339.66Z"/><path class="cls-1" d="M592.26,339.66c-.06-1.89-.17-3.39-.26-4.89,0,2.25.08,4.33.14,6.14C592.17,340.45,592.22,340,592.26,339.66Z"/><path class="cls-1" d="M589.31,252.39c.4.66.76,10.36.34,18.73.3,8.24,1.6,2.85,2.33-4.34-.18-.26-.34-.26-.57-8.74-.22,3-.51,18.82-.86,11.67-.21-11.24.14-9.21.35-14.67-.5,4.64-.72-14.29-1.45-11.84l.26,9.85C589.59,253.23,589.41,249.66,589.31,252.39Z"/><path class="cls-1" d="M591.94,282.94l0,3.49c.06-4,.22-6.83.53-12.07-.19-5.81-.34-7-.47-7.41l0,17.18Z"/><path class="cls-1" d="M592,302.09c-.43-2.72-.62-11.1-1.08-6,0,10.24.36,7.18.54,13.3-.1-16.53.24,4.74.49-7.2.07,3.25.09,6.17.11,8.93.07-3,.14-5.85.2-8.55,0,.15,0,.26,0,.38V303c-.06.71-.09.95-.06.15,0-.06,0-.26,0-.35a3.38,3.38,0,0,1-.16-.75c.09-4.78.11-.75.16.75,0,.06,0,.19.07.2V303L592,286.43C591.93,289.93,591.94,294.32,592,302.09Z"/><path class="cls-1" d="M589.83,385.16c0-.51.06-.49.1-.53C589.87,383.56,589.84,383.16,589.83,385.16Z"/><path class="cls-1" d="M590.09,378.35a58.85,58.85,0,0,1,.18,6.12c-.13,3.4-.2,0-.34.16.11,2.36.3,8.26.51.86l-.05-1.17c.14-6.66.68-15.22.74-14.06A64.31,64.31,0,0,0,590.09,378.35Z"/><path class="cls-1" d="M590.93,339.75,590.71,326l-.37,7,.23-.35C590.48,340.47,590.75,338.77,590.93,339.75Z"/><polygon class="cls-1" points="592.27 264.48 592.72 266.31 592.08 258.35 592.27 264.48"/><polygon class="cls-1" points="592.21 246.57 592.61 247.23 592.37 242.5 592.21 246.57"/><path class="cls-1" d="M13.09,208.16l.11,4.05C13.17,210.29,13.13,209.06,13.09,208.16Z"/><path class="cls-1" d="M13.12,178.83l-.2-.72C13,179.47,13.11,180,13.12,178.83Z"/><path class="cls-1" d="M384.89,8.92c-5.9-.37-12.49-.94-11.78-.5l1.81.43C379,8.78,382.2,8.82,384.89,8.92Z"/><path class="cls-1" d="M83.58,11.51l1.73.13,4-.41Z"/><path class="cls-1" d="M79.42,13.3,71.64,13C73.39,13.12,75.89,13.22,79.42,13.3Z"/><path class="cls-1" d="M13.55,368.31,14,373C14,365.64,13.77,368.9,13.55,368.31Z"/><path class="cls-1" d="M592.05,63.1c.17-5.09.24-9.15.27-12.71C592.07,56.53,591.69,61.48,592.05,63.1Z"/><path class="cls-1" d="M8.48,196.62c.08,2.48.17,3.53.27,3.46C8.67,197.53,8.59,196.09,8.48,196.62Z"/><path class="cls-1" d="M592.31,35.69c0,.9-.06,1.78-.1,2.69.08,3.72.13,7.47.11,12C592.5,45.86,592.62,40.68,592.31,35.69Z"/><path class="cls-1" d="M371.26,586.12l1.32,0C372.71,586.11,372.12,586.11,371.26,586.12Z"/><path class="cls-1" d="M540.48,590.49l-7,0C534.78,590.56,536.88,590.55,540.48,590.49Z"/><path class="cls-1" d="M592.4,174.49c0,3.8.05.6,0,0Z"/><path class="cls-1" d="M590.69,193a4.7,4.7,0,0,0-.21-1.52A6.93,6.93,0,0,1,590.69,193Z"/><path class="cls-1" d="M576.12,11.47h-.33C576.92,11.56,576.72,11.54,576.12,11.47Z"/><path class="cls-1" d="M592.21,180.21c0-1.43.09-3.07.12-4.86C592.3,176.13,592.26,177.61,592.21,180.21Z"/><path class="cls-1" d="M592.41,179.44c0,1.31,0,2.34,0,3.32C592.44,183.24,592.49,182.81,592.41,179.44Z"/><path class="cls-1" d="M592.38,169.2c0,2.17,0,4.2,0,6.15,0-.75.06-1.06.07-.86C592.4,173.38,592.39,171.8,592.38,169.2Z"/><path class="cls-1" d="M60.05,587.28l.82,0C64.7,587.14,63,587.17,60.05,587.28Z"/><path class="cls-1" d="M286,13.42l.44,0h-.56Z"/><path class="cls-1" d="M272.36,13.75a97.46,97.46,0,0,1,13.52-.36l-4.52-1.25Z"/><path class="cls-1" d="M13.21,278.37l.39-9.58c.65,11.56.42,19.93,1,10.94-1.36-1.36-.14-37.25-1.49-38.59l.28-6.31c0,1.81.07,2.1.06,3.89.65-12.29-1-9.13-.79-25,.1-5.52.3-9.37.46-5.6l-.34-12.3c0-3.57.27-2.7.24.86L12.88,178l0,.14c-.21-2.67-.54-8.73-.68-11.69.19-4.77.14,2.39.31,1.17l-.33-10.38c.35-4.23.7,4.37.65,11.54,1.35-9.69-.35-8.61.45-29.54l.17,9.81c.77-6.32.49-14,1-25.05-.25,2.62-1.21,22.18-1.55,10.92.1-3.18.15-7.36-.12-13.44.48-.06.36-6,.34-13.42l.64.51c-.19-8-.51-7.4-.8-12.12.06-9,.56-10.81,1-12.91.11-14.33-.79,9.89-.91-7.07.24-11.92,0-20.28-.4-34.54.22-8.34.39,1.46.57-1.53L12.69,33c0-1.81.17-1.22.25-.93-.2-6.23-.64-.51-.81-10.31A17.87,17.87,0,0,1,12,18.07c0-.87.06-1.86.09-3,0-.69.09-1.44.14-2.24L13.8,13l.81,0,1.36.05c1.83.06,3.72.11,5.62.15,3.8.06,7.63,0,11-.19,3,.18-1.44.39-.53.64,16.63-.52,14.26-.38,27.92-1.09L71.64,13c-8.55-.48,2.38-1,11.94-1.51-3-.23-5.62-.44-7.36-.53l15.27-.35c1.84.11.3.33-2.2.6l2.8-.16c5.46.24,2.63.61-1.28,1l-5.5-.39c-3.77.39-7.3.82-6.52,1.19,1-.07,2.91-.13,5-.17-1,.11-1.62.2-1.16.26s2.11-.07,4.61-.23l3.47.71.84-.28,20,.44c14.3-.71,26.73-1.77,49.41-2.07-5.63.53-1.21.86-1.52,1.48-6.18-.66-17.56.28-29.32.14,6.14.07,4.79.37,3.23.47l21-.6c-.47.51,4.45.38,9.93.59-4.14-1,15.63-.66,24.16-1,.53.34-1.51.68-11.92.6,11.48.75,14.84-1.18,26.11-.54a38.17,38.17,0,0,0-4.92.13c5.94-.3,20.45-.06,17,.23h-2.54c16.87.12,51.36,0,53.88-.85a10.45,10.45,0,0,1-3.23,1.2l30.1-2.86c-2.65.73,7.53,2.47-6.46,2.88,4,.11,9,.23,17.46,0-2.75-.1-6.84-1.06-3.09-1.12,10.28.81,7.14.43,19.81,1.13-4.11-.16.45-1.31,6.94-1.27-1,.17.54,1.13-1.83,1.25l16.16-1.12c-4,.2-.71.95,2.9,1.27-1.68-.22,14,0,18.28-.09l-6.85-.26c18.24.16,18-1.59,36.12-1.53-2.19.24-5.41,1.43,3.79,1.57A311.81,311.81,0,0,1,430.82,10l3.07.33,12.29-.38c-7.65.87-29.12,2.69-40.85,3.4,6.83.26,1.91.39,12.13.36,3.61.31-5.57.47-8.58.49l23.8.2c-1.06-.67,18.21-.68,17.3-1.24l-25.86.7c-1-.67,14.95-1.91,31.82-1.79,4.29.27-3.21,1.2-2.86,1.42,2.19-.23,16-.44,17.56-.28l-7.16.36c9.39.26,15.33-.89,26.61-.25,3.89,0,11.63.87,12.3.47C496,13,494.8,10.64,499,10.07c1.37,0,20.45.73,24.89,1.11,6.42.6-9.62,1.43-4.16,2a39.84,39.84,0,0,1,5.25-.49c4.09.16-1.69.57,7.19.49,1.49-.68,18.08.06,4.21-.58,8.69-.19,9.23.14,19.44.11-3.25-.44,9.17-1.49,17.88-1.69-.52.17,1.44.4,2.39.5l13.39.1c-.06,5.1-.12,9.69-.18,14.48s-.09,9.87-.09,15.8c-.17,1.53-.37,9.55-.66,6.13.12,2.39.35,4.59.37,9.71-.59,9.92-.09-11.42-.8-3.86.39.64.54,13.25.79,20.55.61-2.25.12-16.86-.13-24.17.85,0,1.73,12.69,2.12,30.05.21,13.81-.55,6-.43,8.38-.14,25.93,1.48,22.09.87,43.62-.54,8.54-1.07.39-1.46,2.28-.2-11.24.34-17.26.32-24.88L590,119c-.18-3.58-.32-11.08-.16-15.17-.49,7.16-.09,43.8-.54,63.8.18,3.55.37,9.69.58,6.79l-.07-6.33c.43-5.82.6,11.91.8,3.9.3,8.49.78,18,.54,30l-.62,2.24a94.82,94.82,0,0,0,.18-11.17c.27,5-.83,18.33,0,23.78l.42-8.37c.31,8.52,1,19.06.77,29.65.6-4.82-.07-2.44.64-10-.89,6.53,0-27.1-.89-16.61.82-7.73.35-13.37,1-23.47-.21.32-.39,3.58-.29-5.31-.06-.4-.13-1.35-.18-1.95l0-.6c0,.17,0,.31,0,.49,0-.39,0-.42,0,.18-.08,2.12-.19,3.83-.3,4.53-.47-4.41-.45-18.55-.69-23.34.09-5.27.23,2.21.44-.67l-.36-7.14c.45-.71.75-14,1-1.59l0-11.19c.26-6.58.36-15.64.17-21.23.09-5.28-.5-13.33-.15-8.73L592,94l.12-.16c.05-17.31-.75-35.64.06-55.43-.11-5.83-.25-11.85-.12-21.6l.19-1,.1-.48c0-.14.06-.5.1-.75,0-1.77,0-3.77,0-6l-9.19-.05-6.61-.09c-4.22,0-7.8,0-9.19.14-8.07-1.05-36.31-.23-49.47-.42l-.5.51c-9.06,0-17.75.12-29,.32l.69.45c-9.69.37-24.92-.32-40.26-.27a66.94,66.94,0,0,1,7.69,0c-18.32-1-38.65.74-55.27,0-4.14.16-7.14.11-10,0,.39,0,.73,0,1,0h-1.7l-5.75-.24c1.73.11,3.39.2,4.83.24-3.19,0-8,.06-12.78.18l-2-.49-1.1,0c-4.66-.18-3.74.23-1.26.59-2.39.08-4.58.17-6.28.29-3.78-.78-12.45.26-17.61-.57-3.2.41-23.87.31-26.4,1.16-.16-.11-1.56-.17,1-.17-5.29-.1-10.58-.2-15.32,0L305.7,9.6l-11.55.82c-7-.37-9.93-.59-3-1.06-16.84.73-13.66.27-28,1l.7-.39c-5.11,0-13.29.54-16.38.22-11.44-.76-56.63-.11-86-.81,5.7,1.17-13.66-.52-14.82.38-1.71-.27-5.81-.43-1-.67-15,.27-22.53-.44-32.88.33-1.71-.28,3.21-.41,1.68-.57a56.85,56.85,0,0,1-6.32.07c-1.53-.16,2.2-.23,4.57-.35-15.32,0-16.87.9-18,1.7a106.5,106.5,0,0,0-17.24.19c-2.7-.26-7.21-.53,2.31-.62-5.36,0-32.71-.39-33.25.25-1.68-.16-7.49,0-8.9,0l-12.51,0h-13l3.9.11c-.42.07-.84.13-1.26.17s-1,.09-1.56.12c-1.07.06-2.17.09-3.35.1,0,1.08,0,2.21,0,3.42s0,2.21-.06,3.44c-.05,2.28-.09,4.9-.06,8l-.08-.27c-.56,21.81.27,9.42-.37,30.93l.48-1.17c1,2-.61,19.06-.21,31.55l.27-4.51c.35,6.82-1.4,19.06-1.53,25.91-.09,1.49-.14-2.36-.21-4.44-.61,17.93.63,2.32.77,15.68-.34,2.47-.86-3.17-.92,5.82-.28,4.48,1.1,26.08.45,38.35.26-2.7.52-5.39.72.82.09,9.51-1,25.71-.17,34.3a6.08,6.08,0,0,1-.2,1.72c.21,7.27.35,23.63.8,28-1.66,6.72.8,45.2-.72,45l.08,22.37-.16-.59c-.1,14.3.27,19.35.63,24.38-.1,3.3-.24.89-.32.62-.31,20.89-.25,23,.51,40.48l-.49,1.82c.29,4.75-.78,30.2-.2,50.69a10.45,10.45,0,0,1-.22-2.26c.58,23.05-1.38,55.19.43,63.63l.44,15.22c.14-19.68.79,2.93,1.09-5.17.1,7.74-.55,20-.64,10.5l.09-1.49c-.94-3.49-.33,24.45-1,23.93q0,18.16-.09,36-.11,18.83-.23,37.25l43.35.19L47.94,590l12.65,0c3.32.17,4.46.57-4.57.54a82.16,82.16,0,0,0,9.39,0c3.22-.16,5.88-.39,6-.47,17.67.3-6.9.85-1.48.87l7.36-.05-1.66-.09c6-.3,6.49-.61,17.34-.58,6.87.15,3.52.45,6.23.48,0,0,.21,0,.84,0s1.68,0,3.3,0l15.94.06-6.37-.57c7.06-.29,15,0,7.63-.63,10.8,1,59.46.37,66.09.68,9.9-.42,19.67-.42,31.77-.36-3-.12-4.81-.77,5.63-.69-3.82,1.34,19.11.58,27.54,1.54-7.54-.64,29.67-.16,17.84-1.06,8.71.1.53.5,7.14.81,20.73-.52,45.68.34,71.3.16.4-.17-3.89-.44,1.6-.7l13.53.88c5.06-.09,4.66-1,13.9-.41-1.3-.15-3.25-.37.14-.42,50.19.85,102.56-.71,153.53.9-6.9-.34-2.3-.37,3-.38-3.43-.08.08-.44-.59-.68l21.33.67c3.89-.67,22.88,0,25.11-.68l-6.76.11c9-.74-12.57-1.66-11.26-2.61-10.06.84-26.53-1.26-43-.05-3.64-.19,3.11-.31,1.16-.53a161,161,0,0,1-18.6.31l1.05-.1c-26.31.1-37.59-.3-67.15-.57l2.19.47c-6.35-.06-7.69-.21-10.66-.33-7.29.72,17.84,0,11.2.83-8.43-1-44.79,0-50.49-1.11-9.77,0,2.87.55-6.9.55l-2.59-.3-2.47.38c-6.41-.06-9.64-.43-9.88-.68,1.55,0,4.42-.07,6.08-.09-8.3-.35-23.42.11-26.27,0l9.39.18c-26.67.28-59.23-.11-85,.49l1.95.23c-19.67.41-15.76-.25-37.36-.06l.79-.05c-4.33.22-10.1.34-16,.31,5.45-.26-10.26-.51-3.11-.8-21.33.45-10.55.35-24.64,1.18l-3.25-.37c-4.8.34-5.21.51-16,.61,8.84-.32-6.89-.57,3-1-22.64-.81-33.61.82-44-.36-10.39,1,19.59.57,13.77.79,4.87.33-8.58.76-15.69.66s-12.29-1.31-30.48-1.29c1.81,0,1.93-.08,3.73-.07-6.8-.26-13.34.35-21.69-.07-4.68.62-10.84,0-12.19.75l16.69-.18c-9.46.21-18.33,1.13-33.92.68,1.22-.16,5.86-.37,9-.48-4.56-.24-8.77.15-13.5-.09,1.35-.79,20.28-.17,30.42-.77-4.89-.34-19.18.57-14.08-.29-7.32,1.09-17.93-.14-30.25.7l.82-.48c-1.95.08-6,.3-9.58.29l6.5-.62c-3.39.18-6.7.19-10,.12L15.55,586l-.61,0H14.5l-.38,0-.69-.07.05-.69,0-.32V584c0-1.52,0-3,0-4.58,0,2.28,0,4.06,0,5.44,0,.44,0,.78-.07,1,.66.09.45.23.15.39s-.63.32,1,.45l-2.11.08c0-.68,0-1.29,0-1.86v-2.65c0-1.73.05-3.15.1-4.38.1-2.45.27-4.14.44-6,.35-3.77.71-8.32.6-21.37.07,3.74-.28,14.06-.5,8.2.09-5.27.28-12.22.52-15.45-.09-18.33-.48,2.81-.77-5,.57-6.24-.24-9-.43-17l.49-.06c.31-20.88-1-5.53-.63-24.33l.66,7.94-.17-9.8.55,2c-.41-10.66-.3-14-.15-24.43-.34,2.43-.87-1.36-.89-10.61.29-6.31.46,3.53.39-9.58a57.88,57.88,0,0,1,.24,11.91c.16.58.3,2.92.46,3.52.33-6.8.07-17.07.07-21.82,0,1.83-.05,4-.12,5.13l-.66-19c.18-3,.32-.61.46,1.74-.05-3.85-.27-6.52-.31-12.18.39,1.47.8,1.12,1,9.13l-.43-18.11c.17-1.21.46-9.29.61-6.94.23-10-.76-24.63-.46-37.94-.07-.69-.15-2.08-.2-4.91.09-12.51.57-23.59,0-38.42l.7-8.41c-.16-11.61-.88,11.39-1.15-7.95-.22-13.68.6-5.11.8-9.91a311.4,311.4,0,0,1-.51-31.22C13.27,271.22,13.16,274.48,13.21,278.37ZM12.9,135.16c.1,2.77.42,8.31.13,10.34C12.48,142.33,12.74,139.89,12.9,135.16ZM104.67,12.44a77.8,77.8,0,0,1-8.86-.11C98.42,12.29,101.38,12.31,104.67,12.44ZM592,132.85c0-.12,0-.2,0-.3C592.18,126.36,592.1,128.56,592,132.85Zm-.21,12.85c.07,1.29.14,1.2.2.66-.12-.9-.13-3.79-.09-7.07A41.74,41.74,0,0,0,591.8,145.7ZM100.63,590.52l-2.5-.12C103.78,590.26,102.2,590.38,100.63,590.52Z"/><path class="cls-1" d="M80,13.1a3.36,3.36,0,0,1-1.19-.27C77.7,12.91,77.68,13,80,13.1Z"/><path class="cls-1" d="M13.47,367.44v.43a1.83,1.83,0,0,0,.09.44Z"/><path class="cls-1" d="M524.86,13.38c-2.64-.07-4.12-.16-5.1-.25C519.61,13.25,520.82,13.35,524.86,13.38Z"/><path class="cls-1" d="M592.62,213.81l-.12-8.23c0,4-.09,5.4-.16,7.41C592.45,212.81,592.61,211.24,592.62,213.81Z"/><path class="cls-1" d="M589.64,285.28c.05,1.2,0,2.55.06,3.74l.23-.33C589.91,283.56,589.73,280,589.64,285.28Z"/><path class="cls-1" d="M591,221.44c-.41.65-.27,5.81-.19,11.58v-1C591.39,233.7,591.21,227.56,591,221.44Z"/><path class="cls-1" d="M590.84,234.36c0,1.78,0,3.59,0,5.33C591.08,240.37,590.9,237.53,590.84,234.36Z"/><path class="cls-1" d="M592.07,162c-.1,2.74.52,1.72.35,3.27C592.94,168.32,591.8,147,592.07,162Z"/><polygon class="cls-1" points="589.68 226.11 590.18 224.04 589.78 220.81 589.68 226.11"/><path class="cls-1" d="M590.05,180.57l-.14,9.21a10.68,10.68,0,0,1,.17,2.47C590.1,186.57,590.2,180.35,590.05,180.57Z"/><path class="cls-1" d="M590.08,192.25c0,3,0,5.77.08,7.42C590.16,198.07,590.14,194.63,590.08,192.25Z"/><polygon class="cls-1" points="589.53 213.51 589.63 210.78 589.67 204.28 589.53 213.51"/><path class="cls-1" d="M590.15,81.5,590,71.44c-.17-1-.27,1.72-.21,5.46C589.91,79.31,590,83,590.15,81.5Z"/><path class="cls-1" d="M588.77,111.92a42.32,42.32,0,0,1,.38-4.44l-.62-.3Z"/><path class="cls-1" d="M588.63,82.59c-.17-1-.5-14.6-.46-1.85C588.34,81.76,588.49,91.83,588.63,82.59Z"/><polygon class="cls-1" points="509.31 11.67 511.87 11.67 511.5 10.65 509.31 11.67"/><path class="cls-1" d="M375.74,14.11c11.92.24,2.83-.63,13.6-.32,2.8-.24-8.8-.25-5.93-.46C376.21,13.58,372.43,13.44,375.74,14.11Z"/><path class="cls-1" d="M383.41,13.33l3.67-.15C385,13.24,384,13.29,383.41,13.33Z"/><polygon class="cls-1" points="568.56 591.04 576.22 591.25 571.27 590.91 568.56 591.04"/><path class="cls-1" d="M583.27,590.28l1.81.65,4.6-.58C588,590.38,584.59,590.43,583.27,590.28Z"/><path class="cls-1" d="M14.21,113.87l-.16-.59a59.93,59.93,0,0,0-.2,6.58Z"/><polygon class="cls-1" points="13.72 217.81 13.74 216.02 13.15 219.37 13.72 217.81"/><path class="cls-1" d="M14.47,305.05c0-3.56-.05-7.75-.08-11.32C14.5,301.49,13.74,306,14.47,305.05Z"/></svg>