<svg id="Laag_1" data-name="Laag 1" xmlns="http://www.w3.org/2000/svg" viewBox="0 0 600 600"><defs><style>.cls-1{fill:#1d1d1b;}</style></defs><title>Rebus 3 Sommige</title><path class="cls-1" d="M432.05,394.43c-2.09-.05-1.34.78-1.65.93C433.9,395.13,432,394.21,432.05,394.43Z"/><path class="cls-1" d="M466,389.68l-.54.43c1.61-.53,3.22-1.08,4.81-1.67C468.88,388.87,467.45,389.29,466,389.68Z"/><path class="cls-1" d="M496.74,382.45c-.36-.26-1.64,0-2.87.28s-2.72.79-4.25,1.31a53.43,53.43,0,0,1-9.27,2.56l-1-.1c-.74.57-1.5,1.12-2.26,1.67,3.37-.81,7.19-2,10.74-3.08,1.78-.55,3.48-1.13,5-1.58l2.22-.66,1-.28Z"/><path class="cls-1" d="M500.7,384.3c.71-.76,1.07-.73.49-.52l-1,.56a.49.49,0,0,1-.05.16,2.39,2.39,0,0,1,.51-.18Z"/><path class="cls-1" d="M500.11,384.5c-.37.16-.4.29-.36.32S500,384.78,500.11,384.5Z"/><path class="cls-1" d="M500.14,386.53a1.09,1.09,0,0,0-.26-.62c-.58.46-.89.94-1.12.86C498.91,387.11,499.19,387.29,500.14,386.53Z"/><path class="cls-1" d="M500.76,387.7l.13-.79C500.67,387.06,500.55,387.19,500.76,387.7Z"/><path class="cls-1" d="M501,385.6a8.91,8.91,0,0,1-.12,1.31,3.08,3.08,0,0,0,.51-.31c.09-.11.06-.27-.37-.37C501.5,386.24,501.17,386,501,385.6Z"/><path class="cls-1" d="M501.69,384.62c.4-.53.81-1.17,1.15-1.57s.62-.58.62.07a3.22,3.22,0,0,0,.33-1.5.11.11,0,0,0-.07-.08,2.57,2.57,0,0,0-.32.22,2.32,2.32,0,0,0-.41.35c-.11.11-.08.13-.15.25s-.29.43-.43.67A7.5,7.5,0,0,0,501.69,384.62Z"/><path class="cls-1" d="M497.69,380.61l-1.3.18-.68.1-.81.15c-.87.43-1.72.87-2.6,1.28a27.63,27.63,0,0,1,3.55-1C496.9,381,497.76,380.82,497.69,380.61Z"/><path class="cls-1" d="M488.86,405.31c.12.39,1.43-.79,1.93-.86l1.34-2.87C491.11,402.85,489.36,405.37,488.86,405.31Z"/><path class="cls-1" d="M490.79,404.45c-.67,1.43-1.32,2.88-2.06,4.27C491.07,405.21,491.19,404.38,490.79,404.45Z"/><path class="cls-1" d="M502.17,388.42a17.22,17.22,0,0,0,.47-3.59,22.27,22.27,0,0,1-.88,4.43Z"/><path class="cls-1" d="M478.71,420.05c.37-.84.68-1.71,1-2.56-.61,1.5-1.31,2.95-2,4.42Z"/><path class="cls-1" d="M471.41,429.41c.81-1.88-2.47,1.43-1.42-.39-.49.63-.95,1.26-1.38,1.88s-.86,1.19-1.25,1.78c-.79,1.17-1.48,2.3-2.14,3.37A50.1,50.1,0,0,1,471.41,429.41Z"/><path class="cls-1" d="M462.85,439.54a34.18,34.18,0,0,0,2.37-3.49C464.4,437.2,463.58,438.32,462.85,439.54Z"/><path class="cls-1" d="M484.11,415.32a7.87,7.87,0,0,0-2.86,2.51l1.77-1Z"/><path class="cls-1" d="M483.08,416.78l-.06,0c-1.19,1.63-2,2.75-2.37,3.24C481,419.64,481.69,418.66,483.08,416.78Z"/><path class="cls-1" d="M484.39,414.94l-.28.38C484.28,415.22,484.37,415.15,484.39,414.94Z"/><path class="cls-1" d="M495.9,398.54c-.88,2.7-3.57,7.92,0,3.47C496.41,400,494.47,402.57,495.9,398.54Z"/><path class="cls-1" d="M486.58,413.64l2.94-4.1c-.24,0-1,.54-.46-.74Z"/><path class="cls-1" d="M485.4,415.82c.41-.71.81-1.44,1.18-2.18-.36.51-.73,1-1.12,1.5Z"/><path class="cls-1" d="M469.22,433.76a42.25,42.25,0,0,1-4.5,5.66c2.1-2,4.11-4.17,6-6.26C470.78,432.69,471.24,431.45,469.22,433.76Z"/><path class="cls-1" d="M476.24,425.75l-.26.41C476.22,426,476.38,425.8,476.24,425.75Z"/><path class="cls-1" d="M445.53,457.48l.43-.15a1,1,0,0,1,0-.17Z"/><path class="cls-1" d="M471.16,432.91a14.84,14.84,0,0,0,2.76-3.8c-1,1.29-2,2.65-3.2,4.05C470.69,433.38,470.74,433.46,471.16,432.91Z"/><path class="cls-1" d="M458,445a32,32,0,0,0,3-2.3C460,443.36,458.14,444.61,458,445Z"/><path class="cls-1" d="M475.35,426.58l.17-.27C474.93,426.74,475.05,426.72,475.35,426.58Z"/><path class="cls-1" d="M475.35,426.58a25.5,25.5,0,0,0-1.43,2.53c.79-1.06,1.51-2,2.06-2.95A3.44,3.44,0,0,1,475.35,426.58Z"/><path class="cls-1" d="M442.66,466.83c-.09-.44.9-1.68,2.47-3.12a31.64,31.64,0,0,1,5.81-4.47c1.69-1.82,1.44-2.74.31-2.93a12.4,12.4,0,0,0-5.29,1c.09.36.33.62-3.24,4.14,1.63-.73,9.18-6.32,6.41-3.06-4.86,4.58-4.36,3.31-7.17,4.95,2.8-.91-5.83,6.33-3.86,6.57,1.51-1.25,2.92-2.65,4.38-4C442.71,466.07,441.24,467.67,442.66,466.83Z"/><path class="cls-1" d="M453.13,451.17l1.45-1.44a44.37,44.37,0,0,1-6,3.91c-2.3,2.51-2.68,3.15-2.68,3.52,2.63-2.08,5.1-4.34,7.63-6.54Z"/><path class="cls-1" d="M461.14,443.32c-.45,1.78-3.81,5.43-1,4a15,15,0,0,0,3.1-3.73,12,12,0,0,1,1.61-2.63c-6.59,7.15,1.58-2.34-3.63,2.37,1.22-1.47,2.37-2.74,3.46-3.92-1.28,1.18-2.54,2.3-3.75,3.32l.2-.12,0,0s0,0,0,0c.36-.22.51-.27.14,0l-.13.16a1.11,1.11,0,0,1-.07.54c-2.07,1.89-.47.16.07-.54,0-.06,0-.14,0-.18l0,0c-1.05,1.23-2.16,2.4-3.27,3.58l-3.32,3.53C456.12,448.38,458,446.63,461.14,443.32Z"/><path class="cls-1" d="M494.78,407.44c-.22.23-.27.18-.33.17C494.2,408.21,494.14,408.45,494.78,407.44Z"/><path class="cls-1" d="M492.19,410.61a13.22,13.22,0,0,1,1.61-3.29c1.28-1.58.35.23.65.29.54-1.33,2-4.51-.62-1l-.26.65a38.12,38.12,0,0,1-3.88,4.54c-1.19,1.22-2,2-1.89,1.64A14.63,14.63,0,0,0,492.19,410.61Z"/><path class="cls-1" d="M477.46,428.21l-4.9,6.53c1.09-.88,2.15-1.8,3.24-2.71l-.48-.12C478.43,428.44,477.36,428.87,477.46,428.21Z"/><path class="cls-1" d="M444.55,457.74l.24-1.38c-.92,1.31-1.82,2.66-2.77,4C442.89,459.48,443.71,458.6,444.55,457.74Z"/><path class="cls-1" d="M436.42,464.32l-.17-.87c-.62.7-1.29,1.34-1.94,2C435,465.08,435.73,464.72,436.42,464.32Z"/><path class="cls-1" d="M114.51,177.64l1.09-2.23C115.05,176.44,114.72,177.13,114.51,177.64Z"/><path class="cls-1" d="M105.92,193.35l.17.57C106.24,193.07,106.27,192.71,105.92,193.35Z"/><path class="cls-1" d="M194.76,475c-2.52-2.49-5.1-5.5-5.24-4.54l.41,1.29A31.45,31.45,0,0,1,194.76,475Z"/><path class="cls-1" d="M92,335.45c0,.34,0,.7-.08,1.06l1.35,2.16C92.86,337.7,92.36,336.62,92,335.45Z"/><path class="cls-1" d="M88,333.66l-.28-4.75C87.73,330,87.81,331.51,88,333.66Z"/><path class="cls-1" d="M180.3,106.05l1.93-2.33C178.44,106.24,180.36,105.5,180.3,106.05Z"/><path class="cls-1" d="M338.51,505.15c-3,.05-5.35.3-7.43.41,1.81.1,3.45.17,4.75.15A4.22,4.22,0,0,0,338.51,505.15Z"/><path class="cls-1" d="M119.08,188.21c.57-1.34.72-2,.53-2C119,187.56,118.74,188.37,119.08,188.21Z"/><path class="cls-1" d="M322.54,506.31c.52.05,1,.07,1.58.11,2.16-.31,4.32-.67,7-.86a34.83,34.83,0,0,0-4.2,0c-.72.06-1.45.14-2.18.27A18,18,0,0,0,322.54,506.31Z"/><path class="cls-1" d="M310.14,347.88c.19.17.43.34.59.5C310.86,348.32,310.57,348.14,310.14,347.88Z"/><path class="cls-1" d="M400.58,391.35c-1-.08-2.66-.29-4.2-.47A36.8,36.8,0,0,0,400.58,391.35Z"/><path class="cls-1" d="M400.3,485.73c2-1,.28-.24,0,0Z"/><path class="cls-1" d="M411.54,483.87c-.37.32-.63.61-.59.8A1.66,1.66,0,0,1,411.54,483.87Z"/><path class="cls-1" d="M300.28,512h-.2C300.75,512.22,300.64,512.18,300.28,512Z"/><path class="cls-1" d="M403.47,484.63l-2.66,1A23.61,23.61,0,0,0,403.47,484.63Z"/><path class="cls-1" d="M402.89,484.47l1.76-.81C404.83,483.4,404.57,483.43,402.89,484.47Z"/><path class="cls-1" d="M397.53,487.08c1.14-.55,2.22-1,3.28-1.44-.42.13-.6.16-.51.09Z"/><path class="cls-1" d="M215,198.15c0,.15,0,.32,0,.48C215.6,200.83,215.42,199.85,215,198.15Z"/><path class="cls-1" d="M143.7,444.46c.08.08.13.1.21.17l-.21-.27Z"/><path class="cls-1" d="M137.69,438.69a21.48,21.48,0,0,1,6,5.67c0-1.24,0-2.44,0-3.68Z"/><path class="cls-1" d="M139.59,142.92l-2.25,1.92-2.18,2a69.17,69.17,0,0,1,4.55-6.79c.85-1.23.67-1.27-1.59.43.37.61-.4,2-1.71,3.76s-3.07,4-4.87,6.26-3.46,4.56-4.64,6.41-1.74,3.35-1.31,3.9l-2.72,2.81c.67-.88.64-1.12,1.3-2-2.75,2.66-3.08,4.15-3.5,5.86s-1,3.67-3.59,7.7c-1.93,2.75-3.49,4.56-2.57,2.44-1.11,2.25-2.09,4.57-3.13,6.84-1.11,1.87-1.27,1.19-.16-.68-.45.84-.91,1.67-1.34,2.52l-1.26,2.57c-.83,1.71-1.7,3.41-2.5,5.14l0-.11c-.31,1.67-1.28,5.28-1.78,7-1.55,2.47.33-1.44-.27-.9-.71,2-1.26,4-1.9,6-.82,1-.89.3-.52-1.2a29.35,29.35,0,0,1,2.15-5.75,8.78,8.78,0,0,0-3.39,5.56,36.79,36.79,0,0,1-1.26,4,49.68,49.68,0,0,1-3,6.75l1.81-5.73a21.61,21.61,0,0,0-3.46,5.75c-1,2.33-2,5-3.54,8.13,1-1.44,6.66-12.14,5.08-5.38a26.88,26.88,0,0,0-1.25,3.2,26.33,26.33,0,0,0-1.08,4.65c-.91-.24-1.79,3.29-2.91,7.68l-1.16-.63c-.86,4.87-.14,4.65-.28,7.58C88,246,86.83,247,85.74,248.05c-1.76,8.62,2.6-5.66,1,4.6-.43,1.77-.8,3.42-1.06,5s-.4,3.2-.54,4.84c-.33,3.26-.29,6.74-.33,11.08-.83,5-.73-.95-1.24.84l.76,4.57c-.09,1.1-.38.73-.53.54.09,1.9.4,2,.69,2.36s.53,1,.67,4c.71.82,0,3.83-.39,7.6-.2,1.89-.39,4-.41,6a19.34,19.34,0,0,0,.64,5.91c-.22,1.83-.84-.83-1.3-.25.91,5,1.27,7.16,1.65,9.08s1,3.57,2.16,7.58l0,3.55c0,1.18.12,2.36.17,3.54,0-5.25,2.33,1.1,4.25,6.54.14-1.88.27-3.48.27-4.53l1.14,4.41c.36,1.47.88,2.9,1.31,4.35,0,1.12-.59.33-1.45-1,.24.58.48,1.13.68,1.55.27,3.28-.83,1.81-2.06-.33,0-1.14,0-2.27,0-3.38-1.15-2.06-2.38-4-3-3.4a19.36,19.36,0,0,1,.87,2.92c-.31-.55-.56-.89-.64-.59a7.73,7.73,0,0,0,1,2.64l-.92,2.35.67.38.93,6c.14,1,.34,2,.56,3l.61,3c.94,2,1.89,3.91,2.88,5.84s2.17,3.84,3.29,5.92c.56,1,1.12,2.12,1.69,3.25l1.89,3.49c.65,1.23,1.3,2.52,2,3.89s1.32,2.83,2.11,4.33c-2.35-2.66-1.87,0-3.08.33a21.84,21.84,0,0,0-2.61-7.16c-.68-1.39-1.48-2.84-2.16-4.42a49.72,49.72,0,0,1-1.8-4.94c1.07,3.57.25,3-.25,2.16,1.65,3.94,3.72,7.7,5.61,11.5-.53.06-.45.76-.14,1.86s1,2.54,1.44,4.15c.4-1.56,1.68.47,3.2,3.43.37.75.77,1.54,1.17,2.36l1.32,2.4c.87,1.59,1.72,3.08,2.44,4.16-.45.6-1.62-.19-4.36-5.9a14.9,14.9,0,0,0,4,6.9c1.52,1.72,3.22,3.29,4.35,6.56-.78-1.32-1.1-2.09-1.7-2.45a40.37,40.37,0,0,1,3.81,6.2c1.1,2.11,1.85,3.64,1,2.93l-.84-1.29c1.33,2.19,3,4.92,4.91,7.8s4.12,5.72,6.14,8.39c1,1.35,2.09,2.52,3.06,3.64s1.91,2.1,2.73,2.93c1.63,1.68,2.87,2.71,3.47,2.7a6.09,6.09,0,0,1-3.09,0c5.41,3.46,10.75,6.78,16.31,9.69-2.17-.15-.41,6.74-6.87,1.16.77.95,1.63,2,2.79,3.27a34.32,34.32,0,0,0,4.67,4.28c-1.08-1.29-1.48-4.37.23-2.88a44.39,44.39,0,0,0,3.08,4.62l1.45,1.84c.62.79,1.41,1.88,2.66,3.38-1.68-1.86,2-1.75,4.84.85-.68-.14-1.22,1.93-2.47,1.17l4.43,2.35c1.48.77,3,1.45,4.52,2.17-2.16-1.19-1.53,1.22-.19,3.08-.26-.49,1.4.83,3.41,2.46s4.51,3.35,5.63,4l-3.09-2.84a34.26,34.26,0,0,0,5.54,3.52,23,23,0,0,0,2.2.94c.72.23,1.4.43,2.08.62a37.83,37.83,0,0,1,4.31,1.42,52.72,52.72,0,0,1,5.72,3c-1.37-.25-4.31.82.39,3.85l3.28.31,5.13.6c1.95.24,4.08.59,6.27,1.08,1.1.24,2.19.57,3.32.85s2.27.61,3.39,1l1.38,1.34c2.31.77,4.6,1.58,7,2.19a89.06,89.06,0,0,1-11.7-1.29c-2.43-.32-4.83-.93-7.13-1.44s-4.45-1.07-6.18-1.6c3.43,2.38.65,1.22,6.23,4,1.69,1.56-3.46-.72-5.12-1.53l6.4,3.5,1.61.88,1.64.8,3.29,1.59c0-.74,2.66.1,5.32,1s5.41,1.51,5.36.89c-5.08-1.38-10-3.26-15-5,0-.74,2.5-.66,6.1.14,1.81.38,3.86,1,6.1,1.68a62.29,62.29,0,0,1,6.95,2.45c2.22,1.45-2.65,1.53-2.62,2a11.71,11.71,0,0,1,2.07.46c.95.28,2.1.64,3.26.94a29,29,0,0,1,4.9,1.68l-4.35-.71a31.55,31.55,0,0,0,7.43,1.94,26.71,26.71,0,0,1,8.17,2.42c1.13.34,2.71,1.31,4.12,1.95s2.62,1.15,2.91.81c-3.44-2.37-2.92-7.12-.21-7.68l6.31,2.35,2.32.88,2.21.76c1.38.49,2.53.92,3.15,1.23,3.59,1.86-6.21,1.8-3.17,3.39.21-.33,2.4-.4,3.31-.39,2.38.75-1.21.94,4.13,1.73,1.09-1.22,10.84,1.5,2.69-.81a33.41,33.41,0,0,1,5.49.68,35.21,35.21,0,0,0,6.16.87c-.94-.51.51-1.15,2.82-1.66a38.55,38.55,0,0,1,3.94-.65c.71-.08,1.42-.13,2.12-.2s1.38-.14,2-.17c-.32.34.83.82,1.39,1,2.66.1,5,.22,7.21.35l6.23.15,3,.06,3.09-.08c2.1-.08,4.33-.09,6.81-.34.94.24,5.79.17,3.8,1a36.3,36.3,0,0,1,5.73-1.39c3,.18,1.34.46-.54.79s-3.93.63-1.58,1.11c.15-.42,2.11-1,4.55-1.53l3.88-.88c1.3-.33,2.56-.67,3.62-1-1.52-.91-10,1.38-14.37,2.29-.1-.84,1.71-1.84,4.77-3,1.52-.59,3.37-1.17,5.46-1.79s4.39-1.33,6.88-2c7.9-2.05,3.69.35,5-.17,1.88-.38,3.5-.7,4.88-1.12s2.53-.81,3.54-1.19a33.52,33.52,0,0,0,4.75-2.19c2.64-1.47,5-2.55,11.18-4.06,5.13-.59.92,1.95,2.23,2.32a40.64,40.64,0,0,1-7.87,2.4,61.6,61.6,0,0,0-6.45,1.44l5.5-1.1a37.58,37.58,0,0,1-4.12,1.65,23.06,23.06,0,0,1-4.51,1.1,29.48,29.48,0,0,0,6-1.17l4.55-1.26c1.64-.46,3.35-1.08,5.14-1.66,3.59-1.12,7.3-2.61,10.89-3.88l5.14-2c1.65-.62,3.21-1.18,4.6-1.74,1.79-1.23,4.94-3.12,3.19-2.78l-3.36,1.74c-3.49.68,5.91-4.09,1.42-2.44l3.32-2.11c1.12-.76,2.28-1.54,3.52-2.32s2.56-1.52,3.93-2.35,2.85-1.6,4.44-2.35l1.78.41c-.32-.24-4.4,1.63-5.95,2.93,1.15-1,3.72-1.92,6.26-3s5-2.52,5.92-4l-4.67,1.86c4-3.13,8.5-7.52,13.74-10.83a4.46,4.46,0,0,0-2.21.89,8.63,8.63,0,0,1-3.3,1.38c2.08-.33-1.22,1.86-4.3,3.86s-6,3.68-2.92,2.87a17.21,17.21,0,0,0-3.18,1c-1,.39-1.91.8-2.87,1.27s-2,.94-3.07,1.42c-.56.23-1.15.47-1.78.69s-1.32.4-2.06.58c.35.28,2.22-.27-2.49,1.93a7.53,7.53,0,0,1-.85.84l-.33.13.28-.09c-.17.16-.18.18.1,0a10.18,10.18,0,0,1,2.64-.67c-1.84,2.08-9.38,5.62-11.78,7.16-2.94,1,1-.94-.72-.67l-3.59,2.3c-.72-.6-8.19,1.63-1.62-1.5-2,.83-4.07,1.54-6.11,2.31-1.87.48-4.09,1-6.2,1.67s-4.1,1.4-5.62,2c-3,.69-7.18,3.17-4.8,1.73-1.6.59-3.25,1-4.88,1.57s-3.25,1.07-4.91,1.5l-.14-.2c-2.48.5-5,1.15-7.5,1.75s-5.14,1.17-7.79,1.7-5.38.88-8.16,1.15a69.39,69.39,0,0,1-8.55.11,69.25,69.25,0,0,1-12.6.79l-1.12-.75a56.92,56.92,0,0,1-8.41-.29,28.68,28.68,0,0,0-6.55,0,17.6,17.6,0,0,0-5.32-1.36c-1.15-.16-2.4-.3-3.72-.41l-4.08-.48-4.24-.43c-1.41-.14-2.81-.24-4.13-.47-2.65-.41-5.08-.81-6.94-1.24l-.48.95-1.94-.35-1.93-.42c-1.29-.28-2.6-.54-4-.79l-4.21-.75c-1.45-.29-3-.65-4.57-1l.15,1a43.26,43.26,0,0,1-10.11-3.1l-5.91-2.38c-2-.87-4.06-1.78-6.17-2.57.7-.1,2.78.82,4.21,1.61a42.13,42.13,0,0,0-7.39-3.61c-2.55-1.08-5.16-2.08-7.78-3a74.06,74.06,0,0,1-7.55-3.11,31.08,31.08,0,0,1-6.6-3.91,20.72,20.72,0,0,1-5.09-2.94,4.31,4.31,0,0,0,.54.26c-.21-.13-.52-.32-.85-.5-.86-.65-1.7-1.4-2.62-2.17a16.29,16.29,0,0,0,2.15,1.9c-1.63-.92-4-2.41-6.51-3.7l-.47-1.45-.56-.32c-2.09-1.76-2.1-.8-1.27.58-1.29-.6-2.42-1.23-3.37-1.61-.47-1.28-2-2.23-3.67-3.25a22.4,22.4,0,0,1-2.39-1.64,6.1,6.1,0,0,1-1.64-2.11c-1-.26-3.82-2.3-6.71-4.23s-5.61-4-6.74-3.87c.07-.23-.48-.85.67.13-2.28-2.15-4.37-4.47-6.73-6.06l-.11-1.8-3-1.76-3-1.89c-2.33-3.53-3.18-5.05.33-2.73-2-1.54-3.34-2.65-4.36-3.54s-1.66-1.61-2.31-2.25c-1.29-1.31-2.5-2.42-5.77-5.21l.87-.18c-1.88-2.34-5.71-5.5-6.32-7.33a58.37,58.37,0,0,0-4.3-7.19c-.5-.78-1.07-1.57-1.62-2.44l-1.68-2.69-3.71-5.87c-4.89-8.32-10-18.08-12.72-26.3-.36,2-1,.07-1.67-2.37s-1.36-5.4-2.33-5.4c.15-1.14-.44-3.47,1-1.05-.47-1-.88-1.94-1.25-2.84s-.62-1.78-.89-2.61c-.53-1.66-1-3.17-1.39-4.58s-.9-2.73-1.34-4.06a23.72,23.72,0,0,0-1.83-4c.26-1.12,1.29,1.58,1.36.63a10.15,10.15,0,0,1-1.15-3.51c.07-.94.8,1.11,1.41,2.37a40.68,40.68,0,0,0-1.79-5A11.74,11.74,0,0,0,98.55,343a3.67,3.67,0,0,0-2.68-1.58,27.74,27.74,0,0,0-.79-5.53,16.66,16.66,0,0,0-1.67-4.38c.23-1.67.31-4.37,1.48,1.12-.12-.78-.35-2.37-.64-4.3-.15-1-.31-2-.48-3.12s-.25-2.22-.38-3.33c-.53-4.43-1.23-8.48-1.8-8.59a19.43,19.43,0,0,0-.46-5.23c-.11-1.77-.19-3.14-.26-4.3s0-2.13-.05-3.08c0-1.92-.08-3.81-.23-7.29l-.15,1.93c-1.68-2.74-.37-5.81-.45-11.44l.15.17c1.85-12.8-.35-5.64,2.17-18.16l-1,.57c-1-.71-.26-3.49.68-7,.46-1.76,1.13-3.67,1.62-5.62a46.55,46.55,0,0,0,1.12-5.75c-.36.83-.75,1.66-1.09,2.5.05-2.05,1.36-4.68,2.74-7.24s3.08-5,3.68-6.93c.39-.8-.06,1.41-.23,2.62,1.85-4.92,1.73-5.29,1.23-5.44s-1.24,0-.27-3.82c1.06-1.19,1.11,2.27,2.75-2.71a15.33,15.33,0,0,0,1.06-3.43c.39-1.62.74-3.66,1.34-5.78s1.19-4.39,2-6.49a30.64,30.64,0,0,1,2.71-5.56c-1.09,1.25-2.19,2.51-1.13-1a34.4,34.4,0,0,1,2.2-4.28c.9-1.52,1.81-3.16,2.83-4.72s1.92-3.16,2.67-4.67a18.5,18.5,0,0,0,1.62-4.23c.47-.55.72-.72.85-.68,1.62-4,6.55-12.26,7.29-14.89,1.24-.37,2.66-2,4.29-4.13.81-1.07,1.63-2.28,2.45-3.56s1.74-2.56,2.58-3.85,1.68-2.55,2.49-3.69,1.62-2.14,2.32-3c1.41-1.66,2.51-2.57,3.07-2.05,2.87-3.31,5.74-6.63,8.79-9.77l0,.46,3.77-3.81c1.05-1.08,1.89-2,2.58-2.86,1.37-1.7,2.25-2.93,3.11-4.2,1.59-1.15.72,0,.71.24,9.65-7.65,10.52-8.4,18-15.77l1.45.18a18.6,18.6,0,0,1,3.38-2.41l6.32-3.65c2.48-1.31,5.16-2.85,7.89-4.38s5.45-3.2,8-4.78c-.05.15-.18.43-1,1,.77-.48,1.58-1,2.41-1.42l2.12-1.15a22.19,22.19,0,0,1,2.68-1.12,16.43,16.43,0,0,1,2.31-.66l.94-.19.42-.09.2,0-.16.32c-1.45,2.92-1.68,3.89-.36,5.15l-.18,1.3,0,.35-.11.54-.24,1.13c-.32,1.51-.56,3-.85,4.54,3.58-11.32,1,2.13,2.93-2.39-1.11,4.48-4.14,11.31-2.91,5.73l.4-.82c-.63-1.26-1.78,2.26-2.76,6.05s-1.8,7.86-2.42,7.58a270.11,270.11,0,0,0-4.53,34.45c-.19,2.86-.29,5.7-.38,8.54s0,5.66,0,8.47c0,1.41,0,2.81.07,4.21s.17,2.8.25,4.19l.27,4.16c.09,1.39.19,2.77.38,4.14.39-.9.74-1.78,1.18-2.67.21,2.54.56,5.07.84,7.61-.09,2-.79,2.84-1.43-2.62a15.09,15.09,0,0,0,.8,5.66,10.91,10.91,0,0,0,1.49,3.46c1.3,10.66-2.42-3.85-1.88-.61l.9,4.4v-1c.62,1.74,1.09,2.66,1.55,4,.23.65.45,1.39.7,2.37s.59,2.2.94,3.8c.66,4.13-.39,2.29-.08,3.91-.1,0,0,.57.53,2.47.77,3.14,1.67,6.26,2.5,9.39l.05-4.05c.86,2,1.46,4.16,1.86,5.28.19.55.38.83.46.68a6.75,6.75,0,0,0,.14-1.87c0,3.39,2.59,12.06,5.92,20.1.76,2,1.71,4,2.55,5.84l2.36,5.17c1.48,3.09,2.69,5.39,3,6.37.88,1.24,1.7,2.49,2.49,3.78s1.67,2.55,2.49,3.89c1.65,2.67,3.21,5.59,5.2,8.66-.78-1.66-.26-3.25,3,2.11-.87-.11-1,.47-.63,1.51a20,20,0,0,0,2.18,4.12c1,1.62,2.21,3.41,3.23,5.13.51.86,1,1.7,1.36,2.49a12,12,0,0,1,1,2.15c-.9-2.19,1.95,1.31,4.64,4.5a30.84,30.84,0,0,0,3.55,3.72c.82.66,1.08.52.25-1.12,3.28,4.12-.55.89,1.6,4.33,1.14,1.1,2.21,2.3,3.4,3.45s2.35,2.37,3.53,3.61L272.7,328l3.8,3.85c1.29,1.3,2.55,2.66,3.91,3.95l4.17,3.85,2.13,1.92,1.08,1,1.13.91c1.52,1.2,3.05,2.39,4.61,3.56.4-.13-1.31-2.16,1.63-.51,1.75,2.19,3.69,4.18,5.58,6.27a10,10,0,0,0,3.2,1.14,6.27,6.27,0,0,1,1.73.86,15.55,15.55,0,0,1,2.52,2.1c-.51-.67-1.26-1.68.53-.67,12.27,9,26.39,16,41,21.43s29.69,9.63,44.78,13.69c-4-1.41-1.26-1,1.9-.45-2-.52.18-.85-.16-1.39,2.1.52,4.21,1,6.32,1.48l3.17.74c1.06.25,2.12.5,3.19.67,1.24-.57,4.7-.33,8-.09a37.26,37.26,0,0,0,4.62.12,5.42,5.42,0,0,0,2.63-.49l-4.1.12c2.75-.69.87-1.53-1.53-2.52s-5.33-2.23-4.87-3.16a15.24,15.24,0,0,1-5.13,0c-1.88-.31-3.91-.89-6.05-1.43-1.08-.27-2.18-.54-3.3-.78l-1.7-.34c-.58-.12-1.15-.25-1.73-.36a28.54,28.54,0,0,0-7.26-.51c-2-.76,1.92-.29.87-.92-2.59.44-5.53-.14-10.83-1.73l.66-.06-2.74-.6c-.88-.22-1.72-.47-2.54-.7l-4.63-1.37c-1.47-.47-2.89-.84-4.25-1.38l-4-1.54-4.1-1.59c-1.41-.54-2.82-1.24-4.33-1.9-3-1.35-6.4-2.77-10.26-4.75l.79,1.4a40.28,40.28,0,0,1-5.43-3.18c-4.52-.47,9.52,4.39,5.31,4.23a23.36,23.36,0,0,0-5.36-3.37l-8.14-4.27-2.11-1.1c-.69-.38-1.34-.79-2-1.17-1.29-.78-2.5-1.53-3.57-2.24-2.13-1.41-3.69-2.62-4.08-3.57-4.82-3.1.83,1.84-4-1.26l-1-1.32-1.64-.15a19.25,19.25,0,0,1-2-1.51,14.58,14.58,0,0,1-1.26-1.32c-.63-.78-.87-1.32-.78-1.57.71.58,2.19,1.38,3,1.91A54.12,54.12,0,0,0,303,342.6c-1.28-.8-2.41-1.65-3.34-2.31a18.92,18.92,0,0,1-1.9-1.49c1.37,1.21,2.71,2.47,4.11,3.66-1.6-1.11-3.19-2.34-4.83-3.57L294.59,337c-.83-.63-1.65-1.28-2.44-2-3.18-2.77-6.55-5.5-9.61-8.53l-4.68-4.41-4.44-4.5c-3-2.88-5.69-5.89-8.42-8.54l.41,1.16c-1-1-1.9-1.91-2.62-2.7s-1.27-1.52-1.77-2.16c-1-1.27-1.68-2.26-2.37-3.28l-2.39-3.52c-1-1.46-2.26-3.29-4.19-5.83l.36.32a39.49,39.49,0,0,1-5.72-7.53c2.17,2.42-2.4-5.62.36-2.39l-1.27-1.71-1-1.44c-.59-.86-1.06-1.53-1.43-2.06a16,16,0,0,0-1.56-1.94c-.37-.37-.69-.62-1.28-1.17a25.84,25.84,0,0,1-2.74-3.08l-.22-2.06c-1-1.1-1.53-1.67-2.26-2.67a31,31,0,0,1-3-5.27c2.74,4.5-.65-4.19,2.52.78a64.42,64.42,0,0,0-3.19-8.2c-1-2.35-2-4.38-2.89-6.2a34.88,34.88,0,0,1-2.19-5,14.28,14.28,0,0,1-.68-4.79c-2-2.56-1.3.25-.34,3.34s2.42,6.34,1.55,4.83c.22,1.46-.6.42-1.65-1.5a44.25,44.25,0,0,1-2.68-6.82,14,14,0,0,1-.59-3.09c-.11-1.07-.06-2.25-.12-3.6a42.79,42.79,0,0,0-.43-4.73c-.14-.92-.32-1.92-.56-3s-.43-2.29-.73-3.59c.23,1,.39,1.07.62,2.11a30.07,30.07,0,0,0-1.4-5.86c-.3-1-.6-2-.84-3.11a21.27,21.27,0,0,1-.31-3.49c-1.71-2.49-1-6.28-2.75-6.81l2.09,9.63c-.69-2.71-1.73-5.27-2.68-8.33a31.94,31.94,0,0,1-1.14-5.05,48.34,48.34,0,0,1-.56-6.24,34.72,34.72,0,0,1,1.64,5.2,17,17,0,0,0-.42-3.93,13.25,13.25,0,0,1-.34-4c.43.16.66,1,.95,2.21s.52,2.86.77,4.66.49,3.75.83,5.62a34.09,34.09,0,0,0,1.43,5c.1-1.47-.75-4.17-1.17-6.21s-.61-3.37.43-2c-1.35-2-1.62-4.6-1.86-7.59a36.61,36.61,0,0,0-1.27-9.91l1,.42a26.49,26.49,0,0,1-.8-5.59l1.33,3.76c-1.18-5.81.54-11.25.15-16.81-.1,5.84-.34,6.5-.72,6.31s-.87-1.22-1.16,1.27c-.71-7.27.12-9.37.9-11.62S216.73,155,217.3,147c-.14,2.17-1.29,8.11-1.45,4.67a47.44,47.44,0,0,1,2-8.86c1.22-10.61-1.19,1.5-1.16-3.09a8.6,8.6,0,0,0,.83-4.52,28.54,28.54,0,0,1-.05-5.49l1,.15c1.47-5.95,1.19-6.83.86-7.59s-.72-1.37,1-6.65q0,2.43.18,4.86c.31-1.9.68-3.78,1-5.67l.77,1.43a43.37,43.37,0,0,1,1.35-7.09c.26-1,.61-1.93,1-3l.44-1.29c.17-.47.34-1,.52-1.47.36-1,.81-2.13,1.28-3.36-.79,1.2-1.13.86-1-.57a30.94,30.94,0,0,1,2.07-7.61c1.39-2.87,1.49-2.48,1.69-2.6s.56-1,2.61-6.45a8.21,8.21,0,0,1-.34,3.09A35,35,0,0,1,229,92.67c.23.26-.22,2.26,0,2.68,1.18-2.58,2.54-5.78,3.71-8.84s2.23-5.94,3.11-8.39c-.32.09-.57.13-.9.25l-1.13.5-1.92.84,2.15-.84.5-.19.23-.08a.4.4,0,0,1,.15,0,2.12,2.12,0,0,1,.46,0c-.13.3-.22.49-.3.66l.14-.49-.81.25-1.14.56-2.26,1.13-4.36,2.2c-2.85,1.43-5.56,2.8-8.09,4.19-2.24.62-.29-.57,1.92-1.87-3.39,1.63-5.73,3.15-10.3,5.31a8.71,8.71,0,0,1,1.62-2,34.14,34.14,0,0,1,6.57-3.82L209.81,89c-.69.36-1.38.73-2,1.11l-.94.54-.59.37-2.37,1.46a23,23,0,0,0-2.91.8c-1.11.36-2,.59-1.43.11-5.69,2.55-12.31,8.89-19.36,13a13.28,13.28,0,0,1-2.21,2.08c-1.58,1.08-3.16,2.07-4.71,3.09s-3,2.11-4.59,3.21a51.93,51.93,0,0,0-4.59,3.67,48.58,48.58,0,0,0-4.59,4.52l-4.79,2.39c-5,5.08,6.27-3.45-2,5-2.85,3.06-3.62,3.38-4,3.18s-.31-1-1.47-.07c-1.19,1.77-2.83,4.14-4.81,6.78a56.71,56.71,0,0,1-7.29,8,32.25,32.25,0,0,1,2.15-2.79C138.07,144.62,138.84,143.84,139.59,142.92ZM96.06,218.1c.3-1.69,1-5,1.93-6a4.8,4.8,0,0,1-.37,2.84C97.24,215.83,96.65,216.78,96.06,218.1ZM93,348.21A13.36,13.36,0,0,1,92,343,37,37,0,0,1,93,348.21ZM378.12,495.68a1,1,0,0,0-.15.1C374.42,496.58,375.68,496.31,378.12,495.68Zm7.21-2.19c.66-.4.56-.5.21-.51a14.45,14.45,0,0,1-3.8,1.65C382.33,494.67,383.3,494.49,385.33,493.49ZM213.07,223.24,213,221.7C214,225,213.56,224.1,213.07,223.24Z"/><path class="cls-1" d="M88.48,333.91a1.15,1.15,0,0,1,.39-.8C88.6,332.49,88.41,332.51,88.48,333.91Z"/><path class="cls-1" d="M180,106.49l.22-.14a.53.53,0,0,0,.12-.3C180.18,106.19,180.07,106.34,180,106.49Z"/><path class="cls-1" d="M269.17,512.64a14.56,14.56,0,0,1-3-1C266.07,511.82,266.75,512.14,269.17,512.64Z"/><path class="cls-1" d="M420.17,474.37l-4,2.71a21.33,21.33,0,0,1,3.85-2C419.85,475,418.9,475.16,420.17,474.37Z"/><path class="cls-1" d="M457.28,453.63c.46-.56,1.1-1.06,1.53-1.63l-.45-.19C456.18,454,454.78,455.59,457.28,453.63Z"/><path class="cls-1" d="M425.67,474.7c.75.46,3.17-1.44,5.91-3.48a4.1,4.1,0,0,1-.5.35C431.27,470.08,428.48,472.39,425.67,474.7Z"/><path class="cls-1" d="M432.21,470.74c.83-.64,1.69-1.29,2.55-1.85C434.81,468.28,433.66,469.55,432.21,470.74Z"/><path class="cls-1" d="M394,489.37c1.56-.43.51-1.32,1.47-1.4C396.66,486.36,386.12,493.27,394,489.37Z"/><polygon class="cls-1" points="429.45 475.4 427.87 475.25 426.7 476.99 429.45 475.4"/><path class="cls-1" d="M405.59,488.39l5-2.26c-.15-.12.43-.51,1.14-1C408.73,486.68,405.34,488.18,405.59,488.39Z"/><path class="cls-1" d="M411.74,485.14a28.08,28.08,0,0,0,3.77-2.31C414.69,483.31,412.92,484.34,411.74,485.14Z"/><path class="cls-1" d="M423.27,479.72l-1.5.67c-1.13.65-2.23,1.33-3.37,1.95C420,481.5,421.64,480.59,423.27,479.72Z"/><path class="cls-1" d="M349.85,507.15,344,508.46c-.54.45,1.1.37,3.28-.15C348.66,507.83,350.82,507.31,349.85,507.15Z"/><path class="cls-1" d="M368.2,505.58a6.86,6.86,0,0,1-2.77,0l.14,1.24C366.46,506.42,367.33,506,368.2,505.58Z"/><path class="cls-1" d="M351.07,510c-.51.48-8.52,2.51-.92,1.11C350.7,510.68,356.59,509.09,351.07,510Z"/><polygon class="cls-1" points="260.61 507.5 262.1 507.83 262.31 505.79 260.61 507.5"/><path class="cls-1" d="M184.57,480.75c5.89,4.34,2.11-.09,7.36,3.91.87.21-.25-.52-1.3-1.36s-2.13-1.63-1.28-1.34C185.4,480,183.6,478.54,184.57,480.75Z"/><path class="cls-1" d="M189.35,482c.63.31,1.31.63,2,.94A19.86,19.86,0,0,0,189.35,482Z"/><path class="cls-1" d="M417.5,394.08c1.55.3,3.11.41,4.67.61l-3-.76C418.62,394,418.06,394,417.5,394.08Z"/><path class="cls-1" d="M426.51,392.87l1.08,1.32,2.81-1.1A14.32,14.32,0,0,1,426.51,392.87Z"/><path class="cls-1" d="M89.62,229.75l.2.43c.53-.61.87-1.66,1.55-3.76Z"/><polygon class="cls-1" points="116.51 171.93 115.91 172.85 117.97 171.73 116.51 171.93"/><path class="cls-1" d="M149.09,129.32c-1.65,1.47-3.25,3.52-4.82,5.08C147.42,130.76,150.55,130,149.09,129.32Z"/><path class="cls-1" d="M307.87,513.1A221,221,0,0,1,225.79,87L228,86.1l-.87,2.17A219,219,0,0,0,511.73,372.91l2.17-.87-.87,2.17A221,221,0,0,1,307.87,513.1ZM224.38,89.7A219,219,0,1,0,510.3,375.62,221,221,0,0,1,224.38,89.7Z"/><path class="cls-1" d="M368.47,92.36a17.7,17.7,0,0,1,1.78.08,2.5,2.5,0,0,1,1.37.64A3.8,3.8,0,0,1,373,94.25a4,4,0,0,0,.93,1.09,2.83,2.83,0,0,0,1.69,2,6.26,6.26,0,0,1,2.1,1.17,13.26,13.26,0,0,1,1.89,2c.62.78,1.25,1.6,1.9,2.46s1.26,1.69,1.85,2.5a13.5,13.5,0,0,0,1.77,2,16.25,16.25,0,0,1,2.06,2.86,6.38,6.38,0,0,0,2.7,2.46c.32.27.94.88,1.85,1.85s1.93,2,3,3.11,2.16,2.08,3.18,2.94a4.41,4.41,0,0,0,2.42,1.29,1,1,0,0,0,.77-.24,1,1,0,0,0,.2-.61,2.27,2.27,0,0,0-.12-.72,2.09,2.09,0,0,1-.12-.61v-6a4.11,4.11,0,0,1,.44-1.69,5.49,5.49,0,0,0,.44-2.34v-6.77a8.67,8.67,0,0,1-.88-.81c-.38-.37-.76-.76-1.13-1.16s-.74-.77-1.09-1.09-.6-.49-.77-.49h-1.53a2.86,2.86,0,0,1-1.13-.28,6.83,6.83,0,0,1-1.21-.68,7.91,7.91,0,0,1-.92-.77c-.25-.24-.37-.42-.37-.52v-2.5a2,2,0,0,1,.37-1.29,2,2,0,0,1,.92-.69,4.72,4.72,0,0,1,1.21-.24c.43,0,.81,0,1.13,0h1.53a12.28,12.28,0,0,1,1.5.12l1.93.24,1.94.24a12.81,12.81,0,0,0,1.65.12h11.21a6.57,6.57,0,0,1,3,.73,2.51,2.51,0,0,1,1.41,2.42,6.67,6.67,0,0,1-.08,1.09,3.71,3.71,0,0,1-.56,1.17,6.09,6.09,0,0,1-3.59,1c-1.16-.08-2.27-.12-3.35-.12l-2.26.65h-1.37c-.43,0-.79.31-1.09.93a4.54,4.54,0,0,0-.44,2v12.34a5.32,5.32,0,0,0,.32,1.45,5,5,0,0,1,.33,1.45v4.51l-1.38,7.82a5.3,5.3,0,0,0,.21,1.29c.13.54.29,1.09.48,1.66s.35,1.1.48,1.61a5,5,0,0,1,.21,1.25c0,.21,0,.59-.05,1.13a14.87,14.87,0,0,1-.16,1.61,5,5,0,0,1-.4,1.41c-.19.4-.44.61-.77.61h-1.08c-.51,0-1,0-1.58-.08a9.72,9.72,0,0,1-1.41-.25c-.4-.1-.6-.24-.6-.4a9.83,9.83,0,0,1-1.9-2.74,7.58,7.58,0,0,0-1.89-2.58,18.11,18.11,0,0,0-1.69-2l-1.58-1.53a19.11,19.11,0,0,1-1.45-1.53A8.06,8.06,0,0,1,392.9,128a12.74,12.74,0,0,0-2.74-3.88c-1.23-1.23-2.54-2.47-3.91-3.7s-2.71-2.49-4-3.75a19,19,0,0,1-3.18-3.91,2,2,0,0,0-.25-.77,4.62,4.62,0,0,0-.64-1,6,6,0,0,0-.93-.88,1.76,1.76,0,0,0-1.09-.41c-1,0-1.53.81-1.53,2.42v9.19l.65,4.52a13.59,13.59,0,0,1-.12,2.22,9.8,9.8,0,0,0-.13,1.81,2.81,2.81,0,0,0,.93,2.3,6.48,6.48,0,0,0,2.3,1.17,18.19,18.19,0,0,0,2.94.6c1.05.14,2,.31,2.95.52a6.42,6.42,0,0,1,2.29,1,2.32,2.32,0,0,1,.93,2c0,.43-.13.68-.4.76a3.43,3.43,0,0,1-1,.12h-9.19l-5.16.73a2.67,2.67,0,0,0-1.61-.64c-.65-.06-1.16-.09-1.54-.09h-1.53a5.35,5.35,0,0,1-2.5-.44,4.18,4.18,0,0,0-2-.44h-2.9l-.65.88h-1.61c0-.21,0-.57,0-1.08s0-1,0-1.5a18.28,18.28,0,0,1-.08-1.85,1.37,1.37,0,0,1,.72-1.13,2.46,2.46,0,0,1,1.29-.48h1.74a2.17,2.17,0,0,0,.56,0l.16,0,.49,0c.29,0,.8,0,1.53,0h3.34a1.37,1.37,0,0,0,1-.37,3,3,0,0,0,.65-.84,3.71,3.71,0,0,0,.32-1,6.22,6.22,0,0,0,.08-.77,2.78,2.78,0,0,1-.24-.64,2.51,2.51,0,0,1-.25-1.13,13.33,13.33,0,0,0-.12-2A7,7,0,0,0,368,124c-.13-.37-.24-.71-.32-1a4.26,4.26,0,0,1-.12-1.09,9.52,9.52,0,0,1,.12-1.37,14.42,14.42,0,0,1,.28-1.45l.48-1.62v-5.4a6.31,6.31,0,0,0-.12-1.13,2.52,2.52,0,0,0-.76-1.29c0-.64.13-1,.4-1.21a.92.92,0,0,1,.48-.16,5.88,5.88,0,0,0-.32-.88c-.16-.38-.33-.76-.52-1.13s-.35-.73-.49-1a2.23,2.23,0,0,1-.2-.73,2.93,2.93,0,0,0-1.29-2.58,26.33,26.33,0,0,0-2.86-1.69,16.92,16.92,0,0,1-2.86-1.85,3.72,3.72,0,0,1-1.29-3.07c.21-.53.43-1,.64-1.45s.45-.72.69-1a1.11,1.11,0,0,1,.93-.48Z"/><path class="cls-1" d="M446.92,120.66a3.65,3.65,0,0,0,1.78-.49,2.73,2.73,0,0,1,2.25,0,7.6,7.6,0,0,1,1.62-.88,5.62,5.62,0,0,1,2.66-.24,1.76,1.76,0,0,0-.16.48,4.77,4.77,0,0,0-.09,1.13,3.06,3.06,0,0,1-.24.88,9.48,9.48,0,0,1-.68,1.42,12,12,0,0,1-1.13,1.57,6.14,6.14,0,0,1-1.49,1.29h-4c-.22,0-.57,0-1.05,0l-1.57.12a10.13,10.13,0,0,0-1.62.28,4.54,4.54,0,0,0-1.17.45,4.38,4.38,0,0,1-2.25.44,8.77,8.77,0,0,0-2.91.44,9.26,9.26,0,0,0-2.34.41,5,5,0,0,1-2.17.24,4.26,4.26,0,0,1-2.3.52c-.89,0-1.89,0-3,0l-1.13-.24a6.41,6.41,0,0,1,.08-.77,9.61,9.61,0,0,1,.24-1.13,7.39,7.39,0,0,1,.4-1.12,2,2,0,0,1,.57-.77q2.58-.89,5.2-1.65t5.12-1.25a4.19,4.19,0,0,1,2.22-.25,8,8,0,0,0,2.94-.24Zm6.53-11.45a7.4,7.4,0,0,0,1.13-.08l.89-.16a2.82,2.82,0,0,1,.88,0,4,4,0,0,1,1.13.28,8.08,8.08,0,0,0,1.09,1.17,1,1,0,0,1,.45,1.09,1.77,1.77,0,0,1-.41.8l-.88,1.21c-.33.43-.65.89-1,1.37a5.18,5.18,0,0,0-.65,1.29c-1.13,0-2.25,0-3.38,0s-2.53.1-4.2.2c-1.12.17-2.36.33-3.7.49s-2.69.34-4,.52-2.6.39-3.79.61-2.2.43-3.06.64a1.14,1.14,0,0,0-1,.24.6.6,0,0,0-.16.41c-1.13.11-2.08.19-2.86.24a8.83,8.83,0,0,0-2.94.89.63.63,0,0,0-.24-.77.71.71,0,0,1-.25-.85,2.25,2.25,0,0,1,.25-.8,8.45,8.45,0,0,1,.64-1.21c.27-.43.58-.87.93-1.33a5.11,5.11,0,0,1,1.09-1.09,6.08,6.08,0,0,1,1.85-.61q1.13-.2,2.34-.36c.8-.11,1.58-.24,2.34-.4a5.23,5.23,0,0,0,2-.89,4.68,4.68,0,0,0,1.61,0c.38-.08,1-.17,1.78-.28l.81-.32a8.09,8.09,0,0,0,1.61-.81c0-.16.27-.28.8-.36a15.76,15.76,0,0,1,1.86-.16c.7,0,1.35,0,2,0a5.52,5.52,0,0,1,1.17.12q1.05-.48,1.86-.81A5.53,5.53,0,0,1,453.45,109.21Z"/><path class="cls-1" d="M494,91.31a4.51,4.51,0,0,1,3,1.25c.94.83,1.79,1.6,2.54,2.3a5.55,5.55,0,0,0,2,2.9c.33.38.65.78,1,1.21a3.52,3.52,0,0,1,.65,1.53c.21,0,.43.23.64.69a8.57,8.57,0,0,1,.57,1.61c.16.62.29,1.2.4,1.73a6.75,6.75,0,0,1,.16,1,8.87,8.87,0,0,1-.4,2.5,22.68,22.68,0,0,1-1,2.74c-.4.92-.83,1.79-1.29,2.62s-.85,1.52-1.17,2.06a2.39,2.39,0,0,1-.85.88c-.34.22-.68.42-1,.61a2.7,2.7,0,0,0-.85.77,2.1,2.1,0,0,0-.36,1.29,7.8,7.8,0,0,0,.48,2.33,22.43,22.43,0,0,0,1.21,2.91,23.47,23.47,0,0,0,1.49,2.58,4.28,4.28,0,0,0,1.25,1.37,7.54,7.54,0,0,1,1.74,1.61c.51.64,1,1.29,1.61,1.93a13.47,13.47,0,0,0,1.81,1.74,5.23,5.23,0,0,0,2.26,1c.32.1.83.31,1.53.6a5,5,0,0,1,1.61,1,1.92,1.92,0,0,1,.53.68,2.93,2.93,0,0,1-.12.85,1.92,1.92,0,0,1-1.17,1.29,6.9,6.9,0,0,1-2,.52,12.37,12.37,0,0,1-2,.08,3.53,3.53,0,0,1-1-.12,2.24,2.24,0,0,0-1.49-.48,5.45,5.45,0,0,1-1.49-.16,19.69,19.69,0,0,1-3.07-2.1,13.61,13.61,0,0,0-2.09-1.53,6.07,6.07,0,0,1-1.21-.85c-.49-.4-1-.87-1.58-1.41s-1.12-1.1-1.69-1.69-1.09-1.13-1.57-1.61a21.19,21.19,0,0,1-1.65-2.34c-.46-.75-.86-1.46-1.21-2.14s-.69-1.29-1-1.85a4.75,4.75,0,0,0-1.05-1.33,7,7,0,0,1-1.65-1.21,2.14,2.14,0,0,0-1.65-.57,1.89,1.89,0,0,0-1.5.61,4.24,4.24,0,0,0-.8,1.41,6.78,6.78,0,0,0-.36,1.69c-.06.6-.09,1.08-.09,1.45l.89,3.79v1.62a3.45,3.45,0,0,0,1.25,2.9,13.12,13.12,0,0,0,2.7,1.61c1,.43,1.87.85,2.7,1.25a1.92,1.92,0,0,1,1.25,1.81,1.18,1.18,0,0,1-.56,1,1.87,1.87,0,0,1-1.05.41h-2.9l-4.52-.65H471.75c-.16,0-.68,0-1.57-.12s-1.83-.22-2.82-.4a12.77,12.77,0,0,1-2.7-.81c-.81-.35-1.21-.82-1.21-1.41a.69.69,0,0,1,.24-.48,4,4,0,0,1,.57-.49,3.07,3.07,0,0,1,.8-.56,4.15,4.15,0,0,1,.73.08l1,.16,1.21.16h1.62a4,4,0,0,0,2.7-.93,2.62,2.62,0,0,0,1.09-2V110.74l.64-5.8a9,9,0,0,1-.32-1.94,17.57,17.57,0,0,0-.28-2.14,5.26,5.26,0,0,0-.73-1.81,2.42,2.42,0,0,0-1.57-1H468a9.63,9.63,0,0,1-1.77-.16,5.74,5.74,0,0,1-1.65-.56,3.4,3.4,0,0,1-1.25-1.13,3.48,3.48,0,0,1-.49-1.94c0-.16.13-.33.37-.52a6.79,6.79,0,0,1,.76-.52,5.43,5.43,0,0,1,1.13-.57L478.69,92H487c.16,0,.46,0,.89-.08a11.73,11.73,0,0,0,1.29-.25l1.69-.32Zm-7.66,8.22-.73.17a8.3,8.3,0,0,1-.88.28,3,3,0,0,0-1.05.52,1.55,1.55,0,0,0-1.09.53,2.25,2.25,0,0,0-.53,1.65v5.88a2.12,2.12,0,0,1-.32,1.17,2,2,0,0,0-.32,1l.32.16a1.72,1.72,0,0,1,.24.28,1.07,1.07,0,0,1,.08.53,1.8,1.8,0,0,0,.17,1.49,3.88,3.88,0,0,0,1.12,1.21,5.91,5.91,0,0,0,1.58.81,4.84,4.84,0,0,0,1.41.28l1.45-.65q.65-.24,1.17-.48a2.29,2.29,0,0,1,.93-.24l1.61.64a2.24,2.24,0,0,0,1.77-.84,7.27,7.27,0,0,0,1.17-1.94,14.68,14.68,0,0,0,.69-2.1,7.43,7.43,0,0,1,.4-1.33l-.49-2.25a4.86,4.86,0,0,0-.12-1.09,2.59,2.59,0,0,0-.76-1.17,12.87,12.87,0,0,0-.12-1.45,2,2,0,0,0-.77-1.45,6.19,6.19,0,0,1-1.17-.25c-.62-.16-1.29-.34-2-.56s-1.45-.4-2.18-.56A7.83,7.83,0,0,0,486.35,99.53Z"/><path class="cls-1" d="M590.18,589.09h-580V10.91h580Zm-579-1h578V11.91h-578Z"/><path class="cls-1" d="M592.11,585.89c0,3.41.39,2.19.46,2.7C592.48,582.88,592,586,592.11,585.89Z"/><polygon class="cls-1" points="591.16 529.53 591.33 530.53 590.91 522.23 591.16 529.53"/><path class="cls-1" d="M591.17,476.84c-.71,5,.12,19.09-.14,28.48l-.16,1.55.57,4.23C591.35,499.69,591,484.87,591.17,476.84Z"/><path class="cls-1" d="M592.71,448.74c-.27,1.73-.24-6.08-.08,6.55,0-.63,0-.82.07-1.19C592.7,453,592.71,451.4,592.71,448.74Z"/><path class="cls-1" d="M592.7,454.1c0,5.55.23-3.63,0,0Z"/><path class="cls-1" d="M592.54,428.47l.25,7.31c.16-1.52.2-8,.32-5.61C593,422.67,592.81,424.21,592.54,428.47Z"/><path class="cls-1" d="M592,421.54l.1,3.79A19.87,19.87,0,0,0,592,421.54Z"/><path class="cls-1" d="M592.34,433.36l-.22-8a8.41,8.41,0,0,0,.08,3.69C592,428.36,592.19,430,592.34,433.36Z"/><path class="cls-1" d="M592.23,437.91c-.15,4.1-.25,9.4-.5,2.06C591.83,454,592.33,451.9,592.23,437.91Z"/><path class="cls-1" d="M590.43,474.15l-.21,5.48.24,4.74C590.34,482,590.66,473.81,590.43,474.15Z"/><path class="cls-1" d="M592.91,382.93c-.15-.45-.41,2.46-.6,3l.17,5.4C592.59,388.56,592.68,383.3,592.91,382.93Z"/><path class="cls-1" d="M592.31,385.94l-.26-8.08C592,385.08,592.14,386.39,592.31,385.94Z"/><polygon class="cls-1" points="591.23 420.24 591.77 433.51 591.22 417.68 591.23 420.24"/><polygon class="cls-1" points="592.93 352.08 593.28 356.66 592.75 348.5 592.93 352.08"/><path class="cls-1" d="M592.87,331.61c.29,3.39.49-4.64.67-1.06,0-5.56-.31-10.31-.53-14.58C593.14,320.51,593.1,325.35,592.87,331.61Z"/><path class="cls-1" d="M592.68,308.79c.07,2.27.2,4.62.33,7.18C592.94,313.56,592.85,311.18,592.68,308.79Z"/><path class="cls-1" d="M592.12,364.1a41.39,41.39,0,0,0,.44-6.36l-.43,3.18C592.13,361.89,592.13,363,592.12,364.1Z"/><path class="cls-1" d="M592.12,361v-.11c0-3.45,0-5.84,0-6.87C592.15,354.93,592.14,357,592.12,361Z"/><path class="cls-1" d="M592.12,364.9v-.8A2.39,2.39,0,0,0,592.12,364.9Z"/><path class="cls-1" d="M591.61,399.06c-.24-4.75-.49-14.64-.86-5.07C591,397.4,591.25,391.92,591.61,399.06Z"/><path class="cls-1" d="M591.59,368.84l-.1,8.59c.11-.17.28-1.72.4.63Z"/><polygon class="cls-1" points="591.45 364.64 591.59 368.84 591.62 365.66 591.45 364.64"/><path class="cls-1" d="M592.28,323.49c-.18-3.71-.2-7.76-.23-12.34-.08,4.91-.13,10-.13,14.8C592.06,326.63,592.3,328.75,592.28,323.49Z"/><path class="cls-1" d="M592.16,341.73c0-.25,0-.58,0-.82C592.1,341.41,592.09,341.82,592.16,341.73Z"/><path class="cls-1" d="M592.05,266.06c0,.25,0,.46-.07.72,0,.06,0,.1.07.17Z"/><path class="cls-1" d="M591.84,326.78c-.08,3.69,0,5.89.16,8,0-2.76-.07-5.68-.08-8.82C591.86,325.65,591.82,325.59,591.84,326.78Z"/><path class="cls-1" d="M592.48,296.21c-.07,1.92-.15,4.1-.23,6.39C592.38,300.72,592.59,296.89,592.48,296.21Z"/><path class="cls-1" d="M592.26,339.66c0,.19,0,.36,0,.56C592.37,339,592.32,339.16,592.26,339.66Z"/><path class="cls-1" d="M592.26,339.66c-.06-1.89-.17-3.39-.26-4.89,0,2.25.08,4.33.14,6.14C592.17,340.45,592.22,340,592.26,339.66Z"/><path class="cls-1" d="M589.31,252.39c.4.66.76,10.36.34,18.73.3,8.24,1.6,2.85,2.33-4.34-.18-.26-.34-.26-.57-8.74-.22,3-.51,18.82-.86,11.67-.21-11.24.14-9.21.35-14.67-.5,4.64-.72-14.29-1.45-11.84l.26,9.85C589.59,253.23,589.41,249.66,589.31,252.39Z"/><path class="cls-1" d="M591.94,282.94l0,3.49c.06-4,.22-6.83.53-12.07-.19-5.81-.34-7-.47-7.41l0,17.18Z"/><path class="cls-1" d="M592,302.09c-.43-2.72-.62-11.1-1.08-6,0,10.24.36,7.18.54,13.3-.1-16.53.24,4.74.49-7.2.07,3.25.09,6.17.11,8.93.07-3,.14-5.85.2-8.55,0,.15,0,.26,0,.38V303c-.06.71-.09.95-.06.15,0-.06,0-.26,0-.35a3.38,3.38,0,0,1-.16-.75c.09-4.78.11-.75.16.75,0,.06,0,.19.07.2V303L592,286.43C591.93,289.93,591.94,294.32,592,302.09Z"/><path class="cls-1" d="M589.83,385.16c0-.51.06-.49.1-.53C589.87,383.56,589.84,383.16,589.83,385.16Z"/><path class="cls-1" d="M590.09,378.35a58.85,58.85,0,0,1,.18,6.12c-.13,3.4-.2,0-.34.16.11,2.36.3,8.26.51.86l-.05-1.17c.14-6.66.68-15.22.74-14.06A64.31,64.31,0,0,0,590.09,378.35Z"/><path class="cls-1" d="M590.93,339.75,590.71,326l-.37,7,.23-.35C590.48,340.47,590.75,338.77,590.93,339.75Z"/><polygon class="cls-1" points="592.27 264.48 592.72 266.31 592.08 258.35 592.27 264.48"/><polygon class="cls-1" points="592.21 246.57 592.61 247.23 592.37 242.5 592.21 246.57"/><path class="cls-1" d="M13.09,208.16l.11,4.05C13.17,210.29,13.13,209.06,13.09,208.16Z"/><path class="cls-1" d="M13.12,178.83l-.2-.72C13,179.47,13.11,180,13.12,178.83Z"/><path class="cls-1" d="M384.89,8.92c-5.9-.37-12.49-.94-11.78-.5l1.81.43C379,8.78,382.2,8.82,384.89,8.92Z"/><path class="cls-1" d="M83.58,11.51l1.73.13,4-.41Z"/><path class="cls-1" d="M79.42,13.3,71.64,13C73.39,13.12,75.89,13.22,79.42,13.3Z"/><path class="cls-1" d="M13.55,368.31,14,373C14,365.64,13.77,368.9,13.55,368.31Z"/><path class="cls-1" d="M592.05,63.1c.17-5.09.24-9.15.27-12.71C592.07,56.53,591.69,61.48,592.05,63.1Z"/><path class="cls-1" d="M8.48,196.62c.08,2.48.17,3.53.27,3.46C8.67,197.53,8.59,196.09,8.48,196.62Z"/><path class="cls-1" d="M592.31,35.69c0,.9-.06,1.78-.1,2.69.08,3.72.13,7.47.11,12C592.5,45.86,592.62,40.68,592.31,35.69Z"/><path class="cls-1" d="M371.26,586.12l1.32,0C372.71,586.11,372.12,586.11,371.26,586.12Z"/><path class="cls-1" d="M540.48,590.49l-7,0C534.78,590.56,536.88,590.55,540.48,590.49Z"/><path class="cls-1" d="M592.4,174.49c0,3.8.05.6,0,0Z"/><path class="cls-1" d="M590.69,193a4.7,4.7,0,0,0-.21-1.52A6.93,6.93,0,0,1,590.69,193Z"/><path class="cls-1" d="M576.12,11.47h-.33C576.92,11.56,576.72,11.54,576.12,11.47Z"/><path class="cls-1" d="M592.21,180.21c0-1.43.09-3.07.12-4.86C592.3,176.13,592.26,177.61,592.21,180.21Z"/><path class="cls-1" d="M592.41,179.44c0,1.31,0,2.34,0,3.32C592.44,183.24,592.49,182.81,592.41,179.44Z"/><path class="cls-1" d="M592.38,169.2c0,2.17,0,4.2,0,6.15,0-.75.06-1.06.07-.86C592.4,173.38,592.39,171.8,592.38,169.2Z"/><path class="cls-1" d="M60.05,587.28l.82,0C64.7,587.14,63,587.17,60.05,587.28Z"/><path class="cls-1" d="M286,13.42l.44,0h-.56Z"/><path class="cls-1" d="M272.36,13.75a97.46,97.46,0,0,1,13.52-.36l-4.52-1.25Z"/><path class="cls-1" d="M13.21,278.37l.39-9.58c.65,11.56.42,19.93,1,10.94-1.36-1.36-.14-37.25-1.49-38.59l.28-6.31c0,1.81.07,2.1.06,3.89.65-12.29-1-9.13-.79-25,.1-5.52.3-9.37.46-5.6l-.34-12.3c0-3.57.27-2.7.24.86L12.88,178l0,.14c-.21-2.67-.54-8.73-.68-11.69.19-4.77.14,2.39.31,1.17l-.33-10.38c.35-4.23.7,4.37.65,11.54,1.35-9.69-.35-8.61.45-29.54l.17,9.81c.77-6.32.49-14,1-25.05-.25,2.62-1.21,22.18-1.55,10.92.1-3.18.15-7.36-.12-13.44.48-.06.36-6,.34-13.42l.64.51c-.19-8-.51-7.4-.8-12.12.06-9,.56-10.81,1-12.91.11-14.33-.79,9.89-.91-7.07.24-11.92,0-20.28-.4-34.54.22-8.34.39,1.46.57-1.53L12.69,33c0-1.81.17-1.22.25-.93-.2-6.23-.64-.51-.81-10.31A17.87,17.87,0,0,1,12,18.07c0-.87.06-1.86.09-3,0-.69.09-1.44.14-2.24L13.8,13l.81,0,1.36.05c1.83.06,3.72.11,5.62.15,3.8.06,7.63,0,11-.19,3,.18-1.44.39-.53.64,16.63-.52,14.26-.38,27.92-1.09L71.64,13c-8.55-.48,2.38-1,11.94-1.51-3-.23-5.62-.44-7.36-.53l15.27-.35c1.84.11.3.33-2.2.6l2.8-.16c5.46.24,2.63.61-1.28,1l-5.5-.39c-3.77.39-7.3.82-6.52,1.19,1-.07,2.91-.13,5-.17-1,.11-1.62.2-1.16.26s2.11-.07,4.61-.23l3.47.71.84-.28,20,.44c14.3-.71,26.73-1.77,49.41-2.07-5.63.53-1.21.86-1.52,1.48-6.18-.66-17.56.28-29.32.14,6.14.07,4.79.37,3.23.47l21-.6c-.47.51,4.45.38,9.93.59-4.14-1,15.63-.66,24.16-1,.53.34-1.51.68-11.92.6,11.48.75,14.84-1.18,26.11-.54a38.17,38.17,0,0,0-4.92.13c5.94-.3,20.45-.06,17,.23h-2.54c16.87.12,51.36,0,53.88-.85a10.45,10.45,0,0,1-3.23,1.2l30.1-2.86c-2.65.73,7.53,2.47-6.46,2.88,4,.11,9,.23,17.46,0-2.75-.1-6.84-1.06-3.09-1.12,10.28.81,7.14.43,19.81,1.13-4.11-.16.45-1.31,6.94-1.27-1,.17.54,1.13-1.83,1.25l16.16-1.12c-4,.2-.71.95,2.9,1.27-1.68-.22,14,0,18.28-.09l-6.85-.26c18.24.16,18-1.59,36.12-1.53-2.19.24-5.41,1.43,3.79,1.57A311.81,311.81,0,0,1,430.82,10l3.07.33,12.29-.38c-7.65.87-29.12,2.69-40.85,3.4,6.83.26,1.91.39,12.13.36,3.61.31-5.57.47-8.58.49l23.8.2c-1.06-.67,18.21-.68,17.3-1.24l-25.86.7c-1-.67,14.95-1.91,31.82-1.79,4.29.27-3.21,1.2-2.86,1.42,2.19-.23,16-.44,17.56-.28l-7.16.36c9.39.26,15.33-.89,26.61-.25,3.89,0,11.63.87,12.3.47C496,13,494.8,10.64,499,10.07c1.37,0,20.45.73,24.89,1.11,6.42.6-9.62,1.43-4.16,2a39.84,39.84,0,0,1,5.25-.49c4.09.16-1.69.57,7.19.49,1.49-.68,18.08.06,4.21-.58,8.69-.19,9.23.14,19.44.11-3.25-.44,9.17-1.49,17.88-1.69-.52.17,1.44.4,2.39.5l13.39.1c-.06,5.1-.12,9.69-.18,14.48s-.09,9.87-.09,15.8c-.17,1.53-.37,9.55-.66,6.13.12,2.39.35,4.59.37,9.71-.59,9.92-.09-11.42-.8-3.86.39.64.54,13.25.79,20.55.61-2.25.12-16.86-.13-24.17.85,0,1.73,12.69,2.12,30.05.21,13.81-.55,6-.43,8.38-.14,25.93,1.48,22.09.87,43.62-.54,8.54-1.07.39-1.46,2.28-.2-11.24.34-17.26.32-24.88L590,119c-.18-3.58-.32-11.08-.16-15.17-.49,7.16-.09,43.8-.54,63.8.18,3.55.37,9.69.58,6.79l-.07-6.33c.43-5.82.6,11.91.8,3.9.3,8.49.78,18,.54,30l-.62,2.24a94.82,94.82,0,0,0,.18-11.17c.27,5-.83,18.33,0,23.78l.42-8.37c.31,8.52,1,19.06.77,29.65.6-4.82-.07-2.44.64-10-.89,6.53,0-27.1-.89-16.61.82-7.73.35-13.37,1-23.47-.21.32-.39,3.58-.29-5.31-.06-.4-.14-1.35-.18-1.95l0-.6c0,.17,0,.31,0,.49,0-.39,0-.42,0,.18-.08,2.12-.19,3.83-.3,4.53-.47-4.41-.45-18.55-.69-23.34.09-5.27.23,2.21.44-.67l-.36-7.14c.45-.71.75-14,1-1.59l0-11.19c.26-6.58.36-15.64.17-21.23.09-5.28-.5-13.33-.15-8.73L592,94l.12-.16c.05-17.31-.75-35.64.06-55.43-.11-5.83-.25-11.85-.12-21.6l.19-1,.1-.48c0-.14.06-.5.1-.75,0-1.77,0-3.77,0-6l-9.19-.05-6.61-.09c-4.22,0-7.8,0-9.19.14-8.07-1.05-36.31-.23-49.47-.42l-.5.51c-9.06,0-17.74.12-29,.32l.69.45c-9.69.37-24.92-.32-40.26-.27a66.94,66.94,0,0,1,7.69,0c-18.32-1-38.65.74-55.27,0-4.14.16-7.14.11-10,0,.39,0,.73,0,1,0h-1.7l-5.75-.24c1.73.11,3.39.2,4.83.24-3.19,0-8,.06-12.78.18l-2-.49-1.1,0c-4.66-.18-3.74.23-1.26.59-2.39.08-4.58.17-6.28.29-3.78-.78-12.45.26-17.61-.57-3.2.41-23.87.31-26.4,1.16-.16-.11-1.56-.17,1-.17-5.29-.1-10.58-.2-15.32,0L305.7,9.6l-11.55.82c-7-.37-9.93-.59-3-1.06-16.84.73-13.66.27-28,1l.7-.39c-5.11,0-13.29.54-16.38.22-11.44-.76-56.63-.11-86-.81,5.7,1.17-13.66-.52-14.82.38-1.71-.27-5.81-.43-1-.67-15,.27-22.53-.44-32.88.33-1.71-.28,3.21-.41,1.68-.57a56.85,56.85,0,0,1-6.32.07c-1.53-.16,2.2-.23,4.57-.35-15.32,0-16.87.9-18,1.7a106.5,106.5,0,0,0-17.24.19c-2.7-.26-7.21-.53,2.31-.62-5.36,0-32.71-.39-33.25.25-1.68-.16-7.49,0-8.9,0l-12.51,0h-13l3.9.11c-.42.07-.84.13-1.26.17s-1,.09-1.56.12c-1.07.06-2.17.09-3.35.1,0,1.08,0,2.21,0,3.42s0,2.21-.06,3.44c-.05,2.28-.09,4.9-.06,8l-.08-.27c-.56,21.81.27,9.42-.37,30.93l.48-1.17c1,2-.61,19.06-.21,31.55l.27-4.51c.35,6.82-1.4,19.06-1.53,25.91-.09,1.49-.14-2.36-.21-4.44-.61,17.93.63,2.32.77,15.68-.34,2.47-.86-3.17-.92,5.82-.28,4.48,1.1,26.08.45,38.35.26-2.7.52-5.39.72.82.09,9.51-1,25.71-.17,34.3a6.08,6.08,0,0,1-.2,1.72c.21,7.27.35,23.63.8,28-1.66,6.72.8,45.2-.72,45l.08,22.37-.16-.59c-.1,14.3.27,19.35.63,24.38-.1,3.3-.24.89-.32.62-.31,20.89-.25,23,.51,40.48l-.49,1.82c.29,4.75-.78,30.2-.2,50.69a10.45,10.45,0,0,1-.22-2.26c.58,23.05-1.38,55.19.43,63.63l.44,15.22c.14-19.68.79,2.93,1.09-5.17.1,7.74-.55,20-.64,10.5l.09-1.49c-.94-3.49-.33,24.45-1,23.93q0,18.16-.09,36-.11,18.83-.23,37.25l43.35.19L47.94,590l12.65,0c3.32.17,4.46.57-4.57.54a82.16,82.16,0,0,0,9.39,0c3.22-.16,5.88-.39,6-.47,17.67.3-6.9.85-1.48.87l7.36-.05-1.66-.09c6-.3,6.49-.61,17.34-.58,6.87.15,3.52.45,6.23.48,0,0,.21,0,.84,0s1.68,0,3.3,0l15.94.06-6.37-.57c7.06-.29,15,0,7.63-.63,10.8,1,59.46.37,66.09.68,9.9-.42,19.67-.42,31.77-.36-3-.12-4.81-.77,5.63-.69-3.82,1.34,19.11.58,27.54,1.54-7.54-.64,29.67-.16,17.84-1.06,8.71.1.53.5,7.14.81,20.73-.52,45.68.34,71.3.16.4-.17-3.89-.44,1.6-.7l13.53.88c5.06-.09,4.66-1,13.9-.41-1.3-.15-3.25-.37.14-.42,50.19.85,102.56-.71,153.53.9-6.9-.34-2.3-.37,3-.38-3.43-.08.08-.44-.59-.68l21.33.67c3.89-.67,22.88,0,25.11-.68l-6.76.11c9-.74-12.57-1.66-11.26-2.61-10.06.84-26.53-1.26-43-.05-3.64-.19,3.11-.31,1.16-.53a161,161,0,0,1-18.6.31l1.06-.1c-26.32.1-37.6-.3-67.16-.57l2.19.47c-6.35-.06-7.69-.21-10.66-.33-7.29.72,17.84,0,11.2.83-8.43-1-44.79,0-50.49-1.11-9.77,0,2.87.55-6.9.55l-2.59-.3-2.47.38c-6.41-.06-9.64-.43-9.88-.68,1.55,0,4.42-.07,6.08-.09-8.3-.35-23.42.11-26.27,0l9.39.18c-26.67.28-59.23-.11-85,.49l2,.23c-19.67.41-15.76-.25-37.36-.06l.79-.05c-4.33.22-10.1.34-16,.31,5.45-.26-10.26-.51-3.11-.8-21.33.45-10.55.35-24.64,1.18l-3.25-.37c-4.8.34-5.21.51-16,.61,8.84-.32-6.89-.57,3-1-22.63-.81-33.61.82-44-.36-10.39,1,19.59.57,13.77.79,4.87.33-8.58.76-15.69.66s-12.29-1.31-30.48-1.29c1.81,0,1.93-.08,3.73-.07-6.8-.26-13.34.35-21.69-.07-4.68.62-10.84,0-12.19.75l16.69-.18c-9.46.21-18.33,1.13-33.92.68,1.22-.16,5.86-.37,9-.48-4.56-.24-8.77.15-13.5-.09,1.35-.79,20.28-.17,30.42-.77-4.89-.34-19.18.57-14.08-.29-7.32,1.09-17.93-.14-30.25.7l.82-.48c-1.95.08-6,.3-9.58.29l6.5-.62c-3.39.18-6.7.19-10,.12L15.55,586l-.61,0H14.5l-.38,0-.69-.07.05-.69,0-.32V584c0-1.52,0-3,0-4.58,0,2.28,0,4.06,0,5.44,0,.44,0,.78-.07,1,.66.09.45.23.15.39s-.63.32,1,.45l-2.11.08c0-.68,0-1.29,0-1.86v-2.65c0-1.73.05-3.15.1-4.38.1-2.45.27-4.14.44-6,.35-3.77.71-8.32.6-21.37.07,3.74-.28,14.06-.5,8.2.09-5.27.28-12.22.52-15.45-.09-18.33-.48,2.81-.77-5,.57-6.24-.24-9-.43-17l.49-.06c.31-20.88-1-5.53-.63-24.33l.66,7.94-.17-9.8.55,2c-.41-10.66-.3-14-.15-24.43-.34,2.43-.87-1.36-.89-10.61.29-6.31.46,3.53.39-9.58a57.88,57.88,0,0,1,.24,11.91c.16.58.3,2.92.46,3.52.33-6.8.07-17.07.07-21.82,0,1.83-.05,4-.12,5.13l-.66-19c.18-3,.32-.61.46,1.74-.05-3.85-.27-6.52-.31-12.18.39,1.47.8,1.12,1,9.13l-.43-18.11c.17-1.21.46-9.29.61-6.94.23-10-.76-24.63-.46-37.94-.07-.69-.15-2.08-.2-4.91.09-12.51.57-23.59,0-38.42l.7-8.41c-.16-11.61-.88,11.39-1.15-7.95-.22-13.68.6-5.11.8-9.91a311.4,311.4,0,0,1-.51-31.22C13.27,271.22,13.16,274.48,13.21,278.37ZM12.9,135.16c.1,2.77.42,8.31.13,10.34C12.48,142.33,12.74,139.89,12.9,135.16ZM104.67,12.44a77.8,77.8,0,0,1-8.86-.11C98.42,12.29,101.38,12.31,104.67,12.44ZM592,132.85c0-.12,0-.2,0-.3C592.18,126.36,592.1,128.56,592,132.85Zm-.21,12.85c.07,1.29.14,1.2.2.66-.12-.9-.13-3.79-.09-7.07A41.74,41.74,0,0,0,591.8,145.7ZM100.63,590.52l-2.5-.12C103.78,590.26,102.2,590.38,100.63,590.52Z"/><path class="cls-1" d="M80,13.1a3.36,3.36,0,0,1-1.19-.27C77.7,12.91,77.68,13,80,13.1Z"/><path class="cls-1" d="M13.47,367.44v.43a1.83,1.83,0,0,0,.09.44Z"/><path class="cls-1" d="M524.86,13.38c-2.64-.07-4.12-.16-5.1-.25C519.61,13.25,520.82,13.35,524.86,13.38Z"/><path class="cls-1" d="M592.62,213.81l-.12-8.23c0,4-.09,5.4-.16,7.41C592.45,212.81,592.61,211.24,592.62,213.81Z"/><path class="cls-1" d="M589.64,285.28c.05,1.2,0,2.55.06,3.74l.23-.33C589.91,283.56,589.73,280,589.64,285.28Z"/><path class="cls-1" d="M591,221.44c-.41.65-.27,5.81-.19,11.58v-1C591.39,233.7,591.21,227.56,591,221.44Z"/><path class="cls-1" d="M590.84,234.36c0,1.78,0,3.59,0,5.33C591.08,240.37,590.9,237.53,590.84,234.36Z"/><path class="cls-1" d="M592.07,162c-.1,2.74.52,1.72.35,3.27C592.94,168.32,591.8,147,592.07,162Z"/><polygon class="cls-1" points="589.68 226.11 590.18 224.04 589.78 220.81 589.68 226.11"/><path class="cls-1" d="M590.05,180.57l-.14,9.21a10.68,10.68,0,0,1,.17,2.47C590.1,186.57,590.2,180.35,590.05,180.57Z"/><path class="cls-1" d="M590.08,192.25c0,3,0,5.77.08,7.42C590.16,198.07,590.14,194.63,590.08,192.25Z"/><polygon class="cls-1" points="589.53 213.51 589.63 210.78 589.67 204.28 589.53 213.51"/><path class="cls-1" d="M590.15,81.5,590,71.44c-.17-1-.27,1.72-.21,5.46C589.91,79.31,590,83,590.15,81.5Z"/><path class="cls-1" d="M588.77,111.92a42.32,42.32,0,0,1,.38-4.44l-.62-.3Z"/><path class="cls-1" d="M588.63,82.59c-.17-1-.5-14.6-.46-1.85C588.34,81.76,588.49,91.83,588.63,82.59Z"/><polygon class="cls-1" points="509.31 11.67 511.87 11.67 511.5 10.65 509.31 11.67"/><path class="cls-1" d="M375.74,14.11c11.92.24,2.83-.63,13.6-.32,2.8-.24-8.8-.25-5.93-.46C376.21,13.58,372.43,13.44,375.74,14.11Z"/><path class="cls-1" d="M383.41,13.33l3.67-.15C385,13.24,384,13.29,383.41,13.33Z"/><polygon class="cls-1" points="568.56 591.04 576.22 591.25 571.27 590.91 568.56 591.04"/><path class="cls-1" d="M583.27,590.28l1.81.65,4.6-.58C588,590.38,584.59,590.43,583.27,590.28Z"/><path class="cls-1" d="M14.21,113.87l-.16-.59a59.93,59.93,0,0,0-.2,6.58Z"/><polygon class="cls-1" points="13.72 217.81 13.74 216.02 13.15 219.37 13.72 217.81"/><path class="cls-1" d="M14.47,305.05c0-3.56-.05-7.75-.08-11.32C14.5,301.49,13.74,306,14.47,305.05Z"/></svg>