<svg id="Laag_1" data-name="Laag 1" xmlns="http://www.w3.org/2000/svg" viewBox="0 0 600 600"><defs><style>.cls-1{fill:#1d1d1b;}</style></defs><title>Rebus 3 Sommige</title><path class="cls-1" d="M468.31,322.9c0,1.79.79,1.15.95,1.42C469,321.32,468.09,323,468.31,322.9Z"/><polygon class="cls-1" points="463.99 293.84 464.41 294.29 462.83 290.2 463.99 293.84"/><path class="cls-1" d="M457.77,267.26c-.3,1.44.4,3.8,1.33,6.4.44,1.31,1,2.66,1.36,4a27.45,27.45,0,0,1,.84,3.9l-.13.86,1.61,1.89c-.37-1.44-.81-3-1.27-4.53s-.88-3.15-1.43-4.65A68.63,68.63,0,0,1,457.77,267.26Z"/><path class="cls-1" d="M455.71,252.41c-.18,1.05-1.62-2.8,1.1,3.27-.07-.33-.07-.43-.1-.63C456.49,254.5,456.18,253.73,455.71,252.41Z"/><path class="cls-1" d="M456.71,255.05c1.11,2.71-.26-2,0,0Z"/><path class="cls-1" d="M451.16,242.75l2,3.31c0-.87-1.38-4-.64-3C450.68,239.59,450.73,240.48,451.16,242.75Z"/><path class="cls-1" d="M448.68,239.91c.37.56.72,1.12,1.05,1.7C449.71,241.23,449.55,240.72,448.68,239.91Z"/><path class="cls-1" d="M451.87,245.26l-2.14-3.65c0,.6-.38.85.94,1.69C450.14,243.16,450.86,243.75,451.87,245.26Z"/><path class="cls-1" d="M452.65,247.52a17.54,17.54,0,0,1,.71,2.72c0,.52-.18.31-1.18-1.34,1.49,3.32,2.29,4.68,2.44,4.33a4.32,4.32,0,0,0-.35-1.74A26.34,26.34,0,0,0,452.65,247.52Z"/><path class="cls-1" d="M455.91,266.39c.17.93.35,1.86.45,2.81l1.13,2.21a18.67,18.67,0,0,1-.82-3.05C456.4,267.2,456.09,266.24,455.91,266.39Z"/><path class="cls-1" d="M440.36,221.34c-.38,0,0,1.52-.16,2,.62.72,1.18,1.49,1.75,2.25C441.44,224.16,440.08,221.74,440.36,221.34Z"/><path class="cls-1" d="M440.2,223.3,437.47,220C439.46,223.23,440,223.68,440.2,223.3Z"/><path class="cls-1" d="M446.94,240l1,1.41,1,1.45,1.93,2.93c-1.48-2.36-2.91-4.72-4.53-7Z"/><path class="cls-1" d="M431.21,207.87c.67.5,1.32,1,2,1.55L431.51,208l-1.75-1.38Z"/><path class="cls-1" d="M424.38,199.51c1.62,1-.86-2.5.66-1.29a41.91,41.91,0,0,0-5.88-5.13A30.33,30.33,0,0,1,424.38,199.51Z"/><path class="cls-1" d="M416.07,190.8c.93.77,2,1.5,3.09,2.29A25.21,25.21,0,0,0,416.07,190.8Z"/><path class="cls-1" d="M433.58,214a6.57,6.57,0,0,0-1.23-3.22l.28,1.86Z"/><path class="cls-1" d="M432.64,212.65v-.06l-2.05-3Z"/><path class="cls-1" d="M433.82,214.3l-.24-.35A.35.35,0,0,0,433.82,214.3Z"/><path class="cls-1" d="M442.46,229.93c-1.65-1.92-4.64-6.08-2.8-1.42C441.05,229.74,440,227.07,442.46,229.93Z"/><path class="cls-1" d="M434.13,216.58c.81,1.26,1.52,2.57,2.28,3.85.14-.19,0-1.05.85-.15C436.21,219.05,435.22,217.78,434.13,216.58Z"/><polygon class="cls-1" points="432.64 214.96 434.13 216.58 433.23 215.19 432.64 214.96"/><path class="cls-1" d="M420.7,197a24.16,24.16,0,0,1-2.27-2.08l-2.42-2.4,5,5.92C421.43,198.58,422.53,199.1,420.7,197Z"/><path class="cls-1" d="M426.64,204.52l-.3-.31C426.44,204.47,426.56,204.65,426.64,204.52Z"/><path class="cls-1" d="M398.88,176.37c.06.13.12.24.19.37l.16-.06Z"/><path class="cls-1" d="M421.16,198.91a11.83,11.83,0,0,0,3,3c-1-1-2.05-2.15-3.13-3.39C420.8,198.44,420.72,198.47,421.16,198.91Z"/><path class="cls-1" d="M411.16,186.35c.62.82,1.33,1.72,2,2.7C412.74,188.13,411.59,186.43,411.16,186.35Z"/><path class="cls-1" d="M426.12,203.55l.21.21C426.08,203.15,426.06,203.26,426.12,203.55Z"/><path class="cls-1" d="M426.12,203.55a22.29,22.29,0,0,0-2-1.68c.78.88,1.52,1.68,2.21,2.34A3.4,3.4,0,0,1,426.12,203.55Z"/><path class="cls-1" d="M389.94,176.26c.37-.21,1.64.3,3.18,1.29a19.8,19.8,0,0,1,2.41,1.8,21.21,21.21,0,0,1,2.22,2.41c3.57,2.3,3.24-1.43,1.32-5-.34.2-.48.35-4.26-2,1,1.21,6.82,7,3.56,5.17a25.71,25.71,0,0,1-3.74-3.16A21,21,0,0,0,393,174.6c.64,1.13-1,.27-2.84-.62s-3.83-1.7-3.73-.77c1.48.8,2.87,1.73,4.3,2.63C390.62,176.07,389,175.24,389.94,176.26Z"/><path class="cls-1" d="M405.38,182.35l1.39,1.18a62.94,62.94,0,0,1-4-5c-2.56-1.71-3.22-1.89-3.55-1.83,2.22,2,4.52,3.94,6.68,6Z"/><path class="cls-1" d="M412.65,189.23a7.22,7.22,0,0,1-1.42-.66c-.53-.27-1.07-.57-1.52-.78-.9-.41-1.42-.47-.79.78,1,.89,1.65,1.49,2.14,1.91a7.23,7.23,0,0,0,1.15.8,8.9,8.9,0,0,1,2.31,1.45c-6.09-6.07,2.05,1.46-1.89-3.39,1.27,1.13,2.36,2.2,3.38,3.22-1-1.19-1.94-2.37-2.8-3.51l.09.18,0,0s0,0,0,0c.18.35.22.48,0,.14l-.13-.12a1,1,0,0,1-.51-.06c-1.6-1.93-.11-.44.51.06,0,0,.12,0,.16,0l0,0c-1-1-2.13-1.95-3.24-2.88l-3.29-2.82c.62.68,1.35,1.41,2.3,2.31.48.44,1,.94,1.6,1.5S411.94,188.5,412.65,189.23Z"/><path class="cls-1" d="M435.75,225.57c-.07-.26,0-.28,0-.33C435.39,224.83,435.22,224.7,435.75,225.57Z"/><path class="cls-1" d="M434.31,222.36a7.94,7.94,0,0,1,2,2.44c.72,1.6-.35.21-.54.44.85.88,2.76,3.27,1.12-.18l-.43-.44c-1.59-3-3.09-7.36-2.67-6.92A12.52,12.52,0,0,0,434.31,222.36Z"/><path class="cls-1" d="M424.07,205.26c-1.54-1.81-3.24-3.49-4.89-5.19l1.8,3.22.22-.43C423.64,206.08,423.47,205.09,424.07,205.26Z"/><path class="cls-1" d="M398.53,175.5l1.31-.07c-1.31-.61-2.72-1.09-4.07-1.63Z"/><path class="cls-1" d="M391.08,169.78l.75-.42c-.75-.38-1.53-.71-2.3-1.07Z"/><path class="cls-1" d="M118.19,417.57l1.2,1.62C118.85,418.41,118.48,417.91,118.19,417.57Z"/><path class="cls-1" d="M111.29,404.72l-.51-.15C111.28,405.08,111.55,405.26,111.29,404.72Z"/><path class="cls-1" d="M174.26,160.39c-3,1-6.55,2-5.74,2.5l1.28.21A25.28,25.28,0,0,1,174.26,160.39Z"/><path class="cls-1" d="M91.75,287.41c.13-.27.27-.54.41-.81-.13-.78-.25-1.51-.36-2.16C91.79,285.34,91.71,286.34,91.75,287.41Z"/><path class="cls-1" d="M94.9,290.16l-1.23,3.74A36.23,36.23,0,0,0,94.9,290.16Z"/><path class="cls-1" d="M172.72,474.52c.8.21,1.59.42,2.42.58C172.12,473.07,173.21,474.31,172.72,474.52Z"/><path class="cls-1" d="M303.09,133.75a60.81,60.81,0,0,0-6.53-1.35C299.7,133.29,302.15,134.36,303.09,133.75Z"/><path class="cls-1" d="M107.27,417c.78,1,1.21,1.44,1.36,1.31C107.84,417.27,107.31,416.7,107.27,417Z"/><path class="cls-1" d="M288.87,131.75c.47.13.92.21,1.39.32a41.6,41.6,0,0,1,6.3.33A18.85,18.85,0,0,0,288.87,131.75Z"/><path class="cls-1" d="M427.27,426.57c.15-.15.3-.35.44-.49C427.65,426,427.49,426.21,427.27,426.57Z"/><path class="cls-1" d="M465.53,349.85c0,.87-.23,2.27-.39,3.6A26.67,26.67,0,0,0,465.53,349.85Z"/><path class="cls-1" d="M359,149.92c1.82.81.33,0,0,0Z"/><path class="cls-1" d="M366,157.33c-.42-.1-.76-.13-.9,0A1.43,1.43,0,0,1,366,157.33Z"/><path class="cls-1" d="M269.22,136.82h-.16C269.64,137,269.54,137,269.22,136.82Z"/><path class="cls-1" d="M361.48,151.62c-.61-.44-1.34-.92-2.15-1.39C359.67,150.47,360.32,150.9,361.48,151.62Z"/><path class="cls-1" d="M361.31,151.06l1.51.87C363.11,151.92,363,151.74,361.31,151.06Z"/><path class="cls-1" d="M356.42,148.81c1.05.46,2,.94,2.91,1.42-.33-.22-.46-.33-.35-.31Z"/><path class="cls-1" d="M300,507.84l.42,0C302.27,507.27,301.44,507.43,300,507.84Z"/><path class="cls-1" d="M141,199.35a2,2,0,0,0,.12-.19l-.22.19Z"/><path class="cls-1" d="M137,204.86a11.37,11.37,0,0,1,3.94-5.51c-1.12,0-2.28-.06-3.4,0Z"/><path class="cls-1" d="M138.94,445.56l-2.52-4.1c2.37,1.74,4.13,3.46,5,4.23s1,.6-.05-1.43c-.61.32-1.68-.37-3-1.57a42.62,42.62,0,0,1-4.28-4.7c-1.44-1.79-2.89-3.57-4.14-4.84s-2.18-2.12-2.83-1.86l-1.35-2.89c.5.75.71.77,1.2,1.51-2.47-5.68-4.21-2.59-8.19-9.46-1.27-2.46-1.83-4.35-.64-2.88l-3.64-5c-.43-.78-.45-1.15-.3-1.11a3.28,3.28,0,0,1,.93,1.25c-.84-1.31-1.51-2.72-2.28-4.07l-2.22-4.11.1,0a46.78,46.78,0,0,1-3.68-4.73c-.63-2.33.75,1,.81.28-.9-1.49-1.86-3-2.72-4.49-.06-1.13.46-.74,1.15.33a25,25,0,0,1,2.38,4.43,6.32,6.32,0,0,0-1.36-5.14,24.57,24.57,0,0,1-3.39-8.78c.64,1.49,1.38,2.94,2.07,4.41a16.39,16.39,0,0,0-.78-5.37c-.48-2-1.12-4.18-1.54-6.89-.07,1.33,1.22,11.15-1.21,6.08a22.17,22.17,0,0,0-2.35-6.28c.91-.31-.11-3.07-1.18-6.61l1.31-.09a17.9,17.9,0,0,0-1.61-3.31,13.11,13.11,0,0,1-1.39-2.13c-.89-4.37-.13-5.47.53-6.65-1-7-.7,5.13-2.41-3.11-.14-1.48-.33-2.84-.56-4.16s-.37-2.6-.62-3.91c-.49-2.63-1.24-5.38-1.83-8.91.13-4.18.84.67,1.09-.85l-1.3-3.61c0-.9.29-.62.46-.49-.56-3.08-1.3-.18-1.79-5.08-.7-.65-.33-3.2.19-6.32a44.2,44.2,0,0,0,.69-4.94,20.9,20.9,0,0,0-.2-4.91c.47-1.47.72.76,1.25.34-.21-4.17-.26-6-.37-7.58s-.16-3-.44-6.54l.79-2.85c.25-.95.6-1.88.9-2.81-1.71,4.07-1.87-1.49-1.92-6.49-.73,1.43-1.36,2.66-1.71,3.51l.35-3.92c.11-1.31.34-2.6.51-3.91.42-.88.67,0,.9,1.35,0-.54,0-1.05,0-1.46,1.09-2.62,1.48-1,1.74,1.06-.48.86-.94,1.72-1.4,2.56.42,2,1,3.95,1.76,3.7a14.46,14.46,0,0,1,.11-2.55c.11.53.24.88.41.68s0-1.08,0-2.37l1.78-1.39-.45-.53,1.55-4.77c.5-1.59,1.17-3.13,1.75-4.69.14-1.81.22-3.59.32-5.41s.37-3.65.62-5.63c.13-1,.28-2,.45-3.07s.46-2.13.74-3.27.6-2.32,1-3.57a34.25,34.25,0,0,1,1.31-3.89c-.22,3,1.32,1.22,2.39,1.86-1.25,1.15-1.88,3.3-2.58,5.76-.34,1.24-.7,2.56-1.07,3.93a34.8,34.8,0,0,1-1.28,4.16c1.11-2.87,1.45-2,1.4-1.23.66-3.45,1.69-6.8,2.58-10.23.42.3.8-.14,1.25-1s1-2,1.8-3.13c-1.35.53-.84-1.38.15-4,.25-.64.52-1.33.82-2l1-2.06c.63-1.36,1.22-2.66,1.57-3.69.72.08.86,1.31-1.66,5.87a10.24,10.24,0,0,0,2.6-6.06,9.8,9.8,0,0,1,2.62-6c-.62,1.12-1.06,1.66-1,2.27a28,28,0,0,1,2.83-5.35c1.11-1.66,2.13-2.66,1.9-1.79l-.67,1.08c1.19-1.75,2.66-4,4.17-6.37s3.3-4.8,4.79-7.14,3-4.38,4-6.08,1.57-2.94,1.46-3.44a7.06,7.06,0,0,1,.82,2.78c1.75-5,3.63-10.19,5.89-15.19.13,2,6.15.7,1.92,6.33.77-.65,1.62-1.39,2.6-2.38s2.06-2.29,3.44-3.9c-1.14.78-4,.88-2.7-.53a35.48,35.48,0,0,0,4.14-2.26l1.6-1.08a32.39,32.39,0,0,1,3.07-1.84c-1.77,1.12-1.57-2.08,1-4.19-.16.6,1.68,1.54.94,2.5l2.33-3.51c.79-1.17,1.65-2.27,2.48-3.41-1.35,1.57.91,1.7,2.72,1.09-.47.09.91-1,2.6-2.26s3.8-2.6,4.61-3.32l-3.1,1.56a23.72,23.72,0,0,0,6.66-6.38A24.89,24.89,0,0,1,176,166.3a18.52,18.52,0,0,1,4.39-3.25c-.74,1-.89,3.8,3.25,1.75.31-.51.8-1.36,1.48-2.42a32,32,0,0,1,2.6-3.66,43.41,43.41,0,0,1,3.78-4.06,23,23,0,0,1,2.29-2c.82-.6,1.68-1.17,2.58-1.7l1.72-.05c1.83-1.1,3.64-2.24,5.54-3.21-1.55,1.47-4.41,4.32-7.47,7.12-1.55,1.36-3,2.94-4.49,4.29s-2.79,2.61-3.91,3.61c3.27-1.12,1.21.25,5.71-2.13,1.87-.27-2,2.1-3.34,2.8l5.33-2.5,1.33-.63,1.36-.56,2.73-1.12c-.52-.51,1.4-1.74,3.35-3s4-2.22,3.6-2.66c-3.88,1.92-7.56,4.25-11.27,6.4-.53-.5.75-2.12,3.18-4a30.65,30.65,0,0,1,4.43-3,44.54,44.54,0,0,1,5.66-2.52c2.2-.29-.66,2.83-.32,3.18a7.86,7.86,0,0,1,1.49-.94,20.48,20.48,0,0,1,2.52-1.19,19.21,19.21,0,0,1,4.06-1.36l-3.15,1.83a21.09,21.09,0,0,0,5.78-2.53,15.68,15.68,0,0,1,6.74-1.91,16.86,16.86,0,0,1,3.74-.19c1.3,0,2.36,0,2.43-.42-3.42-.79-5.28-5.23-3.42-6.84.36,0,3-.27,5.88-.47.72,0,1.44-.1,2.15-.13h2a24.79,24.79,0,0,1,2.93.14c3.4.61-4.29,3.68-1.38,4.21,0-.38,1.72-1.14,2.43-1.42,2.08-.05-.64,1.27,3.71.33.53-1.46,9-1,1.93-1.42a22.82,22.82,0,0,1,4.57-.59c1.27,0,2.62-.12,5.18-.3-.85-.38.23-1.21,2.09-2a24.15,24.15,0,0,1,6.76-1.92c-.25.35.77.78,1.25,1,2.28,0,4.28,0,6.15,0s3.59.25,5.29.37,3.38.23,5.16.39,3.65.38,5.76.54c.75.37,4.75,1.12,3,1.55a18.6,18.6,0,0,1,4.95-.12c4.82,1.8-5.74-.55-2.13,1.34.41-.71,6.78-.35,10.48-.07a3.08,3.08,0,0,0-1.75-.87,15.76,15.76,0,0,0-3.26-.48c-2.47-.16-5.27-.14-7.13-.13.08-.84,1.77-1.49,4.59-1.89a35.41,35.41,0,0,1,5-.36c1.89,0,4,.14,6.24.35,3.56.38,4.24.94,4.22,1.21s-.78.45-.15.47a50.89,50.89,0,0,0,7.46,1.4,39.45,39.45,0,0,0,4.58.36,26,26,0,0,1,4.15.43,28.74,28.74,0,0,1,6,2.2c3.84,2.43-.51,2.08.16,3.13a40.94,40.94,0,0,1-6.64-2.42,47.06,47.06,0,0,0-5.33-2l4.48,1.8a29.4,29.4,0,0,1-7.55-1.81,29.5,29.5,0,0,0,4.88,1.85l3.84,1.18,4.34,1.51c1.51.53,3.08,1,4.63,1.63l4.57,1.87c1.48.65,3,1.21,4.28,1.9s2.58,1.33,3.69,2c1.79.41,4.81,1.36,3.65.36l-3-1.19c-2.37-2,6.07,1.43,2.49-.63l1.63.47,1.65.55c1.12.39,2.28.8,3.47,1.27s2.43,1,3.69,1.61a42.61,42.61,0,0,1,3.77,2.31l.4,1.64c.06-.37-3.13-2.65-4.82-3.17,1.25.39,3.1,1.94,5,3.37a28.58,28.58,0,0,0,2.9,1.93,5.85,5.85,0,0,0,2.61,1c-1.06-1-2.11-2.06-3.23-3,1.05.4,2.13.87,3.26,1.36s2.32,1,3.52,1.55a35.09,35.09,0,0,1,3.59,1.87,32.08,32.08,0,0,1,3.35,2.4c-1.36-2.45-1.1-.64-3.54-4.07,1.91,3.3-11.93-7.7-8.27-3.19a17,17,0,0,0-4.33-3.82,51.58,51.58,0,0,1-5.35-4c0,.43,1.31,1.54-2.75-.77a6.56,6.56,0,0,1-1.07-.14l-.27-.17.21.15c-.21,0-.23,0,.08.06a8.42,8.42,0,0,1,1.83,1.63c-1.25-.09-3.47-1.05-5.75-1.93s-4.57-1.76-5.8-2.05c-2.42-1.3,1.23.05,0-1l-1.83-.43-1.87-.36c0-1-6.25-4.07,0-2.17l-5.45-2.19a40,40,0,0,0-5.29-2.36,29.41,29.41,0,0,0-5.16-1.53c-2.62-.95-7-.95-4.49-1-1.5-.33-3-.68-4.5-1l-4.54-.77,0-.23c-4.38-1.18-9.08-1.51-13.84-2.2a119.83,119.83,0,0,1-14.82-2.26c-1.53,0-3.08,0-4.89-.06s-3.86,0-6.41-.22l-1-.8c-2,0-4.91,0-7.59-.11s-5.07-.08-5.89.43a14.34,14.34,0,0,0-4.94-.59c-1.06,0-2.2.06-3.41.14s-2.45.3-3.72.48l-3.83.59c-1.27.21-2.53.39-3.72.66-2.39.49-4.58.92-6.31,1.13l-.06,1.05-1.75.3-1.73.43c-1.15.29-2.31.6-3.5.93l-3.69,1.08c-1.27.41-2.57.9-4,1.39l.59.77c-2.33,1.06-5.51,1.69-9,2.69L210,143.83c-1.86.58-3.73,1.28-5.59,2,.38-.52,2.31-1.19,3.72-1.52a33.69,33.69,0,0,0-7.07,2.09c-2.28,1-4.47,2.25-6.63,3.46s-4.21,2.55-6.28,3.69A49.18,49.18,0,0,1,182,156.5a16.44,16.44,0,0,1-4.55,2.6,3.35,3.35,0,0,0,.44-.3c-.2.1-.48.26-.77.43-.92.33-1.85.7-2.82,1.16.88-.3,1.7-.63,2.4-.92a65.53,65.53,0,0,0-5.45,3.87l-1.41-.24-.47.34c-2.26,1-1.39,1.43.1,1.34a18.13,18.13,0,0,0-2.37,2.32c-1.24-.06-2.49,1-3.82,2.07a16.64,16.64,0,0,1-2.06,1.53,5.23,5.23,0,0,1-2.2.89c-.41.83-2.77,2.88-5,5s-4.18,4.46-4.11,5.52c-.21-.11-.82.29.17-.59a24.79,24.79,0,0,0-5.77,5.42l-1.69-.07L141,189.49l-1.48,2.74c-3,2.1-4.41,2.91-2.59-.36-1.25,1.84-2.16,3.09-2.86,4.06s-1.18,1.67-1.66,2.33a47.08,47.08,0,0,0-3.64,5.75l-.39-.78c-1.62,2.11-3.39,6.08-4.89,6.93a37.6,37.6,0,0,0-4.82,5.55c-.49.66-1,1.34-1.54,2.08l-1.55,2.33-3.33,5.13c-4.39,7.3-8.91,15.85-12.54,22.62,1.69-.88.68.62-.48,2.54s-2.47,4.28-1.74,4.89c-.83.63-1.91,2.51-1.45,0-.29.93-.6,1.8-.9,2.61s-.55,1.6-.81,2.33c-.53,1.46-1,2.76-1.52,4a19.37,19.37,0,0,0-1.57,7.54c-.78.71-.32-1.83-.85-1.16a8.17,8.17,0,0,1-.76,3.23c-.54.69-.14-1.23,0-2.49a33.32,33.32,0,0,0-1,4.69,9.63,9.63,0,0,0,.15,2.85,3.47,3.47,0,0,0,1.77,2.37A20.87,20.87,0,0,0,89,286a13.23,13.23,0,0,0,.14,4.14c-.75,1.28-1.7,3.5-1-1.4-.14.68-.44,2.06-.8,3.75-.18.84-.37,1.77-.57,2.72s-.28,2-.41,2.93c-.52,3.91-.85,7.52-.16,7.72a15,15,0,0,0-.3,4.59c-.14,1.55-.25,2.75-.35,3.76s-.09,1.86-.13,2.7c-.07,1.68-.11,3.34-.13,6.39l.26-1.69c1.42,2.42.33,5.05.64,10l-.16-.13a37,37,0,0,0-.11,5.69,17.25,17.25,0,0,0,.27,2.35,15.15,15.15,0,0,1,.24,2.32c0,.57,0,1.28,0,2.19s.06,2,.08,3.44l.88-.72c1.09.4,1.09,2.85,1,6s.12,7,1.09,10.12c0-.79.08-1.6.12-2.39.6,1.67.49,4.18.25,6.78s-.65,5.27-.23,7c0,.8-.64-1.1-1-2.14,1.35,9.38,1.54.86,3.71,7.48-.15.71-.68.44-1,.56s-.56.64.14,2.89c.12,1.2,1.72,4.29,3.44,7.84.93,1.74,1.89,3.61,2.68,5.44.4.91.75,1.82,1,2.7a20.27,20.27,0,0,1,.78,2.5c-.11-1.5-.2-3,1.49-.19a32.88,32.88,0,0,1,1.56,4l.77,2.28c.29.77.59,1.54.89,2.31,1.24,3.05,2.53,6.05,4.42,7.55.19.62.19.89.09,1,.56.77,1.26,1.8,2,2.93s1.58,2.38,2.48,3.51a31.1,31.1,0,0,0,4.44,5.11c-.26,1.21.63,2.91,2,4.88a48.68,48.68,0,0,0,5,6.13c1.86,2,3.59,3.92,4.83,5.37s1.84,2.56,1.24,3c1.31,1.44,2.56,2.92,3.9,4.32l4.08,4.16h-.44c.63.69,1.21,1.32,1.76,1.89s1.1,1,1.6,1.49c1,.88,1.87,1.58,2.64,2.15a24.13,24.13,0,0,0,4,2.37c1.16,1.28,0,.67-.19.7,3.9,3.77,6,5.88,8.35,7.42,1.13.8,2.26,1.51,3.61,2.3s2.95,1.59,5,2.59l.19,1.35a17.08,17.08,0,0,1,3,2.1c1.37,1.11,3.17,2.4,5.16,3.89,1,.73,2.06,1.5,3.16,2.27s2.31,1.44,3.51,2.14,2.42,1.4,3.65,2a34.5,34.5,0,0,0,3.77,1.65c-.15.05-.43.12-1.25-.14,5.57,2.29,11.75,6,17.44,8.65,1.42.66,2.79,1.29,4.09,1.83.66.28,1.29.54,1.9.76s1.23.39,1.81.54c2.31.62,4.23.81,5.55.3l1.93.42c.65.13,1.31.22,2,.34l3.91.64c-9.69-3,1.88-1.09-2-2.8a25.4,25.4,0,0,1,5.64,2.1c1.34.65,1.59,1.13-.8.59l-.69-.38c-2.26,1.5,12.09,3.62,11.59,4.69l7.4,1.34c2.46.41,4.93.7,7.38,1.07,1.23.17,2.45.4,3.68.5l3.69.37c2.45.21,4.89.57,7.34.64l7.3.37c2.43,0,4.85,0,7.26,0,1.2,0,2.41,0,3.6,0l3.59-.21,3.57-.23c1.18-.07,2.37-.15,3.54-.31-.78-.4-1.54-.78-2.31-1.22,2.18-.18,4.34-.48,6.51-.71,1.76.12,2.46.84-2.21,1.38a11.06,11.06,0,0,0,4.83-.7,8.37,8.37,0,0,0,2.95-1.41c9.14-1-3.26,2.32-.49,1.86l3.77-.79H309c1.48-.57,2.26-1,3.36-1.45a19.26,19.26,0,0,1,2-.63c.84-.25,1.88-.52,3.25-.82,3.54-.52,2,.47,3.38.21,0,.1.49,0,2.11-.45,2.7-.66,5.37-1.42,8.05-2.12l-3.51-.2c1.68-.78,3.55-1.3,4.5-1.65.47-.17.71-.33.58-.42a5.12,5.12,0,0,0-1.64-.21c2.95.14,10.38-2.06,17.26-4.91,1.74-.64,3.4-1.46,5-2.18l4.43-2c2.64-1.27,4.62-2.3,5.46-2.54,1.05-.77,2.11-1.49,3.21-2.18s2.16-1.46,3.31-2.17c2.28-1.42,4.78-2.75,7.41-4.45-1.44.64-2.9,0,1.7-2.72-.05.82.48,1,1.39.7a15.68,15.68,0,0,0,3.57-1.81c1.39-.87,2.92-1.87,4.41-2.72.74-.42,1.48-.8,2.17-1.12a9,9,0,0,1,1.89-.75c-1.94.7,1.06-1.75,3.77-4.07a23.22,23.22,0,0,0,3.15-3.08c.55-.72.41-1-1-.32,3.54-2.78.85.59,3.86-1.18.92-1,1.95-1.92,2.93-2.94s2-2,3.08-3l3.29-3.05,3.31-3.24c1.12-1.09,2.29-2.17,3.4-3.32l3.31-3.56c1.09-1.22,2.26-2.39,3.26-3.71s2.05-2.61,3.05-4c-.15-.37-1.95,1-.6-1.52,1.94-1.45,3.71-3.05,5.57-4.62a7.82,7.82,0,0,0,.87-2.82,4.62,4.62,0,0,1,.7-1.51A10.7,10.7,0,0,1,436,429c-.62.41-1.53,1-.68-.53,7.84-10.43,13.72-22.55,18.39-35.05s8.21-25.4,11.92-38.28c-1.31,3.44-.95,1.06-.5-1.64-.47,1.73-.85-.18-1.38.1l1.36-5.39c.43-1.81,1-3.61,1.3-5.44-.58-1.07-.38-4-.18-6.88a28.39,28.39,0,0,0,.09-3.95,3.93,3.93,0,0,0-.5-2.25l.14,3.5c-.7-2.36-1.53-.75-2.51,1.29s-2.17,4.53-3.1,4.13a11.25,11.25,0,0,1,0,4.38c-.29,1.6-.83,3.32-1.32,5.14-.25.91-.5,1.85-.72,2.8s-.41,1.94-.62,2.92a21,21,0,0,0-.33,6.21c-.7,1.72-.33-1.66-.94-.78.5,2.23,0,4.74-1.37,9.24l-.08-.56c-.18.8-.35,1.58-.51,2.33s-.4,1.46-.6,2.16l-1.17,3.94c-.72,2.52-1.62,4.76-2.52,7.05-.46,1.14-.92,2.29-1.39,3.48s-1.08,2.39-1.64,3.67c-1.18,2.56-2.4,5.43-4.11,8.7l1.32-.61a28.2,28.2,0,0,1-2.8,4.58c-.2,4,3.75-8.09,3.83-4.42a17.25,17.25,0,0,0-3,4.52c-1.09,2.08-2.43,4.5-3.66,6.92l-.94,1.79c-.33.59-.67,1.15-1,1.69-.67,1.1-1.31,2.13-1.92,3-1.22,1.8-2.29,3.11-3.17,3.4-2.64,4.09,1.71-.63-.94,3.48l-1.2.77,0,1.45a11.29,11.29,0,0,1-2.48,2.71c-.69.51-1.2.69-1.44.59a28,28,0,0,0,1.6-2.57,39.66,39.66,0,0,0-4.51,6.05,41.33,41.33,0,0,1-3.21,4.48c1.05-1.16,2.13-2.29,3.16-3.46-.94,1.36-2,2.72-3,4.11l-1.6,2.1c-.53.71-1.08,1.41-1.68,2.08-2.36,2.71-4.67,5.57-7.25,8.18-1.26,1.33-2.51,2.67-3.75,4s-2.57,2.53-3.82,3.79c-2.44,2.57-5,4.87-7.21,7.23l1-.3c-.87.88-1.61,1.63-2.29,2.25s-1.29,1.09-1.83,1.52c-1.08.85-1.93,1.42-2.81,2l-3,2c-1.25.82-2.81,1.91-5,3.56l.26-.32a29.9,29.9,0,0,1-6.36,5c2-1.91-4.87,1.92-2.16-.51l-1.44,1.11-1.22.85-1.74,1.25a11.41,11.41,0,0,0-1.61,1.37c-.31.34-.51.63-1,1.16a19.49,19.49,0,0,1-2.56,2.46l-1.8.09c-.92.85-1.39,1.38-2.22,2a24.22,24.22,0,0,1-4.47,2.64c3.79-2.42-3.64.4.55-2.41a47.12,47.12,0,0,0-7,2.65c-2,.89-3.71,1.72-5.25,2.51a27.55,27.55,0,0,1-4.28,1.9,10.29,10.29,0,0,1-4.12.45c-2.14,1.81.27,1.3,2.91.49s5.4-2.07,4.12-1.3c1.26-.13.4.62-1.22,1.55a33,33,0,0,1-5.8,2.33,10.73,10.73,0,0,1-2.65.45c-.93.05-1.95,0-3.11,0a31.41,31.41,0,0,0-4.07.24c-.79.1-1.64.24-2.57.44s-1.95.34-3.06.6c.88-.19.91-.35,1.79-.55a22.25,22.25,0,0,0-5,1.2c-.84.27-1.71.53-2.63.73a15.14,15.14,0,0,1-3,.22c-2.08,1.64-5.34.89-5.76,2.57l8.19-1.84c-2.29.62-4.46,1.59-7.06,2.46a24.66,24.66,0,0,1-4.3,1,37.51,37.51,0,0,1-5.32.45,24.18,24.18,0,0,1,4.41-1.54,12,12,0,0,0-3.35.34,9.63,9.63,0,0,1-3.41.27c.13-.42.83-.65,1.87-.91s2.43-.47,4-.68,3.19-.43,4.78-.72a25.31,25.31,0,0,0,4.26-1.3c-1.27-.14-3.55.63-5.29,1s-2.86.55-1.72-.46c-1.66,1.31-3.9,1.52-6.44,1.71a26.37,26.37,0,0,0-8.43,1.15l.35-1a20.18,20.18,0,0,1-4.75.76l3.18-1.31c-4.93,1.16-9.56-.58-14.28-.24,5,.13,5.52.4,5.36.77s-1,.87,1.08,1.16a25,25,0,0,1-3.89.23,19.35,19.35,0,0,1-2.66-.17,12.94,12.94,0,0,1-3.34-.94,24.58,24.58,0,0,0-3.57-1.24,41.12,41.12,0,0,0-7.25-.89c1.85.07,6.9,1.11,4,1.35-1.3-.22-2.8-.42-4.16-.77a22.92,22.92,0,0,1-3.35-1.08c-9-1,1.25,1.14-2.67,1.24-2.92-1.49-4.49-.23-8.54-.55l.15-1c-1.26-.3-2.26-.51-3.06-.64a14.16,14.16,0,0,0-1.82-.28,2.5,2.5,0,0,0-1.59.29c-.65.35-1.18.71-5.7-.72l4.2-.4c-1.61-.27-3.24-.47-4.84-.8l1.24-.8a39.3,39.3,0,0,1-6-1.11c-.83-.23-1.65-.5-2.57-.81s-1.9-.76-3.11-1.24c.93,1-1.19,1.45-5.61,0-2.77-1.62,2-.2-4.2-2.45a11,11,0,0,1,2.57.15,7,7,0,0,1,1.47.51,8.67,8.67,0,0,1,1.69,1c.38-.2,1.58-.11,2-.3-3-1.61-7.87-3.09-10.08-3.93a15.49,15.49,0,0,1,2.28,1.14c-1.54-.38-3.1-.72-4.64-1.13l-4.59-1.34c-1.21-.95,0-.72,1.18-.5a25.74,25.74,0,0,0-2.59-.81,17.92,17.92,0,0,1-3.18-1.18c1-.38,1.17-1.12,4.94.16-2.86-.91-5.62-2.07-8.43-3.17a16.6,16.6,0,0,0-1.82-1.64c-.73-.61-1.21-1.2-.64-1a48.77,48.77,0,0,0-7.84-3.94c-1.46-.72-3-1.48-4.43-2.31a23.9,23.9,0,0,1-4.16-2.81,9,9,0,0,1-2.22-1.08c-1.24-.94-2.41-1.89-3.58-2.83s-2.24-2-3.4-3-2.39-2-3.7-3a46.94,46.94,0,0,0-4.24-3c-.73-1.28-1.51-2.48-2.17-3.8-4.38-3.74,2.89,5.21-4.43-1-2.63-2.2-2.88-2.85-2.64-3.2s.91-.37.23-1.37a67.6,67.6,0,0,1-5.47-4,27.73,27.73,0,0,1-5.68-6.78C136.7,442.81,137.6,444.17,138.94,445.56Zm-36.4-60.72c.32.62.84,1.53,1.27,2.42a4.69,4.69,0,0,1,.74,2.32,3.44,3.44,0,0,1-1.46-1.89C102.85,386.93,102.77,386,102.54,384.84ZM95.94,277.4a11,11,0,0,1-1.23,4.3A19.19,19.19,0,0,1,95.94,277.4Zm242.54-135a.85.85,0,0,0-.16,0C335.37,141,336.41,141.51,338.48,142.4Zm6.17,2.69c.67.13.68,0,.46-.25a11.92,11.92,0,0,1-3.51-1.16A6.33,6.33,0,0,0,344.65,145.09Zm-23,365.3-1.33.05C323.06,509.51,322.32,509.94,321.6,510.39Z"/><path class="cls-1" d="M94.54,289.81a1,1,0,0,1-.62.49C94,290.87,94.17,290.91,94.54,289.81Z"/><path class="cls-1" d="M172.27,474.4l.17.14a.47.47,0,0,0,.28,0Z"/><path class="cls-1" d="M243.9,143.26a11.14,11.14,0,0,1-2.6,0C241.28,143.46,241.91,143.55,243.9,143.26Z"/><path class="cls-1" d="M377.31,159.45c-1.24-.73-2.56-1.34-3.85-2a13.86,13.86,0,0,1,3.19,2.25C376.69,159.46,376.16,158.74,377.31,159.45Z"/><path class="cls-1" d="M403.14,186.57c.52.33.95.89,1.47,1.22l.19-.45C402.88,185.55,401.31,184.56,403.14,186.57Z"/><path class="cls-1" d="M379,164.31c-.08.43.48.95,1.38,1.54.45.3,1,.62,1.58,1l1.81,1.15a4.25,4.25,0,0,1-.43-.31c.68-.21.32-.7-.56-1.33A33.29,33.29,0,0,0,379,164.31Z"/><path class="cls-1" d="M384.3,168.33c.77.5,1.54,1,2.25,1.58C387.1,169.74,385.7,169.18,384.3,168.33Z"/><path class="cls-1" d="M352.73,147.83c1.22.78,1.24-.58,1.85,0,.94-.14-1.37-.84-3-1.16-.8-.17-1.45-.2-1.42-.05A8.74,8.74,0,0,0,352.73,147.83Z"/><polygon class="cls-1" points="379.5 167.84 379.17 166.43 377.33 166.22 379.5 167.84"/><path class="cls-1" d="M359.73,155.56l4.07,2.4c0-.18.59,0,1.28.27C362.51,156.88,359.76,155.25,359.73,155.56Z"/><path class="cls-1" d="M365.08,158.23a27.4,27.4,0,0,0,3.4,1.73C367.75,159.57,366.22,158.69,365.08,158.23Z"/><path class="cls-1" d="M373.93,164.63c-.35-.31-.7-.63-1.06-.92L370,162C371.33,162.87,372.68,163.67,373.93,164.63Z"/><path class="cls-1" d="M311.86,139.1l-5.12-.63c-.57.25.77.7,2.67.91C310.67,139.36,312.58,139.56,311.86,139.1Z"/><path class="cls-1" d="M326.28,145.36a5.93,5.93,0,0,1-2-1.34l-.47,1.15Z"/><path class="cls-1" d="M311.82,142.17c-.57.25-7.4-.31-1.09.73a15.48,15.48,0,0,1,2.46,0c.38,0,.6,0,.45-.12A6.77,6.77,0,0,0,311.82,142.17Z"/><polygon class="cls-1" points="235.56 141.41 236.82 141.11 236.22 139.16 235.56 141.41"/><path class="cls-1" d="M175.92,171.67c5.24-2.77.49-1.85,5.35-4.17.49-.55-.55-.15-1.52.37s-1.95,1-1.46.42C175.53,170.66,173.8,171.43,175.92,171.67Z"/><path class="cls-1" d="M178.29,168.29c.44-.38.9-.79,1.38-1.25A13.75,13.75,0,0,0,178.29,168.29Z"/><path class="cls-1" d="M468,335.37c.28-1.33.4-2.66.59-4l-.75,2.56C468,334.41,468,334.89,468,335.37Z"/><path class="cls-1" d="M466.78,327.64l1.32-.92-1.12-2.4A10.22,10.22,0,0,1,466.78,327.64Z"/><path class="cls-1" d="M101.86,374l-.38-.19c-.16.65,0,1.51.49,3.23Z"/><polygon class="cls-1" points="121.78 420.98 121.32 420.22 121.22 422.24 121.78 420.98"/><path class="cls-1" d="M149.85,453.34c-.61-.63-1.36-1.22-2-1.87s-1.39-1.3-2-2C148.56,452.16,149.18,454.7,149.85,453.34Z"/><path class="cls-1" d="M376.34,162.59l.66-.15a3.25,3.25,0,0,0,.54-.16.83.83,0,0,0,.48-.34c.13-.23,0-.46.18-.56a11.31,11.31,0,0,0-1.43.28,2.49,2.49,0,0,0-.4.15l-.24.14c-.26.18-.31.33-.27.44S376.4,162.68,376.34,162.59Z"/><polygon class="cls-1" points="355.09 174.57 355.28 174.06 352.73 176.54 355.09 174.57"/><path class="cls-1" d="M336.84,186.79c2.5-.17,6.25-5,9.83-6.69l.71-.09.86-1.92C344.31,180.8,339.71,185,336.84,186.79Z"/><path class="cls-1" d="M325.74,192.44c.95-.14-1.58,2.2,2.2-1.89a4.19,4.19,0,0,1-.48.24C327.11,191.15,326.61,191.64,325.74,192.44Z"/><path class="cls-1" d="M327.46,190.79c1.76-1.69-1.48.77,0,0Z"/><path class="cls-1" d="M320,199.66c.56-1,1.09-2.06,1.7-3-.73.27-2.63,2.76-2.14,1.68-.24.38-.44.7-.6,1s-.27.53-.35.73c-.16.39-.19.59-.12.64S319.19,200.32,320,199.66Z"/><path class="cls-1" d="M319.06,203c.25-.55.52-1.07.78-1.61C319.56,201.55,319.25,201.91,319.06,203Z"/><path class="cls-1" d="M321.67,198.08c-.63,1.09-1.28,2.11-1.83,3.28.48-.28.85-.09.85-1.51C320.85,200.34,321,199.53,321.67,198.08Z"/><path class="cls-1" d="M323.16,196.64a12.7,12.7,0,0,1,1.9-1.48c.39-.19.35.08-.55,1.44,2-2.34,2.71-3.43,2.38-3.45S325.14,194.2,323.16,196.64Z"/><path class="cls-1" d="M336.88,188.65c.67-.38,1.36-.72,2.05-1.07L340.2,186C339.56,186.78,336.48,188.36,336.88,188.65Z"/><path class="cls-1" d="M313.84,220.1c.31.19.87-.76,1.26-.94-.08-.63-.21-1.26-.33-1.89C314.59,218.25,314.32,220,313.84,220.1Z"/><path class="cls-1" d="M315.1,219.16c.07.47.13.94.17,1.41s.08,1,.09,1.42C315.74,219.51,315.41,219,315.1,219.16Z"/><path class="cls-1" d="M320.13,204.3a42,42,0,0,1,2.47-5.56c-.56,1.08-1.16,2.08-1.64,3.21-.25.56-.51,1.1-.74,1.65l-.64,1.73Z"/><path class="cls-1" d="M311.93,227.17a1.93,1.93,0,0,0-.4-.67,1.93,1.93,0,0,1,.44,1.18A2.71,2.71,0,0,0,311.93,227.17Z"/><path class="cls-1" d="M310.73,227.69a2,2,0,0,0,.2-.85,3.18,3.18,0,0,1,.18-.65.92.92,0,0,1-.91.53C310.6,226.86,310.49,226.94,310.73,227.69Z"/><path class="cls-1" d="M308.92,225.45a5.15,5.15,0,0,0,.68.86l.18.21c.07.07.14.15.17.14a2.27,2.27,0,0,0,.25.06l-.17-.09s0,0,0,0l-.09-.1-.17-.21C309.48,226,309.2,225.76,308.92,225.45Z"/><path class="cls-1" d="M314.11,226.35a2.49,2.49,0,0,0-.58.33,2,2,0,0,0-.41.29l-.21.21-.16.1a3.4,3.4,0,0,0,.46.06c.17,0,.35-.1.54-.16l.17-.35Z"/><path class="cls-1" d="M313.78,227.17h0a4.37,4.37,0,0,1-.39.7l-.22.3.21-.27.16-.25A3.34,3.34,0,0,0,313.78,227.17Z"/><path class="cls-1" d="M314.21,226.12c0,.09-.06.15-.1.23S314.27,226.25,314.21,226.12Z"/><path class="cls-1" d="M316.42,214c.06.32.12.68.18,1.06a3.5,3.5,0,0,0,.11.46l.12.4c.15.53.32,1,.45,1.39.27.7.62.76.91-1.11-.32-.64-.56-.42-.83-.39a.44.44,0,0,1-.43-.2,1.38,1.38,0,0,1-.25-.47C316.6,214.84,316.51,214.47,316.42,214Z"/><path class="cls-1" d="M315.63,225.22a26,26,0,0,0,.82-2.92c-.24,0-.64.52-.76-.33A23.45,23.45,0,0,1,315.63,225.22Z"/><path class="cls-1" d="M315.43,226.66c.1-.46.13-1,.2-1.44l-.4,1Z"/><path class="cls-1" d="M309.55,228.35a1.17,1.17,0,0,1-.73-.42,3.36,3.36,0,0,1-.33-.44s-.05-.07-.08-.13l-.12-.24-.25-.49a11.22,11.22,0,0,0,.62,1.62,3.43,3.43,0,0,0,.74,1C309.66,229.09,310.05,228.81,309.55,228.35Z"/><path class="cls-1" d="M311.77,229.3l-.1.1C311.75,229.46,311.82,229.46,311.77,229.3Z"/><path class="cls-1" d="M294.08,210.37a3.74,3.74,0,0,1,.31.27.69.69,0,0,1,.13-.11A3.29,3.29,0,0,0,294.08,210.37Z"/><path class="cls-1" d="M309.43,229.51a.88.88,0,0,0,1.31.28,1.86,1.86,0,0,1-1.34-.52C309.3,229.35,309.24,229.42,309.43,229.51Z"/><path class="cls-1" d="M306.74,220.52c.16.52.26,1.08.38,1.65.06.28.11.57.18.87l.09.44,0,.29c0-.09,0-.18,0-.29s0-.31,0-.48c0-.34-.09-.71-.15-1.06A2.75,2.75,0,0,0,306.74,220.52Z"/><path class="cls-1" d="M311.46,229.17l.07-.06C311.34,228.93,311.38,229,311.46,229.17Z"/><path class="cls-1" d="M311.46,229.17c-.24.2-.46.43-.72.62a1.41,1.41,0,0,0,.93-.39A.67.67,0,0,1,311.46,229.17Z"/><path class="cls-1" d="M287.11,214.72c.08-.19.37-.38.85-.52a6.82,6.82,0,0,1,1.85-.19,8.37,8.37,0,0,1,4.73,1.7c1.63.44,2.32,0,2.32-1.05a6.26,6.26,0,0,0-2.47-4c-.12.14-.2.27-.78.3a10.28,10.28,0,0,1-1.3-.07c-.59,0-1.37-.08-2.38-.12.33.14,1,.42,1.84.69a17.2,17.2,0,0,1,2.41,1.14,4,4,0,0,1,1.41,1.08c.15.26-.06.31-.88.16-.61-.18-1.12-.36-1.57-.47l-1.13-.3a11.82,11.82,0,0,1-1.37-.46,9.81,9.81,0,0,0-2.21-1c.5.3.33.5-.16.65s-1.31.32-2.14.53c-1.65.42-3.28,1.11-2.7,1.77.65-.14,1.3-.31,2-.39l1-.15,1-.09C287.46,214.17,286,214.47,287.11,214.72Z"/><path class="cls-1" d="M301.68,215.12a13.25,13.25,0,0,1,1.37,1.33c-.3-.46-.63-.85-.94-1.24s-.6-.82-1-1.2L300,212.73c-.43-.43-.91-.89-1.47-1.41a11,11,0,0,0-3.07-.88,1.55,1.55,0,0,0-1,.09,19.46,19.46,0,0,1,7.71,5Z"/><path class="cls-1" d="M306.87,223.75a1.72,1.72,0,0,1-.47-.47c-.17-.2-.35-.43-.52-.66a8.69,8.69,0,0,0-1-1.29c-.67-.7-1.11-.87-1,.43.52,1.1.76,1.87,1,2.4a3.38,3.38,0,0,0,.58.87,6.9,6.9,0,0,1,1.25,1.52,10.44,10.44,0,0,1-.77-2.18c0-.19.14,0,.34.31.39.56.92,1.23.51-.86.48,1.07.85,2,1.25,2.81a16.76,16.76,0,0,1-.61-2.86c0,.06,0,.1,0,.14v0h0c0,.26-.06.36-.09.08a.37.37,0,0,1-.05-.11,1,1,0,0,1-.4-.16c-.06-.28-.11-.49-.15-.65s-.06-.3-.07-.37,0-.1.1,0,.17.38.28.63a3.65,3.65,0,0,0,.24.51l.14,0v0l-.74-1.82a15.39,15.39,0,0,0-1-2,14,14,0,0,0-1.2-1.89,15,15,0,0,0-1.44-1.75l.91,1.25,1,1.57c.35.58.64,1.25,1,2,.19.37.31.78.48,1.2S306.7,223.3,306.87,223.75Z"/><path class="cls-1" d="M320.05,219.68c-.09.2-.15.19-.21.2C319.92,220.32,320,220.49,320.05,219.68Z"/><path class="cls-1" d="M319.27,222.36a6.25,6.25,0,0,1-.13-2.45c.31-1.34.41,0,.7,0-.18-1-.53-3.29-1-.39l.09.46a12.8,12.8,0,0,1-1.28,3.7c-.5,1-1,1.54-1,1.33A6,6,0,0,0,319.27,222.36Z"/><path class="cls-1" d="M311.84,232.27a4,4,0,0,1-3.72-.69,6.32,6.32,0,0,0,1.63,1.93l0-.54c1.18.47,1.72.19,1.89,0S311.73,232.49,311.84,232.27Z"/><path class="cls-1" d="M293.42,209.74c.39-.21.79-.41,1.2-.61-.76,0-1.51,0-2.23.06s-1.44.14-2.13.25A24.62,24.62,0,0,1,293.42,209.74Z"/><path class="cls-1" d="M284.48,208.94l.28-.81c-.78.18-1.53.44-2.28.66Z"/><path class="cls-1" d="M298.56,462.43a14.25,14.25,0,0,1-2,.08c.46,0,.84,0,1.17,0A8.12,8.12,0,0,0,298.56,462.43Z"/><path class="cls-1" d="M315.17,457.7l.24-.54C314.76,457.69,314.49,458,315.17,457.7Z"/><path class="cls-1" d="M366.68,288.16c.14,2.26-.13,5.1.63,4.55l.58-1A16.55,16.55,0,0,1,366.68,288.16Z"/><path class="cls-1" d="M384.45,387.83l.56-.51c0-.66,0-1.29-.05-1.83C384.83,386.19,384.67,387,384.45,387.83Z"/><path class="cls-1" d="M386.83,391l-2.08,2.6A22.58,22.58,0,0,0,386.83,391Z"/><path class="cls-1" d="M321.91,406.58c0-.66,0-1.31-.06-2C320.7,407.09,321.6,406.2,321.91,406.58Z"/><path class="cls-1" d="M288.67,251.46c-.1.53-.16.91-.2,1.23,0,.16,0,.31,0,.43v.18c0,.19.05.37.08.54v-.49a.34.34,0,0,1,.07-.19c0-.11.09-.23.13-.35a4.61,4.61,0,0,0,.22-.73C289.05,251.63,289,251.3,288.67,251.46Z"/><path class="cls-1" d="M308.46,450.48a2.7,2.7,0,0,0-.89.89C308.15,451,308.45,450.71,308.46,450.48Z"/><path class="cls-1" d="M289.83,260.08c0-.4-.05-.79-.07-1.19a28.71,28.71,0,0,1-1.24-5A12.37,12.37,0,0,0,289.83,260.08Z"/><path class="cls-1" d="M211.85,247.61c-.12-.15-.29-.3-.39-.44C211.34,247.22,211.54,247.39,211.85,247.61Z"/><path class="cls-1" d="M184.61,183.49c.23.63.57,1.67.88,2.65A16.6,16.6,0,0,0,184.61,183.49Z"/><path class="cls-1" d="M255.61,226.1c.88-1.8.06-.33,0,0Z"/><path class="cls-1" d="M263.61,221.06c-.18.32-.29.6-.18.77A1.13,1.13,0,0,1,263.61,221.06Z"/><path class="cls-1" d="M301.37,272.69l.08.11C301.29,272.33,301.31,272.41,301.37,272.69Z"/><path class="cls-1" d="M257.43,223.73a11.61,11.61,0,0,0-1.49,2C256.19,225.43,256.61,224.77,257.43,223.73Z"/><path class="cls-1" d="M256.87,223.84a16.57,16.57,0,0,1,1-1.37C258,222.21,257.69,222.26,256.87,223.84Z"/><path class="cls-1" d="M254.53,228.74a15,15,0,0,1,1.41-3c-.24.32-.36.44-.33.34a7.92,7.92,0,0,0-.45,1C255,227.55,254.77,228,254.53,228.74Z"/><path class="cls-1" d="M297.36,315.33c.05-.09.09-.19.15-.28C297.44,313.58,297.39,314.18,297.36,315.33Z"/><path class="cls-1" d="M397.25,314.55l-.17-.09.16.18Z"/><path class="cls-1" d="M402,318.31a11.84,11.84,0,0,1-4.78-3.67c-.06,1.08-.13,2.11-.25,3.16C398.64,317.89,400.32,318.06,402,318.31Z"/><path class="cls-1" d="M302.1,435.85l-1.56,1.23-.19.16-.27.23-.56.5-1.12,1c.44-.77.92-1.53,1.37-2.23.26-.48.52-.92.76-1.33.48-.8.88-1.43,1.12-1.86.49-.87.32-.92-1.26.11.43.54,0,1.54-.75,2.77-.07.12-.3.43-.47.66l-.58.75-1.26,1.6c-.94,1.19-2.11,2.56-3.1,3.86a23.63,23.63,0,0,0-4,7c-.47,1.73-.22,2.69.52,2.57-.23.49-.42,1-.62,1.49s-.3,1-.38,1.49a9.86,9.86,0,0,1,0-1.63,4.38,4.38,0,0,0-.23,3.1,3.67,3.67,0,0,0,1.21,1.57,10.33,10.33,0,0,0,2.27,1.37,19.27,19.27,0,0,0,3.79,1.07c.53.16,1.07.2,1.48.32a7.1,7.1,0,0,1,1,.24c.44.16.33.37-.69.53a25.34,25.34,0,0,0,6.83-1.74c1-.24,1.33-.21,1.18,0a4.74,4.74,0,0,1-1.84.71,65.86,65.86,0,0,0,10.7-4.3s0,.07,0,.1c.86-.87,2.85-2.59,3.81-3.41,1.95-.56-.75.72-.15.78q1.79-1.27,3.53-2.6c1.88-.24-.93,2.11-3.68,3.39a4.56,4.56,0,0,0,4.34-1.3,20,20,0,0,1,6.94-3.91c-1.12.8-2.24,1.59-3.38,2.36,3.09,0,5.56-2.05,10-3.75-1.22.27-9.21,2.75-5.52-.22a13.33,13.33,0,0,0,4.63-3.19c.53.79,2.54-.72,5.09-2.54l.55,1.17c2.57-2.28,2-2.65,3.25-4.27,3.1-2.15,4.29-1.89,5.53-1.78,4.93-3.59-4.27,1.36,1.19-3.29,4.16-2.86,6.54-5.58,10.24-10.35,2.8-2.15.12,1,1.27.36.5-1,1-1.93,1.46-2.93.53-.54.59-.15.62.05,1.5-2.18-.77-1,1.76-4.26-.17-.89,1.59-2.11,3.66-3.77a31.2,31.2,0,0,0,3.05-2.86,11,11,0,0,0,2.17-3.5c1.05-.79.27,1,.89.94,1.68-3.13,2.36-4.48,2.93-5.72a52.5,52.5,0,0,0,1.9-5.17c1.11-1.22,2.16-2.48,3.22-3.75-2.65,2.6-1.24-1.9-.3-5.81-1,.9-1.84,1.63-2.35,2.16.81-1.92,1.54-3.88,2.14-5.78.45-.59.68.14.72,1.28a8.34,8.34,0,0,0,.17-1.16c1.25-1.86,1.55-.58,1.57,1.25-.56.61-1.12,1.2-1.69,1.74,0,1.73.06,3.44.87,3.5a10.62,10.62,0,0,1,.66-2c0,.46,0,.79.25.67s.28-.83.45-2q1-.37,1.95-.81l-.37-.57a39.91,39.91,0,0,0,1.93-4.08c.59-1.41,1-2.72,1.52-3.87a25.45,25.45,0,0,1,.19-3.75,12,12,0,0,1,.45-1.92,13.28,13.28,0,0,1,.77-2.05,30.47,30.47,0,0,1,6.73-9c-1.05,2.28.75,1.61,1.46,2.63-2.73.63-5,5.06-7.71,8.2,1.5-1.66,1.62-.88,1.45-.32a50.32,50.32,0,0,1,4.74-6.51c.52.87,1.83-.6,3.75-1.69-.63-.11-.71-.49-.43-1a20,20,0,0,1,1.89-2.36,27.44,27.44,0,0,0,2.45-3.28,13.61,13.61,0,0,0,1.57-3.33c.34,0,.62.33.43,1.18a9.74,9.74,0,0,1-2.38,4.19,6.75,6.75,0,0,0,2.85-5.6,16.9,16.9,0,0,1,1-6c-.11,1.17-.38,1.76-.14,2.29.09-1.41.27-3.73.37-5.53s.13-3.09.53-2.35c0,.39.1.78.12,1.18a26.29,26.29,0,0,0-1.2-6.87,31.74,31.74,0,0,0-3.16-7c-2.53-4.19-5.54-6.91-6.51-6.78a6.24,6.24,0,0,1,2.75-.42,50.53,50.53,0,0,0-12.9-4.86c.87-.24,1-1.67,1.59-2.71s1.55-1.69,4.17,0a18.41,18.41,0,0,0-6.16-4.6c.94.83,1.22,3.43-.15,2.61a16.38,16.38,0,0,0-2.59-3.11l-.55-.49-.54-.56c-.2-.22-.44-.46-.7-.78l-.82-1.17c.44.53,0,1-.76,1.2a2.54,2.54,0,0,1-1.36-.14,3.16,3.16,0,0,1-.75-.35,3.65,3.65,0,0,1-.65-.6c.5,0,1.55-1.66,2.26-1.23a19.14,19.14,0,0,1-5.23-3.39c.58.57,1,.38,1.31-.12a4.35,4.35,0,0,0,.45-2c-.06.38-.63-.74-1.21-2.23s-1.16-3.35-1.55-4.12c.13.91.27,1.82.42,2.71a15,15,0,0,0-3.76-6.44,20.63,20.63,0,0,1-4.32-6.35,2,2,0,0,0,1.91.19c.6-.32,1-1.21.06-3.15a37,37,0,0,0-6.07-2.61c-.71-.2-1.38-.45-2.13-.6l-1.07-.26-1.1-.21c-.71-.17-1.47-.23-2.17-.38s-1.45-.22-2.15-.37l-.88-1a30,30,0,0,0-4.65-.18,19.87,19.87,0,0,1,8.05-1.53,18.08,18.08,0,0,1,2.7.25,19,19,0,0,1,2.69.72,17.77,17.77,0,0,1,2.46,1.09,16.71,16.71,0,0,1,2,1.29c-.88-1.45-1-1.73-1.19-2.14s-.65-1-2.79-2.5c-.61-.75.14-.61,1.17,0a17,17,0,0,1,1.62,1.09c.5.42,1,.82,1.25,1.1a25.21,25.21,0,0,0-4.86-4.11,28.61,28.61,0,0,0-5.59-2.68c0,.37-.54.45-1.37.41s-1.93-.08-3-.15a26.08,26.08,0,0,0-2.92.08c-.76.11-1.24.29-1.16.57l1.45-.05,1.48,0a28.32,28.32,0,0,1,3,.23c1,.08,2,.35,3.07.54.51.12,1,.29,1.55.43a12.89,12.89,0,0,1,1.55.53c-.08.72-2.17.62-5,.58s-6.29-.05-9.83-.26c-1.82-.56,1.44-2.37,1.35-2.8a24.62,24.62,0,0,1-4,.53,20.39,20.39,0,0,1-3.72.19c1-.33,2-.65,3.09-.91a10.77,10.77,0,0,0-1.5,0,12,12,0,0,0-1.38.23,21.77,21.77,0,0,0-2.57.76,25,25,0,0,1-2.69.74,13.89,13.89,0,0,1-3.26.19c-1.64.22-5.19-.63-5.27.21,3,.87,4.45,5.42,3.05,6.91l-4.65.25a36.93,36.93,0,0,1-5.75,0c-2.8-.58,3.15-3.68.75-4.18,0,.38-1.28,1.14-1.83,1.42-1.65,0,.39-1.23-2.95-.39-.16.72-1.89,1-2.86,1-.49,0-.78,0-.64.07a14.35,14.35,0,0,0,2.09.3,9.48,9.48,0,0,1-3.45.31c-.46-.07-.92-.14-1.51-.2l-.93-.17-.55-.07-.6-.14c.22.28.12.56-.25.81a3.61,3.61,0,0,1-1.82.53,7.49,7.49,0,0,1-2.77-.32c-.47-.18-1-.38-1.41-.6a7.78,7.78,0,0,1-1.23-.83c.41-.11.11-1,0-1.41a23.14,23.14,0,0,1-4.08-8.06c-.73-2.62-1.37-5.18-2-8.48.15-.67,0-3.92.79-2.68-.2-.46-.45-.85-.71-1.45a12.12,12.12,0,0,1-.74-2.78c.1-1.35.2-1.76.33-1.56a9.2,9.2,0,0,1,.41,1.75,9.54,9.54,0,0,0,.54,2c.2.38.39.33.55-.83-.29-.06-.66-.95-1-2.16-.18-.6-.37-1.29-.55-2-.09-.36-.19-.72-.28-1.09l-.14-.55-.07-.27c0-.1,0-.19-.13-.2l-3.93.38c.22.48,1.41.66,3.07.61l.09,0,0,.12,0,.22c0,.15.06.31.1.46.06.31.13.62.21.94.15.64.32,1.3.49,2s.37,1.33.57,2l.29.93.25.72a1.3,1.3,0,0,1-1-.31,7.36,7.36,0,0,1-1.12-1.2,16.28,16.28,0,0,1-1.08-1.62l-.51-.89-.24-.44-.12-.23-.06-.11,0-.06-.1,0a36.31,36.31,0,0,1-4.37.74,11.13,11.13,0,0,1-1.52,0,6.68,6.68,0,0,1-1.07-.14c-.52-.12-.67-.27-.67-.42,0-.3.59-.57.08-.49a39.86,39.86,0,0,0-9.94-.18,13.14,13.14,0,0,1-3.51-.1,15.12,15.12,0,0,1-5.15-2c-1.59-1.33-1.33-1.84-.81-2.13s1.31-.41,1.12-.94c2.2.82,3.83,1.49,5.32,2.15a20.23,20.23,0,0,0,4.38,1.49c-1.24-.42-2.48-.85-3.69-1.36a27.76,27.76,0,0,1,6.19,1,26.68,26.68,0,0,0-4-1.21,47.77,47.77,0,0,1-6.54-2.11,20.81,20.81,0,0,1-3.43-1.8,11.36,11.36,0,0,1-2.77-2.62,6.75,6.75,0,0,1-1.16-3.3,6.48,6.48,0,0,1,.14-1.61c.06-.25.11-.49.17-.73l.28-.69a20.46,20.46,0,0,1,.28-2.34c.13-.65.12-1.05-.36-.61a10.74,10.74,0,0,0-.47,1.23,7.94,7.94,0,0,0-.38,1.26c-.37.53-.55.49-.62.14a4.49,4.49,0,0,1,.1-1.58c.22-1.18.53-2.27-.39-.71a19.46,19.46,0,0,1,2.45-5.79,16.25,16.25,0,0,1,5.29-5.12c.5.12,1,.28,1.51.43-.31-.3-3.21,1.44-4,2.78.61-1,2.43-2,4.24-2.85.9-.46,1.83-.85,2.58-1.33a4.73,4.73,0,0,0,1.77-1.57,35.21,35.21,0,0,0-3.64,1,33.34,33.34,0,0,1,5.17-3.82,17.3,17.3,0,0,1,6.81-2.34,2.91,2.91,0,0,0-1.93-.17,8.06,8.06,0,0,1-2.94.06c1.73.4-1.35,1.23-4,2.45s-5,2.67-2.42,2.22a10.23,10.23,0,0,0-4.86,1.82c-1.48.94-3,2.07-5.22,3.51.2.07.65-.13.65,0s-.11.27-.41.63-.79.92-1.5,1.8a10.3,10.3,0,0,1-.29,1l-.19.25.18-.19c-.06.2-.06.22.06-.07a6,6,0,0,1,1.84-1.44c-.3,1.14-1.49,3-2.31,5.19a18.75,18.75,0,0,0-1,3.28c-.05.27-.11.52-.14.79s0,.54,0,.79a7,7,0,0,0,0,1.25c0,1.5-.16,1.22-.33.72s-.36-1.19-.55-.31a9.74,9.74,0,0,0,.59,2.1c.14.33.27.66.42,1l.56.9a1.89,1.89,0,0,0,.07,1.48c.1.34.23.72.36,1.08l.45.94c.26.55.38.91.06.77a7.35,7.35,0,0,1-2.33-2.51c.33.55.65,1.11,1,1.61s.8,1,1.22,1.45.82.76,1.24,1.13.83.64,1.26,1a18.76,18.76,0,0,0,9.45,4.48c2.32.86,6,.32,3.9.62,2.59.34,5.13.52,7.65.6l0,.23c.92.12,1.85.19,2.79.24l1.41,0h.89s0,0,0,0h.13l2.4-.27a8.82,8.82,0,0,1,.46,2.37v.23l0,.18.08.77c.06.51.11,1,.14,1.55.11,1.05.2,2.12.23,3.22l3.13,9.13-.37,1.13c.39.78,1,1.81,1.46,2.93.28.55.64,1.13,1,1.72l.51.87.6.85c.43.56.79,1.11,1.25,1.6s.91.92,1.33,1.3a5.81,5.81,0,0,0,2.18,1.31,9.65,9.65,0,0,0,4.66,3.26,19.94,19.94,0,0,0,7.56,1c5.07-.31,9.3-1.81,12-2.24l0-1c3.69-.84,7-2,11.16-3.27l-.43-.83c3.62-1.46,9.69-1,15.23-.51-.41.32-1.79.09-2.82-.1.42.13.84.23,1.26.34s.83.22,1.25.31c.84.14,1.64.31,2.46.42s1.59.28,2.41.35,1.58.25,2.29.47a11.16,11.16,0,0,1,4.08,1.74,6.8,6.8,0,0,1,2.58,3.27,5.4,5.4,0,0,1,1.72,2.94,1.2,1.2,0,0,0-.2-.3l.25.55c.15.64.26,1.34.41,2.09a7.59,7.59,0,0,0-.27-1.8l2.13,4.32-.65,1.07.17.4c.27,1.87.92,1.28,1.28.09a18.5,18.5,0,0,0,1.37,2.24c-1,2,2.18,4.74,1.64,7.5.65.49,1.93,2.91,3.72,5s4.06,3.81,5.05,3.52c-.09.21.32.73-.56-.05a14,14,0,0,0,4.22,3.29,9.51,9.51,0,0,0,1.34.52c0,.49.07,1,.09,1.49a44.15,44.15,0,0,1,4.6,1.23c1.71,2.31,2.19,3.34-.42,2.37a22.86,22.86,0,0,1,4.87,3.1c.92.78,1.78,1.41,4.09,3.15l-.79.28c.62.76,1.62,1.61,2.43,2.5a4.67,4.67,0,0,1,1.51,2.44c.21,1.15,1,2.89,1.72,5.1a27.63,27.63,0,0,1,1.59,7.8,16,16,0,0,1-.38,4.3,13.37,13.37,0,0,1-1.55,4,14.45,14.45,0,0,1-1.18,1.78,17.72,17.72,0,0,1-1.44,1.55l-.77.7c-.27.22-.55.42-.82.62-.49.37-1.19.86-1.83,1.29,1.66.11.41.85-1.17,1.77s-3.46,2.16-3,3c-.9.12-2.41,1.18-1.26-.64-2.16,2.46-4,4.31-5.5,6.32a11.28,11.28,0,0,0-2.48,6.89c-.77.62-.32-1.7-.85-1.1,0,.3-.08.87-.18,1.45a3,3,0,0,1-.47,1.37c-.24.27-.29,0-.28-.44,0-.23,0-.52.06-.81s.06-.64.1-.93a18.36,18.36,0,0,0-.51,2.26,12.36,12.36,0,0,0-.17,1.55,6.1,6.1,0,0,0,.2,2,4,4,0,0,0,1.67,2,16.75,16.75,0,0,0-1.9,3.1,9.06,9.06,0,0,0-.67,3.17c-1,.71-2.32,2-.67-1.4l-1.52,2.5-2.35,3.72c-1.58,2.57-3.07,4.92-2.58,5.39a9.14,9.14,0,0,0-2,2.95c-2.92,3.84-3.29,4.09-6.19,7.84l1-.89a3.83,3.83,0,0,1-1.44,2.91c-.89.87-2,1.86-3.26,3.31l-.05-.19c-1.71,1.42-2.68,2.32-3.33,2.95a12.07,12.07,0,0,0-1.24,1.37,9.47,9.47,0,0,1-1.24,1.32c-.33.3-.75.66-1.31,1.1s-1.3.92-2.2,1.54l1,.38c.39,1-1.21,2.16-3.39,3.4a30.72,30.72,0,0,0-6.6,4.51l1.78-.69c-.87,1.12-2.83,1.77-4.84,2.27s-4.14.78-5.31,1.46c-.59.19.59-.78,1.19-1.37-3.22,1.57-3.27,1.9-3,2.33s.86.87-1.31,2.45c-1.19,0,.12-2.13-2.93-.31-1.73.5-7.83,7.36-12.8,8.45,1.19,0,2.39-.08.38,1.43a17.29,17.29,0,0,1-3,1.3l-1.76.57-.45.15-.3.07-.58.12a5.16,5.16,0,0,0-3.42,1.81.29.29,0,0,1-.12-.42,15.88,15.88,0,0,1-3.8,1.61,9,9,0,0,1-2.5.37c-.83,0-1.41-.27-1.9-.29a19,19,0,0,0,4.21-6.34,14.24,14.24,0,0,1,1.79-2.8c.78-.87,1.43-1.22,2-.75,1.95-2.36,3.9-4.75,5.81-7.18l.09.39c3.9-4.49,4.59-6.65,5.25-8.76,1-1,.61,0,.67.19a45.65,45.65,0,0,0,5.39-7.24,36.85,36.85,0,0,0,2.94-7.56l1.24-.21c.23-1,2.06-3.68,3.84-7.47a30.89,30.89,0,0,0,2.25-6.49q.19-.9.36-1.8c.07-.62.12-1.24.16-1.86a17.56,17.56,0,0,0-.12-3.7c.11.09.3.28.43,1.06a39.13,39.13,0,0,0-1.54-8.84c-.27-.74-.46-1.53-.79-2.25s-.69-1.45-1-2.16a15.46,15.46,0,0,0-1.22-2,14.31,14.31,0,0,0-1.33-1.85,20.87,20.87,0,0,0-2.94-3,14.76,14.76,0,0,0-2.94-2,12.64,12.64,0,0,0-2.64-1.06,4.4,4.4,0,0,0-2.16.09c-2.24-.79-4-1.18-5.93-1.86a12.72,12.72,0,0,1,2.63,1.69c.21.28-.13.35-.62.37-1,.06-2.49-.22-1.15.8a12,12,0,0,1-3.93-2.71c-.4-.43-.6-.77-.5-.88s.5,0,1.33.46l.4.47c1.07-.48-.93-1.78-2.83-3.34s-3.66-3.44-3.12-3.79a22.77,22.77,0,0,1-5.22-8.93,30.27,30.27,0,0,1-1.24-10.36,56.43,56.43,0,0,1,1.51-10.59c.79-3.52,1.81-7,2.81-10.6l-1.86,1.28c.47-1.66,1-3.32,1.4-5.11.33-.66.7-1.14.9-.89s.19,1.21-.31,3.06a7.23,7.23,0,0,0,.82-4.22,10.65,10.65,0,0,0-.47-2.69c-.09-.25-.18-.49-.27-.69a6,6,0,0,0-.34-.61,2.12,2.12,0,0,0-.51-.58,3.9,3.9,0,0,0-2-1.59,4.37,4.37,0,0,0-.94-.23l-.42,0H299l-.56,0c-.1,0-.07,0-.11,0l-.14-.06a.35.35,0,0,1-.22-.28c0-.19.16-.36.25-.56a3.49,3.49,0,0,1,1-.21,6.46,6.46,0,0,1,1.07,0,3.07,3.07,0,0,1,.63.13,5.9,5.9,0,0,1,.67.23,5.3,5.3,0,0,1,2.19,1.74,4.69,4.69,0,0,1,.33.49l.21.4a6.57,6.57,0,0,1,.32.73c.12.36.22.69.28.92a1.7,1.7,0,0,0,.1.37c0,.05,0,0,0-.08A3.32,3.32,0,0,0,305,311c0-.19-.09-.37-.14-.56a7.19,7.19,0,0,0-.27-.71l-.17-.35a2,2,0,0,0-.22-.39,6.18,6.18,0,0,0-.62-.83,5.55,5.55,0,0,0-1.82-1.34,7.55,7.55,0,0,0-1-.35,5.26,5.26,0,0,0-.83-.13,5.39,5.39,0,0,0-1.35,0l-.29,0-.12,0h0s0,.05-.06,0a.59.59,0,0,0,.07.16.93.93,0,0,1-.85.65c-.49,0-1.26-.18-2.49-1.51-.68-1-.68-1.36-.61-1.57s.24-.27,0-.66c.09-.07-.07-.31-.81-1.22a45.39,45.39,0,0,1-2.79-5.23c0,.9,0,1.8.08,2.7-1.8-2.12-2.48-5.3-2.46-2.1a11.66,11.66,0,0,0-.45-2.61c-.14-.53-.31-1.11-.49-1.72l-.12-.44-.08-.31c-.06-.21-.11-.42-.17-.63l-.12-.43c0-.15-.11-.29,0-.43a8.68,8.68,0,0,0,.34-.84l.07-.19,0-.05.05-.18.22-.75c.12-.5.25-1,.34-1.53a25,25,0,0,0,.41-3.11,25.16,25.16,0,0,0-.93-8.6c-.27-.78-.46-1.52-.74-2.13-.48-1.26-.92-2.15-1.08-2.64a43.49,43.49,0,0,0-10.79-9.56c.51.45.75,1.05.39,1.22s-1.24-.13-3.18-1.17c1.35-.81-.34-2.08-2.82-3.3-1.24-.6-2.66-1.18-4-1.79a12.16,12.16,0,0,1-3.25-1.89c1.42,1-1.71.29-4.6-.16a21.28,21.28,0,0,0-3.6-.3c-.74.09-.82.34.33,1-3.57-.75-.05-1-2.73-2.05-2.21-.09-4.5-.15-6.86-.41-1.08-.15-2.16-.32-3.25-.5-.55-.11-1.11-.16-1.65-.32l-1.63-.47a54,54,0,0,1-6.53-2.37c-1-.53-2.12-1.05-3.2-1.54s-2.1-1.15-3.19-1.69c-.32.23.87,1.51-1.25.92-.63-.66-1.15-1.46-1.72-2.17s-1.1-1.42-1.61-2.17a4.73,4.73,0,0,0-2.17-.56c-.7-.16-1.55-.5-2.44-2.21.17.56.44,1.42-.61.6-.82-.93-1.7-1.78-2.5-2.73s-1.62-1.88-2.44-2.81c-1.56-1.94-3.17-3.85-4.65-5.89a123.65,123.65,0,0,1-8.4-12.75c-5-8.95-9-18.72-10.55-28.93.21,2.84-.45,1.12-1.1-.9.26,1.36-.83.23-1.21.63-.45-2.87-.81-5.75-1.14-8.62-.84-.58-1.45-2.81-2-5s-1-4.24-1.7-4.55l.81,2.62c-1.13-1.61-1.66-.2-2.15,1.64s-.87,4.09-1.86,4.06c1.34,1.81,1.42,4.61,1.79,7.72s1,6.54,3.25,9.38c.14,1.56-1-1-1.17-.1,1.37,1.37,2.2,3.29,3.27,7l-.34-.34,2.75,6.73,1.19,2.94c.39.95.78,1.89,1.18,2.84.75,1.92,1.65,3.83,2.6,6s2.18,4.53,3.77,7.25l.31-1.29a31,31,0,0,1,1.9,4.15c1.47.86.4-.7-.62-2.31s-2-3.33-.55-2.56a10.69,10.69,0,0,0,1.71,4.22c.51.85,1.09,1.76,1.7,2.69l2,2.76c.67.94,1.4,1.82,2.09,2.67s1.31,1.67,1.86,2.43c1.16,1.45,1.94,2.7,2,3.53,1.48,1.53,1.5,1.06,1.44.67s-.07-.81,1.47.62l.43,1.2,1.29.15c2,1.88,2.7,3.3,2.46,3.78a26.83,26.83,0,0,0-2.21-1.53,17.84,17.84,0,0,0,2.33,2.19,24.23,24.23,0,0,0,3,2c1.94,1.25,3.82,2,4.31,2.43a34.42,34.42,0,0,1-3.38-2.47,62.47,62.47,0,0,0,17.49,7.33l2.39.54c.79.18,1.61.22,2.41.33,1.57.18,3.29.39,4.61.44s2.79.12,4.13.22,2.66.14,3.94.19l-.69-.56a34.82,34.82,0,0,1,4.37.51,20.92,20.92,0,0,1,2.59.78c.78.25,1.56.59,2.65,1s2.47.85,4.45,1.47h-.32a14.28,14.28,0,0,1,5.73,2.07c-1-.32-.3.42.3,1.09s1.09,1.28-.16.86a32.22,32.22,0,0,1,3.36,1.88c.69.39,1,.59,1.32.72a8.27,8.27,0,0,1,3.32,1.71c0,.48,0,.93,0,1.38a8.92,8.92,0,0,1,1.64,1.49,5.36,5.36,0,0,1,.76,1.24c.13.28.28.6.42,1s.25.81.4,1.29c-.71-1.55-.82-.82-1-.2-.07.31-.18.6-.36.62s-.42-.26-.83-1c.11,2.36.14,4.25.11,6,0,.86,0,1.67-.08,2.43,0,.38-.06.75-.1,1.11,0,.17-.05.35-.07.52s0,.07,0,.19l-.06.22-.11.41a18.55,18.55,0,0,1-.27,2,2.8,2.8,0,0,0,0,1c0,.34,0,.68,0,1,.13.57.25,1.14.33,1.73a5.48,5.48,0,0,1,.09.84c0,.22,0,.45,0,.68.94.88,1.24.73,1.2.09a6.55,6.55,0,0,0-.27-1.28c-.22-.65-.46-1.4-.71-2.16l-.12-1a2,2,0,0,1,0-.93c.16-.73.29-1.42.38-1.9.25-.73.38-1.08.24-.29.28-.49.38-.46.49-.4s.14.41.11.86A7.84,7.84,0,0,1,282,291c0,.13-.09.26,0,.4s.09.27.14.41l.29.87.79,1.79c.22.51.41,1,.56,1.44.56,1.39.48,2.82.74,4.81a16,16,0,0,0,3.37,8c-.5-.69-.67-.64-1.13-1.33a11.67,11.67,0,0,0,3.17,3.78,29,29,0,0,0,2.32,1.8,20,20,0,0,0,3.23,1.9c.44-.05.88-.07,1.32-.08l1.34-.09,1.31-.18h0c0,.16-.24-1.44-.13-.76v0l0-.07,0-.13a2,2,0,0,1,0-.26,3.25,3.25,0,0,1,0-.54,1.67,1.67,0,0,1,.06-.62.47.47,0,0,1,.07-.18h0a.63.63,0,0,1-.13.11,2.88,2.88,0,0,1-.46.22c-.1,0-.15,0-.3.09l-.39.11-.38.06-.17,0-.24,0h-.12s0,0,0,0h.12c.12,0,.27.06.47.09a.34.34,0,0,0,0-.15s-.05,0,0,0a3.67,3.67,0,0,0,.64-.14,2.14,2.14,0,0,0,1-.46s-.07.1-.07.14,0,.05,0,.08a1.94,1.94,0,0,0-.05.2,1.79,1.79,0,0,0,0,.4,3.19,3.19,0,0,0,0,.62,2.34,2.34,0,0,0,.05.3s.05.12,0,.13h-.09l-.33,0-.67.07a9,9,0,0,1-4.84-1.19,8,8,0,0,0,4.07.83,5.22,5.22,0,0,0,1.11-.16l.54-.14.13,0v-.28a3.14,3.14,0,0,0,0-.44,1.53,1.53,0,0,1,.07-.36.35.35,0,0,1,0-.17l0-.06h0s0,0-.05,0a.66.66,0,0,1-.17.12c-.08,0-.24.13-.35.17s-.34.08-.26.08.24.55.25,1a9.59,9.59,0,0,1-.14,1.71,18.34,18.34,0,0,1-1.25,4.06,19.3,19.3,0,0,1-.05-3.75c-.85,1.61-.57,3.46-1.53,5.22-.71-.47-.21-2.55.33-4.87.13-.58.26-1.17.35-1.73a5.07,5.07,0,0,0,.09-1.3s0-.07,0-.06h0l.48-.05.49-.08a2.2,2.2,0,0,0,.36,0,5.3,5.3,0,0,0,.69-.18c.77-.22.86-.54.74-.31a2,2,0,0,0-.09.67c0,.17,0,.42,0,.62s0,.2.05.3l0,.15v0l.22,1.34h-.07c-.52.11-1,.23-1.5.31a4.58,4.58,0,0,0,.78.06h.46l.24,0h.15l-.28-1.69h0v0l0-.09a3.2,3.2,0,0,1-.07-.77,1.41,1.41,0,0,0,0-.31,1.22,1.22,0,0,1,0-.26,2.37,2.37,0,0,1,.1-.38,5.08,5.08,0,0,1-2.84.74h-.46s0,0,0,0l0,.07c0,.09,0,.18,0,.29a2.69,2.69,0,0,1-.16,1.2c-.13.23-.33.15-.67-.35.85,1.42.3,3.19-.36,5.15a16.63,16.63,0,0,0-1.27,7l-.85-.55a26.33,26.33,0,0,1-.29,4.12c-.23-1-.45-2-.64-3a20.76,20.76,0,0,1-1.16,6.23,17.35,17.35,0,0,0-1,6.3c.25-4.54.74-4.94,1.06-4.77s.72,1,1.29-.77c0,5.37-.52,6.88-1.26,8.66a10.85,10.85,0,0,0-.83,3.4,18.5,18.5,0,0,0,.93,6.94,12.3,12.3,0,0,1-.52-3.66c0-1.12.24-1.66.68-.35.16,2.44.77,5.73.91,7.38a12,12,0,0,0,1.71,3.22c.26.26.23-.1.14-.6-.19-1-.49-2.58.52-1a4.71,4.71,0,0,0,1.65,3.33c.89.82,2,1.59,3.3,2.88l-.72.64a12.9,12.9,0,0,0,3.26,3.33,2.06,2.06,0,0,0,1.45.42c.74-.08,1.21-.05,4.46,2.55a36.9,36.9,0,0,1-3.71-1A36.16,36.16,0,0,0,308,372l-1.37.45c2.3,1,3.77,1.53,5.17,2.23.7.33,1.41.66,2.17,1.07l2.11,1.24c-.51-1,1.31-1.45,4.24.39.77.92.35.92.27,1s.15.29,1.92,1.71a11.56,11.56,0,0,1-1.82-.46,4.87,4.87,0,0,1-1.78-1.66c-.35.16-1.2,0-1.53.14,1.82,1.65,4.48,3.43,5.49,4.53a8.19,8.19,0,0,1-1-1.3l1.32.84,1.16,1a4.92,4.92,0,0,1,.59.51l.51.58a9.72,9.72,0,0,1,1,1.2c0,1.06-.51.41-1.08-.1.54,1,1.33,1.63,1.79,3.42a6,6,0,0,1-1.27-.39,1.93,1.93,0,0,1-.61-.58,9,9,0,0,1-.79-1.09,13.38,13.38,0,0,1,1.88,5,8.93,8.93,0,0,0-.65,1.52c-.28.59-.57,1-.66.63a7.09,7.09,0,0,0-.21,1.25c0,.43-.13.92-.16,1.41-.05,1-.2,2.1-.34,3.27a17.83,17.83,0,0,1-2.41,7,4.59,4.59,0,0,1-.47,1.85c-2.41,4.17-5.5,7.25-8,12.63l-3.11,1.84c-2.55,3.85,4.18-2.54-.1,3.91-3.06,4.58-2.21.85-3.71,2.11a40.07,40.07,0,0,1-2.52,4.93,23,23,0,0,1-2.06,2.8c-.2.23-.41.45-.62.68l-.8.81c-.63.63-1.31,1.26-2,1.9a28.53,28.53,0,0,1,2.1-2.67C301.15,437,301.62,436.49,302.1,435.85Zm29.13,12.69c-.89.76-2.56,2.48-3.59,2.41C328.24,449.33,329.37,449.27,331.23,448.54Zm58.15-68.28a6.49,6.49,0,0,1-1.32,3.56A22.93,22.93,0,0,1,389.38,380.26ZM264.27,246.31h.15c1.29.76,1.72,1,1.58.9S265.18,246.79,264.27,246.31Zm-5.4-3.93c-.63-.39-.69-.27-.55.05a5.09,5.09,0,0,1,1.27.84c.55.35,1.22.92,1.92,1.35a3.45,3.45,0,0,0-.76-.83C260.34,243.43,259.74,243.06,258.87,242.38Zm34.71,60.91c.11.29.21.59.33.86-.72-.7-.93-1-.9-1.09S293.3,303.16,293.58,303.29Z"/><path class="cls-1" d="M386.58,390.63a.88.88,0,0,1-.7.19C385.8,391.3,386,391.4,386.58,390.63Z"/><path class="cls-1" d="M321.91,407l.08-.14a.41.41,0,0,0-.08-.23Z"/><path class="cls-1" d="M320,272.32a7.37,7.37,0,0,1,2.09,0C322,272.11,321.52,272,320,272.32Z"/><path class="cls-1" d="M269.24,212.39c-.57.34-1.13.68-1.67,1.07s-1.1.74-1.63,1.15a9.49,9.49,0,0,1,1.87-1.05,11.66,11.66,0,0,1,1.35-.49C269,212.91,268.15,213,269.24,212.39Z"/><path class="cls-1" d="M299.16,219.1c.39.3.65.8,1,1.11l.28-.37a12.51,12.51,0,0,0-1-1.09,5.49,5.49,0,0,0-.75-.54C298.43,218,298.46,218.27,299.16,219.1Z"/><path class="cls-1" d="M273.78,213.82c.58.66,2.52-.47,5-1.21-.15,0-.29.09-.44.12C278.77,211.44,276.13,212.43,273.78,213.82Z"/><path class="cls-1" d="M279.3,212.45a14.19,14.19,0,0,1,2.3-.46C281.83,211.5,280.63,212,279.3,212.45Z"/><path class="cls-1" d="M254.29,233.36c.33-1.77-.93-1.24-.47-2.27-.32-1.19-.68,2.17,0,4.23.38,1,.77,1.7.86,1.57s0-.34-.09-.89A15.7,15.7,0,0,1,254.29,233.36Z"/><path class="cls-1" d="M276.57,215.64c-.37-.23-.76-.46-1.14-.67l-1,1.25C275.17,216,275.86,215.78,276.57,215.64Z"/><path class="cls-1" d="M261.12,226a23.75,23.75,0,0,1,2.63-2.85c-.17-.08.11-.49.49-1C262.48,223.78,260.79,225.86,261.12,226Z"/><path class="cls-1" d="M264.24,222.15c.44-.45.89-.85,1.29-1.21a13.58,13.58,0,0,0,1-1,13.14,13.14,0,0,0-1.09.95A9.4,9.4,0,0,0,264.24,222.15Z"/><path class="cls-1" d="M272,217.93c-.36.12-.73.21-1.08.35-.78.42-1.55.85-2.29,1.34A30.3,30.3,0,0,1,272,217.93Z"/><path class="cls-1" d="M286.62,247c1.21,0,2.47-.07,3.79-.14.63-.32-.35-.54-1.91-.47C287.45,246.59,286.07,246.64,286.62,247Z"/><path class="cls-1" d="M274.72,242.77a4.4,4.4,0,0,1,1.6,1.08l.34-1.2C276,242.71,275.37,242.73,274.72,242.77Z"/><path class="cls-1" d="M286.38,244a27.06,27.06,0,0,1,3.32-.47c1.15-.18,1.35-.27-2.31-.39a1.6,1.6,0,0,1-.44.11l-.16,0-.16,0-.27,0-1.12.16C284.64,243.53,284.54,243.69,286.38,244Z"/><polygon class="cls-1" points="326.87 274.15 325.85 274.42 326.5 276.36 326.87 274.15"/><path class="cls-1" d="M377.71,288c-.63-2.51-1.1-2.72-1.45-2.84s-.66-.17-1.4-2.55c-.51-.48-.14.5.12,1.44s.52,1.88.1,1.38C376.7,288.14,376.88,289.72,377.71,288Z"/><path class="cls-1" d="M375.08,285.39a15.53,15.53,0,0,0-.91-1.38A13.74,13.74,0,0,0,375.08,285.39Z"/><polygon class="cls-1" points="182.76 172.35 182.49 169.28 182.26 171.35 182.76 172.35"/><path class="cls-1" d="M180,166.94l1.13-1-1.47-1.53A6.41,6.41,0,0,1,180,166.94Z"/><path class="cls-1" d="M340.22,446l0-.4c-.62,0-1.27.39-2.59,1.18Z"/><path class="cls-1" d="M293.31,462.73l.72.32c-.15-.51-.3-1-.42-1.5Z"/><path class="cls-1" d="M307,426c-.9,1.07-1.75,2.53-2.69,3.6C306.05,427.08,308.34,426.61,307,426Z"/><path class="cls-1" d="M275.68,513.1C171.59,513.1,86.9,428.41,86.9,324.32s84.69-188.79,188.78-188.79,188.79,84.69,188.79,188.79S379.78,513.1,275.68,513.1Zm0-375.57c-103,0-186.78,83.79-186.78,186.79S172.69,511.1,275.68,511.1s186.79-83.79,186.79-186.78S378.68,137.53,275.68,137.53Z"/><path class="cls-1" d="M298.42,459a4.9,4.9,0,0,1-3.85-1.34c-1.8-2-.61-5.68,3.54-10.87,1.22-1.52,2.83-3.4,4.68-5.57,10.95-12.79,31.32-36.6,27.32-53.75-1.5-6.47-6.46-11.55-14.73-15.09C287,360.2,294.06,334,297.85,319.94c.88-3.27,2-7.33,1.47-8a1,1,0,0,0-.26,0c-4,.66-8-2.65-11.94-9.82a70.23,70.23,0,0,1-4.65-10.54l-.12-.37.16-.36c0-.09,4.11-9.35-1-18-5.25-8.88-17.88-14.17-37.53-15.72-22.23-1.75-41.18-18.25-54.78-47.69a195.55,195.55,0,0,1-13.94-44.21l2-.33c.14.86,14.86,86.13,66.91,90.24,20.36,1.6,33.51,7.23,39.1,16.71,5.12,8.68,2.06,17.55,1.28,19.49,2,5.87,8.14,19.68,14.24,18.67a2.14,2.14,0,0,1,2.07.59c1.27,1.41.46,4.42-1,9.9-3.63,13.48-10.39,38.58,16.39,50.06,8.88,3.81,14.23,9.35,15.89,16.48,4.23,18.13-16.57,42.44-27.75,55.5-1.84,2.16-3.44,4-4.64,5.52-3.83,4.79-4.37,7.43-3.6,8.3,1.5,1.7,10.76,1,35-14,32.31-19.9,47.62-45.7,52.7-55.86a37.11,37.11,0,0,0,2.93-8.14c1.36-5.24,2.34-9,14.21-18.91a18.7,18.7,0,0,0,7.13-16.77c-1-10.87-10.21-23.32-22.46-30.28-7.94-4.52-10.52-12.16-13-19.55-3.37-10-6.56-19.47-23.12-20.25-8.44-.4-16.27,1.56-23.17,3.29-9.06,2.28-16.89,4.25-23,.05-5.74-3.91-9.4-13-11.48-28.66-4.74,0-26.32-.59-32.22-8.89a8.6,8.6,0,0,1-.85-8.32c3-8.36,14.27-17.09,27.37-17.09l1,0c8.28.28,14.21,4.53,16.28,11.67,1.92,6.62,5.08,10.21,8.44,9.6,4.33-.78,8.31-8.17,7.48-19.19-.36-4.79,2.15-10.27,7.46-16.28,13.93-15.79,45.35-32.29,51.7-32.61l.1,2c-5.34.26-36,15.7-50.3,31.93-4.94,5.59-7.28,10.58-7,14.81.94,12.61-4,20.39-9.12,21.31-4.47.81-8.49-3.31-10.72-11C299,216.63,291.34,215.11,287,215c-9.85-.33-22.82,5.92-26.4,15.75a6.63,6.63,0,0,0,.6,6.48c5.89,8.29,31.21,8.05,31.46,8.05h.89l.11.88c2,15.55,5.4,24.5,10.74,28.14s12.46,1.91,21.41-.34c7-1.76,15-3.76,23.76-3.35,17.92.85,21.48,11.41,24.92,21.61,2.37,7,4.82,14.31,12.1,18.45,12.79,7.26,22.43,20.36,23.46,31.84A20.8,20.8,0,0,1,402.22,361c-11.38,9.48-12.29,13-13.55,17.88a39.12,39.12,0,0,1-3.08,8.53c-5.16,10.32-20.7,36.5-53.44,56.67C324.11,449,306.83,459,298.42,459Z"/><path class="cls-1" d="M401.91,108.12a1.91,1.91,0,0,0,1.29-.6,1.51,1.51,0,0,1,1.62-.29,7.45,7.45,0,0,1,1.17-1,3.64,3.64,0,0,1,2-.41v1.37a4.62,4.62,0,0,1-.16.93,13.06,13.06,0,0,1-.48,1.53,18.22,18.22,0,0,1-.77,1.7,5.92,5.92,0,0,1-1,1.41,6.12,6.12,0,0,0-1.17.12,10.07,10.07,0,0,1-1.81.12,3.76,3.76,0,0,0-1.25.28,4.47,4.47,0,0,0-1.41.85,2.73,2.73,0,0,1-1.57.64,9.13,9.13,0,0,0-2.22.65,2,2,0,0,0-1.29.56,1.91,1.91,0,0,1-1.21.57,2.3,2.3,0,0,1-1.65.64c-.78.06-1.58.08-2.38.08h-.65c0-.37,0-1,.08-1.93a3.31,3.31,0,0,1,.57-1.94,29.39,29.39,0,0,0,3.38-2,13.24,13.24,0,0,1,3.39-1.74,2.13,2.13,0,0,1,1.45-.52,5.25,5.25,0,0,0,2.1-.61Z"/><path class="cls-1" d="M430.78,90.55a4.57,4.57,0,0,1,.92.08q.45.08,1.05.12c.41,0,.89.07,1.45.12s1.31.08,2.22.08l2.66-.65c.43-.1.83-.21,1.21-.32a5.72,5.72,0,0,1,1-.24,5.31,5.31,0,0,1,.72-.08,3.39,3.39,0,0,1,1.41.4,8.87,8.87,0,0,1,1.5.89,7,7,0,0,1,.72,2.5,7.94,7.94,0,0,0,.65,2.5,3.47,3.47,0,0,1,.56.92c.22.46.43.91.65,1.34a12.56,12.56,0,0,0,.8,1.77q0,1.53-2,1.53a2.77,2.77,0,0,1-1.45-.77,26,26,0,0,0-2.5-1.69,20.87,20.87,0,0,0-3.63-1.69,14.64,14.64,0,0,0-5-.77l-1.53.41a11.44,11.44,0,0,1-.93,1.21,1.31,1.31,0,0,0-.44.8v.73c-.11.43-.22.83-.33,1.21a6.74,6.74,0,0,0-.24,1,5.59,5.59,0,0,0-.08.73v5.8a5.46,5.46,0,0,0,.49,2.3,1.59,1.59,0,0,0,1.53,1.09,7.18,7.18,0,0,0,.8-.08,10.32,10.32,0,0,0,1.21-.24c.49-.11,1-.22,1.53-.32h1.62a2.15,2.15,0,0,0,1.17-.33,11.7,11.7,0,0,0,1-.68l.93-.69a1.61,1.61,0,0,1,.93-.32.89.89,0,0,1,.56.32,9.58,9.58,0,0,1,.65.73l.8,1v5.32q0,2.25-2,2.25a3.09,3.09,0,0,1-1.53-.36,7.17,7.17,0,0,1-1.13-.76,7.13,7.13,0,0,1-1.49-.73,2.64,2.64,0,0,0-1.5-.4h-2.9q-2,0-2.58.72a5.11,5.11,0,0,0-.56,2.91v2a16,16,0,0,1,.32,2.26,15.78,15.78,0,0,0,.28,2.09,3.8,3.8,0,0,0,.77,1.66,3,3,0,0,0,1.77.92h4.52a7.72,7.72,0,0,0,2.46-.44,17.24,17.24,0,0,0,2.7-1.17l2.54-.89a6.83,6.83,0,0,1,2.13-.4,5.52,5.52,0,0,1,.65.57l.48.48a.69.69,0,0,1,.24.48,1.59,1.59,0,0,1-.4,1,8.06,8.06,0,0,1-1,1,6.65,6.65,0,0,0-1.61,2.14q-.48,1.08-.93,2a4.91,4.91,0,0,1-1.09,1.53,2.69,2.69,0,0,1-1.93.61,3.14,3.14,0,0,1-.89-.12,5.6,5.6,0,0,1-.84-.33,5.22,5.22,0,0,0-1.05-.32,7.79,7.79,0,0,0-1.49-.12l-7.82.24-2.74.65h-6.7l-1.61.48-2.42.16a1.64,1.64,0,0,1-.88-.32,4.32,4.32,0,0,1-.89-.77,6.63,6.63,0,0,1-.69-.88,1.46,1.46,0,0,1-.28-.69c0-1.34,1-2,3-2a12.09,12.09,0,0,0,1.29-.57,16.23,16.23,0,0,1,2-.8,4,4,0,0,0,2.3-1.05c.4-.49.6-1.61.6-3.39a1.61,1.61,0,0,1,.28-.84c.19-.3.1-.61-.28-.93a5.18,5.18,0,0,0-.08-.85,4.13,4.13,0,0,0-.24-.85c-.11-.32-.22-.67-.32-1v-6.45l.64-5.65V108.2a1.17,1.17,0,0,1,.12-.64,1.21,1.21,0,0,0,.12-.65V98a1.34,1.34,0,0,0-.8-1.17,3,3,0,0,0-1.21-.44h-2.26a2.34,2.34,0,0,1-2.22-1.29,6.33,6.33,0,0,1-.68-3,1.2,1.2,0,0,1,.44-.89,1.38,1.38,0,0,1,.93-.4h4.27a14,14,0,0,0,1.49-.12,22.14,22.14,0,0,1,2.54-.12Z"/><path class="cls-1" d="M475.6,91a3.88,3.88,0,0,1,2.14.64,2.08,2.08,0,0,1,1,1.86V95c-.59.43-1.16.81-1.7,1.13s-.86.52-1.29.76a2.26,2.26,0,0,1-.88.37h-2.42a3.35,3.35,0,0,0-3.63,3.63v2.41a23.91,23.91,0,0,1-.52,4.76c-.35,1.72-.69,3.36-1,4.92v12.09a5.13,5.13,0,0,0,.12.85,5.2,5.2,0,0,0,.4,1.21,4.34,4.34,0,0,0,.69,1,1.37,1.37,0,0,0,1.05.44h6.93a5.5,5.5,0,0,0,1.33-.48c.73-.33,1.52-.7,2.38-1.13s1.71-.89,2.54-1.37a13.47,13.47,0,0,0,1.81-1.21c.43-.38.86-.74,1.29-1.09a2,2,0,0,1,1.21-.52,5.18,5.18,0,0,1,.69-1.33,1.18,1.18,0,0,1,.84-.21,3,3,0,0,1,1.37.53c.6.35.89.68.89,1a10.89,10.89,0,0,1-.68,1.89c-.46,1.1-1,2.34-1.66,3.71s-1.34,2.69-2.09,3.95a8,8,0,0,1-2.1,2.54c-.16.21-.63.36-1.41.44s-1.6.15-2.46.2-2.07.09-3.3.09h-3.79a17.7,17.7,0,0,1-3.39-.33,3.28,3.28,0,0,0-2.26.08l-1.05.25-3.87.88a8.34,8.34,0,0,1-1-.12c-.52-.08-1.07-.19-1.66-.32s-1.14-.24-1.65-.32a8.42,8.42,0,0,0-1-.12,4.32,4.32,0,0,0-1.21.16,7.67,7.67,0,0,0-1,.32,8.66,8.66,0,0,1-1,.4,1.91,1.91,0,0,1-1.33-.4,2.38,2.38,0,0,1-.65-1,4.47,4.47,0,0,1-.24-1.13c0-.37,0-.67,0-.88,0-1.13.36-1.83,1.09-2.1a17.67,17.67,0,0,1,2.38-.69,7.4,7.4,0,0,0,2.38-1c.72-.46,1.09-1.44,1.09-3v-6.77l.64-6.05v-2.9c0-.21,0-.63.08-1.25s.13-1.27.24-2,.24-1.67.41-2.58a2.21,2.21,0,0,0-.37-1.21,2,2,0,0,1-.36-1v-.89a5.09,5.09,0,0,0-.69-3.1,4.63,4.63,0,0,0-1.53-1.29,9.21,9.21,0,0,1-1.53-1,2.85,2.85,0,0,1-.68-2.26,2.74,2.74,0,0,1,.36-1.41,3.83,3.83,0,0,1,.85-1,3.19,3.19,0,0,1,1-.56,2.48,2.48,0,0,1,.73-.16Z"/><path class="cls-1" d="M590.18,589.09h-580V10.91h580Zm-579-1h578V11.91h-578Z"/><path class="cls-1" d="M592.11,585.89c0,3.41.39,2.19.46,2.7C592.48,582.88,592,586,592.11,585.89Z"/><polygon class="cls-1" points="591.16 529.53 591.33 530.53 590.91 522.23 591.16 529.53"/><path class="cls-1" d="M591.17,476.84c-.71,5,.12,19.09-.14,28.48l-.16,1.55.57,4.23C591.35,499.69,591,484.87,591.17,476.84Z"/><path class="cls-1" d="M592.71,448.74c-.27,1.73-.24-6.08-.08,6.55,0-.63,0-.82.07-1.19C592.7,453,592.71,451.4,592.71,448.74Z"/><path class="cls-1" d="M592.7,454.1c0,5.55.23-3.63,0,0Z"/><path class="cls-1" d="M592.54,428.47l.25,7.31c.16-1.52.2-8,.32-5.61C593,422.67,592.81,424.21,592.54,428.47Z"/><path class="cls-1" d="M592,421.54l.1,3.79A19.87,19.87,0,0,0,592,421.54Z"/><path class="cls-1" d="M592.34,433.36l-.22-8a8.41,8.41,0,0,0,.08,3.69C592,428.36,592.19,430,592.34,433.36Z"/><path class="cls-1" d="M592.23,437.91c-.15,4.1-.25,9.4-.5,2.06C591.83,454,592.33,451.9,592.23,437.91Z"/><path class="cls-1" d="M590.43,474.15l-.21,5.48.24,4.74C590.34,482,590.66,473.81,590.43,474.15Z"/><path class="cls-1" d="M592.91,382.93c-.15-.45-.41,2.46-.6,3l.17,5.4C592.59,388.56,592.68,383.3,592.91,382.93Z"/><path class="cls-1" d="M592.31,385.94l-.26-8.08C592,385.08,592.14,386.39,592.31,385.94Z"/><polygon class="cls-1" points="591.23 420.24 591.77 433.51 591.22 417.68 591.23 420.24"/><polygon class="cls-1" points="592.93 352.08 593.28 356.66 592.75 348.5 592.93 352.08"/><path class="cls-1" d="M592.87,331.61c.29,3.39.49-4.64.67-1.06,0-5.56-.31-10.31-.53-14.58C593.14,320.51,593.1,325.35,592.87,331.61Z"/><path class="cls-1" d="M592.68,308.79c.07,2.27.2,4.62.33,7.18C592.94,313.56,592.85,311.18,592.68,308.79Z"/><path class="cls-1" d="M592.12,364.1a41.39,41.39,0,0,0,.44-6.36l-.43,3.18C592.13,361.89,592.13,363,592.12,364.1Z"/><path class="cls-1" d="M592.12,361v-.11c0-3.45,0-5.84,0-6.87C592.15,354.93,592.14,357,592.12,361Z"/><path class="cls-1" d="M592.12,364.9v-.8A2.39,2.39,0,0,0,592.12,364.9Z"/><path class="cls-1" d="M591.61,399.06c-.24-4.75-.49-14.64-.86-5.07C591,397.4,591.25,391.92,591.61,399.06Z"/><path class="cls-1" d="M591.59,368.84l-.1,8.59c.11-.17.28-1.72.4.63Z"/><polygon class="cls-1" points="591.45 364.64 591.59 368.84 591.62 365.66 591.45 364.64"/><path class="cls-1" d="M592.28,323.49c-.18-3.71-.2-7.76-.23-12.34-.08,4.91-.13,10-.13,14.8C592.06,326.63,592.3,328.75,592.28,323.49Z"/><path class="cls-1" d="M592.16,341.73c0-.25,0-.58,0-.82C592.1,341.41,592.09,341.82,592.16,341.73Z"/><path class="cls-1" d="M592.05,266.06c0,.25,0,.46-.07.72,0,.06,0,.1.07.17Z"/><path class="cls-1" d="M591.84,326.78c-.08,3.69,0,5.89.16,8,0-2.76-.07-5.68-.08-8.82C591.86,325.65,591.82,325.59,591.84,326.78Z"/><path class="cls-1" d="M592.48,296.21c-.07,1.92-.15,4.1-.23,6.39C592.38,300.72,592.59,296.89,592.48,296.21Z"/><path class="cls-1" d="M592.26,339.66c0,.19,0,.36,0,.56C592.37,339,592.32,339.16,592.26,339.66Z"/><path class="cls-1" d="M592.26,339.66c-.06-1.89-.17-3.39-.26-4.89,0,2.25.08,4.33.14,6.14C592.17,340.45,592.22,340,592.26,339.66Z"/><path class="cls-1" d="M589.31,252.39c.4.66.76,10.36.34,18.73.3,8.24,1.6,2.85,2.33-4.34-.18-.26-.34-.26-.57-8.74-.22,3-.51,18.82-.86,11.67-.21-11.24.14-9.21.35-14.67-.5,4.64-.72-14.29-1.45-11.84l.26,9.85C589.59,253.23,589.41,249.66,589.31,252.39Z"/><path class="cls-1" d="M591.94,282.94l0,3.49c.06-4,.22-6.83.53-12.07-.19-5.81-.34-7-.47-7.41l0,17.18Z"/><path class="cls-1" d="M592,302.09c-.43-2.72-.62-11.1-1.08-6,0,10.24.36,7.18.54,13.3-.1-16.53.24,4.74.49-7.2.07,3.25.09,6.17.11,8.93.07-3,.14-5.85.2-8.55,0,.15,0,.26,0,.38V303c-.06.71-.09.95-.06.15,0-.06,0-.26,0-.35a3.38,3.38,0,0,1-.16-.75c.09-4.78.11-.75.16.75,0,.06,0,.19.07.2V303L592,286.43C591.93,289.93,591.94,294.32,592,302.09Z"/><path class="cls-1" d="M589.83,385.16c0-.51.06-.49.1-.53C589.87,383.56,589.84,383.16,589.83,385.16Z"/><path class="cls-1" d="M590.09,378.35a58.85,58.85,0,0,1,.18,6.12c-.13,3.4-.2,0-.34.16.11,2.36.3,8.26.51.86l-.05-1.17c.14-6.66.68-15.22.74-14.06A64.31,64.31,0,0,0,590.09,378.35Z"/><path class="cls-1" d="M590.93,339.75,590.71,326l-.37,7,.23-.35C590.48,340.47,590.75,338.77,590.93,339.75Z"/><polygon class="cls-1" points="592.27 264.48 592.72 266.31 592.08 258.35 592.27 264.48"/><polygon class="cls-1" points="592.21 246.57 592.61 247.23 592.37 242.5 592.21 246.57"/><path class="cls-1" d="M13.09,208.16l.11,4.05C13.17,210.29,13.13,209.06,13.09,208.16Z"/><path class="cls-1" d="M13.12,178.83l-.2-.72C13,179.47,13.11,180,13.12,178.83Z"/><path class="cls-1" d="M384.89,8.92c-5.9-.37-12.49-.94-11.78-.5l1.81.43C379,8.78,382.2,8.82,384.89,8.92Z"/><path class="cls-1" d="M83.58,11.51l1.73.13,4-.41Z"/><path class="cls-1" d="M79.42,13.3,71.64,13C73.39,13.12,75.89,13.22,79.42,13.3Z"/><path class="cls-1" d="M13.55,368.31,14,373C14,365.64,13.77,368.9,13.55,368.31Z"/><path class="cls-1" d="M592.05,63.1c.17-5.09.24-9.15.27-12.71C592.07,56.53,591.69,61.48,592.05,63.1Z"/><path class="cls-1" d="M8.48,196.62c.08,2.48.17,3.53.27,3.46C8.67,197.53,8.59,196.09,8.48,196.62Z"/><path class="cls-1" d="M592.31,35.69c0,.9-.06,1.78-.1,2.69.08,3.72.13,7.47.11,12C592.5,45.86,592.62,40.68,592.31,35.69Z"/><path class="cls-1" d="M371.27,586.12l1.31,0C372.71,586.11,372.12,586.11,371.27,586.12Z"/><path class="cls-1" d="M540.48,590.49l-7,0C534.78,590.56,536.88,590.55,540.48,590.49Z"/><path class="cls-1" d="M592.4,174.49c0,3.8.05.6,0,0Z"/><path class="cls-1" d="M590.69,193a4.7,4.7,0,0,0-.21-1.52A6.93,6.93,0,0,1,590.69,193Z"/><path class="cls-1" d="M576.12,11.47h-.33C576.92,11.56,576.72,11.54,576.12,11.47Z"/><path class="cls-1" d="M592.21,180.21c0-1.43.09-3.07.12-4.86C592.3,176.13,592.26,177.61,592.21,180.21Z"/><path class="cls-1" d="M592.41,179.44c0,1.31,0,2.34,0,3.32C592.44,183.24,592.49,182.81,592.41,179.44Z"/><path class="cls-1" d="M592.38,169.2c0,2.17,0,4.2,0,6.15,0-.75.06-1.06.07-.86C592.4,173.38,592.39,171.8,592.38,169.2Z"/><path class="cls-1" d="M60.05,587.28l.82,0C64.7,587.14,63,587.17,60.05,587.28Z"/><path class="cls-1" d="M286,13.42l.44,0h-.56Z"/><path class="cls-1" d="M272.36,13.75a97.46,97.46,0,0,1,13.52-.36l-4.52-1.25Z"/><path class="cls-1" d="M13.21,278.37l.39-9.58c.65,11.56.42,19.93,1,10.94-1.36-1.36-.14-37.25-1.49-38.59l.28-6.31c0,1.81.07,2.1.06,3.89.65-12.29-1-9.13-.79-25,.1-5.52.3-9.37.46-5.6l-.34-12.3c0-3.57.27-2.7.24.86L12.88,178l0,.14c-.21-2.67-.54-8.73-.68-11.69.19-4.77.14,2.39.31,1.17l-.33-10.38c.35-4.23.7,4.37.65,11.54,1.35-9.69-.35-8.61.45-29.54l.17,9.81c.77-6.32.49-14,1-25.05-.25,2.62-1.21,22.18-1.55,10.92.1-3.18.15-7.36-.12-13.44.48-.06.36-6,.34-13.42l.64.51c-.19-8-.51-7.4-.8-12.12.06-9,.56-10.81,1-12.91.1-14.33-.79,9.89-.91-7.07.24-11.92,0-20.28-.4-34.54.22-8.34.39,1.46.57-1.53L12.69,33c0-1.81.17-1.22.25-.93-.2-6.23-.64-.51-.81-10.31A17.87,17.87,0,0,1,12,18.07c0-.87.06-1.86.09-3,0-.69.09-1.44.14-2.24L13.8,13l.8,0,1.37.05c1.83.06,3.72.11,5.62.15,3.8.06,7.63,0,11-.19,3,.18-1.44.39-.53.64,16.63-.52,14.26-.38,27.92-1.09L71.64,13c-8.55-.48,2.38-1,11.94-1.51-3-.23-5.62-.44-7.36-.53l15.27-.35c1.84.11.3.33-2.2.6l2.8-.16c5.46.24,2.63.61-1.28,1l-5.5-.39c-3.77.39-7.3.82-6.52,1.19,1-.07,2.91-.13,5-.17-1,.11-1.62.2-1.16.26s2.11-.07,4.61-.23l3.47.71.84-.28,20,.44c14.29-.71,26.72-1.77,49.4-2.07-5.63.53-1.21.86-1.52,1.48-6.18-.66-17.56.28-29.32.14,6.14.07,4.79.37,3.23.47l21-.6c-.47.51,4.45.38,9.93.59-4.14-1,15.63-.66,24.16-1,.53.34-1.51.68-11.92.6,11.48.75,14.84-1.18,26.11-.54a38.17,38.17,0,0,0-4.92.13c5.94-.3,20.45-.06,17,.23h-2.54c16.87.12,51.36,0,53.88-.85a10.45,10.45,0,0,1-3.23,1.2l30.1-2.86c-2.65.73,7.53,2.47-6.46,2.88,4,.11,9,.23,17.45,0-2.74-.1-6.83-1.06-3.08-1.12,10.28.81,7.14.43,19.81,1.13-4.11-.16.45-1.31,6.94-1.27-1,.17.54,1.13-1.83,1.25l16.16-1.12c-4,.2-.71.95,2.9,1.27-1.68-.22,14,0,18.28-.09l-6.85-.26c18.24.16,18-1.59,36.12-1.53-2.19.24-5.41,1.43,3.79,1.57A311.81,311.81,0,0,1,430.82,10l3.07.33,12.29-.38c-7.65.87-29.12,2.69-40.85,3.4,6.83.26,1.91.39,12.13.36,3.61.31-5.57.47-8.58.49l23.8.2c-1.06-.67,18.21-.68,17.3-1.24l-25.86.7c-1-.67,14.95-1.91,31.82-1.79,4.29.27-3.21,1.2-2.86,1.42,2.19-.23,16-.44,17.56-.28l-7.16.36c9.39.26,15.33-.89,26.61-.25,3.89,0,11.63.87,12.3.47C496,13,494.8,10.64,499,10.07c1.37,0,20.45.73,24.89,1.11,6.42.6-9.62,1.43-4.16,2a39.84,39.84,0,0,1,5.25-.49c4.09.16-1.69.57,7.19.49,1.49-.68,18.08.06,4.21-.58,8.69-.19,9.23.14,19.44.11-3.25-.44,9.17-1.49,17.88-1.69-.52.17,1.44.4,2.39.5l13.39.1c-.06,5.1-.12,9.69-.18,14.48s-.09,9.87-.09,15.8c-.17,1.53-.37,9.55-.66,6.13.12,2.39.35,4.59.37,9.71-.59,9.92-.09-11.42-.8-3.86.39.64.54,13.25.79,20.55.61-2.25.12-16.86-.13-24.17.85,0,1.73,12.69,2.12,30.05.21,13.81-.55,6-.43,8.38-.14,25.93,1.48,22.09.87,43.62-.54,8.54-1.07.39-1.46,2.28-.2-11.24.34-17.26.32-24.88L590,119c-.18-3.58-.32-11.08-.16-15.17-.49,7.16-.09,43.8-.54,63.8.18,3.55.37,9.69.58,6.79l-.07-6.33c.43-5.82.6,11.91.8,3.9.3,8.49.78,18,.54,30l-.62,2.24a94.82,94.82,0,0,0,.18-11.17c.27,5-.83,18.33,0,23.78l.42-8.37c.31,8.52,1,19.06.77,29.65.6-4.82-.07-2.44.64-10-.89,6.53,0-27.1-.89-16.61.82-7.73.35-13.37,1-23.47-.21.32-.39,3.58-.29-5.31-.06-.4-.14-1.35-.18-1.95l0-.6c0,.17,0,.31,0,.49,0-.39,0-.42,0,.18-.08,2.12-.19,3.83-.3,4.53-.47-4.41-.45-18.55-.69-23.34.09-5.27.23,2.21.44-.67l-.36-7.14c.45-.71.75-14,1-1.59l0-11.19c.26-6.58.36-15.64.17-21.23.09-5.28-.5-13.33-.15-8.73L592,94l.12-.16c.05-17.31-.75-35.64.06-55.43-.11-5.83-.25-11.85-.12-21.6l.19-1,.1-.48c0-.14.06-.5.1-.75,0-1.77,0-3.77,0-6l-9.19-.05-6.61-.09c-4.22,0-7.8,0-9.19.14-8.07-1.05-36.31-.23-49.47-.42l-.5.51c-9.06,0-17.74.12-29,.32l.69.45c-9.69.37-24.92-.32-40.26-.27a66.94,66.94,0,0,1,7.69,0c-18.32-1-38.65.74-55.27,0-4.14.16-7.14.11-10,0,.39,0,.73,0,1,0h-1.7l-5.75-.24c1.73.11,3.39.2,4.83.24-3.19,0-8,.06-12.78.18l-2-.49-1.1,0c-4.66-.18-3.74.23-1.26.59-2.39.08-4.58.17-6.28.29-3.78-.78-12.45.26-17.61-.57-3.2.41-23.87.31-26.4,1.16-.16-.11-1.56-.17,1-.17-5.29-.1-10.58-.2-15.32,0L305.7,9.6l-11.55.82c-7-.37-9.93-.59-3-1.06-16.84.73-13.66.27-28,1l.7-.39c-5.11,0-13.29.54-16.38.22-11.44-.76-56.63-.11-86-.81,5.7,1.17-13.66-.52-14.82.38-1.71-.27-5.81-.43-1-.67-15,.27-22.53-.44-32.88.33-1.71-.28,3.21-.41,1.68-.57a56.85,56.85,0,0,1-6.32.07c-1.53-.16,2.2-.23,4.57-.35-15.32,0-16.87.9-18,1.7a106.5,106.5,0,0,0-17.24.19c-2.7-.26-7.21-.53,2.31-.62-5.36,0-32.71-.39-33.25.25-1.68-.16-7.49,0-8.9,0l-12.51,0h-13l3.9.11c-.42.07-.84.13-1.26.17s-1,.09-1.56.12c-1.07.06-2.17.09-3.35.1,0,1.08,0,2.21,0,3.42s0,2.21-.06,3.44c-.05,2.28-.09,4.9-.06,8l-.08-.27c-.56,21.81.27,9.42-.37,30.93l.48-1.17c1,2-.61,19.06-.21,31.55l.27-4.51c.35,6.82-1.4,19.06-1.53,25.91-.09,1.49-.14-2.36-.21-4.44-.61,17.93.63,2.32.77,15.68-.34,2.47-.86-3.17-.92,5.82-.28,4.48,1.1,26.08.45,38.35.26-2.7.52-5.39.72.82.09,9.51-1,25.71-.17,34.3a6.08,6.08,0,0,1-.2,1.72c.21,7.27.35,23.63.8,28-1.66,6.72.8,45.2-.72,45l.08,22.37-.16-.59c-.1,14.3.27,19.35.63,24.38-.1,3.3-.24.89-.32.62-.31,20.89-.25,23,.51,40.48l-.49,1.82c.29,4.75-.78,30.2-.2,50.69a10.45,10.45,0,0,1-.22-2.26c.58,23.05-1.38,55.19.43,63.63l.44,15.22c.14-19.68.79,2.93,1.09-5.17.1,7.74-.55,20-.64,10.5l.09-1.49c-.94-3.49-.33,24.45-1,23.93q0,18.16-.09,36-.11,18.83-.23,37.25l43.35.19L47.94,590l12.65,0c3.32.17,4.46.57-4.57.54a82.16,82.16,0,0,0,9.39,0c3.22-.16,5.88-.39,6-.47,17.67.3-6.9.85-1.48.87l7.36-.05-1.66-.09c6-.3,6.49-.61,17.34-.58,6.87.15,3.52.45,6.23.48,0,0,.21,0,.84,0s1.68,0,3.3,0l15.94.06-6.37-.57c7.06-.29,15,0,7.63-.63,10.8,1,59.46.37,66.09.68,9.9-.42,19.67-.42,31.77-.36-3-.12-4.81-.77,5.63-.69-3.82,1.34,19.11.58,27.54,1.54-7.54-.64,29.67-.16,17.84-1.06,8.71.1.53.5,7.14.81,20.73-.52,45.68.34,71.3.16.4-.17-3.89-.44,1.6-.7l13.53.88c5.06-.09,4.66-1,13.9-.41-1.3-.15-3.25-.37.14-.42,50.19.85,102.56-.71,153.53.9-6.9-.34-2.3-.37,3-.38-3.43-.08.08-.44-.59-.68l21.33.67c3.89-.67,22.88,0,25.11-.68l-6.76.11c9-.74-12.57-1.66-11.26-2.61-10.06.84-26.53-1.26-43-.05-3.64-.19,3.11-.31,1.16-.53a161,161,0,0,1-18.6.31l1.06-.1c-26.32.1-37.6-.3-67.16-.57l2.19.47c-6.35-.06-7.69-.21-10.66-.33-7.29.72,17.84,0,11.2.83-8.43-1-44.79,0-50.49-1.11-9.77,0,2.87.55-6.9.55l-2.59-.3-2.47.38c-6.41-.06-9.64-.43-9.88-.68,1.55,0,4.42-.07,6.09-.09-8.31-.35-23.43.11-26.28,0l9.39.18c-26.67.28-59.23-.11-85,.49l2,.23c-19.67.41-15.76-.25-37.36-.06l.79-.05c-4.33.22-10.1.34-16,.31,5.45-.26-10.26-.51-3.11-.8-21.33.45-10.55.35-24.64,1.18l-3.25-.37c-4.8.34-5.21.51-16,.61,8.84-.32-6.89-.57,3-1-22.64-.81-33.61.82-44-.36-10.39,1,19.59.57,13.77.79,4.87.33-8.58.76-15.69.66s-12.29-1.31-30.48-1.29c1.81,0,1.93-.08,3.73-.07-6.8-.26-13.33.35-21.69-.07-4.68.62-10.84,0-12.19.75l16.69-.18c-9.46.21-18.33,1.13-33.92.68,1.22-.16,5.86-.37,9-.48-4.56-.24-8.77.15-13.5-.09,1.35-.79,20.28-.17,30.42-.77-4.89-.34-19.18.57-14.08-.29-7.32,1.09-17.93-.14-30.25.7l.82-.48c-1.95.08-6,.3-9.58.29l6.5-.62c-3.39.18-6.7.19-10,.12L15.55,586l-.61,0H14.5l-.38,0-.69-.07.05-.69,0-.32V584c0-1.52,0-3,0-4.58,0,2.28,0,4.06,0,5.44,0,.44,0,.78-.07,1,.66.09.45.23.15.39s-.63.32,1,.45l-2.11.08c0-.68,0-1.29,0-1.86v-2.65c0-1.73.05-3.15.1-4.38.1-2.45.27-4.14.44-6,.35-3.77.71-8.32.6-21.37.07,3.74-.28,14.06-.5,8.2.09-5.27.28-12.22.52-15.45-.09-18.33-.48,2.81-.78-5,.58-6.24-.23-9-.42-17l.49-.06c.31-20.88-1-5.53-.63-24.33l.66,7.94-.17-9.8.55,2c-.41-10.66-.3-14-.15-24.43-.34,2.43-.87-1.36-.89-10.61.29-6.31.46,3.53.39-9.58a57.88,57.88,0,0,1,.24,11.91c.16.58.3,2.92.46,3.52.33-6.8.07-17.07.07-21.82,0,1.83-.05,4-.12,5.13l-.66-19c.18-3,.32-.61.46,1.74-.05-3.85-.27-6.52-.31-12.18.39,1.47.8,1.12,1,9.13l-.43-18.11c.17-1.21.46-9.29.61-6.94.23-10-.76-24.63-.46-37.94-.07-.69-.15-2.08-.2-4.91.09-12.51.57-23.59,0-38.42l.7-8.41c-.16-11.61-.88,11.39-1.15-7.95-.22-13.68.6-5.11.8-9.91a311.4,311.4,0,0,1-.51-31.22C13.27,271.22,13.16,274.48,13.21,278.37ZM12.9,135.16c.1,2.77.42,8.31.13,10.34C12.48,142.33,12.74,139.89,12.9,135.16ZM104.67,12.44a77.8,77.8,0,0,1-8.86-.11C98.42,12.29,101.38,12.31,104.67,12.44ZM592,132.85c0-.12,0-.2,0-.3C592.18,126.36,592.1,128.56,592,132.85Zm-.21,12.85c.07,1.29.14,1.2.2.66-.12-.9-.13-3.79-.09-7.07A41.74,41.74,0,0,0,591.8,145.7ZM100.63,590.52l-2.5-.12C103.78,590.26,102.2,590.38,100.63,590.52Z"/><path class="cls-1" d="M80,13.1a3.36,3.36,0,0,1-1.19-.27C77.7,12.91,77.68,13,80,13.1Z"/><path class="cls-1" d="M13.47,367.44v.43a1.83,1.83,0,0,0,.09.44Z"/><path class="cls-1" d="M524.86,13.38c-2.64-.07-4.12-.16-5.1-.25C519.61,13.25,520.82,13.35,524.86,13.38Z"/><path class="cls-1" d="M592.62,213.81l-.12-8.23c0,4-.09,5.4-.16,7.41C592.45,212.81,592.61,211.24,592.62,213.81Z"/><path class="cls-1" d="M589.64,285.28c.05,1.2,0,2.55.06,3.74l.23-.33C589.91,283.56,589.73,280,589.64,285.28Z"/><path class="cls-1" d="M591,221.44c-.41.65-.27,5.81-.19,11.58v-1C591.39,233.7,591.21,227.56,591,221.44Z"/><path class="cls-1" d="M590.84,234.36c0,1.78,0,3.59,0,5.33C591.08,240.37,590.9,237.53,590.84,234.36Z"/><path class="cls-1" d="M592.07,162c-.1,2.74.52,1.72.35,3.27C592.94,168.32,591.8,147,592.07,162Z"/><polygon class="cls-1" points="589.68 226.11 590.18 224.04 589.78 220.81 589.68 226.11"/><path class="cls-1" d="M590.05,180.57l-.14,9.21a10.68,10.68,0,0,1,.17,2.47C590.1,186.57,590.2,180.35,590.05,180.57Z"/><path class="cls-1" d="M590.08,192.25c0,3,0,5.77.08,7.42C590.16,198.07,590.14,194.63,590.08,192.25Z"/><polygon class="cls-1" points="589.53 213.51 589.63 210.78 589.67 204.28 589.53 213.51"/><path class="cls-1" d="M590.15,81.5,590,71.44c-.17-1-.27,1.72-.21,5.46C589.91,79.31,590,83,590.15,81.5Z"/><path class="cls-1" d="M588.77,111.92a42.32,42.32,0,0,1,.38-4.44l-.62-.3Z"/><path class="cls-1" d="M588.63,82.59c-.17-1-.5-14.6-.46-1.85C588.34,81.76,588.49,91.83,588.63,82.59Z"/><polygon class="cls-1" points="509.31 11.67 511.87 11.67 511.5 10.65 509.31 11.67"/><path class="cls-1" d="M375.74,14.11c11.92.24,2.83-.63,13.6-.32,2.8-.24-8.8-.25-5.94-.46C376.21,13.58,372.43,13.44,375.74,14.11Z"/><path class="cls-1" d="M383.4,13.33l3.68-.15C385,13.24,384,13.29,383.4,13.33Z"/><polygon class="cls-1" points="568.56 591.04 576.22 591.25 571.27 590.91 568.56 591.04"/><path class="cls-1" d="M583.27,590.28l1.81.65,4.6-.58C588,590.38,584.59,590.43,583.27,590.28Z"/><path class="cls-1" d="M14.21,113.87l-.16-.59a59.93,59.93,0,0,0-.2,6.58Z"/><polygon class="cls-1" points="13.72 217.81 13.74 216.02 13.15 219.37 13.72 217.81"/><path class="cls-1" d="M14.47,305.05c0-3.56-.05-7.75-.08-11.32C14.5,301.49,13.74,306,14.47,305.05Z"/></svg>