<svg id="Laag_1" data-name="Laag 1" xmlns="http://www.w3.org/2000/svg" viewBox="0 0 238.58 49.18"><defs><style>.cls-1{fill:#fff;fill-rule:evenodd;}</style></defs><title>Facebooklogo</title><path class="cls-1" d="M111.91,2.6,122,.91V16.56c1.37-.29,2.67-.66,4-.82a21.43,21.43,0,0,1,9.68.62,7.35,7.35,0,0,1,5.18,6.22,33.69,33.69,0,0,1,.43,5.12c0,3.38,0,6.77-.13,10.16s-1.08,6.24-3.81,8.36a13.18,13.18,0,0,1-6.12,2.46,46.31,46.31,0,0,1-13.3,0c-1.82-.22-3.63-.51-5.45-.73-.5-.06-.68-.27-.66-.74s0-.63,0-1q0-21.34,0-42.7C111.87,3.29,111.89,3,111.91,2.6Zm10.14,38a18.35,18.35,0,0,0,5.78,0A3.44,3.44,0,0,0,131,37c.14-3.14.17-6.29.1-9.43-.05-2.16-1-3.09-3.1-3.44a9.13,9.13,0,0,0-5.58,1.13.93.93,0,0,0-.33.69c0,2.83,0,5.66,0,8.5Z"/><path class="cls-1" d="M238.58,48.71h-1.86c-2.79,0-5.57,0-8.35,0a1.24,1.24,0,0,1-1.26-.71c-2.73-4.59-5.49-9.17-8.24-13.75-.07-.13-.15-.24-.33-.53V48.67c-.33,0-.58,0-.84,0-2.85,0-5.71,0-8.57,0-.67,0-.87-.18-.86-.84,0-3.22,0-6.44,0-9.66V3.58c0-1,0-1,1-1.15L217.65,1c.24,0,.48,0,.81-.07V30l.17.06.76-1.16c2.57-4.07,5.15-8.14,7.7-12.22a1.35,1.35,0,0,1,1.32-.75c3,.05,6,0,9,0h1.17c-.18.33-.28.56-.42.77-3,4.82-6.09,9.65-9.16,14.46a1.17,1.17,0,0,0,0,1.47c3.13,5.15,6.21,10.32,9.31,15.48C238.35,48.26,238.42,48.41,238.58,48.71Z"/><path class="cls-1" d="M107.77,39.63c0,.26,0,.47,0,.68,0,2.3,0,4.6,0,6.9,0,.48-.11.69-.65.81a53.2,53.2,0,0,1-13.9,1.09,16.54,16.54,0,0,1-6.37-1.52A11.1,11.1,0,0,1,80.45,39a27.17,27.17,0,0,1-.31-4.33c0-2.51-.09-5,0-7.55a11.87,11.87,0,0,1,2.79-7.6,11,11,0,0,1,6.17-3.43,22.6,22.6,0,0,1,12.15.46,9.82,9.82,0,0,1,7.09,8.62c.39,3.34.32,6.73.46,10.2h-1.07c-5.54,0-11.08,0-16.62,0-.65,0-.88.19-.81.81s0,1,.11,1.52a3.06,3.06,0,0,0,3,2.8,47.31,47.31,0,0,0,6.3.07c2.52-.17,5-.59,7.54-.9C107.45,39.62,107.59,39.63,107.77,39.63ZM94.42,28.45h2c2.21,0,2.21,0,2-2.2A2.92,2.92,0,0,0,96,23.41a9.64,9.64,0,0,0-3.08,0,2.69,2.69,0,0,0-2.37,2.24,20.58,20.58,0,0,0-.21,2.22c0,.48.17.63.63.63C92.1,28.43,93.26,28.45,94.42,28.45Z"/><path class="cls-1" d="M205.71,32.26c-.14,2.28-.12,4.5-.43,6.67-.72,5.13-3.73,8.31-8.75,9.52a22.71,22.71,0,0,1-12.37-.32,10.59,10.59,0,0,1-7.68-9,32.62,32.62,0,0,1-.3-5.05c0-2.47-.07-4.95.14-7.4.51-5.81,3.74-9.41,9.51-10.63a22.75,22.75,0,0,1,11.89.48,10.52,10.52,0,0,1,7.53,8.9C205.61,27.68,205.57,30,205.71,32.26Zm-10.35.08h0c0-1.6,0-3.2,0-4.79a3.41,3.41,0,0,0-2.46-3.24,6.76,6.76,0,0,0-3.65-.1,3.39,3.39,0,0,0-2.8,3.2q-.07,4.89,0,9.8A3.2,3.2,0,0,0,189,40.36a9,9,0,0,0,2.79.24,3.62,3.62,0,0,0,3.61-3.91C195.37,35.24,195.36,33.79,195.36,32.34Z"/><path class="cls-1" d="M173.62,32.63c-.17,2.1-.17,4.56-.59,6.95-.87,5-4.05,7.83-8.84,8.94a23,23,0,0,1-11.68-.24,10.75,10.75,0,0,1-8.15-9,20,20,0,0,1-.3-3.46c0-2.71-.09-5.42,0-8.12.14-3.46,1.15-6.62,3.88-9a12.64,12.64,0,0,1,6.42-2.81,22.77,22.77,0,0,1,11.58.76,10.49,10.49,0,0,1,7.19,8.93C173.48,27.78,173.46,30,173.62,32.63Zm-19.33-.34h0v4.35a4.62,4.62,0,0,0,0,.65,3.21,3.21,0,0,0,2.41,3,9.51,9.51,0,0,0,3,.26A3.57,3.57,0,0,0,163.22,37c0-3.1,0-6.2,0-9.3a3.45,3.45,0,0,0-2.58-3.38,6.7,6.7,0,0,0-3.79,0,3.31,3.31,0,0,0-2.55,3.15C154.24,29.05,154.29,30.67,154.29,32.29Z"/><path class="cls-1" d="M40,47c-1.92.61-3.76,1.31-5.64,1.76a13.58,13.58,0,0,1-6.82,0,8.37,8.37,0,0,1-6.24-7,12.9,12.9,0,0,1,.05-5.25,7.11,7.11,0,0,1,5.9-5.85,26.46,26.46,0,0,1,4.53-.46c2-.08,4.07-.05,6.1,0,.62,0,.82-.19.76-.78a13,13,0,0,1,0-1.53c0-2.61-1.24-3.17-3.29-3.26-3.29-.14-6.58-.11-9.87-.16h-1c.06-.8.11-1.53.18-2.26.19-1.92.38-3.85.61-5.77a.73.73,0,0,1,.53-.45c4.24,0,8.48,0,12.71.17a17.14,17.14,0,0,1,4,.76c3.63,1,5.47,3.64,6,7.25a32.88,32.88,0,0,1,.31,4.54c0,6.42,0,12.83,0,19.25,0,.68-.16.92-.88.9q-3.42-.06-6.83,0c-.68,0-.9-.27-1-.86C40.14,47.61,40.05,47.24,40,47ZM35.6,37.06h0c-.74,0-1.49,0-2.24,0-1.48,0-2.11.72-2.07,2.19a2.28,2.28,0,0,0,2.48,2.56,8.3,8.3,0,0,0,4.49-1.15.91.91,0,0,0,.36-.69c.05-.77,0-1.54,0-2.32,0-.49-.2-.63-.65-.61C37.2,37.08,36.4,37.06,35.6,37.06Z"/><path class="cls-1" d="M22.09,0V5.66c0,.77,0,1.55,0,2.32,0,.47-.15.64-.63.63-1.33,0-2.66,0-4,0a6.25,6.25,0,0,0-1.36.17,1.71,1.71,0,0,0-1.43,1.7c-.06,1.78,0,3.56,0,5.44h7.47c-.13,1.36-.24,2.63-.37,3.89s-.3,2.54-.4,3.82c-.05.58-.21.84-.86.83-2,0-3.92,0-5.94,0v24.2H4.42c0-.33-.07-.68-.07-1,0-7.43,0-14.86,0-22.29,0-.68-.14-.93-.87-.9-1.35.07-2.7,0-4.14,0v-.86c0-2.18,0-4.36,0-6.54,0-1.21-.15-1.1,1.07-1.11s2.18,0,3.27,0c.53,0,.66-.19.66-.67,0-2,0-4,.09-6A9.5,9.5,0,0,1,7.2,2.59,8.17,8.17,0,0,1,12.28.33C15.5.09,18.74.1,22.09,0Z"/><path class="cls-1" d="M77.29,25.09c-1.62-.25-3.11-.5-4.62-.71A22.19,22.19,0,0,0,65,24.3a3,3,0,0,0-2.61,3q-.09,5,0,10.08a2.76,2.76,0,0,0,2.46,2.89,28.53,28.53,0,0,0,5.62.22c2.11-.13,4.2-.57,6.3-.88a4,4,0,0,1,.49,0,3.65,3.65,0,0,1,.08.55c0,2.35,0,4.69,0,7,0,.46-.1.67-.6.78a40.37,40.37,0,0,1-11.43,1.11c-3.41-.22-6.64-1-9.28-3.39a10.89,10.89,0,0,1-3.71-7.49,90.38,90.38,0,0,1-.13-10.79,11.47,11.47,0,0,1,5.52-9.75,15.6,15.6,0,0,1,6.58-2,37.7,37.7,0,0,1,12.43,1c.23,0,.59.34.59.52C77.31,19.8,77.29,22.38,77.29,25.09Z"/></svg>