<?xml version="1.0" encoding="UTF-8"?>
<svg width="14px" height="3px" viewBox="0 0 14 3" version="1.1" xmlns="http://www.w3.org/2000/svg" xmlns:xlink="http://www.w3.org/1999/xlink">
    <!-- Generator: Sketch 51.2 (57519) - http://www.bohemiancoding.com/sketch -->
    <title>settings</title>
    <desc>Created with Sketch.</desc>
    <defs></defs>
    <g id="Page-1" stroke="none" stroke-width="1" fill="none" fill-rule="evenodd">
        <g id="settings" transform="translate(7.000000, 1.000000) scale(1, -1) rotate(-90.000000) translate(-7.000000, -1.000000) translate(5.000000, -6.000000)" fill="#242523" fill-rule="nonzero">
            <path d="M2.497,5.496 C1.67,5.496 0.996,6.17 0.996,6.997 C0.996,7.825 1.67,8.499 2.497,8.499 C3.324,8.499 3.998,7.825 3.998,6.997 C3.998,6.17 3.324,5.496 2.497,5.496" id="Fill-39"></path>
            <path d="M2.497,10.868 C1.67,10.868 0.996,11.542 0.996,12.37 C0.996,13.198 1.67,13.871 2.497,13.871 C3.324,13.871 3.998,13.198 3.998,12.37 C3.998,11.542 3.324,10.868 2.497,10.868" id="Fill-40"></path>
            <path d="M2.497,3.126 C3.324,3.126 3.998,2.453 3.998,1.625 C3.998,0.797 3.324,0.123 2.497,0.123 C1.67,0.123 0.996,0.797 0.996,1.625 C0.996,2.453 1.67,3.126 2.497,3.126" id="Fill-41"></path>
        </g>
    </g>
</svg>