<?xml version="1.0" encoding="UTF-8"?>
<svg width="25px" height="15px" viewBox="0 0 25 15" version="1.1" xmlns="http://www.w3.org/2000/svg" xmlns:xlink="http://www.w3.org/1999/xlink">
    <!-- Generator: Sketch 51.2 (57519) - http://www.bohemiancoding.com/sketch -->
    <title>Group</title>
    <desc>Created with Sketch.</desc>
    <defs></defs>
    <g id="Page-1" stroke="none" stroke-width="1" fill="none" fill-rule="evenodd">
        <g id="Chat" transform="translate(-284.000000, -33.000000)" stroke="#007AFF">
            <g id="Title">
                <g id="Group" transform="translate(284.000000, 33.000000)">
                    <rect id="Rectangle-232" x="0.5" y="0.5" width="17" height="14" rx="3"></rect>
                    <path d="M19.5,5.23176048 C19.5,5.96193288 19.5,6.06112943 19.5,7.18313122 C19.5,9.06333798 19.5,9.27020803 19.5,9.78937813 C19.9595718,10.227162 20.4719634,10.6171083 21.0286094,10.9616987 C21.9148167,11.5103032 22.8678488,11.9187456 23.8210684,12.2062245 C24.0611043,12.2786162 24.2884587,12.3393602 24.5,12.3894291 L24.5,2.6261532 C24.1822794,2.7106365 23.8340826,2.81953351 23.4622853,2.95582471 C22.2259459,3.40903456 20.9888723,4.06567306 19.8354414,4.96204887 C19.7223508,5.04993602 19.6105205,5.13983243 19.5,5.23176054 Z" id="Rectangle-233"></path>
                </g>
            </g>
        </g>
    </g>
</svg>