<?xml version="1.0" encoding="UTF-8"?>
<svg width="375px" height="44px" viewBox="0 0 375 44" version="1.1" xmlns="http://www.w3.org/2000/svg" xmlns:xlink="http://www.w3.org/1999/xlink">
    <!-- Generator: Sketch 51.2 (57519) - http://www.bohemiancoding.com/sketch -->
    <title>Chat Bar</title>
    <desc>Created with Sketch.</desc>
    <defs></defs>
    <g id="Symbols" stroke="none" stroke-width="1" fill="none" fill-rule="evenodd">
        <g id="Chat-Bar">
            <g>
                <rect id="Chat-bar" fill="#FBFAFA" x="0" y="0" width="375" height="44"></rect>
                <g id="Microphone" transform="translate(340.000000, 10.000000)">
                    <path d="M16,12 C16,16.418278 12.418278,20 8,20 C3.581722,20 5.41083001e-16,16.418278 0,12 L1,12 C1,15.8659932 4.13400675,19 8,19 C11.8659932,19 15,15.8659932 15,12 L16,12 Z" id="Combined-Shape" fill="#007AFF"></path>
                    <path d="M8,0 C10.7614237,-5.07265313e-16 13,2.23857625 13,5 L13,12 C13,14.7614237 10.7614237,17 8,17 C5.23857625,17 3,14.7614237 3,12 L3,5 C3,2.23857625 5.23857625,5.07265313e-16 8,0 Z M8,1 C5.790861,1 4,2.790861 4,5 L4,12 C4,14.209139 5.790861,16 8,16 C10.209139,16 12,14.209139 12,12 L12,5 C12,2.790861 10.209139,1 8,1 Z" id="Combined-Shape-Copy-7" fill="#007AFF"></path>
                    <path d="M8.01425739,19.9993332 L7.98492447,24.4949006" id="Path-6" stroke="#007AFF"></path>
                </g>
                <g id="Camera" transform="translate(279.000000, 12.000000)">
                    <path d="M24,17 C24,18.6568542 22.6568542,20 21,20 L3,20 C1.34314575,20 2.02906125e-16,18.6568542 0,17 L4.4408921e-16,5.69871916 C2.41183085e-16,4.04186491 1.34314575,2.69871916 3,2.69871916 L5.61675555,2.69871916 C6.10995906,2.69871916 6.58577046,2.51648147 6.95278655,2.18701388 L8.81902538,0.511705282 C9.18604147,0.182237692 9.66185287,-2.12380954e-15 10.1550564,-1.77635684e-15 L14.6942808,8.8817842e-16 C15.156086,3.93180807e-16 15.6036617,0.159812403 15.9610279,0.452307572 L18.153037,2.24641159 C18.5104032,2.53890676 18.957979,2.69871916 19.4197841,2.69871916 L21.3528298,2.69871916 C22.8148215,2.69871916 24,3.88389763 24,5.34588936 L24,17 Z M22.9520177,16.0224487 L22.9520177,6.19031382 C23.2189178,5.11999342 22.567617,4.035962 21.4972966,3.76906187 C21.2625267,3.71051855 21.0190731,3.69511995 20.7787979,3.72361637 L20.4888431,3.75800475 L18.7375305,3.75800475 C18.2771036,3.75800475 17.8307771,3.59914331 17.4738928,3.30823693 L15.6612878,1.83073183 C15.3044035,1.53982545 14.858077,1.38096401 14.3976501,1.38096401 L10.5495486,1.38096401 C10.057749,1.38096401 9.5831907,1.56216791 9.21655105,1.88995179 L7.69638118,3.24901697 C7.32974153,3.57680085 6.85518325,3.75800475 6.36338359,3.75800475 L4.01728062,3.75800475 C2.54676005,3.58863917 1.21736966,4.6434337 1.04800408,6.11395428 C1.02751735,6.29183082 1.02490669,6.47131262 1.04021124,6.64970977 L1.04401222,6.69401575 L1.04401222,16.061019 L1.04401222,16.3741518 C1.04401222,17.83413 2.22755841,19.0176762 3.68753664,19.0176762 C3.79777427,19.0176762 3.90790396,19.0107807 4.01728062,18.99703 L19.9787493,18.99703 L20.0371999,19.0069716 C21.4180774,19.2418386 22.727897,18.3128135 22.9627639,16.9319361 C23.0140163,16.630603 23.0103756,16.3224867 22.9520177,16.0224487 Z" id="Combined-Shape" fill="#007AFF"></path>
                    <path d="M12,16 C9.23857625,16 7,13.7614237 7,11 C7,8.23857625 9.23857625,6 12,6 C14.7614237,6 17,8.23857625 17,11 C17,13.7614237 14.7614237,16 12,16 Z M12.0000062,14.8999758 C14.1539168,14.8999758 15.9000063,13.1538863 15.9000063,10.9999757 C15.9000063,8.8460651 14.1539168,7.09997559 12.0000062,7.09997559 C9.84609562,7.09997559 8.1000061,8.8460651 8.1000061,10.9999757 C8.1000061,13.1538863 9.84609562,14.8999758 12.0000062,14.8999758 Z" id="Combined-Shape" fill="#007AFF"></path>
                    <circle id="Oval-2" fill="#077DFF" cx="20" cy="7" r="1"></circle>
                </g>
                <g id="Dots" transform="translate(321.000000, 16.000000)" fill="#858E99">
                    <circle id="Oval-3" cx="1" cy="1.40002441" r="1"></circle>
                    <circle id="Oval-3-Copy" cx="1" cy="6" r="1"></circle>
                    <circle id="Oval-3-Copy-2" cx="1" cy="10.5" r="1"></circle>
                </g>
                <path d="M22.5,21 L22.5,13 L24.5,13 L24.5,21 L33.5,21 L33.5,23 L24.5,23 L24.5,32 L22.5,32 L22.5,23 L14.5,23 L14.5,21 L22.5,21 Z" id="Plus" fill="#007AFF"></path>
                <rect id="Chat-section" stroke="#DDDDDD" stroke-width="0.5" x="47.25" y="7.25" width="214.5" height="29.5" rx="14"></rect>
            </g>
        </g>
    </g>
</svg>