<?xml version="1.0" encoding="UTF-8"?>
<svg width="22px" height="23px" viewBox="0 0 22 23" version="1.1" xmlns="http://www.w3.org/2000/svg" xmlns:xlink="http://www.w3.org/1999/xlink">
    <!-- Generator: Sketch 51.2 (57519) - http://www.bohemiancoding.com/sketch -->
    <title>Path 107</title>
    <desc>Created with Sketch.</desc>
    <defs></defs>
    <g id="Page-1" stroke="none" stroke-width="1" fill="none" fill-rule="evenodd">
        <g id="Chat" transform="translate(-335.000000, -27.000000)" stroke="#007CFF">
            <g id="Title">
                <g id="icon_ios_phone" transform="translate(335.000000, 27.000000)">
                    <path d="M0.5,4.18495045 C0.5,7.70354916 3.01557354,12.3562389 7.64362259,16.7375241 C12.5173865,21.3514228 15.8751371,23.0286693 18.569841,22.3563521 C19.1574825,22.209738 20.2552431,21.4184566 20.8921095,20.5791279 C21.6663458,19.5587589 21.7285881,18.6527272 20.9234913,17.8784771 C20.8159277,17.7745044 20.7367329,17.6981649 20.648166,17.6139132 C20.5040739,17.4768415 20.3583254,17.3409952 20.2036359,17.200457 C19.7899119,16.8245813 19.3648128,16.4629759 18.9296392,16.1244876 C18.2665791,15.6087437 17.6278102,15.1843665 17.0334276,14.880358 C16.5919192,14.65454 16.1852523,14.5008813 15.822522,14.4262496 C15.5359928,14.3672963 15.2917852,14.4938965 14.7553363,14.9518145 C14.6405403,15.0500569 14.5835122,15.0985207 14.5202261,15.1507868 C13.768044,15.771991 13.1576221,15.9483786 12.4218263,15.4661544 C10.3457337,14.1055295 7.94781344,11.574788 7.073141,9.55265248 C6.80239358,8.92671761 7.02814691,8.38586227 7.70035239,7.39174405 C7.74424459,7.32697042 7.74424459,7.32697042 7.78786589,7.26291765 C8.33634235,6.45784521 8.48409648,6.13234645 8.41631416,6.01281704 C6.06276022,1.86248883 5.05328757,0.5 4.24795569,0.5 C3.75164271,0.5 2.81677205,0.774688262 2.09371428,1.24370175 C1.08287809,1.89938353 0.5,2.85713617 0.5,4.18495045 Z" id="Path-107"></path>
                </g>
            </g>
        </g>
    </g>
</svg>