<?xml version="1.0" encoding="UTF-8"?>
<svg width="15px" height="17px" viewBox="0 0 15 17" version="1.1" xmlns="http://www.w3.org/2000/svg" xmlns:xlink="http://www.w3.org/1999/xlink">
    <!-- Generator: Sketch 51.2 (57519) - http://www.bohemiancoding.com/sketch -->
    <title>Fill 28</title>
    <desc>Created with Sketch.</desc>
    <defs></defs>
    <g id="Page-1" stroke="none" stroke-width="1" fill="none" fill-rule="evenodd">
        <g id="159256-OUIMC8-489" transform="translate(-347.000000, -359.000000)" fill="#242523">
            <path d="M354.377,367.861 C354.489,367.861 354.698,367.902 354.786,367.985 L361,373.695 L361,360 L348,360 L348,373.695 L354.091,367.985 C354.179,367.902 354.264,367.861 354.377,367.861 Z M361.268,375.211 C361.154,375.211 361.041,375.169 360.954,375.087 L354.377,368.948 L347.799,375.087 C347.666,375.214 347.458,375.244 347.289,375.173 C347.122,375.1 347,374.935 347,374.752 L347,359.703 C347,359.315 347.315,359 347.703,359 L361.297,359 C361.685,359 362,359.315 362,359.703 L362,374.752 C362,374.935 361.755,375.1 361.587,375.173 L361.268,375.211 Z" id="Fill-28"></path>
        </g>
    </g>
</svg>