<?xml version="1.0" encoding="UTF-8"?>
<svg width="17px" height="14px" viewBox="0 0 17 14" version="1.1" xmlns="http://www.w3.org/2000/svg" xmlns:xlink="http://www.w3.org/1999/xlink">
    <!-- Generator: Sketch 51.2 (57519) - http://www.bohemiancoding.com/sketch -->
    <title>Group</title>
    <desc>Created with Sketch.</desc>
    <defs></defs>
    <g id="Page-1" stroke="none" stroke-width="1" fill="none" fill-rule="evenodd">
        <g id="307052-P9JZGV-652" transform="translate(-141.000000, -58.000000)" fill="#282826">
            <g id="Group" transform="translate(141.000000, 58.000000)">
                <path d="M15.272,11.466 C15.272,11.951 14.877,12.346 14.392,12.346 L2.84,12.346 C2.355,12.346 1.96,11.951 1.96,11.466 L1.96,4.215 C1.96,3.73 2.355,3.335 2.84,3.335 L4.28,3.335 C5.231,3.335 6.141,2.88 6.712,2.119 L7.135,1.555 C7.261,1.387 7.461,1.287 7.671,1.287 L9.561,1.287 C9.771,1.287 9.971,1.387 10.097,1.555 L10.52,2.119 C11.091,2.88 12,3.335 12.952,3.335 L14.392,3.335 C14.877,3.335 15.272,3.73 15.272,4.215 L15.272,11.466 Z M14.392,2.106 L12.952,2.106 C12.385,2.106 11.843,1.835 11.503,1.382 L11.079,0.817 C10.723,0.342 10.156,0.058 9.561,0.058 L7.671,0.058 C7.076,0.058 6.509,0.342 6.152,0.817 L5.729,1.382 C5.389,1.835 4.847,2.106 4.28,2.106 L2.84,2.106 C1.677,2.106 0.731,3.052 0.731,4.215 L0.731,11.466 C0.731,12.629 1.677,13.575 2.84,13.575 L14.392,13.575 C15.555,13.575 16.501,12.629 16.501,11.466 L16.501,4.215 C16.501,3.052 15.555,2.106 14.392,2.106 Z" id="Fill-3798"></path>
                <path d="M8.616,10.196 C7.12,10.196 5.902,8.978 5.902,7.482 C5.902,5.986 7.12,4.769 8.616,4.769 C10.112,4.769 11.33,5.986 11.33,7.482 C11.33,8.978 10.112,10.196 8.616,10.196 Z M8.616,3.54 C6.442,3.54 4.673,5.308 4.673,7.482 C4.673,9.656 6.442,11.425 8.616,11.425 C10.79,11.425 12.558,9.656 12.558,7.482 C12.558,5.308 10.79,3.54 8.616,3.54 Z" id="Fill-3799"></path>
            </g>
        </g>
    </g>
</svg>