<?xml version="1.0" encoding="UTF-8"?>
<svg width="15px" height="14px" viewBox="0 0 15 14" version="1.1" xmlns="http://www.w3.org/2000/svg" xmlns:xlink="http://www.w3.org/1999/xlink">
    <!-- Generator: Sketch 51.2 (57519) - http://www.bohemiancoding.com/sketch -->
    <title>Fill 27</title>
    <desc>Created with Sketch.</desc>
    <defs></defs>
    <g id="Page-1" stroke="none" stroke-width="1" fill="none" fill-rule="evenodd">
        <g id="159256-OUIMC8-489" transform="translate(-155.000000, -359.000000)" fill="#242523">
            <path d="M162.655,360.405 C159.432,360.405 156.811,363.028 156.811,366.251 C156.811,369.474 159.432,372.096 162.655,372.096 C163.596,372.096 164.499,371.875 165.34,371.439 C165.438,371.389 165.552,371.379 165.655,371.406 L167.658,371.962 L167.258,370.092 C167.232,369.97 167.26,369.843 167.335,369.742 C168.098,368.721 168.501,367.513 168.501,366.251 C168.501,363.028 165.879,360.405 162.655,360.405 Z M168.232,373.005 L168.117,372.989 L165.585,372.286 C164.663,372.736 163.679,372.962 162.655,372.962 C158.955,372.962 155.944,369.952 155.944,366.251 C155.944,362.55 158.955,359.539 162.655,359.539 C166.357,359.539 169.368,362.55 169.368,366.251 C169.368,367.636 168.946,368.963 168.147,370.099 L168.656,372.481 C168.688,372.629 168.64,372.783 168.529,372.887 C168.448,372.963 168.341,373.005 168.232,373.005 Z" id="Fill-27"></path>
        </g>
    </g>
</svg>