<?xml version="1.0" encoding="UTF-8"?>
<svg width="18px" height="15px" viewBox="0 0 18 15" version="1.1" xmlns="http://www.w3.org/2000/svg" xmlns:xlink="http://www.w3.org/1999/xlink">
    <!-- Generator: Sketch 51.2 (57519) - http://www.bohemiancoding.com/sketch -->
    <title>Fill 29</title>
    <desc>Created with Sketch.</desc>
    <defs></defs>
    <g id="Page-1" stroke="none" stroke-width="1" fill="none" fill-rule="evenodd">
        <g id="159256-OUIMC8-489" transform="translate(-179.000000, -359.000000)" fill="#242523">
            <path d="M185.36,366.321 L194.246,361.674 L185.849,372.272 L185.36,366.321 Z M194.067,360.789 L186.112,364.949 L184.988,365.537 L180.407,360.872 L194.067,360.789 Z M196.256,360.426 L196.268,360.292 L196.273,360.239 L196.193,360.087 L196.186,360.068 L196.159,360.052 L195.943,359.923 L195.929,359.921 L195.849,359.911 L179.378,360.012 C179.203,360.012 179.047,360.117 178.98,360.278 C178.913,360.44 178.949,360.624 179.071,360.748 L184.485,366.261 L185.075,373.437 C185.09,373.614 185.211,373.765 185.382,373.816 L185.507,373.835 C185.637,373.835 185.763,373.776 185.847,373.671 L196.192,360.614 L196.209,360.563 L196.256,360.426 Z" id="Fill-29"></path>
        </g>
    </g>
</svg>