<?xml version="1.0" encoding="UTF-8"?>
<svg width="8px" height="7px" viewBox="0 0 8 7" version="1.1" xmlns="http://www.w3.org/2000/svg" xmlns:xlink="http://www.w3.org/1999/xlink">
    <!-- Generator: Sketch 51.2 (57519) - http://www.bohemiancoding.com/sketch -->
    <title>Fill 26</title>
    <desc>Created with Sketch.</desc>
    <defs></defs>
    <g id="Page-1" stroke="none" stroke-width="1" fill="none" fill-rule="evenodd">
        <g id="159256-OUIMC8-489" transform="translate(-131.000000, -389.000000)" fill="#242523">
            <path d="M137.857,389.611 C137.51,389.263 137.03,389.089 136.417,389.089 C136.248,389.089 136.075,389.119 135.898,389.179 C135.722,389.24 135.558,389.321 135.406,389.423 C135.254,389.526 135.124,389.622 135.014,389.712 C134.905,389.801 134.801,389.897 134.703,389.998 C134.604,389.897 134.5,389.801 134.391,389.712 C134.282,389.622 134.151,389.526 133.999,389.423 C133.847,389.321 133.683,389.24 133.507,389.179 C133.331,389.119 133.158,389.089 132.988,389.089 C132.376,389.089 131.896,389.263 131.548,389.611 C131.201,389.958 131.028,390.441 131.028,391.058 C131.028,391.246 131.06,391.44 131.124,391.639 C131.188,391.838 131.261,392.008 131.343,392.148 C131.425,392.288 131.518,392.425 131.622,392.558 C131.726,392.692 131.802,392.783 131.85,392.834 L131.963,392.943 L134.522,395.477 L134.703,395.552 L134.883,395.477 L137.439,392.952 C138.065,392.309 138.378,391.678 138.378,391.058 C138.378,390.441 138.204,389.958 137.857,389.611" id="Fill-26"></path>
        </g>
    </g>
</svg>