<?xml version="1.0" encoding="UTF-8"?>
<svg width="64px" height="19px" viewBox="0 0 64 19" version="1.1" xmlns="http://www.w3.org/2000/svg" xmlns:xlink="http://www.w3.org/1999/xlink">
    <!-- Generator: Sketch 51.2 (57519) - http://www.bohemiancoding.com/sketch -->
    <title>Group 2</title>
    <desc>Created with Sketch.</desc>
    <defs></defs>
    <g id="Page-1" stroke="none" stroke-width="1" fill="none" fill-rule="evenodd">
        <g id="307052-P9JZGV-652" transform="translate(-218.000000, -56.000000)" fill="#282826">
            <g id="Group-2" transform="translate(218.000000, 56.000000)">
                <path d="M3.847,0.381 C3.024,0.381 2.314,1.181 1.829,1.763 C0.766,3.039 -0.385,5.312 1.072,6.738 C1.307,6.968 1.592,7.168 1.899,7.322 C2.071,7.408 2.254,7.223 2.165,7.052 C2.051,6.833 1.959,6.606 1.919,6.509 C1.666,5.878 1.694,5.15 1.829,4.493 C2.013,3.601 2.321,2.596 3.009,1.958 L3.694,1.533 C3.694,1.533 3.694,10.032 3.694,11.056 C3.694,11.665 3.621,12.429 3.487,13.039 C3.412,13.38 3.805,13.621 4.081,13.405 C4.667,12.947 5.306,12.202 5.306,11.133 C5.306,9.161 5.306,2.787 5.306,2.045 C5.306,1.302 5.051,0.381 3.847,0.381" id="Fill-3794"></path>
                <path d="M49.828,9.75 C49.668,10.535 48.706,12.289 47.735,11.249 C47.387,10.876 47.307,10.264 47.251,9.779 C47.164,9.021 47.156,8.255 47.227,7.496 C47.261,7.123 47.317,6.744 47.483,6.408 C47.957,5.447 49.828,5.364 49.828,6.678 L49.828,9.75 Z M36.58,9.75 C36.42,10.535 35.458,12.289 34.487,11.249 C34.139,10.876 34.059,10.264 34.003,9.779 C33.917,9.021 33.908,8.255 33.979,7.496 C34.013,7.123 34.069,6.744 34.235,6.408 C34.709,5.447 36.58,5.364 36.58,6.678 L36.58,9.75 Z M36.065,17.315 C35.413,17.891 34.529,17.238 34.529,16.125 C34.529,15.011 36.564,13.36 36.564,13.36 C36.564,13.36 36.564,14.358 36.564,15.126 C36.564,15.894 36.718,16.739 36.065,17.315 Z M28.922,9.75 C28.762,10.535 27.8,12.289 26.829,11.249 C26.481,10.876 26.401,10.264 26.345,9.779 C26.259,9.021 26.25,8.255 26.321,7.496 C26.355,7.123 26.411,6.744 26.577,6.408 C27.051,5.447 28.922,5.364 28.922,6.678 L28.922,9.75 Z M63.571,9.52 C63.241,9.606 62.997,9.89 62.972,10.23 C62.93,10.805 62.768,11.619 62.189,11.619 C61.416,11.619 61.304,9.68 61.249,9.192 C61.139,8.206 61.273,7.206 61.139,6.216 C61.088,5.839 61.028,5.211 60.693,4.956 C60.104,4.507 59.394,5.337 59.114,5.795 C58.598,6.639 58.029,8.133 58.029,9.136 C58.029,8.719 57.935,8.284 57.905,7.867 C57.838,6.964 58.022,5.814 57.758,4.954 C57.322,3.539 55.76,5.021 55.475,5.757 C55.015,6.947 54.938,7.888 54.938,7.888 L54.938,5.613 C54.938,5.194 54.598,4.854 54.179,4.854 L54.007,4.854 C53.588,4.854 53.248,5.194 53.248,5.613 L53.248,9.981 C53.248,9.981 52.826,11.363 51.885,11.536 C50.944,11.709 51.136,9.193 51.136,8.368 L51.136,5.411 C51.136,5.093 50.878,4.835 50.56,4.835 L50.483,4.835 C50.165,4.835 49.908,5.093 49.908,5.411 C49.908,5.105 48.929,4.596 48.71,4.511 C47.966,4.222 47.13,4.465 46.567,5.011 C46.067,5.496 45.787,6.174 45.673,6.862 C45.552,7.59 45.636,8.326 45.626,9.054 C45.622,9.351 45.763,10.033 45.626,10.307 C45.626,10.307 45.184,11.728 44.532,11.632 C43.879,11.536 43.552,10.499 43.552,8.982 C43.552,7.753 44.363,6.609 44.2,5.412 C44.192,5.351 41.576,5.411 41.287,5.411 C41.287,5.411 41.498,4.369 40.538,4.369 C39.578,4.369 39.098,5.776 40,6.217 C40,6.217 39.188,9.654 37.85,10.48 L37.85,5.334 C37.85,5.069 37.635,4.854 37.37,4.854 L37.12,4.854 C36.855,4.854 36.641,5.069 36.641,5.334 L36.641,5.449 C36.641,5.1 35.928,4.664 35.678,4.552 C34.851,4.182 33.877,4.379 33.254,5.034 C32.782,5.531 32.535,6.209 32.443,6.889 C32.336,7.681 32.45,8.48 32.398,9.27 C32.374,9.623 32.485,10.162 32.359,10.499 C32.359,10.499 32.013,11.459 31.207,11.459 C30.401,11.459 30.42,9.769 30.42,8.752 L30.42,5.296 C30.42,5.031 30.205,4.816 29.94,4.816 L29.46,4.816 C29.195,4.816 28.98,5.031 28.98,5.296 C28.98,4.988 28.101,4.633 27.897,4.568 C27.166,4.334 26.347,4.445 25.763,4.966 C25.293,5.386 25.038,6.005 24.941,6.628 C24.806,7.496 24.909,8.413 24.909,9.289 C24.909,9.289 23.757,11.306 23.143,11.296 C22.529,11.286 22.49,10.403 22.49,8.694 L22.49,4.144 L24.028,4.144 C24.589,4.144 25.044,3.689 25.044,3.128 C25.044,3.01 24.949,2.915 24.831,2.915 L22.49,2.915 L22.49,1.684 C22.49,1.546 22.464,1.409 22.411,1.282 L22.338,1.102 C22.175,0.701 21.785,0.438 21.351,0.438 C21.132,0.438 20.954,0.616 20.954,0.836 L20.954,2.915 L19.839,2.915 C19.278,2.915 18.823,3.37 18.823,3.931 C18.823,4.049 18.918,4.144 19.036,4.144 L20.954,4.144 L20.954,8.195 L19.418,10.326 C19.609,10.061 19.21,9.184 19.082,8.939 C18.758,8.32 18.2,7.913 17.662,7.494 C17.56,7.414 16.714,6.892 16.711,6.756 C16.703,6.398 17.03,6.283 17.291,6.155 C17.836,5.887 17.983,5.076 17.509,4.685 C17.133,4.376 16.522,4.351 16.107,4.585 C15.834,4.739 15.621,4.983 15.457,5.25 C15.292,5.517 15.171,5.821 15.171,6.135 C15.169,6.737 15.743,6.923 15.596,7.533 C15.425,8.244 14.871,8.943 14.445,9.529 C13.977,10.172 13.366,10.712 12.667,11.093 C12.663,9.658 12.659,8.223 12.656,6.787 C12.654,5.884 12.371,4.586 11.22,4.586 C10.202,4.586 8.513,8.541 8.513,8.541 L8.513,5.919 C8.513,5.324 8.116,4.801 7.543,4.64 L7.41,4.603 C7.138,4.527 6.868,4.731 6.868,5.014 C6.868,5.014 6.868,9.392 6.868,10.493 C6.868,11.593 6.919,12.54 7.815,12.541 C8.699,12.541 8.646,11.045 8.72,10.47 C8.881,9.22 9.539,7.664 10.308,6.694 C10.765,6.118 11.118,6.232 11.118,6.968 L11.118,10.544 C11.118,11.261 11.297,12.541 12.193,12.541 C13.089,12.541 14.241,10.979 14.778,10.083 C15.316,9.187 16.135,7.933 16.135,7.933 L17.15,8.816 C17.576,9.29 17.797,9.916 17.67,10.554 C17.597,10.92 17.403,11.285 16.918,11.335 C16.637,11.363 16.353,11.254 16.152,11.056 C15.75,10.66 15.245,10.457 14.974,11.163 C14.889,11.383 14.878,11.633 14.962,11.853 C15.219,12.522 16.208,12.541 16.801,12.541 C19.54,12.541 19.847,10.749 20.871,9.545 C20.871,9.545 20.871,9.981 20.871,10.467 C20.871,10.953 21.102,12.541 22.458,12.541 C23.815,12.541 24.046,11.747 24.865,10.416 C24.865,10.416 25.556,12.541 26.631,12.541 C27.706,12.541 28.653,12.285 29.242,11.081 C29.242,11.081 29.805,12.541 30.906,12.541 C32.007,12.541 32.596,11.107 32.596,11.107 C32.596,11.107 33.185,12.541 34.72,12.541 C36.257,12.541 36.512,11.081 36.512,11.081 L36.512,12.233 C36.512,12.33 35.978,12.683 35.905,12.746 C34.772,13.727 33.458,14.817 33.269,16.407 C33.206,16.933 33.304,17.491 33.616,17.919 C33.973,18.41 34.586,18.682 35.193,18.699 C36.887,18.748 37.704,17.237 37.821,15.734 C37.882,14.944 37.818,14.128 37.818,13.335 C37.818,13.129 37.658,11.744 37.818,11.619 C38.662,10.964 39.321,10.092 39.874,9.186 C40.033,8.927 41.097,6.448 41.095,6.448 L42.503,6.448 C42.413,6.448 42.24,8.383 42.226,8.583 C42.154,9.595 42.2,10.645 42.617,11.585 C42.758,11.904 42.951,12.217 43.247,12.403 C43.863,12.789 44.723,12.558 45.221,12.085 C45.378,11.937 45.829,11.441 45.78,11.184 C45.987,12.265 47.247,12.653 48.209,12.452 C48.974,12.292 49.978,11.404 49.978,10.544 C49.978,11.406 50.371,12.43 51.355,12.498 C52.195,12.556 52.915,11.766 53.229,11.056 L53.229,11.61 C53.229,11.968 53.52,12.259 53.878,12.259 L54.372,12.259 C54.731,12.259 55.021,11.968 55.021,11.61 L55.021,9.187 C55.021,8.428 55.602,7.238 56.073,6.672 C56.224,6.492 56.495,6.321 56.67,6.477 C56.771,6.568 56.775,6.721 56.772,6.856 C56.731,8.454 56.658,10.138 57.396,11.556 C57.464,11.687 57.545,11.821 57.675,11.889 C58.224,12.176 58.545,10.188 58.596,9.899 C58.794,8.773 59.083,7.712 59.631,6.699 C59.68,6.609 59.785,6.505 59.866,6.568 L59.917,6.659 C60.367,8.203 59.693,9.916 60.236,11.476 C60.351,11.806 60.541,12.115 60.831,12.31 C61.816,12.971 63.176,12.215 63.51,11.202 C63.546,11.092 63.686,9.49 63.571,9.52 Z" id="Fill-3795"></path>
            </g>
        </g>
    </g>
</svg>