<?xml version="1.0" encoding="UTF-8"?>
<svg width="17px" height="15px" viewBox="0 0 17 15" version="1.1" xmlns="http://www.w3.org/2000/svg" xmlns:xlink="http://www.w3.org/1999/xlink">
    <!-- Generator: Sketch 51.2 (57519) - http://www.bohemiancoding.com/sketch -->
    <title>Fill 23</title>
    <desc>Created with Sketch.</desc>
    <defs></defs>
    <g id="Page-1" stroke="none" stroke-width="1" fill="none" fill-rule="evenodd">
        <g id="159256-OUIMC8-489" transform="translate(-130.000000, -359.000000)" fill="#242523">
            <path d="M134.961,360.151 C133.841,360.151 132.997,360.451 132.379,361.07 C131.762,361.69 131.461,362.54 131.461,363.668 C131.461,363.998 131.519,364.345 131.634,364.701 C131.752,365.068 131.887,365.383 132.035,365.635 C132.19,365.899 132.367,366.16 132.563,366.412 C132.759,366.664 132.902,366.837 132.993,366.933 L133.179,367.114 L138.4,372.251 L138.453,372.229 L143.584,367.158 C144.748,365.966 145.34,364.789 145.34,363.668 C145.34,362.539 145.04,361.69 144.421,361.07 C143.804,360.451 142.959,360.151 141.84,360.151 C141.551,360.151 141.247,360.203 140.939,360.309 C140.623,360.417 140.325,360.564 140.054,360.747 C139.762,360.945 139.511,361.129 139.301,361.302 C139.093,361.472 138.897,361.654 138.71,361.844 C138.547,362.011 138.254,362.011 138.09,361.844 C137.904,361.654 137.708,361.472 137.5,361.303 C137.29,361.129 137.038,360.945 136.747,360.747 C136.476,360.564 136.177,360.417 135.862,360.309 C135.553,360.203 135.25,360.151 134.961,360.151 Z M138.4,373.118 C138.141,373.118 137.908,373.02 137.728,372.834 L132.599,367.758 C132.565,367.732 132.476,367.648 132.363,367.529 C132.261,367.422 132.099,367.227 131.879,366.945 C131.66,366.664 131.46,366.37 131.287,366.073 C131.107,365.766 130.946,365.393 130.808,364.966 C130.666,364.526 130.594,364.089 130.594,363.668 C130.594,362.318 130.988,361.237 131.766,360.458 C132.543,359.679 133.618,359.284 134.961,359.284 C135.345,359.284 135.742,359.352 136.141,359.488 C136.53,359.621 136.897,359.803 137.232,360.029 C137.549,360.243 137.822,360.444 138.05,360.632 C138.17,360.73 138.286,360.832 138.4,360.937 C138.514,360.832 138.631,360.73 138.751,360.632 C138.98,360.444 139.252,360.243 139.569,360.029 C139.903,359.803 140.27,359.621 140.659,359.488 C141.058,359.353 141.455,359.284 141.84,359.284 C143.182,359.284 144.257,359.679 145.035,360.458 C145.813,361.237 146.207,362.318 146.207,363.668 C146.207,365.024 145.531,366.404 144.199,367.769 L139.067,372.841 C138.891,373.021 138.659,373.118 138.4,373.118 Z" id="Fill-23"></path>
        </g>
    </g>
</svg>