<?xml version="1.0" encoding="UTF-8"?>
<svg width="23px" height="20px" viewBox="0 0 23 20" version="1.1" xmlns="http://www.w3.org/2000/svg" xmlns:xlink="http://www.w3.org/1999/xlink">
    <!-- Generator: Sketch 51.2 (57519) - http://www.bohemiancoding.com/sketch -->
    <title>Fill 1436</title>
    <desc>Created with Sketch.</desc>
    <defs></defs>
    <g id="Page-1" stroke="none" stroke-width="1" fill="none" fill-rule="evenodd">
        <g id="1266" transform="translate(-269.000000, -525.000000)" fill="#C82F2C">
            <path d="M280.439,545.026 C280.07,545.026 279.738,544.887 279.482,544.62 L272.172,537.388 C272.122,537.352 271.996,537.232 271.835,537.06 C271.691,536.908 271.46,536.631 271.147,536.228 C270.832,535.83 270.552,535.409 270.302,534.986 C270.046,534.549 269.818,534.018 269.621,533.41 C269.417,532.778 269.316,532.158 269.316,531.555 C269.316,529.635 269.876,528.094 270.986,526.984 C272.093,525.871 273.625,525.309 275.538,525.309 C276.085,525.309 276.65,525.408 277.221,525.601 C277.775,525.79 278.296,526.05 278.774,526.375 C279.227,526.675 279.613,526.962 279.941,527.231 C280.11,527.37 280.28,527.517 280.439,527.666 C280.605,527.517 280.769,527.37 280.938,527.229 C281.268,526.962 281.656,526.675 282.107,526.375 C282.583,526.05 283.106,525.79 283.66,525.601 C284.227,525.408 284.794,525.309 285.342,525.309 C287.255,525.309 288.788,525.871 289.896,526.984 C291.003,528.094 291.565,529.635 291.565,531.555 C291.565,533.492 290.605,535.456 288.704,537.4 L281.393,544.63 C281.14,544.889 280.81,545.026 280.439,545.026" id="Fill-1436"></path>
        </g>
    </g>
</svg>